<svg xmlns="http://www.w3.org/2000/svg" xmlns:xlink="http://www.w3.org/1999/xlink" xmlns:lucid="lucid" width="497" height="160"><g transform="translate(-460.83333333333337 -434.66666666666663)" lucid:page-tab-id="HCJ_xQZ-1b4O"><path d="M0 0h1000v1000H0z" fill="#fff"/><path d="M777.83 459.67a5 5 0 0 1 5-5h150a5 5 0 0 1 5 5v110a5 5 0 0 1-5 5h-150a5 5 0 0 1-5-5z" stroke="#000" stroke-width="2" fill="#666"/><use xlink:href="#a" transform="matrix(1,0,0,1,785.8333333333334,462.66666666666663) translate(36.05 44.8)"/><use xlink:href="#b" transform="matrix(1,0,0,1,785.8333333333334,462.66666666666663) translate(42.55 66.4)"/><path d="M666.36 515.67h-22.7v-2h22.7zm109.47 0H752.3v-2h23.53z" stroke="#000" stroke-width=".05"/><path d="M776.83 515.67h-1.02v-2h1.03z"/><path d="M776.86 515.7h-1.08v-2.06h1.08zm-1.03-2v1.94h.98v-1.95zM661.52 505.35l-15.76 9.32 15.76 9.32-1 1.7-18.7-11.03 18.68-11.04z" stroke="#000" stroke-width=".05"/><use xlink:href="#c" transform="matrix(1,0,0,1,666.3583333333333,493.0666666666666) translate(0.005000000000002558 14.4)"/><use xlink:href="#d" transform="matrix(1,0,0,1,666.3583333333333,493.0666666666666) translate(34.005 14.4)"/><use xlink:href="#e" transform="matrix(1,0,0,1,666.3583333333333,493.0666666666666) translate(22.980000000000004 36)"/><path d="M480.83 459.67a5 5 0 0 1 5-5h150a5 5 0 0 1 5 5v110a5 5 0 0 1-5 5h-150a5 5 0 0 1-5-5z" stroke="#000" stroke-width="2" fill="#666"/><g><use xlink:href="#f" transform="matrix(1,0,0,1,488.83333333333337,462.66666666666663) translate(44.05 55.6)"/></g><defs><path fill="#fff" d="M160-131c35 5 61 23 61 61C221 17 115-2 30 0v-248c76 3 177-17 177 60 0 33-19 50-47 57zm-97-11c50-1 110 9 110-42 0-47-63-36-110-37v79zm0 115c55-2 124 14 124-45 0-56-70-42-124-44v89" id="g"/><path fill="#fff" d="M100-194c62-1 85 37 85 99 1 63-27 99-86 99S16-35 15-95c0-66 28-99 85-99zM99-20c44 1 53-31 53-75 0-43-8-75-51-75s-53 32-53 75 10 74 51 75" id="h"/><path fill="#fff" d="M114-163C36-179 61-72 57 0H25l-1-190h30c1 12-1 29 2 39 6-27 23-49 58-41v29" id="i"/><path fill="#fff" d="M100-194c63 0 86 42 84 106H49c0 40 14 67 53 68 26 1 43-12 49-29l28 8c-11 28-37 45-77 45C44 4 14-33 15-96c1-61 26-98 85-98zm52 81c6-60-76-77-97-28-3 7-6 17-6 28h103" id="j"/><path fill="#fff" d="M106-169C34-169 62-67 57 0H25v-261h32l-1 103c12-21 28-36 61-36 89 0 53 116 60 194h-32v-121c2-32-8-49-39-48" id="k"/><path fill="#fff" d="M24 0v-261h32V0H24" id="l"/><g id="a"><use transform="matrix(0.05,0,0,0.05,0,0)" xlink:href="#g"/><use transform="matrix(0.05,0,0,0.05,12,0)" xlink:href="#h"/><use transform="matrix(0.05,0,0,0.05,22,0)" xlink:href="#i"/><use transform="matrix(0.05,0,0,0.05,27.950000000000003,0)" xlink:href="#j"/><use transform="matrix(0.05,0,0,0.05,37.95,0)" xlink:href="#k"/><use transform="matrix(0.05,0,0,0.05,47.95,0)" xlink:href="#h"/><use transform="matrix(0.05,0,0,0.05,57.95,0)" xlink:href="#l"/><use transform="matrix(0.05,0,0,0.05,61.900000000000006,0)" xlink:href="#j"/></g><path fill="#fff" d="M33 0v-248h34V0H33" id="m"/><path fill="#fff" d="M117-194c89-4 53 116 60 194h-32v-121c0-31-8-49-39-48C34-167 62-67 57 0H25l-1-190h30c1 10-1 24 2 32 11-22 29-35 61-36" id="n"/><path fill="#fff" d="M59-47c-2 24 18 29 38 22v24C64 9 27 4 27-40v-127H5v-23h24l9-43h21v43h35v23H59v120" id="o"/><path fill="#fff" d="M108 0H70L1-190h34L89-25l56-165h34" id="p"/><path fill="#fff" d="M141-36C126-15 110 5 73 4 37 3 15-17 15-53c-1-64 63-63 125-63 3-35-9-54-41-54-24 1-41 7-42 31l-33-3c5-37 33-52 76-52 45 0 72 20 72 64v82c-1 20 7 32 28 27v20c-31 9-61-2-59-35zM48-53c0 20 12 33 32 33 41-3 63-29 60-74-43 2-92-5-92 41" id="q"/><g id="b"><use transform="matrix(0.05,0,0,0.05,0,0)" xlink:href="#m"/><use transform="matrix(0.05,0,0,0.05,5,0)" xlink:href="#n"/><use transform="matrix(0.05,0,0,0.05,15,0)" xlink:href="#o"/><use transform="matrix(0.05,0,0,0.05,20,0)" xlink:href="#j"/><use transform="matrix(0.05,0,0,0.05,30,0)" xlink:href="#i"/><use transform="matrix(0.05,0,0,0.05,35.95,0)" xlink:href="#p"/><use transform="matrix(0.05,0,0,0.05,44.95,0)" xlink:href="#q"/><use transform="matrix(0.05,0,0,0.05,54.95,0)" xlink:href="#l"/></g><path d="M106-169C34-169 62-67 57 0H25v-261h32l-1 103c12-21 28-36 61-36 89 0 53 116 60 194h-32v-121c2-32-8-49-39-48" id="r"/><path d="M141-36C126-15 110 5 73 4 37 3 15-17 15-53c-1-64 63-63 125-63 3-35-9-54-41-54-24 1-41 7-42 31l-33-3c5-37 33-52 76-52 45 0 72 20 72 64v82c-1 20 7 32 28 27v20c-31 9-61-2-59-35zM48-53c0 20 12 33 32 33 41-3 63-29 60-74-43 2-92-5-92 41" id="s"/><path d="M135-143c-3-34-86-38-87 0 15 53 115 12 119 90S17 21 10-45l28-5c4 36 97 45 98 0-10-56-113-15-118-90-4-57 82-63 122-42 12 7 21 19 24 35" id="t"/><g id="c"><use transform="matrix(0.05,0,0,0.05,0,0)" xlink:href="#r"/><use transform="matrix(0.05,0,0,0.05,10,0)" xlink:href="#s"/><use transform="matrix(0.05,0,0,0.05,20,0)" xlink:href="#t"/></g><path d="M96-169c-40 0-48 33-48 73s9 75 48 75c24 0 41-14 43-38l32 2c-6 37-31 61-74 61-59 0-76-41-82-99-10-93 101-131 147-64 4 7 5 14 7 22l-32 3c-4-21-16-35-41-35" id="u"/><path d="M24-231v-30h32v30H24zM24 0v-190h32V0H24" id="v"/><path d="M117-194c89-4 53 116 60 194h-32v-121c0-31-8-49-39-48C34-167 62-67 57 0H25l-1-190h30c1 10-1 24 2 32 11-22 29-35 61-36" id="w"/><path d="M177-190C167-65 218 103 67 71c-23-6-38-20-44-43l32-5c15 47 100 32 89-28v-30C133-14 115 1 83 1 29 1 15-40 15-95c0-56 16-97 71-98 29-1 48 16 59 35 1-10 0-23 2-32h30zM94-22c36 0 50-32 50-73 0-42-14-75-50-75-39 0-46 34-46 75s6 73 46 73" id="x"/><g id="d"><use transform="matrix(0.05,0,0,0.05,0,0)" xlink:href="#u"/><use transform="matrix(0.05,0,0,0.05,9,0)" xlink:href="#s"/><use transform="matrix(0.05,0,0,0.05,19,0)" xlink:href="#t"/><use transform="matrix(0.05,0,0,0.05,28,0)" xlink:href="#v"/><use transform="matrix(0.05,0,0,0.05,31.950000000000003,0)" xlink:href="#w"/><use transform="matrix(0.05,0,0,0.05,41.95,0)" xlink:href="#x"/></g><path d="M26 75v-336h71v23H56V52h41v23H26" id="y"/><path d="M101-251c68 0 85 55 85 127S166 4 100 4C33 4 14-52 14-124c0-73 17-127 87-127zm-1 229c47 0 54-49 54-102s-4-102-53-102c-51 0-55 48-55 102 0 53 5 102 54 102" id="z"/><path d="M33 0v-38h34V0H33" id="A"/><path d="M27 0v-27h64v-190l-56 39v-29l58-41h29v221h61V0H27" id="B"/><path d="M3 75V52h41v-290H3v-23h71V75H3" id="C"/><g id="e"><use transform="matrix(0.05,0,0,0.05,0,0)" xlink:href="#y"/><use transform="matrix(0.05,0,0,0.05,5,0)" xlink:href="#z"/><use transform="matrix(0.05,0,0,0.05,15,0)" xlink:href="#A"/><use transform="matrix(0.05,0,0,0.05,20,0)" xlink:href="#A"/><use transform="matrix(0.05,0,0,0.05,25,0)" xlink:href="#B"/><use transform="matrix(0.05,0,0,0.05,35,0)" xlink:href="#C"/></g><path fill="#fff" d="M212-179c-10-28-35-45-73-45-59 0-87 40-87 99 0 60 29 101 89 101 43 0 62-24 78-52l27 14C228-24 195 4 139 4 59 4 22-46 18-125c-6-104 99-153 187-111 19 9 31 26 39 46" id="D"/><path fill="#fff" d="M135-143c-3-34-86-38-87 0 15 53 115 12 119 90S17 21 10-45l28-5c4 36 97 45 98 0-10-56-113-15-118-90-4-57 82-63 122-42 12 7 21 19 24 35" id="E"/><path fill="#fff" d="M24-231v-30h32v30H24zM24 0v-190h32V0H24" id="F"/><path fill="#fff" d="M177-190C167-65 218 103 67 71c-23-6-38-20-44-43l32-5c15 47 100 32 89-28v-30C133-14 115 1 83 1 29 1 15-40 15-95c0-56 16-97 71-98 29-1 48 16 59 35 1-10 0-23 2-32h30zM94-22c36 0 50-32 50-73 0-42-14-75-50-75-39 0-46 34-46 75s6 73 46 73" id="G"/><g id="f"><use transform="matrix(0.05,0,0,0.05,0,0)" xlink:href="#D"/><use transform="matrix(0.05,0,0,0.05,12.950000000000001,0)" xlink:href="#q"/><use transform="matrix(0.05,0,0,0.05,22.950000000000003,0)" xlink:href="#E"/><use transform="matrix(0.05,0,0,0.05,31.950000000000003,0)" xlink:href="#F"/><use transform="matrix(0.05,0,0,0.05,35.900000000000006,0)" xlink:href="#n"/><use transform="matrix(0.05,0,0,0.05,45.900000000000006,0)" xlink:href="#G"/></g></defs></g></svg>