<svg xmlns="http://www.w3.org/2000/svg" xmlns:xlink="http://www.w3.org/1999/xlink" xmlns:lucid="lucid" width="826.67" height="395.34"><g transform="translate(-187.33333333331387 -255.66149089170761)" lucid:page-tab-id="0_0"><path d="M0 0h1000v1000H0z" fill="#fff"/><path d="M490 296.5v309.67M490 296.57V294M490 606.1v2.57" stroke="#3a414a" stroke-width="5" fill="none"/><path d="M641 292.67H339M640.97 292.67H642M339.03 292.67H338" stroke="#3a414a" stroke-width="2" fill="none"/><path d="M488 476.83l-6.83 5.1-5.8 5.9-4.94 6.92-8.43 13.92-4.7 5-11.6 8.7-14.37 8.97-2.6 1.6-3.55 1.9-5.33 2.54-11.04 4.55-42.9 16.95-13.04 6.23-10.88 5.9-7.18 4.37" stroke="#3a414a" stroke-width="5" stroke-linejoin="round" fill="none"/><path d="M487.94 476.87l2.06-1.53M334.86 575.34l-2.2 1.33" stroke="#3a414a" stroke-width="5" fill="none"/><path d="M490.77 321.72l1.7 5.26 2.6 7.03 2.8 6.7 3.06 6.54 3.48 6.68 4.15 7.2 5.37 8.48 8.7 12.48 48.7 67.28 9.33 14.54" stroke="#3a414a" stroke-width="5" stroke-linejoin="round" fill="none"/><path d="M490.8 321.78l-.8-2.44M580.6 463.85L582 466" stroke="#3a414a" stroke-width="5" fill="none"/><path d="M544 416.42l.25 1 .85 3.94.77 4.8.7 6.53.64 13.5 1 25.2.92 8.62 1.1 6.92 1.3 6.05 1.5 5.52 1.72 5.18 1.92 4.96 2.04 4.56 2.65 5.24 3.5 6.23 4.9 7.77 7.47 10.75 20.4 26.36 24.08 30.93 7.9 11.4 1.72 2.67" stroke="#3a414a" stroke-width="5" stroke-linejoin="round" fill="none"/><path d="M544 416.48l-.67-2.47M631.28 614.5l1.4 2.17" stroke="#3a414a" stroke-width="5" fill="none"/><path d="M335.86 419.36l63.76 108.8" stroke="#979ea8" fill="none"/><path d="M336.3 419.12l-.87.5-.38-.64.56-.05.5-.12z" stroke="#979ea8" stroke-width=".05" fill="#979ea8"/><path d="M407.1 540.9l-11.22-9.97 8-4.68z" stroke="#979ea8" fill="#979ea8"/><path d="M341.17 384.63l132.5-10.65" stroke="#979ea8" fill="none"/><path d="M341.22 385.13l-.55.04v-1l.47-.04z" stroke="#979ea8" stroke-width=".05" fill="#979ea8"/><path d="M488.4 372.8l-13.86 5.76-.74-9.24z" stroke="#979ea8" fill="#979ea8"/><path d="M207.33 356.34a6 6 0 0 1 6-6h121.34a6 6 0 0 1 6 6V413a6 6 0 0 1-6 6H213.33a6 6 0 0 1-6-6z" stroke="#000" stroke-opacity="0" fill="#fff" fill-opacity="0"/><use xlink:href="#a" transform="matrix(1,0,0,1,212.33333333331387,355.33850910829227) translate(13.179012345679013 23.243055555555557)"/><use xlink:href="#b" transform="matrix(1,0,0,1,212.33333333331387,355.33850910829227) translate(14.163580246913583 52.57638888888889)"/><path d="M585.56 345.76l-81.24-45.13" stroke="#979ea8" fill="none"/><path d="M586 345.43v1.15l-.7-.4.5-.86z" stroke="#979ea8" stroke-width=".05" fill="#979ea8"/><path d="M491.4 293.46l14.74 2.87-4.5 8.1z" stroke="#979ea8" fill="#979ea8"/><path d="M586 327a6 6 0 0 1 6-6h121.33a6 6 0 0 1 6 6v38a6 6 0 0 1-6 6H592a6 6 0 0 1-6-6z" stroke="#000" stroke-opacity="0" fill="#fff" fill-opacity="0"/><use xlink:href="#c" transform="matrix(1,0,0,1,591.0000000000193,326.00517577495896) translate(0.3456790123456841 24.555555555555557)"/><use xlink:href="#d" transform="matrix(1,0,0,1,591.0000000000193,326.00517577495896) translate(58.672839506172835 24.555555555555557)"/><path d="M680.05 393.67a6 6 0 0 1 6-6H875.4a6 6 0 0 1 6 6v45.77a6 6 0 0 1-6 6H686.04a6 6 0 0 1-6-6z" stroke="#000" stroke-opacity="0" fill="#fff" fill-opacity="0"/><use xlink:href="#e" transform="matrix(1,0,0,1,685.0527552654933,392.6718424416257) translate(3.790123456790127 19.555555555555557)"/><use xlink:href="#f" transform="matrix(1,0,0,1,685.0527552654933,392.6718424416257) translate(108.22222222222223 19.555555555555557)"/><use xlink:href="#g" transform="matrix(1,0,0,1,685.0527552654933,392.6718424416257) translate(96 48.88888888888889)"/><use xlink:href="#h" transform="matrix(1,0,0,1,685.0527552654933,392.6718424416257) translate(4.774691358024683 78.22222222222223)"/><use xlink:href="#i" transform="matrix(1,0,0,1,685.0527552654933,392.6718424416257) translate(107.23765432098764 78.22222222222223)"/><g fill="none"><path d="M499.9 326.1a6 6 0 0 1 1.7-8.32l59.06-38.82a6 6 0 0 1 8.3 1.72l85.2 129.56a6 6 0 0 1-1.72 8.3l-59.05 38.83a6 6 0 0 1-8.32-1.72z"/><path d="M588.38 460.67c4.6-3.04 5.9-9.24 2.86-13.85l-34.9-53.1c-3.03-4.6-1.75-10.8 2.86-13.84-4.6 3.04-10.8 1.76-13.85-2.86l-34.9-53.08c-3.04-4.6-9.24-5.9-13.85-2.86" stroke="#979ea8"/></g><path d="M555.76 419.98a6 6 0 0 1 6-6h70.67a6 6 0 0 1 6 6v69.72a6 6 0 0 1-6 6h-70.67a6 6 0 0 1-6-6z" fill="none"/><path d="M555.76 495.7c5.52 0 10-4.47 10-10v-20.86c0-5.52 4.48-10 10-10-5.52 0-10-4.48-10-10v-20.86c0-5.53-4.48-10-10-10" stroke="#979ea8" fill="none"/><g fill="none"><path d="M558.54 501.18a6 6 0 0 1 1-8.43l55.62-43.6a6 6 0 0 1 8.42 1l81.55 103.98a6 6 0 0 1-1 8.43l-55.62 43.6a6 6 0 0 1-8.4-1z"/><path d="M643.8 609.87c4.34-3.4 5.1-9.7 1.7-14.04l-32.15-40.97c-3.4-4.34-2.65-10.63 1.7-14.04-4.35 3.4-10.63 2.65-14.04-1.7l-32.13-40.97c-3.4-4.34-9.7-5.1-14.04-1.7" stroke="#979ea8"/></g><path d="M679.57 419.02l-108-29.64" stroke="#979ea8" fill="none"/><path d="M680.05 418.63v1.04l-.62-.17.26-.96z" stroke="#979ea8" stroke-width=".05" fill="#979ea8"/><path d="M557.33 385.48l15-.7-2.47 8.94z" stroke="#979ea8" fill="#979ea8"/><path d="M679.82 417l-56.9 108.6" stroke="#979ea8" fill="none"/><path d="M680.05 417.13l-.68-.35.68-1.3z" stroke="#979ea8" stroke-width=".05" fill="#979ea8"/><path d="M616.06 538.68l2.5-14.8 8.22 4.3z" stroke="#979ea8" fill="#979ea8"/><path d="M679.58 416.73l-86.54 32.2" stroke="#979ea8" fill="none"/><path d="M680.05 417.1l-.3.1-.35-.93.65-.25z" stroke="#979ea8" stroke-width=".05" fill="#979ea8"/><path d="M579.2 454.08l11.75-9.32 3.23 8.7z" stroke="#979ea8" fill="#979ea8"/><path d="M891.33 295.28a6 6 0 0 1 6-6H968a6 6 0 0 1 6 6V625a6 6 0 0 1-6 6h-70.67a6 6 0 0 1-6-6z" fill="none"/><path d="M891.33 631c5.53 0 10-4.47 10-10V470.14c0-5.52 4.48-10 10-10-5.52 0-10-4.47-10-10V299.28c0-5.52-4.47-10-10-10" stroke="#979ea8" fill="none"/><path d="M919.33 433.04a6 6 0 0 1 6-6H988a6 6 0 0 1 6 6v56.66a6 6 0 0 1-6 6h-62.67a6 6 0 0 1-6-6z" stroke="#000" stroke-opacity="0" fill="#fff" fill-opacity="0"/><g><use xlink:href="#j" transform="matrix(1,0,0,1,924.3333333333528,432.0364387610532) translate(6.7314814814814845 23.243055555555557)"/><use xlink:href="#k" transform="matrix(1,0,0,1,924.3333333333528,432.0364387610532) translate(9.074074074074076 52.57638888888889)"/></g><path d="M228.67 281.66a6 6 0 0 1 6-6h92a6 6 0 0 1 6 6v25.32a6 6 0 0 1-6 6h-92a6 6 0 0 1-6-6z" stroke="#000" stroke-opacity="0" fill="#fff" fill-opacity="0"/><g><use xlink:href="#l" transform="matrix(1,0,0,1,233.66666666668604,280.66149089170773) translate(4.9351851851851904 21.305555555555557)"/></g><defs><path fill="#3a414a" d="M160-131c35 5 61 23 61 61C221 17 115-2 30 0v-248c76 3 177-17 177 60 0 33-19 50-47 57zm-97-11c50-1 110 9 110-42 0-47-63-36-110-37v79zm0 115c55-2 124 14 124-45 0-56-70-42-124-44v89" id="m"/><path fill="#3a414a" d="M100-194c62-1 85 37 85 99 1 63-27 99-86 99S16-35 15-95c0-66 28-99 85-99zM99-20c44 1 53-31 53-75 0-43-8-75-51-75s-53 32-53 75 10 74 51 75" id="n"/><path fill="#3a414a" d="M114-163C36-179 61-72 57 0H25l-1-190h30c1 12-1 29 2 39 6-27 23-49 58-41v29" id="o"/><path fill="#3a414a" d="M100-194c63 0 86 42 84 106H49c0 40 14 67 53 68 26 1 43-12 49-29l28 8c-11 28-37 45-77 45C44 4 14-33 15-96c1-61 26-98 85-98zm52 81c6-60-76-77-97-28-3 7-6 17-6 28h103" id="p"/><path fill="#3a414a" d="M106-169C34-169 62-67 57 0H25v-261h32l-1 103c12-21 28-36 61-36 89 0 53 116 60 194h-32v-121c2-32-8-49-39-48" id="q"/><path fill="#3a414a" d="M24 0v-261h32V0H24" id="r"/><g id="a"><use transform="matrix(0.06790123456790123,0,0,0.06790123456790123,0,0)" xlink:href="#m"/><use transform="matrix(0.06790123456790123,0,0,0.06790123456790123,16.296296296296294,0)" xlink:href="#n"/><use transform="matrix(0.06790123456790123,0,0,0.06790123456790123,29.87654320987654,0)" xlink:href="#o"/><use transform="matrix(0.06790123456790123,0,0,0.06790123456790123,37.95679012345679,0)" xlink:href="#p"/><use transform="matrix(0.06790123456790123,0,0,0.06790123456790123,51.53703703703703,0)" xlink:href="#q"/><use transform="matrix(0.06790123456790123,0,0,0.06790123456790123,65.11728395061728,0)" xlink:href="#n"/><use transform="matrix(0.06790123456790123,0,0,0.06790123456790123,78.69753086419752,0)" xlink:href="#r"/><use transform="matrix(0.06790123456790123,0,0,0.06790123456790123,84.06172839506172,0)" xlink:href="#p"/></g><path fill="#3a414a" d="M247 0h-39l-15-214-24 57L95 0H56L31-248h35L82-30l101-218h33l16 218 101-218h35" id="s"/><path fill="#3a414a" d="M111-194c62-3 86 47 72 106H45c-7 38 6 69 45 68 27-1 43-14 53-32l24 11C152-15 129 4 87 4 38 3 12-23 12-71c0-70 32-119 99-123zm44 81c14-66-71-72-95-28-4 8-8 17-11 28h106" id="t"/><path fill="#3a414a" d="M6 0l50-261h32L37 0H6" id="u"/><path fill="#3a414a" d="M68-162c25-46 127-43 121 31C183-60 169 1 98 4 69 5 53-11 43-31L36 0H5l52-261h31zm88 36c2-27-9-43-34-43-55 0-70 51-70 103 0 29 15 45 43 46 52 0 58-58 61-106" id="v"/><path fill="#3a414a" d="M30-147c31-64 166-65 159 27C183-49 158 1 86 4 9 8 1-88 30-147zM88-20c53 0 68-48 68-100 0-31-11-51-44-50-52 1-68 46-68 97 0 32 13 53 44 53" id="w"/><path fill="#3a414a" d="M66-151c12-25 30-51 66-40l-6 26C45-176 58-65 38 0H6l36-190h30" id="x"/><g id="b"><use transform="matrix(0.06790123456790123,0,0,0.06790123456790123,0,0)" xlink:href="#s"/><use transform="matrix(0.06790123456790123,0,0,0.06790123456790123,22.543209876543205,0)" xlink:href="#t"/><use transform="matrix(0.06790123456790123,0,0,0.06790123456790123,36.123456790123456,0)" xlink:href="#u"/><use transform="matrix(0.06790123456790123,0,0,0.06790123456790123,41.48765432098765,0)" xlink:href="#u"/><use transform="matrix(0.06790123456790123,0,0,0.06790123456790123,46.85185185185185,0)" xlink:href="#v"/><use transform="matrix(0.06790123456790123,0,0,0.06790123456790123,60.432098765432094,0)" xlink:href="#w"/><use transform="matrix(0.06790123456790123,0,0,0.06790123456790123,74.01234567901234,0)" xlink:href="#x"/><use transform="matrix(0.06790123456790123,0,0,0.06790123456790123,82.09259259259258,0)" xlink:href="#t"/></g><g id="c"><use transform="matrix(0.06790123456790123,0,0,0.06790123456790123,0,0)" xlink:href="#m"/><use transform="matrix(0.06790123456790123,0,0,0.06790123456790123,16.296296296296294,0)" xlink:href="#n"/><use transform="matrix(0.06790123456790123,0,0,0.06790123456790123,29.87654320987654,0)" xlink:href="#o"/><use transform="matrix(0.06790123456790123,0,0,0.06790123456790123,37.95679012345679,0)" xlink:href="#p"/></g><path fill="#3a414a" d="M140-251c81 0 123 46 123 126C263-46 219 4 140 4 59 4 17-45 17-125s42-126 123-126zm0 227c63 0 89-41 89-101s-29-99-89-99c-61 0-89 39-89 99S79-25 140-24" id="y"/><path fill="#3a414a" d="M24-231v-30h32v30H24zM24 0v-190h32V0H24" id="z"/><path fill="#3a414a" d="M177-190C167-65 218 103 67 71c-23-6-38-20-44-43l32-5c15 47 100 32 89-28v-30C133-14 115 1 83 1 29 1 15-40 15-95c0-56 16-97 71-98 29-1 48 16 59 35 1-10 0-23 2-32h30zM94-22c36 0 50-32 50-73 0-42-14-75-50-75-39 0-46 34-46 75s6 73 46 73" id="A"/><path fill="#3a414a" d="M117-194c89-4 53 116 60 194h-32v-121c0-31-8-49-39-48C34-167 62-67 57 0H25l-1-190h30c1 10-1 24 2 32 11-22 29-35 61-36" id="B"/><g id="d"><use transform="matrix(0.06790123456790123,0,0,0.06790123456790123,0,0)" xlink:href="#y"/><use transform="matrix(0.06790123456790123,0,0,0.06790123456790123,19.012345679012345,0)" xlink:href="#o"/><use transform="matrix(0.06790123456790123,0,0,0.06790123456790123,27.09259259259259,0)" xlink:href="#z"/><use transform="matrix(0.06790123456790123,0,0,0.06790123456790123,32.45679012345679,0)" xlink:href="#A"/><use transform="matrix(0.06790123456790123,0,0,0.06790123456790123,46.03703703703703,0)" xlink:href="#z"/><use transform="matrix(0.06790123456790123,0,0,0.06790123456790123,51.401234567901234,0)" xlink:href="#B"/></g><g id="e"><use transform="matrix(0.06790123456790123,0,0,0.06790123456790123,0,0)" xlink:href="#m"/><use transform="matrix(0.06790123456790123,0,0,0.06790123456790123,16.296296296296294,0)" xlink:href="#n"/><use transform="matrix(0.06790123456790123,0,0,0.06790123456790123,29.87654320987654,0)" xlink:href="#o"/><use transform="matrix(0.06790123456790123,0,0,0.06790123456790123,37.95679012345679,0)" xlink:href="#p"/><use transform="matrix(0.06790123456790123,0,0,0.06790123456790123,51.53703703703703,0)" xlink:href="#q"/><use transform="matrix(0.06790123456790123,0,0,0.06790123456790123,65.11728395061728,0)" xlink:href="#n"/><use transform="matrix(0.06790123456790123,0,0,0.06790123456790123,78.69753086419752,0)" xlink:href="#r"/><use transform="matrix(0.06790123456790123,0,0,0.06790123456790123,84.06172839506172,0)" xlink:href="#p"/></g><path fill="#3a414a" d="M33 0v-248h34V0H33" id="C"/><path fill="#3a414a" d="M59-47c-2 24 18 29 38 22v24C64 9 27 4 27-40v-127H5v-23h24l9-43h21v43h35v23H59v120" id="D"/><path fill="#3a414a" d="M108 0H70L1-190h34L89-25l56-165h34" id="E"/><path fill="#3a414a" d="M141-36C126-15 110 5 73 4 37 3 15-17 15-53c-1-64 63-63 125-63 3-35-9-54-41-54-24 1-41 7-42 31l-33-3c5-37 33-52 76-52 45 0 72 20 72 64v82c-1 20 7 32 28 27v20c-31 9-61-2-59-35zM48-53c0 20 12 33 32 33 41-3 63-29 60-74-43 2-92-5-92 41" id="F"/><g id="f"><use transform="matrix(0.06790123456790123,0,0,0.06790123456790123,0,0)" xlink:href="#C"/><use transform="matrix(0.06790123456790123,0,0,0.06790123456790123,6.790123456790123,0)" xlink:href="#B"/><use transform="matrix(0.06790123456790123,0,0,0.06790123456790123,20.37037037037037,0)" xlink:href="#D"/><use transform="matrix(0.06790123456790123,0,0,0.06790123456790123,27.160493827160494,0)" xlink:href="#p"/><use transform="matrix(0.06790123456790123,0,0,0.06790123456790123,40.74074074074074,0)" xlink:href="#o"/><use transform="matrix(0.06790123456790123,0,0,0.06790123456790123,48.82098765432099,0)" xlink:href="#E"/><use transform="matrix(0.06790123456790123,0,0,0.06790123456790123,61.04320987654321,0)" xlink:href="#F"/><use transform="matrix(0.06790123456790123,0,0,0.06790123456790123,74.62345679012346,0)" xlink:href="#r"/></g><g id="h"><use transform="matrix(0.06790123456790123,0,0,0.06790123456790123,0,0)" xlink:href="#s"/><use transform="matrix(0.06790123456790123,0,0,0.06790123456790123,22.543209876543205,0)" xlink:href="#t"/><use transform="matrix(0.06790123456790123,0,0,0.06790123456790123,36.123456790123456,0)" xlink:href="#u"/><use transform="matrix(0.06790123456790123,0,0,0.06790123456790123,41.48765432098765,0)" xlink:href="#u"/><use transform="matrix(0.06790123456790123,0,0,0.06790123456790123,46.85185185185185,0)" xlink:href="#v"/><use transform="matrix(0.06790123456790123,0,0,0.06790123456790123,60.432098765432094,0)" xlink:href="#w"/><use transform="matrix(0.06790123456790123,0,0,0.06790123456790123,74.01234567901234,0)" xlink:href="#x"/><use transform="matrix(0.06790123456790123,0,0,0.06790123456790123,82.09259259259258,0)" xlink:href="#t"/></g><path fill="#3a414a" d="M14 0l48-248h34L48 0H14" id="G"/><path fill="#3a414a" d="M67-158c22-48 132-52 116 29L158 0h-32l25-140c3-38-53-32-70-12C52-117 51-52 38 0H6l36-190h30" id="H"/><path fill="#3a414a" d="M51-54c-9 22 5 41 31 30L79-1C43 14 10-4 19-52l22-115H19l5-23h22l19-43h21l-9 43h35l-4 23H73" id="I"/><path fill="#3a414a" d="M89 0H52L20-190h33L74-25l89-165h34" id="J"/><path fill="#3a414a" d="M165-48c-4 18 1 34 23 27l-3 20c-29 8-62 0-52-35h-2C116-14 99 4 63 4 30 4 8-16 8-49c0-68 71-67 138-67 10-26 0-56-31-54-26 1-42 9-47 31l-32-5c8-67 160-71 144 15-5 28-9 54-15 81zM42-50c3 52 80 24 89-6 7-12 7-24 11-38-47 1-103-4-100 44" id="K"/><g id="i"><use transform="matrix(0.06790123456790123,0,0,0.06790123456790123,0,0)" xlink:href="#G"/><use transform="matrix(0.06790123456790123,0,0,0.06790123456790123,6.790123456790123,0)" xlink:href="#H"/><use transform="matrix(0.06790123456790123,0,0,0.06790123456790123,20.37037037037037,0)" xlink:href="#I"/><use transform="matrix(0.06790123456790123,0,0,0.06790123456790123,27.160493827160494,0)" xlink:href="#t"/><use transform="matrix(0.06790123456790123,0,0,0.06790123456790123,40.74074074074074,0)" xlink:href="#x"/><use transform="matrix(0.06790123456790123,0,0,0.06790123456790123,48.82098765432099,0)" xlink:href="#J"/><use transform="matrix(0.06790123456790123,0,0,0.06790123456790123,61.04320987654321,0)" xlink:href="#K"/><use transform="matrix(0.06790123456790123,0,0,0.06790123456790123,74.62345679012346,0)" xlink:href="#u"/></g><g id="j"><use transform="matrix(0.06790123456790123,0,0,0.06790123456790123,0,0)" xlink:href="#m"/><use transform="matrix(0.06790123456790123,0,0,0.06790123456790123,16.296296296296294,0)" xlink:href="#n"/><use transform="matrix(0.06790123456790123,0,0,0.06790123456790123,29.87654320987654,0)" xlink:href="#o"/><use transform="matrix(0.06790123456790123,0,0,0.06790123456790123,37.95679012345679,0)" xlink:href="#p"/></g><g id="k"><use transform="matrix(0.06790123456790123,0,0,0.06790123456790123,0,0)" xlink:href="#s"/><use transform="matrix(0.06790123456790123,0,0,0.06790123456790123,22.543209876543205,0)" xlink:href="#t"/><use transform="matrix(0.06790123456790123,0,0,0.06790123456790123,36.123456790123456,0)" xlink:href="#u"/><use transform="matrix(0.06790123456790123,0,0,0.06790123456790123,41.48765432098765,0)" xlink:href="#u"/></g><path fill="#3a414a" d="M185-189c-5-48-123-54-124 2 14 75 158 14 163 119 3 78-121 87-175 55-17-10-28-26-33-46l33-7c5 56 141 63 141-1 0-78-155-14-162-118-5-82 145-84 179-34 5 7 8 16 11 25" id="L"/><path fill="#3a414a" d="M84 4C-5 8 30-112 23-190h32v120c0 31 7 50 39 49 72-2 45-101 50-169h31l1 190h-30c-1-10 1-25-2-33-11 22-28 36-60 37" id="M"/><path fill="#3a414a" d="M101-234c-31-9-42 10-38 44h38v23H63V0H32v-167H5v-23h27c-7-52 17-82 69-68v24" id="N"/><path fill="#3a414a" d="M96-169c-40 0-48 33-48 73s9 75 48 75c24 0 41-14 43-38l32 2c-6 37-31 61-74 61-59 0-76-41-82-99-10-93 101-131 147-64 4 7 5 14 7 22l-32 3c-4-21-16-35-41-35" id="O"/><g id="l"><use transform="matrix(0.06790123456790123,0,0,0.06790123456790123,0,0)" xlink:href="#L"/><use transform="matrix(0.06790123456790123,0,0,0.06790123456790123,16.296296296296294,0)" xlink:href="#M"/><use transform="matrix(0.06790123456790123,0,0,0.06790123456790123,29.87654320987654,0)" xlink:href="#o"/><use transform="matrix(0.06790123456790123,0,0,0.06790123456790123,37.95679012345679,0)" xlink:href="#N"/><use transform="matrix(0.06790123456790123,0,0,0.06790123456790123,44.74691358024691,0)" xlink:href="#F"/><use transform="matrix(0.06790123456790123,0,0,0.06790123456790123,58.32716049382716,0)" xlink:href="#O"/><use transform="matrix(0.06790123456790123,0,0,0.06790123456790123,70.54938271604938,0)" xlink:href="#p"/></g></defs></g></svg>