<svg xmlns="http://www.w3.org/2000/svg" xmlns:xlink="http://www.w3.org/1999/xlink" xmlns:lucid="lucid" width="905.65" height="902.68"><g transform="translate(-268.5078190684379 18.007011465331544)" lucid:page-tab-id="yzJ_y_W.P3cw"><path d="M0 0h1500v1000H0z" fill="#fff"/><path d="M708.5 544.2a5 5 0 0 1 5-5h150a5 5 0 0 1 5 5v110a5 5 0 0 1-5 5h-150a5 5 0 0 1-5-5z" stroke="#000" stroke-width="2" fill="#666"/><use xlink:href="#a" transform="matrix(1,0,0,1,716.5078190684379,547.1965302267988) translate(53.025 55.6)"/><path d="M789.5 536.38h-2v-38.66h2zm0-60.26h-2v-21.4h2z" stroke="#000" stroke-width=".05"/><path d="M789.5 454.75h-2v-1.03h2z"/><path d="M789.53 454.77h-2.05v-1.08h2.05zm-2-1.03v.98h1.95v-.98zM799.55 519.53L788.5 538.2l-11.03-18.67 1.72-1.02 9.3 15.77 9.33-15.76z" stroke="#000" stroke-width=".05"/><use xlink:href="#b" transform="matrix(1,0,0,1,732.0578190684379,476.1214558748267) translate(0 14.4)"/><use xlink:href="#c" transform="matrix(1,0,0,1,732.0578190684379,476.1214558748267) translate(34 14.4)"/><use xlink:href="#d" transform="matrix(1,0,0,1,732.0578190684379,476.1214558748267) translate(69.95 14.4)"/><path d="M708.5 337.72a5 5 0 0 1 5-5h150a5 5 0 0 1 5 5v110a5 5 0 0 1-5 5h-150a5 5 0 0 1-5-5z" stroke="#000" stroke-width="2" fill="#666"/><use xlink:href="#e" transform="matrix(1,0,0,1,716.5078190684379,340.7193823215993) translate(36.05 55.6)"/><path d="M288.5 189.15a5 5 0 0 1 5-5h150a5 5 0 0 1 5 5v110a5 5 0 0 1-5 5h-150a5 5 0 0 1-5-5z" stroke="#000" stroke-width="2" fill="#b2b2b2"/><use xlink:href="#f" transform="matrix(1,0,0,1,296.5078190684379,192.14747503566622) translate(36.05 44.8)"/><use xlink:href="#g" transform="matrix(1,0,0,1,296.5078190684379,192.14747503566622) translate(31.575000000000003 66.4)"/><path d="M288.5 337.72a5 5 0 0 1 5-5h150a5 5 0 0 1 5 5v110a5 5 0 0 1-5 5h-150a5 5 0 0 1-5-5z" stroke="#000" stroke-width="2" fill="#b2b2b2"/><use xlink:href="#h" transform="matrix(1,0,0,1,296.5078190684379,340.7193823215993) translate(36.05 34)"/><use xlink:href="#i" transform="matrix(1,0,0,1,296.5078190684379,340.7193823215993) translate(41.025 55.6)"/><use xlink:href="#j" transform="matrix(1,0,0,1,296.5078190684379,340.7193823215993) translate(17.099999999999994 77.2)"/><path d="M288.5 489.15a5 5 0 0 1 5-5h150a5 5 0 0 1 5 5v110a5 5 0 0 1-5 5h-150a5 5 0 0 1-5-5z" stroke="#000" stroke-width="2" fill="#b2b2b2"/><use xlink:href="#h" transform="matrix(1,0,0,1,296.5078190684379,492.14747503566633) translate(36.05 44.8)"/><use xlink:href="#k" transform="matrix(1,0,0,1,296.5078190684379,492.14747503566633) translate(46.5 66.4)"/><path d="M288.5 40.58a5 5 0 0 1 5-5h150a5 5 0 0 1 5 5v110a5 5 0 0 1-5 5h-150a5 5 0 0 1-5-5z" stroke="#000" stroke-width="2" fill="#b2b2b2"/><use xlink:href="#h" transform="matrix(1,0,0,1,296.5078190684379,43.575567749733224) translate(36.05 44.8)"/><use xlink:href="#l" transform="matrix(1,0,0,1,296.5078190684379,43.575567749733224) translate(38.525 66.4)"/><path d="M288.5 640.58a5 5 0 0 1 5-5h150a5 5 0 0 1 5 5v110a5 5 0 0 1-5 5h-150a5 5 0 0 1-5-5z" stroke="#000" stroke-width="2" fill="#b2b2b2"/><use xlink:href="#h" transform="matrix(1,0,0,1,296.5078190684379,643.5755677497332) translate(36.05 44.8)"/><use xlink:href="#m" transform="matrix(1,0,0,1,296.5078190684379,643.5755677497332) translate(12.174999999999997 66.4)"/><use xlink:href="#n" transform="matrix(1,0,0,1,296.5078190684379,643.5755677497332) translate(71.875 66.4)"/><path d="M707.6 391.3l-1.5 1.32-136.74-157.48H572zM553.27 213.55h-2.65L449.95 97.6l1.5-1.3z" stroke="#000" stroke-width=".05"/><path d="M707.5 394.25l-1.42-1.65 1.43-1.24z"/><path d="M707.53 394.3l-1.5-1.7 1.5-1.3zm-1.4-1.7l1.35 1.58v-2.76zM470.1 102.43l-.65 1.9-17.37-5.8 3.3 18.02-1.97.36-3.9-21.32z" stroke="#000" stroke-width=".05"/><use xlink:href="#b" transform="matrix(1,0,0,1,511.8357421379826,213.54126163264303) translate(0.005000000000002558 14.4)"/><use xlink:href="#o" transform="matrix(1,0,0,1,511.8357421379826,213.54126163264303) translate(34.005 14.4)"/><path d="M707.14 391.35l-1 1.74-128.08-73.77h4zm-162.58-93.62h-4l-89.98-51.8 1-1.74z" stroke="#000" stroke-width=".05"/><path d="M707.5 391.56v2.3l-1.38-.8 1-1.72z"/><path d="M707.53 391.55v2.37l-1.44-.84 1-1.77zm-1.38 1.5l1.33.78v-2.25l-.35-.2zM471.22 245.9l-18.3.2 9 15.95-1.74.98-10.67-18.88 21.7-.25z" stroke="#000" stroke-width=".05"/><use xlink:href="#b" transform="matrix(1,0,0,1,504.41074213798265,297.73032197712115) translate(0.005000000000002558 14.4)"/><use xlink:href="#p" transform="matrix(1,0,0,1,504.41074213798265,297.73032197712115) translate(34.005 14.4)"/><path d="M508.4 393.72h-57.07v-2h57.06zm198.1 0h-92.26v-2h92.27z" stroke="#000" stroke-width=".05"/><path d="M707.5 393.72h-1.02v-2h1.03z"/><path d="M707.53 393.74h-1.07v-2.05h1.07zm-1.02-2v1.95h.98v-1.96zM469.2 383.4l-15.76 9.32 15.76 9.32-1.02 1.72-18.67-11.04 18.68-11.04z" stroke="#000" stroke-width=".05"/><use xlink:href="#q" transform="matrix(1,0,0,1,508.3857421379826,371.1193823215993) translate(3.9549999999999983 14.4)"/><use xlink:href="#r" transform="matrix(1,0,0,1,508.3857421379826,371.1193823215993) translate(8.954999999999998 14.4)"/><use xlink:href="#s" transform="matrix(1,0,0,1,508.3857421379826,371.1193823215993) translate(42.955 14.4)"/><use xlink:href="#t" transform="matrix(1,0,0,1,508.3857421379826,371.1193823215993) translate(0.005000000000002558 36)"/><path d="M451.58 544.1l-1-1.74 90.35-53.03h3.96zm255.57-150L581.7 467.72h-3.96l128.4-75.37z" stroke="#000" stroke-width=".05"/><path d="M707.5 393.88l-.37.22-1-1.72 1.38-.82z"/><path d="M707.53 393.9l-.4.24-1.05-1.77 1.45-.85zm-1.38-1.5l1 1.67.33-.2v-2.27zM461.77 526.14l-8.87 16.02 18.3.06v2l-21.7-.07 10.52-18.98z" stroke="#000" stroke-width=".05"/><use xlink:href="#b" transform="matrix(1,0,0,1,480.36074213798264,467.72691530842843) translate(0.0049999999999954525 14.4)"/><use xlink:href="#u" transform="matrix(1,0,0,1,480.36074213798264,467.72691530842843) translate(34.004999999999995 14.4)"/><use xlink:href="#v" transform="matrix(1,0,0,1,480.36074213798264,467.72691530842843) translate(113.905 14.4)"/><path d="M451.45 694.84l-1.52-1.3L538.2 589.9h2.64zm126.2-148.13H575l48.9-57.37h2.62zM707.6 394.14l-65.36 76.72v-3.08l63.84-74.94z" stroke="#000" stroke-width=".05"/><path d="M707.5 394.07l-1.42-1.22 1.43-1.67z"/><path d="M707.53 394.12l-1.48-1.27 1.48-1.74zm-1.4-1.27l1.35 1.16v-2.75zM455.18 674.54l-3.12 18.05 17.3-5.97.66 1.9-20.5 7.05 3.7-21.38z" stroke="#000" stroke-width=".05"/><use xlink:href="#w" transform="matrix(1,0,0,1,514.5502464832384,546.7085486920377) translate(0.005000000000002558 14.4)"/><use xlink:href="#x" transform="matrix(1,0,0,1,514.5502464832384,546.7085486920377) translate(35.005 14.4)"/><use xlink:href="#y" transform="matrix(1,0,0,1,514.5502464832384,546.7085486920377) translate(13.405000000000001 36)"/><path d="M509.84 53.5a8.7 8.7 0 0 1 4.32-7.5l71.36-41.5a8.6 8.6 0 0 1 8.64 0L665.52 46a8.7 8.7 0 0 1 4.32 7.5V117a5 5 0 0 1-5 5h-150a5 5 0 0 1-5-5z" stroke="#000" stroke-width="2" fill="#fff"/><use xlink:href="#z" transform="matrix(1,0,0,1,509.8411524017713,1.9929885346684557) translate(60.025 52.8)"/><use xlink:href="#A" transform="matrix(1,0,0,1,509.8411524017713,1.9929885346684557) translate(56.5 74.4)"/><path d="M789.5 330.72h-2v-14.44h2zm0-57.64h-2v-24.02h2z" stroke="#000" stroke-width=".05"/><path d="M789.5 331.72h-2v-1.03h2z"/><path d="M789.53 331.74h-2.05v-1.07h2.05zm-2-1.02v.97h1.95v-.98zM799.55 265.9l-1.72 1.03-9.32-15.76-9.3 15.76-1.73-1.02 11.04-18.66z" stroke="#000" stroke-width=".05"/><use xlink:href="#B" transform="matrix(1,0,0,1,722.5828190684381,273.0769591147751) translate(0.0049999999999954525 14.4)"/><use xlink:href="#C" transform="matrix(1,0,0,1,722.5828190684381,273.0769591147751) translate(36.955 14.4)"/><use xlink:href="#D" transform="matrix(1,0,0,1,722.5828190684381,273.0769591147751) translate(116.855 14.4)"/><use xlink:href="#E" transform="matrix(1,0,0,1,722.5828190684381,273.0769591147751) translate(44.455000000000005 36)"/><path d="M892.4 393.72h-21.9v-2h21.9zm98.94 0h-21.08v-2h21.08z" stroke="#000" stroke-width=".05"/><path d="M870.53 393.72h-1.02v-2h1.03z"/><path d="M870.56 393.74h-1.08v-2.05h1.08zm-1.03-2v1.95h.98v-1.96zM993.16 392.72l-18.67 11.04-1.03-1.72 15.76-9.32-15.76-9.32 1.02-1.72z" stroke="#000" stroke-width=".05"/><use xlink:href="#b" transform="matrix(1,0,0,1,892.4083333333334,360.31938232159933) translate(0.005000000000002558 14.4)"/><use xlink:href="#F" transform="matrix(1,0,0,1,892.4083333333334,360.31938232159933) translate(34.005 14.4)"/><use xlink:href="#G" transform="matrix(1,0,0,1,892.4083333333334,360.31938232159933) translate(7.979999999999997 36)"/><use xlink:href="#H" transform="matrix(1,0,0,1,892.4083333333334,360.31938232159933) translate(28.93 57.6)"/><path d="M994.16 337.72a5 5 0 0 1 5-5h150a5 5 0 0 1 5 5v110a5 5 0 0 1-5 5h-150a5 5 0 0 1-5-5z" stroke="#000" stroke-width="2" fill="#fff"/><use xlink:href="#I" transform="matrix(1,0,0,1,1002.1588475982288,340.7193823215993) translate(54.5 44.8)"/><use xlink:href="#J" transform="matrix(1,0,0,1,1002.1588475982288,340.7193823215993) translate(32.55 66.4)"/><path d="M951.05 600.2H870.5v-2h80.55zm124.1-5.96l-.06.9-.23.9-.36.88-.48.8-.62.72-.7.6-.82.5-.87.37-.9.23-.9.07h-19.25v-2h19.17l.66-.06.6-.14.6-.24.53-.33.48-.4.4-.48.34-.54.24-.57.15-.6.06-.67V455.54h2z" stroke="#000" stroke-width=".05"/><path d="M870.53 600.2h-1.02v-2h1.03z"/><path d="M870.56 600.22h-1.08v-2.05h1.08zm-1.03-2v1.95h.98v-1.95zM1085.2 472.4l-1.72 1-9.32-15.75-9.32 15.76-1.72-1 11.04-18.68z" stroke="#000" stroke-width=".05"/><use xlink:href="#b" transform="matrix(1,0,0,1,951.0552859999617,577.5965302267988) translate(0.005000000000002558 14.4)"/><use xlink:href="#K" transform="matrix(1,0,0,1,951.0552859999617,577.5965302267988) translate(34.005 14.4)"/><use xlink:href="#H" transform="matrix(1,0,0,1,951.0552859999617,577.5965302267988) translate(39.455000000000005 36)"/><path d="M768.5 212.58a5 5 0 0 1 5-5h30a5 5 0 0 1 5 5v28.66a5 5 0 0 1-5 5h-30a5 5 0 0 1-5-5z" stroke="#000" stroke-width="2" fill="#fff"/><path d="M787.97 205.27l-.77 1.84L681 162.44h5.16zm-153.15-64.44h-5.16l-38.53-16.2.77-1.85z" stroke="#000" stroke-width=".05"/><path d="M791.1 206.58h-3.7l.55-1.32z"/><path d="M791.2 206.6h-3.84l.58-1.38zm-3.77-.05h3.53l-3-1.26zM611.6 122.04l-18.14 2.48 10.9 14.7-1.6 1.2-12.92-17.43 21.5-2.94z" stroke="#000" stroke-width=".05"/><g><use xlink:href="#L" transform="matrix(1,0,0,1,622.9107691522694,140.83106407736443) translate(0 14.4)"/><use xlink:href="#M" transform="matrix(1,0,0,1,622.9107691522694,140.83106407736443) translate(50 14.4)"/></g><path d="M708.5 7a5 5 0 0 1 5-5h150a5 5 0 0 1 5 5v110a5 5 0 0 1-5 5h-150a5 5 0 0 1-5-5z" stroke="#000" stroke-width="2" fill="#b2b2b2"/><g><use xlink:href="#N" transform="matrix(1,0,0,1,716.5078190684379,9.992988534668456) translate(53.55 55.6)"/></g><path d="M789.5 205.58h-2v-39.4h2zm0-61h-2V124.8h2z" stroke="#000" stroke-width=".05"/><path d="M789.5 206.58h-2v-1.03h2z"/><path d="M789.53 206.6h-2.05v-1.07h2.05zm-2-1.03v.98h1.95v-.98zM799.55 141.66l-1.72 1.02-9.32-15.76-9.3 15.76-1.73-1.02L788.5 123z" stroke="#000" stroke-width=".05"/><g><use xlink:href="#w" transform="matrix(1,0,0,1,743.5578190684379,144.5663107159366) translate(0.005000000000002558 14.4)"/><use xlink:href="#O" transform="matrix(1,0,0,1,743.5578190684379,144.5663107159366) translate(35.005 14.4)"/><use xlink:href="#M" transform="matrix(1,0,0,1,743.5578190684379,144.5663107159366) translate(69.905 14.4)"/></g><path d="M708.5 750.67a5 5 0 0 1 5-5h150a5 5 0 0 1 5 5v109a5 5 0 0 1-5 5h-150a5 5 0 0 1-5-5z" stroke="#000" stroke-width="2" fill="#666"/><g><use xlink:href="#P" transform="matrix(1,0,0,1,716.5078190684379,753.6736781319983) translate(36.05 44.3)"/><use xlink:href="#Q" transform="matrix(1,0,0,1,716.5078190684379,753.6736781319983) translate(42.55 65.9)"/></g><path d="M789.5 742.86h-2v-29.63h2zm0-51.23h-2V661.2h2z" stroke="#000" stroke-width=".05"/><path d="M789.5 661.22h-2v-1.02h2z"/><path d="M789.53 661.25h-2.05v-1.08h2.05zm-2-1.03v.98h1.95v-.98zM799.55 726l-11.04 18.67L777.48 726l1.72-1 9.3 15.75 9.33-15.76z" stroke="#000" stroke-width=".05"/><g><use xlink:href="#b" transform="matrix(1,0,0,1,701.107819068438,691.6351041793986) translate(0 14.4)"/><use xlink:href="#R" transform="matrix(1,0,0,1,701.107819068438,691.6351041793986) translate(34 14.4)"/><use xlink:href="#S" transform="matrix(1,0,0,1,701.107819068438,691.6351041793986) translate(62.95 14.4)"/><use xlink:href="#T" transform="matrix(1,0,0,1,701.107819068438,691.6351041793986) translate(131.85000000000002 14.4)"/></g><path d="M994.16 85.9a5 5 0 0 1 5-5h150a5 5 0 0 1 5 5v110a5 5 0 0 1-5 5h-150a5 5 0 0 1-5-5z" stroke="#000" stroke-width="2" fill="#fff"/><g><use xlink:href="#U" transform="matrix(1,0,0,1,1002.1588475982288,88.9089010830665) translate(50.5 44.8)"/><use xlink:href="#V" transform="matrix(1,0,0,1,1002.1588475982288,88.9089010830665) translate(41.55 66.4)"/></g><path d="M869.04 332.34l-1.37-1.45 77.2-73.32h2.9zm135.88-129.02l-34.4 32.66h-2.9l35.93-34.1z" stroke="#000" stroke-width=".05"/><path d="M874.9 312.55l-5 17.6 17.83-4.08.45 1.94-21.14 4.86 5.93-20.86z" stroke="#000" stroke-width=".05"/><path d="M1004.9 203.34l-1.35-1.43h2.86z"/><path d="M1004.9 203.38l-1.4-1.5h2.98zm-1.3-1.45l1.3 1.38 1.45-1.37z" stroke="#000" stroke-width=".05"/><g><use xlink:href="#W" transform="matrix(1,0,0,1,885.8036353035563,235.97792962371426) translate(0 14.4)"/><use xlink:href="#X" transform="matrix(1,0,0,1,885.8036353035563,235.97792962371426) translate(17.95 14.4)"/><use xlink:href="#Y" transform="matrix(1,0,0,1,885.8036353035563,235.97792962371426) translate(80.85000000000001 14.4)"/><use xlink:href="#T" transform="matrix(1,0,0,1,885.8036353035563,235.97792962371426) translate(100.85000000000001 14.4)"/></g><defs><path fill="#fff" d="M160-131c35 5 61 23 61 61C221 17 115-2 30 0v-248c76 3 177-17 177 60 0 33-19 50-47 57zm-97-11c50-1 110 9 110-42 0-47-63-36-110-37v79zm0 115c55-2 124 14 124-45 0-56-70-42-124-44v89" id="Z"/><path fill="#fff" d="M100-194c62-1 85 37 85 99 1 63-27 99-86 99S16-35 15-95c0-66 28-99 85-99zM99-20c44 1 53-31 53-75 0-43-8-75-51-75s-53 32-53 75 10 74 51 75" id="aa"/><path fill="#fff" d="M114-163C36-179 61-72 57 0H25l-1-190h30c1 12-1 29 2 39 6-27 23-49 58-41v29" id="ab"/><path fill="#fff" d="M100-194c63 0 86 42 84 106H49c0 40 14 67 53 68 26 1 43-12 49-29l28 8c-11 28-37 45-77 45C44 4 14-33 15-96c1-61 26-98 85-98zm52 81c6-60-76-77-97-28-3 7-6 17-6 28h103" id="ac"/><g id="a"><use transform="matrix(0.05,0,0,0.05,0,0)" xlink:href="#Z"/><use transform="matrix(0.05,0,0,0.05,12,0)" xlink:href="#aa"/><use transform="matrix(0.05,0,0,0.05,22,0)" xlink:href="#ab"/><use transform="matrix(0.05,0,0,0.05,27.950000000000003,0)" xlink:href="#ac"/></g><path d="M106-169C34-169 62-67 57 0H25v-261h32l-1 103c12-21 28-36 61-36 89 0 53 116 60 194h-32v-121c2-32-8-49-39-48" id="ad"/><path d="M141-36C126-15 110 5 73 4 37 3 15-17 15-53c-1-64 63-63 125-63 3-35-9-54-41-54-24 1-41 7-42 31l-33-3c5-37 33-52 76-52 45 0 72 20 72 64v82c-1 20 7 32 28 27v20c-31 9-61-2-59-35zM48-53c0 20 12 33 32 33 41-3 63-29 60-74-43 2-92-5-92 41" id="ae"/><path d="M135-143c-3-34-86-38-87 0 15 53 115 12 119 90S17 21 10-45l28-5c4 36 97 45 98 0-10-56-113-15-118-90-4-57 82-63 122-42 12 7 21 19 24 35" id="af"/><g id="b"><use transform="matrix(0.05,0,0,0.05,0,0)" xlink:href="#ad"/><use transform="matrix(0.05,0,0,0.05,10,0)" xlink:href="#ae"/><use transform="matrix(0.05,0,0,0.05,20,0)" xlink:href="#af"/></g><path d="M115-194c55 1 70 41 70 98S169 2 115 4C84 4 66-9 55-30l1 105H24l-1-265h31l2 30c10-21 28-34 59-34zm-8 174c40 0 45-34 45-75s-6-73-45-74c-42 0-51 32-51 76 0 43 10 73 51 73" id="ag"/><path d="M114-163C36-179 61-72 57 0H25l-1-190h30c1 12-1 29 2 39 6-27 23-49 58-41v29" id="ah"/><path d="M59-47c-2 24 18 29 38 22v24C64 9 27 4 27-40v-127H5v-23h24l9-43h21v43h35v23H59v120" id="ai"/><g id="c"><use transform="matrix(0.05,0,0,0.05,0,0)" xlink:href="#ag"/><use transform="matrix(0.05,0,0,0.05,10,0)" xlink:href="#ae"/><use transform="matrix(0.05,0,0,0.05,20,0)" xlink:href="#ah"/><use transform="matrix(0.05,0,0,0.05,25.950000000000003,0)" xlink:href="#ai"/></g><path d="M26 75v-336h71v23H56V52h41v23H26" id="aj"/><path d="M27 0v-27h64v-190l-56 39v-29l58-41h29v221h61V0H27" id="ak"/><path d="M33 0v-38h34V0H33" id="al"/><path d="M190 0L58-211 59 0H30v-248h39L202-35l-2-213h31V0h-41" id="am"/><path d="M3 75V52h41v-290H3v-23h71V75H3" id="an"/><g id="d"><use transform="matrix(0.05,0,0,0.05,0,0)" xlink:href="#aj"/><use transform="matrix(0.05,0,0,0.05,5,0)" xlink:href="#ak"/><use transform="matrix(0.05,0,0,0.05,15,0)" xlink:href="#al"/><use transform="matrix(0.05,0,0,0.05,20,0)" xlink:href="#al"/><use transform="matrix(0.05,0,0,0.05,25,0)" xlink:href="#am"/><use transform="matrix(0.05,0,0,0.05,37.95,0)" xlink:href="#an"/></g><path fill="#fff" d="M106-169C34-169 62-67 57 0H25v-261h32l-1 103c12-21 28-36 61-36 89 0 53 116 60 194h-32v-121c2-32-8-49-39-48" id="ao"/><path fill="#fff" d="M24 0v-261h32V0H24" id="ap"/><g id="e"><use transform="matrix(0.05,0,0,0.05,0,0)" xlink:href="#Z"/><use transform="matrix(0.05,0,0,0.05,12,0)" xlink:href="#aa"/><use transform="matrix(0.05,0,0,0.05,22,0)" xlink:href="#ab"/><use transform="matrix(0.05,0,0,0.05,27.950000000000003,0)" xlink:href="#ac"/><use transform="matrix(0.05,0,0,0.05,37.95,0)" xlink:href="#ao"/><use transform="matrix(0.05,0,0,0.05,47.95,0)" xlink:href="#aa"/><use transform="matrix(0.05,0,0,0.05,57.95,0)" xlink:href="#ap"/><use transform="matrix(0.05,0,0,0.05,61.900000000000006,0)" xlink:href="#ac"/></g><path d="M160-131c35 5 61 23 61 61C221 17 115-2 30 0v-248c76 3 177-17 177 60 0 33-19 50-47 57zm-97-11c50-1 110 9 110-42 0-47-63-36-110-37v79zm0 115c55-2 124 14 124-45 0-56-70-42-124-44v89" id="aq"/><path d="M100-194c62-1 85 37 85 99 1 63-27 99-86 99S16-35 15-95c0-66 28-99 85-99zM99-20c44 1 53-31 53-75 0-43-8-75-51-75s-53 32-53 75 10 74 51 75" id="ar"/><path d="M100-194c63 0 86 42 84 106H49c0 40 14 67 53 68 26 1 43-12 49-29l28 8c-11 28-37 45-77 45C44 4 14-33 15-96c1-61 26-98 85-98zm52 81c6-60-76-77-97-28-3 7-6 17-6 28h103" id="as"/><path d="M24 0v-261h32V0H24" id="at"/><g id="f"><use transform="matrix(0.05,0,0,0.05,0,0)" xlink:href="#aq"/><use transform="matrix(0.05,0,0,0.05,12,0)" xlink:href="#ar"/><use transform="matrix(0.05,0,0,0.05,22,0)" xlink:href="#ah"/><use transform="matrix(0.05,0,0,0.05,27.950000000000003,0)" xlink:href="#as"/><use transform="matrix(0.05,0,0,0.05,37.95,0)" xlink:href="#ad"/><use transform="matrix(0.05,0,0,0.05,47.95,0)" xlink:href="#ar"/><use transform="matrix(0.05,0,0,0.05,57.95,0)" xlink:href="#at"/><use transform="matrix(0.05,0,0,0.05,61.900000000000006,0)" xlink:href="#as"/></g><path d="M33 0v-248h34V0H33" id="au"/><path d="M117-194c89-4 53 116 60 194h-32v-121c0-31-8-49-39-48C34-167 62-67 57 0H25l-1-190h30c1 10-1 24 2 32 11-22 29-35 61-36" id="av"/><path d="M96-169c-40 0-48 33-48 73s9 75 48 75c24 0 41-14 43-38l32 2c-6 37-31 61-74 61-59 0-76-41-82-99-10-93 101-131 147-64 4 7 5 14 7 22l-32 3c-4-21-16-35-41-35" id="aw"/><path d="M24-231v-30h32v30H24zM24 0v-190h32V0H24" id="ax"/><g id="g"><use transform="matrix(0.05,0,0,0.05,0,0)" xlink:href="#au"/><use transform="matrix(0.05,0,0,0.05,5,0)" xlink:href="#av"/><use transform="matrix(0.05,0,0,0.05,15,0)" xlink:href="#aw"/><use transform="matrix(0.05,0,0,0.05,24,0)" xlink:href="#at"/><use transform="matrix(0.05,0,0,0.05,27.950000000000003,0)" xlink:href="#ax"/><use transform="matrix(0.05,0,0,0.05,31.899999999999995,0)" xlink:href="#av"/><use transform="matrix(0.05,0,0,0.05,41.9,0)" xlink:href="#ae"/><use transform="matrix(0.05,0,0,0.05,51.900000000000006,0)" xlink:href="#ai"/><use transform="matrix(0.05,0,0,0.05,56.900000000000006,0)" xlink:href="#ax"/><use transform="matrix(0.05,0,0,0.05,60.85,0)" xlink:href="#ar"/><use transform="matrix(0.05,0,0,0.05,70.85,0)" xlink:href="#av"/></g><g id="h"><use transform="matrix(0.05,0,0,0.05,0,0)" xlink:href="#aq"/><use transform="matrix(0.05,0,0,0.05,12,0)" xlink:href="#ar"/><use transform="matrix(0.05,0,0,0.05,22,0)" xlink:href="#ah"/><use transform="matrix(0.05,0,0,0.05,27.950000000000003,0)" xlink:href="#as"/><use transform="matrix(0.05,0,0,0.05,37.95,0)" xlink:href="#ad"/><use transform="matrix(0.05,0,0,0.05,47.95,0)" xlink:href="#ar"/><use transform="matrix(0.05,0,0,0.05,57.95,0)" xlink:href="#at"/><use transform="matrix(0.05,0,0,0.05,61.900000000000006,0)" xlink:href="#as"/></g><path d="M185-189c-5-48-123-54-124 2 14 75 158 14 163 119 3 78-121 87-175 55-17-10-28-26-33-46l33-7c5 56 141 63 141-1 0-78-155-14-162-118-5-82 145-84 179-34 5 7 8 16 11 25" id="ay"/><path d="M84 4C-5 8 30-112 23-190h32v120c0 31 7 50 39 49 72-2 45-101 50-169h31l1 190h-30c-1-10 1-25-2-33-11 22-28 36-60 37" id="az"/><path d="M101-234c-31-9-42 10-38 44h38v23H63V0H32v-167H5v-23h27c-7-52 17-82 69-68v24" id="aA"/><g id="i"><use transform="matrix(0.05,0,0,0.05,0,0)" xlink:href="#ay"/><use transform="matrix(0.05,0,0,0.05,12,0)" xlink:href="#az"/><use transform="matrix(0.05,0,0,0.05,22,0)" xlink:href="#ah"/><use transform="matrix(0.05,0,0,0.05,27.950000000000003,0)" xlink:href="#aA"/><use transform="matrix(0.05,0,0,0.05,32.95,0)" xlink:href="#ae"/><use transform="matrix(0.05,0,0,0.05,42.95,0)" xlink:href="#aw"/><use transform="matrix(0.05,0,0,0.05,51.95,0)" xlink:href="#as"/></g><path d="M212-179c-10-28-35-45-73-45-59 0-87 40-87 99 0 60 29 101 89 101 43 0 62-24 78-52l27 14C228-24 195 4 139 4 59 4 22-46 18-125c-6-104 99-153 187-111 19 9 31 26 39 46" id="aB"/><path d="M210-169c-67 3-38 105-44 169h-31v-121c0-29-5-50-35-48C34-165 62-65 56 0H25l-1-190h30c1 10-1 24 2 32 10-44 99-50 107 0 11-21 27-35 58-36 85-2 47 119 55 194h-31v-121c0-29-5-49-35-48" id="aC"/><g id="j"><use transform="matrix(0.05,0,0,0.05,0,0)" xlink:href="#aB"/><use transform="matrix(0.05,0,0,0.05,12.950000000000001,0)" xlink:href="#ax"/><use transform="matrix(0.05,0,0,0.05,16.900000000000002,0)" xlink:href="#ah"/><use transform="matrix(0.05,0,0,0.05,22.85,0)" xlink:href="#aw"/><use transform="matrix(0.05,0,0,0.05,31.85,0)" xlink:href="#az"/><use transform="matrix(0.05,0,0,0.05,41.85,0)" xlink:href="#aC"/><use transform="matrix(0.05,0,0,0.05,56.800000000000004,0)" xlink:href="#af"/><use transform="matrix(0.05,0,0,0.05,65.80000000000001,0)" xlink:href="#ai"/><use transform="matrix(0.05,0,0,0.05,70.80000000000001,0)" xlink:href="#ae"/><use transform="matrix(0.05,0,0,0.05,80.80000000000001,0)" xlink:href="#av"/><use transform="matrix(0.05,0,0,0.05,90.80000000000001,0)" xlink:href="#aw"/><use transform="matrix(0.05,0,0,0.05,99.80000000000001,0)" xlink:href="#as"/></g><g id="k"><use transform="matrix(0.05,0,0,0.05,0,0)" xlink:href="#ay"/><use transform="matrix(0.05,0,0,0.05,12,0)" xlink:href="#ai"/><use transform="matrix(0.05,0,0,0.05,17,0)" xlink:href="#ae"/><use transform="matrix(0.05,0,0,0.05,27,0)" xlink:href="#ai"/><use transform="matrix(0.05,0,0,0.05,32,0)" xlink:href="#az"/><use transform="matrix(0.05,0,0,0.05,42,0)" xlink:href="#af"/></g><path d="M30-248c87 1 191-15 191 75 0 78-77 80-158 76V0H30v-248zm33 125c57 0 124 11 124-50 0-59-68-47-124-48v98" id="aD"/><g id="l"><use transform="matrix(0.05,0,0,0.05,0,0)" xlink:href="#aD"/><use transform="matrix(0.05,0,0,0.05,12,0)" xlink:href="#az"/><use transform="matrix(0.05,0,0,0.05,22,0)" xlink:href="#ah"/><use transform="matrix(0.05,0,0,0.05,27.950000000000003,0)" xlink:href="#ag"/><use transform="matrix(0.05,0,0,0.05,37.95,0)" xlink:href="#ar"/><use transform="matrix(0.05,0,0,0.05,47.95,0)" xlink:href="#af"/><use transform="matrix(0.05,0,0,0.05,56.95,0)" xlink:href="#as"/></g><path d="M30-248c118-7 216 8 213 122C240-48 200 0 122 0H30v-248zM63-27c89 8 146-16 146-99s-60-101-146-95v194" id="aE"/><path d="M177-190C167-65 218 103 67 71c-23-6-38-20-44-43l32-5c15 47 100 32 89-28v-30C133-14 115 1 83 1 29 1 15-40 15-95c0-56 16-97 71-98 29-1 48 16 59 35 1-10 0-23 2-32h30zM94-22c36 0 50-32 50-73 0-42-14-75-50-75-39 0-46 34-46 75s6 73 46 73" id="aF"/><g id="m"><use transform="matrix(0.05,0,0,0.05,0,0)" xlink:href="#aE"/><use transform="matrix(0.05,0,0,0.05,12.950000000000001,0)" xlink:href="#ah"/><use transform="matrix(0.05,0,0,0.05,18.900000000000002,0)" xlink:href="#ax"/><use transform="matrix(0.05,0,0,0.05,22.85,0)" xlink:href="#at"/><use transform="matrix(0.05,0,0,0.05,26.8,0)" xlink:href="#at"/><use transform="matrix(0.05,0,0,0.05,30.75,0)" xlink:href="#ax"/><use transform="matrix(0.05,0,0,0.05,34.7,0)" xlink:href="#av"/><use transform="matrix(0.05,0,0,0.05,44.7,0)" xlink:href="#aF"/></g><path d="M240 0l2-218c-23 76-54 145-80 218h-23L58-218 59 0H30v-248h44l77 211c21-75 51-140 76-211h43V0h-30" id="aG"/><path d="M85-194c31 0 48 13 60 33l-1-100h32l1 261h-30c-2-10 0-23-3-31C134-8 116 4 85 4 32 4 16-35 15-94c0-66 23-100 70-100zm9 24c-40 0-46 34-46 75 0 40 6 74 45 74 42 0 51-32 51-76 0-42-9-74-50-73" id="aH"/><g id="n"><use transform="matrix(0.05,0,0,0.05,0,0)" xlink:href="#aG"/><use transform="matrix(0.05,0,0,0.05,14.950000000000001,0)" xlink:href="#as"/><use transform="matrix(0.05,0,0,0.05,24.950000000000003,0)" xlink:href="#ai"/><use transform="matrix(0.05,0,0,0.05,29.950000000000003,0)" xlink:href="#ad"/><use transform="matrix(0.05,0,0,0.05,39.95,0)" xlink:href="#ar"/><use transform="matrix(0.05,0,0,0.05,49.95,0)" xlink:href="#aH"/></g><g id="o"><use transform="matrix(0.05,0,0,0.05,0,0)" xlink:href="#ag"/><use transform="matrix(0.05,0,0,0.05,10,0)" xlink:href="#az"/><use transform="matrix(0.05,0,0,0.05,20,0)" xlink:href="#ah"/><use transform="matrix(0.05,0,0,0.05,25.950000000000003,0)" xlink:href="#ag"/><use transform="matrix(0.05,0,0,0.05,35.95,0)" xlink:href="#ar"/><use transform="matrix(0.05,0,0,0.05,45.95,0)" xlink:href="#af"/><use transform="matrix(0.05,0,0,0.05,54.95,0)" xlink:href="#as"/></g><g id="p"><use transform="matrix(0.05,0,0,0.05,0,0)" xlink:href="#ax"/><use transform="matrix(0.05,0,0,0.05,3.95,0)" xlink:href="#av"/><use transform="matrix(0.05,0,0,0.05,13.949999999999998,0)" xlink:href="#aw"/><use transform="matrix(0.05,0,0,0.05,22.95,0)" xlink:href="#at"/><use transform="matrix(0.05,0,0,0.05,26.899999999999995,0)" xlink:href="#ax"/><use transform="matrix(0.05,0,0,0.05,30.849999999999994,0)" xlink:href="#av"/><use transform="matrix(0.05,0,0,0.05,40.849999999999994,0)" xlink:href="#ae"/><use transform="matrix(0.05,0,0,0.05,50.849999999999994,0)" xlink:href="#ai"/><use transform="matrix(0.05,0,0,0.05,55.849999999999994,0)" xlink:href="#ax"/><use transform="matrix(0.05,0,0,0.05,59.79999999999999,0)" xlink:href="#ar"/><use transform="matrix(0.05,0,0,0.05,69.8,0)" xlink:href="#av"/></g><g id="r"><use transform="matrix(0.05,0,0,0.05,0,0)" xlink:href="#ad"/><use transform="matrix(0.05,0,0,0.05,10,0)" xlink:href="#ae"/><use transform="matrix(0.05,0,0,0.05,20,0)" xlink:href="#af"/></g><g id="s"><use transform="matrix(0.05,0,0,0.05,0,0)" xlink:href="#af"/><use transform="matrix(0.05,0,0,0.05,9,0)" xlink:href="#az"/><use transform="matrix(0.05,0,0,0.05,19,0)" xlink:href="#ah"/><use transform="matrix(0.05,0,0,0.05,24.95,0)" xlink:href="#aA"/><use transform="matrix(0.05,0,0,0.05,29.950000000000003,0)" xlink:href="#ae"/><use transform="matrix(0.05,0,0,0.05,39.95,0)" xlink:href="#aw"/><use transform="matrix(0.05,0,0,0.05,48.95,0)" xlink:href="#as"/></g><g id="t"><use transform="matrix(0.05,0,0,0.05,0,0)" xlink:href="#aw"/><use transform="matrix(0.05,0,0,0.05,9,0)" xlink:href="#ax"/><use transform="matrix(0.05,0,0,0.05,12.949999999999998,0)" xlink:href="#ah"/><use transform="matrix(0.05,0,0,0.05,18.9,0)" xlink:href="#aw"/><use transform="matrix(0.05,0,0,0.05,27.899999999999995,0)" xlink:href="#az"/><use transform="matrix(0.05,0,0,0.05,37.9,0)" xlink:href="#aC"/><use transform="matrix(0.05,0,0,0.05,52.85,0)" xlink:href="#af"/><use transform="matrix(0.05,0,0,0.05,61.85,0)" xlink:href="#ai"/><use transform="matrix(0.05,0,0,0.05,66.85,0)" xlink:href="#ae"/><use transform="matrix(0.05,0,0,0.05,76.85,0)" xlink:href="#av"/><use transform="matrix(0.05,0,0,0.05,86.85,0)" xlink:href="#aw"/><use transform="matrix(0.05,0,0,0.05,95.85,0)" xlink:href="#as"/></g><g id="u"><use transform="matrix(0.05,0,0,0.05,0,0)" xlink:href="#ar"/><use transform="matrix(0.05,0,0,0.05,10,0)" xlink:href="#ag"/><use transform="matrix(0.05,0,0,0.05,20,0)" xlink:href="#as"/><use transform="matrix(0.05,0,0,0.05,30,0)" xlink:href="#ah"/><use transform="matrix(0.05,0,0,0.05,35.95,0)" xlink:href="#ae"/><use transform="matrix(0.05,0,0,0.05,45.95,0)" xlink:href="#ai"/><use transform="matrix(0.05,0,0,0.05,50.95,0)" xlink:href="#ax"/><use transform="matrix(0.05,0,0,0.05,54.900000000000006,0)" xlink:href="#av"/><use transform="matrix(0.05,0,0,0.05,64.9,0)" xlink:href="#aF"/></g><g id="v"><use transform="matrix(0.05,0,0,0.05,0,0)" xlink:href="#af"/><use transform="matrix(0.05,0,0,0.05,9,0)" xlink:href="#ai"/><use transform="matrix(0.05,0,0,0.05,14,0)" xlink:href="#ae"/><use transform="matrix(0.05,0,0,0.05,24,0)" xlink:href="#ai"/><use transform="matrix(0.05,0,0,0.05,29,0)" xlink:href="#az"/><use transform="matrix(0.05,0,0,0.05,39,0)" xlink:href="#af"/></g><g id="w"><use transform="matrix(0.05,0,0,0.05,0,0)" xlink:href="#ad"/><use transform="matrix(0.05,0,0,0.05,10,0)" xlink:href="#ae"/><use transform="matrix(0.05,0,0,0.05,20,0)" xlink:href="#aH"/></g><g id="x"><use transform="matrix(0.05,0,0,0.05,0,0)" xlink:href="#aH"/><use transform="matrix(0.05,0,0,0.05,10,0)" xlink:href="#ah"/><use transform="matrix(0.05,0,0,0.05,15.949999999999998,0)" xlink:href="#ax"/><use transform="matrix(0.05,0,0,0.05,19.9,0)" xlink:href="#at"/><use transform="matrix(0.05,0,0,0.05,23.849999999999998,0)" xlink:href="#at"/><use transform="matrix(0.05,0,0,0.05,27.799999999999997,0)" xlink:href="#ax"/><use transform="matrix(0.05,0,0,0.05,31.749999999999996,0)" xlink:href="#av"/><use transform="matrix(0.05,0,0,0.05,41.75,0)" xlink:href="#aF"/></g><g id="y"><use transform="matrix(0.05,0,0,0.05,0,0)" xlink:href="#aC"/><use transform="matrix(0.05,0,0,0.05,14.950000000000001,0)" xlink:href="#as"/><use transform="matrix(0.05,0,0,0.05,24.950000000000003,0)" xlink:href="#ai"/><use transform="matrix(0.05,0,0,0.05,29.950000000000003,0)" xlink:href="#ad"/><use transform="matrix(0.05,0,0,0.05,39.95,0)" xlink:href="#ar"/><use transform="matrix(0.05,0,0,0.05,49.95,0)" xlink:href="#aH"/></g><path d="M108 0H70L1-190h34L89-25l56-165h34" id="aI"/><path d="M33-154v-36h34v36H33zM33 0v-36h34V0H33" id="aJ"/><g id="z"><use transform="matrix(0.05,0,0,0.05,0,0)" xlink:href="#ag"/><use transform="matrix(0.05,0,0,0.05,10,0)" xlink:href="#ah"/><use transform="matrix(0.05,0,0,0.05,15.949999999999998,0)" xlink:href="#ar"/><use transform="matrix(0.05,0,0,0.05,25.950000000000003,0)" xlink:href="#aI"/><use transform="matrix(0.05,0,0,0.05,34.95,0)" xlink:href="#aJ"/></g><path d="M205 0l-28-72H64L36 0H1l101-248h38L239 0h-34zm-38-99l-47-123c-12 45-31 82-46 123h93" id="aK"/><g id="A"><use transform="matrix(0.05,0,0,0.05,0,0)" xlink:href="#aK"/><use transform="matrix(0.05,0,0,0.05,12,0)" xlink:href="#aF"/><use transform="matrix(0.05,0,0,0.05,22,0)" xlink:href="#as"/><use transform="matrix(0.05,0,0,0.05,32,0)" xlink:href="#av"/><use transform="matrix(0.05,0,0,0.05,42,0)" xlink:href="#ai"/></g><path d="M206 0h-36l-40-164L89 0H53L-1-190h32L70-26l43-164h34l41 164 42-164h31" id="aL"/><g id="B"><use transform="matrix(0.05,0,0,0.05,0,0)" xlink:href="#aL"/><use transform="matrix(0.05,0,0,0.05,12.950000000000001,0)" xlink:href="#ae"/><use transform="matrix(0.05,0,0,0.05,22.950000000000003,0)" xlink:href="#af"/></g><path d="M115-194c53 0 69 39 70 98 0 66-23 100-70 100C84 3 66-7 56-30L54 0H23l1-261h32v101c10-23 28-34 59-34zm-8 174c40 0 45-34 45-75 0-40-5-75-45-74-42 0-51 32-51 76 0 43 10 73 51 73" id="aM"/><g id="C"><use transform="matrix(0.05,0,0,0.05,0,0)" xlink:href="#ae"/><use transform="matrix(0.05,0,0,0.05,10,0)" xlink:href="#ai"/><use transform="matrix(0.05,0,0,0.05,15,0)" xlink:href="#ai"/><use transform="matrix(0.05,0,0,0.05,20,0)" xlink:href="#ah"/><use transform="matrix(0.05,0,0,0.05,25.950000000000003,0)" xlink:href="#ax"/><use transform="matrix(0.05,0,0,0.05,29.899999999999995,0)" xlink:href="#aM"/><use transform="matrix(0.05,0,0,0.05,39.9,0)" xlink:href="#az"/><use transform="matrix(0.05,0,0,0.05,49.9,0)" xlink:href="#ai"/><use transform="matrix(0.05,0,0,0.05,54.900000000000006,0)" xlink:href="#as"/><use transform="matrix(0.05,0,0,0.05,64.9,0)" xlink:href="#aH"/></g><g id="D"><use transform="matrix(0.05,0,0,0.05,0,0)" xlink:href="#ai"/><use transform="matrix(0.05,0,0,0.05,5,0)" xlink:href="#ar"/></g><path d="M101-251c68 0 85 55 85 127S166 4 100 4C33 4 14-52 14-124c0-73 17-127 87-127zm-1 229c47 0 54-49 54-102s-4-102-53-102c-51 0-55 48-55 102 0 53 5 102 54 102" id="aN"/><g id="E"><use transform="matrix(0.05,0,0,0.05,0,0)" xlink:href="#aj"/><use transform="matrix(0.05,0,0,0.05,5,0)" xlink:href="#aN"/><use transform="matrix(0.05,0,0,0.05,15,0)" xlink:href="#al"/><use transform="matrix(0.05,0,0,0.05,20,0)" xlink:href="#al"/><use transform="matrix(0.05,0,0,0.05,25,0)" xlink:href="#am"/><use transform="matrix(0.05,0,0,0.05,37.95,0)" xlink:href="#an"/></g><g id="F"><use transform="matrix(0.05,0,0,0.05,0,0)" xlink:href="#ar"/><use transform="matrix(0.05,0,0,0.05,10,0)" xlink:href="#ah"/><use transform="matrix(0.05,0,0,0.05,15.949999999999998,0)" xlink:href="#ax"/><use transform="matrix(0.05,0,0,0.05,19.9,0)" xlink:href="#aF"/><use transform="matrix(0.05,0,0,0.05,29.899999999999995,0)" xlink:href="#ax"/><use transform="matrix(0.05,0,0,0.05,33.85,0)" xlink:href="#av"/></g><g id="G"><use transform="matrix(0.05,0,0,0.05,0,0)" xlink:href="#ag"/><use transform="matrix(0.05,0,0,0.05,10,0)" xlink:href="#ar"/><use transform="matrix(0.05,0,0,0.05,20,0)" xlink:href="#af"/><use transform="matrix(0.05,0,0,0.05,29,0)" xlink:href="#ax"/><use transform="matrix(0.05,0,0,0.05,32.95,0)" xlink:href="#ai"/><use transform="matrix(0.05,0,0,0.05,37.95,0)" xlink:href="#ax"/><use transform="matrix(0.05,0,0,0.05,41.900000000000006,0)" xlink:href="#ar"/><use transform="matrix(0.05,0,0,0.05,51.900000000000006,0)" xlink:href="#av"/></g><g id="H"><use transform="matrix(0.05,0,0,0.05,0,0)" xlink:href="#aj"/><use transform="matrix(0.05,0,0,0.05,5,0)" xlink:href="#ak"/><use transform="matrix(0.05,0,0,0.05,15,0)" xlink:href="#an"/></g><g id="I"><use transform="matrix(0.05,0,0,0.05,0,0)" xlink:href="#aF"/><use transform="matrix(0.05,0,0,0.05,10,0)" xlink:href="#as"/><use transform="matrix(0.05,0,0,0.05,20,0)" xlink:href="#ar"/><use transform="matrix(0.05,0,0,0.05,30,0)" xlink:href="#aJ"/></g><path d="M143 4C61 4 22-44 18-125c-5-107 100-154 193-111 17 8 29 25 37 43l-32 9c-13-25-37-40-76-40-61 0-88 39-88 99 0 61 29 100 91 101 35 0 62-11 79-27v-45h-74v-28h105v86C228-13 192 4 143 4" id="aO"/><path d="M179-190L93 31C79 59 56 82 12 73V49c39 6 53-20 64-50L1-190h34L92-34l54-156h33" id="aP"/><g id="J"><use transform="matrix(0.05,0,0,0.05,0,0)" xlink:href="#aO"/><use transform="matrix(0.05,0,0,0.05,14,0)" xlink:href="#as"/><use transform="matrix(0.05,0,0,0.05,24,0)" xlink:href="#ar"/><use transform="matrix(0.05,0,0,0.05,34,0)" xlink:href="#aC"/><use transform="matrix(0.05,0,0,0.05,48.95,0)" xlink:href="#as"/><use transform="matrix(0.05,0,0,0.05,58.95,0)" xlink:href="#ai"/><use transform="matrix(0.05,0,0,0.05,63.95,0)" xlink:href="#ah"/><use transform="matrix(0.05,0,0,0.05,69.9,0)" xlink:href="#aP"/></g><g id="K"><use transform="matrix(0.05,0,0,0.05,0,0)" xlink:href="#aF"/><use transform="matrix(0.05,0,0,0.05,10,0)" xlink:href="#ar"/><use transform="matrix(0.05,0,0,0.05,20,0)" xlink:href="#aC"/><use transform="matrix(0.05,0,0,0.05,34.95,0)" xlink:href="#as"/><use transform="matrix(0.05,0,0,0.05,44.95,0)" xlink:href="#ai"/><use transform="matrix(0.05,0,0,0.05,49.95,0)" xlink:href="#ah"/><use transform="matrix(0.05,0,0,0.05,55.900000000000006,0)" xlink:href="#aP"/></g><g id="L"><use transform="matrix(0.05,0,0,0.05,0,0)" xlink:href="#ae"/><use transform="matrix(0.05,0,0,0.05,10,0)" xlink:href="#aF"/><use transform="matrix(0.05,0,0,0.05,20,0)" xlink:href="#as"/><use transform="matrix(0.05,0,0,0.05,30,0)" xlink:href="#av"/><use transform="matrix(0.05,0,0,0.05,40,0)" xlink:href="#ai"/></g><g id="M"><use transform="matrix(0.05,0,0,0.05,0,0)" xlink:href="#aj"/><use transform="matrix(0.05,0,0,0.05,5,0)" xlink:href="#ak"/><use transform="matrix(0.05,0,0,0.05,15,0)" xlink:href="#an"/></g><path d="M233-177c-1 41-23 64-60 70L243 0h-38l-65-103H63V0H30v-248c88 3 205-21 203 71zM63-129c60-2 137 13 137-47 0-61-80-42-137-45v92" id="aQ"/><g id="N"><use transform="matrix(0.05,0,0,0.05,0,0)" xlink:href="#aQ"/><use transform="matrix(0.05,0,0,0.05,12.950000000000001,0)" xlink:href="#ar"/><use transform="matrix(0.05,0,0,0.05,22.950000000000003,0)" xlink:href="#at"/><use transform="matrix(0.05,0,0,0.05,26.900000000000002,0)" xlink:href="#as"/></g><g id="O"><use transform="matrix(0.05,0,0,0.05,0,0)" xlink:href="#ah"/><use transform="matrix(0.05,0,0,0.05,5.95,0)" xlink:href="#ar"/><use transform="matrix(0.05,0,0,0.05,15.949999999999998,0)" xlink:href="#at"/><use transform="matrix(0.05,0,0,0.05,19.9,0)" xlink:href="#as"/></g><g id="P"><use transform="matrix(0.05,0,0,0.05,0,0)" xlink:href="#Z"/><use transform="matrix(0.05,0,0,0.05,12,0)" xlink:href="#aa"/><use transform="matrix(0.05,0,0,0.05,22,0)" xlink:href="#ab"/><use transform="matrix(0.05,0,0,0.05,27.950000000000003,0)" xlink:href="#ac"/><use transform="matrix(0.05,0,0,0.05,37.95,0)" xlink:href="#ao"/><use transform="matrix(0.05,0,0,0.05,47.95,0)" xlink:href="#aa"/><use transform="matrix(0.05,0,0,0.05,57.95,0)" xlink:href="#ap"/><use transform="matrix(0.05,0,0,0.05,61.900000000000006,0)" xlink:href="#ac"/></g><path fill="#fff" d="M33 0v-248h34V0H33" id="aR"/><path fill="#fff" d="M117-194c89-4 53 116 60 194h-32v-121c0-31-8-49-39-48C34-167 62-67 57 0H25l-1-190h30c1 10-1 24 2 32 11-22 29-35 61-36" id="aS"/><path fill="#fff" d="M59-47c-2 24 18 29 38 22v24C64 9 27 4 27-40v-127H5v-23h24l9-43h21v43h35v23H59v120" id="aT"/><path fill="#fff" d="M108 0H70L1-190h34L89-25l56-165h34" id="aU"/><path fill="#fff" d="M141-36C126-15 110 5 73 4 37 3 15-17 15-53c-1-64 63-63 125-63 3-35-9-54-41-54-24 1-41 7-42 31l-33-3c5-37 33-52 76-52 45 0 72 20 72 64v82c-1 20 7 32 28 27v20c-31 9-61-2-59-35zM48-53c0 20 12 33 32 33 41-3 63-29 60-74-43 2-92-5-92 41" id="aV"/><g id="Q"><use transform="matrix(0.05,0,0,0.05,0,0)" xlink:href="#aR"/><use transform="matrix(0.05,0,0,0.05,5,0)" xlink:href="#aS"/><use transform="matrix(0.05,0,0,0.05,15,0)" xlink:href="#aT"/><use transform="matrix(0.05,0,0,0.05,20,0)" xlink:href="#ac"/><use transform="matrix(0.05,0,0,0.05,30,0)" xlink:href="#ab"/><use transform="matrix(0.05,0,0,0.05,35.95,0)" xlink:href="#aU"/><use transform="matrix(0.05,0,0,0.05,44.95,0)" xlink:href="#aV"/><use transform="matrix(0.05,0,0,0.05,54.95,0)" xlink:href="#ap"/></g><g id="R"><use transform="matrix(0.05,0,0,0.05,0,0)" xlink:href="#at"/><use transform="matrix(0.05,0,0,0.05,3.95,0)" xlink:href="#ar"/><use transform="matrix(0.05,0,0,0.05,13.949999999999998,0)" xlink:href="#aF"/></g><g id="S"><use transform="matrix(0.05,0,0,0.05,0,0)" xlink:href="#as"/><use transform="matrix(0.05,0,0,0.05,10,0)" xlink:href="#at"/><use transform="matrix(0.05,0,0,0.05,13.949999999999998,0)" xlink:href="#as"/><use transform="matrix(0.05,0,0,0.05,23.95,0)" xlink:href="#aC"/><use transform="matrix(0.05,0,0,0.05,38.9,0)" xlink:href="#as"/><use transform="matrix(0.05,0,0,0.05,48.9,0)" xlink:href="#av"/><use transform="matrix(0.05,0,0,0.05,58.900000000000006,0)" xlink:href="#ai"/></g><g id="T"><use transform="matrix(0.05,0,0,0.05,0,0)" xlink:href="#aj"/><use transform="matrix(0.05,0,0,0.05,5,0)" xlink:href="#aN"/><use transform="matrix(0.05,0,0,0.05,15,0)" xlink:href="#al"/><use transform="matrix(0.05,0,0,0.05,20,0)" xlink:href="#al"/><use transform="matrix(0.05,0,0,0.05,25,0)" xlink:href="#am"/><use transform="matrix(0.05,0,0,0.05,37.95,0)" xlink:href="#an"/></g><g id="U"><use transform="matrix(0.05,0,0,0.05,0,0)" xlink:href="#af"/><use transform="matrix(0.05,0,0,0.05,9,0)" xlink:href="#ar"/><use transform="matrix(0.05,0,0,0.05,19,0)" xlink:href="#af"/><use transform="matrix(0.05,0,0,0.05,28,0)" xlink:href="#ae"/><use transform="matrix(0.05,0,0,0.05,38,0)" xlink:href="#aJ"/></g><g id="V"><use transform="matrix(0.05,0,0,0.05,0,0)" xlink:href="#ay"/><use transform="matrix(0.05,0,0,0.05,12,0)" xlink:href="#ae"/><use transform="matrix(0.05,0,0,0.05,22,0)" xlink:href="#aC"/><use transform="matrix(0.05,0,0,0.05,36.95,0)" xlink:href="#ag"/><use transform="matrix(0.05,0,0,0.05,46.95,0)" xlink:href="#at"/><use transform="matrix(0.05,0,0,0.05,50.900000000000006,0)" xlink:href="#as"/></g><g id="W"><use transform="matrix(0.05,0,0,0.05,0,0)" xlink:href="#ax"/><use transform="matrix(0.05,0,0,0.05,3.95,0)" xlink:href="#af"/></g><g id="X"><use transform="matrix(0.05,0,0,0.05,0,0)" xlink:href="#af"/><use transform="matrix(0.05,0,0,0.05,9,0)" xlink:href="#ae"/><use transform="matrix(0.05,0,0,0.05,19,0)" xlink:href="#aC"/><use transform="matrix(0.05,0,0,0.05,33.95,0)" xlink:href="#ag"/><use transform="matrix(0.05,0,0,0.05,43.95,0)" xlink:href="#at"/><use transform="matrix(0.05,0,0,0.05,47.900000000000006,0)" xlink:href="#as"/></g><g id="Y"><use transform="matrix(0.05,0,0,0.05,0,0)" xlink:href="#ar"/><use transform="matrix(0.05,0,0,0.05,10,0)" xlink:href="#aA"/></g></defs></g></svg>