<svg xmlns="http://www.w3.org/2000/svg" xmlns:xlink="http://www.w3.org/1999/xlink" xmlns:lucid="lucid" width="1175.41" height="596"><g transform="translate(99.66666666667618 -107.20239710542069)" lucid:page-tab-id="U5J_u7e~bJiX"><path d="M-500 0h2000v1000H-500z" fill="#fff"/><path d="M646.13 167.2c0 22.1-61.48 40-137.33 40-75.85 0-137.33-17.9-137.33-40s61.48-40 137.33-40c75.85 0 137.33 17.9 137.33 40z" stroke="#3a414a" fill-opacity="0"/><use xlink:href="#a" transform="matrix(1,0,0,1,376.4674519529498,132.2023971054207) translate(104.19944444444445 39.24305555555556)"/><path d="M783.67 325.87c0 22.1-61.5 40-137.34 40S509 347.97 509 325.87s61.5-40 137.33-40c75.85 0 137.34 17.9 137.34 40z" stroke="#3a414a" fill-opacity="0"/><use xlink:href="#b" transform="matrix(1,0,0,1,514.0000000000683,290.8690637720874) translate(60.30129629629629 39.24305555555556)"/><path d="M490.33 325.87c0 22.1-61.48 40-137.33 40-75.85 0-137.33-17.9-137.33-40s61.48-40 137.33-40c75.85 0 137.33 17.9 137.33 40z" stroke="#3a414a" fill-opacity="0"/><use xlink:href="#c" transform="matrix(1,0,0,1,220.66666666669607,290.8690637720874) translate(98.05438271604939 39.24305555555556)"/><path d="M646.13 484.54c0 22.1-61.48 40-137.33 40-75.85 0-137.33-17.9-137.33-40s61.48-40 137.33-40c75.85 0 137.33 17.9 137.33 40z" stroke="#3a414a" fill-opacity="0"/><use xlink:href="#d" transform="matrix(1,0,0,1,376.4674519529498,449.53573043875406) translate(100.19327160493827 26.118055555555557)"/><use xlink:href="#e" transform="matrix(1,0,0,1,376.4674519529498,449.53573043875406) translate(41.08524691358026 55.45138888888889)"/><use xlink:href="#f" transform="matrix(1,0,0,1,376.4674519529498,449.53573043875406) translate(156.51734567901235 55.45138888888889)"/><path d="M436.3 449.68l-71.72-71.73" stroke="#3a414a" fill="none"/><path d="M437.27 449.93l-1.2.2-.12-.1.7-.7z" stroke="#3a414a" stroke-width=".05" fill="#3a414a"/><path d="M354.14 367.5l13.37 6.82-6.55 6.56z" stroke="#3a414a" fill="#3a414a"/><path d="M565.5 447.22l69.25-69.27" stroke="#3a414a" fill="none"/><path d="M565.85 447.56l-.1.1-1.24-.18.64-.63z" stroke="#3a414a" stroke-width=".05" fill="#3a414a"/><path d="M645.2 367.5l-6.82 13.38-6.56-6.56z" stroke="#3a414a" fill="#3a414a"/><path d="M646.04 284.96l-51.3-70.75" stroke="#3a414a" fill="none"/><path d="M646.96 285.38h-1.24l-.1-.13.82-.6z" stroke="#3a414a" stroke-width=".05" fill="#3a414a"/><path d="M586.08 202.26l12.12 8.83-7.5 5.43z" stroke="#3a414a" fill="#3a414a"/><path d="M-1.67 547.87c0 8.84-17 16-38 16-20.98 0-38-7.16-38-16s17.02-16 38-16c21 0 38 7.16 38 16z" fill-opacity="0"/><path d="M-6.75 555.84l-2.33 1.52-4.18 2-2.27.76m-4.68 1.46l-8.7 1.64-.97.06m-4.9.3l-4.9.3-4.9-.33m-4.9-.3l-1.6-.12-8.05-1.58m-4.68-1.43l-2.6-.88-4.06-2-2.12-1.4m-3.5-3.4l-.54-.82-.5-1.03-.32-.97-.17-.9-.07-.86.06-.9.18-.92.33-.96.52-1.05.5-.74m3.5-3.4l2.33-1.53 4.17-2 2.28-.75m4.68-1.46l8.7-1.64.96-.06m4.9-.3l4.9-.3 4.9.32m4.9.32l1.6.1 8.05 1.58m4.67 1.44l2.6.88 4.05 2 2.13 1.4m3.5 3.4l.54.82.5 1.03.3.95.18.92.05.85-.06.9-.18.92-.34.95-.5 1.03-.5.75" stroke="#3a414a" fill="none"/><path d="M15.67 518.54a6 6 0 0 1 6-6h214.66a6 6 0 0 1 6 6v56.66a6 6 0 0 1-6 6H21.67a6 6 0 0 1-6-6z" stroke="#000" stroke-opacity="0" fill="#fff" fill-opacity="0"/><use xlink:href="#g" transform="matrix(1,0,0,1,20.666666666618397,517.5357304387928) translate(0 32.659722222222214)"/><use xlink:href="#h" transform="matrix(1,0,0,1,20.666666666618397,517.5357304387928) translate(117.33333333333327 32.659722222222214)"/><use xlink:href="#i" transform="matrix(1,0,0,1,20.666666666618397,517.5357304387928) translate(158.4197530864197 32.659722222222214)"/><path d="M364.4 285.25l70.4-70.4" stroke="#3a414a" fill="none"/><path d="M364.77 285.6h-.03l-1.38-.02.7-.7z" stroke="#3a414a" stroke-width=".05" fill="#3a414a"/><path d="M445.23 204.4l-6.8 13.38-6.56-6.56z" stroke="#3a414a" fill="#3a414a"/><path d="M4.5 602.87h-65.78M4.5 602.87H5" stroke="#3a414a" fill="none"/><path d="M-76.05 602.87l14.27-4.64v9.27z" stroke="#3a414a" fill="#3a414a"/><path d="M15.67 584.2a6 6 0 0 1 6-6h66.66a6 6 0 0 1 6 6v35.5a6 6 0 0 1-6 6H21.67a6 6 0 0 1-6-6z" stroke="#000" stroke-opacity="0" fill="#fff" fill-opacity="0"/><use xlink:href="#j" transform="matrix(1,0,0,1,20.666666666618426,583.2023971054596) translate(0.5000000000000071 23.72222222222222)"/><use xlink:href="#k" transform="matrix(1,0,0,1,20.666666666618426,583.2023971054596) translate(53.685185185185176 23.72222222222222)"/><path d="M827.74 133.2a6 6 0 0 1 6-6h68a6 6 0 0 1 6 6v252.9a6 6 0 0 1-6 6h-68a6 6 0 0 1-6-6z" fill="none"/><path d="M827.74 392.1c5.52 0 10-4.48 10-10V269.65c0-5.52 4.48-10 10-10-5.52 0-10-4.47-10-10V137.2c0-5.52-4.48-10-10-10" stroke="#3a414a" fill="none"/><use xlink:href="#l" transform="matrix(1,0,0,1,862.7392023145349,132.2023971054207) translate(0 118.61111111111111)"/><use xlink:href="#m" transform="matrix(1,0,0,1,862.7392023145349,132.2023971054207) translate(0 145.2777777777778)"/><path d="M827.74 450.54a6 6 0 0 1 6-6h216a6 6 0 0 1 6 6v91.15a6 6 0 0 1-6 6h-216a6 6 0 0 1-6-6z" fill="none"/><path d="M827.74 547.7c5.52 0 10-4.5 10-10v-31.6c0-5.5 4.48-10 10-10-5.52 0-10-4.46-10-10v-31.56c0-5.53-4.48-10-10-10" stroke="#3a414a" fill="none"/><use xlink:href="#n" transform="matrix(1,0,0,1,862.7392023145349,449.53573043875406) translate(0 38.111111111111114)"/><use xlink:href="#o" transform="matrix(1,0,0,1,862.7392023145349,449.53573043875406) translate(104.7530864197531 38.111111111111114)"/><use xlink:href="#p" transform="matrix(1,0,0,1,862.7392023145349,449.53573043875406) translate(130.6172839506173 38.111111111111114)"/><use xlink:href="#m" transform="matrix(1,0,0,1,862.7392023145349,449.53573043875406) translate(0 64.77777777777777)"/><path d="M527.87 643.2c0 22.1-61.5 40-137.33 40-75.85 0-137.34-17.9-137.34-40s61.5-40 137.34-40 137.33 17.9 137.33 40z" stroke="#3a414a" fill-opacity="0"/><use xlink:href="#q" transform="matrix(1,0,0,1,258.20405190720254,608.2023971054207) translate(63.526604938271596 39.24305555555556)"/><use xlink:href="#f" transform="matrix(1,0,0,1,258.20405190720254,608.2023971054207) translate(134.07598765432098 39.24305555555556)"/><path d="M473.77 610.4l28.8-70.2" stroke="#3a414a" fill="none"/><path d="M474.24 610.58l-.16.4-1-.23.24-.55z" stroke="#3a414a" stroke-width=".05" fill="#3a414a"/><path d="M508.2 526.53l-1.14 14.96-8.58-3.53z" stroke="#3a414a" fill="#3a414a"/><path d="M197 325.87c0 22.1-61.5 40-137.33 40-75.85 0-137.34-17.9-137.34-40s61.5-40 137.34-40 137.33 17.9 137.33 40z" fill-opacity="0"/><path d="M193.4 335l-.54.65-.72.8-.82.84-.96.9-1.12.96-1.3 1.04-1.56 1.12-.43.28m-4.25 2.62l-1.98 1.1-3.2 1.57-3.8 1.7m-4.66 1.83l-.22.08-5.9 2.06-3.37 1.02m-4.8 1.4l-8.04 2.06-1.66.35m-4.9 1.03l-4.37.93-5.45.9m-4.93.85l-2.75.47-7.15.9m-4.96.62l-3.3.4-6.65.56m-4.97.42l-5.85.5-4.13.16m-5 .2l-9.98.42m-5 .06l-5 .05-5-.1m-5-.1l-9.74-.2-.26-.03m-5-.3l-9.97-.63m-4.98-.38l-9.94-1.04m-4.98-.54l-9.9-1.45m-4.93-.77l-9.82-1.87m-4.88-1.08l-6.38-1.5-3.33-.92m-4.82-1.34l-6.48-2.1-3-1.1m-4.64-1.85l-1.97-.83-3.53-1.66-2.9-1.5-.6-.36m-4.25-2.62l-1.23-.86-1.43-1.07-1.2-1-1.05-.94-.9-.87-.75-.82-.67-.77-.22-.28m-2.6-4.27l-.2-.5-.18-.55-.16-.53-.14-.5-.1-.53-.1-.5-.06-.5-.04-.5-.02-.5v-.75l.03-.5.06-.5.07-.5.1-.5.12-.53.15-.52.17-.54.2-.54.1-.23m2.58-4.25l.55-.67.72-.8.8-.83.97-.9 1.12-.97 1.3-1.04 1.55-1.12.43-.28m4.26-2.62l1.98-1.1 3.2-1.58 3.8-1.7m4.65-1.83l.22-.08 5.88-2.04 3.38-1.02m4.8-1.4l8.05-2.06 1.66-.35m4.9-1.04l4.38-.92 5.44-.92m4.93-.83l2.77-.46 7.14-.9m4.97-.63l3.3-.4 6.65-.57m5-.4l5.84-.5 4.12-.17m5-.2l10-.43m5-.05l5-.05 5 .1m4.98.1l9.74.2.26.03m5 .3l9.97.63m4.98.4l9.96 1.03m4.97.53l9.9 1.45m4.93.76l9.83 1.88m4.87 1.08l6.37 1.5 3.33.92m4.8 1.34l6.5 2.1 2.98 1.1m4.65 1.85l1.98.83 3.52 1.66 2.9 1.5.6.35m4.25 2.64l1.24.85 1.4 1.07 1.22 1 1.04.93.9.88.76.8.66.78.23.3M196 321l.2.5.18.55.16.53.14.52.1.5.1.52.06.5.04.5.02.5v.75l-.04.5-.05.5-.07.5-.1.5-.12.52-.13.52-.18.53-.2.55-.1.23" stroke="#3a414a" fill="none"/><g><use xlink:href="#r" transform="matrix(1,0,0,1,-72.66666666667618,290.8690637720874) translate(75.03586419753087 39.24305555555556)"/></g><path d="M312.93 609.23l-121.86-251" stroke="#3a414a" fill="none"/><path d="M313.66 609.57l-1 .22-.18-.36.9-.44z" stroke="#3a414a" stroke-width=".05" fill="#3a414a"/><path d="M184.62 344.96l10.4 10.8-8.34 4.06z" stroke="#3a414a" fill="#3a414a"/><path d="M-1.67 476.87c0 8.84-17 16-38 16-20.98 0-38-7.16-38-16s17.02-16 38-16c21 0 38 7.16 38 16z" stroke="#3a414a" fill-opacity="0"/><path d="M15.67 452.87a6 6 0 0 1 6-6h214.66a6 6 0 0 1 6 6v56.67a6 6 0 0 1-6 6H21.67a6 6 0 0 1-6-6z" stroke="#000" stroke-opacity="0" fill="#fff" fill-opacity="0"/><g><use xlink:href="#s" transform="matrix(1,0,0,1,20.666666666618397,451.86906377212614) translate(0 32.659722222222214)"/><use xlink:href="#h" transform="matrix(1,0,0,1,20.666666666618397,451.86906377212614) translate(78.91358024691354 32.659722222222214)"/><use xlink:href="#i" transform="matrix(1,0,0,1,20.666666666618397,451.86906377212614) translate(119.99999999999994 32.659722222222214)"/></g><defs><path fill="#3a414a" d="M140-251c81 0 123 46 123 126C263-46 219 4 140 4 59 4 17-45 17-125s42-126 123-126zm0 227c63 0 89-41 89-101s-29-99-89-99c-61 0-89 39-89 99S79-25 140-24" id="t"/><path fill="#3a414a" d="M266 0h-40l-56-210L115 0H75L2-248h35L96-30l15-64 43-154h32l59 218 59-218h35" id="u"/><path fill="#3a414a" d="M30 0v-248h33v221h125V0H30" id="v"/><g id="a"><use transform="matrix(0.06790123456790123,0,0,0.06790123456790123,0,0)" xlink:href="#t"/><use transform="matrix(0.06790123456790123,0,0,0.06790123456790123,19.012345679012345,0)" xlink:href="#u"/><use transform="matrix(0.06790123456790123,0,0,0.06790123456790123,42.03086419753086,0)" xlink:href="#v"/></g><path fill="#3a414a" d="M143 4C61 4 22-44 18-125c-5-107 100-154 193-111 17 8 29 25 37 43l-32 9c-13-25-37-40-76-40-61 0-88 39-88 99 0 61 29 100 91 101 35 0 62-11 79-27v-45h-74v-28h105v86C228-13 192 4 143 4" id="w"/><path fill="#3a414a" d="M100-194c63 0 86 42 84 106H49c0 40 14 67 53 68 26 1 43-12 49-29l28 8c-11 28-37 45-77 45C44 4 14-33 15-96c1-61 26-98 85-98zm52 81c6-60-76-77-97-28-3 7-6 17-6 28h103" id="x"/><path fill="#3a414a" d="M100-194c62-1 85 37 85 99 1 63-27 99-86 99S16-35 15-95c0-66 28-99 85-99zM99-20c44 1 53-31 53-75 0-43-8-75-51-75s-53 32-53 75 10 74 51 75" id="y"/><path fill="#3a414a" d="M185-189c-5-48-123-54-124 2 14 75 158 14 163 119 3 78-121 87-175 55-17-10-28-26-33-46l33-7c5 56 141 63 141-1 0-78-155-14-162-118-5-82 145-84 179-34 5 7 8 16 11 25" id="z"/><path fill="#3a414a" d="M30-248c87 1 191-15 191 75 0 78-77 80-158 76V0H30v-248zm33 125c57 0 124 11 124-50 0-59-68-47-124-48v98" id="A"/><path fill="#3a414a" d="M205 0l-28-72H64L36 0H1l101-248h38L239 0h-34zm-38-99l-47-123c-12 45-31 82-46 123h93" id="B"/><path fill="#3a414a" d="M233-177c-1 41-23 64-60 70L243 0h-38l-65-103H63V0H30v-248c88 3 205-21 203 71zM63-129c60-2 137 13 137-47 0-61-80-42-137-45v92" id="C"/><path fill="#3a414a" d="M140-251c81 0 123 46 123 126C263-53 228-8 163 1c7 30 30 48 69 40v23c-55 16-95-15-103-61C56-3 17-48 17-125c0-80 42-126 123-126zm0 227c63 0 89-41 89-101s-29-99-89-99c-61 0-89 39-89 99S79-25 140-24" id="D"/><g id="b"><use transform="matrix(0.06790123456790123,0,0,0.06790123456790123,0,0)" xlink:href="#w"/><use transform="matrix(0.06790123456790123,0,0,0.06790123456790123,19.012345679012345,0)" xlink:href="#x"/><use transform="matrix(0.06790123456790123,0,0,0.06790123456790123,32.592592592592595,0)" xlink:href="#y"/><use transform="matrix(0.06790123456790123,0,0,0.06790123456790123,46.17283950617284,0)" xlink:href="#z"/><use transform="matrix(0.06790123456790123,0,0,0.06790123456790123,62.46913580246914,0)" xlink:href="#A"/><use transform="matrix(0.06790123456790123,0,0,0.06790123456790123,76.9320987654321,0)" xlink:href="#B"/><use transform="matrix(0.06790123456790123,0,0,0.06790123456790123,93.22839506172839,0)" xlink:href="#C"/><use transform="matrix(0.06790123456790123,0,0,0.06790123456790123,110.81481481481481,0)" xlink:href="#D"/><use transform="matrix(0.06790123456790123,0,0,0.06790123456790123,129.82716049382717,0)" xlink:href="#v"/></g><g id="c"><use transform="matrix(0.06790123456790123,0,0,0.06790123456790123,0,0)" xlink:href="#z"/><use transform="matrix(0.06790123456790123,0,0,0.06790123456790123,16.296296296296294,0)" xlink:href="#t"/><use transform="matrix(0.06790123456790123,0,0,0.06790123456790123,35.30864197530864,0)" xlink:href="#z"/><use transform="matrix(0.06790123456790123,0,0,0.06790123456790123,51.60493827160494,0)" xlink:href="#B"/></g><path fill="#3a414a" d="M63-220v92h138v28H63V0H30v-248h175v28H63" id="E"/><path fill="#3a414a" d="M30-248c118-7 216 8 213 122C240-48 200 0 122 0H30v-248zM63-27c89 8 146-16 146-99s-60-101-146-95v194" id="F"/><g id="d"><use transform="matrix(0.06790123456790123,0,0,0.06790123456790123,0,0)" xlink:href="#E"/><use transform="matrix(0.06790123456790123,0,0,0.06790123456790123,14.87037037037037,0)" xlink:href="#z"/><use transform="matrix(0.06790123456790123,0,0,0.06790123456790123,31.166666666666664,0)" xlink:href="#F"/><use transform="matrix(0.06790123456790123,0,0,0.06790123456790123,48.75308641975308,0)" xlink:href="#E"/></g><path fill="#3a414a" d="M160-131c35 5 61 23 61 61C221 17 115-2 30 0v-248c76 3 177-17 177 60 0 33-19 50-47 57zm-97-11c50-1 110 9 110-42 0-47-63-36-110-37v79zm0 115c55-2 124 14 124-45 0-56-70-42-124-44v89" id="G"/><path fill="#3a414a" d="M141-36C126-15 110 5 73 4 37 3 15-17 15-53c-1-64 63-63 125-63 3-35-9-54-41-54-24 1-41 7-42 31l-33-3c5-37 33-52 76-52 45 0 72 20 72 64v82c-1 20 7 32 28 27v20c-31 9-61-2-59-35zM48-53c0 20 12 33 32 33 41-3 63-29 60-74-43 2-92-5-92 41" id="H"/><path fill="#3a414a" d="M96-169c-40 0-48 33-48 73s9 75 48 75c24 0 41-14 43-38l32 2c-6 37-31 61-74 61-59 0-76-41-82-99-10-93 101-131 147-64 4 7 5 14 7 22l-32 3c-4-21-16-35-41-35" id="I"/><path fill="#3a414a" d="M143 0L79-87 56-68V0H24v-261h32v163l83-92h37l-77 82L181 0h-38" id="J"/><path fill="#3a414a" d="M115-194c53 0 69 39 70 98 0 66-23 100-70 100C84 3 66-7 56-30L54 0H23l1-261h32v101c10-23 28-34 59-34zm-8 174c40 0 45-34 45-75 0-40-5-75-45-74-42 0-51 32-51 76 0 43 10 73 51 73" id="K"/><path fill="#3a414a" d="M117-194c89-4 53 116 60 194h-32v-121c0-31-8-49-39-48C34-167 62-67 57 0H25l-1-190h30c1 10-1 24 2 32 11-22 29-35 61-36" id="L"/><g id="e"><use transform="matrix(0.06790123456790123,0,0,0.06790123456790123,0,0)" xlink:href="#G"/><use transform="matrix(0.06790123456790123,0,0,0.06790123456790123,16.296296296296294,0)" xlink:href="#H"/><use transform="matrix(0.06790123456790123,0,0,0.06790123456790123,29.87654320987654,0)" xlink:href="#I"/><use transform="matrix(0.06790123456790123,0,0,0.06790123456790123,42.09876543209876,0)" xlink:href="#J"/><use transform="matrix(0.06790123456790123,0,0,0.06790123456790123,54.32098765432098,0)" xlink:href="#K"/><use transform="matrix(0.06790123456790123,0,0,0.06790123456790123,67.90123456790123,0)" xlink:href="#y"/><use transform="matrix(0.06790123456790123,0,0,0.06790123456790123,81.48148148148147,0)" xlink:href="#L"/><use transform="matrix(0.06790123456790123,0,0,0.06790123456790123,95.06172839506172,0)" xlink:href="#x"/></g><path fill="#3a414a" d="M240 0l2-218c-23 76-54 145-80 218h-23L58-218 59 0H30v-248h44l77 211c21-75 51-140 76-211h43V0h-30" id="M"/><path fill="#3a414a" d="M85-194c31 0 48 13 60 33l-1-100h32l1 261h-30c-2-10 0-23-3-31C134-8 116 4 85 4 32 4 16-35 15-94c0-66 23-100 70-100zm9 24c-40 0-46 34-46 75 0 40 6 74 45 74 42 0 51-32 51-76 0-42-9-74-50-73" id="N"/><path fill="#3a414a" d="M24 0v-261h32V0H24" id="O"/><g id="f"><use transform="matrix(0.06790123456790123,0,0,0.06790123456790123,0,0)" xlink:href="#M"/><use transform="matrix(0.06790123456790123,0,0,0.06790123456790123,20.30246913580247,0)" xlink:href="#y"/><use transform="matrix(0.06790123456790123,0,0,0.06790123456790123,33.882716049382715,0)" xlink:href="#N"/><use transform="matrix(0.06790123456790123,0,0,0.06790123456790123,47.46296296296296,0)" xlink:href="#x"/><use transform="matrix(0.06790123456790123,0,0,0.06790123456790123,61.04320987654321,0)" xlink:href="#O"/></g><path fill="#3a414a" d="M190 0L58-211 59 0H30v-248h39L202-35l-2-213h31V0h-41" id="P"/><path fill="#3a414a" d="M16-82v-28h88v28H16" id="Q"/><path fill="#3a414a" d="M210-169c-67 3-38 105-44 169h-31v-121c0-29-5-50-35-48C34-165 62-65 56 0H25l-1-190h30c1 10-1 24 2 32 10-44 99-50 107 0 11-21 27-35 58-36 85-2 47 119 55 194h-31v-121c0-29-5-49-35-48" id="R"/><path fill="#3a414a" d="M59-47c-2 24 18 29 38 22v24C64 9 27 4 27-40v-127H5v-23h24l9-43h21v43h35v23H59v120" id="S"/><path fill="#3a414a" d="M24-231v-30h32v30H24zM24 0v-190h32V0H24" id="T"/><g id="g"><use transform="matrix(0.0493827160493827,0,0,0.0493827160493827,0,0)" xlink:href="#P"/><use transform="matrix(0.0493827160493827,0,0,0.0493827160493827,12.79012345679012,0)" xlink:href="#y"/><use transform="matrix(0.0493827160493827,0,0,0.0493827160493827,22.666666666666657,0)" xlink:href="#L"/><use transform="matrix(0.0493827160493827,0,0,0.0493827160493827,32.543209876543195,0)" xlink:href="#Q"/><use transform="matrix(0.0493827160493827,0,0,0.0493827160493827,38.41975308641973,0)" xlink:href="#z"/><use transform="matrix(0.0493827160493827,0,0,0.0493827160493827,50.27160493827158,0)" xlink:href="#x"/><use transform="matrix(0.0493827160493827,0,0,0.0493827160493827,60.14814814814812,0)" xlink:href="#R"/><use transform="matrix(0.0493827160493827,0,0,0.0493827160493827,74.91358024691354,0)" xlink:href="#H"/><use transform="matrix(0.0493827160493827,0,0,0.0493827160493827,84.79012345679008,0)" xlink:href="#L"/><use transform="matrix(0.0493827160493827,0,0,0.0493827160493827,94.66666666666663,0)" xlink:href="#S"/><use transform="matrix(0.0493827160493827,0,0,0.0493827160493827,99.6049382716049,0)" xlink:href="#T"/><use transform="matrix(0.0493827160493827,0,0,0.0493827160493827,103.50617283950612,0)" xlink:href="#I"/></g><g id="h"><use transform="matrix(0.0493827160493827,0,0,0.0493827160493827,0,0)" xlink:href="#u"/><use transform="matrix(0.0493827160493827,0,0,0.0493827160493827,16.395061728395053,0)" xlink:href="#x"/><use transform="matrix(0.0493827160493827,0,0,0.0493827160493827,26.271604938271597,0)" xlink:href="#K"/></g><g id="i"><use transform="matrix(0.0493827160493827,0,0,0.0493827160493827,0,0)" xlink:href="#M"/><use transform="matrix(0.0493827160493827,0,0,0.0493827160493827,14.765432098765427,0)" xlink:href="#y"/><use transform="matrix(0.0493827160493827,0,0,0.0493827160493827,24.641975308641968,0)" xlink:href="#N"/><use transform="matrix(0.0493827160493827,0,0,0.0493827160493827,34.518518518518505,0)" xlink:href="#x"/><use transform="matrix(0.0493827160493827,0,0,0.0493827160493827,44.39506172839504,0)" xlink:href="#O"/></g><path fill="#3a414a" d="M115-194c55 1 70 41 70 98S169 2 115 4C84 4 66-9 55-30l1 105H24l-1-265h31l2 30c10-21 28-34 59-34zm-8 174c40 0 45-34 45-75s-6-73-45-74c-42 0-51 32-51 76 0 43 10 73 51 73" id="U"/><path fill="#3a414a" d="M114-163C36-179 61-72 57 0H25l-1-190h30c1 12-1 29 2 39 6-27 23-49 58-41v29" id="V"/><path fill="#3a414a" d="M101-234c-31-9-42 10-38 44h38v23H63V0H32v-167H5v-23h27c-7-52 17-82 69-68v24" id="W"/><g id="j"><use transform="matrix(0.049382716049382706,0,0,0.049382716049382706,0,0)" xlink:href="#U"/><use transform="matrix(0.049382716049382706,0,0,0.049382716049382706,9.87654320987654,0)" xlink:href="#V"/><use transform="matrix(0.049382716049382706,0,0,0.049382716049382706,15.75308641975308,0)" xlink:href="#y"/><use transform="matrix(0.049382716049382706,0,0,0.049382716049382706,25.629629629629626,0)" xlink:href="#W"/><use transform="matrix(0.049382716049382706,0,0,0.049382716049382706,30.56790123456789,0)" xlink:href="#T"/><use transform="matrix(0.049382716049382706,0,0,0.049382716049382706,34.469135802469125,0)" xlink:href="#O"/><use transform="matrix(0.049382716049382706,0,0,0.049382716049382706,38.37037037037036,0)" xlink:href="#x"/></g><g id="k"><use transform="matrix(0.049382716049382706,0,0,0.049382716049382706,0,0)" xlink:href="#y"/><use transform="matrix(0.049382716049382706,0,0,0.049382716049382706,9.87654320987654,0)" xlink:href="#W"/></g><path fill="#3a414a" d="M33 0v-248h34V0H33" id="X"/><g id="l"><use transform="matrix(0.06172839506172839,0,0,0.06172839506172839,0,0)" xlink:href="#X"/><use transform="matrix(0.06172839506172839,0,0,0.06172839506172839,6.172839506172839,0)" xlink:href="#L"/><use transform="matrix(0.06172839506172839,0,0,0.06172839506172839,18.51851851851852,0)" xlink:href="#S"/><use transform="matrix(0.06172839506172839,0,0,0.06172839506172839,24.691358024691358,0)" xlink:href="#x"/><use transform="matrix(0.06172839506172839,0,0,0.06172839506172839,37.03703703703704,0)" xlink:href="#L"/><use transform="matrix(0.06172839506172839,0,0,0.06172839506172839,49.382716049382715,0)" xlink:href="#H"/><use transform="matrix(0.06172839506172839,0,0,0.06172839506172839,61.72839506172839,0)" xlink:href="#S"/><use transform="matrix(0.06172839506172839,0,0,0.06172839506172839,67.90123456790123,0)" xlink:href="#T"/><use transform="matrix(0.06172839506172839,0,0,0.06172839506172839,72.77777777777777,0)" xlink:href="#y"/><use transform="matrix(0.06172839506172839,0,0,0.06172839506172839,85.12345679012346,0)" xlink:href="#L"/><use transform="matrix(0.06172839506172839,0,0,0.06172839506172839,97.46913580246914,0)" xlink:href="#H"/><use transform="matrix(0.06172839506172839,0,0,0.06172839506172839,109.81481481481482,0)" xlink:href="#O"/></g><path fill="#3a414a" d="M135-143c-3-34-86-38-87 0 15 53 115 12 119 90S17 21 10-45l28-5c4 36 97 45 98 0-10-56-113-15-118-90-4-57 82-63 122-42 12 7 21 19 24 35" id="Y"/><g id="m"><use transform="matrix(0.06172839506172839,0,0,0.06172839506172839,0,0)" xlink:href="#z"/><use transform="matrix(0.06172839506172839,0,0,0.06172839506172839,14.814814814814813,0)" xlink:href="#S"/><use transform="matrix(0.06172839506172839,0,0,0.06172839506172839,20.98765432098765,0)" xlink:href="#H"/><use transform="matrix(0.06172839506172839,0,0,0.06172839506172839,33.33333333333333,0)" xlink:href="#L"/><use transform="matrix(0.06172839506172839,0,0,0.06172839506172839,45.679012345679006,0)" xlink:href="#N"/><use transform="matrix(0.06172839506172839,0,0,0.06172839506172839,58.02469135802468,0)" xlink:href="#H"/><use transform="matrix(0.06172839506172839,0,0,0.06172839506172839,70.37037037037037,0)" xlink:href="#V"/><use transform="matrix(0.06172839506172839,0,0,0.06172839506172839,77.71604938271605,0)" xlink:href="#N"/><use transform="matrix(0.06172839506172839,0,0,0.06172839506172839,90.06172839506173,0)" xlink:href="#Y"/></g><path fill="#3a414a" d="M84 4C-5 8 30-112 23-190h32v120c0 31 7 50 39 49 72-2 45-101 50-169h31l1 190h-30c-1-10 1-25-2-33-11 22-28 36-60 37" id="Z"/><g id="n"><use transform="matrix(0.06172839506172839,0,0,0.06172839506172839,0,0)" xlink:href="#B"/><use transform="matrix(0.06172839506172839,0,0,0.06172839506172839,14.814814814814813,0)" xlink:href="#Z"/><use transform="matrix(0.06172839506172839,0,0,0.06172839506172839,27.160493827160494,0)" xlink:href="#Y"/><use transform="matrix(0.06172839506172839,0,0,0.06172839506172839,38.27160493827161,0)" xlink:href="#S"/><use transform="matrix(0.06172839506172839,0,0,0.06172839506172839,44.44444444444445,0)" xlink:href="#V"/><use transform="matrix(0.06172839506172839,0,0,0.06172839506172839,51.79012345679013,0)" xlink:href="#H"/><use transform="matrix(0.06172839506172839,0,0,0.06172839506172839,64.13580246913581,0)" xlink:href="#O"/><use transform="matrix(0.06172839506172839,0,0,0.06172839506172839,69.01234567901236,0)" xlink:href="#T"/><use transform="matrix(0.06172839506172839,0,0,0.06172839506172839,73.8888888888889,0)" xlink:href="#H"/><use transform="matrix(0.06172839506172839,0,0,0.06172839506172839,86.23456790123458,0)" xlink:href="#L"/></g><g id="o"><use transform="matrix(0.06172839506172839,0,0,0.06172839506172839,0,0)" xlink:href="#y"/><use transform="matrix(0.06172839506172839,0,0,0.06172839506172839,12.345679012345679,0)" xlink:href="#V"/></g><g id="p"><use transform="matrix(0.06172839506172839,0,0,0.06172839506172839,0,0)" xlink:href="#O"/><use transform="matrix(0.06172839506172839,0,0,0.06172839506172839,4.876543209876543,0)" xlink:href="#y"/><use transform="matrix(0.06172839506172839,0,0,0.06172839506172839,17.22222222222222,0)" xlink:href="#I"/><use transform="matrix(0.06172839506172839,0,0,0.06172839506172839,28.333333333333332,0)" xlink:href="#H"/><use transform="matrix(0.06172839506172839,0,0,0.06172839506172839,40.67901234567901,0)" xlink:href="#O"/></g><g id="q"><use transform="matrix(0.06790123456790123,0,0,0.06790123456790123,0,0)" xlink:href="#G"/><use transform="matrix(0.06790123456790123,0,0,0.06790123456790123,16.296296296296294,0)" xlink:href="#y"/><use transform="matrix(0.06790123456790123,0,0,0.06790123456790123,29.87654320987654,0)" xlink:href="#V"/><use transform="matrix(0.06790123456790123,0,0,0.06790123456790123,37.95679012345679,0)" xlink:href="#x"/><use transform="matrix(0.06790123456790123,0,0,0.06790123456790123,51.53703703703703,0)" xlink:href="#Y"/></g><g id="r"><use transform="matrix(0.06790123456790123,0,0,0.06790123456790123,0,0)" xlink:href="#w"/><use transform="matrix(0.06790123456790123,0,0,0.06790123456790123,19.012345679012345,0)" xlink:href="#x"/><use transform="matrix(0.06790123456790123,0,0,0.06790123456790123,32.592592592592595,0)" xlink:href="#y"/><use transform="matrix(0.06790123456790123,0,0,0.06790123456790123,46.17283950617284,0)" xlink:href="#z"/><use transform="matrix(0.06790123456790123,0,0,0.06790123456790123,62.46913580246914,0)" xlink:href="#I"/><use transform="matrix(0.06790123456790123,0,0,0.06790123456790123,74.69135802469137,0)" xlink:href="#T"/><use transform="matrix(0.06790123456790123,0,0,0.06790123456790123,80.05555555555557,0)" xlink:href="#M"/><use transform="matrix(0.06790123456790123,0,0,0.06790123456790123,100.35802469135804,0)" xlink:href="#v"/></g><g id="s"><use transform="matrix(0.0493827160493827,0,0,0.0493827160493827,0,0)" xlink:href="#z"/><use transform="matrix(0.0493827160493827,0,0,0.0493827160493827,11.851851851851848,0)" xlink:href="#x"/><use transform="matrix(0.0493827160493827,0,0,0.0493827160493827,21.728395061728385,0)" xlink:href="#R"/><use transform="matrix(0.0493827160493827,0,0,0.0493827160493827,36.49382716049381,0)" xlink:href="#H"/><use transform="matrix(0.0493827160493827,0,0,0.0493827160493827,46.370370370370345,0)" xlink:href="#L"/><use transform="matrix(0.0493827160493827,0,0,0.0493827160493827,56.24691358024688,0)" xlink:href="#S"/><use transform="matrix(0.0493827160493827,0,0,0.0493827160493827,61.185185185185155,0)" xlink:href="#T"/><use transform="matrix(0.0493827160493827,0,0,0.0493827160493827,65.08641975308639,0)" xlink:href="#I"/></g></defs></g></svg>