<svg xmlns="http://www.w3.org/2000/svg" xmlns:xlink="http://www.w3.org/1999/xlink" xmlns:lucid="lucid" width="990.67" height="517.33"><g transform="translate(-144.66666666666697 -274.6666666666667)" lucid:page-tab-id="0_0"><path d="M0 0h1500v1000H0z" fill="#fff"/><path d="M244.67 650.5v-21.83a6 6 0 0 1 6-6h88a6 6 0 0 0 6-6v-5.95" stroke="#3a414a" fill="none"/><path d="M245.17 651h-1v-.5h1z" stroke="#3a414a" stroke-width=".05" fill="#3a414a"/><path d="M344.67 595.95l4.63 14.27h-9.27z" stroke="#3a414a" fill="#fff"/><path d="M437.33 650.5v-21.83a6 6 0 0 0-6-6h-80.66a6 6 0 0 1-6-6v-5.95" stroke="#3a414a" fill="none"/><path d="M437.83 651h-1v-.5h1z" stroke="#3a414a" stroke-width=".05" fill="#3a414a"/><path d="M344.67 595.95l4.63 14.27h-9.27z" stroke="#3a414a" fill="#fff"/><path d="M264.67 478.33a5 5 0 0 1 5-5h150a5 5 0 0 1 5 5v110a5 5 0 0 1-5 5h-150a5 5 0 0 1-5-5z" stroke="#000" stroke-width="2" fill="#fff"/><use xlink:href="#a" transform="matrix(1,0,0,1,276.6666666666671,485.33333333333337) translate(28.049999999999997 41.4)"/><use xlink:href="#b" transform="matrix(1,0,0,1,276.6666666666671,485.33333333333337) translate(37.05 63)"/><path d="M647.33 478.33a5 5 0 0 1 5-5h150a5 5 0 0 1 5 5v110a5 5 0 0 1-5 5h-150a5 5 0 0 1-5-5z" stroke="#000" stroke-width="2" fill="#fff"/><use xlink:href="#c" transform="matrix(1,0,0,1,659.3333333333333,485.33333333333337) translate(39.074999999999996 41.4)"/><use xlink:href="#b" transform="matrix(1,0,0,1,659.3333333333333,485.33333333333337) translate(37.05 63)"/><path d="M344.67 471.83V450a6 6 0 0 1 6-6H624a6 6 0 0 0 6-6v-5.95" stroke="#3a414a" fill="none"/><path d="M345.17 472.33h-1v-.5h1z" stroke="#3a414a" stroke-width=".05" fill="#3a414a"/><path d="M630 417.3l4.63 14.25h-9.26z" stroke="#3a414a" fill="#fff"/><path d="M727.33 471.83V450a6 6 0 0 0-6-6H636a6 6 0 0 1-6-6v-5.95" stroke="#3a414a" fill="none"/><path d="M727.83 472.33h-1v-.5h1z" stroke="#3a414a" stroke-width=".05" fill="#3a414a"/><path d="M630 417.3l4.63 14.25h-9.26z" stroke="#3a414a" fill="#fff"/><path d="M550 657a5 5 0 0 1 5-5h150a5 5 0 0 1 5 5v110a5 5 0 0 1-5 5H555a5 5 0 0 1-5-5z" stroke="#000" stroke-width="2" fill="#fff"/><use xlink:href="#d" transform="matrix(1,0,0,1,562,664) translate(25.574999999999996 41.4)"/><use xlink:href="#b" transform="matrix(1,0,0,1,562,664) translate(37.05 63)"/><path d="M550 299.67a5 5 0 0 1 5-5h150a5 5 0 0 1 5 5v110a5 5 0 0 1-5 5H555a5 5 0 0 1-5-5z" stroke="#000" stroke-width="2" fill="#ced4db"/><use xlink:href="#e" transform="matrix(1,0,0,1,562,306.6666666666667) translate(37.05 50.4)"/><path d="M630 650.5v-21.83a6 6 0 0 1 6-6h85.33a6 6 0 0 0 6-6v-5.95" stroke="#3a414a" fill="none"/><path d="M630.5 651h-1v-.5h1z" stroke="#3a414a" stroke-width=".05" fill="#3a414a"/><path d="M727.33 595.95l4.64 14.27h-9.27z" stroke="#3a414a" fill="#fff"/><path d="M357.33 657a5 5 0 0 1 5-5h150a5 5 0 0 1 5 5v110a5 5 0 0 1-5 5h-150a5 5 0 0 1-5-5z" stroke="#000" stroke-width="2" fill="#fff"/><use xlink:href="#f" transform="matrix(1,0,0,1,369.3333333333336,664) translate(11.624999999999993 41.4)"/><use xlink:href="#b" transform="matrix(1,0,0,1,369.3333333333336,664) translate(37.05 63)"/><path d="M164.67 657a5 5 0 0 1 5-5h150a5 5 0 0 1 5 5v110a5 5 0 0 1-5 5h-150a5 5 0 0 1-5-5z" stroke="#000" stroke-width="2" fill="#fff"/><use xlink:href="#g" transform="matrix(1,0,0,1,176.66666666666697,664) translate(52.525 50.4)"/><path d="M955.33 478.33a5 5 0 0 1 5-5h150a5 5 0 0 1 5 5v110a5 5 0 0 1-5 5h-150a5 5 0 0 1-5-5z" stroke="#000" stroke-width="2" fill="#fff"/><use xlink:href="#h" transform="matrix(1,0,0,1,967.333333333333,485.33333333333337) translate(29.549999999999997 41.4)"/><use xlink:href="#i" transform="matrix(1,0,0,1,967.333333333333,485.33333333333337) translate(24.525 63)"/><path d="M1035.33 471.83V450a6 6 0 0 0-6-6H636a6 6 0 0 1-6-6v-5.95" stroke="#3a414a" fill="none"/><path d="M1035.83 472.33h-1v-.5h1z" stroke="#3a414a" stroke-width=".05" fill="#3a414a"/><path d="M630 417.3l4.63 14.25h-9.26z" stroke="#3a414a" fill="#fff"/><path d="M742.67 657a5 5 0 0 1 5-5h150a5 5 0 0 1 5 5v110a5 5 0 0 1-5 5h-150a5 5 0 0 1-5-5z" stroke="#000" stroke-width="2" fill="#fff"/><g><use xlink:href="#j" transform="matrix(1,0,0,1,754.6666666666664,664) translate(6.124999999999993 41.4)"/><use xlink:href="#b" transform="matrix(1,0,0,1,754.6666666666664,664) translate(37.05 63)"/></g><path d="M822.67 650.5v-21.83a6 6 0 0 0-6-6h-83.34a6 6 0 0 1-6-6v-5.95" stroke="#3a414a" fill="none"/><path d="M823.17 651h-1v-.5h1z" stroke="#3a414a" stroke-width=".05" fill="#3a414a"/><path d="M727.33 595.95l4.64 14.27h-9.27z" stroke="#3a414a" fill="#fff"/><defs><path d="M240 0l2-218c-23 76-54 145-80 218h-23L58-218 59 0H30v-248h44l77 211c21-75 51-140 76-211h43V0h-30" id="k"/><path d="M141-36C126-15 110 5 73 4 37 3 15-17 15-53c-1-64 63-63 125-63 3-35-9-54-41-54-24 1-41 7-42 31l-33-3c5-37 33-52 76-52 45 0 72 20 72 64v82c-1 20 7 32 28 27v20c-31 9-61-2-59-35zM48-53c0 20 12 33 32 33 41-3 63-29 60-74-43 2-92-5-92 41" id="l"/><path d="M117-194c89-4 53 116 60 194h-32v-121c0-31-8-49-39-48C34-167 62-67 57 0H25l-1-190h30c1 10-1 24 2 32 11-22 29-35 61-36" id="m"/><path d="M210-169c-67 3-38 105-44 169h-31v-121c0-29-5-50-35-48C34-165 62-65 56 0H25l-1-190h30c1 10-1 24 2 32 10-44 99-50 107 0 11-21 27-35 58-36 85-2 47 119 55 194h-31v-121c0-29-5-49-35-48" id="n"/><path d="M85-194c31 0 48 13 60 33l-1-100h32l1 261h-30c-2-10 0-23-3-31C134-8 116 4 85 4 32 4 16-35 15-94c0-66 23-100 70-100zm9 24c-40 0-46 34-46 75 0 40 6 74 45 74 42 0 51-32 51-76 0-42-9-74-50-73" id="o"/><path d="M100-194c63 0 86 42 84 106H49c0 40 14 67 53 68 26 1 43-12 49-29l28 8c-11 28-37 45-77 45C44 4 14-33 15-96c1-61 26-98 85-98zm52 81c6-60-76-77-97-28-3 7-6 17-6 28h103" id="p"/><g id="a"><use transform="matrix(0.05,0,0,0.05,0,0)" xlink:href="#k"/><use transform="matrix(0.05,0,0,0.05,14.950000000000001,0)" xlink:href="#l"/><use transform="matrix(0.05,0,0,0.05,24.950000000000003,0)" xlink:href="#m"/><use transform="matrix(0.05,0,0,0.05,34.95,0)" xlink:href="#n"/><use transform="matrix(0.05,0,0,0.05,49.900000000000006,0)" xlink:href="#l"/><use transform="matrix(0.05,0,0,0.05,59.900000000000006,0)" xlink:href="#o"/><use transform="matrix(0.05,0,0,0.05,69.9,0)" xlink:href="#p"/></g><path d="M63-220v92h138v28H63V0H30v-248h175v28H63" id="q"/><path d="M59-47c-2 24 18 29 38 22v24C64 9 27 4 27-40v-127H5v-23h24l9-43h21v43h35v23H59v120" id="r"/><path d="M84 4C-5 8 30-112 23-190h32v120c0 31 7 50 39 49 72-2 45-101 50-169h31l1 190h-30c-1-10 1-25-2-33-11 22-28 36-60 37" id="s"/><path d="M114-163C36-179 61-72 57 0H25l-1-190h30c1 12-1 29 2 39 6-27 23-49 58-41v29" id="t"/><g id="b"><use transform="matrix(0.05,0,0,0.05,0,0)" xlink:href="#q"/><use transform="matrix(0.05,0,0,0.05,10.950000000000001,0)" xlink:href="#p"/><use transform="matrix(0.05,0,0,0.05,20.950000000000003,0)" xlink:href="#l"/><use transform="matrix(0.05,0,0,0.05,30.950000000000003,0)" xlink:href="#r"/><use transform="matrix(0.05,0,0,0.05,35.95,0)" xlink:href="#s"/><use transform="matrix(0.05,0,0,0.05,45.95,0)" xlink:href="#t"/><use transform="matrix(0.05,0,0,0.05,51.900000000000006,0)" xlink:href="#p"/></g><path d="M190 0L58-211 59 0H30v-248h39L202-35l-2-213h31V0h-41" id="u"/><path d="M24 0v-261h32V0H24" id="v"/><g id="c"><use transform="matrix(0.05,0,0,0.05,0,0)" xlink:href="#u"/><use transform="matrix(0.05,0,0,0.05,12.950000000000001,0)" xlink:href="#l"/><use transform="matrix(0.05,0,0,0.05,22.950000000000003,0)" xlink:href="#r"/><use transform="matrix(0.05,0,0,0.05,27.950000000000003,0)" xlink:href="#s"/><use transform="matrix(0.05,0,0,0.05,37.95,0)" xlink:href="#t"/><use transform="matrix(0.05,0,0,0.05,43.900000000000006,0)" xlink:href="#l"/><use transform="matrix(0.05,0,0,0.05,53.900000000000006,0)" xlink:href="#v"/></g><path d="M143 4C61 4 22-44 18-125c-5-107 100-154 193-111 17 8 29 25 37 43l-32 9c-13-25-37-40-76-40-61 0-88 39-88 99 0 61 29 100 91 101 35 0 62-11 79-27v-45h-74v-28h105v86C228-13 192 4 143 4" id="w"/><path d="M100-194c62-1 85 37 85 99 1 63-27 99-86 99S16-35 15-95c0-66 28-99 85-99zM99-20c44 1 53-31 53-75 0-43-8-75-51-75s-53 32-53 75 10 74 51 75" id="x"/><path d="M177-190C167-65 218 103 67 71c-23-6-38-20-44-43l32-5c15 47 100 32 89-28v-30C133-14 115 1 83 1 29 1 15-40 15-95c0-56 16-97 71-98 29-1 48 16 59 35 1-10 0-23 2-32h30zM94-22c36 0 50-32 50-73 0-42-14-75-50-75-39 0-46 34-46 75s6 73 46 73" id="y"/><path d="M24-231v-30h32v30H24zM24 0v-190h32V0H24" id="z"/><path d="M96-169c-40 0-48 33-48 73s9 75 48 75c24 0 41-14 43-38l32 2c-6 37-31 61-74 61-59 0-76-41-82-99-10-93 101-131 147-64 4 7 5 14 7 22l-32 3c-4-21-16-35-41-35" id="A"/><g id="d"><use transform="matrix(0.05,0,0,0.05,0,0)" xlink:href="#w"/><use transform="matrix(0.05,0,0,0.05,14,0)" xlink:href="#p"/><use transform="matrix(0.05,0,0,0.05,24,0)" xlink:href="#x"/><use transform="matrix(0.05,0,0,0.05,34,0)" xlink:href="#v"/><use transform="matrix(0.05,0,0,0.05,37.95,0)" xlink:href="#x"/><use transform="matrix(0.05,0,0,0.05,47.95,0)" xlink:href="#y"/><use transform="matrix(0.05,0,0,0.05,57.95,0)" xlink:href="#z"/><use transform="matrix(0.05,0,0,0.05,61.900000000000006,0)" xlink:href="#A"/><use transform="matrix(0.05,0,0,0.05,70.9,0)" xlink:href="#l"/><use transform="matrix(0.05,0,0,0.05,80.9,0)" xlink:href="#v"/></g><g id="e"><use transform="matrix(0.05,0,0,0.05,0,0)" xlink:href="#q"/><use transform="matrix(0.05,0,0,0.05,10.950000000000001,0)" xlink:href="#p"/><use transform="matrix(0.05,0,0,0.05,20.950000000000003,0)" xlink:href="#l"/><use transform="matrix(0.05,0,0,0.05,30.950000000000003,0)" xlink:href="#r"/><use transform="matrix(0.05,0,0,0.05,35.95,0)" xlink:href="#s"/><use transform="matrix(0.05,0,0,0.05,45.95,0)" xlink:href="#t"/><use transform="matrix(0.05,0,0,0.05,51.900000000000006,0)" xlink:href="#p"/></g><path d="M205 0l-28-72H64L36 0H1l101-248h38L239 0h-34zm-38-99l-47-123c-12 45-31 82-46 123h93" id="B"/><path d="M135-143c-3-34-86-38-87 0 15 53 115 12 119 90S17 21 10-45l28-5c4 36 97 45 98 0-10-56-113-15-118-90-4-57 82-63 122-42 12 7 21 19 24 35" id="C"/><path d="M108 0H70L1-190h34L89-25l56-165h34" id="D"/><g id="f"><use transform="matrix(0.05,0,0,0.05,0,0)" xlink:href="#B"/><use transform="matrix(0.05,0,0,0.05,12,0)" xlink:href="#o"/><use transform="matrix(0.05,0,0,0.05,22,0)" xlink:href="#n"/><use transform="matrix(0.05,0,0,0.05,36.95,0)" xlink:href="#z"/><use transform="matrix(0.05,0,0,0.05,40.900000000000006,0)" xlink:href="#m"/><use transform="matrix(0.05,0,0,0.05,50.900000000000006,0)" xlink:href="#z"/><use transform="matrix(0.05,0,0,0.05,54.85,0)" xlink:href="#C"/><use transform="matrix(0.05,0,0,0.05,63.85,0)" xlink:href="#r"/><use transform="matrix(0.05,0,0,0.05,68.85000000000001,0)" xlink:href="#t"/><use transform="matrix(0.05,0,0,0.05,74.80000000000001,0)" xlink:href="#l"/><use transform="matrix(0.05,0,0,0.05,84.80000000000001,0)" xlink:href="#r"/><use transform="matrix(0.05,0,0,0.05,89.80000000000001,0)" xlink:href="#z"/><use transform="matrix(0.05,0,0,0.05,93.75000000000001,0)" xlink:href="#D"/><use transform="matrix(0.05,0,0,0.05,102.75,0)" xlink:href="#p"/></g><path d="M185-189c-5-48-123-54-124 2 14 75 158 14 163 119 3 78-121 87-175 55-17-10-28-26-33-46l33-7c5 56 141 63 141-1 0-78-155-14-162-118-5-82 145-84 179-34 5 7 8 16 11 25" id="E"/><g id="g"><use transform="matrix(0.05,0,0,0.05,0,0)" xlink:href="#E"/><use transform="matrix(0.05,0,0,0.05,12,0)" xlink:href="#z"/><use transform="matrix(0.05,0,0,0.05,15.949999999999998,0)" xlink:href="#r"/><use transform="matrix(0.05,0,0,0.05,20.95,0)" xlink:href="#p"/></g><path d="M233-177c-1 41-23 64-60 70L243 0h-38l-65-103H63V0H30v-248c88 3 205-21 203 71zM63-129c60-2 137 13 137-47 0-61-80-42-137-45v92" id="F"/><g id="h"><use transform="matrix(0.05,0,0,0.05,0,0)" xlink:href="#F"/><use transform="matrix(0.05,0,0,0.05,12.950000000000001,0)" xlink:href="#p"/><use transform="matrix(0.05,0,0,0.05,22.950000000000003,0)" xlink:href="#C"/><use transform="matrix(0.05,0,0,0.05,31.950000000000003,0)" xlink:href="#x"/><use transform="matrix(0.05,0,0,0.05,41.95,0)" xlink:href="#s"/><use transform="matrix(0.05,0,0,0.05,51.95,0)" xlink:href="#t"/><use transform="matrix(0.05,0,0,0.05,57.900000000000006,0)" xlink:href="#A"/><use transform="matrix(0.05,0,0,0.05,66.9,0)" xlink:href="#p"/></g><path d="M140-251c81 0 123 46 123 126C263-46 219 4 140 4 59 4 17-45 17-125s42-126 123-126zm0 227c63 0 89-41 89-101s-29-99-89-99c-61 0-89 39-89 99S79-25 140-24" id="G"/><g id="i"><use transform="matrix(0.05,0,0,0.05,0,0)" xlink:href="#G"/><use transform="matrix(0.05,0,0,0.05,14,0)" xlink:href="#A"/><use transform="matrix(0.05,0,0,0.05,23,0)" xlink:href="#A"/><use transform="matrix(0.05,0,0,0.05,32,0)" xlink:href="#s"/><use transform="matrix(0.05,0,0,0.05,42,0)" xlink:href="#t"/><use transform="matrix(0.05,0,0,0.05,47.95,0)" xlink:href="#p"/><use transform="matrix(0.05,0,0,0.05,57.95,0)" xlink:href="#m"/><use transform="matrix(0.05,0,0,0.05,67.95,0)" xlink:href="#A"/><use transform="matrix(0.05,0,0,0.05,76.95,0)" xlink:href="#p"/></g><path d="M16-82v-28h88v28H16" id="H"/><g id="j"><use transform="matrix(0.05,0,0,0.05,0,0)" xlink:href="#u"/><use transform="matrix(0.05,0,0,0.05,12.950000000000001,0)" xlink:href="#x"/><use transform="matrix(0.05,0,0,0.05,22.950000000000003,0)" xlink:href="#m"/><use transform="matrix(0.05,0,0,0.05,32.95,0)" xlink:href="#H"/><use transform="matrix(0.05,0,0,0.05,38.900000000000006,0)" xlink:href="#w"/><use transform="matrix(0.05,0,0,0.05,52.900000000000006,0)" xlink:href="#p"/><use transform="matrix(0.05,0,0,0.05,62.900000000000006,0)" xlink:href="#x"/><use transform="matrix(0.05,0,0,0.05,72.9,0)" xlink:href="#v"/><use transform="matrix(0.05,0,0,0.05,76.85000000000001,0)" xlink:href="#x"/><use transform="matrix(0.05,0,0,0.05,86.85000000000001,0)" xlink:href="#y"/><use transform="matrix(0.05,0,0,0.05,96.85000000000001,0)" xlink:href="#z"/><use transform="matrix(0.05,0,0,0.05,100.80000000000001,0)" xlink:href="#A"/><use transform="matrix(0.05,0,0,0.05,109.80000000000001,0)" xlink:href="#l"/><use transform="matrix(0.05,0,0,0.05,119.80000000000001,0)" xlink:href="#v"/></g></defs></g></svg>