<svg xmlns="http://www.w3.org/2000/svg" xmlns:xlink="http://www.w3.org/1999/xlink" xmlns:lucid="lucid" width="1214.67" height="517.33"><g transform="translate(127.33333333333348 -113.33333333333309)" lucid:page-tab-id="8BI_dQ.KIm9A"><path d="M-500 0h2000v1000H-500z" fill="#fff"/><path d="M-107.33 495.67a5 5 0 0 1 5-5h150a5 5 0 0 1 5 5v110a5 5 0 0 1-5 5h-150a5 5 0 0 1-5-5z" stroke="#000" stroke-width="2" fill="#fff"/><use xlink:href="#a" transform="matrix(1,0,0,1,-95.33333333333348,502.6666666666667) translate(48.55 50.4)"/><path d="M89.67 495.67a5 5 0 0 1 5-5h150a5 5 0 0 1 5 5v110a5 5 0 0 1-5 5h-150a5 5 0 0 1-5-5z" stroke="#000" stroke-width="2" fill="#fff"/><use xlink:href="#b" transform="matrix(1,0,0,1,101.66666666666652,502.6666666666667) translate(49.025 50.4)"/><path d="M-12.67 317a5 5 0 0 1 5-5h150a5 5 0 0 1 5 5v110a5 5 0 0 1-5 5h-150a5 5 0 0 1-5-5z" stroke="#000" stroke-width="2" fill="#fff"/><use xlink:href="#c" transform="matrix(1,0,0,1,-0.6666666666669698,323.9999999999999) translate(52.525 50.4)"/><path d="M-27.33 489.17v-21.84a6 6 0 0 1 6-6h82.66a6 6 0 0 0 6-6v-5.95" stroke="#3a414a" fill="none"/><path d="M-26.83 489.67h-1v-.52h1z" stroke="#3a414a" stroke-width=".05" fill="#3a414a"/><path d="M67.33 434.62l4.64 14.26H62.7z" stroke="#3a414a" fill="#fff"/><path d="M169.67 489.17v-21.84a6 6 0 0 0-6-6H73.33a6 6 0 0 1-6-6v-5.95" stroke="#3a414a" fill="none"/><path d="M170.17 489.67h-1v-.52h1z" stroke="#3a414a" stroke-width=".05" fill="#3a414a"/><path d="M67.33 434.62l4.64 14.26H62.7z" stroke="#3a414a" fill="#fff"/><path d="M615.34 317a5 5 0 0 1 5-5h150a5 5 0 0 1 5 5v110a5 5 0 0 1-5 5h-150a5 5 0 0 1-5-5z" stroke="#000" stroke-width="2" fill="#fff"/><use xlink:href="#d" transform="matrix(1,0,0,1,627.338912998554,323.9999999999999) translate(11.624999999999993 41.4)"/><use xlink:href="#e" transform="matrix(1,0,0,1,627.338912998554,323.9999999999999) translate(37.05 63)"/><path d="M710.33 495.67a5 5 0 0 1 5-5h150a5 5 0 0 1 5 5v110a5 5 0 0 1-5 5h-150a5 5 0 0 1-5-5z" stroke="#000" stroke-width="2" fill="#fff"/><use xlink:href="#f" transform="matrix(1,0,0,1,722.3333333333335,502.6666666666667) translate(20.599999999999994 50.4)"/><use xlink:href="#g" transform="matrix(1,0,0,1,722.3333333333335,502.6666666666667) translate(77.44999999999999 50.4)"/><path d="M513.33 495.67a5 5 0 0 1 5-5h150a5 5 0 0 1 5 5v110a5 5 0 0 1-5 5h-150a5 5 0 0 1-5-5z" stroke="#000" stroke-width="2" fill="#fff"/><use xlink:href="#h" transform="matrix(1,0,0,1,525.3333333333335,502.6666666666667) translate(7.074999999999996 50.4)"/><use xlink:href="#g" transform="matrix(1,0,0,1,525.3333333333335,502.6666666666667) translate(90.975 50.4)"/><path d="M593.33 489.17v-21.84a6 6 0 0 1 6-6h90a6 6 0 0 0 6-6v-5.95" stroke="#3a414a" fill="none"/><path d="M593.83 489.67h-1v-.52h1z" stroke="#3a414a" stroke-width=".05" fill="#3a414a"/><path d="M695.34 434.62l4.63 14.26h-9.27z" stroke="#3a414a" fill="#fff"/><path d="M790.33 489.17v-21.84a6 6 0 0 0-6-6h-83a6 6 0 0 1-6-6v-5.95" stroke="#3a414a" fill="none"/><path d="M790.83 489.67h-1v-.52h1z" stroke="#3a414a" stroke-width=".05" fill="#3a414a"/><path d="M695.34 434.62l4.63 14.26h-9.27z" stroke="#3a414a" fill="#fff"/><path d="M286.67 495.67a5 5 0 0 1 5-5h150a5 5 0 0 1 5 5v110a5 5 0 0 1-5 5h-150a5 5 0 0 1-5-5z" stroke="#000" stroke-width="2" fill="#fff"/><use xlink:href="#i" transform="matrix(1,0,0,1,298.6666666666665,502.6666666666667) translate(60.5 50.4)"/><path d="M366.67 489.17v-21.84a6 6 0 0 0-6-6H73.33a6 6 0 0 1-6-6v-5.95" stroke="#3a414a" fill="none"/><path d="M367.17 489.67h-1v-.52h1z" stroke="#3a414a" stroke-width=".05" fill="#3a414a"/><path d="M67.33 434.62l4.64 14.26H62.7z" stroke="#3a414a" fill="#fff"/><path d="M907.33 495.67a5 5 0 0 1 5-5h150a5 5 0 0 1 5 5v110a5 5 0 0 1-5 5h-150a5 5 0 0 1-5-5z" stroke="#000" stroke-width="2" fill="#fff"/><use xlink:href="#i" transform="matrix(1,0,0,1,919.3333333333335,502.6666666666667) translate(60.5 50.4)"/><path d="M987.33 489.17v-21.84a6 6 0 0 0-6-6h-280a6 6 0 0 1-6-6v-5.95" stroke="#3a414a" fill="none"/><path d="M987.83 489.67h-1v-.52h1z" stroke="#3a414a" stroke-width=".05" fill="#3a414a"/><path d="M695.34 434.62l4.63 14.26h-9.27z" stroke="#3a414a" fill="#fff"/><path d="M395.34 138.33a5 5 0 0 1 5-5h150a5 5 0 0 1 5 5v110a5 5 0 0 1-5 5h-150a5 5 0 0 1-5-5z" stroke="#000" stroke-width="2" fill="#fff"/><use xlink:href="#j" transform="matrix(1,0,0,1,407.33891299855395,145.3333333333331) translate(28.049999999999997 41.4)"/><use xlink:href="#e" transform="matrix(1,0,0,1,407.33891299855395,145.3333333333331) translate(37.05 63)"/><path d="M67.33 310.5v-21.83a6 6 0 0 1 6-6h396a6 6 0 0 0 6-6v-5.95" stroke="#3a414a" fill="none"/><path d="M67.83 311h-1v-.5h1z" stroke="#3a414a" stroke-width=".05" fill="#3a414a"/><path d="M475.34 255.95l4.63 14.27h-9.27z" stroke="#3a414a" fill="#fff"/><path d="M695.34 310.5v-21.83a6 6 0 0 0-6-6h-208a6 6 0 0 1-6-6v-5.95" stroke="#3a414a" fill="none"/><path d="M695.84 311h-1v-.5h1z" stroke="#3a414a" stroke-width=".05" fill="#3a414a"/><path d="M475.34 255.95l4.63 14.27h-9.27z" stroke="#3a414a" fill="#fff"/><defs><path d="M240 0l2-218c-23 76-54 145-80 218h-23L58-218 59 0H30v-248h44l77 211c21-75 51-140 76-211h43V0h-30" id="k"/><path d="M24-231v-30h32v30H24zM24 0v-190h32V0H24" id="l"/><path d="M117-194c89-4 53 116 60 194h-32v-121c0-31-8-49-39-48C34-167 62-67 57 0H25l-1-190h30c1 10-1 24 2 32 11-22 29-35 61-36" id="m"/><path d="M100-194c63 0 86 42 84 106H49c0 40 14 67 53 68 26 1 43-12 49-29l28 8c-11 28-37 45-77 45C44 4 14-33 15-96c1-61 26-98 85-98zm52 81c6-60-76-77-97-28-3 7-6 17-6 28h103" id="n"/><g id="a"><use transform="matrix(0.05,0,0,0.05,0,0)" xlink:href="#k"/><use transform="matrix(0.05,0,0,0.05,14.950000000000001,0)" xlink:href="#l"/><use transform="matrix(0.05,0,0,0.05,18.900000000000002,0)" xlink:href="#m"/><use transform="matrix(0.05,0,0,0.05,28.900000000000002,0)" xlink:href="#n"/></g><path d="M160-131c35 5 61 23 61 61C221 17 115-2 30 0v-248c76 3 177-17 177 60 0 33-19 50-47 57zm-97-11c50-1 110 9 110-42 0-47-63-36-110-37v79zm0 115c55-2 124 14 124-45 0-56-70-42-124-44v89" id="o"/><path d="M100-194c62-1 85 37 85 99 1 63-27 99-86 99S16-35 15-95c0-66 28-99 85-99zM99-20c44 1 53-31 53-75 0-43-8-75-51-75s-53 32-53 75 10 74 51 75" id="p"/><path d="M114-163C36-179 61-72 57 0H25l-1-190h30c1 12-1 29 2 39 6-27 23-49 58-41v29" id="q"/><g id="b"><use transform="matrix(0.05,0,0,0.05,0,0)" xlink:href="#o"/><use transform="matrix(0.05,0,0,0.05,12,0)" xlink:href="#p"/><use transform="matrix(0.05,0,0,0.05,22,0)" xlink:href="#q"/><use transform="matrix(0.05,0,0,0.05,27.950000000000003,0)" xlink:href="#n"/></g><path d="M185-189c-5-48-123-54-124 2 14 75 158 14 163 119 3 78-121 87-175 55-17-10-28-26-33-46l33-7c5 56 141 63 141-1 0-78-155-14-162-118-5-82 145-84 179-34 5 7 8 16 11 25" id="r"/><path d="M59-47c-2 24 18 29 38 22v24C64 9 27 4 27-40v-127H5v-23h24l9-43h21v43h35v23H59v120" id="s"/><g id="c"><use transform="matrix(0.05,0,0,0.05,0,0)" xlink:href="#r"/><use transform="matrix(0.05,0,0,0.05,12,0)" xlink:href="#l"/><use transform="matrix(0.05,0,0,0.05,15.949999999999998,0)" xlink:href="#s"/><use transform="matrix(0.05,0,0,0.05,20.95,0)" xlink:href="#n"/></g><path d="M205 0l-28-72H64L36 0H1l101-248h38L239 0h-34zm-38-99l-47-123c-12 45-31 82-46 123h93" id="t"/><path d="M85-194c31 0 48 13 60 33l-1-100h32l1 261h-30c-2-10 0-23-3-31C134-8 116 4 85 4 32 4 16-35 15-94c0-66 23-100 70-100zm9 24c-40 0-46 34-46 75 0 40 6 74 45 74 42 0 51-32 51-76 0-42-9-74-50-73" id="u"/><path d="M210-169c-67 3-38 105-44 169h-31v-121c0-29-5-50-35-48C34-165 62-65 56 0H25l-1-190h30c1 10-1 24 2 32 10-44 99-50 107 0 11-21 27-35 58-36 85-2 47 119 55 194h-31v-121c0-29-5-49-35-48" id="v"/><path d="M135-143c-3-34-86-38-87 0 15 53 115 12 119 90S17 21 10-45l28-5c4 36 97 45 98 0-10-56-113-15-118-90-4-57 82-63 122-42 12 7 21 19 24 35" id="w"/><path d="M141-36C126-15 110 5 73 4 37 3 15-17 15-53c-1-64 63-63 125-63 3-35-9-54-41-54-24 1-41 7-42 31l-33-3c5-37 33-52 76-52 45 0 72 20 72 64v82c-1 20 7 32 28 27v20c-31 9-61-2-59-35zM48-53c0 20 12 33 32 33 41-3 63-29 60-74-43 2-92-5-92 41" id="x"/><path d="M108 0H70L1-190h34L89-25l56-165h34" id="y"/><g id="d"><use transform="matrix(0.05,0,0,0.05,0,0)" xlink:href="#t"/><use transform="matrix(0.05,0,0,0.05,12,0)" xlink:href="#u"/><use transform="matrix(0.05,0,0,0.05,22,0)" xlink:href="#v"/><use transform="matrix(0.05,0,0,0.05,36.95,0)" xlink:href="#l"/><use transform="matrix(0.05,0,0,0.05,40.900000000000006,0)" xlink:href="#m"/><use transform="matrix(0.05,0,0,0.05,50.900000000000006,0)" xlink:href="#l"/><use transform="matrix(0.05,0,0,0.05,54.85,0)" xlink:href="#w"/><use transform="matrix(0.05,0,0,0.05,63.85,0)" xlink:href="#s"/><use transform="matrix(0.05,0,0,0.05,68.85000000000001,0)" xlink:href="#q"/><use transform="matrix(0.05,0,0,0.05,74.80000000000001,0)" xlink:href="#x"/><use transform="matrix(0.05,0,0,0.05,84.80000000000001,0)" xlink:href="#s"/><use transform="matrix(0.05,0,0,0.05,89.80000000000001,0)" xlink:href="#l"/><use transform="matrix(0.05,0,0,0.05,93.75000000000001,0)" xlink:href="#y"/><use transform="matrix(0.05,0,0,0.05,102.75,0)" xlink:href="#n"/></g><path d="M63-220v92h138v28H63V0H30v-248h175v28H63" id="z"/><path d="M84 4C-5 8 30-112 23-190h32v120c0 31 7 50 39 49 72-2 45-101 50-169h31l1 190h-30c-1-10 1-25-2-33-11 22-28 36-60 37" id="A"/><g id="e"><use transform="matrix(0.05,0,0,0.05,0,0)" xlink:href="#z"/><use transform="matrix(0.05,0,0,0.05,10.950000000000001,0)" xlink:href="#n"/><use transform="matrix(0.05,0,0,0.05,20.950000000000003,0)" xlink:href="#x"/><use transform="matrix(0.05,0,0,0.05,30.950000000000003,0)" xlink:href="#s"/><use transform="matrix(0.05,0,0,0.05,35.95,0)" xlink:href="#A"/><use transform="matrix(0.05,0,0,0.05,45.95,0)" xlink:href="#q"/><use transform="matrix(0.05,0,0,0.05,51.900000000000006,0)" xlink:href="#n"/></g><path d="M30-248c87 1 191-15 191 75 0 78-77 80-158 76V0H30v-248zm33 125c57 0 124 11 124-50 0-59-68-47-124-48v98" id="B"/><g id="f"><use transform="matrix(0.05,0,0,0.05,0,0)" xlink:href="#B"/><use transform="matrix(0.05,0,0,0.05,12,0)" xlink:href="#n"/><use transform="matrix(0.05,0,0,0.05,22,0)" xlink:href="#q"/><use transform="matrix(0.05,0,0,0.05,27.950000000000003,0)" xlink:href="#v"/><use transform="matrix(0.05,0,0,0.05,42.9,0)" xlink:href="#l"/><use transform="matrix(0.05,0,0,0.05,46.85,0)" xlink:href="#s"/></g><g id="g"><use transform="matrix(0.05,0,0,0.05,0,0)" xlink:href="#t"/><use transform="matrix(0.05,0,0,0.05,12,0)" xlink:href="#q"/><use transform="matrix(0.05,0,0,0.05,17.95,0)" xlink:href="#n"/><use transform="matrix(0.05,0,0,0.05,27.950000000000003,0)" xlink:href="#x"/></g><path d="M127-220V0H93v-220H8v-28h204v28h-85" id="C"/><g id="h"><use transform="matrix(0.05,0,0,0.05,0,0)" xlink:href="#C"/><use transform="matrix(0.05,0,0,0.05,8.950000000000001,0)" xlink:href="#n"/><use transform="matrix(0.05,0,0,0.05,18.950000000000003,0)" xlink:href="#m"/><use transform="matrix(0.05,0,0,0.05,28.950000000000003,0)" xlink:href="#n"/><use transform="matrix(0.05,0,0,0.05,38.95,0)" xlink:href="#v"/><use transform="matrix(0.05,0,0,0.05,53.900000000000006,0)" xlink:href="#n"/><use transform="matrix(0.05,0,0,0.05,63.900000000000006,0)" xlink:href="#m"/><use transform="matrix(0.05,0,0,0.05,73.9,0)" xlink:href="#s"/></g><path d="M33 0v-38h34V0H33" id="D"/><g id="i"><use transform="matrix(0.05,0,0,0.05,0,0)" xlink:href="#D"/><use transform="matrix(0.05,0,0,0.05,5,0)" xlink:href="#D"/><use transform="matrix(0.05,0,0,0.05,10,0)" xlink:href="#D"/></g><g id="j"><use transform="matrix(0.05,0,0,0.05,0,0)" xlink:href="#k"/><use transform="matrix(0.05,0,0,0.05,14.950000000000001,0)" xlink:href="#x"/><use transform="matrix(0.05,0,0,0.05,24.950000000000003,0)" xlink:href="#m"/><use transform="matrix(0.05,0,0,0.05,34.95,0)" xlink:href="#v"/><use transform="matrix(0.05,0,0,0.05,49.900000000000006,0)" xlink:href="#x"/><use transform="matrix(0.05,0,0,0.05,59.900000000000006,0)" xlink:href="#u"/><use transform="matrix(0.05,0,0,0.05,69.9,0)" xlink:href="#n"/></g></defs></g></svg>