<svg xmlns="http://www.w3.org/2000/svg" xmlns:xlink="http://www.w3.org/1999/xlink" xmlns:lucid="lucid" width="854.28" height="550.67"><g transform="translate(-455.5258641975307 -123.33333333333337)" lucid:page-tab-id="ODK_~vho7OX6"><path d="M0 0h1500v1000H0z" fill="#fff"/><path d="M596.86 248.67l.83-6.67.33-2.33.33-2 .33-1.67.33-1.33.33-1.6.33-1.82.33-2.08.33-2.34.5-2.9.67-3.5.83-4.1 1-4.66.92-3.84.83-3 .76-2.16.67-1.34.66-1.83.66-2.33.67-2.84.66-3.33.58-2.75.5-2.17.4-1.58.35-1 .33-1.08.33-1.17.33-1.25.33-1.33.5-1.25.67-1.17.83-1.08 1-1 .83-1 .66-1 .5-1 .33-1 .58-1.25.83-1.5 1.1-1.75 1.33-2 1.25-1.75 1.16-1.5 1.1-1.25 1-1 1-.92 1-.83 1-.75 1-.67.9-.58.84-.5.75-.42.66-.33.74-.34.84-.33.9-.33 1-.34.93-.33.84-.33.75-.34.66-.33.58-.33.5-.34.42-.33.33-.33.33-.25.33-.17.33-.08h.33l.4-.1.5-.15.6-.25.66-.34 2-.25 3.33-.16 4.66-.1h6l4.58.1 3.16.16 1.75.25.33.34.33.25.33.16.33.1h.33l.58.07.84.17 1.08.25 1.33.33 1.24.42 1.17.5 1.1.58 1 .67 1.24.66 1.5.67 1.75.67 2 .66 2 .75 2 .84 2 .9 2 1 2.08 1.1 2.16 1.16 2.25 1.25 2.33 1.34 3.08 1.5 3.84 1.66 4.6 1.84 5.32 2 4.5 1.83 3.67 1.67 2.83 1.5 2 1.33 1.83 1.17 1.66 1 1.5.83 1.33.67 1.08.58.83.5.6.42.33.33.25.33.16.34.1.33v.33l.5.75 1 1.17 1.5 1.58 2 2 1.74 1.92 1.5 1.83 1.25 1.75 1 1.67 1.16 1.67 1.33 1.66 1.5 1.67 1.66 1.67 2.24 2.08 2.84 2.5 3.4 2.92 4 3.33 3.5 2.75 3 2.17 2.5 1.58 2 1 1.93.92 1.84.83 1.75.75 1.66.67 1.58.66 1.5.67 1.42.67 1.33.66 1.33.6 1.33.5 1.33.4 1.33.34 2.08.66 2.84 1 3.6 1.34 4.32 1.66 5.25 1.6 6.18 1.5 7.08 1.4 8 1.34 6.92 1.08 5.83.83 4.76.6 3.67.32 3.33.33 3 .34 2.67.33 2.33.33 2.92.25 3.5.17 4.08.08h4.67l4.08-.08 3.5-.17 2.93-.25 2.33-.33 4-.5 5.67-.67 7.33-.83 9-1 8-.92 7-.83 6-.75 5-.67 4.25-.66 3.5-.67 2.76-.67 2-.66 2.75-.67 3.5-.67 4.26-.66 5-.67 4-.58 3-.5 2-.42 1-.33.92-.34.83-.33.76-.33.67-.34 1.16-.4 1.66-.5 2.17-.6 2.66-.66 4-.5 5.33-.34 6.66-.16h8l6.24.08 4.5.17 2.75.25 1 .33 1.24.5 1.5.67 1.75.83 2 1 1.9.83 1.84.67 1.75.5 1.66.33 1.75.5 1.84.67 1.92.83 2 1 3.5 1.34 5 1.66 6.5 2 8 2.34 6.67 2 5.33 1.66 4 1.34 2.67 1 2.25.9 1.83.85 1.43.75 1 .66.9.6.85.5.75.4.66.34.74.5.84.66.9.84 1 1 .85.9.66.85.5.75.33.66.33.6.33.5.33.4.33.34.42.58.5.83.58 1.1.67 1.32.66 1.25.66 1.17.67 1.08.66 1 .5.83.33.67.16.5v.33l.08.42.16.5.25.58.33.67.25.83.16 1 .1 1.17v1.33l.07 1.17.18 1 .25.83.33.67.25.92.18 1.16.08 1.42v1.67l-.08 1.58-.17 1.5-.24 1.42-.33 1.33-.42 1.5-.5 1.67-.57 1.83-.67 2-.5 1.67-.33 1.33-.17 1v.67l-.08.75-.17.83-.24.92-.33 1-.6 1.4-.82 1.85-1.07 2.25-1.34 2.66-1.17 2.6-1 2.5-.84 2.4-.67 2.34-.92 3.5-1.16 4.66-1.4 5.84-1.68 7-1.42 5.83-1.16 4.67-.92 3.5-.67 2.33-.5 3.33-.34 4.34-.17 5.33v6.33l.16 5.25.33 4.17.5 3.08.66 2 .67 2.42.66 2.83.66 3.25.67 3.67.9 3.75 1.18 3.83 1.43 3.92 1.66 4 1.5 3.42 1.33 2.83 1.16 2.25 1 1.67 1 1.75 1 1.83 1 1.92 1 2 1.08 2 1.16 2 1.25 2 1.33 2 1.16 1.9 1 1.85.83 1.75.66 1.66.66 1.6.67 1.5.66 1.4.66 1.34.67 1.16.66 1 .66.84.67.66.66.84.66 1 .67 1.16.66 1.34.83 2.33 1 3.33 1.16 4.34 1.33 5.33.9 4.25.5 3.17.1 2.08-.34 1-.26 1-.16 1-.1 1v1l-.5 1.75-1 2.5-1.5 3.25-2 4-1.74 3.33-1.5 2.67-1.25 2-1 1.33-1.1 1.67-1.16 2-1.25 2.33-1.34 2.67-1.25 2.33-1.16 2-1.08 1.67-1 1.33-.83 1.34-.67 1.33-.5 1.33-.33 1.34-.5 1.5-.67 1.66-.83 1.84-1 2-1.34 2.25-1.67 2.5-2 2.75-2.34 3-2.26 2.75-2.16 2.5-2.1 2.25-2 2-1.74 1.83-1.5 1.67-1.25 1.5-1 1.33-1.26 1.33-1.5 1.34-1.75 1.33-2 1.33-1.67 1.17-1.34 1-1 .83-.67.67-.84.75-1 .83-1.17.92-1.34 1-1.42 1-1.5 1-1.6 1-1.65 1-1.75 1-1.84 1-1.9 1-2 1-1.85 1-1.67 1-1.5 1-1.34 1-1.6 1-1.82 1-2.1 1-2.32 1-2.42 1.17-2.5 1.33-2.58 1.5-2.67 1.67-3 1.83-3.34 2-3.67 2.17-4 2.33-3.5 2-3 1.67-2.5 1.33-2 1-2.67 1.42-3.34 1.83-4 2.25-4.67 2.67-4.17 2.33-3.67 2-3.17 1.67-2.67 1.33-2.58 1.25-2.5 1.17-2.42 1.08-2.33 1-2.25.92-2.17.83-2.07.75-2 .67-2.1.5-2.15.33-2.25.17h-2.34l-2.42.08-2.5.17-2.6.25-2.65.33-4 .25-5.34.17-6.67.08h-8l-6.67-.08-5.33-.17-4-.25-2.67-.33-2.25-.34-1.82-.33-1.42-.33-1-.34-1-.25-1-.16-1-.1h-1l-1.5-.24-2-.5-2.5-.75-3-1-2.75-1-2.5-1-2.24-1-2-1-2.33-1.25-2.67-1.5-3-1.75-3.33-2-2.75-1.66-2.17-1.34-1.57-1-1-.66-.92-.67-.82-.67-.75-.66-.67-.67-.58-.67-.5-.66-.42-.67-.33-.67-.92-1-1.5-1.33-2.07-1.67-2.67-2-2.08-1.58-1.5-1.17-.92-.75-.33-.33-.42-.33-.5-.34-.57-.33-.67-.33-.83-.6-1-.82-1.17-1.08-1.33-1.34-1-1.08-.67-.83-.33-.6v-.32l-.17-.33-.33-.34-.5-.33-.67-.33-1.5-1.25-2.33-2.17-3.17-3.08-4-4-3.42-3.34-2.83-2.66-2.24-2-1.67-1.34-1.5-1.25-1.34-1.16-1.17-1.1-1-1-.92-.82-.84-.67-.75-.5-.67-.33-.6-.42-.5-.5-.4-.58-.34-.67-.26-.58-.16-.5-.1-.42v-.33l.1-.33.16-.34.25-.33.33-.33.25-.34.16-.33.1-.33v-.34l.07-.5.18-.66.25-.84.33-1 .42-.9.5-.85.58-.75.67-.66.5-.6.33-.5.17-.4v-.34l.16-.4.33-.5.5-.6.66-.66.58-.5.5-.34.4-.16h.35l.33-.1.33-.15.33-.25.33-.34.25-.33.18-.33.08-.34V558h.83l.33-.08.33-.17.33-.25.33-.33.25-.34.16-.33.1-.33v-.34l.07-.33.18-.33.25-.34.33-.33.25-.33.18-.34.08-.33v-.33l.08-.34.17-.33.26-.33.33-.34.24-.33.17-.33.1-.34v-.33l.08-.42.16-.5.25-.58.33-.67.25-.58.16-.5.1-.42v-.33l.07-.33.18-.34.25-.33.33-.33.25-.42.18-.5.08-.58V543l.08-.67.17-.66.26-.67.33-.67.24-1.16.17-1.67.1-2.17v-2.66l-.84-2.84-1.67-3-2.5-3.16-3.34-3.34-2.83-2.66-2.34-2-1.84-1.34-1.33-.66-1.67-.67-2-.67-2.33-.66-2.67-.67-2.42-.5-2.16-.33-1.92-.17h-1.67l-1.76-.08-1.83-.17-1.9-.25-2-.33-4.42-.25-6.84-.17-9.25-.08h-11.67l-9.17.08-6.67.17-4.17.25-1.67.33-1.67.25-1.67.17-1.67.08h-1.67l-2.26.17-2.83.33-3.4.5-4 .67-3.5.5-3 .33-2.5.17h-2l-2.1.08-2.16.17-2.25.25-2.34.33-2.75.25-3.16.17-3.58.08h-4l-3.75.08-3.5.17-3.24.25-3 .33-2.83.25-2.67.17-2.5.08h-2.33l-2.67-.08-3-.17-3.33-.25-3.67-.33-3.58-.42-3.5-.5-3.42-.58-3.33-.67-3.17-.58-3-.5-2.83-.42-2.67-.33-2.42-.42-2.16-.5-1.92-.58-1.67-.67-1.76-.66-1.83-.67-1.9-.67-2-.66-2.1-.75-2.16-.84-2.25-.9-2.34-1-2.25-.93-2.16-.83-2.08-.75-2-.67-2-.75-2-.83-2-.92-2-1-2-1.08-2-1.17-2-1.25-2-1.33-2.08-1.42-2.17-1.5-2.24-1.58-2.33-1.67-1.92-1.42-1.5-1.16-1.07-.92-.67-.67-1.5-1.08-2.33-1.5-3.17-1.92-4-2.33-3.33-2-2.67-1.67-2-1.33-1.33-1-1.34-1.08-1.34-1.17-1.33-1.25-1.34-1.33-1.34-1.25-1.33-1.17-1.34-1.08-1.34-1-1.33-1.1-1.34-1.15-1.34-1.25-1.33-1.34-1.75-1.9-2.17-2.5-2.57-3.1-3-3.66-2.42-3-1.82-2.34-1.25-1.66-.67-1-.75-1.17-.82-1.33-.92-1.5-1-1.67-1-1.75-1-1.83-1-1.92-1-2-.83-1.92-.67-1.83-.5-1.75-.33-1.67-.42-1.58-.5-1.5-.57-1.42-.67-1.33-.67-1.5-.67-1.67-.67-1.83-.67-2-.6-1.83-.5-1.67-.4-1.5-.34-1.33-.25-1.25-.16-1.17-.08-1.08v-1l-.17-1.42-.34-1.83-.5-2.25-.67-2.67-.5-2.5-.34-2.33-.17-2.17v-2l-.1-1.92-.16-1.83-.25-1.75-.34-1.67-.25-2-.16-2.33-.08-2.67v-3l-.08-2.58-.17-2.17-.24-1.75-.33-1.33-.25-2-.17-2.67-.07-3.33v-4l.25-3.75.5-3.5.75-3.25 1-3 .9-2.92.85-2.83.75-2.75.66-2.67.66-2.33.67-2 .66-1.67.66-1.33.58-1.33.5-1.34.42-1.33.33-1.33.4-1.25.5-1.17.6-1.08.66-1 .58-1 .5-1 .42-1 .33-1 .33-.92.33-.83.33-.75.33-.67.33-.58.33-.5.33-.42.33-.33.33-.42.33-.5.33-.58.33-.67.33-.58.33-.5.33-.42.33-.33.33-.25.33-.17.33-.08h.83v-.84l.25-.5.5-.66.76-.84 1-1 .83-.75.66-.5.5-.25h.33l.4-.16.5-.34.6-.5.66-.66.67-.6.66-.5.66-.4.67-.34.75-.25.83-.16.93-.1h1l.9-.07.85-.17.75-.25.66-.33.74-.25.84-.17.9-.08h1l.85-.08.66-.17.5-.25.33-.33 1.16-.25 2-.17 2.83-.08h3.66l2.83.08 2 .17 1.16.25.33.33.33.25.33.17.33.08h.33l.33.08.33.17.33.25.33.33.5.25.66.17.83.08h1l1.24.25 1.5.5 1.75.75 2 1 1.58.84 1.16.66.75.5.33.34.33.25.33.16.33.1h.33l.42.15.5.34.58.5.67.66.66.6.66.5.67.4.66.34.58.25.5.16.4.1h.35l.58.32.84.67 1.1 1 1.32 1.33 1.17 1.08 1 .84.83.58.67.33.66.42.66.5.67.58.66.67.66.75.67.83.66.92.66 1 .92 1.17 1.16 1.33 1.42 1.5 1.67 1.67 1.25 1.33.83 1 .43.67v.33l.16.42.33.5.5.58.66.67.5.58.33.5.16.42v.83h1.33v1.33-5l.08-1.58.18-1.17.25-.75.33-.33.25-.42.18-.5.08-.58v-1.67h1.33V279.5l.08-4.83.16-3.34.25-1.83.33-.33.25-.5.16-.67.1-.83v-2.5h1.32V263l.08-.58.17-.5.26-.42.33-.33.24-.42.17-.5.1-.58V258h1.33v-12h1.33" stroke="#cc4e00" stroke-width="4" stroke-linecap="round" stroke-linejoin="round" fill="none"/><path d="M576.86 355.33L572.7 352l-1.42-1-1.17-.67-.9-.33h-1.67v-1.33h-4v-1.34h-8v1.34h-2.67V350h-1.33v1.33h-1.34v.84l-.17.4-.34.5-.5.6-.67.66-.5.6-.34.5-.17.4v.34l-.1.33-.15.33-.25.34-.34.33-.26.5-.16.67-.1.83v2.5h-1.32v.83l-.08.34-.17.33-.24.33-.33.34-.25.5-.17.66-.07.84v2.5h-1.34v6.66l-.1 2.1-.16 1.5-.25.9-.34.34-.25.5-.16.66-.08.84v2.5h1.33v6.66h1.33v.84l.08.33.18.33.25.34.33.33.25.33.18.34.08.33v.33l.08.34.17.33.26.33.33.34.24.33.17.33.1.34v.33l.08.33.16.34.25.33.33.33.33.25.33.17.33.08h.33l.33.1.33.15.33.25.33.34.24.33.17.33.1.34v.83h1.33v1.33h2.66v.84l.08.33.16.33.25.34.33.33.33.25.33.17.33.08h.33l.33.08.33.17.33.25.33.33.4.25.5.17.6.08h.66l.58.1.5.15.42.25.33.34.33.25.33.16.33.1h.33l.33.07.33.17.33.25.33.33.5.25.67.17.83.08h1l.83.08.66.17.5.25.33.33.5.34.66.33.83.33 1 .34.9.25.84.16.75.1h.66l.75.07.84.17.92.25 1 .33.83.25.66.17.5.08h.33l.4.08.5.17.6.25.66.33.58.25.5.17.42.08h.33l.58.1.83.15 1.1.25 1.33.34 1.25.25 1.16.16 1.1.1h1l1 .07 1 .17 1 .25 1 .33 6.82.25 12.67.17 18.5.08h24.33l18.58-.08 12.84-.17 7.08-.25 1.33-.33 2-.25 2.66-.17 3.33-.08h4l3.24-.1 2.5-.15 1.75-.25 1-.34 3-.25 5-.16 7-.1h9l7.08.1 5.16.16 3.25.25 1.33.34 1.4.25 1.5.16 1.6.1h1.66l1.83.07 2 .17 2.16.25 2.33.33 1.9.25 1.5.17 1.1.08h.66l.58.08.5.17.4.25.35.33.5.25.66.17.83.08h1l.83.1.67.15.5.25.33.34.58.33.84.33 1.08.34 1.33.33 1.33.42 1.33.5 1.33.58 1.33.67 1.08.5.84.33.6.17h.32l.42.08.5.17.58.25.67.33.58.33.5.34.43.33.33.33.33.25.33.17.33.08h.33l.33.1.33.15.33.25.33.34.33.25.33.16.33.1h.33l.33.07.33.17.33.25.33.33.33.25.33.17.33.08h.33l.33.08.33.17.33.25.33.33.5.34.67.33.83.33 1 .34.83.33.66.33.5.34.33.33.33.25.33.17.33.08h.33l.4.08.5.17.6.25.66.33.74.5.84.67.9.83 1 1 .93.84.84.66.75.5.66.34.58.33.5.33.42.34.33.33.33.25.33.17.33.08h.83v.83l.16.42.33.5.5.58.66.67.5.58.33.5.16.42v.33l.08.34.16.33.25.33.33.34.33.25.33.16.33.1h.83v.82l.08.33.17.34.26.33.33.33.24.42.17.5.1.58v.67l.33.83.66 1 1 1.17 1.33 1.33 1.08 1.17.84 1 .6.83.32.67.25.58.18.5.08.42v.33l.08.34.17.33.26.33.33.34.33.4.33.5.33.6.33.66.25.6.16.5.1.4v.34l.07.33.18.33.25.34.33.33.25.33.18.34.08.33v.33l.08.34.17.33.26.33.33.34.24.33.17.33.1.34v.33l.16.42.33.5.5.58.66.67.5.66.33.67.16.67v1.66h1.33v.84l.08.4.16.5.25.6.33.66.25.6.16.5.1.4v.34l.07.33.18.33.25.34.33.33.25.33.18.34.08.33v.83h1.33V490h1.33v.83l.33.6.67.82 1 1.08 1.33 1.34 1.08 1.16.84 1 .58.84.33.66.66.92 1 1.17 1.33 1.4 1.66 1.68 1.25 1.33.84 1 .42.67v.33l.08.34.17.33.26.33.33.34.4.33.5.33.6.34.66.33.5.33.33.34.16.33v.33l.08.34.17.33.26.33.33.34.33.25.33.16.33.1h.33l.5.24.66.5.83.75 1 1 .83.75.67.5.5.25h.83V518h.83l.4.08.5.17.6.25.66.33.58.34.5.33.42.33.33.34.33.25.33.16.33.1h.33l.33.07.33.17.33.25.33.33.42.25.5.17.58.08h1.67v1.33h1.66l.58.1.5.15.4.25.35.34.33.25.33.16.33.1h.33l.33.07.33.17.33.25.33.33.5.25.66.17.83.08h1l.83.08.66.17.5.25.33.33.5.25.66.17.83.08h1l.83.1.67.15.5.25.33.34.42.25.5.16.58.1h1.67V530h3.33l1.08.08.84.17.58.25.33.33.58.25.83.17 1.1.08h1.33l1.08.1.84.15.6.25.32.34.92.25 1.5.16 2.08.1h2.67l2.08.07 1.5.17.93.25.33.33 1.58.25 2.84.17 4.08.08h5.33l4.24-.08 3.17-.17 2.1-.25 1-.33.9-.25.84-.17.75-.08h.66l.83-.1 1-.15 1.16-.25 1.33-.34 1.5-.25 1.66-.16 1.83-.1h2l1.58-.07 1.16-.17.75-.25.33-.33.5-.25.66-.17.83-.08h1l.83-.08.67-.17.5-.25.33-.33.33-.25.33-.17.33-.08h.33l.33-.1.33-.15.33-.25.33-.34.4-.25.5-.16.6-.1h.66l.66-.07.67-.17.66-.25.66-.33.58-.25.5-.17.42-.08h.83v-1.33h.83l.33-.1.33-.15.33-.25.33-.34.33-.25.33-.16.33-.1h.33l.33-.07.33-.17.33-.25.33-.33.33-.25.33-.17.33-.08h.33l.33-.08.33-.17.33-.25.33-.33.33-.25.33-.17.33-.08h.33l.4-.17.5-.33.6-.5.66-.67.58-.5.5-.33.4-.17h.35l.4-.17.5-.33.6-.5.66-.67.5-.58.33-.5.16-.42v-.33l.4-.67.84-1 1.25-1.33 1.66-1.67 1.33-1.4 1-1.18.66-.92.33-.66.33-.6.33-.5.33-.4.33-.34.25-.33.16-.33.1-.34v-.33l.15-.42.33-.5.5-.58.66-.67.5-.58.33-.5.16-.42v-.33l.08-.42.16-.5.25-.58.33-.67.25-.58.16-.5.1-.42v-.33l.07-.33.18-.34.25-.33.33-.33.25-.34.18-.33.08-.33v-.34l.08-.5.17-.66.26-.84.33-1 .33-.9.33-.85.33-.75.33-.66.33-.5.33-.34.33-.16h.83v-.84l.08-.33.17-.33.26-.34.33-.33.24-.42.17-.5.1-.58v-.67l.08-.58.16-.5.25-.42.33-.33.25-.42.16-.5.1-.58v-.67l.07-.66.18-.67.25-.67.33-.66.25-.75.18-.84.08-.9v-1l.08-.93.17-.83.26-.75.33-.67.24-.67.17-.66.1-.67v-.67l.08-.58.16-.5.25-.42.33-.33.25-.33.16-.34.1-.33v-.33l.07-.5.18-.67.25-.83.33-1 .25-1.25.18-1.5.08-1.75v-2l.08-1.6.17-1.15.26-.75.33-.34.24-.75.17-1.16.1-1.6v-2l-.1-1.82-.16-1.67-.25-1.5-.34-1.33-.25-2-.16-2.67-.08-3.33v-4l-.08-3.33-.17-2.67-.24-2-.33-1.33-.42-1.5-.5-1.67-.57-1.83-.67-2-.5-1.75-.33-1.5-.17-1.25v-1l-.08-1-.17-1-.24-1-.33-1-.25-1-.17-1-.07-1v-1l-.1-1.17-.15-1.33-.25-1.5-.34-1.67-.34-1.5-.33-1.33-.34-1.17-.34-1-.25-.92-.16-.83-.08-.75v-.67l-.08-.66-.17-.67-.24-.67-.33-.66-.25-.84-.17-1-.07-1.16v-1.34l-.1-1.16-.15-1-.25-.84-.34-.66-.34-.6-.33-.5-.34-.4-.34-.34-.25-.5-.16-.66-.08-.84v-1l-.08-.83-.17-.67-.24-.5-.33-.33-.25-.42-.17-.5-.07-.58v-1.67h-1.34v-2.5l-.1-.83-.16-.67-.25-.5-.34-.33-.25-.67-.16-1-.08-1.33v-1.67l.08-1.4.17-1.18.26-.92.33-.66.24-1.6.17-2.5.1-3.4v-10.84h-1.34v-1.66l-.08-.6-.17-.5-.24-.4-.33-.34-.25-.33-.17-.33-.07-.34V322h-1.34v-.83l-.17-.42-.34-.5-.5-.58-.67-.67-.5-.58-.34-.5-.17-.42v-.33l-.1-.34-.15-.33-.25-.33-.34-.34-.34-.25-.33-.16-.34-.1h-.84v-.82l-.08-.33-.17-.34-.24-.33-.33-.33-.42-.25-.5-.17-.57-.08h-.67l-.58-.1-.5-.15-.42-.25-.33-.34-.42-.25-.5-.16-.57-.1h-.67l-.75-.07-.82-.17-.92-.25-1-.33-1.17-.33-1.34-.34-1.5-.33-1.67-.33-2.1-.25-2.5-.17-2.9-.08h-3.34l-2.58-.1-1.84-.15-1.08-.25-.33-.34-.92-.25-1.5-.16-2.07-.1h-2.67l-2.25.1-1.82.16-1.42.25-1 .34-.92.25-.83.16-.74.1h-.67l-.84.07-1 .17-1.17.25-1.34.33-1.17.25-1 .17-.84.08h-.67l-.76.08-.83.17-.9.25-1 .33-.84.25-.67.17-.5.08h-.34l-.33.1-.34.15-.34.25-.33.34-.42.25-.5.16-.57.1h-.67l-.67.07-.67.17-.67.25-.67.33-.76.25-.83.17-.9.08h-1l-1.1.08-1.16.17-1.25.25-1.34.33-1.17.25-1 .17-.84.08h-.67l-.6.1-.5.15-.4.25-.34.34-1.17.25-2 .16-2.84.1h-3.67l-3 .07-2.34.17-1.67.25-1 .33-1.42.25-1.84.17-2.25.08h-2.67l-2.1.08-1.5.17-.9.25-.34.33-2.34.25-4.33.17-6.34.08h-8.34l-6.42-.08-4.5-.17-2.58-.25-.67-.33-.84-.25-1-.17-1.17-.08h-1.34l-1.17-.08-1-.17-.84-.25-.67-.33-1-.25-1.34-.17-1.67-.08h-5v-1.34h-1.67l-.67-.08-.67-.17-.67-.25-.67-.33-.67-.25-.67-.17-.67-.08h-.67l-.84-.08-1-.17-1.17-.25-1.34-.33-1.08-.34-.84-.33-.58-.33-.33-.34-.5-.25-.67-.16-.83-.1h-1l-.84-.07-.67-.17-.5-.25-.34-.33-.6-.33-.82-.34-1.1-.33-1.32-.33-1.17-.34-1-.33-.84-.33-.67-.34-.6-.33-.5-.33-.4-.34-.34-.33-.42-.25-.5-.17-.58-.08h-.67l-.67-.17-.67-.33-.67-.5-.67-.67-.67-.5-.67-.33-.67-.17h-.67l-.58-.08-.5-.17-.42-.25-.33-.33-.34-.25-.34-.17-.33-.08h-.34l-.34-.08-.33-.17-.34-.25-.34-.33-.33-.25-.34-.17-.34-.08h-.83v-1.34h-.84l-.34-.08-.33-.17-.34-.25-.34-.33-.33-.25-.34-.17-.34-.08h-.83v-.83l-.1-.34-.15-.33-.25-.33-.34-.34-.34-.25-.33-.16-.34-.1h-.34l-.33-.07-.34-.17-.34-.25-.33-.33-.34-.25-.34-.17-.33-.08h-.84v-1.33h-.84l-.33-.1-.34-.15-.34-.25-.33-.34-.42-.25-.5-.16-.57-.1h-.67l-.83-.15-1-.34-1.17-.5-1.33-.66-1.25-.67-1.17-.67-1.07-.66-1-.67-1.1-.67-1.15-.66-1.25-.67-1.34-.67-1.1-.5-.82-.33-.6-.17h-.32l-.42-.16-.5-.34-.58-.5-.67-.66-.6-.5-.5-.34-.4-.16h-.34l-.33-.1-.34-.15-.34-.25-.33-.34-.34-.25-.34-.16-.33-.1h-.34l-.34-.07-.33-.17-.34-.25-.34-.33-.25-.33-.16-.34-.08-.33v-.83h-.83l-.34-.1-.34-.15-.33-.25-.34-.34-.34-.25-.33-.16-.34-.1h-.84V274h-1.33v-1.33h-.84l-.42-.17-.5-.33-.6-.5-.65-.67-.5-.58-.34-.5-.17-.42v-.83h-.84l-.42-.17-.5-.33-.6-.5-.65-.67-.5-.58-.34-.5-.17-.42v-.33l-.17-.42-.33-.5-.5-.58-.67-.67-.5-.58-.33-.5-.17-.42v-.33l-.17-.42-.34-.5-.5-.58-.67-.67-.5-.58-.34-.5-.17-.42v-.33l-.1-.34-.16-.33-.25-.33-.34-.34-.25-.33-.16-.33-.08-.34V254h-1.33v-.83l-.1-.34-.15-.33-.25-.33-.34-.34-.26-.33-.16-.33-.1-.34v-.33l-.15-.42-.34-.5-.5-.58-.67-.67-.5-.58-.34-.5-.17-.42V246h-1.34v-1.67l-.17-.66-.34-.67-.5-.67-.67-.66-.5-.6-.34-.5-.17-.4v-.34l-.1-.4-.15-.5-.25-.6-.34-.66-.26-.6-.16-.5-.1-.4v-.84h-1.32v-.83l-.08-.33-.17-.34-.24-.33-.33-.33-.25-.34-.17-.33-.07-.33v-.34l-.1-.33-.15-.33-.25-.34-.34-.33-.26-.33-.16-.34-.1-.33v-.83h-1.32v-.84l-.17-.4-.34-.5-.5-.6-.67-.66-.5-.6-.34-.5-.17-.4v-.34l-.26-.5-.5-.66-.75-.84-1-1-.76-.83-.5-.67-.25-.5v-.33l-.26-.5-.5-.67-.75-.83-1-1-.76-.83-.5-.67-.25-.5v-.33l-.1-.34-.16-.33-.25-.33-.34-.34-.33-.4-.34-.5-.34-.6-.33-.66-.42-.67-.5-.67-.57-.66-.67-.67-.5-.58-.33-.5-.17-.42v-.83h-1.33v-.84l-.1-.33-.15-.33-.25-.34-.34-.33-.26-.33-.16-.34-.1-.33v-.83h-.82l-.75-.5-1.16-1-1.58-1.5-2-2-1.58-1.5-1.17-1-.74-.5h-.83v-1.34h-.84l-.34-.16-.33-.34-.34-.5-.34-.66-.42-.6-.5-.5-.58-.4-.67-.34-.67-.4-.67-.5-.67-.6-.67-.66-.67-.6-.67-.5-.67-.4-.67-.34-.75-.33-.82-.33-.92-.34-1-.33-.83-.33-.67-.34-.5-.33-.33-.33-.34-.25-.34-.17-.33-.08h-.34l-.42-.17-.5-.33-.6-.5-.65-.67-.6-.5-.5-.33-.4-.17h-.84v-1.33h-.84l-.33-.1-.34-.15-.34-.25-.33-.34-.42-.25-.5-.16-.57-.1h-.67l-.75-.07-.82-.17-.92-.25-1-.33-1.92-.25-2.83-.17-3.74-.08H654.2v1.33h-2.5l-1.26.25-1.5.5-1.75.75-2 1-1.67.75-1.34.5-1 .25h-.67l-.6.1-.5.15-.4.25-.34.34-.42.25-.5.16-.6.1h-1.65V182h-.84l-.34.08-.33.17-.34.25-.34.33-.33.25-.34.17-.34.08h-.83v1.34h-1.34V186h-.84l-.42.17-.5.33-.58.5-.67.67-.6.5-.5.33-.4.17h-.84V190h-1.33v.83l-.1.34-.15.33-.25.33-.34.34-.26.33-.16.33-.1.34v.83h-1.32v.83l-.08.34-.17.33-.24.33-.33.34-.25.33-.17.33-.07.34v.33l-.1.33-.15.34-.25.33-.34.33-.26.42-.16.5-.1.58V202h-1.32v2.67h-1.33v1.66l-.1.6-.15.5-.25.4-.34.34-.26.33-.16.33-.1.34v.33l-.07.33-.16.34-.25.33-.34.33-.25.5-.16.67-.08.83v2.5h-1.33v4h-1.34v4.17l-.1 1.33-.16 1-.25.67-.34.33-.25 1.84-.16 3.33-.08 4.83v6.34l.08 4.83.17 3.33.26 1.84.33.33.24.75.17 1.17.1 1.58v2l.08 1.58.16 1.17.25.75.33.33.25.6.16.82.1 1.08v1.34l.07 1.08.18.83.25.6.33.32.25.5.18.67.08.83v1l.08.83.17.67.26.5.33.33.24.75.17 1.17.1 1.58v2l.08 1.6.16 1.15.25.75.33.34.25 1.75.16 3.16.1 4.6v6l-.1 4.57-.16 3.17-.25 1.75-.34.33-.26.42-.16.5-.1.58v.67l-.07.58-.16.5-.25.42-.34.33-.25.42-.16.5-.08.58v1.67h-1.33v2.5l-.1.83-.15.67-.25.5-.34.33-.26.33-.16.34-.1.33v.83h-1.32V325l-.08.58-.17.5-.24.42-.33.33-.25.42-.17.5-.07.58V330h-1.34v2.67h-1.34V334h-1.33v1.33h-1.34v1.34h-1.34v.83l-.25.5-.5.67-.74.83-1 1-.75.83-.5.67-.24.5v.83h-.83l-.34.1-.34.15-.33.25-.34.34-.34.25-.33.16-.34.1h-.34l-.5.24-.67.5-.84.75-1 1-.83.75-.67.5-.5.25h-.83v2.66h-1.34v1.34h-1.34v2.66h-8V354" stroke="#fc9432" stroke-width="4" stroke-linecap="round" stroke-linejoin="round" fill="none"/><path d="M647.53 287.33l-2.5-3.33-.84-1-.67-.67-.5-.33h-.84v-.83l-.1-.34-.16-.33-.25-.33-.34-.34-.25-.33-.16-.33-.08-.34V278h-1.33v-1.67l-.17-.66-.33-.67-.5-.67-.67-.66-.5-.6-.33-.5-.17-.4v-.34l-.08-.33-.17-.33-.24-.34-.33-.33-.25-.5-.17-.67-.07-.83v-1l-.1-.83-.15-.67-.25-.5-.34-.33-.26-.42-.16-.5-.1-.58V263l-.07-.58-.16-.5-.25-.42-.34-.33-.25-.5-.16-.67-.08-.83v-1l-.08-.84-.17-.66-.24-.5-.33-.34-.25-.4-.17-.5-.07-.6v-.66l-.1-.6-.15-.5-.25-.4-.34-.34-.26-1.66-.16-3-.1-4.34v-5.66l.1-4.34.16-3 .25-1.66.33-.34.25-.5.16-.66.1-.84v-2.5h1.32v-2.66h1.33v-4h1.33v-.84l.08-.33.18-.33.25-.34.33-.33.33-.25.33-.17.33-.08h.83v-1.33h.83l.33-.1.33-.15.33-.25.33-.34.42-.25.5-.16.58-.1h.67l.58-.07.5-.17.43-.25.33-.33.33-.25.33-.17.33-.08h.83v-1.33h9.16l3 .08 2.33.17 1.66.25 1 .33.83.25.66.17.5.08h.83v1.33h2.66v.84l.08.33.17.33.26.34.33.33.33.25.33.17.33.08h.33l.33.08.33.17.33.25.33.33.25.34.18.33.08.33v.34l.17.4.33.5.5.6.67.66.66.6.66.5.67.4.66.34.66.4.67.5.66.6.66.66.58.5.5.34.42.16h.83v.84l.4.66.84 1 1.25 1.34 1.66 1.66 1.25 1.34.84 1 .42.66v.84h1.33v.83l.08.33.16.34.25.33.33.33.25.34.16.33.1.33v.84h1.32v.83l.08.33.17.34.26.33.33.33.24.34.17.33.1.33v.34l.16.4.33.5.5.6.66.66.5.6.33.5.16.4v.34l.17.4.33.5.5.6.67.66.5.6.33.5.17.4v.84h1.33V250h.83l.4.17.5.33.6.5.66.67.58.66.5.67.42.67.33.66.4.67.5.67.6.66.66.67.5.58.33.5.16.42v.33l.17.42.33.5.5.58.67.67.5.58.33.5.17.42v.83h1.33V266h.83l.4.17.5.33.6.5.66.67.5.58.33.5.16.42v.83h1.33v.83l.08.34.16.33.25.33.33.34.4.33.5.33.6.34.66.33.58.33.5.34.4.33.35.33.4.34.5.33.6.33.66.34.83.58 1 .83 1.16 1.1 1.33 1.32 1.33 1.25 1.33 1.17 1.33 1.08 1.33 1 1.33 1.08 1.33 1.17 1.33 1.25 1.33 1.33 1.08 1 .83.67.6.33h.83v1.34h.83l.33.08.33.17.33.25.33.33.33.25.33.17.33.08h.83v1.33h.83l.42.17.5.33.58.5.67.67.58.5.5.33.43.17h.33l.42.17.5.33.58.5.67.67.83.66 1 .67 1.17.67 1.33.66 1.25.67 1.18.67 1.08.66 1 .67 1.17.67 1.33.66 1.5.67 1.67.67 1.4.66 1.18.67.93.67.66.66.74.67.84.67.9.66 1 .67.93.58.84.5.75.42.66.33.75.42.84.5.92.58 1 .67.92.58.83.5.76.42.67.33.66.42.66.5.67.58.66.67.83.67 1 .66 1.16.67 1.33.67 1.5.83 1.66 1 1.83 1.17 2 1.33 2 1.25 2 1.17 2 1.08 2 1 1.75.92 1.5.83 1.25.75 1 .67 1.08.75 1.18.83 1.25.92 1.33 1 1.67 1.08 2 1.17 2.33 1.25 2.67 1.33 2.08 1.08 1.5.84.93.58.33.33.5.34.67.33.83.33 1 .34 1.58.66 2.17 1 2.76 1.34 3.33 1.66 2.58 1.25 1.83.84 1.1.4h.83v1.35h.83l.33.08.33.17.33.25.33.33.66.25 1 .17 1.33.08h1.66l1.33.08 1 .17.66.25.33.33.4.25.5.17.6.08h.66l.83.17 1 .33 1.16.5 1.33.67 1.24.5 1.17.33 1.1.17h1l1.08.08 1.16.17 1.25.25 1.33.33 1.4.25 1.5.17 1.6.08h1.66l1.33.1 1 .15.66.25.33.34 1.08.25 1.84.16 2.6.1h3.32l2.67.07 2 .17 1.33.25.67.33.75.25.83.17.93.08h1l1.08.08 1.18.17 1.25.25 1.33.33 1.42.25 1.5.17 1.58.08h1.67l1.58.1 1.5.15 1.43.25 1.33.34 1.42.33 1.5.33 1.58.34 1.67.33 1.66.25 1.66.17 1.67.08h1.66l1.5.08 1.33.17 1.16.25 1 .33 1.16.25 1.33.17 1.5.08h1.66l1.33.1 1 .15.66.25.33.34.4.25.5.16.6.1h.66l1 .15 1.33.34 1.66.5 2 .66 1.83.6 1.66.5 1.5.4 1.33.34 1.16.25 1 .16.83.1h.66l.58.07.5.17.42.25.33.33.33.25.33.17.33.08h.33l.33.08.33.17.33.25.33.33.33.25.33.17.33.08h.33l.33.1.33.15.33.25.33.34.33.25.33.16.33.1h.83v.82l.08.33.17.34.26.33.67.67 1 1 .33.25.33.16.33.1h.83v.82l.17.42.33.5.5.58.67.67.5.58.33.5.17.42v.83h1.33v.83l.08.34.17.33.26.33.33.34.24.4.17.5.1.6v1.66h.83l.33.1.33.15.33.25.33.34.25.33.18.33.08.34v.33l.08.33.17.34.26.33.33.33.24.42.17.5.1.58v.67l.08.58.16.5.25.42.33.33.25.42.16.5.1.58v.67l.32 1.17.67 1.66 1 2.17 1.33 2.67 1 2.25.67 1.83.33 1.42v1l.08 1 .17 1 .26 1 .33 1 .24.9.17.85.1.75v.66l.08.67.16.67.25.66.33.67.25 1.17.16 1.66.1 2.17v2.67l-.1 2.08-.16 1.5-.25.92-.34.33-.26.5-.16.67-.1.83v1l-.07.83-.16.67-.25.5-.34.33-.25.34-.16.33-.08.33v.34l-.08.4-.17.5-.24.6-.33.66-.34.5-.34.34-.33.16h-.84v.84l-.1.33-.16.33-.25.34-.34.33-.33.42-.34.5-.34.58-.33.67-.42.58-.5.5-.57.42-.67.33-.5.33-.33.34-.17.33v.33l-.08.34-.17.33-.24.33-.33.34-.34.25-.34.16-.33.1h-.34l-.5.24-.67.5-.84.75-1 1-.84.75-.67.5-.5.25h-.34l-.42.08-.5.17-.58.25-.67.33-.6.33-.5.34-.4.33-.34.33-.58.25-.84.17-1.08.08h-1.33l-1.17.1-1 .15-.83.25-.67.34-1.67.25-2.67.16-3.67.1h-4.67l-3.67-.1-2.67-.16-1.67-.25-.67-.34-.67-.25-.67-.16-.67-.1h-1.67V466h-.83l-.5-.25-.67-.5-.83-.75-1-1-.84-.75-.67-.5-.5-.25h-.84v-1.33h-1.34v-.84l-.08-.33-.17-.33-.24-.34-.33-.33-.34-.25-.34-.17-.33-.08h-.84v-2.67h-1.34v-.83l-.17-.42-.34-.5-.5-.58-.67-.67-.6-.66-.5-.67-.4-.67-.34-.66-.42-.67-.5-.67-.58-.66-.67-.67-.6-.67-.5-.66-.4-.67-.34-.67-.33-.58-.34-.5-.34-.42-.33-.33-.25-.33-.17-.34-.07-.33v-.33l-.1-.34-.15-.33-.25-.33-.34-.34-.26-.33-.16-.33-.1-.34v-.33l-.15-.42-.34-.5-.5-.58-.67-.67-.5-.58-.34-.5-.17-.42v-.33l-.1-.33-.15-.34-.25-.33-.34-.33-.34-.25-.33-.17-.34-.08h-.34l-.33-.17-.34-.33-.34-.5-.33-.67-.34-.58-.34-.5-.33-.42-.34-.33-.34-.42-.33-.5-.34-.58-.34-.67-1.25-1.5-2.16-2.33-3.08-3.17-4-4-3.08-3-2.17-2-1.24-1h-.33l-.42-.17-.5-.33-.57-.5-.67-.67-.58-.5-.5-.33-.42-.17h-.33l-.34-.08-.34-.17-.33-.25-.34-.33-.42-.33-.5-.34-.6-.33-.65-.33-.6-.34-.5-.33-.4-.33-.34-.34-.42-.33-.5-.33-.6-.34-.65-.33-.6-.33-.5-.34-.4-.33-.34-.33-.6-.42-.82-.5-1.1-.58-1.32-.67-1.17-.67-1-.66-.84-.67-.67-.67-.67-.58-.67-.5-.67-.42-.67-.33-.84-.5-1-.67-1.17-.83-1.34-1-1.67-1.08-2-1.17-2.34-1.25-2.67-1.33-3.1-1.67-3.5-2-3.9-2.33-4.34-2.67-3.6-2.08-2.82-1.5-2.1-.92-1.32-.33-1.25-.42-1.16-.5-1.08-.58-1-.67-1.75-1-2.5-1.33-3.24-1.67-4-2-3.67-1.75-3.34-1.5-3-1.25-2.67-1-2.76-.92-2.83-.83-2.9-.75-3-.67-2.67-.66-2.34-.67-2-.67-1.67-.66-1.6-.67-1.5-.67-1.4-.66-1.34-.67-1.26-.5-1.16-.33-1.1-.17h-1l-.82-.08-.67-.17-.5-.25-.34-.33-.42-.34-.5-.33-.58-.33-.67-.34-.67-.25-.67-.16-.67-.1h-.67l-.6-.07-.5-.17-.4-.25-.34-.33-.5-.25-.67-.17-.84-.08h-1l-.84-.08-.67-.17-.5-.25-.34-.33-.58-.34-.84-.33-1.08-.33-1.33-.34-1.42-.33-1.5-.33-1.57-.34-1.67-.33-1.58-.42-1.5-.5-1.42-.58-1.33-.67-1.1-.5-.82-.33-.57-.17h-.34l-.42-.16-.5-.34-.6-.5-.65-.66-.67-.5-.67-.34-.67-.16h-.67l-.75-.1-.82-.15-.92-.25-1-.34-1.08-.4-1.17-.5-1.24-.6-1.33-.66-1.1-.5-.82-.34-.57-.16h-.84v-1.34h-1.67l-.6-.08-.5-.17-.4-.25-.34-.33-.34-.25-.33-.17-.34-.08h-.34l-.42-.08-.5-.17-.58-.25-.67-.33-.67-.25-.67-.17-.67-.08h-.67l-.6-.1-.5-.15-.4-.25-.34-.34-.42-.33-.5-.33-.6-.34-.65-.33-.67-.25-.67-.17-.67-.08h-1.67v-1.33h-.83l-.34-.1-.34-.15-.33-.25-.34-.34-.34-.25-.33-.16-.34-.1h-.34l-.33-.07-.34-.17-.34-.25-.33-.33-.34-.25-.34-.17-.33-.08h-.34l-.42-.08-.5-.17-.6-.25-.65-.33-.6-.25-.5-.17-.4-.08h-.34l-.34-.1-.33-.15-.34-.25-.34-.34-.42-.33-.5-.33-.58-.34-.67-.33-.6-.33-.5-.34-.4-.33-.34-.33-.5-.34-.67-.33-.84-.33-1-.34-1.08-.4-1.17-.5-1.24-.6-1.33-.66-1.1-.5-.82-.34-.57-.16h-.34l-.34-.1-.33-.15-.34-.25-.34-.34-.33-.25-.34-.16-.34-.1h-.33l-.34-.07-.34-.17-.33-.25-.34-.33-.34-.25-.33-.17-.34-.08h-.34l-.33-.08-.34-.17-.34-.25-.33-.33-.34-.25-.34-.17-.33-.08h-.84v-1.34h-.84l-.33-.08-.34-.17-.34-.25-.33-.33-.42-.25-.5-.17-.57-.08h-1.67v-1.33h-.83l-.34-.1-.34-.15-.33-.25-.34-.34-.34-.25-.33-.16-.34-.1h-.84V302h-.83l-.34-.08-.34-.17-.33-.25-.34-.33-.34-.25-.33-.17-.34-.08h-.84v-1.34h-1.33V298h-1.67l-.58-.17-.5-.33-.42-.5-.33-.67-.34-.5-.34-.33-.33-.17h-.34l-.5-.25-.67-.5-.84-.75-1-1-.84-.75-.67-.5-.5-.25h-.84V290h-.83l-.42-.17-.5-.33-.57-.5-.67-.67-.67-.5-.67-.33-.67-.17h-1.67V286h-1.34" stroke="#fcce14" stroke-width="4" stroke-linecap="round" stroke-linejoin="round" fill="none"/><path d="M1151.53 186a6 6 0 0 1 6-6h126.28a6 6 0 0 1 6 6v24.7a6 6 0 0 1-6 6h-126.27a6 6 0 0 1-6-6z" fill="none"/><use xlink:href="#a" transform="matrix(1,0,0,1,1156.5258641975306,185.00999999999993) translate(0 17.944444444444443)"/><use xlink:href="#b" transform="matrix(1,0,0,1,1156.5258641975306,185.00999999999993) translate(37.03703703703704 17.944444444444443)"/><use xlink:href="#c" transform="matrix(1,0,0,1,1156.5258641975306,185.00999999999993) translate(86.35802469135803 17.944444444444443)"/><path d="M1151.53 260.83a6 6 0 0 1 6-6h107.76a6 6 0 0 1 6 6v24.68a6 6 0 0 1-6 6h-107.77a6 6 0 0 1-6-6z" fill="none"/><use xlink:href="#d" transform="matrix(1,0,0,1,1156.5258641975306,259.8308333333334) translate(0 17.944444444444443)"/><use xlink:href="#b" transform="matrix(1,0,0,1,1156.5258641975306,259.8308333333334) translate(18.51851851851852 17.944444444444443)"/><use xlink:href="#c" transform="matrix(1,0,0,1,1156.5258641975306,259.8308333333334) translate(67.8395061728395 17.944444444444443)"/><path d="M1151.53 341.66a6 6 0 0 1 6-6h107.76a6 6 0 0 1 6 6v24.68a6 6 0 0 1-6 6h-107.77a6 6 0 0 1-6-6z" fill="none"/><use xlink:href="#e" transform="matrix(1,0,0,1,1156.5258641975306,340.6616666666668) translate(0 17.944444444444443)"/><use xlink:href="#b" transform="matrix(1,0,0,1,1156.5258641975306,340.6616666666668) translate(18.51851851851852 17.944444444444443)"/><use xlink:href="#c" transform="matrix(1,0,0,1,1156.5258641975306,340.6616666666668) translate(67.8395061728395 17.944444444444443)"/><path d="M1150.6 197.06l-120.7 51.06" stroke="#cc4e00" stroke-width="2" stroke-linejoin="round" fill="none"/><path d="M1150.58 197.07l.94-.4" stroke="#cc4e00" stroke-width="2" fill="none"/><path d="M1015.84 254.07l11.33-9.82 3.6 8.53z" stroke="#cc4e00" stroke-width="2" fill="#cc4e00"/><path d="M1153.28 270.43l-150.33 70.4" stroke="#fc9432" stroke-width="2" stroke-linejoin="round" fill="none"/><path d="M1153.26 270.44l.93-.44" stroke="#fc9432" stroke-width="2" fill="none"/><path d="M989.12 347.3l10.96-10.25 3.93 8.4z" stroke="#fc9432" stroke-width="2" fill="#fc9432"/><path d="M1149.26 353.05L987.33 419" stroke="#fcce14" stroke-width="2" stroke-linejoin="round" fill="none"/><path d="M1149.24 353.06l.95-.4" stroke="#fcce14" stroke-width="2" fill="none"/><path d="M973.2 424.78l11.45-9.68 3.5 8.6z" stroke="#fcce14" stroke-width="2" fill="#fcce14"/><defs><path fill="#333" d="M101-251c68 0 85 55 85 127S166 4 100 4C33 4 14-52 14-124c0-73 17-127 87-127zm-1 229c47 0 54-49 54-102s-4-102-53-102c-51 0-55 48-55 102 0 53 5 102 54 102" id="f"/><path fill="#333" d="M33 0v-38h34V0H33" id="g"/><path fill="#333" d="M54-142c48-35 137-8 131 61C196 18 31 33 14-55l32-4c7 23 22 37 52 37 35-1 51-22 54-58 4-55-73-65-99-34H22l8-134h141v27H59" id="h"/><g id="a"><use transform="matrix(0.06172839506172839,0,0,0.06172839506172839,0,0)" xlink:href="#f"/><use transform="matrix(0.06172839506172839,0,0,0.06172839506172839,12.345679012345679,0)" xlink:href="#g"/><use transform="matrix(0.06172839506172839,0,0,0.06172839506172839,18.51851851851852,0)" xlink:href="#h"/></g><path fill="#333" d="M115-194c55 1 70 41 70 98S169 2 115 4C84 4 66-9 55-30l1 105H24l-1-265h31l2 30c10-21 28-34 59-34zm-8 174c40 0 45-34 45-75s-6-73-45-74c-42 0-51 32-51 76 0 43 10 73 51 73" id="i"/><path fill="#333" d="M210-169c-67 3-38 105-44 169h-31v-121c0-29-5-50-35-48C34-165 62-65 56 0H25l-1-190h30c1 10-1 24 2 32 10-44 99-50 107 0 11-21 27-35 58-36 85-2 47 119 55 194h-31v-121c0-29-5-49-35-48" id="j"/><g id="b"><use transform="matrix(0.06172839506172839,0,0,0.06172839506172839,0,0)" xlink:href="#i"/><use transform="matrix(0.06172839506172839,0,0,0.06172839506172839,12.345679012345679,0)" xlink:href="#i"/><use transform="matrix(0.06172839506172839,0,0,0.06172839506172839,24.691358024691358,0)" xlink:href="#j"/></g><path fill="#333" d="M177-190C167-65 218 103 67 71c-23-6-38-20-44-43l32-5c15 47 100 32 89-28v-30C133-14 115 1 83 1 29 1 15-40 15-95c0-56 16-97 71-98 29-1 48 16 59 35 1-10 0-23 2-32h30zM94-22c36 0 50-32 50-73 0-42-14-75-50-75-39 0-46 34-46 75s6 73 46 73" id="k"/><path fill="#333" d="M100-194c62-1 85 37 85 99 1 63-27 99-86 99S16-35 15-95c0-66 28-99 85-99zM99-20c44 1 53-31 53-75 0-43-8-75-51-75s-53 32-53 75 10 74 51 75" id="l"/><path fill="#333" d="M24 0v-261h32V0H24" id="m"/><path fill="#333" d="M85-194c31 0 48 13 60 33l-1-100h32l1 261h-30c-2-10 0-23-3-31C134-8 116 4 85 4 32 4 16-35 15-94c0-66 23-100 70-100zm9 24c-40 0-46 34-46 75 0 40 6 74 45 74 42 0 51-32 51-76 0-42-9-74-50-73" id="n"/><g id="c"><use transform="matrix(0.06172839506172839,0,0,0.06172839506172839,0,0)" xlink:href="#k"/><use transform="matrix(0.06172839506172839,0,0,0.06172839506172839,12.345679012345679,0)" xlink:href="#l"/><use transform="matrix(0.06172839506172839,0,0,0.06172839506172839,24.691358024691358,0)" xlink:href="#m"/><use transform="matrix(0.06172839506172839,0,0,0.06172839506172839,29.5679012345679,0)" xlink:href="#n"/></g><path fill="#333" d="M27 0v-27h64v-190l-56 39v-29l58-41h29v221h61V0H27" id="o"/><use transform="matrix(0.06172839506172839,0,0,0.06172839506172839,0,0)" xlink:href="#o" id="d"/><path fill="#333" d="M101-251c82-7 93 87 43 132L82-64C71-53 59-42 53-27h129V0H18c2-99 128-94 128-182 0-28-16-43-45-43s-46 15-49 41l-32-3c6-41 34-60 81-64" id="p"/><use transform="matrix(0.06172839506172839,0,0,0.06172839506172839,0,0)" xlink:href="#p" id="e"/></defs></g></svg>