<svg xmlns="http://www.w3.org/2000/svg" xmlns:xlink="http://www.w3.org/1999/xlink" xmlns:lucid="lucid" width="1508.67" height="614"><g transform="translate(-598.0000000000776 107.16666666666674)" lucid:page-tab-id="0_0"><path d="M500-500h2000V500H500z" fill="#fff"/><path d="M1373.33-14.17c0 22.1-61.48 40-137.33 40-75.85 0-137.33-17.9-137.33-40s61.48-40 137.33-40c75.85 0 137.33 17.9 137.33 40z" stroke="#3a414a" fill-opacity="0"/><use xlink:href="#a" transform="matrix(1,0,0,1,1103.666666666686,-49.16666666666674) translate(104.19944444444445 39.24305555555556)"/><path d="M1225.33 144.5c0 22.1-61.48 40-137.33 40-75.85 0-137.33-17.9-137.33-40s61.48-40 137.33-40c75.85 0 137.33 17.9 137.33 40z" stroke="#3a414a" fill-opacity="0"/><use xlink:href="#b" transform="matrix(1,0,0,1,955.6666666666863,109.49999999999991) translate(60.30129629629629 39.24305555555556)"/><path d="M932 144.5c0 22.1-61.5 40-137.33 40-75.85 0-137.34-17.9-137.34-40s61.5-40 137.34-40S932 122.4 932 144.5z" stroke="#3a414a" fill-opacity="0"/><use xlink:href="#c" transform="matrix(1,0,0,1,662.333333333314,109.49999999999991) translate(98.05438271604939 39.24305555555556)"/><path d="M1373.33 446.83c0 22.1-61.48 40-137.33 40-75.85 0-137.33-17.9-137.33-40s61.48-40 137.33-40c75.85 0 137.33 17.9 137.33 40z" stroke="#3a414a" fill-opacity="0"/><use xlink:href="#d" transform="matrix(1,0,0,1,1103.666666666686,411.83333333333337) translate(41.08524691358024 39.24305555555556)"/><use xlink:href="#e" transform="matrix(1,0,0,1,1103.666666666686,411.83333333333337) translate(156.51734567901235 39.24305555555556)"/><path d="M1150.7 414.57l-253.57-228.5" stroke="#3a414a" fill="none"/><path d="M1151.68 414.78l-1.2.26-.12-.1.67-.75z" stroke="#3a414a" stroke-width=".05" fill="#3a414a"/><path d="M886.16 176.2l13.7 6.1-6.2 6.88z" stroke="#3a414a" fill="#3a414a"/><path d="M1202.18 407.16l-106.7-207.6" stroke="#3a414a" fill="none"/><path d="M1202.95 407.56l-1.08.1-.14-.28.9-.46z" stroke="#3a414a" stroke-width=".05" fill="#3a414a"/><path d="M1088.74 186.44l10.64 10.57-8.24 4.25z" stroke="#3a414a" fill="#3a414a"/><path d="M1144.13 107.03l38.4-68.72" stroke="#3a414a" fill="none"/><path d="M1144.57 107.27l-.16.28-1.05-.16.35-.62z" stroke="#3a414a" stroke-width=".05" fill="#3a414a"/><path d="M1189.74 25.42l-2.92 14.7-8.1-4.5z" stroke="#3a414a" fill="#3a414a"/><path d="M706.67-57.17c0 8.84-17.02 16-38 16-21 0-38-7.16-38-16 0-8.83 17-16 38-16 20.98 0 38 7.17 38 16z" stroke="#3a414a" fill-opacity="0"/><path d="M724-81.17a6 6 0 0 1 6-6h214.67a6 6 0 0 1 6 6v56.67a6 6 0 0 1-6 6H730a6 6 0 0 1-6-6z" stroke="#000" stroke-opacity="0" fill="#fff" fill-opacity="0"/><use xlink:href="#f" transform="matrix(1,0,0,1,729.0000000000196,-82.16666666666674) translate(0 32.659722222222214)"/><use xlink:href="#g" transform="matrix(1,0,0,1,729.0000000000196,-82.16666666666674) translate(78.91358024691354 32.659722222222214)"/><use xlink:href="#h" transform="matrix(1,0,0,1,729.0000000000196,-82.16666666666674) translate(119.99999999999994 32.659722222222214)"/><path d="M861.68 108.85l240.05-96.4" stroke="#3a414a" fill="none"/><path d="M861.8 109.13l-1.56-.23 1.27-.52z" stroke="#3a414a" stroke-width=".05" fill="#3a414a"/><path d="M1115.43 6.93l-11.5 9.62-3.47-8.6z" stroke="#3a414a" fill="#3a414a"/><path d="M1518.67 144.5c0 22.1-61.5 40-137.34 40S1244 166.6 1244 144.5s61.5-40 137.33-40c75.85 0 137.34 17.9 137.34 40z" stroke="#3a414a" fill-opacity="0"/><use xlink:href="#i" transform="matrix(1,0,0,1,1249.0000000000587,109.49999999999991) translate(99.75191358024692 39.24305555555556)"/><path d="M1812 285.5c0 22.1-61.5 40-137.33 40-75.85 0-137.34-17.9-137.34-40s61.5-40 137.34-40 137.33 17.9 137.33 40z" stroke="#3a414a" fill-opacity="0"/><use xlink:href="#j" transform="matrix(1,0,0,1,1542.3333333334308,250.5000000000387) translate(89.90623456790125 39.24305555555556)"/><path d="M1812 144.5c0 22.1-61.5 40-137.33 40-75.85 0-137.34-17.9-137.34-40s61.5-40 137.34-40 137.33 17.9 137.33 40z" stroke="#3a414a" fill-opacity="0"/><use xlink:href="#k" transform="matrix(1,0,0,1,1542.3333333334308,109.49999999999991) translate(98.05438271604939 39.24305555555556)"/><path d="M1262.8 406.7l28.25-73.88" stroke="#3a414a" fill="none"/><path d="M1263.3 406.87l-.14.34-1.05-.06.25-.62z" stroke="#3a414a" stroke-width=".05" fill="#3a414a"/><path d="M1296.32 319.02l-.77 14.98-8.66-3.3z" stroke="#3a414a" fill="#3a414a"/><path d="M1320.62 414.58l244.97-93.53" stroke="#3a414a" fill="none"/><path d="M1320.75 414.9l-1.47-.35 1.17-.45z" stroke="#3a414a" stroke-width=".05" fill="#3a414a"/><path d="M1579.4 315.78l-11.7 9.42-3.3-8.66z" stroke="#3a414a" fill="#3a414a"/><path d="M1674.67 244.5v-43.12" stroke="#3a414a" fill="none"/><path d="M1675.17 245h-1v-.5h1z" stroke="#3a414a" stroke-width=".05" fill="#3a414a"/><path d="M1674.67 186.62l4.63 14.26h-9.27z" stroke="#3a414a" fill="#3a414a"/><path d="M1590.9 112.06l-250.62-89.73" stroke="#3a414a" fill="none"/><path d="M1592.3 112.03l-1.53.33.28-.77z" stroke="#3a414a" stroke-width=".05" fill="#3a414a"/><path d="M1326.38 17.35l15 .45-3.13 8.73z" stroke="#3a414a" fill="#3a414a"/><path d="M1317.92 108.05l-37-68.86" stroke="#3a414a" fill="none"/><path d="M1318.68 108.4l-1.04.18-.17-.3.88-.48z" stroke="#3a414a" stroke-width=".05" fill="#3a414a"/><path d="M1273.94 26.2l10.84 10.36-8.17 4.4z" stroke="#3a414a" fill="#3a414a"/><path d="M1518.67 285.5c0 22.1-61.5 40-137.34 40S1244 307.6 1244 285.5s61.5-40 137.33-40c75.85 0 137.34 17.9 137.34 40z" stroke="#3a414a" fill-opacity="0"/><use xlink:href="#l" transform="matrix(1,0,0,1,1249.0000000000587,250.50000000003877) translate(55.61611111111112 39.24305555555556)"/><path d="M1381.33 244.5v-43.12" stroke="#3a414a" fill="none"/><path d="M1381.83 245h-1v-.5h1z" stroke="#3a414a" stroke-width=".05" fill="#3a414a"/><path d="M1381.33 186.62l4.64 14.26h-9.27z" stroke="#3a414a" fill="#3a414a"/><path d="M1278.82 257.9l-75.2-75.2" stroke="#3a414a" fill="none"/><path d="M1279.72 258.08l-.83.25-.26.1-.18-.2.7-.7z" stroke="#3a414a" stroke-width=".05" fill="#3a414a"/><path d="M1193.2 172.25l13.35 6.8-6.55 6.57z" stroke="#3a414a" fill="#3a414a"/><path d="M706.17 12h-65.8M706.15 12h.52" stroke="#3a414a" fill="none"/><path d="M625.62 12l14.26-4.63v9.27z" stroke="#3a414a" fill="#3a414a"/><path d="M724-6.83a6 6 0 0 1 6-6h66.67a6 6 0 0 1 6 6v35.5a6 6 0 0 1-6 6H730a6 6 0 0 1-6-6z" stroke="#000" stroke-opacity="0" fill="#fff" fill-opacity="0"/><use xlink:href="#m" transform="matrix(1,0,0,1,729.0000000000196,-7.8333333333334) translate(0.5000000000000071 23.72222222222222)"/><use xlink:href="#n" transform="matrix(1,0,0,1,729.0000000000196,-7.8333333333334) translate(53.685185185185176 23.72222222222222)"/><path d="M1858.67-67.17a6 6 0 0 1 6-6h68a6 6 0 0 1 6 6v270.5a6 6 0 0 1-6 6h-68a6 6 0 0 1-6-6z" fill="none"/><path d="M1858.67 209.33c5.52 0 10-4.47 10-10V78.08c0-5.52 4.47-10 10-10-5.53 0-10-4.47-10-10V-63.17c0-5.52-4.48-10-10-10" stroke="#3a414a" fill="none"/><use xlink:href="#o" transform="matrix(1,0,0,1,1893.6666666666279,-68.1666666667056) translate(0 127.61111111111111)"/><use xlink:href="#p" transform="matrix(1,0,0,1,1893.6666666666279,-68.1666666667056) translate(0 154.27777777777777)"/><path d="M1858.67 243.42a6 6 0 0 1 6-6h216a6 6 0 0 1 6 6v96.08a6 6 0 0 1-6 6h-216a6 6 0 0 1-6-6z" fill="none"/><path d="M1858.67 345.5c5.52 0 10-4.48 10-10v-34.04c0-5.52 4.47-10 10-10-5.53 0-10-4.48-10-10v-34.04c0-5.53-4.48-10-10-10" stroke="#3a414a" fill="none"/><g><use xlink:href="#q" transform="matrix(1,0,0,1,1893.6666666666279,242.41666666662786) translate(0 40.611111111111114)"/><use xlink:href="#r" transform="matrix(1,0,0,1,1893.6666666666279,242.41666666662786) translate(104.7530864197531 40.611111111111114)"/><use xlink:href="#s" transform="matrix(1,0,0,1,1893.6666666666279,242.41666666662786) translate(130.6172839506173 40.611111111111114)"/><use xlink:href="#p" transform="matrix(1,0,0,1,1893.6666666666279,242.41666666662786) translate(0 67.27777777777777)"/></g><defs><path fill="#3a414a" d="M140-251c81 0 123 46 123 126C263-46 219 4 140 4 59 4 17-45 17-125s42-126 123-126zm0 227c63 0 89-41 89-101s-29-99-89-99c-61 0-89 39-89 99S79-25 140-24" id="t"/><path fill="#3a414a" d="M266 0h-40l-56-210L115 0H75L2-248h35L96-30l15-64 43-154h32l59 218 59-218h35" id="u"/><path fill="#3a414a" d="M30 0v-248h33v221h125V0H30" id="v"/><g id="a"><use transform="matrix(0.06790123456790123,0,0,0.06790123456790123,0,0)" xlink:href="#t"/><use transform="matrix(0.06790123456790123,0,0,0.06790123456790123,19.012345679012345,0)" xlink:href="#u"/><use transform="matrix(0.06790123456790123,0,0,0.06790123456790123,42.03086419753086,0)" xlink:href="#v"/></g><path fill="#3a414a" d="M143 4C61 4 22-44 18-125c-5-107 100-154 193-111 17 8 29 25 37 43l-32 9c-13-25-37-40-76-40-61 0-88 39-88 99 0 61 29 100 91 101 35 0 62-11 79-27v-45h-74v-28h105v86C228-13 192 4 143 4" id="w"/><path fill="#3a414a" d="M100-194c63 0 86 42 84 106H49c0 40 14 67 53 68 26 1 43-12 49-29l28 8c-11 28-37 45-77 45C44 4 14-33 15-96c1-61 26-98 85-98zm52 81c6-60-76-77-97-28-3 7-6 17-6 28h103" id="x"/><path fill="#3a414a" d="M100-194c62-1 85 37 85 99 1 63-27 99-86 99S16-35 15-95c0-66 28-99 85-99zM99-20c44 1 53-31 53-75 0-43-8-75-51-75s-53 32-53 75 10 74 51 75" id="y"/><path fill="#3a414a" d="M185-189c-5-48-123-54-124 2 14 75 158 14 163 119 3 78-121 87-175 55-17-10-28-26-33-46l33-7c5 56 141 63 141-1 0-78-155-14-162-118-5-82 145-84 179-34 5 7 8 16 11 25" id="z"/><path fill="#3a414a" d="M30-248c87 1 191-15 191 75 0 78-77 80-158 76V0H30v-248zm33 125c57 0 124 11 124-50 0-59-68-47-124-48v98" id="A"/><path fill="#3a414a" d="M205 0l-28-72H64L36 0H1l101-248h38L239 0h-34zm-38-99l-47-123c-12 45-31 82-46 123h93" id="B"/><path fill="#3a414a" d="M233-177c-1 41-23 64-60 70L243 0h-38l-65-103H63V0H30v-248c88 3 205-21 203 71zM63-129c60-2 137 13 137-47 0-61-80-42-137-45v92" id="C"/><path fill="#3a414a" d="M140-251c81 0 123 46 123 126C263-53 228-8 163 1c7 30 30 48 69 40v23c-55 16-95-15-103-61C56-3 17-48 17-125c0-80 42-126 123-126zm0 227c63 0 89-41 89-101s-29-99-89-99c-61 0-89 39-89 99S79-25 140-24" id="D"/><g id="b"><use transform="matrix(0.06790123456790123,0,0,0.06790123456790123,0,0)" xlink:href="#w"/><use transform="matrix(0.06790123456790123,0,0,0.06790123456790123,19.012345679012345,0)" xlink:href="#x"/><use transform="matrix(0.06790123456790123,0,0,0.06790123456790123,32.592592592592595,0)" xlink:href="#y"/><use transform="matrix(0.06790123456790123,0,0,0.06790123456790123,46.17283950617284,0)" xlink:href="#z"/><use transform="matrix(0.06790123456790123,0,0,0.06790123456790123,62.46913580246914,0)" xlink:href="#A"/><use transform="matrix(0.06790123456790123,0,0,0.06790123456790123,76.9320987654321,0)" xlink:href="#B"/><use transform="matrix(0.06790123456790123,0,0,0.06790123456790123,93.22839506172839,0)" xlink:href="#C"/><use transform="matrix(0.06790123456790123,0,0,0.06790123456790123,110.81481481481481,0)" xlink:href="#D"/><use transform="matrix(0.06790123456790123,0,0,0.06790123456790123,129.82716049382717,0)" xlink:href="#v"/></g><g id="c"><use transform="matrix(0.06790123456790123,0,0,0.06790123456790123,0,0)" xlink:href="#z"/><use transform="matrix(0.06790123456790123,0,0,0.06790123456790123,16.296296296296294,0)" xlink:href="#t"/><use transform="matrix(0.06790123456790123,0,0,0.06790123456790123,35.30864197530864,0)" xlink:href="#z"/><use transform="matrix(0.06790123456790123,0,0,0.06790123456790123,51.60493827160494,0)" xlink:href="#B"/></g><path fill="#3a414a" d="M160-131c35 5 61 23 61 61C221 17 115-2 30 0v-248c76 3 177-17 177 60 0 33-19 50-47 57zm-97-11c50-1 110 9 110-42 0-47-63-36-110-37v79zm0 115c55-2 124 14 124-45 0-56-70-42-124-44v89" id="E"/><path fill="#3a414a" d="M141-36C126-15 110 5 73 4 37 3 15-17 15-53c-1-64 63-63 125-63 3-35-9-54-41-54-24 1-41 7-42 31l-33-3c5-37 33-52 76-52 45 0 72 20 72 64v82c-1 20 7 32 28 27v20c-31 9-61-2-59-35zM48-53c0 20 12 33 32 33 41-3 63-29 60-74-43 2-92-5-92 41" id="F"/><path fill="#3a414a" d="M96-169c-40 0-48 33-48 73s9 75 48 75c24 0 41-14 43-38l32 2c-6 37-31 61-74 61-59 0-76-41-82-99-10-93 101-131 147-64 4 7 5 14 7 22l-32 3c-4-21-16-35-41-35" id="G"/><path fill="#3a414a" d="M143 0L79-87 56-68V0H24v-261h32v163l83-92h37l-77 82L181 0h-38" id="H"/><path fill="#3a414a" d="M115-194c53 0 69 39 70 98 0 66-23 100-70 100C84 3 66-7 56-30L54 0H23l1-261h32v101c10-23 28-34 59-34zm-8 174c40 0 45-34 45-75 0-40-5-75-45-74-42 0-51 32-51 76 0 43 10 73 51 73" id="I"/><path fill="#3a414a" d="M117-194c89-4 53 116 60 194h-32v-121c0-31-8-49-39-48C34-167 62-67 57 0H25l-1-190h30c1 10-1 24 2 32 11-22 29-35 61-36" id="J"/><g id="d"><use transform="matrix(0.06790123456790123,0,0,0.06790123456790123,0,0)" xlink:href="#E"/><use transform="matrix(0.06790123456790123,0,0,0.06790123456790123,16.296296296296294,0)" xlink:href="#F"/><use transform="matrix(0.06790123456790123,0,0,0.06790123456790123,29.87654320987654,0)" xlink:href="#G"/><use transform="matrix(0.06790123456790123,0,0,0.06790123456790123,42.09876543209876,0)" xlink:href="#H"/><use transform="matrix(0.06790123456790123,0,0,0.06790123456790123,54.32098765432098,0)" xlink:href="#I"/><use transform="matrix(0.06790123456790123,0,0,0.06790123456790123,67.90123456790123,0)" xlink:href="#y"/><use transform="matrix(0.06790123456790123,0,0,0.06790123456790123,81.48148148148147,0)" xlink:href="#J"/><use transform="matrix(0.06790123456790123,0,0,0.06790123456790123,95.06172839506172,0)" xlink:href="#x"/></g><path fill="#3a414a" d="M240 0l2-218c-23 76-54 145-80 218h-23L58-218 59 0H30v-248h44l77 211c21-75 51-140 76-211h43V0h-30" id="K"/><path fill="#3a414a" d="M85-194c31 0 48 13 60 33l-1-100h32l1 261h-30c-2-10 0-23-3-31C134-8 116 4 85 4 32 4 16-35 15-94c0-66 23-100 70-100zm9 24c-40 0-46 34-46 75 0 40 6 74 45 74 42 0 51-32 51-76 0-42-9-74-50-73" id="L"/><path fill="#3a414a" d="M24 0v-261h32V0H24" id="M"/><g id="e"><use transform="matrix(0.06790123456790123,0,0,0.06790123456790123,0,0)" xlink:href="#K"/><use transform="matrix(0.06790123456790123,0,0,0.06790123456790123,20.30246913580247,0)" xlink:href="#y"/><use transform="matrix(0.06790123456790123,0,0,0.06790123456790123,33.882716049382715,0)" xlink:href="#L"/><use transform="matrix(0.06790123456790123,0,0,0.06790123456790123,47.46296296296296,0)" xlink:href="#x"/><use transform="matrix(0.06790123456790123,0,0,0.06790123456790123,61.04320987654321,0)" xlink:href="#M"/></g><path fill="#3a414a" d="M210-169c-67 3-38 105-44 169h-31v-121c0-29-5-50-35-48C34-165 62-65 56 0H25l-1-190h30c1 10-1 24 2 32 10-44 99-50 107 0 11-21 27-35 58-36 85-2 47 119 55 194h-31v-121c0-29-5-49-35-48" id="N"/><path fill="#3a414a" d="M59-47c-2 24 18 29 38 22v24C64 9 27 4 27-40v-127H5v-23h24l9-43h21v43h35v23H59v120" id="O"/><path fill="#3a414a" d="M24-231v-30h32v30H24zM24 0v-190h32V0H24" id="P"/><g id="f"><use transform="matrix(0.0493827160493827,0,0,0.0493827160493827,0,0)" xlink:href="#z"/><use transform="matrix(0.0493827160493827,0,0,0.0493827160493827,11.851851851851848,0)" xlink:href="#x"/><use transform="matrix(0.0493827160493827,0,0,0.0493827160493827,21.728395061728385,0)" xlink:href="#N"/><use transform="matrix(0.0493827160493827,0,0,0.0493827160493827,36.49382716049381,0)" xlink:href="#F"/><use transform="matrix(0.0493827160493827,0,0,0.0493827160493827,46.370370370370345,0)" xlink:href="#J"/><use transform="matrix(0.0493827160493827,0,0,0.0493827160493827,56.24691358024688,0)" xlink:href="#O"/><use transform="matrix(0.0493827160493827,0,0,0.0493827160493827,61.185185185185155,0)" xlink:href="#P"/><use transform="matrix(0.0493827160493827,0,0,0.0493827160493827,65.08641975308639,0)" xlink:href="#G"/></g><g id="g"><use transform="matrix(0.0493827160493827,0,0,0.0493827160493827,0,0)" xlink:href="#u"/><use transform="matrix(0.0493827160493827,0,0,0.0493827160493827,16.395061728395053,0)" xlink:href="#x"/><use transform="matrix(0.0493827160493827,0,0,0.0493827160493827,26.271604938271597,0)" xlink:href="#I"/></g><g id="h"><use transform="matrix(0.0493827160493827,0,0,0.0493827160493827,0,0)" xlink:href="#K"/><use transform="matrix(0.0493827160493827,0,0,0.0493827160493827,14.765432098765427,0)" xlink:href="#y"/><use transform="matrix(0.0493827160493827,0,0,0.0493827160493827,24.641975308641968,0)" xlink:href="#L"/><use transform="matrix(0.0493827160493827,0,0,0.0493827160493827,34.518518518518505,0)" xlink:href="#x"/><use transform="matrix(0.0493827160493827,0,0,0.0493827160493827,44.39506172839504,0)" xlink:href="#M"/></g><path fill="#3a414a" d="M30-248c118-7 216 8 213 122C240-48 200 0 122 0H30v-248zM63-27c89 8 146-16 146-99s-60-101-146-95v194" id="Q"/><path fill="#3a414a" d="M212-179c-10-28-35-45-73-45-59 0-87 40-87 99 0 60 29 101 89 101 43 0 62-24 78-52l27 14C228-24 195 4 139 4 59 4 22-46 18-125c-6-104 99-153 187-111 19 9 31 26 39 46" id="R"/><path fill="#3a414a" d="M127-220V0H93v-220H8v-28h204v28h-85" id="S"/><g id="i"><use transform="matrix(0.06790123456790123,0,0,0.06790123456790123,0,0)" xlink:href="#Q"/><use transform="matrix(0.06790123456790123,0,0,0.06790123456790123,17.586419753086417,0)" xlink:href="#R"/><use transform="matrix(0.06790123456790123,0,0,0.06790123456790123,35.172839506172835,0)" xlink:href="#B"/><use transform="matrix(0.06790123456790123,0,0,0.06790123456790123,49.6358024691358,0)" xlink:href="#S"/></g><path fill="#3a414a" d="M137 0h-34L2-248h35l83 218 83-218h36" id="T"/><path fill="#3a414a" d="M84 4C-5 8 30-112 23-190h32v120c0 31 7 50 39 49 72-2 45-101 50-169h31l1 190h-30c-1-10 1-25-2-33-11 22-28 36-60 37" id="U"/><g id="j"><use transform="matrix(0.06790123456790123,0,0,0.06790123456790123,0,0)" xlink:href="#T"/><use transform="matrix(0.06790123456790123,0,0,0.06790123456790123,14.938271604938269,0)" xlink:href="#y"/><use transform="matrix(0.06790123456790123,0,0,0.06790123456790123,28.518518518518515,0)" xlink:href="#G"/><use transform="matrix(0.06790123456790123,0,0,0.06790123456790123,40.74074074074073,0)" xlink:href="#A"/><use transform="matrix(0.06790123456790123,0,0,0.06790123456790123,57.037037037037024,0)" xlink:href="#U"/><use transform="matrix(0.06790123456790123,0,0,0.06790123456790123,70.61728395061726,0)" xlink:href="#I"/></g><path fill="#3a414a" d="M194 0L95-120 63-95V0H30v-248h33v124l119-124h40L117-140 236 0h-42" id="V"/><g id="k"><use transform="matrix(0.06790123456790123,0,0,0.06790123456790123,0,0)" xlink:href="#z"/><use transform="matrix(0.06790123456790123,0,0,0.06790123456790123,16.296296296296294,0)" xlink:href="#V"/><use transform="matrix(0.06790123456790123,0,0,0.06790123456790123,32.59259259259259,0)" xlink:href="#t"/><use transform="matrix(0.06790123456790123,0,0,0.06790123456790123,51.60493827160494,0)" xlink:href="#z"/></g><path fill="#3a414a" d="M135-143c-3-34-86-38-87 0 15 53 115 12 119 90S17 21 10-45l28-5c4 36 97 45 98 0-10-56-113-15-118-90-4-57 82-63 122-42 12 7 21 19 24 35" id="W"/><g id="l"><use transform="matrix(0.06790123456790123,0,0,0.06790123456790123,0,0)" xlink:href="#B"/><use transform="matrix(0.06790123456790123,0,0,0.06790123456790123,16.296296296296294,0)" xlink:href="#U"/><use transform="matrix(0.06790123456790123,0,0,0.06790123456790123,29.87654320987654,0)" xlink:href="#W"/><use transform="matrix(0.06790123456790123,0,0,0.06790123456790123,42.09876543209876,0)" xlink:href="#w"/><use transform="matrix(0.06790123456790123,0,0,0.06790123456790123,61.1111111111111,0)" xlink:href="#x"/><use transform="matrix(0.06790123456790123,0,0,0.06790123456790123,74.69135802469134,0)" xlink:href="#y"/><use transform="matrix(0.06790123456790123,0,0,0.06790123456790123,88.2716049382716,0)" xlink:href="#Q"/><use transform="matrix(0.06790123456790123,0,0,0.06790123456790123,105.85802469135803,0)" xlink:href="#R"/><use transform="matrix(0.06790123456790123,0,0,0.06790123456790123,123.44444444444443,0)" xlink:href="#B"/><use transform="matrix(0.06790123456790123,0,0,0.06790123456790123,137.9074074074074,0)" xlink:href="#S"/></g><path fill="#3a414a" d="M115-194c55 1 70 41 70 98S169 2 115 4C84 4 66-9 55-30l1 105H24l-1-265h31l2 30c10-21 28-34 59-34zm-8 174c40 0 45-34 45-75s-6-73-45-74c-42 0-51 32-51 76 0 43 10 73 51 73" id="X"/><path fill="#3a414a" d="M114-163C36-179 61-72 57 0H25l-1-190h30c1 12-1 29 2 39 6-27 23-49 58-41v29" id="Y"/><path fill="#3a414a" d="M101-234c-31-9-42 10-38 44h38v23H63V0H32v-167H5v-23h27c-7-52 17-82 69-68v24" id="Z"/><g id="m"><use transform="matrix(0.049382716049382706,0,0,0.049382716049382706,0,0)" xlink:href="#X"/><use transform="matrix(0.049382716049382706,0,0,0.049382716049382706,9.87654320987654,0)" xlink:href="#Y"/><use transform="matrix(0.049382716049382706,0,0,0.049382716049382706,15.75308641975308,0)" xlink:href="#y"/><use transform="matrix(0.049382716049382706,0,0,0.049382716049382706,25.629629629629626,0)" xlink:href="#Z"/><use transform="matrix(0.049382716049382706,0,0,0.049382716049382706,30.56790123456789,0)" xlink:href="#P"/><use transform="matrix(0.049382716049382706,0,0,0.049382716049382706,34.469135802469125,0)" xlink:href="#M"/><use transform="matrix(0.049382716049382706,0,0,0.049382716049382706,38.37037037037036,0)" xlink:href="#x"/></g><g id="n"><use transform="matrix(0.049382716049382706,0,0,0.049382716049382706,0,0)" xlink:href="#y"/><use transform="matrix(0.049382716049382706,0,0,0.049382716049382706,9.87654320987654,0)" xlink:href="#Z"/></g><path fill="#3a414a" d="M33 0v-248h34V0H33" id="aa"/><g id="o"><use transform="matrix(0.06172839506172839,0,0,0.06172839506172839,0,0)" xlink:href="#aa"/><use transform="matrix(0.06172839506172839,0,0,0.06172839506172839,6.172839506172839,0)" xlink:href="#J"/><use transform="matrix(0.06172839506172839,0,0,0.06172839506172839,18.51851851851852,0)" xlink:href="#O"/><use transform="matrix(0.06172839506172839,0,0,0.06172839506172839,24.691358024691358,0)" xlink:href="#x"/><use transform="matrix(0.06172839506172839,0,0,0.06172839506172839,37.03703703703704,0)" xlink:href="#J"/><use transform="matrix(0.06172839506172839,0,0,0.06172839506172839,49.382716049382715,0)" xlink:href="#F"/><use transform="matrix(0.06172839506172839,0,0,0.06172839506172839,61.72839506172839,0)" xlink:href="#O"/><use transform="matrix(0.06172839506172839,0,0,0.06172839506172839,67.90123456790123,0)" xlink:href="#P"/><use transform="matrix(0.06172839506172839,0,0,0.06172839506172839,72.77777777777777,0)" xlink:href="#y"/><use transform="matrix(0.06172839506172839,0,0,0.06172839506172839,85.12345679012346,0)" xlink:href="#J"/><use transform="matrix(0.06172839506172839,0,0,0.06172839506172839,97.46913580246914,0)" xlink:href="#F"/><use transform="matrix(0.06172839506172839,0,0,0.06172839506172839,109.81481481481482,0)" xlink:href="#M"/></g><g id="p"><use transform="matrix(0.06172839506172839,0,0,0.06172839506172839,0,0)" xlink:href="#z"/><use transform="matrix(0.06172839506172839,0,0,0.06172839506172839,14.814814814814813,0)" xlink:href="#O"/><use transform="matrix(0.06172839506172839,0,0,0.06172839506172839,20.98765432098765,0)" xlink:href="#F"/><use transform="matrix(0.06172839506172839,0,0,0.06172839506172839,33.33333333333333,0)" xlink:href="#J"/><use transform="matrix(0.06172839506172839,0,0,0.06172839506172839,45.679012345679006,0)" xlink:href="#L"/><use transform="matrix(0.06172839506172839,0,0,0.06172839506172839,58.02469135802468,0)" xlink:href="#F"/><use transform="matrix(0.06172839506172839,0,0,0.06172839506172839,70.37037037037037,0)" xlink:href="#Y"/><use transform="matrix(0.06172839506172839,0,0,0.06172839506172839,77.71604938271605,0)" xlink:href="#L"/><use transform="matrix(0.06172839506172839,0,0,0.06172839506172839,90.06172839506173,0)" xlink:href="#W"/></g><g id="q"><use transform="matrix(0.06172839506172839,0,0,0.06172839506172839,0,0)" xlink:href="#B"/><use transform="matrix(0.06172839506172839,0,0,0.06172839506172839,14.814814814814813,0)" xlink:href="#U"/><use transform="matrix(0.06172839506172839,0,0,0.06172839506172839,27.160493827160494,0)" xlink:href="#W"/><use transform="matrix(0.06172839506172839,0,0,0.06172839506172839,38.27160493827161,0)" xlink:href="#O"/><use transform="matrix(0.06172839506172839,0,0,0.06172839506172839,44.44444444444445,0)" xlink:href="#Y"/><use transform="matrix(0.06172839506172839,0,0,0.06172839506172839,51.79012345679013,0)" xlink:href="#F"/><use transform="matrix(0.06172839506172839,0,0,0.06172839506172839,64.13580246913581,0)" xlink:href="#M"/><use transform="matrix(0.06172839506172839,0,0,0.06172839506172839,69.01234567901236,0)" xlink:href="#P"/><use transform="matrix(0.06172839506172839,0,0,0.06172839506172839,73.8888888888889,0)" xlink:href="#F"/><use transform="matrix(0.06172839506172839,0,0,0.06172839506172839,86.23456790123458,0)" xlink:href="#J"/></g><g id="r"><use transform="matrix(0.06172839506172839,0,0,0.06172839506172839,0,0)" xlink:href="#y"/><use transform="matrix(0.06172839506172839,0,0,0.06172839506172839,12.345679012345679,0)" xlink:href="#Y"/></g><g id="s"><use transform="matrix(0.06172839506172839,0,0,0.06172839506172839,0,0)" xlink:href="#M"/><use transform="matrix(0.06172839506172839,0,0,0.06172839506172839,4.876543209876543,0)" xlink:href="#y"/><use transform="matrix(0.06172839506172839,0,0,0.06172839506172839,17.22222222222222,0)" xlink:href="#G"/><use transform="matrix(0.06172839506172839,0,0,0.06172839506172839,28.333333333333332,0)" xlink:href="#F"/><use transform="matrix(0.06172839506172839,0,0,0.06172839506172839,40.67901234567901,0)" xlink:href="#M"/></g></defs></g></svg>