<svg xmlns="http://www.w3.org/2000/svg" xmlns:xlink="http://www.w3.org/1999/xlink" xmlns:lucid="lucid" width="712" height="388.67"><g transform="translate(12 9.333333333333357)" lucid:page-tab-id="OuLIRlQ7-Nxa"><path d="M0 0h794.04v576.87H0z" fill="#fff"/><path d="M194.68 15.67a5 5 0 0 1 5-5h20.12a5 5 0 0 1 5 5v4.53a5 5 0 0 1-5 5h-20.12a5 5 0 0 1-5-5z" stroke="#000" stroke-opacity="0" stroke-width="2" fill="#fff"/><path d="M210.05 196.32l-.73 2.3-1.5 4.08-1.62 3.95-1.78 3.84-1.94 3.76-2.1 3.7-2.3 3.64-2.46 3.6-2.7 3.6-2.93 3.6-3.2 3.6-3.53 3.63-3.88 3.7-4.32 3.76-4.84 3.87-5.5 4.04-6.3 4.26-7.45 4.57-9.13 5.07-12 6.04-20.58 9.24-42.2 18.23-8.36 4.2-5.78 3.23-4.4 2.7-1.8 1.2" stroke="#000" stroke-width="4" stroke-linejoin="round" fill="none"/><path d="M210.04 196.37l.62-1.96M46.8 313.7l-1.7 1.15" stroke="#000" stroke-width="4" fill="none"/><path d="M210.56 27.17l.18 316.83" stroke="#000" stroke-width="4" stroke-linejoin="round" fill="none"/><path d="M212.56 27.22h-4V25.2l4-.02z" stroke="#000" stroke-width=".05"/><path d="M210.74 343.95V346" stroke="#000" stroke-width="4" fill="none"/><path d="M209.78 27.17l.1 5.04.42 6.56.64 6.17.87 5.86 1.08 5.62 1.28 5.46 1.5 5.35 1.72 5.3 1.98 5.33 2.28 5.42 2.64 5.62 3.13 5.97 3.8 6.57 4.88 7.67 7.1 10.18 41.8 56.07 6.92 10.9 5.83 10.1 2.46 4.62" stroke="#000" stroke-width="4" stroke-linejoin="round" fill="none"/><path d="M211.78 27.18l-4 .1-.04-2.1h4z" stroke="#000" stroke-width=".05"/><path d="M300.16 200.92l.97 1.8" stroke="#000" stroke-width="4" fill="none"/><path d="M35.67 28.07h327.36M35.7 28.07h-1.03" stroke="#000" stroke-width="2" fill="none"/><path d="M364.03 29.07H363v-2h1.03z" stroke="#000" stroke-width=".05"/><path d="M263.3 147.7l19.35 93.56M263.32 147.75l-.42-2M282.64 241.2l.4 2.02M353.56 349l-69.4-104.12M353.53 348.96l1.14 1.7M284.2 244.93l-1.15-1.7" stroke="#000" stroke-width="4" fill="none"/><path d="M364 15.67a5 5 0 0 1 5-5h82a5 5 0 0 1 5 5v24.8a5 5 0 0 1-5 5h-82a5 5 0 0 1-5-5z" stroke="#000" stroke-opacity="0" stroke-width="2" fill="#fff" fill-opacity="0"/><use xlink:href="#a" transform="matrix(1,0,0,1,364,10.666666666666643) translate(7.01 19.41)"/><path d="M364 64.93a5 5 0 0 1 5-5h152.67a5 5 0 0 1 5 5v30.14a5 5 0 0 1-5 5H369a5 5 0 0 1-5-5z" stroke="#000" stroke-opacity="0" stroke-width="2" fill="#fff" fill-opacity="0"/><use xlink:href="#b" transform="matrix(1,0,0,1,364.00000000000006,59.93395252837977) translate(5.01 24.65)"/><use xlink:href="#c" transform="matrix(1,0,0,1,364.00000000000006,59.93395252837977) translate(81.91000000000001 24.65)"/><path d="M589.33 162.2a5 5 0 0 1 5-5H675a5 5 0 0 1 5 5V223a5 5 0 0 1-5 5h-80.67a5 5 0 0 1-5-5z" stroke="#000" stroke-opacity="0" stroke-width="2" fill="#fff" fill-opacity="0"/><use xlink:href="#d" transform="matrix(1,0,0,1,589.3333333333335,157.2012383900928) translate(9.554999999999994 27.7125)"/><use xlink:href="#e" transform="matrix(1,0,0,1,589.3333333333335,157.2012383900928) translate(28.255000000000003 49.3125)"/><path d="M8 81.57a5 5 0 0 1 5-5h91.33a5 5 0 0 1 5 5v70.13a5 5 0 0 1-5 5H13a5 5 0 0 1-5-5z" stroke="#000" stroke-opacity="0" stroke-width="2" fill="#fff" fill-opacity="0"/><use xlink:href="#f" transform="matrix(1,0,0,1,8,76.56759545923632) translate(58.05 32.11875)"/><use xlink:href="#g" transform="matrix(1,0,0,1,8,76.56759545923632) translate(25.54999999999999 53.71875)"/><path d="M409.33 171.6a5 5 0 0 1 5-5H563a5 5 0 0 1 5 5v62.13a5 5 0 0 1-5 5H414.33a5 5 0 0 1-5-5z" stroke="#000" stroke-opacity="0" stroke-width="2" fill="#fff" fill-opacity="0"/><use xlink:href="#b" transform="matrix(1,0,0,1,409.3333333333334,166.6006191950464) translate(5.01 30.36875)"/><use xlink:href="#h" transform="matrix(1,0,0,1,409.3333333333334,166.6006191950464) translate(81.91000000000001 30.36875)"/><use xlink:href="#i" transform="matrix(1,0,0,1,409.3333333333334,166.6006191950464) translate(5.01 51.96875)"/><use xlink:href="#j" transform="matrix(1,0,0,1,409.3333333333334,166.6006191950464) translate(80.46000000000001 51.96875)"/><path d="M363.07 79.72l-140-40.55" stroke="#b2b2b2" stroke-width="2" fill="none"/><path d="M364.03 78.96v2.08l-1.26-.36.55-1.93z" stroke="#b2b2b2" stroke-width=".05" fill="#b2b2b2"/><path d="M242.6 34.22l-19.38 5 13.7 14.56" stroke="#b2b2b2" stroke-width="2" fill="none"/><path d="M563.33 20.33a5 5 0 0 1 5-5h23.34a5 5 0 0 1 5 5v334a5 5 0 0 1-5 5h-23.34a5 5 0 0 1-5-5z" fill="none"/><path d="M563.33 359.33c5.53 0 10-4.47 10-10v-152c0-5.52 4.48-10 10-10-5.52 0-10-4.47-10-10v-152c0-5.52-4.47-10-10-10M114.33 128h90.52M114.36 128h-1.03M187.5 138.18L204.7 128l-17.2-10.18M88.25 143.63l32.62 123.95M88.26 143.66l-.26-1M106.6 253.38l14.23 14.05 5.47-19.24" stroke="#b2b2b2" stroke-width="2" fill="none"/><g fill="none"><path d="M295.16 244.75a5 5 0 0 1 1.4-6.93l24.23-16a5 5 0 0 1 6.92 1.4l26.45 40.03a5 5 0 0 1-1.4 6.93l-24.23 16a5 5 0 0 1-6.93-1.4z"/><path d="M324.37 288.95c4.6-3.05 5.87-9.25 2.83-13.86l-4.96-7.5c-3.04-4.62-1.78-10.82 2.83-13.87-4.6 3.05-10.8 1.78-13.86-2.83l-4.94-7.5c-3.05-4.6-9.25-5.87-13.86-2.83" stroke="#b2b2b2" stroke-width="2"/></g><g fill="none"><path d="M329.16 297.4a5 5 0 0 1 1.4-6.92l24.23-16a5 5 0 0 1 6.92 1.4l26.45 40.04a5 5 0 0 1-1.4 6.93l-24.23 16a5 5 0 0 1-6.93-1.4z"/><path d="M358.37 341.6c4.6-3.03 5.87-9.24 2.83-13.84l-4.96-7.5c-3.04-4.6-1.78-10.82 2.83-13.86-4.6 3.04-10.8 1.78-13.86-2.83l-4.94-7.5c-3.05-4.6-9.25-5.87-13.86-2.83" stroke="#b2b2b2" stroke-width="2"/></g><g fill="none"><path d="M301.65 150.85a5 5 0 0 1 4.06-5.8l23.62-4.1a5 5 0 0 1 5.78 4.06l12.6 72.15a5 5 0 0 1-4.08 5.8l-23.6 4.1a5 5 0 0 1-5.8-4.06z"/><path d="M315.1 227.9c5.43-.94 9.07-6.12 8.12-11.56l-3.7-21.3c-.96-5.43 2.68-10.6 8.12-11.56-5.44.95-10.62-2.7-11.57-8.13l-3.7-21.3c-.96-5.43-6.14-9.08-11.58-8.13" stroke="#b2b2b2" stroke-width="2"/></g><g fill="none"><path d="M223.76 71.73a5 5 0 0 1 1.24-6.96l24.3-17a5 5 0 0 1 6.96 1.23l75.98 108.6a5 5 0 0 1-1.24 6.96l-24.3 17a5 5 0 0 1-6.96-1.23z"/><path d="M302.6 184.43c4.54-3.17 5.64-9.4 2.47-13.93l-29.4-42c-3.16-4.53-2.05-10.77 2.47-13.93-4.52 3.16-10.76 2.06-13.92-2.46l-29.4-42c-3.16-4.53-9.4-5.63-13.92-2.46" stroke="#b2b2b2" stroke-width="2"/></g><path d="M403.13 180.83L285.57 112.9M403.1 180.82l.9.5M305.7 112.78l-20 .2 9.8 17.43M405.67 186.67h-69.2M405.64 186.67h1.03M353.85 176.5l-17.22 10.17 17.22 10.18M405.86 195.26l-76.4 55.67M405.84 195.27l.83-.6M337.5 232.48l-7.9 18.36 19.9-1.9M412.88 202.23l-52.06 102.8M412.87 202.25l.46-.92M359.58 284.96l1.3 19.95 16.87-10.75" stroke="#b2b2b2" stroke-width="2" fill="none"/><defs><path d="M185-189c-5-48-123-54-124 2 14 75 158 14 163 119 3 78-121 87-175 55-17-10-28-26-33-46l33-7c5 56 141 63 141-1 0-78-155-14-162-118-5-82 145-84 179-34 5 7 8 16 11 25" id="k"/><path d="M84 4C-5 8 30-112 23-190h32v120c0 31 7 50 39 49 72-2 45-101 50-169h31l1 190h-30c-1-10 1-25-2-33-11 22-28 36-60 37" id="l"/><path d="M114-163C36-179 61-72 57 0H25l-1-190h30c1 12-1 29 2 39 6-27 23-49 58-41v29" id="m"/><path d="M101-234c-31-9-42 10-38 44h38v23H63V0H32v-167H5v-23h27c-7-52 17-82 69-68v24" id="n"/><path d="M141-36C126-15 110 5 73 4 37 3 15-17 15-53c-1-64 63-63 125-63 3-35-9-54-41-54-24 1-41 7-42 31l-33-3c5-37 33-52 76-52 45 0 72 20 72 64v82c-1 20 7 32 28 27v20c-31 9-61-2-59-35zM48-53c0 20 12 33 32 33 41-3 63-29 60-74-43 2-92-5-92 41" id="o"/><path d="M96-169c-40 0-48 33-48 73s9 75 48 75c24 0 41-14 43-38l32 2c-6 37-31 61-74 61-59 0-76-41-82-99-10-93 101-131 147-64 4 7 5 14 7 22l-32 3c-4-21-16-35-41-35" id="p"/><path d="M100-194c63 0 86 42 84 106H49c0 40 14 67 53 68 26 1 43-12 49-29l28 8c-11 28-37 45-77 45C44 4 14-33 15-96c1-61 26-98 85-98zm52 81c6-60-76-77-97-28-3 7-6 17-6 28h103" id="q"/><g id="a"><use transform="matrix(0.05,0,0,0.05,0,0)" xlink:href="#k"/><use transform="matrix(0.05,0,0,0.05,12,0)" xlink:href="#l"/><use transform="matrix(0.05,0,0,0.05,22,0)" xlink:href="#m"/><use transform="matrix(0.05,0,0,0.05,27.950000000000003,0)" xlink:href="#n"/><use transform="matrix(0.05,0,0,0.05,32.95,0)" xlink:href="#o"/><use transform="matrix(0.05,0,0,0.05,42.95,0)" xlink:href="#p"/><use transform="matrix(0.05,0,0,0.05,51.95,0)" xlink:href="#q"/></g><path d="M160-131c35 5 61 23 61 61C221 17 115-2 30 0v-248c76 3 177-17 177 60 0 33-19 50-47 57zm-97-11c50-1 110 9 110-42 0-47-63-36-110-37v79zm0 115c55-2 124 14 124-45 0-56-70-42-124-44v89" id="r"/><path d="M100-194c62-1 85 37 85 99 1 63-27 99-86 99S16-35 15-95c0-66 28-99 85-99zM99-20c44 1 53-31 53-75 0-43-8-75-51-75s-53 32-53 75 10 74 51 75" id="s"/><path d="M106-169C34-169 62-67 57 0H25v-261h32l-1 103c12-21 28-36 61-36 89 0 53 116 60 194h-32v-121c2-32-8-49-39-48" id="t"/><path d="M24 0v-261h32V0H24" id="u"/><g id="b"><use transform="matrix(0.05,0,0,0.05,0,0)" xlink:href="#r"/><use transform="matrix(0.05,0,0,0.05,12,0)" xlink:href="#s"/><use transform="matrix(0.05,0,0,0.05,22,0)" xlink:href="#m"/><use transform="matrix(0.05,0,0,0.05,27.950000000000003,0)" xlink:href="#q"/><use transform="matrix(0.05,0,0,0.05,37.95,0)" xlink:href="#t"/><use transform="matrix(0.05,0,0,0.05,47.95,0)" xlink:href="#s"/><use transform="matrix(0.05,0,0,0.05,57.95,0)" xlink:href="#u"/><use transform="matrix(0.05,0,0,0.05,61.900000000000006,0)" xlink:href="#q"/></g><path d="M140-251c81 0 123 46 123 126C263-46 219 4 140 4 59 4 17-45 17-125s42-126 123-126zm0 227c63 0 89-41 89-101s-29-99-89-99c-61 0-89 39-89 99S79-25 140-24" id="v"/><path d="M24-231v-30h32v30H24zM24 0v-190h32V0H24" id="w"/><path d="M177-190C167-65 218 103 67 71c-23-6-38-20-44-43l32-5c15 47 100 32 89-28v-30C133-14 115 1 83 1 29 1 15-40 15-95c0-56 16-97 71-98 29-1 48 16 59 35 1-10 0-23 2-32h30zM94-22c36 0 50-32 50-73 0-42-14-75-50-75-39 0-46 34-46 75s6 73 46 73" id="x"/><path d="M117-194c89-4 53 116 60 194h-32v-121c0-31-8-49-39-48C34-167 62-67 57 0H25l-1-190h30c1 10-1 24 2 32 11-22 29-35 61-36" id="y"/><g id="c"><use transform="matrix(0.05,0,0,0.05,0,0)" xlink:href="#v"/><use transform="matrix(0.05,0,0,0.05,14,0)" xlink:href="#m"/><use transform="matrix(0.05,0,0,0.05,19.95,0)" xlink:href="#w"/><use transform="matrix(0.05,0,0,0.05,23.9,0)" xlink:href="#x"/><use transform="matrix(0.05,0,0,0.05,33.9,0)" xlink:href="#w"/><use transform="matrix(0.05,0,0,0.05,37.85,0)" xlink:href="#y"/></g><g id="d"><use transform="matrix(0.05,0,0,0.05,0,0)" xlink:href="#r"/><use transform="matrix(0.05,0,0,0.05,12,0)" xlink:href="#s"/><use transform="matrix(0.05,0,0,0.05,22,0)" xlink:href="#m"/><use transform="matrix(0.05,0,0,0.05,27.950000000000003,0)" xlink:href="#q"/><use transform="matrix(0.05,0,0,0.05,37.95,0)" xlink:href="#t"/><use transform="matrix(0.05,0,0,0.05,47.95,0)" xlink:href="#s"/><use transform="matrix(0.05,0,0,0.05,57.95,0)" xlink:href="#u"/><use transform="matrix(0.05,0,0,0.05,61.900000000000006,0)" xlink:href="#q"/></g><path d="M247 0h-39l-15-214-24 57L95 0H56L31-248h35L82-30l101-218h33l16 218 101-218h35" id="z"/><path d="M111-194c62-3 86 47 72 106H45c-7 38 6 69 45 68 27-1 43-14 53-32l24 11C152-15 129 4 87 4 38 3 12-23 12-71c0-70 32-119 99-123zm44 81c14-66-71-72-95-28-4 8-8 17-11 28h106" id="A"/><path d="M6 0l50-261h32L37 0H6" id="B"/><g id="e"><use transform="matrix(0.05,0,0,0.05,0,0)" xlink:href="#z"/><use transform="matrix(0.05,0,0,0.05,16.599999999999998,0)" xlink:href="#A"/><use transform="matrix(0.05,0,0,0.05,26.599999999999994,0)" xlink:href="#B"/><use transform="matrix(0.05,0,0,0.05,30.549999999999997,0)" xlink:href="#B"/></g><g id="f"><use transform="matrix(0.05,0,0,0.05,0,0)" xlink:href="#r"/><use transform="matrix(0.05,0,0,0.05,12,0)" xlink:href="#s"/><use transform="matrix(0.05,0,0,0.05,22,0)" xlink:href="#m"/><use transform="matrix(0.05,0,0,0.05,27.950000000000003,0)" xlink:href="#q"/></g><path d="M68-162c25-46 127-43 121 31C183-60 169 1 98 4 69 5 53-11 43-31L36 0H5l52-261h31zm88 36c2-27-9-43-34-43-55 0-70 51-70 103 0 29 15 45 43 46 52 0 58-58 61-106" id="C"/><path d="M30-147c31-64 166-65 159 27C183-49 158 1 86 4 9 8 1-88 30-147zM88-20c53 0 68-48 68-100 0-31-11-51-44-50-52 1-68 46-68 97 0 32 13 53 44 53" id="D"/><path d="M66-151c12-25 30-51 66-40l-6 26C45-176 58-65 38 0H6l36-190h30" id="E"/><g id="g"><use transform="matrix(0.05,0,0,0.05,0,0)" xlink:href="#z"/><use transform="matrix(0.05,0,0,0.05,16.599999999999998,0)" xlink:href="#A"/><use transform="matrix(0.05,0,0,0.05,26.599999999999994,0)" xlink:href="#B"/><use transform="matrix(0.05,0,0,0.05,30.549999999999997,0)" xlink:href="#B"/><use transform="matrix(0.05,0,0,0.05,34.5,0)" xlink:href="#C"/><use transform="matrix(0.05,0,0,0.05,44.5,0)" xlink:href="#D"/><use transform="matrix(0.05,0,0,0.05,54.5,0)" xlink:href="#E"/><use transform="matrix(0.05,0,0,0.05,60.45,0)" xlink:href="#A"/></g><path d="M33 0v-248h34V0H33" id="F"/><path d="M59-47c-2 24 18 29 38 22v24C64 9 27 4 27-40v-127H5v-23h24l9-43h21v43h35v23H59v120" id="G"/><path d="M108 0H70L1-190h34L89-25l56-165h34" id="H"/><g id="h"><use transform="matrix(0.05,0,0,0.05,0,0)" xlink:href="#F"/><use transform="matrix(0.05,0,0,0.05,5,0)" xlink:href="#y"/><use transform="matrix(0.05,0,0,0.05,15,0)" xlink:href="#G"/><use transform="matrix(0.05,0,0,0.05,20,0)" xlink:href="#q"/><use transform="matrix(0.05,0,0,0.05,30,0)" xlink:href="#m"/><use transform="matrix(0.05,0,0,0.05,35.95,0)" xlink:href="#H"/><use transform="matrix(0.05,0,0,0.05,44.95,0)" xlink:href="#o"/><use transform="matrix(0.05,0,0,0.05,54.95,0)" xlink:href="#u"/></g><g id="i"><use transform="matrix(0.05,0,0,0.05,0,0)" xlink:href="#z"/><use transform="matrix(0.05,0,0,0.05,16.599999999999998,0)" xlink:href="#A"/><use transform="matrix(0.05,0,0,0.05,26.599999999999994,0)" xlink:href="#B"/><use transform="matrix(0.05,0,0,0.05,30.549999999999997,0)" xlink:href="#B"/><use transform="matrix(0.05,0,0,0.05,34.5,0)" xlink:href="#C"/><use transform="matrix(0.05,0,0,0.05,44.5,0)" xlink:href="#D"/><use transform="matrix(0.05,0,0,0.05,54.5,0)" xlink:href="#E"/><use transform="matrix(0.05,0,0,0.05,60.45,0)" xlink:href="#A"/></g><path d="M14 0l48-248h34L48 0H14" id="I"/><path d="M67-158c22-48 132-52 116 29L158 0h-32l25-140c3-38-53-32-70-12C52-117 51-52 38 0H6l36-190h30" id="J"/><path d="M51-54c-9 22 5 41 31 30L79-1C43 14 10-4 19-52l22-115H19l5-23h22l19-43h21l-9 43h35l-4 23H73" id="K"/><path d="M89 0H52L20-190h33L74-25l89-165h34" id="L"/><path d="M165-48c-4 18 1 34 23 27l-3 20c-29 8-62 0-52-35h-2C116-14 99 4 63 4 30 4 8-16 8-49c0-68 71-67 138-67 10-26 0-56-31-54-26 1-42 9-47 31l-32-5c8-67 160-71 144 15-5 28-9 54-15 81zM42-50c3 52 80 24 89-6 7-12 7-24 11-38-47 1-103-4-100 44" id="M"/><g id="j"><use transform="matrix(0.05,0,0,0.05,0,0)" xlink:href="#I"/><use transform="matrix(0.05,0,0,0.05,5,0)" xlink:href="#J"/><use transform="matrix(0.05,0,0,0.05,15,0)" xlink:href="#K"/><use transform="matrix(0.05,0,0,0.05,20,0)" xlink:href="#A"/><use transform="matrix(0.05,0,0,0.05,30,0)" xlink:href="#E"/><use transform="matrix(0.05,0,0,0.05,35.95,0)" xlink:href="#L"/><use transform="matrix(0.05,0,0,0.05,44.95,0)" xlink:href="#M"/><use transform="matrix(0.05,0,0,0.05,54.95,0)" xlink:href="#B"/></g></defs></g></svg>