<svg xmlns="http://www.w3.org/2000/svg" xmlns:lucid="lucid" width="344" height="327"><g lucid:page-tab-id="0_0"><path d="M-14 0h1870.87v1322.83H-14z" fill="#fff"/><path d="M-14 6a6 6 0 0 1 6-6h368a6 6 0 0 1 6 6v314.67a6 6 0 0 1-6 6H-8a6 6 0 0 1-6-6z" stroke="#282c33" fill="#10797e"/><path d="M34 51.06a6 6 0 0 1 6-6h80a6 6 0 0 1 6 6v93a6 6 0 0 1-6 6H40a6 6 0 0 1-6-6z" stroke="#fff" stroke-width="10" fill-opacity="0"/><path d="M34 82.66h92" stroke="#fff" stroke-width="10" fill="none"/><path d="M222.67 97.5a6 6 0 0 1 6-6h80a6 6 0 0 1 6 6v93a6 6 0 0 1-6 6h-80a6 6 0 0 1-6-6z" stroke="#fff" stroke-width="10" fill-opacity="0"/><path d="M222.67 129.1h92" stroke="#fff" stroke-width="10" fill="none"/><path d="M109.33 188.17a6 6 0 0 1 6-6h80a6 6 0 0 1 6 6v93a6 6 0 0 1-6 6h-80a6 6 0 0 1-6-6z" stroke="#fff" stroke-width="10" fill-opacity="0"/><path d="M109.33 219.77h92" stroke="#fff" stroke-width="10" fill="none"/><path d="M101.87 234.67H86a6 6 0 0 1-6-6v-71.15" stroke="#fff" stroke-width="5" fill="none"/><path d="M104.37 237.17h-2.56v-5h2.57zM82.5 157.6h-5V155h5z" stroke="#fff" stroke-width=".05" fill="#fff"/><path d="M133.48 124H215.2" stroke="#fff" stroke-width="5" fill="none"/><path d="M133.55 126.5H131l-.02-5h2.57zM217.7 126.5h-2.58v-5h2.57z" stroke="#fff" stroke-width=".05" fill="#fff"/></g></svg>