<?xml version="1.0" encoding="UTF-8"?>
<svg xmlns="http://www.w3.org/2000/svg" xmlns:xlink="http://www.w3.org/1999/xlink" width="200" height="600" viewBox="0 0 200 613" version="1.1">
<g id="surface1">
<rect x="0" y="0" width="200" height="613" style="fill:rgb(100%,100%,100%);fill-opacity:1;stroke:none;"/>
<path style=" stroke:none;fill-rule:nonzero;fill:rgb(0%,0%,0%);fill-opacity:1;" d="M 63.433594 514.503906 C 64.753906 514.691406 65.734375 515.371094 65.734375 516.804688 C 65.734375 520.089844 61.734375 519.371094 58.527344 519.449219 L 58.527344 510.085938 C 61.394531 510.199219 65.207031 509.445312 65.207031 512.351562 C 65.207031 513.597656 64.492188 514.238281 63.433594 514.503906 Z M 59.773438 514.085938 C 61.660156 514.050781 63.925781 514.425781 63.925781 512.503906 C 63.925781 510.726562 61.546875 511.144531 59.773438 511.105469 Z M 59.773438 518.429688 C 61.847656 518.351562 64.453125 518.957031 64.453125 516.730469 C 64.453125 514.617188 61.8125 515.144531 59.773438 515.070312 L 59.773438 518.429688 "/>
<path style=" stroke:none;fill-rule:nonzero;fill:rgb(0%,0%,0%);fill-opacity:1;" d="M 67.359375 519.449219 L 67.359375 509.59375 L 68.566406 509.59375 L 68.566406 519.449219 L 67.359375 519.449219 "/>
<path style=" stroke:none;fill-rule:nonzero;fill:rgb(0%,0%,0%);fill-opacity:1;" d="M 74.753906 518.089844 C 74.1875 518.882812 73.585938 519.636719 72.1875 519.597656 C 70.832031 519.5625 70 518.804688 70 517.445312 C 69.960938 515.03125 72.378906 515.070312 74.71875 515.070312 C 74.832031 513.746094 74.378906 513.03125 73.167969 513.03125 C 72.265625 513.066406 71.621094 513.292969 71.585938 514.199219 L 70.339844 514.085938 C 70.527344 512.691406 71.585938 512.125 73.207031 512.125 C 74.90625 512.125 75.925781 512.878906 75.925781 514.539062 L 75.925781 517.636719 C 75.886719 518.390625 76.1875 518.84375 76.980469 518.65625 L 76.980469 519.410156 C 75.8125 519.75 74.679688 519.335938 74.753906 518.089844 Z M 71.246094 517.445312 C 71.246094 518.203125 71.699219 518.691406 72.453125 518.691406 C 74 518.578125 74.832031 517.597656 74.71875 515.898438 C 73.09375 515.976562 71.246094 515.710938 71.246094 517.445312 "/>
<path style=" stroke:none;fill-rule:nonzero;fill:rgb(0%,0%,0%);fill-opacity:1;" d="M 81.394531 512.125 C 84.753906 511.972656 83.394531 516.503906 83.660156 519.449219 L 82.453125 519.449219 L 82.453125 514.878906 C 82.453125 513.710938 82.152344 513.03125 80.980469 513.066406 C 78.265625 513.144531 79.320312 516.917969 79.132812 519.449219 L 77.925781 519.449219 L 77.886719 512.277344 L 79.019531 512.277344 C 79.054688 512.652344 78.980469 513.179688 79.09375 513.484375 C 79.507812 512.652344 80.1875 512.164062 81.394531 512.125 "/>
<path style=" stroke:none;fill-rule:nonzero;fill:rgb(0%,0%,0%);fill-opacity:1;" d="M 89.925781 519.449219 L 87.507812 516.164062 L 86.640625 516.878906 L 86.640625 519.449219 L 85.433594 519.449219 L 85.433594 509.59375 L 86.640625 509.59375 L 86.640625 515.75 L 89.773438 512.277344 L 91.167969 512.277344 L 88.265625 515.371094 L 91.359375 519.449219 L 89.925781 519.449219 "/>
<path style=" stroke:none;fill-rule:nonzero;fill:rgb(0%,0%,0%);fill-opacity:1;" d="M 102.265625 519.449219 L 97.28125 511.484375 L 97.320312 519.449219 L 96.226562 519.449219 L 96.226562 510.085938 L 97.699219 510.085938 L 102.71875 518.125 L 102.640625 510.085938 L 103.8125 510.085938 L 103.8125 519.449219 L 102.265625 519.449219 "/>
<path style=" stroke:none;fill-rule:nonzero;fill:rgb(0%,0%,0%);fill-opacity:1;" d="M 108.640625 512.125 C 110.980469 512.085938 111.847656 513.519531 111.847656 515.863281 C 111.886719 518.238281 110.832031 519.597656 108.605469 519.597656 C 106.378906 519.597656 105.472656 518.125 105.433594 515.863281 C 105.433594 513.371094 106.492188 512.125 108.640625 512.125 Z M 108.605469 518.691406 C 110.265625 518.730469 110.605469 517.523438 110.605469 515.863281 C 110.605469 514.238281 110.300781 513.03125 108.679688 513.03125 C 107.054688 513.03125 106.679688 514.238281 106.679688 515.863281 C 106.679688 517.484375 107.054688 518.65625 108.605469 518.691406 "/>
<path style=" stroke:none;fill-rule:nonzero;fill:rgb(0%,0%,0%);fill-opacity:1;" d="M 115.621094 512.125 C 116.792969 512.125 117.433594 512.617188 117.886719 513.371094 L 117.847656 509.59375 L 119.054688 509.59375 L 119.09375 519.449219 L 117.960938 519.449219 C 117.886719 519.070312 117.960938 518.578125 117.847656 518.277344 C 117.472656 519.144531 116.792969 519.597656 115.621094 519.597656 C 113.621094 519.597656 113.019531 518.125 112.980469 515.898438 C 112.980469 513.40625 113.847656 512.125 115.621094 512.125 Z M 115.960938 513.03125 C 114.453125 513.03125 114.226562 514.3125 114.226562 515.863281 C 114.226562 517.371094 114.453125 518.65625 115.925781 518.65625 C 117.507812 518.65625 117.847656 517.445312 117.847656 515.785156 C 117.847656 514.199219 117.507812 512.992188 115.960938 513.03125 "/>
<path style=" stroke:none;fill-rule:nonzero;fill:rgb(0%,0%,0%);fill-opacity:1;" d="M 123.734375 512.125 C 126.113281 512.125 126.980469 513.710938 126.90625 516.125 L 121.8125 516.125 C 121.8125 517.636719 122.339844 518.65625 123.8125 518.691406 C 124.792969 518.730469 125.433594 518.238281 125.660156 517.597656 L 126.71875 517.898438 C 126.300781 518.957031 125.320312 519.597656 123.8125 519.597656 C 121.621094 519.597656 120.492188 518.203125 120.527344 515.824219 C 120.566406 513.519531 121.507812 512.125 123.734375 512.125 Z M 125.699219 515.183594 C 125.925781 512.917969 122.832031 512.277344 122.039062 514.125 C 121.925781 514.390625 121.8125 514.765625 121.8125 515.183594 L 125.699219 515.183594 "/>
<path style="fill-rule:nonzero;fill:rgb(69.803922%,69.803922%,69.803922%);fill-opacity:1;stroke-width:2;stroke-linecap:butt;stroke-linejoin:miter;stroke:rgb(0%,0%,0%);stroke-opacity:1;stroke-miterlimit:4;" d="M 60.898084 365.899361 C 60.898084 363.136259 63.139198 360.900941 65.897889 360.900941 L 215.902381 360.900941 C 218.661073 360.900941 220.902186 363.136259 220.902186 365.899361 L 220.902186 475.900814 C 220.902186 478.663915 218.661073 480.899233 215.902381 480.899233 L 65.897889 480.899233 C 63.139198 480.899233 60.898084 478.663915 60.898084 475.900814 Z M 60.898084 365.899361 " transform="matrix(0.754717,0,0,0.754926,-13.882693,-15.773855)"/>
<path style=" stroke:none;fill-rule:nonzero;fill:rgb(0%,0%,0%);fill-opacity:1;" d="M 81.699219 291.136719 C 81.585938 289.855469 78.453125 289.703125 78.414062 291.136719 C 78.980469 293.136719 82.753906 291.589844 82.90625 294.535156 C 83.054688 297.480469 77.246094 297.328125 76.980469 294.835938 L 78.039062 294.648438 C 78.1875 296.007812 81.699219 296.347656 81.734375 294.648438 C 81.359375 292.535156 77.472656 294.082031 77.28125 291.25 C 77.132812 289.097656 80.378906 288.871094 81.886719 289.664062 C 82.339844 289.929688 82.679688 290.382812 82.792969 290.984375 "/>
<path style=" stroke:none;fill-rule:nonzero;fill:rgb(0%,0%,0%);fill-opacity:1;" d="M 88.792969 296.535156 L 86.378906 293.25 L 85.507812 293.96875 L 85.507812 296.535156 L 84.300781 296.535156 L 84.300781 286.683594 L 85.507812 286.683594 L 85.507812 292.835938 L 88.640625 289.363281 L 90.039062 289.363281 L 87.132812 292.457031 L 90.226562 296.535156 L 88.792969 296.535156 "/>
<path style=" stroke:none;fill-rule:nonzero;fill:rgb(0%,0%,0%);fill-opacity:1;" d="M 93.960938 289.210938 C 96.300781 289.175781 97.167969 290.609375 97.167969 292.949219 C 97.207031 295.328125 96.152344 296.6875 93.925781 296.6875 C 91.699219 296.6875 90.792969 295.214844 90.753906 292.949219 C 90.753906 290.457031 91.8125 289.210938 93.960938 289.210938 Z M 93.925781 295.78125 C 95.585938 295.816406 95.925781 294.609375 95.925781 292.949219 C 95.925781 291.324219 95.621094 290.117188 94 290.117188 C 92.378906 290.117188 92 291.324219 92 292.949219 C 92 294.570312 92.378906 295.742188 93.925781 295.78125 "/>
<path style=" stroke:none;fill-rule:nonzero;fill:rgb(0%,0%,0%);fill-opacity:1;" d="M 102.832031 291.136719 C 102.71875 289.855469 99.585938 289.703125 99.546875 291.136719 C 100.113281 293.136719 103.886719 291.589844 104.039062 294.535156 C 104.1875 297.480469 98.378906 297.328125 98.113281 294.835938 L 99.167969 294.648438 C 99.320312 296.007812 102.832031 296.347656 102.867188 294.648438 C 102.492188 292.535156 98.605469 294.082031 98.414062 291.25 C 98.265625 289.097656 101.507812 288.871094 103.019531 289.664062 C 103.472656 289.929688 103.8125 290.382812 103.925781 290.984375 "/>
<path style=" stroke:none;fill-rule:nonzero;fill:rgb(0%,0%,0%);fill-opacity:1;" d="M 105.773438 290.722656 L 105.773438 289.363281 L 107.054688 289.363281 L 107.054688 290.722656 Z M 105.773438 296.535156 L 105.773438 295.175781 L 107.054688 295.175781 L 107.054688 296.535156 L 105.773438 296.535156 "/>
<path style=" stroke:none;fill-rule:nonzero;fill:rgb(0%,0%,0%);fill-opacity:1;" d="M 75.1875 306.085938 C 74.8125 305.027344 73.867188 304.386719 72.433594 304.386719 C 70.207031 304.386719 69.152344 305.894531 69.152344 308.125 C 69.152344 310.386719 70.246094 311.933594 72.507812 311.933594 C 74.132812 311.933594 74.847656 311.03125 75.453125 309.972656 L 76.472656 310.5 C 75.792969 311.933594 74.546875 312.992188 72.433594 312.992188 C 69.414062 312.992188 68.019531 311.105469 67.867188 308.125 C 67.640625 304.199219 71.605469 302.347656 74.925781 303.933594 C 75.640625 304.273438 76.09375 304.914062 76.394531 305.667969 "/>
<path style=" stroke:none;fill-rule:nonzero;fill:rgb(0%,0%,0%);fill-opacity:1;" d="M 80.734375 305.519531 C 83.074219 305.480469 83.945312 306.914062 83.945312 309.253906 C 83.980469 311.632812 82.925781 312.992188 80.699219 312.992188 C 78.472656 312.992188 77.566406 311.519531 77.527344 309.253906 C 77.527344 306.765625 78.585938 305.519531 80.734375 305.519531 Z M 80.699219 312.085938 C 82.359375 312.125 82.699219 310.917969 82.699219 309.253906 C 82.699219 307.632812 82.394531 306.425781 80.773438 306.425781 C 79.152344 306.425781 78.773438 307.632812 78.773438 309.253906 C 78.773438 310.878906 79.152344 312.046875 80.699219 312.085938 "/>
<path style=" stroke:none;fill-rule:nonzero;fill:rgb(0%,0%,0%);fill-opacity:1;" d="M 88.925781 305.519531 C 92.28125 305.367188 90.925781 309.898438 91.1875 312.839844 L 89.980469 312.839844 L 89.980469 308.273438 C 89.980469 307.105469 89.679688 306.425781 88.507812 306.460938 C 85.792969 306.539062 86.847656 310.3125 86.660156 312.839844 L 85.453125 312.839844 L 85.414062 305.667969 L 86.546875 305.667969 C 86.585938 306.046875 86.507812 306.574219 86.621094 306.878906 C 87.039062 306.046875 87.71875 305.554688 88.925781 305.519531 "/>
<path style=" stroke:none;fill-rule:nonzero;fill:rgb(0%,0%,0%);fill-opacity:1;" d="M 95.679688 306.460938 C 94.167969 306.460938 93.867188 307.707031 93.867188 309.21875 C 93.867188 310.726562 94.207031 312.046875 95.679688 312.046875 C 96.585938 312.046875 97.226562 311.519531 97.300781 310.613281 L 98.507812 310.691406 C 98.28125 312.085938 97.339844 312.992188 95.71875 312.992188 C 93.492188 312.992188 92.847656 311.445312 92.621094 309.253906 C 92.246094 305.746094 96.433594 304.3125 98.167969 306.839844 C 98.320312 307.105469 98.359375 307.367188 98.433594 307.671875 L 97.226562 307.785156 C 97.074219 306.992188 96.621094 306.460938 95.679688 306.460938 "/>
<path style=" stroke:none;fill-rule:nonzero;fill:rgb(0%,0%,0%);fill-opacity:1;" d="M 102.621094 305.519531 C 105 305.519531 105.867188 307.105469 105.792969 309.519531 L 100.699219 309.519531 C 100.699219 311.03125 101.226562 312.046875 102.699219 312.085938 C 103.679688 312.125 104.320312 311.632812 104.546875 310.992188 L 105.605469 311.292969 C 105.1875 312.351562 104.207031 312.992188 102.699219 312.992188 C 100.507812 312.992188 99.378906 311.597656 99.414062 309.21875 C 99.453125 306.914062 100.394531 305.519531 102.621094 305.519531 Z M 104.585938 308.574219 C 104.8125 306.3125 101.71875 305.667969 100.925781 307.519531 C 100.8125 307.785156 100.699219 308.160156 100.699219 308.574219 L 104.585938 308.574219 "/>
<path style=" stroke:none;fill-rule:nonzero;fill:rgb(0%,0%,0%);fill-opacity:1;" d="M 110.734375 305.519531 C 112.8125 305.554688 113.378906 307.066406 113.378906 309.21875 C 113.378906 311.371094 112.773438 312.917969 110.734375 312.992188 C 109.566406 312.992188 108.886719 312.5 108.472656 311.710938 L 108.507812 315.671875 L 107.300781 315.671875 L 107.265625 305.667969 L 108.433594 305.667969 L 108.507812 306.800781 C 108.886719 306.007812 109.566406 305.519531 110.734375 305.519531 Z M 110.433594 312.085938 C 111.945312 312.085938 112.132812 310.804688 112.132812 309.253906 C 112.132812 307.707031 111.90625 306.5 110.433594 306.460938 C 108.847656 306.460938 108.507812 307.671875 108.507812 309.332031 C 108.507812 310.953125 108.886719 312.085938 110.433594 312.085938 "/>
<path style=" stroke:none;fill-rule:nonzero;fill:rgb(0%,0%,0%);fill-opacity:1;" d="M 116.167969 311.066406 C 116.09375 311.972656 116.847656 312.160156 117.605469 311.898438 L 117.605469 312.804688 C 116.359375 313.179688 114.960938 312.992188 114.960938 311.332031 L 114.960938 306.539062 L 114.132812 306.539062 L 114.132812 305.667969 L 115.039062 305.667969 L 115.378906 304.046875 L 116.167969 304.046875 L 116.167969 305.667969 L 117.492188 305.667969 L 117.492188 306.539062 L 116.167969 306.539062 L 116.167969 311.066406 "/>
<path style="fill-rule:nonzero;fill:rgb(100%,100%,100%);fill-opacity:1;stroke-width:2;stroke-linecap:butt;stroke-linejoin:miter;stroke:rgb(0%,0%,0%);stroke-opacity:1;stroke-miterlimit:4;" d="M 60.898084 85.899896 C 60.898084 83.136794 63.139198 80.901476 65.897889 80.901476 L 215.902381 80.901476 C 218.661073 80.901476 220.902186 83.136794 220.902186 85.899896 L 220.902186 195.901349 C 220.902186 198.659276 218.661073 200.899769 215.902381 200.899769 L 65.897889 200.899769 C 63.139198 200.899769 60.898084 198.659276 60.898084 195.901349 Z M 60.898084 85.899896 " transform="matrix(0.754717,0,0,0.754926,-13.882693,-15.773855)"/>
<path style=" stroke:none;fill-rule:nonzero;fill:rgb(0%,0%,0%);fill-opacity:1;" d="M 39.339844 85.15625 L 39.339844 75.792969 L 46.394531 75.792969 L 46.394531 76.851562 L 40.585938 76.851562 L 40.585938 79.832031 L 46.019531 79.832031 L 46.019531 80.851562 L 40.585938 80.851562 L 40.585938 84.136719 L 46.699219 84.136719 L 46.699219 85.15625 L 39.339844 85.15625 "/>
<path style=" stroke:none;fill-rule:nonzero;fill:rgb(0%,0%,0%);fill-opacity:1;" d="M 52.585938 85.15625 L 50.660156 82.210938 L 48.699219 85.15625 L 47.414062 85.15625 L 49.980469 81.457031 L 47.527344 77.984375 L 48.847656 77.984375 L 50.660156 80.777344 L 52.433594 77.984375 L 53.753906 77.984375 L 51.339844 81.457031 L 53.90625 85.15625 L 52.585938 85.15625 "/>
<path style=" stroke:none;fill-rule:nonzero;fill:rgb(0%,0%,0%);fill-opacity:1;" d="M 56.28125 83.382812 C 56.207031 84.289062 56.960938 84.476562 57.71875 84.210938 L 57.71875 85.117188 C 56.472656 85.496094 55.074219 85.308594 55.074219 83.644531 L 55.074219 78.851562 L 54.246094 78.851562 L 54.246094 77.984375 L 55.152344 77.984375 L 55.492188 76.359375 L 56.28125 76.359375 L 56.28125 77.984375 L 57.605469 77.984375 L 57.605469 78.851562 L 56.28125 78.851562 L 56.28125 83.382812 "/>
<path style=" stroke:none;fill-rule:nonzero;fill:rgb(0%,0%,0%);fill-opacity:1;" d="M 61.605469 77.832031 C 63.980469 77.832031 64.847656 79.417969 64.773438 81.835938 L 59.679688 81.835938 C 59.679688 83.34375 60.207031 84.363281 61.679688 84.402344 C 62.660156 84.4375 63.300781 83.949219 63.527344 83.304688 L 64.585938 83.609375 C 64.167969 84.664062 63.1875 85.308594 61.679688 85.308594 C 59.492188 85.308594 58.359375 83.910156 58.394531 81.53125 C 58.433594 79.230469 59.378906 77.832031 61.605469 77.832031 Z M 63.566406 80.890625 C 63.792969 78.625 60.699219 77.984375 59.90625 79.832031 C 59.792969 80.097656 59.679688 80.476562 59.679688 80.890625 L 63.566406 80.890625 "/>
<path style=" stroke:none;fill-rule:nonzero;fill:rgb(0%,0%,0%);fill-opacity:1;" d="M 69.679688 79.003906 C 66.734375 78.398438 67.679688 82.4375 67.527344 85.15625 L 66.320312 85.15625 L 66.28125 77.984375 L 67.414062 77.984375 C 67.453125 78.4375 67.378906 79.078125 67.492188 79.457031 C 67.71875 78.4375 68.359375 77.605469 69.679688 77.910156 L 69.679688 79.003906 "/>
<path style=" stroke:none;fill-rule:nonzero;fill:rgb(0%,0%,0%);fill-opacity:1;" d="M 74.28125 77.832031 C 77.640625 77.683594 76.28125 82.210938 76.546875 85.15625 L 75.339844 85.15625 L 75.339844 80.589844 C 75.339844 79.417969 75.039062 78.738281 73.867188 78.777344 C 71.152344 78.851562 72.207031 82.625 72.019531 85.15625 L 70.8125 85.15625 L 70.773438 77.984375 L 71.90625 77.984375 C 71.945312 78.363281 71.867188 78.890625 71.980469 79.191406 C 72.394531 78.363281 73.074219 77.871094 74.28125 77.832031 "/>
<path style=" stroke:none;fill-rule:nonzero;fill:rgb(0%,0%,0%);fill-opacity:1;" d="M 82.734375 83.796875 C 82.167969 84.589844 81.566406 85.34375 80.167969 85.308594 C 78.8125 85.269531 77.980469 84.515625 77.980469 83.15625 C 77.945312 80.738281 80.359375 80.777344 82.699219 80.777344 C 82.8125 79.457031 82.359375 78.738281 81.152344 78.738281 C 80.246094 78.777344 79.605469 79.003906 79.566406 79.910156 L 78.320312 79.796875 C 78.507812 78.398438 79.566406 77.832031 81.1875 77.832031 C 82.886719 77.832031 83.90625 78.585938 83.90625 80.25 L 83.90625 83.34375 C 83.867188 84.097656 84.167969 84.550781 84.960938 84.363281 L 84.960938 85.117188 C 83.792969 85.457031 82.660156 85.042969 82.734375 83.796875 Z M 79.226562 83.15625 C 79.226562 83.910156 79.679688 84.402344 80.433594 84.402344 C 81.980469 84.289062 82.8125 83.304688 82.699219 81.609375 C 81.074219 81.683594 79.226562 81.417969 79.226562 83.15625 "/>
<path style=" stroke:none;fill-rule:nonzero;fill:rgb(0%,0%,0%);fill-opacity:1;" d="M 85.867188 85.15625 L 85.867188 75.304688 L 87.074219 75.304688 L 87.074219 85.15625 L 85.867188 85.15625 "/>
<path style=" stroke:none;fill-rule:nonzero;fill:rgb(0%,0%,0%);fill-opacity:1;" d="M 88.847656 85.15625 L 88.847656 75.304688 L 90.054688 75.304688 L 90.054688 85.15625 L 88.847656 85.15625 "/>
<path style=" stroke:none;fill-rule:nonzero;fill:rgb(0%,0%,0%);fill-opacity:1;" d="M 97.679688 77.984375 L 94.433594 86.324219 C 93.90625 87.382812 93.039062 88.25 91.378906 87.910156 L 91.378906 87.003906 C 92.847656 87.230469 93.378906 86.25 93.792969 85.117188 L 90.960938 77.984375 L 92.246094 77.984375 L 94.394531 83.871094 L 96.433594 77.984375 L 97.679688 77.984375 "/>
<path style=" stroke:none;fill-rule:nonzero;fill:rgb(0%,0%,0%);fill-opacity:1;" d="M 98.320312 82.058594 L 98.320312 81.003906 L 101.640625 81.003906 L 101.640625 82.058594 L 98.320312 82.058594 "/>
<path style=" stroke:none;fill-rule:nonzero;fill:rgb(0%,0%,0%);fill-opacity:1;" d="M 105.414062 77.832031 C 106.585938 77.832031 107.226562 78.324219 107.679688 79.078125 L 107.640625 75.304688 L 108.847656 75.304688 L 108.886719 85.15625 L 107.753906 85.15625 C 107.679688 84.777344 107.753906 84.289062 107.640625 83.984375 C 107.265625 84.855469 106.585938 85.308594 105.414062 85.308594 C 103.414062 85.308594 102.8125 83.835938 102.773438 81.609375 C 102.773438 79.117188 103.640625 77.832031 105.414062 77.832031 Z M 105.753906 78.738281 C 104.246094 78.738281 104.019531 80.023438 104.019531 81.570312 C 104.019531 83.078125 104.246094 84.363281 105.71875 84.363281 C 107.300781 84.363281 107.640625 83.15625 107.640625 81.496094 C 107.640625 79.910156 107.300781 78.699219 105.753906 78.738281 "/>
<path style=" stroke:none;fill-rule:nonzero;fill:rgb(0%,0%,0%);fill-opacity:1;" d="M 113.527344 77.832031 C 115.90625 77.832031 116.773438 79.417969 116.699219 81.835938 L 111.605469 81.835938 C 111.605469 83.34375 112.132812 84.363281 113.605469 84.402344 C 114.585938 84.4375 115.226562 83.949219 115.453125 83.304688 L 116.507812 83.609375 C 116.09375 84.664062 115.113281 85.308594 113.605469 85.308594 C 111.414062 85.308594 110.28125 83.910156 110.320312 81.53125 C 110.359375 79.230469 111.300781 77.832031 113.527344 77.832031 Z M 115.492188 80.890625 C 115.71875 78.625 112.621094 77.984375 111.832031 79.832031 C 111.71875 80.097656 111.605469 80.476562 111.605469 80.890625 L 115.492188 80.890625 "/>
<path style=" stroke:none;fill-rule:nonzero;fill:rgb(0%,0%,0%);fill-opacity:1;" d="M 121.113281 76.324219 C 119.945312 75.984375 119.527344 76.699219 119.679688 77.984375 L 121.113281 77.984375 L 121.113281 78.851562 L 119.679688 78.851562 L 119.679688 85.15625 L 118.507812 85.15625 L 118.507812 78.851562 L 117.492188 78.851562 L 117.492188 77.984375 L 118.507812 77.984375 C 118.246094 76.019531 119.152344 74.886719 121.113281 75.417969 L 121.113281 76.324219 "/>
<path style=" stroke:none;fill-rule:nonzero;fill:rgb(0%,0%,0%);fill-opacity:1;" d="M 121.980469 76.4375 L 121.980469 75.304688 L 123.1875 75.304688 L 123.1875 76.4375 Z M 121.980469 85.15625 L 121.980469 77.984375 L 123.1875 77.984375 L 123.1875 85.15625 L 121.980469 85.15625 "/>
<path style=" stroke:none;fill-rule:nonzero;fill:rgb(0%,0%,0%);fill-opacity:1;" d="M 128.472656 77.832031 C 131.832031 77.683594 130.472656 82.210938 130.734375 85.15625 L 129.527344 85.15625 L 129.527344 80.589844 C 129.527344 79.417969 129.226562 78.738281 128.054688 78.777344 C 125.339844 78.851562 126.394531 82.625 126.207031 85.15625 L 125 85.15625 L 124.960938 77.984375 L 126.09375 77.984375 C 126.132812 78.363281 126.054688 78.890625 126.167969 79.191406 C 126.585938 78.363281 127.265625 77.871094 128.472656 77.832031 "/>
<path style=" stroke:none;fill-rule:nonzero;fill:rgb(0%,0%,0%);fill-opacity:1;" d="M 135.378906 77.832031 C 137.753906 77.832031 138.621094 79.417969 138.546875 81.835938 L 133.453125 81.835938 C 133.453125 83.34375 133.980469 84.363281 135.453125 84.402344 C 136.433594 84.4375 137.074219 83.949219 137.300781 83.304688 L 138.359375 83.609375 C 137.945312 84.664062 136.960938 85.308594 135.453125 85.308594 C 133.265625 85.308594 132.132812 83.910156 132.167969 81.53125 C 132.207031 79.230469 133.152344 77.832031 135.378906 77.832031 Z M 137.339844 80.890625 C 137.566406 78.625 134.472656 77.984375 133.679688 79.832031 C 133.566406 80.097656 133.453125 80.476562 133.453125 80.890625 L 137.339844 80.890625 "/>
<path style=" stroke:none;fill-rule:nonzero;fill:rgb(0%,0%,0%);fill-opacity:1;" d="M 142.359375 77.832031 C 143.527344 77.832031 144.167969 78.324219 144.621094 79.078125 L 144.585938 75.304688 L 145.792969 75.304688 L 145.832031 85.15625 L 144.699219 85.15625 C 144.621094 84.777344 144.699219 84.289062 144.585938 83.984375 C 144.207031 84.855469 143.527344 85.308594 142.359375 85.308594 C 140.359375 85.308594 139.753906 83.835938 139.71875 81.609375 C 139.71875 79.117188 140.585938 77.832031 142.359375 77.832031 Z M 142.699219 78.738281 C 141.1875 78.738281 140.960938 80.023438 140.960938 81.570312 C 140.960938 83.078125 141.1875 84.363281 142.660156 84.363281 C 144.246094 84.363281 144.585938 83.15625 144.585938 81.496094 C 144.585938 79.910156 144.246094 78.699219 142.699219 78.738281 "/>
<path style=" stroke:none;fill-rule:nonzero;fill:rgb(0%,0%,0%);fill-opacity:1;" d="M 63.699219 91.988281 C 66.753906 91.988281 68.339844 93.722656 68.339844 96.742188 C 68.339844 99.726562 66.679688 101.613281 63.699219 101.613281 C 60.640625 101.613281 59.054688 99.761719 59.054688 96.742188 C 59.054688 93.722656 60.640625 91.988281 63.699219 91.988281 Z M 63.699219 100.554688 C 66.074219 100.554688 67.054688 99.007812 67.054688 96.742188 C 67.054688 94.480469 65.960938 93.007812 63.699219 93.007812 C 61.394531 93.007812 60.339844 94.480469 60.339844 96.742188 C 60.339844 99.007812 61.394531 100.519531 63.699219 100.554688 "/>
<path style=" stroke:none;fill-rule:nonzero;fill:rgb(0%,0%,0%);fill-opacity:1;" d="M 79.019531 101.460938 L 77.507812 101.460938 L 75.394531 93.535156 L 73.320312 101.460938 L 71.8125 101.460938 L 69.054688 92.101562 L 70.378906 92.101562 L 72.605469 100.328125 L 73.167969 97.914062 L 74.792969 92.101562 L 76 92.101562 L 78.226562 100.328125 L 80.453125 92.101562 L 81.773438 92.101562 "/>
<path style=" stroke:none;fill-rule:nonzero;fill:rgb(0%,0%,0%);fill-opacity:1;" d="M 82.90625 101.460938 L 82.90625 92.101562 L 84.152344 92.101562 L 84.152344 100.441406 L 88.867188 100.441406 L 88.867188 101.460938 L 82.90625 101.460938 "/>
<path style=" stroke:none;fill-rule:nonzero;fill:rgb(0%,0%,0%);fill-opacity:1;" d="M 100.605469 94.707031 C 100.226562 93.648438 99.28125 93.007812 97.847656 93.007812 C 95.621094 93.007812 94.566406 94.515625 94.566406 96.742188 C 94.566406 99.007812 95.660156 100.554688 97.925781 100.554688 C 99.546875 100.554688 100.265625 99.648438 100.867188 98.59375 L 101.886719 99.121094 C 101.207031 100.554688 99.960938 101.613281 97.847656 101.613281 C 94.832031 101.613281 93.433594 99.726562 93.28125 96.742188 C 93.054688 92.816406 97.019531 90.96875 100.339844 92.554688 C 101.054688 92.894531 101.507812 93.535156 101.8125 94.289062 "/>
<path style=" stroke:none;fill-rule:nonzero;fill:rgb(0%,0%,0%);fill-opacity:1;" d="M 103.28125 101.460938 L 103.28125 91.609375 L 104.492188 91.609375 L 104.492188 101.460938 L 103.28125 101.460938 "/>
<path style=" stroke:none;fill-rule:nonzero;fill:rgb(0%,0%,0%);fill-opacity:1;" d="M 110.679688 100.101562 C 110.113281 100.894531 109.507812 101.652344 108.113281 101.613281 C 106.753906 101.574219 105.925781 100.820312 105.925781 99.460938 C 105.886719 97.046875 108.300781 97.082031 110.640625 97.082031 C 110.753906 95.761719 110.300781 95.046875 109.09375 95.046875 C 108.1875 95.082031 107.546875 95.308594 107.507812 96.214844 L 106.265625 96.101562 C 106.453125 94.707031 107.507812 94.140625 109.132812 94.140625 C 110.832031 94.140625 111.847656 94.894531 111.847656 96.554688 L 111.847656 99.648438 C 111.8125 100.40625 112.113281 100.859375 112.90625 100.667969 L 112.90625 101.425781 C 111.734375 101.765625 110.605469 101.347656 110.679688 100.101562 Z M 107.167969 99.460938 C 107.167969 100.214844 107.621094 100.707031 108.378906 100.707031 C 109.925781 100.59375 110.753906 99.613281 110.640625 97.914062 C 109.019531 97.988281 107.167969 97.726562 107.167969 99.460938 "/>
<path style=" stroke:none;fill-rule:nonzero;fill:rgb(0%,0%,0%);fill-opacity:1;" d="M 118 96.0625 C 117.886719 94.78125 114.753906 94.628906 114.71875 96.0625 C 115.28125 98.066406 119.054688 96.515625 119.207031 99.460938 C 119.359375 102.40625 113.546875 102.253906 113.28125 99.761719 L 114.339844 99.574219 C 114.492188 100.933594 118 101.273438 118.039062 99.574219 C 117.660156 97.460938 113.773438 99.007812 113.585938 96.175781 C 113.433594 94.027344 116.679688 93.800781 118.1875 94.59375 C 118.640625 94.855469 118.980469 95.308594 119.09375 95.914062 "/>
<path style=" stroke:none;fill-rule:nonzero;fill:rgb(0%,0%,0%);fill-opacity:1;" d="M 124.792969 96.0625 C 124.679688 94.78125 121.546875 94.628906 121.507812 96.0625 C 122.074219 98.066406 125.847656 96.515625 126 99.460938 C 126.152344 102.40625 120.339844 102.253906 120.074219 99.761719 L 121.132812 99.574219 C 121.28125 100.933594 124.792969 101.273438 124.832031 99.574219 C 124.453125 97.460938 120.566406 99.007812 120.378906 96.175781 C 120.226562 94.027344 123.472656 93.800781 124.980469 94.59375 C 125.433594 94.855469 125.773438 95.308594 125.886719 95.914062 "/>
<path style="fill-rule:nonzero;fill:rgb(40%,40%,40%);fill-opacity:1;stroke-width:2;stroke-linecap:butt;stroke-linejoin:miter;stroke:rgb(0%,0%,0%);stroke-opacity:1;stroke-miterlimit:4;" d="M 60.898084 225.902216 C 60.898084 223.139114 63.139198 220.898622 65.897889 220.898622 L 215.902381 220.898622 C 218.661073 220.898622 220.902186 223.139114 220.902186 225.902216 L 220.902186 335.898494 C 220.902186 338.661596 218.661073 340.902088 215.902381 340.902088 L 65.897889 340.902088 C 63.139198 340.902088 60.898084 338.661596 60.898084 335.898494 Z M 60.898084 225.902216 " transform="matrix(0.754717,0,0,0.754926,-13.882693,-15.773855)"/>
<path style=" stroke:none;fill-rule:nonzero;fill:rgb(100%,100%,100%);fill-opacity:1;" d="M 58.265625 184.089844 C 57.886719 183.03125 56.945312 182.390625 55.507812 182.390625 C 53.28125 182.390625 52.226562 183.898438 52.226562 186.128906 C 52.226562 188.390625 53.320312 189.9375 55.585938 189.9375 C 57.207031 189.9375 57.925781 189.035156 58.527344 187.976562 L 59.546875 188.503906 C 58.867188 189.9375 57.621094 190.996094 55.507812 190.996094 C 52.492188 190.996094 51.09375 189.109375 50.945312 186.128906 C 50.71875 182.203125 54.679688 180.351562 58 181.9375 C 58.71875 182.277344 59.167969 182.917969 59.472656 183.671875 "/>
<path style=" stroke:none;fill-rule:nonzero;fill:rgb(100%,100%,100%);fill-opacity:1;" d="M 60.945312 190.84375 L 60.945312 180.992188 L 62.152344 180.992188 L 62.152344 190.84375 L 60.945312 190.84375 "/>
<path style=" stroke:none;fill-rule:nonzero;fill:rgb(100%,100%,100%);fill-opacity:1;" d="M 68.339844 189.488281 C 67.773438 190.277344 67.167969 191.035156 65.773438 190.996094 C 64.414062 190.957031 63.585938 190.203125 63.585938 188.84375 C 63.546875 186.429688 65.960938 186.464844 68.300781 186.464844 C 68.414062 185.144531 67.960938 184.429688 66.753906 184.429688 C 65.847656 184.464844 65.207031 184.691406 65.167969 185.597656 L 63.925781 185.484375 C 64.113281 184.089844 65.167969 183.523438 66.792969 183.523438 C 68.492188 183.523438 69.507812 184.277344 69.507812 185.9375 L 69.507812 189.035156 C 69.472656 189.789062 69.773438 190.242188 70.566406 190.050781 L 70.566406 190.808594 C 69.394531 191.148438 68.265625 190.730469 68.339844 189.488281 Z M 64.832031 188.84375 C 64.832031 189.601562 65.28125 190.089844 66.039062 190.089844 C 67.585938 189.976562 68.414062 188.996094 68.300781 187.296875 C 66.679688 187.371094 64.832031 187.109375 64.832031 188.84375 "/>
<path style=" stroke:none;fill-rule:nonzero;fill:rgb(100%,100%,100%);fill-opacity:1;" d="M 75.660156 185.449219 C 75.546875 184.164062 72.414062 184.011719 72.378906 185.449219 C 72.945312 187.449219 76.71875 185.902344 76.867188 188.84375 C 77.019531 191.789062 71.207031 191.636719 70.945312 189.148438 L 72 188.957031 C 72.152344 190.316406 75.660156 190.65625 75.699219 188.957031 C 75.320312 186.84375 71.433594 188.390625 71.246094 185.5625 C 71.09375 183.410156 74.339844 183.183594 75.847656 183.976562 C 76.300781 184.238281 76.640625 184.691406 76.753906 185.296875 "/>
<path style=" stroke:none;fill-rule:nonzero;fill:rgb(100%,100%,100%);fill-opacity:1;" d="M 82.453125 185.449219 C 82.339844 184.164062 79.207031 184.011719 79.167969 185.449219 C 79.734375 187.449219 83.507812 185.902344 83.660156 188.84375 C 83.8125 191.789062 78 191.636719 77.734375 189.148438 L 78.792969 188.957031 C 78.945312 190.316406 82.453125 190.65625 82.492188 188.957031 C 82.113281 186.84375 78.226562 188.390625 78.039062 185.5625 C 77.886719 183.410156 81.132812 183.183594 82.640625 183.976562 C 83.09375 184.238281 83.433594 184.691406 83.546875 185.296875 "/>
<path style=" stroke:none;fill-rule:nonzero;fill:rgb(100%,100%,100%);fill-opacity:1;" d="M 89.054688 181.484375 C 93.507812 181.21875 97.207031 181.785156 97.09375 186.089844 C 96.980469 189.035156 95.472656 190.84375 92.527344 190.84375 L 89.054688 190.84375 Z M 90.300781 189.824219 C 93.660156 190.128906 95.8125 189.222656 95.8125 186.089844 C 95.8125 182.957031 93.546875 182.277344 90.300781 182.503906 L 90.300781 189.824219 "/>
<path style=" stroke:none;fill-rule:nonzero;fill:rgb(100%,100%,100%);fill-opacity:1;" d="M 101.472656 183.523438 C 103.847656 183.523438 104.71875 185.109375 104.640625 187.523438 L 99.546875 187.523438 C 99.546875 189.035156 100.074219 190.050781 101.546875 190.089844 C 102.527344 190.128906 103.167969 189.636719 103.394531 188.996094 L 104.453125 189.296875 C 104.039062 190.355469 103.054688 190.996094 101.546875 190.996094 C 99.359375 190.996094 98.226562 189.601562 98.265625 187.222656 C 98.300781 184.917969 99.246094 183.523438 101.472656 183.523438 Z M 103.433594 186.578125 C 103.660156 184.316406 100.566406 183.671875 99.773438 185.523438 C 99.660156 185.789062 99.546875 186.164062 99.546875 186.578125 L 103.433594 186.578125 "/>
<path style=" stroke:none;fill-rule:nonzero;fill:rgb(100%,100%,100%);fill-opacity:1;" d="M 109.054688 182.011719 C 107.886719 181.671875 107.472656 182.390625 107.621094 183.671875 L 109.054688 183.671875 L 109.054688 184.542969 L 107.621094 184.542969 L 107.621094 190.84375 L 106.453125 190.84375 L 106.453125 184.542969 L 105.433594 184.542969 L 105.433594 183.671875 L 106.453125 183.671875 C 106.1875 181.710938 107.09375 180.578125 109.054688 181.105469 L 109.054688 182.011719 "/>
<path style=" stroke:none;fill-rule:nonzero;fill:rgb(100%,100%,100%);fill-opacity:1;" d="M 109.925781 182.125 L 109.925781 180.992188 L 111.132812 180.992188 L 111.132812 182.125 Z M 109.925781 190.84375 L 109.925781 183.671875 L 111.132812 183.671875 L 111.132812 190.84375 L 109.925781 190.84375 "/>
<path style=" stroke:none;fill-rule:nonzero;fill:rgb(100%,100%,100%);fill-opacity:1;" d="M 116.414062 183.523438 C 119.773438 183.371094 118.414062 187.902344 118.679688 190.84375 L 117.472656 190.84375 L 117.472656 186.277344 C 117.472656 185.109375 117.167969 184.429688 116 184.464844 C 113.28125 184.542969 114.339844 188.316406 114.152344 190.84375 L 112.945312 190.84375 L 112.90625 183.671875 L 114.039062 183.671875 C 114.074219 184.050781 114 184.578125 114.113281 184.882812 C 114.527344 184.050781 115.207031 183.558594 116.414062 183.523438 "/>
<path style=" stroke:none;fill-rule:nonzero;fill:rgb(100%,100%,100%);fill-opacity:1;" d="M 123.320312 183.523438 C 125.699219 183.523438 126.566406 185.109375 126.492188 187.523438 L 121.394531 187.523438 C 121.394531 189.035156 121.925781 190.050781 123.394531 190.089844 C 124.378906 190.128906 125.019531 189.636719 125.246094 188.996094 L 126.300781 189.296875 C 125.886719 190.355469 124.90625 190.996094 123.394531 190.996094 C 121.207031 190.996094 120.074219 189.601562 120.113281 187.222656 C 120.152344 184.917969 121.09375 183.523438 123.320312 183.523438 Z M 125.28125 186.578125 C 125.507812 184.316406 122.414062 183.671875 121.621094 185.523438 C 121.507812 185.789062 121.394531 186.164062 121.394531 186.578125 L 125.28125 186.578125 "/>
<path style=" stroke:none;fill-rule:nonzero;fill:rgb(100%,100%,100%);fill-opacity:1;" d="M 130.300781 183.523438 C 131.472656 183.523438 132.113281 184.011719 132.566406 184.769531 L 132.527344 180.992188 L 133.734375 180.992188 L 133.773438 190.84375 L 132.640625 190.84375 C 132.566406 190.46875 132.640625 189.976562 132.527344 189.675781 C 132.152344 190.542969 131.472656 190.996094 130.300781 190.996094 C 128.300781 190.996094 127.699219 189.523438 127.660156 187.296875 C 127.660156 184.804688 128.527344 183.523438 130.300781 183.523438 Z M 130.640625 184.429688 C 129.132812 184.429688 128.90625 185.710938 128.90625 187.257812 C 128.90625 188.769531 129.132812 190.050781 130.605469 190.050781 C 132.1875 190.050781 132.527344 188.84375 132.527344 187.183594 C 132.527344 185.597656 132.1875 184.390625 130.640625 184.429688 "/>
<path style=" stroke:none;fill-rule:nonzero;fill:rgb(100%,100%,100%);fill-opacity:1;" d="M 85.207031 207.152344 L 85.207031 202.8125 L 80.152344 202.8125 L 80.152344 207.152344 L 78.90625 207.152344 L 78.90625 197.789062 L 80.152344 197.789062 L 80.152344 201.753906 L 85.207031 201.753906 L 85.207031 197.789062 L 86.492188 197.789062 L 86.492188 207.152344 L 85.207031 207.152344 "/>
<path style=" stroke:none;fill-rule:nonzero;fill:rgb(100%,100%,100%);fill-opacity:1;" d="M 91.320312 199.828125 C 93.699219 199.828125 94.566406 201.414062 94.492188 203.828125 L 89.394531 203.828125 C 89.394531 205.339844 89.925781 206.359375 91.394531 206.398438 C 92.378906 206.433594 93.019531 205.945312 93.246094 205.300781 L 94.300781 205.605469 C 93.886719 206.660156 92.90625 207.300781 91.394531 207.300781 C 89.207031 207.300781 88.074219 205.90625 88.113281 203.527344 C 88.152344 201.226562 89.09375 199.828125 91.320312 199.828125 Z M 93.28125 202.886719 C 93.507812 200.621094 90.414062 199.980469 89.621094 201.828125 C 89.507812 202.09375 89.394531 202.472656 89.394531 202.886719 L 93.28125 202.886719 "/>
<path style=" stroke:none;fill-rule:nonzero;fill:rgb(100%,100%,100%);fill-opacity:1;" d="M 99.394531 201 C 96.453125 200.394531 97.394531 204.433594 97.246094 207.152344 L 96.039062 207.152344 L 96 199.980469 L 97.132812 199.980469 C 97.167969 200.433594 97.09375 201.074219 97.207031 201.453125 C 97.433594 200.433594 98.074219 199.601562 99.394531 199.90625 L 99.394531 201 "/>
<path style=" stroke:none;fill-rule:nonzero;fill:rgb(100%,100%,100%);fill-opacity:1;" d="M 103.359375 199.828125 C 105.734375 199.828125 106.605469 201.414062 106.527344 203.828125 L 101.433594 203.828125 C 101.433594 205.339844 101.960938 206.359375 103.433594 206.398438 C 104.414062 206.433594 105.054688 205.945312 105.28125 205.300781 L 106.339844 205.605469 C 105.925781 206.660156 104.945312 207.300781 103.433594 207.300781 C 101.246094 207.300781 100.113281 205.90625 100.152344 203.527344 C 100.1875 201.226562 101.132812 199.828125 103.359375 199.828125 Z M 105.320312 202.886719 C 105.546875 200.621094 102.453125 199.980469 101.660156 201.828125 C 101.546875 202.09375 101.433594 202.472656 101.433594 202.886719 L 105.320312 202.886719 "/>
<path style=" stroke:none;fill-rule:nonzero;fill:rgb(0%,0%,0%);fill-opacity:1;" d="M 23.402344 21.84375 C 27.855469 21.582031 31.554688 22.148438 31.441406 26.449219 C 31.328125 29.394531 29.820312 31.207031 26.875 31.207031 L 23.402344 31.207031 Z M 24.648438 30.1875 C 28.007812 30.488281 30.160156 29.582031 30.160156 26.449219 C 30.160156 23.316406 27.894531 22.636719 24.648438 22.863281 L 24.648438 30.1875 "/>
<path style=" stroke:none;fill-rule:nonzero;fill:rgb(0%,0%,0%);fill-opacity:1;" d="M 32.949219 22.488281 L 32.949219 21.355469 L 34.160156 21.355469 L 34.160156 22.488281 Z M 32.949219 31.207031 L 32.949219 24.035156 L 34.160156 24.035156 L 34.160156 31.207031 L 32.949219 31.207031 "/>
<path style=" stroke:none;fill-rule:nonzero;fill:rgb(0%,0%,0%);fill-opacity:1;" d="M 40.347656 29.847656 C 39.78125 30.640625 39.175781 31.394531 37.78125 31.359375 C 36.421875 31.320312 35.59375 30.566406 35.59375 29.207031 C 35.554688 26.789062 37.96875 26.828125 40.308594 26.828125 C 40.421875 25.507812 39.96875 24.789062 38.761719 24.789062 C 37.855469 24.828125 37.214844 25.054688 37.175781 25.960938 L 35.933594 25.847656 C 36.121094 24.449219 37.175781 23.882812 38.800781 23.882812 C 40.5 23.882812 41.515625 24.640625 41.515625 26.300781 L 41.515625 29.394531 C 41.480469 30.148438 41.78125 30.601562 42.574219 30.414062 L 42.574219 31.167969 C 41.402344 31.507812 40.273438 31.09375 40.347656 29.847656 Z M 36.835938 29.207031 C 36.835938 29.960938 37.289062 30.453125 38.046875 30.453125 C 39.59375 30.339844 40.421875 29.355469 40.308594 27.660156 C 38.6875 27.734375 36.835938 27.46875 36.835938 29.207031 "/>
<path style=" stroke:none;fill-rule:nonzero;fill:rgb(0%,0%,0%);fill-opacity:1;" d="M 49.253906 24.035156 C 48.875 28.753906 50.800781 35.09375 45.101562 33.886719 C 44.234375 33.660156 43.667969 33.132812 43.441406 32.261719 L 44.648438 32.074219 C 45.214844 33.847656 48.421875 33.28125 48.007812 31.019531 L 48.007812 29.886719 C 47.59375 30.679688 46.914062 31.246094 45.707031 31.246094 C 43.667969 31.246094 43.140625 29.695312 43.140625 27.621094 C 43.140625 25.507812 43.742188 23.960938 45.820312 23.921875 C 46.914062 23.882812 47.628906 24.527344 48.046875 25.242188 C 48.082031 24.867188 48.046875 24.375 48.121094 24.035156 Z M 46.121094 30.375 C 47.480469 30.375 48.007812 29.167969 48.007812 27.621094 C 48.007812 26.035156 47.480469 24.789062 46.121094 24.789062 C 44.648438 24.789062 44.386719 26.074219 44.386719 27.621094 C 44.386719 29.167969 44.609375 30.375 46.121094 30.375 "/>
<path style=" stroke:none;fill-rule:nonzero;fill:rgb(0%,0%,0%);fill-opacity:1;" d="M 54.421875 25.054688 C 51.480469 24.449219 52.421875 28.488281 52.273438 31.207031 L 51.0625 31.207031 L 51.027344 24.035156 L 52.160156 24.035156 C 52.195312 24.488281 52.121094 25.128906 52.234375 25.507812 C 52.460938 24.488281 53.101562 23.65625 54.421875 23.960938 L 54.421875 25.054688 "/>
<path style=" stroke:none;fill-rule:nonzero;fill:rgb(0%,0%,0%);fill-opacity:1;" d="M 59.933594 29.847656 C 59.367188 30.640625 58.761719 31.394531 57.367188 31.359375 C 56.007812 31.320312 55.175781 30.566406 55.175781 29.207031 C 55.140625 26.789062 57.554688 26.828125 59.894531 26.828125 C 60.007812 25.507812 59.554688 24.789062 58.347656 24.789062 C 57.441406 24.828125 56.800781 25.054688 56.761719 25.960938 L 55.515625 25.847656 C 55.707031 24.449219 56.761719 23.882812 58.386719 23.882812 C 60.082031 23.882812 61.101562 24.640625 61.101562 26.300781 L 61.101562 29.394531 C 61.0625 30.148438 61.367188 30.601562 62.160156 30.414062 L 62.160156 31.167969 C 60.988281 31.507812 59.855469 31.09375 59.933594 29.847656 Z M 56.421875 29.207031 C 56.421875 29.960938 56.875 30.453125 57.628906 30.453125 C 59.175781 30.339844 60.007812 29.355469 59.894531 27.660156 C 58.273438 27.734375 56.421875 27.46875 56.421875 29.207031 "/>
<path style=" stroke:none;fill-rule:nonzero;fill:rgb(0%,0%,0%);fill-opacity:1;" d="M 70.082031 24.828125 C 67.554688 24.941406 68.648438 28.789062 68.421875 31.207031 L 67.253906 31.207031 L 67.253906 26.640625 C 67.253906 25.542969 67.0625 24.753906 65.933594 24.828125 C 63.441406 24.980469 64.5 28.753906 64.273438 31.207031 L 63.101562 31.207031 L 63.0625 24.035156 L 64.195312 24.035156 C 64.234375 24.414062 64.160156 24.941406 64.273438 25.242188 C 64.648438 23.582031 68.007812 23.355469 68.308594 25.242188 C 68.722656 24.449219 69.328125 23.921875 70.5 23.882812 C 73.707031 23.808594 72.273438 28.375 72.574219 31.207031 L 71.402344 31.207031 L 71.402344 26.640625 C 71.402344 25.542969 71.214844 24.789062 70.082031 24.828125 "/>
<path style=" stroke:none;fill-rule:nonzero;fill:rgb(0%,0%,0%);fill-opacity:1;" d="M 21.59375 32.152344 L 77.894531 32.152344 L 77.894531 33.148438 L 21.59375 33.148438 Z M 21.59375 32.152344 "/>
<path style=" stroke:none;fill-rule:nonzero;fill:rgb(0%,0%,0%);fill-opacity:1;" d="M 78.347656 31.207031 L 78.347656 21.84375 L 85.402344 21.84375 L 85.402344 22.902344 L 79.59375 22.902344 L 79.59375 25.882812 L 85.027344 25.882812 L 85.027344 26.902344 L 79.59375 26.902344 L 79.59375 30.1875 L 85.707031 30.1875 L 85.707031 31.207031 L 78.347656 31.207031 "/>
<path style=" stroke:none;fill-rule:nonzero;fill:rgb(0%,0%,0%);fill-opacity:1;" d="M 87.175781 31.207031 L 87.175781 21.355469 L 88.386719 21.355469 L 88.386719 31.207031 L 87.175781 31.207031 "/>
<path style=" stroke:none;fill-rule:nonzero;fill:rgb(0%,0%,0%);fill-opacity:1;" d="M 93.027344 23.882812 C 95.402344 23.882812 96.273438 25.46875 96.195312 27.886719 L 91.101562 27.886719 C 91.101562 29.394531 91.628906 30.414062 93.101562 30.453125 C 94.082031 30.488281 94.722656 30 94.949219 29.355469 L 96.007812 29.660156 C 95.59375 30.714844 94.609375 31.359375 93.101562 31.359375 C 90.914062 31.359375 89.78125 29.960938 89.820312 27.582031 C 89.855469 25.28125 90.800781 23.882812 93.027344 23.882812 Z M 94.988281 26.941406 C 95.214844 24.675781 92.121094 24.035156 91.328125 25.882812 C 91.214844 26.148438 91.101562 26.527344 91.101562 26.941406 L 94.988281 26.941406 "/>
<path style=" stroke:none;fill-rule:nonzero;fill:rgb(0%,0%,0%);fill-opacity:1;" d="M 104.722656 24.828125 C 102.195312 24.941406 103.289062 28.789062 103.0625 31.207031 L 101.894531 31.207031 L 101.894531 26.640625 C 101.894531 25.542969 101.707031 24.753906 100.574219 24.828125 C 98.082031 24.980469 99.140625 28.753906 98.914062 31.207031 L 97.742188 31.207031 L 97.707031 24.035156 L 98.835938 24.035156 C 98.875 24.414062 98.800781 24.941406 98.914062 25.242188 C 99.289062 23.582031 102.648438 23.355469 102.949219 25.242188 C 103.367188 24.449219 103.96875 23.921875 105.140625 23.882812 C 108.347656 23.808594 106.914062 28.375 107.214844 31.207031 L 106.046875 31.207031 L 106.046875 26.640625 C 106.046875 25.542969 105.855469 24.789062 104.722656 24.828125 "/>
<path style=" stroke:none;fill-rule:nonzero;fill:rgb(0%,0%,0%);fill-opacity:1;" d="M 111.855469 23.882812 C 114.234375 23.882812 115.101562 25.46875 115.027344 27.886719 L 109.933594 27.886719 C 109.933594 29.394531 110.460938 30.414062 111.933594 30.453125 C 112.914062 30.488281 113.554688 30 113.78125 29.355469 L 114.835938 29.660156 C 114.421875 30.714844 113.441406 31.359375 111.933594 31.359375 C 109.742188 31.359375 108.609375 29.960938 108.648438 27.582031 C 108.6875 25.28125 109.628906 23.882812 111.855469 23.882812 Z M 113.820312 26.941406 C 114.046875 24.675781 110.949219 24.035156 110.160156 25.882812 C 110.046875 26.148438 109.933594 26.527344 109.933594 26.941406 L 113.820312 26.941406 "/>
<path style=" stroke:none;fill-rule:nonzero;fill:rgb(0%,0%,0%);fill-opacity:1;" d="M 120.046875 23.882812 C 123.402344 23.734375 122.046875 28.261719 122.308594 31.207031 L 121.101562 31.207031 L 121.101562 26.640625 C 121.101562 25.46875 120.800781 24.789062 119.628906 24.828125 C 116.914062 24.902344 117.96875 28.679688 117.78125 31.207031 L 116.574219 31.207031 L 116.535156 24.035156 L 117.667969 24.035156 C 117.707031 24.414062 117.628906 24.941406 117.742188 25.242188 C 118.160156 24.414062 118.835938 23.921875 120.046875 23.882812 "/>
<path style=" stroke:none;fill-rule:nonzero;fill:rgb(0%,0%,0%);fill-opacity:1;" d="M 125.402344 29.433594 C 125.328125 30.339844 126.082031 30.527344 126.835938 30.261719 L 126.835938 31.167969 C 125.59375 31.546875 124.195312 31.359375 124.195312 29.695312 L 124.195312 24.902344 L 123.367188 24.902344 L 123.367188 24.035156 L 124.273438 24.035156 L 124.609375 22.410156 L 125.402344 22.410156 L 125.402344 24.035156 L 126.722656 24.035156 L 126.722656 24.902344 L 125.402344 24.902344 L 125.402344 29.433594 "/>
<path style=" stroke:none;fill-rule:nonzero;fill:rgb(0%,0%,0%);fill-opacity:1;" d="M 76.535156 32.152344 L 131.402344 32.152344 L 131.402344 33.148438 L 76.535156 33.148438 Z M 76.535156 32.152344 "/>
<path style=" stroke:none;fill-rule:nonzero;fill:rgb(0%,0%,0%);fill-opacity:1;" d="M 138.046875 31.207031 L 134.308594 26.675781 L 133.101562 27.621094 L 133.101562 31.207031 L 131.855469 31.207031 L 131.855469 21.84375 L 133.101562 21.84375 L 133.101562 26.527344 L 137.59375 21.84375 L 139.101562 21.84375 L 135.140625 25.921875 L 139.628906 31.207031 L 138.046875 31.207031 "/>
<path style=" stroke:none;fill-rule:nonzero;fill:rgb(0%,0%,0%);fill-opacity:1;" d="M 143.554688 23.882812 C 145.933594 23.882812 146.800781 25.46875 146.722656 27.886719 L 141.628906 27.886719 C 141.628906 29.394531 142.160156 30.414062 143.628906 30.453125 C 144.609375 30.488281 145.253906 30 145.480469 29.355469 L 146.535156 29.660156 C 146.121094 30.714844 145.140625 31.359375 143.628906 31.359375 C 141.441406 31.359375 140.308594 29.960938 140.347656 27.582031 C 140.386719 25.28125 141.328125 23.882812 143.554688 23.882812 Z M 145.515625 26.941406 C 145.742188 24.675781 142.648438 24.035156 141.855469 25.882812 C 141.742188 26.148438 141.628906 26.527344 141.628906 26.941406 L 145.515625 26.941406 "/>
<path style=" stroke:none;fill-rule:nonzero;fill:rgb(0%,0%,0%);fill-opacity:1;" d="M 154.082031 24.035156 L 150.835938 32.375 C 150.308594 33.433594 149.441406 34.300781 147.78125 33.960938 L 147.78125 33.054688 C 149.253906 33.28125 149.78125 32.300781 150.195312 31.167969 L 147.367188 24.035156 L 148.648438 24.035156 L 150.800781 29.921875 L 152.835938 24.035156 L 154.082031 24.035156 "/>
<path style=" stroke:none;fill-rule:nonzero;fill:rgb(0%,0%,0%);fill-opacity:1;" d="M 130.046875 32.152344 L 154.800781 32.152344 L 154.800781 33.148438 L 130.046875 33.148438 Z M 130.046875 32.152344 "/>
<path style="fill-rule:nonzero;fill:rgb(0%,0%,0%);fill-opacity:1;stroke-width:0.05;stroke-linecap:butt;stroke-linejoin:miter;stroke:rgb(0%,0%,0%);stroke-opacity:1;stroke-miterlimit:4;" d="M 65.468299 801.5225 L 30.402381 801.5225 L 30.402381 799.520027 L 65.468299 799.520027 Z M 233.888221 801.5225 L 216.300916 801.5225 L 216.300916 799.520027 L 233.867518 799.520027 Z M 233.888221 801.5225 " transform="matrix(0.754717,0,0,0.754926,-13.882693,-15.773855)"/>
<path style="fill-rule:nonzero;fill:rgb(0%,0%,0%);fill-opacity:1;stroke-width:0.05;stroke-linecap:butt;stroke-linejoin:miter;stroke:rgb(0%,0%,0%);stroke-opacity:1;stroke-miterlimit:4;" d="M 30.417909 801.5225 L 29.39828 801.5225 L 29.39828 799.520027 L 30.417909 799.520027 Z M 30.417909 801.5225 " transform="matrix(0.754717,0,0,0.754926,-13.882693,-15.773855)"/>
<path style=" stroke:none;fill-rule:nonzero;fill:rgb(100%,100%,100%);fill-opacity:1;" d="M 174.164062 588.558594 L 163.394531 592.0625 L 163.394531 585.0625 Z M 174.164062 588.558594 "/>
<path style="fill-rule:nonzero;fill:rgb(0%,0%,0%);fill-opacity:1;stroke-width:0.05;stroke-linecap:butt;stroke-linejoin:miter;stroke:rgb(0%,0%,0%);stroke-opacity:1;stroke-miterlimit:4;" d="M 252.401991 800.518677 L 233.898573 806.541617 L 233.898573 794.50091 Z M 235.9016 803.778515 L 245.921912 800.529025 L 235.891248 797.269186 Z M 235.9016 803.778515 " transform="matrix(0.754717,0,0,0.754926,-13.882693,-15.773855)"/>
<path style=" stroke:none;fill-rule:nonzero;fill:rgb(0%,0%,0%);fill-opacity:1;" d="M 39.832031 576.976562 C 36.886719 576.371094 37.832031 580.410156 37.679688 583.128906 L 36.472656 583.128906 L 36.433594 575.957031 L 37.566406 575.957031 C 37.605469 576.410156 37.527344 577.050781 37.640625 577.429688 C 37.867188 576.410156 38.507812 575.578125 39.832031 575.878906 L 39.832031 576.976562 "/>
<path style=" stroke:none;fill-rule:nonzero;fill:rgb(0%,0%,0%);fill-opacity:1;" d="M 43.226562 575.804688 C 44.394531 575.804688 45.039062 576.296875 45.492188 577.050781 L 45.453125 573.277344 L 46.660156 573.277344 L 46.699219 583.128906 L 45.566406 583.128906 C 45.492188 582.75 45.566406 582.257812 45.453125 581.957031 C 45.074219 582.824219 44.394531 583.277344 43.226562 583.277344 C 41.226562 583.277344 40.621094 581.808594 40.585938 579.578125 C 40.585938 577.089844 41.453125 575.804688 43.226562 575.804688 Z M 43.566406 576.710938 C 42.054688 576.710938 41.832031 577.996094 41.832031 579.542969 C 41.832031 581.050781 42.054688 582.335938 43.527344 582.335938 C 45.113281 582.335938 45.453125 581.128906 45.453125 579.464844 C 45.453125 577.882812 45.113281 576.671875 43.566406 576.710938 "/>
<path style=" stroke:none;fill-rule:nonzero;fill:rgb(0%,0%,0%);fill-opacity:1;" d="M 51.378906 574.296875 C 50.207031 573.957031 49.792969 574.671875 49.945312 575.957031 L 51.378906 575.957031 L 51.378906 576.824219 L 49.945312 576.824219 L 49.945312 583.128906 L 48.773438 583.128906 L 48.773438 576.824219 L 47.753906 576.824219 L 47.753906 575.957031 L 48.773438 575.957031 C 48.507812 573.992188 49.414062 572.859375 51.378906 573.390625 L 51.378906 574.296875 "/>
<path style=" stroke:none;fill-rule:nonzero;fill:rgb(0%,0%,0%);fill-opacity:1;" d="M 56.433594 577.730469 C 56.320312 576.445312 53.1875 576.296875 53.152344 577.730469 C 53.71875 579.730469 57.492188 578.183594 57.640625 581.128906 C 57.792969 584.070312 51.980469 583.921875 51.71875 581.429688 L 52.773438 581.242188 C 52.925781 582.597656 56.433594 582.9375 56.472656 581.242188 C 56.09375 579.125 52.207031 580.675781 52.019531 577.84375 C 51.867188 575.691406 55.113281 575.464844 56.621094 576.257812 C 57.074219 576.523438 57.414062 576.976562 57.527344 577.578125 "/>
<path style=" stroke:none;fill-rule:nonzero;fill:rgb(0%,0%,0%);fill-opacity:1;" d="M 59.378906 577.316406 L 59.378906 575.957031 L 60.660156 575.957031 L 60.660156 577.316406 Z M 59.378906 583.128906 L 59.378906 581.769531 L 60.660156 581.769531 L 60.660156 583.128906 L 59.378906 583.128906 "/>
<path style=" stroke:none;fill-rule:nonzero;fill:rgb(0%,0%,0%);fill-opacity:1;" d="M 67 577.730469 C 66.886719 576.445312 63.753906 576.296875 63.71875 577.730469 C 64.28125 579.730469 68.054688 578.183594 68.207031 581.128906 C 68.359375 584.070312 62.546875 583.921875 62.28125 581.429688 L 63.339844 581.242188 C 63.492188 582.597656 67 582.9375 67.039062 581.242188 C 66.660156 579.125 62.773438 580.675781 62.585938 577.84375 C 62.433594 575.691406 65.679688 575.464844 67.1875 576.257812 C 67.640625 576.523438 67.980469 576.976562 68.09375 577.578125 "/>
<path style=" stroke:none;fill-rule:nonzero;fill:rgb(0%,0%,0%);fill-opacity:1;" d="M 71.867188 583.277344 C 68.507812 583.429688 69.832031 578.898438 69.566406 575.957031 L 70.773438 575.957031 L 70.773438 580.484375 C 70.773438 581.65625 71.039062 582.371094 72.246094 582.335938 C 74.960938 582.257812 73.945312 578.523438 74.132812 575.957031 L 75.300781 575.957031 L 75.339844 583.128906 L 74.207031 583.128906 C 74.167969 582.75 74.246094 582.183594 74.132812 581.882812 C 73.71875 582.710938 73.074219 583.242188 71.867188 583.277344 "/>
<path style=" stroke:none;fill-rule:nonzero;fill:rgb(0%,0%,0%);fill-opacity:1;" d="M 80.585938 575.804688 C 82.585938 575.804688 83.1875 577.277344 83.226562 579.503906 C 83.226562 581.996094 82.359375 583.277344 80.585938 583.277344 C 79.414062 583.242188 78.734375 582.863281 78.359375 581.996094 L 78.28125 583.128906 L 77.113281 583.128906 L 77.152344 573.277344 L 78.359375 573.277344 L 78.359375 577.089844 C 78.734375 576.21875 79.414062 575.804688 80.585938 575.804688 Z M 80.28125 582.371094 C 81.792969 582.371094 81.980469 581.089844 81.980469 579.542969 C 81.980469 578.03125 81.792969 576.710938 80.28125 576.75 C 78.699219 576.75 78.359375 577.957031 78.359375 579.617188 C 78.359375 581.242188 78.734375 582.371094 80.28125 582.371094 "/>
<path style=" stroke:none;fill-rule:nonzero;fill:rgb(0%,0%,0%);fill-opacity:1;" d="M 91.792969 576.371094 C 91.414062 575.3125 90.472656 574.671875 89.039062 574.671875 C 86.8125 574.671875 85.753906 576.183594 85.753906 578.410156 C 85.753906 580.675781 86.847656 582.222656 89.113281 582.222656 C 90.734375 582.222656 91.453125 581.316406 92.054688 580.257812 L 93.074219 580.789062 C 92.394531 582.222656 91.152344 583.277344 89.039062 583.277344 C 86.019531 583.277344 84.621094 581.390625 84.472656 578.410156 C 84.246094 574.484375 88.207031 572.632812 91.527344 574.21875 C 92.246094 574.558594 92.699219 575.203125 93 575.957031 "/>
<path style=" stroke:none;fill-rule:nonzero;fill:rgb(0%,0%,0%);fill-opacity:1;" d="M 94.472656 583.128906 L 94.472656 573.277344 L 95.679688 573.277344 L 95.679688 583.128906 L 94.472656 583.128906 "/>
<path style=" stroke:none;fill-rule:nonzero;fill:rgb(0%,0%,0%);fill-opacity:1;" d="M 101.867188 581.769531 C 101.300781 582.5625 100.699219 583.316406 99.300781 583.277344 C 97.945312 583.242188 97.113281 582.484375 97.113281 581.128906 C 97.074219 578.710938 99.492188 578.75 101.832031 578.75 C 101.945312 577.429688 101.492188 576.710938 100.28125 576.710938 C 99.378906 576.75 98.734375 576.976562 98.699219 577.882812 L 97.453125 577.769531 C 97.640625 576.371094 98.699219 575.804688 100.320312 575.804688 C 102.019531 575.804688 103.039062 576.558594 103.039062 578.222656 L 103.039062 581.316406 C 103 582.070312 103.300781 582.523438 104.09375 582.335938 L 104.09375 583.089844 C 102.925781 583.429688 101.792969 583.015625 101.867188 581.769531 Z M 98.359375 581.128906 C 98.359375 581.882812 98.8125 582.371094 99.566406 582.371094 C 101.113281 582.257812 101.945312 581.277344 101.832031 579.578125 C 100.207031 579.65625 98.359375 579.390625 98.359375 581.128906 "/>
<path style=" stroke:none;fill-rule:nonzero;fill:rgb(0%,0%,0%);fill-opacity:1;" d="M 109.1875 577.730469 C 109.074219 576.445312 105.945312 576.296875 105.90625 577.730469 C 106.472656 579.730469 110.246094 578.183594 110.394531 581.128906 C 110.546875 584.070312 104.734375 583.921875 104.472656 581.429688 L 105.527344 581.242188 C 105.679688 582.597656 109.1875 582.9375 109.226562 581.242188 C 108.847656 579.125 104.960938 580.675781 104.773438 577.84375 C 104.621094 575.691406 107.867188 575.464844 109.378906 576.257812 C 109.832031 576.523438 110.167969 576.976562 110.28125 577.578125 "/>
<path style=" stroke:none;fill-rule:nonzero;fill:rgb(0%,0%,0%);fill-opacity:1;" d="M 115.980469 577.730469 C 115.867188 576.445312 112.734375 576.296875 112.699219 577.730469 C 113.265625 579.730469 117.039062 578.183594 117.1875 581.128906 C 117.339844 584.070312 111.527344 583.921875 111.265625 581.429688 L 112.320312 581.242188 C 112.472656 582.597656 115.980469 582.9375 116.019531 581.242188 C 115.640625 579.125 111.753906 580.675781 111.566406 577.84375 C 111.414062 575.691406 114.660156 575.464844 116.167969 576.257812 C 116.621094 576.523438 116.960938 576.976562 117.074219 577.578125 "/>
<path style=" stroke:none;fill-rule:nonzero;fill:rgb(0%,0%,0%);fill-opacity:1;" d="M 122.960938 573.652344 C 126.019531 573.652344 127.605469 575.390625 127.605469 578.410156 C 127.605469 581.390625 125.945312 583.277344 122.960938 583.277344 C 119.90625 583.277344 118.320312 581.429688 118.320312 578.410156 C 118.320312 575.390625 119.90625 573.652344 122.960938 573.652344 Z M 122.960938 582.222656 C 125.339844 582.222656 126.320312 580.675781 126.320312 578.410156 C 126.320312 576.144531 125.226562 574.671875 122.960938 574.671875 C 120.660156 574.671875 119.605469 576.144531 119.605469 578.410156 C 119.605469 580.675781 120.660156 582.183594 122.960938 582.222656 "/>
<path style=" stroke:none;fill-rule:nonzero;fill:rgb(0%,0%,0%);fill-opacity:1;" d="M 132.054688 574.296875 C 130.886719 573.957031 130.472656 574.671875 130.621094 575.957031 L 132.054688 575.957031 L 132.054688 576.824219 L 130.621094 576.824219 L 130.621094 583.128906 L 129.453125 583.128906 L 129.453125 576.824219 L 128.433594 576.824219 L 128.433594 575.957031 L 129.453125 575.957031 C 129.1875 573.992188 130.09375 572.859375 132.054688 573.390625 L 132.054688 574.296875 "/>
<path style=" stroke:none;fill-rule:nonzero;fill:rgb(0%,0%,0%);fill-opacity:1;" d="M 135.792969 583.277344 L 138.507812 573.277344 L 139.566406 573.277344 L 136.847656 583.277344 L 135.792969 583.277344 "/>
<path style=" stroke:none;fill-rule:nonzero;fill:rgb(0%,0%,0%);fill-opacity:1;" d="M 39.832031 593.28125 C 36.886719 592.675781 37.832031 596.714844 37.679688 599.433594 L 36.472656 599.433594 L 36.433594 592.261719 L 37.566406 592.261719 C 37.605469 592.714844 37.527344 593.355469 37.640625 593.734375 C 37.867188 592.714844 38.507812 591.886719 39.832031 592.1875 L 39.832031 593.28125 "/>
<path style=" stroke:none;fill-rule:nonzero;fill:rgb(0%,0%,0%);fill-opacity:1;" d="M 43.226562 592.113281 C 44.394531 592.113281 45.039062 592.601562 45.492188 593.355469 L 45.453125 589.582031 L 46.660156 589.582031 L 46.699219 599.433594 L 45.566406 599.433594 C 45.492188 599.058594 45.566406 598.566406 45.453125 598.265625 C 45.074219 599.132812 44.394531 599.585938 43.226562 599.585938 C 41.226562 599.585938 40.621094 598.113281 40.585938 595.886719 C 40.585938 593.394531 41.453125 592.113281 43.226562 592.113281 Z M 43.566406 593.015625 C 42.054688 593.015625 41.832031 594.300781 41.832031 595.847656 C 41.832031 597.359375 42.054688 598.640625 43.527344 598.640625 C 45.113281 598.640625 45.453125 597.433594 45.453125 595.773438 C 45.453125 594.1875 45.113281 592.980469 43.566406 593.015625 "/>
<path style=" stroke:none;fill-rule:nonzero;fill:rgb(0%,0%,0%);fill-opacity:1;" d="M 51.378906 590.601562 C 50.207031 590.261719 49.792969 590.980469 49.945312 592.261719 L 51.378906 592.261719 L 51.378906 593.128906 L 49.945312 593.128906 L 49.945312 599.433594 L 48.773438 599.433594 L 48.773438 593.128906 L 47.753906 593.128906 L 47.753906 592.261719 L 48.773438 592.261719 C 48.507812 590.300781 49.414062 589.167969 51.378906 589.695312 L 51.378906 590.601562 "/>
<path style=" stroke:none;fill-rule:nonzero;fill:rgb(0%,0%,0%);fill-opacity:1;" d="M 56.433594 594.035156 C 56.320312 592.753906 53.1875 592.601562 53.152344 594.035156 C 53.71875 596.039062 57.492188 594.488281 57.640625 597.433594 C 57.792969 600.378906 51.980469 600.226562 51.71875 597.734375 L 52.773438 597.546875 C 52.925781 598.90625 56.433594 599.246094 56.472656 597.546875 C 56.09375 595.433594 52.207031 596.980469 52.019531 594.148438 C 51.867188 592 55.113281 591.773438 56.621094 592.566406 C 57.074219 592.828125 57.414062 593.28125 57.527344 593.886719 "/>
<path style=" stroke:none;fill-rule:nonzero;fill:rgb(0%,0%,0%);fill-opacity:1;" d="M 59.378906 593.621094 L 59.378906 592.261719 L 60.660156 592.261719 L 60.660156 593.621094 Z M 59.378906 599.433594 L 59.378906 598.074219 L 60.660156 598.074219 L 60.660156 599.433594 L 59.378906 599.433594 "/>
<path style=" stroke:none;fill-rule:nonzero;fill:rgb(0%,0%,0%);fill-opacity:1;" d="M 67 594.035156 C 66.886719 592.753906 63.753906 592.601562 63.71875 594.035156 C 64.28125 596.039062 68.054688 594.488281 68.207031 597.433594 C 68.359375 600.378906 62.546875 600.226562 62.28125 597.734375 L 63.339844 597.546875 C 63.492188 598.90625 67 599.246094 67.039062 597.546875 C 66.660156 595.433594 62.773438 596.980469 62.585938 594.148438 C 62.433594 592 65.679688 591.773438 67.1875 592.566406 C 67.640625 592.828125 67.980469 593.28125 68.09375 593.886719 "/>
<path style=" stroke:none;fill-rule:nonzero;fill:rgb(0%,0%,0%);fill-opacity:1;" d="M 71.867188 599.585938 C 68.507812 599.734375 69.832031 595.207031 69.566406 592.261719 L 70.773438 592.261719 L 70.773438 596.792969 C 70.773438 597.960938 71.039062 598.679688 72.246094 598.640625 C 74.960938 598.566406 73.945312 594.828125 74.132812 592.261719 L 75.300781 592.261719 L 75.339844 599.433594 L 74.207031 599.433594 C 74.167969 599.058594 74.246094 598.492188 74.132812 598.1875 C 73.71875 599.019531 73.074219 599.546875 71.867188 599.585938 "/>
<path style=" stroke:none;fill-rule:nonzero;fill:rgb(0%,0%,0%);fill-opacity:1;" d="M 80.585938 592.113281 C 82.585938 592.113281 83.1875 593.582031 83.226562 595.8125 C 83.226562 598.300781 82.359375 599.585938 80.585938 599.585938 C 79.414062 599.546875 78.734375 599.171875 78.359375 598.300781 L 78.28125 599.433594 L 77.113281 599.433594 L 77.152344 589.582031 L 78.359375 589.582031 L 78.359375 593.394531 C 78.734375 592.527344 79.414062 592.113281 80.585938 592.113281 Z M 80.28125 598.679688 C 81.792969 598.679688 81.980469 597.394531 81.980469 595.847656 C 81.980469 594.339844 81.792969 593.015625 80.28125 593.054688 C 78.699219 593.054688 78.359375 594.261719 78.359375 595.925781 C 78.359375 597.546875 78.734375 598.679688 80.28125 598.679688 "/>
<path style=" stroke:none;fill-rule:nonzero;fill:rgb(0%,0%,0%);fill-opacity:1;" d="M 84.925781 590.074219 C 88.207031 590.109375 92.132812 589.507812 92.132812 592.902344 C 92.132812 595.847656 89.226562 595.925781 86.167969 595.773438 L 86.167969 599.433594 L 84.925781 599.433594 Z M 86.167969 594.792969 C 88.320312 594.792969 90.847656 595.207031 90.847656 592.902344 C 90.847656 590.675781 88.28125 591.128906 86.167969 591.09375 L 86.167969 594.792969 "/>
<path style=" stroke:none;fill-rule:nonzero;fill:rgb(0%,0%,0%);fill-opacity:1;" d="M 97.152344 593.28125 C 94.207031 592.675781 95.152344 596.714844 95 599.433594 L 93.792969 599.433594 L 93.753906 592.261719 L 94.886719 592.261719 C 94.925781 592.714844 94.847656 593.355469 94.960938 593.734375 C 95.1875 592.714844 95.832031 591.886719 97.152344 592.1875 L 97.152344 593.28125 "/>
<path style=" stroke:none;fill-rule:nonzero;fill:rgb(0%,0%,0%);fill-opacity:1;" d="M 101.113281 592.113281 C 103.453125 592.074219 104.320312 593.507812 104.320312 595.847656 C 104.359375 598.226562 103.300781 599.585938 101.074219 599.585938 C 98.847656 599.585938 97.945312 598.113281 97.90625 595.847656 C 97.90625 593.355469 98.960938 592.113281 101.113281 592.113281 Z M 101.074219 598.679688 C 102.734375 598.71875 103.074219 597.507812 103.074219 595.847656 C 103.074219 594.226562 102.773438 593.015625 101.152344 593.015625 C 99.527344 593.015625 99.152344 594.226562 99.152344 595.847656 C 99.152344 597.472656 99.527344 598.640625 101.074219 598.679688 "/>
<path style=" stroke:none;fill-rule:nonzero;fill:rgb(0%,0%,0%);fill-opacity:1;" d="M 109.226562 592.113281 C 111.300781 592.148438 111.867188 593.660156 111.867188 595.8125 C 111.867188 597.960938 111.265625 599.511719 109.226562 599.585938 C 108.054688 599.585938 107.378906 599.09375 106.960938 598.300781 L 107 602.265625 L 105.792969 602.265625 L 105.753906 592.261719 L 106.925781 592.261719 L 107 593.394531 C 107.378906 592.601562 108.054688 592.113281 109.226562 592.113281 Z M 108.925781 598.679688 C 110.433594 598.679688 110.621094 597.394531 110.621094 595.847656 C 110.621094 594.300781 110.394531 593.09375 108.925781 593.054688 C 107.339844 593.054688 107 594.261719 107 595.925781 C 107 597.546875 107.378906 598.679688 108.925781 598.679688 "/>
<path style=" stroke:none;fill-rule:nonzero;fill:rgb(0%,0%,0%);fill-opacity:1;" d="M 116.207031 592.113281 C 118.585938 592.113281 119.453125 593.695312 119.378906 596.113281 L 114.28125 596.113281 C 114.28125 597.621094 114.8125 598.640625 116.28125 598.679688 C 117.265625 598.71875 117.90625 598.226562 118.132812 597.585938 L 119.1875 597.886719 C 118.773438 598.945312 117.792969 599.585938 116.28125 599.585938 C 114.09375 599.585938 112.960938 598.1875 113 595.8125 C 113.039062 593.507812 113.980469 592.113281 116.207031 592.113281 Z M 118.167969 595.167969 C 118.394531 592.902344 115.300781 592.261719 114.507812 594.113281 C 114.394531 594.375 114.28125 594.753906 114.28125 595.167969 L 118.167969 595.167969 "/>
<path style=" stroke:none;fill-rule:nonzero;fill:rgb(0%,0%,0%);fill-opacity:1;" d="M 124.28125 593.28125 C 121.339844 592.675781 122.28125 596.714844 122.132812 599.433594 L 120.925781 599.433594 L 120.886719 592.261719 L 122.019531 592.261719 C 122.054688 592.714844 121.980469 593.355469 122.09375 593.734375 C 122.320312 592.714844 122.960938 591.886719 124.28125 592.1875 L 124.28125 593.28125 "/>
<path style=" stroke:none;fill-rule:nonzero;fill:rgb(0%,0%,0%);fill-opacity:1;" d="M 126.699219 597.660156 C 126.621094 598.566406 127.378906 598.753906 128.132812 598.492188 L 128.132812 599.398438 C 126.886719 599.773438 125.492188 599.585938 125.492188 597.925781 L 125.492188 593.128906 L 124.660156 593.128906 L 124.660156 592.261719 L 125.566406 592.261719 L 125.90625 590.640625 L 126.699219 590.640625 L 126.699219 592.261719 L 128.019531 592.261719 L 128.019531 593.128906 L 126.699219 593.128906 L 126.699219 597.660156 "/>
<path style=" stroke:none;fill-rule:nonzero;fill:rgb(0%,0%,0%);fill-opacity:1;" d="M 135 592.261719 L 131.753906 600.605469 C 131.226562 601.660156 130.359375 602.53125 128.699219 602.191406 L 128.699219 601.285156 C 130.167969 601.511719 130.699219 600.527344 131.113281 599.398438 L 128.28125 592.261719 L 129.566406 592.261719 L 131.71875 598.152344 L 133.753906 592.261719 L 135 592.261719 "/>
<path style=" stroke:none;fill-rule:nonzero;fill:rgb(0%,0%,0%);fill-opacity:1;" d="M 140.320312 589.960938 C 143.378906 589.960938 144.960938 591.695312 144.960938 594.714844 C 144.960938 597.699219 143.300781 599.585938 140.320312 599.585938 C 137.265625 599.585938 135.679688 597.734375 135.679688 594.714844 C 135.679688 591.695312 137.265625 589.960938 140.320312 589.960938 Z M 140.320312 598.527344 C 142.699219 598.527344 143.679688 596.980469 143.679688 594.714844 C 143.679688 592.453125 142.585938 590.980469 140.320312 590.980469 C 138.019531 590.980469 136.960938 592.453125 136.960938 594.714844 C 136.960938 596.980469 138.019531 598.492188 140.320312 598.527344 "/>
<path style=" stroke:none;fill-rule:nonzero;fill:rgb(0%,0%,0%);fill-opacity:1;" d="M 149.414062 590.601562 C 148.246094 590.261719 147.832031 590.980469 147.980469 592.261719 L 149.414062 592.261719 L 149.414062 593.128906 L 147.980469 593.128906 L 147.980469 599.433594 L 146.8125 599.433594 L 146.8125 593.128906 L 145.792969 593.128906 L 145.792969 592.261719 L 146.8125 592.261719 C 146.546875 590.300781 147.453125 589.167969 149.414062 589.695312 L 149.414062 590.601562 "/>
<path style="fill-rule:nonzero;fill:rgb(0%,0%,0%);fill-opacity:1;stroke-width:0.05;stroke-linecap:butt;stroke-linejoin:miter;stroke:rgb(0%,0%,0%);stroke-opacity:1;stroke-miterlimit:4;" d="M 94.970252 747.000401 L 30.402381 747.000401 L 30.402381 744.997928 L 94.970252 744.997928 Z M 250.569764 747.000401 L 186.819666 747.000401 L 186.819666 744.997928 L 250.580116 744.997928 Z M 250.569764 747.000401 " transform="matrix(0.754717,0,0,0.754926,-13.882693,-15.773855)"/>
<path style="fill-rule:nonzero;fill:rgb(0%,0%,0%);fill-opacity:1;stroke-width:0.05;stroke-linecap:butt;stroke-linejoin:miter;stroke:rgb(0%,0%,0%);stroke-opacity:1;stroke-miterlimit:4;" d="M 30.417909 747.000401 L 29.39828 747.000401 L 29.39828 744.997928 L 30.417909 744.997928 Z M 252.401991 746.001752 L 233.71742 757.038635 L 232.718494 755.320751 L 248.468397 746.001752 L 232.708143 736.677577 L 233.727772 734.959694 Z M 252.401991 746.001752 " transform="matrix(0.754717,0,0,0.754926,-13.882693,-15.773855)"/>
<path style=" stroke:none;fill-rule:nonzero;fill:rgb(0%,0%,0%);fill-opacity:1;" d="M 62.09375 543.964844 C 59.152344 543.363281 60.09375 547.402344 59.945312 550.117188 L 58.734375 550.117188 L 58.699219 542.945312 L 59.832031 542.945312 C 59.867188 543.398438 59.792969 544.042969 59.90625 544.417969 C 60.132812 543.398438 60.773438 542.570312 62.09375 542.871094 L 62.09375 543.964844 "/>
<path style=" stroke:none;fill-rule:nonzero;fill:rgb(0%,0%,0%);fill-opacity:1;" d="M 65.492188 542.796875 C 66.660156 542.796875 67.300781 543.285156 67.753906 544.042969 L 67.71875 540.265625 L 68.925781 540.265625 L 68.960938 550.117188 L 67.832031 550.117188 C 67.753906 549.742188 67.832031 549.25 67.71875 548.949219 C 67.339844 549.816406 66.660156 550.269531 65.492188 550.269531 C 63.492188 550.269531 62.886719 548.796875 62.847656 546.570312 C 62.847656 544.078125 63.71875 542.796875 65.492188 542.796875 Z M 65.832031 543.703125 C 64.320312 543.703125 64.09375 544.984375 64.09375 546.53125 C 64.09375 548.042969 64.320312 549.324219 65.792969 549.324219 C 67.378906 549.324219 67.71875 548.117188 67.71875 546.457031 C 67.71875 544.871094 67.378906 543.664062 65.832031 543.703125 "/>
<path style=" stroke:none;fill-rule:nonzero;fill:rgb(0%,0%,0%);fill-opacity:1;" d="M 73.640625 541.285156 C 72.472656 540.945312 72.054688 541.664062 72.207031 542.945312 L 73.640625 542.945312 L 73.640625 543.816406 L 72.207031 543.816406 L 72.207031 550.117188 L 71.039062 550.117188 L 71.039062 543.816406 L 70.019531 543.816406 L 70.019531 542.945312 L 71.039062 542.945312 C 70.773438 540.984375 71.679688 539.851562 73.640625 540.378906 L 73.640625 541.285156 "/>
<path style=" stroke:none;fill-rule:nonzero;fill:rgb(0%,0%,0%);fill-opacity:1;" d="M 74.847656 544.304688 L 74.847656 542.945312 L 76.132812 542.945312 L 76.132812 544.304688 Z M 74.847656 550.117188 L 74.847656 548.761719 L 76.132812 548.761719 L 76.132812 550.117188 L 74.847656 550.117188 "/>
<path style=" stroke:none;fill-rule:nonzero;fill:rgb(0%,0%,0%);fill-opacity:1;" d="M 81.71875 542.796875 C 83.792969 542.832031 84.359375 544.34375 84.359375 546.496094 C 84.359375 548.648438 83.753906 550.195312 81.71875 550.269531 C 80.546875 550.269531 79.867188 549.777344 79.453125 548.988281 L 79.492188 552.949219 L 78.28125 552.949219 L 78.246094 542.945312 L 79.414062 542.945312 L 79.492188 544.078125 C 79.867188 543.285156 80.546875 542.796875 81.71875 542.796875 Z M 81.414062 549.363281 C 82.925781 549.363281 83.113281 548.082031 83.113281 546.53125 C 83.113281 544.984375 82.886719 543.777344 81.414062 543.738281 C 79.832031 543.738281 79.492188 544.949219 79.492188 546.609375 C 79.492188 548.230469 79.867188 549.363281 81.414062 549.363281 "/>
<path style=" stroke:none;fill-rule:nonzero;fill:rgb(0%,0%,0%);fill-opacity:1;" d="M 89.226562 543.964844 C 86.28125 543.363281 87.226562 547.402344 87.074219 550.117188 L 85.867188 550.117188 L 85.832031 542.945312 L 86.960938 542.945312 C 87 543.398438 86.925781 544.042969 87.039062 544.417969 C 87.265625 543.398438 87.90625 542.570312 89.226562 542.871094 L 89.226562 543.964844 "/>
<path style=" stroke:none;fill-rule:nonzero;fill:rgb(0%,0%,0%);fill-opacity:1;" d="M 93.1875 542.796875 C 95.527344 542.757812 96.394531 544.191406 96.394531 546.53125 C 96.433594 548.910156 95.378906 550.269531 93.152344 550.269531 C 90.925781 550.269531 90.019531 548.796875 89.980469 546.53125 C 89.980469 544.042969 91.039062 542.796875 93.1875 542.796875 Z M 93.152344 549.363281 C 94.8125 549.402344 95.152344 548.195312 95.152344 546.53125 C 95.152344 544.910156 94.847656 543.703125 93.226562 543.703125 C 91.605469 543.703125 91.226562 544.910156 91.226562 546.53125 C 91.226562 548.15625 91.605469 549.324219 93.152344 549.363281 "/>
<path style=" stroke:none;fill-rule:nonzero;fill:rgb(0%,0%,0%);fill-opacity:1;" d="M 101.300781 542.796875 C 103.378906 542.832031 103.945312 544.34375 103.945312 546.496094 C 103.945312 548.648438 103.339844 550.195312 101.300781 550.269531 C 100.132812 550.269531 99.453125 549.777344 99.039062 548.988281 L 99.074219 552.949219 L 97.867188 552.949219 L 97.832031 542.945312 L 99 542.945312 L 99.074219 544.078125 C 99.453125 543.285156 100.132812 542.796875 101.300781 542.796875 Z M 101 549.363281 C 102.507812 549.363281 102.699219 548.082031 102.699219 546.53125 C 102.699219 544.984375 102.472656 543.777344 101 543.738281 C 99.414062 543.738281 99.074219 544.949219 99.074219 546.609375 C 99.074219 548.230469 99.453125 549.363281 101 549.363281 "/>
<path style=" stroke:none;fill-rule:nonzero;fill:rgb(0%,0%,0%);fill-opacity:1;" d="M 108.28125 542.796875 C 110.660156 542.796875 111.527344 544.382812 111.453125 546.796875 L 106.359375 546.796875 C 106.359375 548.308594 106.886719 549.324219 108.359375 549.363281 C 109.339844 549.402344 109.980469 548.910156 110.207031 548.269531 L 111.265625 548.570312 C 110.847656 549.628906 109.867188 550.269531 108.359375 550.269531 C 106.167969 550.269531 105.039062 548.875 105.074219 546.496094 C 105.113281 544.191406 106.054688 542.796875 108.28125 542.796875 Z M 110.246094 545.851562 C 110.472656 543.589844 107.378906 542.945312 106.585938 544.796875 C 106.472656 545.0625 106.359375 545.4375 106.359375 545.851562 L 110.246094 545.851562 "/>
<path style=" stroke:none;fill-rule:nonzero;fill:rgb(0%,0%,0%);fill-opacity:1;" d="M 116.359375 543.964844 C 113.414062 543.363281 114.359375 547.402344 114.207031 550.117188 L 113 550.117188 L 112.960938 542.945312 L 114.09375 542.945312 C 114.132812 543.398438 114.054688 544.042969 114.167969 544.417969 C 114.394531 543.398438 115.039062 542.570312 116.359375 542.871094 L 116.359375 543.964844 "/>
<path style=" stroke:none;fill-rule:nonzero;fill:rgb(0%,0%,0%);fill-opacity:1;" d="M 118.773438 548.34375 C 118.699219 549.25 119.453125 549.4375 120.207031 549.175781 L 120.207031 550.082031 C 118.960938 550.457031 117.566406 550.269531 117.566406 548.609375 L 117.566406 543.816406 L 116.734375 543.816406 L 116.734375 542.945312 L 117.640625 542.945312 L 117.980469 541.324219 L 118.773438 541.324219 L 118.773438 542.945312 L 120.09375 542.945312 L 120.09375 543.816406 L 118.773438 543.816406 L 118.773438 548.34375 "/>
<path style=" stroke:none;fill-rule:nonzero;fill:rgb(0%,0%,0%);fill-opacity:1;" d="M 127.074219 542.945312 L 123.832031 551.289062 C 123.300781 552.347656 122.433594 553.214844 120.773438 552.875 L 120.773438 551.96875 C 122.246094 552.195312 122.773438 551.214844 123.1875 550.082031 L 120.359375 542.945312 L 121.640625 542.945312 L 123.792969 548.835938 L 125.832031 542.945312 L 127.074219 542.945312 "/>
<path style="fill-rule:nonzero;fill:rgb(100%,100%,100%);fill-opacity:1;stroke-width:2;stroke-linecap:butt;stroke-linejoin:miter;stroke:rgb(0%,0%,0%);stroke-opacity:1;stroke-miterlimit:4;" d="M 60.898084 552.398367 C 60.908436 549.309281 62.549159 546.453041 65.219862 544.900737 L 136.568006 503.40247 C 139.243885 501.844992 142.546034 501.844992 145.221912 503.40247 L 216.570057 544.900737 C 219.24076 546.453041 220.881483 549.309281 220.891834 552.398367 L 220.891834 615.897959 C 220.891834 618.66106 218.650721 620.901553 215.89203 620.901553 L 65.887537 620.901553 C 63.128846 620.901553 60.887733 618.66106 60.887733 615.897959 Z M 60.898084 552.398367 " transform="matrix(0.754717,0,0,0.754926,-13.882693,-15.773855)"/>
<path style=" stroke:none;fill-rule:nonzero;fill:rgb(0%,0%,0%);fill-opacity:1;" d="M 81.71875 394.902344 C 83.792969 394.941406 84.359375 396.449219 84.359375 398.601562 C 84.359375 400.753906 83.753906 402.300781 81.71875 402.375 C 80.546875 402.375 79.867188 401.886719 79.453125 401.09375 L 79.492188 405.054688 L 78.28125 405.054688 L 78.246094 395.054688 L 79.414062 395.054688 L 79.492188 396.183594 C 79.867188 395.390625 80.546875 394.902344 81.71875 394.902344 Z M 81.414062 401.46875 C 82.925781 401.46875 83.113281 400.1875 83.113281 398.640625 C 83.113281 397.089844 82.886719 395.882812 81.414062 395.84375 C 79.832031 395.84375 79.492188 397.054688 79.492188 398.714844 C 79.492188 400.335938 79.867188 401.46875 81.414062 401.46875 "/>
<path style=" stroke:none;fill-rule:nonzero;fill:rgb(0%,0%,0%);fill-opacity:1;" d="M 89.226562 396.070312 C 86.28125 395.46875 87.226562 399.507812 87.074219 402.226562 L 85.867188 402.226562 L 85.832031 395.054688 L 86.960938 395.054688 C 87 395.503906 86.925781 396.148438 87.039062 396.523438 C 87.265625 395.503906 87.90625 394.675781 89.226562 394.976562 L 89.226562 396.070312 "/>
<path style=" stroke:none;fill-rule:nonzero;fill:rgb(0%,0%,0%);fill-opacity:1;" d="M 93.1875 394.902344 C 95.527344 394.863281 96.394531 396.296875 96.394531 398.640625 C 96.433594 401.015625 95.378906 402.375 93.152344 402.375 C 90.925781 402.375 90.019531 400.902344 89.980469 398.640625 C 89.980469 396.148438 91.039062 394.902344 93.1875 394.902344 Z M 93.152344 401.46875 C 94.8125 401.507812 95.152344 400.300781 95.152344 398.640625 C 95.152344 397.015625 94.847656 395.808594 93.226562 395.808594 C 91.605469 395.808594 91.226562 397.015625 91.226562 398.640625 C 91.226562 400.261719 91.605469 401.433594 93.152344 401.46875 "/>
<path style=" stroke:none;fill-rule:nonzero;fill:rgb(0%,0%,0%);fill-opacity:1;" d="M 101.039062 402.226562 L 99.605469 402.226562 L 97 395.054688 L 98.28125 395.054688 L 100.320312 401.28125 L 102.433594 395.054688 L 103.71875 395.054688 "/>
<path style=" stroke:none;fill-rule:nonzero;fill:rgb(0%,0%,0%);fill-opacity:1;" d="M 105 396.410156 L 105 395.054688 L 106.28125 395.054688 L 106.28125 396.410156 Z M 105 402.226562 L 105 400.867188 L 106.28125 400.867188 L 106.28125 402.226562 L 105 402.226562 "/>
<path style=" stroke:none;fill-rule:nonzero;fill:rgb(0%,0%,0%);fill-opacity:1;" d="M 82.453125 418.53125 L 81.394531 415.8125 L 77.132812 415.8125 L 76.074219 418.53125 L 74.753906 418.53125 L 78.566406 409.171875 L 80 409.171875 L 83.734375 418.53125 Z M 81.019531 414.792969 L 79.246094 410.152344 C 78.792969 411.851562 78.074219 413.246094 77.507812 414.792969 L 81.019531 414.792969 "/>
<path style=" stroke:none;fill-rule:nonzero;fill:rgb(0%,0%,0%);fill-opacity:1;" d="M 90.453125 411.359375 C 90.074219 416.078125 92 422.417969 86.300781 421.210938 C 85.433594 420.984375 84.867188 420.457031 84.640625 419.589844 L 85.847656 419.398438 C 86.414062 421.171875 89.621094 420.605469 89.207031 418.34375 L 89.207031 417.210938 C 88.792969 418.003906 88.113281 418.570312 86.90625 418.570312 C 84.867188 418.570312 84.339844 417.019531 84.339844 414.945312 C 84.339844 412.832031 84.945312 411.285156 87.019531 411.246094 C 88.113281 411.207031 88.832031 411.851562 89.246094 412.566406 C 89.28125 412.191406 89.246094 411.699219 89.320312 411.359375 Z M 87.320312 417.699219 C 88.679688 417.699219 89.207031 416.492188 89.207031 414.945312 C 89.207031 413.359375 88.679688 412.113281 87.320312 412.113281 C 85.847656 412.113281 85.585938 413.398438 85.585938 414.945312 C 85.585938 416.492188 85.8125 417.699219 87.320312 417.699219 "/>
<path style=" stroke:none;fill-rule:nonzero;fill:rgb(0%,0%,0%);fill-opacity:1;" d="M 95.09375 411.207031 C 97.472656 411.207031 98.339844 412.792969 98.265625 415.210938 L 93.167969 415.210938 C 93.167969 416.71875 93.699219 417.738281 95.167969 417.777344 C 96.152344 417.8125 96.792969 417.324219 97.019531 416.679688 L 98.074219 416.984375 C 97.660156 418.039062 96.679688 418.683594 95.167969 418.683594 C 92.980469 418.683594 91.847656 417.285156 91.886719 414.90625 C 91.925781 412.605469 92.867188 411.207031 95.09375 411.207031 Z M 97.054688 414.265625 C 97.28125 412 94.1875 411.359375 93.394531 413.207031 C 93.28125 413.472656 93.167969 413.851562 93.167969 414.265625 L 97.054688 414.265625 "/>
<path style=" stroke:none;fill-rule:nonzero;fill:rgb(0%,0%,0%);fill-opacity:1;" d="M 103.28125 411.207031 C 106.640625 411.058594 105.28125 415.585938 105.546875 418.53125 L 104.339844 418.53125 L 104.339844 413.964844 C 104.339844 412.792969 104.039062 412.113281 102.867188 412.152344 C 100.152344 412.226562 101.207031 416.003906 101.019531 418.53125 L 99.8125 418.53125 L 99.773438 411.359375 L 100.90625 411.359375 C 100.945312 411.738281 100.867188 412.265625 100.980469 412.566406 C 101.394531 411.738281 102.074219 411.246094 103.28125 411.207031 "/>
<path style=" stroke:none;fill-rule:nonzero;fill:rgb(0%,0%,0%);fill-opacity:1;" d="M 108.640625 416.757812 C 108.566406 417.664062 109.320312 417.851562 110.074219 417.585938 L 110.074219 418.492188 C 108.832031 418.871094 107.433594 418.683594 107.433594 417.019531 L 107.433594 412.226562 L 106.605469 412.226562 L 106.605469 411.359375 L 107.507812 411.359375 L 107.847656 409.734375 L 108.640625 409.734375 L 108.640625 411.359375 L 109.960938 411.359375 L 109.960938 412.226562 L 108.640625 412.226562 L 108.640625 416.757812 "/>
<path style="fill-rule:nonzero;fill:rgb(100%,100%,100%);fill-opacity:1;stroke-width:2;stroke-linecap:butt;stroke-linejoin:miter;stroke:rgb(0%,0%,0%);stroke-opacity:1;stroke-miterlimit:4;" d="M 120.900916 646.038533 C 120.900916 643.280606 123.136854 641.040113 125.900721 641.040113 L 155.899549 641.040113 C 158.663416 641.040113 160.899354 643.280606 160.899354 646.038533 L 160.899354 674.709592 C 160.899354 677.472694 158.663416 679.708012 155.899549 679.708012 L 125.900721 679.708012 C 123.136854 679.708012 120.900916 677.472694 120.900916 674.709592 Z M 120.900916 646.038533 " transform="matrix(0.754717,0,0,0.754926,-13.882693,-15.773855)"/>
</g>
</svg>
