<svg xmlns="http://www.w3.org/2000/svg" xmlns:xlink="http://www.w3.org/1999/xlink" xmlns:lucid="lucid" width="915.16" height="667.31"><g transform="translate(-397.24793027758824 28.64297195683247)" lucid:page-tab-id="BAE7udirXSAT"><path d="M0-500h1500v1500H0z" fill="#fff"/><path d="M417.25 227.94a5 5 0 0 1 5-5h150a5 5 0 0 1 5 5v110a5 5 0 0 1-5 5h-150a5 5 0 0 1-5-5z" stroke="#000" stroke-width="2" fill="#fff"/><use xlink:href="#a" transform="matrix(1,0,0,1,429.24793027758824,234.9346873167524) translate(48.55 50.4)"/><path d="M497.75 439.82h-1V405.9h1zm0-76.6h-1v-18.8h1z" stroke="#3a414a" stroke-width=".05" fill="#3a414a"/><path d="M497.75 344.45h-1v-.5h1z" fill="#3a414a"/><path d="M497.77 344.47h-1.05v-.56h1.05zm-1-.5v.45h.95v-.46zM507.86 422.78l-10.6 17.95-10.62-17.95.86-.5 9.75 16.48 9.75-16.5z" stroke="#3a414a" stroke-width=".05" fill="#3a414a"/><use xlink:href="#b" transform="matrix(1,0,0,1,470.6306463269709,363.2269093164052) translate(12.301296296296298 14.222222222222223)"/><use xlink:href="#c" transform="matrix(1,0,0,1,470.6306463269709,363.2269093164052) translate(0.004999999999999005 35.55555555555556)"/><path d="M417.25 446.73a5 5 0 0 1 5-5h150a5 5 0 0 1 5 5v110a5 5 0 0 1-5 5h-150a5 5 0 0 1-5-5z" stroke="#000" stroke-width="2" fill="#fff"/><use xlink:href="#d" transform="matrix(1,0,0,1,429.24793027758824,453.72633538333673) translate(40.05 50.4)"/><path d="M714.67 171a5 5 0 0 1 5-5h150a5 5 0 0 1 5 5v110a5 5 0 0 1-5 5h-150a5 5 0 0 1-5-5z" stroke="#000" stroke-width="2" fill="#fff"/><use xlink:href="#e" transform="matrix(1,0,0,1,726.6666666666666,177.9943560334226) translate(32.525 50.4)"/><path d="M714.67 337.33a5 5 0 0 1 5-5h150a5 5 0 0 1 5 5v110a5 5 0 0 1-5 5h-150a5 5 0 0 1-5-5z" stroke="#000" stroke-width="2" fill="#fff"/><use xlink:href="#f" transform="matrix(1,0,0,1,726.6666666666666,344.33051135004456) translate(43.5 50.4)"/><path d="M714.67 503.67a5 5 0 0 1 5-5h150a5 5 0 0 1 5 5v110a5 5 0 0 1-5 5h-150a5 5 0 0 1-5-5z" stroke="#000" stroke-width="2" fill="#fff"/><use xlink:href="#g" transform="matrix(1,0,0,1,726.6666666666666,510.6666666666665) translate(28.549999999999997 50.4)"/><path d="M611.93 283.94h-32.68v-2h32.68zM711.85 227H652l-.82.06-.77.18-.7.3-.68.4-.6.52-.5.6-.4.67-.3.72-.2.76-.06.83v27.45h-2v-27.53l.08-1.05.26-1.07.42-1.02.57-.92.7-.84.84-.7.94-.6 1-.4 1.08-.26 1.06-.1h59.93z" stroke="#3a414a" stroke-width=".05" fill="#3a414a"/><path d="M579.27 283.94h-1.02v-2h1.02z" fill="#3a414a"/><path d="M579.3 283.96h-1.08v-2.05h1.08zm-1.03-2v1.95h.98v-1.94zM713.67 226L695 237.03l-1.02-1.73 15.76-9.3-15.76-9.33 1.02-1.72z" stroke="#3a414a" stroke-width=".05" fill="#3a414a"/><use xlink:href="#b" transform="matrix(1,0,0,1,611.9326071141027,259.48355906931914) translate(19.708703703703712 14.222222222222223)"/><use xlink:href="#h" transform="matrix(1,0,0,1,611.9326071141027,259.48355906931914) translate(0.005000000000002558 35.55555555555556)"/><path d="M646.96 386.3l.06.8.2.77.28.73.4.67.52.6.6.5.67.4.7.3.78.2.82.06h59.85v2h-59.93l-1.06-.08-1.07-.26-1.02-.43-.94-.57-.84-.72-.7-.83-.58-.94-.42-1-.26-1.07-.08-1.06v-84.22h2zm-67.7-102.37v-2h32.67v2z" stroke="#3a414a" stroke-width=".05" fill="#3a414a"/><path d="M579.27 283.94h-1.02v-2h1.02z" fill="#3a414a"/><path d="M579.3 283.96h-1.08v-2.05h1.08zm-1.03-2v1.95h.98v-1.94zM713.67 392.33L695 403.37l-1.02-1.72 15.76-9.32-15.76-9.32 1.02-1.7z" stroke="#3a414a" stroke-width=".05" fill="#3a414a"/><path d="M646.96 552.63l.06.82.2.76.28.73.4.67.52.6.6.5.67.42.7.3.78.18.82.07h59.85v2h-59.93l-1.06-.1-1.07-.24-1.02-.42-.94-.57-.84-.7-.7-.85-.58-.93-.42-1.02-.26-1.07-.08-1.05V302.16h2zm-67.7-268.7v-2h32.67v2z" stroke="#3a414a" stroke-width=".05" fill="#3a414a"/><path d="M579.27 283.94h-1.02v-2h1.02z" fill="#3a414a"/><path d="M579.3 283.96h-1.08v-2.05h1.08zm-1.03-2v1.95h.98v-1.94zM713.67 558.67L695 569.7l-1.02-1.7 15.76-9.33-15.76-9.32 1.02-1.73z" stroke="#3a414a" stroke-width=".05" fill="#3a414a"/><path d="M1132.4-3.64a5 5 0 0 1 5-5h150a5 5 0 0 1 5 5v110a5 5 0 0 1-5 5h-150a5 5 0 0 1-5-5z" stroke="#000" stroke-width="2" fill="#fff"/><use xlink:href="#i" transform="matrix(1,0,0,1,1144.4075830425945,3.3570280431675315) translate(11.624999999999993 41.4)"/><use xlink:href="#j" transform="matrix(1,0,0,1,1144.4075830425945,3.3570280431675315) translate(37.05 63)"/><path d="M1012.1 171a5 5 0 0 1 5-5h150a5 5 0 0 1 5 5v110a5 5 0 0 1-5 5h-150a5 5 0 0 1-5-5z" stroke="#000" stroke-width="2" fill="#fff"/><use xlink:href="#k" transform="matrix(1,0,0,1,1024.085403055745,177.9943560334226) translate(32.525 41.4)"/><use xlink:href="#l" transform="matrix(1,0,0,1,1024.085403055745,177.9943560334226) translate(49.025 63)"/><path d="M1012.1 337.33a5 5 0 0 1 5-5h150a5 5 0 0 1 5 5v110a5 5 0 0 1-5 5h-150a5 5 0 0 1-5-5z" stroke="#000" stroke-width="2" fill="#fff"/><use xlink:href="#m" transform="matrix(1,0,0,1,1024.085403055745,344.33051135004456) translate(43.5 41.4)"/><use xlink:href="#l" transform="matrix(1,0,0,1,1024.085403055745,344.33051135004456) translate(49.025 63)"/><path d="M1012.1 503.67a5 5 0 0 1 5-5h150a5 5 0 0 1 5 5v110a5 5 0 0 1-5 5h-150a5 5 0 0 1-5-5z" stroke="#000" stroke-width="2" fill="#fff"/><use xlink:href="#n" transform="matrix(1,0,0,1,1024.085403055745,510.6666666666665) translate(28.549999999999997 41.4)"/><use xlink:href="#l" transform="matrix(1,0,0,1,1024.085403055745,510.6666666666665) translate(49.025 63)"/><path d="M1174.1 226h32.3a6 6 0 0 0 6-6v-89.14" stroke="#3a414a" stroke-width="2" fill="none"/><path d="M1174.1 227h-1v-2h1z" stroke="#3a414a" stroke-width=".05" fill="#3a414a"/><path d="M1212.4 115.6l4.64 14.26h-9.27z" stroke="#3a414a" stroke-width="2" fill="#fff"/><path d="M1174.1 392.33h32.3a6 6 0 0 0 6-6V130.86" stroke="#3a414a" stroke-width="2" fill="none"/><path d="M1174.1 393.33h-1v-2h1z" stroke="#3a414a" stroke-width=".05" fill="#3a414a"/><path d="M1212.4 115.6l4.64 14.26h-9.27z" stroke="#3a414a" stroke-width="2" fill="#fff"/><path d="M1174.1 558.67h32.3a6 6 0 0 0 6-6v-421.8" stroke="#3a414a" stroke-width="2" fill="none"/><path d="M1174.1 559.67h-1v-2h1z" stroke="#3a414a" stroke-width=".05" fill="#3a414a"/><path d="M1212.4 115.6l4.64 14.26h-9.27z" stroke="#3a414a" stroke-width="2" fill="#fff"/><path d="M899.96 227h-23.3v-2h23.3zm109.3 0h-40.3v-2h40.3z" stroke="#3a414a" stroke-width=".05" fill="#3a414a"/><path d="M876.7 227h-1.03v-2h1.02z" fill="#3a414a"/><path d="M876.72 227.02h-1.08v-2.05h1.08zm-1.03-2v1.95h.97v-1.95zM1011.1 226l-18.7 11.04-1-1.73 15.76-9.3-15.76-9.33 1-1.72z" stroke="#3a414a" stroke-width=".05" fill="#3a414a"/><use xlink:href="#o" transform="matrix(1,0,0,1,899.9607360861417,215.32768936675595) translate(0 14.222222222222223)"/><path d="M901.67 393.33h-25v-2h25zm107.6 0h-38.6v-2h38.6z" stroke="#3a414a" stroke-width=".05" fill="#3a414a"/><path d="M876.7 393.33h-1.03v-2h1.02z" fill="#3a414a"/><path d="M876.72 393.36h-1.08v-2.05h1.08zm-1.03-2v1.95h.97v-1.94zM1011.1 392.33l-18.7 11.04-1-1.72 15.76-9.32L991.4 383l1-1.7z" stroke="#3a414a" stroke-width=".05" fill="#3a414a"/><use xlink:href="#o" transform="matrix(1,0,0,1,901.6714268835301,381.6638446833779) translate(0 14.222222222222223)"/><path d="M901.67 559.67h-25v-2h25zm107.6 0h-38.6v-2h38.6z" stroke="#3a414a" stroke-width=".05" fill="#3a414a"/><path d="M876.7 559.67h-1.03v-2h1.02z" fill="#3a414a"/><path d="M876.72 559.7h-1.08v-2.06h1.08zm-1.03-2v1.94h.97v-1.95zM1011.1 558.67l-18.7 11.04-1-1.7 15.76-9.33-15.76-9.32 1-1.73z" stroke="#3a414a" stroke-width=".05" fill="#3a414a"/><use xlink:href="#o" transform="matrix(1,0,0,1,901.6714268835301,547.9999999999999) translate(0 14.222222222222223)"/><path d="M828.3-3.64a5 5 0 0 1 5-5h150a5 5 0 0 1 5 5v110a5 5 0 0 1-5 5h-150a5 5 0 0 1-5-5z" stroke="#000" stroke-width="2" fill="#fff"/><use xlink:href="#p" transform="matrix(1,0,0,1,840.285724534876,3.3570280431675315) translate(32.55 50.4)"/><path d="M876.67 191.12h25.62a6 6 0 0 0 6-6v-54.26" stroke="#3a414a" stroke-width="2" fill="none"/><path d="M876.7 192.12h-1.03v-2h1.02z" stroke="#3a414a" stroke-width=".05" fill="#3a414a"/><path d="M908.3 115.6l4.62 14.26h-9.27z" stroke="#3a414a" stroke-width="2" fill="#fff"/><path d="M909.3 356.84l-.1 1.05-.25 1.06-.42 1.02-.58.93-.7.85-.85.7-.93.6-1.02.4-1.07.26-1.05.1h-25.66v-2h25.58l.82-.07.76-.18.72-.3.67-.4.6-.52.5-.6.42-.66.3-.73.18-.76.07-.82v-120.1h2zm0-141.5h-2v-84.48h2z" stroke="#3a414a" stroke-width=".05" fill="#3a414a"/><path d="M876.7 363.8h-1.03v-2h1.02z" fill="#3a414a"/><path d="M876.72 363.82h-1.08v-2.05h1.08zm-1.03-2v1.95h.97v-1.95z" stroke="#3a414a" stroke-width=".05" fill="#3a414a"/><path d="M912.92 129.86h-9.27l4.64-14.27z" fill="#fff"/><path d="M914.3 130.86h-12.03l6.02-18.5zm-9.27-2h6.5l-3.24-10.03z" stroke="#3a414a" stroke-width=".05" fill="#3a414a"/><path d="M909.3 521.18l-.1 1.06-.25 1.06-.42 1.02-.58.94-.7.83-.85.7-.93.58-1.02.42-1.07.26-1.05.08h-25.66v-2h25.58l.82-.06.76-.2.72-.3.67-.4.6-.5.5-.6.42-.67.3-.72.18-.76.07-.82V403h2zm0-139.52h-2v-145h2zm0-166.33h-2v-84.47h2z" stroke="#3a414a" stroke-width=".05" fill="#3a414a"/><path d="M876.7 528.14h-1.03v-2h1.02z" fill="#3a414a"/><path d="M876.72 528.17h-1.08v-2.05h1.08zm-1.03-2v1.95h.97v-1.95z" stroke="#3a414a" stroke-width=".05" fill="#3a414a"/><path d="M912.92 129.86h-9.27l4.64-14.27z" fill="#fff"/><path d="M914.3 130.86h-12.03l6.02-18.5zm-9.27-2h6.5l-3.24-10.03z" stroke="#3a414a" stroke-width=".05" fill="#3a414a"/><defs><path d="M240 0l2-218c-23 76-54 145-80 218h-23L58-218 59 0H30v-248h44l77 211c21-75 51-140 76-211h43V0h-30" id="q"/><path d="M24-231v-30h32v30H24zM24 0v-190h32V0H24" id="r"/><path d="M117-194c89-4 53 116 60 194h-32v-121c0-31-8-49-39-48C34-167 62-67 57 0H25l-1-190h30c1 10-1 24 2 32 11-22 29-35 61-36" id="s"/><path d="M100-194c63 0 86 42 84 106H49c0 40 14 67 53 68 26 1 43-12 49-29l28 8c-11 28-37 45-77 45C44 4 14-33 15-96c1-61 26-98 85-98zm52 81c6-60-76-77-97-28-3 7-6 17-6 28h103" id="t"/><g id="a"><use transform="matrix(0.05,0,0,0.05,0,0)" xlink:href="#q"/><use transform="matrix(0.05,0,0,0.05,14.950000000000001,0)" xlink:href="#r"/><use transform="matrix(0.05,0,0,0.05,18.900000000000002,0)" xlink:href="#s"/><use transform="matrix(0.05,0,0,0.05,28.900000000000002,0)" xlink:href="#t"/></g><path fill="#333" d="M106-169C34-169 62-67 57 0H25v-261h32l-1 103c12-21 28-36 61-36 89 0 53 116 60 194h-32v-121c2-32-8-49-39-48" id="u"/><path fill="#333" d="M141-36C126-15 110 5 73 4 37 3 15-17 15-53c-1-64 63-63 125-63 3-35-9-54-41-54-24 1-41 7-42 31l-33-3c5-37 33-52 76-52 45 0 72 20 72 64v82c-1 20 7 32 28 27v20c-31 9-61-2-59-35zM48-53c0 20 12 33 32 33 41-3 63-29 60-74-43 2-92-5-92 41" id="v"/><path fill="#333" d="M135-143c-3-34-86-38-87 0 15 53 115 12 119 90S17 21 10-45l28-5c4 36 97 45 98 0-10-56-113-15-118-90-4-57 82-63 122-42 12 7 21 19 24 35" id="w"/><g id="b"><use transform="matrix(0.04938271604938272,0,0,0.04938271604938272,0,0)" xlink:href="#u"/><use transform="matrix(0.04938271604938272,0,0,0.04938271604938272,9.876543209876544,0)" xlink:href="#v"/><use transform="matrix(0.04938271604938272,0,0,0.04938271604938272,19.75308641975309,0)" xlink:href="#w"/></g><path fill="#333" d="M115-194c55 1 70 41 70 98S169 2 115 4C84 4 66-9 55-30l1 105H24l-1-265h31l2 30c10-21 28-34 59-34zm-8 174c40 0 45-34 45-75s-6-73-45-74c-42 0-51 32-51 76 0 43 10 73 51 73" id="x"/><path fill="#333" d="M114-163C36-179 61-72 57 0H25l-1-190h30c1 12-1 29 2 39 6-27 23-49 58-41v29" id="y"/><path fill="#333" d="M100-194c62-1 85 37 85 99 1 63-27 99-86 99S16-35 15-95c0-66 28-99 85-99zM99-20c44 1 53-31 53-75 0-43-8-75-51-75s-53 32-53 75 10 74 51 75" id="z"/><path fill="#333" d="M24-231v-30h32v30H24zM-9 49c24 4 33-6 33-30v-209h32V24c2 40-23 58-65 49V49" id="A"/><path fill="#333" d="M100-194c63 0 86 42 84 106H49c0 40 14 67 53 68 26 1 43-12 49-29l28 8c-11 28-37 45-77 45C44 4 14-33 15-96c1-61 26-98 85-98zm52 81c6-60-76-77-97-28-3 7-6 17-6 28h103" id="B"/><path fill="#333" d="M96-169c-40 0-48 33-48 73s9 75 48 75c24 0 41-14 43-38l32 2c-6 37-31 61-74 61-59 0-76-41-82-99-10-93 101-131 147-64 4 7 5 14 7 22l-32 3c-4-21-16-35-41-35" id="C"/><path fill="#333" d="M59-47c-2 24 18 29 38 22v24C64 9 27 4 27-40v-127H5v-23h24l9-43h21v43h35v23H59v120" id="D"/><g id="c"><use transform="matrix(0.04938271604938272,0,0,0.04938271604938272,0,0)" xlink:href="#x"/><use transform="matrix(0.04938271604938272,0,0,0.04938271604938272,9.876543209876544,0)" xlink:href="#y"/><use transform="matrix(0.04938271604938272,0,0,0.04938271604938272,15.753086419753087,0)" xlink:href="#z"/><use transform="matrix(0.04938271604938272,0,0,0.04938271604938272,25.629629629629633,0)" xlink:href="#A"/><use transform="matrix(0.04938271604938272,0,0,0.04938271604938272,29.530864197530867,0)" xlink:href="#B"/><use transform="matrix(0.04938271604938272,0,0,0.04938271604938272,39.40740740740741,0)" xlink:href="#C"/><use transform="matrix(0.04938271604938272,0,0,0.04938271604938272,48.296296296296305,0)" xlink:href="#D"/></g><path d="M30-248c87 1 191-15 191 75 0 78-77 80-158 76V0H30v-248zm33 125c57 0 124 11 124-50 0-59-68-47-124-48v98" id="E"/><path d="M114-163C36-179 61-72 57 0H25l-1-190h30c1 12-1 29 2 39 6-27 23-49 58-41v29" id="F"/><path d="M100-194c62-1 85 37 85 99 1 63-27 99-86 99S16-35 15-95c0-66 28-99 85-99zM99-20c44 1 53-31 53-75 0-43-8-75-51-75s-53 32-53 75 10 74 51 75" id="G"/><path d="M24-231v-30h32v30H24zM-9 49c24 4 33-6 33-30v-209h32V24c2 40-23 58-65 49V49" id="H"/><path d="M96-169c-40 0-48 33-48 73s9 75 48 75c24 0 41-14 43-38l32 2c-6 37-31 61-74 61-59 0-76-41-82-99-10-93 101-131 147-64 4 7 5 14 7 22l-32 3c-4-21-16-35-41-35" id="I"/><path d="M59-47c-2 24 18 29 38 22v24C64 9 27 4 27-40v-127H5v-23h24l9-43h21v43h35v23H59v120" id="J"/><g id="d"><use transform="matrix(0.05,0,0,0.05,0,0)" xlink:href="#E"/><use transform="matrix(0.05,0,0,0.05,12,0)" xlink:href="#F"/><use transform="matrix(0.05,0,0,0.05,17.95,0)" xlink:href="#G"/><use transform="matrix(0.05,0,0,0.05,27.950000000000003,0)" xlink:href="#H"/><use transform="matrix(0.05,0,0,0.05,31.899999999999995,0)" xlink:href="#t"/><use transform="matrix(0.05,0,0,0.05,41.9,0)" xlink:href="#I"/><use transform="matrix(0.05,0,0,0.05,50.9,0)" xlink:href="#J"/></g><path d="M135-143c-3-34-86-38-87 0 15 53 115 12 119 90S17 21 10-45l28-5c4 36 97 45 98 0-10-56-113-15-118-90-4-57 82-63 122-42 12 7 21 19 24 35" id="K"/><path d="M115-194c55 1 70 41 70 98S169 2 115 4C84 4 66-9 55-30l1 105H24l-1-265h31l2 30c10-21 28-34 59-34zm-8 174c40 0 45-34 45-75s-6-73-45-74c-42 0-51 32-51 76 0 43 10 73 51 73" id="L"/><g id="e"><use transform="matrix(0.05,0,0,0.05,0,0)" xlink:href="#E"/><use transform="matrix(0.05,0,0,0.05,12,0)" xlink:href="#F"/><use transform="matrix(0.05,0,0,0.05,17.95,0)" xlink:href="#G"/><use transform="matrix(0.05,0,0,0.05,27.950000000000003,0)" xlink:href="#K"/><use transform="matrix(0.05,0,0,0.05,36.95,0)" xlink:href="#L"/><use transform="matrix(0.05,0,0,0.05,46.95,0)" xlink:href="#t"/><use transform="matrix(0.05,0,0,0.05,56.95,0)" xlink:href="#I"/><use transform="matrix(0.05,0,0,0.05,65.95,0)" xlink:href="#J"/></g><path d="M30 0v-248h33v221h125V0H30" id="M"/><path d="M141-36C126-15 110 5 73 4 37 3 15-17 15-53c-1-64 63-63 125-63 3-35-9-54-41-54-24 1-41 7-42 31l-33-3c5-37 33-52 76-52 45 0 72 20 72 64v82c-1 20 7 32 28 27v20c-31 9-61-2-59-35zM48-53c0 20 12 33 32 33 41-3 63-29 60-74-43 2-92-5-92 41" id="N"/><g id="f"><use transform="matrix(0.05,0,0,0.05,0,0)" xlink:href="#M"/><use transform="matrix(0.05,0,0,0.05,10,0)" xlink:href="#t"/><use transform="matrix(0.05,0,0,0.05,20,0)" xlink:href="#N"/><use transform="matrix(0.05,0,0,0.05,30,0)" xlink:href="#K"/><use transform="matrix(0.05,0,0,0.05,39,0)" xlink:href="#t"/></g><path d="M127-220V0H93v-220H8v-28h204v28h-85" id="O"/><path d="M210-169c-67 3-38 105-44 169h-31v-121c0-29-5-50-35-48C34-165 62-65 56 0H25l-1-190h30c1 10-1 24 2 32 10-44 99-50 107 0 11-21 27-35 58-36 85-2 47 119 55 194h-31v-121c0-29-5-49-35-48" id="P"/><g id="g"><use transform="matrix(0.05,0,0,0.05,0,0)" xlink:href="#O"/><use transform="matrix(0.05,0,0,0.05,8.950000000000001,0)" xlink:href="#t"/><use transform="matrix(0.05,0,0,0.05,18.950000000000003,0)" xlink:href="#s"/><use transform="matrix(0.05,0,0,0.05,28.950000000000003,0)" xlink:href="#t"/><use transform="matrix(0.05,0,0,0.05,38.95,0)" xlink:href="#P"/><use transform="matrix(0.05,0,0,0.05,53.900000000000006,0)" xlink:href="#t"/><use transform="matrix(0.05,0,0,0.05,63.900000000000006,0)" xlink:href="#s"/><use transform="matrix(0.05,0,0,0.05,73.9,0)" xlink:href="#J"/></g><path fill="#333" d="M84 4C-5 8 30-112 23-190h32v120c0 31 7 50 39 49 72-2 45-101 50-169h31l1 190h-30c-1-10 1-25-2-33-11 22-28 36-60 37" id="Q"/><path fill="#333" d="M24-231v-30h32v30H24zM24 0v-190h32V0H24" id="R"/><path fill="#333" d="M179-190L93 31C79 59 56 82 12 73V49c39 6 53-20 64-50L1-190h34L92-34l54-156h33" id="S"/><g id="h"><use transform="matrix(0.04938271604938272,0,0,0.04938271604938272,0,0)" xlink:href="#v"/><use transform="matrix(0.04938271604938272,0,0,0.04938271604938272,9.876543209876544,0)" xlink:href="#Q"/><use transform="matrix(0.04938271604938272,0,0,0.04938271604938272,19.75308641975309,0)" xlink:href="#D"/><use transform="matrix(0.04938271604938272,0,0,0.04938271604938272,24.69135802469136,0)" xlink:href="#u"/><use transform="matrix(0.04938271604938272,0,0,0.04938271604938272,34.567901234567906,0)" xlink:href="#z"/><use transform="matrix(0.04938271604938272,0,0,0.04938271604938272,44.44444444444445,0)" xlink:href="#y"/><use transform="matrix(0.04938271604938272,0,0,0.04938271604938272,50.320987654320994,0)" xlink:href="#R"/><use transform="matrix(0.04938271604938272,0,0,0.04938271604938272,54.22222222222223,0)" xlink:href="#D"/><use transform="matrix(0.04938271604938272,0,0,0.04938271604938272,59.1604938271605,0)" xlink:href="#S"/></g><path d="M205 0l-28-72H64L36 0H1l101-248h38L239 0h-34zm-38-99l-47-123c-12 45-31 82-46 123h93" id="T"/><path d="M85-194c31 0 48 13 60 33l-1-100h32l1 261h-30c-2-10 0-23-3-31C134-8 116 4 85 4 32 4 16-35 15-94c0-66 23-100 70-100zm9 24c-40 0-46 34-46 75 0 40 6 74 45 74 42 0 51-32 51-76 0-42-9-74-50-73" id="U"/><path d="M108 0H70L1-190h34L89-25l56-165h34" id="V"/><g id="i"><use transform="matrix(0.05,0,0,0.05,0,0)" xlink:href="#T"/><use transform="matrix(0.05,0,0,0.05,12,0)" xlink:href="#U"/><use transform="matrix(0.05,0,0,0.05,22,0)" xlink:href="#P"/><use transform="matrix(0.05,0,0,0.05,36.95,0)" xlink:href="#r"/><use transform="matrix(0.05,0,0,0.05,40.900000000000006,0)" xlink:href="#s"/><use transform="matrix(0.05,0,0,0.05,50.900000000000006,0)" xlink:href="#r"/><use transform="matrix(0.05,0,0,0.05,54.85,0)" xlink:href="#K"/><use transform="matrix(0.05,0,0,0.05,63.85,0)" xlink:href="#J"/><use transform="matrix(0.05,0,0,0.05,68.85000000000001,0)" xlink:href="#F"/><use transform="matrix(0.05,0,0,0.05,74.80000000000001,0)" xlink:href="#N"/><use transform="matrix(0.05,0,0,0.05,84.80000000000001,0)" xlink:href="#J"/><use transform="matrix(0.05,0,0,0.05,89.80000000000001,0)" xlink:href="#r"/><use transform="matrix(0.05,0,0,0.05,93.75000000000001,0)" xlink:href="#V"/><use transform="matrix(0.05,0,0,0.05,102.75,0)" xlink:href="#t"/></g><path d="M63-220v92h138v28H63V0H30v-248h175v28H63" id="W"/><path d="M84 4C-5 8 30-112 23-190h32v120c0 31 7 50 39 49 72-2 45-101 50-169h31l1 190h-30c-1-10 1-25-2-33-11 22-28 36-60 37" id="X"/><g id="j"><use transform="matrix(0.05,0,0,0.05,0,0)" xlink:href="#W"/><use transform="matrix(0.05,0,0,0.05,10.950000000000001,0)" xlink:href="#t"/><use transform="matrix(0.05,0,0,0.05,20.950000000000003,0)" xlink:href="#N"/><use transform="matrix(0.05,0,0,0.05,30.950000000000003,0)" xlink:href="#J"/><use transform="matrix(0.05,0,0,0.05,35.95,0)" xlink:href="#X"/><use transform="matrix(0.05,0,0,0.05,45.95,0)" xlink:href="#F"/><use transform="matrix(0.05,0,0,0.05,51.900000000000006,0)" xlink:href="#t"/></g><g id="k"><use transform="matrix(0.05,0,0,0.05,0,0)" xlink:href="#E"/><use transform="matrix(0.05,0,0,0.05,12,0)" xlink:href="#F"/><use transform="matrix(0.05,0,0,0.05,17.95,0)" xlink:href="#G"/><use transform="matrix(0.05,0,0,0.05,27.950000000000003,0)" xlink:href="#K"/><use transform="matrix(0.05,0,0,0.05,36.95,0)" xlink:href="#L"/><use transform="matrix(0.05,0,0,0.05,46.95,0)" xlink:href="#t"/><use transform="matrix(0.05,0,0,0.05,56.95,0)" xlink:href="#I"/><use transform="matrix(0.05,0,0,0.05,65.95,0)" xlink:href="#J"/></g><g id="l"><use transform="matrix(0.05,0,0,0.05,0,0)" xlink:href="#T"/><use transform="matrix(0.05,0,0,0.05,12,0)" xlink:href="#F"/><use transform="matrix(0.05,0,0,0.05,17.95,0)" xlink:href="#t"/><use transform="matrix(0.05,0,0,0.05,27.950000000000003,0)" xlink:href="#N"/></g><g id="m"><use transform="matrix(0.05,0,0,0.05,0,0)" xlink:href="#M"/><use transform="matrix(0.05,0,0,0.05,10,0)" xlink:href="#t"/><use transform="matrix(0.05,0,0,0.05,20,0)" xlink:href="#N"/><use transform="matrix(0.05,0,0,0.05,30,0)" xlink:href="#K"/><use transform="matrix(0.05,0,0,0.05,39,0)" xlink:href="#t"/></g><g id="n"><use transform="matrix(0.05,0,0,0.05,0,0)" xlink:href="#O"/><use transform="matrix(0.05,0,0,0.05,8.950000000000001,0)" xlink:href="#t"/><use transform="matrix(0.05,0,0,0.05,18.950000000000003,0)" xlink:href="#s"/><use transform="matrix(0.05,0,0,0.05,28.950000000000003,0)" xlink:href="#t"/><use transform="matrix(0.05,0,0,0.05,38.95,0)" xlink:href="#P"/><use transform="matrix(0.05,0,0,0.05,53.900000000000006,0)" xlink:href="#t"/><use transform="matrix(0.05,0,0,0.05,63.900000000000006,0)" xlink:href="#s"/><use transform="matrix(0.05,0,0,0.05,73.9,0)" xlink:href="#J"/></g><path fill="#333" d="M24 0v-261h32V0H24" id="Y"/><g id="o"><use transform="matrix(0.04938271604938272,0,0,0.04938271604938272,0,0)" xlink:href="#w"/><use transform="matrix(0.04938271604938272,0,0,0.04938271604938272,8.88888888888889,0)" xlink:href="#x"/><use transform="matrix(0.04938271604938272,0,0,0.04938271604938272,18.765432098765434,0)" xlink:href="#v"/><use transform="matrix(0.04938271604938272,0,0,0.04938271604938272,28.641975308641978,0)" xlink:href="#D"/><use transform="matrix(0.04938271604938272,0,0,0.04938271604938272,33.580246913580254,0)" xlink:href="#R"/><use transform="matrix(0.04938271604938272,0,0,0.04938271604938272,37.48148148148149,0)" xlink:href="#v"/><use transform="matrix(0.04938271604938272,0,0,0.04938271604938272,47.35802469135803,0)" xlink:href="#Y"/><use transform="matrix(0.04938271604938272,0,0,0.04938271604938272,51.25925925925927,0)" xlink:href="#R"/><use transform="matrix(0.04938271604938272,0,0,0.04938271604938272,55.1604938271605,0)" xlink:href="#D"/><use transform="matrix(0.04938271604938272,0,0,0.04938271604938272,60.09876543209877,0)" xlink:href="#S"/></g><path d="M106-169C34-169 62-67 57 0H25v-261h32l-1 103c12-21 28-36 61-36 89 0 53 116 60 194h-32v-121c2-32-8-49-39-48" id="Z"/><path d="M179-190L93 31C79 59 56 82 12 73V49c39 6 53-20 64-50L1-190h34L92-34l54-156h33" id="aa"/><g id="p"><use transform="matrix(0.05,0,0,0.05,0,0)" xlink:href="#T"/><use transform="matrix(0.05,0,0,0.05,12,0)" xlink:href="#X"/><use transform="matrix(0.05,0,0,0.05,22,0)" xlink:href="#J"/><use transform="matrix(0.05,0,0,0.05,27,0)" xlink:href="#Z"/><use transform="matrix(0.05,0,0,0.05,37,0)" xlink:href="#G"/><use transform="matrix(0.05,0,0,0.05,47,0)" xlink:href="#F"/><use transform="matrix(0.05,0,0,0.05,52.95,0)" xlink:href="#r"/><use transform="matrix(0.05,0,0,0.05,56.900000000000006,0)" xlink:href="#J"/><use transform="matrix(0.05,0,0,0.05,61.900000000000006,0)" xlink:href="#aa"/></g></defs></g></svg>