<svg xmlns="http://www.w3.org/2000/svg" xmlns:xlink="http://www.w3.org/1999/xlink" xmlns:lucid="lucid" width="1764.67" height="740.93"><g transform="translate(435.66666666674416 -142.9999999999611)" lucid:page-tab-id="eyCDUpV3hs3u"><path d="M-500 0h2000v1000H-500z" fill="#fff"/><path d="M595.67 222c0 22.1-61.5 40-137.34 40S321 244.1 321 222s61.5-40 137.33-40c75.85 0 137.34 17.9 137.34 40z" stroke="#3a414a" fill-opacity="0"/><use xlink:href="#a" transform="matrix(1,0,0,1,326.0000000000001,186.99999999999994) translate(104.19944444444445 39.24305555555556)"/><path d="M447.67 380.67c0 22.1-61.5 40-137.34 40S173 402.77 173 380.67s61.5-40 137.33-40c75.85 0 137.34 17.9 137.34 40z" stroke="#3a414a" fill-opacity="0"/><use xlink:href="#b" transform="matrix(1,0,0,1,178.00000000000034,345.66666666666663) translate(60.30129629629629 39.24305555555556)"/><path d="M154.33 380.67c0 22.1-61.48 40-137.33 40-75.85 0-137.33-17.9-137.33-40s61.48-40 137.33-40c75.85 0 137.33 17.9 137.33 40z" stroke="#3a414a" fill-opacity="0"/><use xlink:href="#c" transform="matrix(1,0,0,1,-115.33333333337191,345.66666666666663) translate(98.05438271604939 39.24305555555556)"/><path d="M595.67 683c0 22.1-61.5 40-137.34 40S321 705.1 321 683s61.5-40 137.33-40c75.85 0 137.34 17.9 137.34 40z" stroke="#3a414a" fill-opacity="0"/><use xlink:href="#d" transform="matrix(1,0,0,1,326.0000000000001,648) translate(100.19327160493827 26.118055555555557)"/><use xlink:href="#e" transform="matrix(1,0,0,1,326.0000000000001,648) translate(41.08524691358026 55.45138888888889)"/><use xlink:href="#f" transform="matrix(1,0,0,1,326.0000000000001,648) translate(156.51734567901235 55.45138888888889)"/><path d="M373.04 650.74l-253.58-228.5" stroke="#3a414a" fill="none"/><path d="M374.02 650.95l-1.2.25-.12-.1.67-.74z" stroke="#3a414a" stroke-width=".05" fill="#3a414a"/><path d="M108.5 412.36l13.7 6.1-6.2 6.9z" stroke="#3a414a" fill="#3a414a"/><path d="M424.52 643.33l-106.7-207.6" stroke="#3a414a" fill="none"/><path d="M425.28 643.73l-1.07.1-.13-.3.88-.44z" stroke="#3a414a" stroke-width=".05" fill="#3a414a"/><path d="M311.07 422.6l10.65 10.57-8.25 4.24z" stroke="#3a414a" fill="#3a414a"/><path d="M366.46 343.2l38.4-68.73" stroke="#3a414a" fill="none"/><path d="M366.9 343.43l-.15.28-1.06-.14.33-.62z" stroke="#3a414a" stroke-width=".05" fill="#3a414a"/><path d="M412.07 261.58l-2.9 14.72-8.1-4.52z" stroke="#3a414a" fill="#3a414a"/><path d="M-337.67 662.67c0 8.83-17 16-38 16-20.98 0-38-7.17-38-16 0-8.84 17.02-16 38-16 21 0 38 7.16 38 16z" fill-opacity="0"/><path d="M-342.75 670.63l-2.33 1.53-4.18 2-2.27.76m-4.68 1.46l-8.7 1.64-.97.06m-4.9.3l-4.9.3-4.9-.33m-4.9-.3l-1.6-.12-8.05-1.58m-4.68-1.44l-2.6-.86-4.06-2-2.12-1.4m-3.5-3.4l-.54-.83-.5-1-.32-.97-.17-.9-.07-.86.06-.9.18-.93.33-.96.52-1.03.5-.74m3.5-3.4l2.33-1.53 4.18-2 2.27-.75m4.68-1.46l8.7-1.64.96-.06m4.9-.3l4.9-.3 4.9.32m4.9.32l1.6.1 8.05 1.58m4.67 1.44l2.6.87 4.05 2 2.13 1.4m3.5 3.4l.54.82.5 1.03.3.95.18.92.05.85-.06.9-.18.92-.34.95-.5 1.03-.5.74" stroke="#3a414a" fill="none"/><path d="M-320.33 633.33a6 6 0 0 1 6-6h214.66a6 6 0 0 1 6 6V690a6 6 0 0 1-6 6h-214.66a6 6 0 0 1-6-6z" stroke="#000" stroke-opacity="0" fill="#fff" fill-opacity="0"/><use xlink:href="#g" transform="matrix(1,0,0,1,-315.33333333344956,632.333333333372) translate(0 32.659722222222214)"/><use xlink:href="#h" transform="matrix(1,0,0,1,-315.33333333344956,632.333333333372) translate(117.33333333333327 32.659722222222214)"/><use xlink:href="#i" transform="matrix(1,0,0,1,-315.33333333344956,632.333333333372) translate(158.4197530864197 32.659722222222214)"/><path d="M84.02 345.02l240.04-96.42" stroke="#3a414a" fill="none"/><path d="M84.14 345.3l-1.57-.24 1.27-.5z" stroke="#3a414a" stroke-width=".05" fill="#3a414a"/><path d="M337.76 243.1l-11.5 9.62-3.46-8.6z" stroke="#3a414a" fill="#3a414a"/><path d="M741 380.67c0 22.1-61.5 40-137.33 40-75.85 0-137.34-17.9-137.34-40s61.5-40 137.34-40 137.33 17.9 137.33 40z" stroke="#3a414a" fill-opacity="0"/><use xlink:href="#j" transform="matrix(1,0,0,1,471.3333333333727,345.66666666666663) translate(99.75191358024692 39.24305555555556)"/><path d="M1034.33 521.67c0 22.1-61.48 40-137.33 40-75.85 0-137.33-17.9-137.33-40s61.48-40 137.33-40c75.85 0 137.33 17.9 137.33 40z" stroke="#3a414a" fill-opacity="0"/><use xlink:href="#k" transform="matrix(1,0,0,1,764.6666666667448,486.6666666667054) translate(89.90623456790125 39.24305555555556)"/><path d="M1034.33 380.67c0 22.1-61.48 40-137.33 40-75.85 0-137.33-17.9-137.33-40s61.48-40 137.33-40c75.85 0 137.33 17.9 137.33 40z" stroke="#3a414a" fill-opacity="0"/><use xlink:href="#l" transform="matrix(1,0,0,1,764.6666666667448,345.66666666666663) translate(98.05438271604939 39.24305555555556)"/><path d="M485.15 642.87l28.23-73.9" stroke="#3a414a" fill="none"/><path d="M485.62 643.04l-.13.33-1.06-.06.24-.62z" stroke="#3a414a" stroke-width=".05" fill="#3a414a"/><path d="M518.65 555.2l-.76 14.97-8.67-3.3z" stroke="#3a414a" fill="#3a414a"/><path d="M542.95 650.74l244.97-93.53" stroke="#3a414a" fill="none"/><path d="M543.1 651.06l-1.48-.34 1.17-.45z" stroke="#3a414a" stroke-width=".05" fill="#3a414a"/><path d="M801.72 551.95l-11.68 9.4-3.3-8.65z" stroke="#3a414a" fill="#3a414a"/><path d="M897 480.67v-43.12" stroke="#3a414a" fill="none"/><path d="M897.5 481.18h-1v-.53h1z" stroke="#3a414a" stroke-width=".05" fill="#3a414a"/><path d="M897 422.8l4.63 14.25h-9.26z" stroke="#3a414a" fill="#3a414a"/><path d="M813.22 348.23l-250.6-89.73" stroke="#3a414a" fill="none"/><path d="M814.63 348.2l-1.53.32.28-.76z" stroke="#3a414a" stroke-width=".05" fill="#3a414a"/><path d="M548.7 253.52l15 .44-3.12 8.73z" stroke="#3a414a" fill="#3a414a"/><path d="M540.25 344.22l-37-68.86" stroke="#3a414a" fill="none"/><path d="M541 344.57l-1.03.17-.16-.3.9-.47z" stroke="#3a414a" stroke-width=".05" fill="#3a414a"/><path d="M496.27 262.35l10.84 10.38-8.16 4.38z" stroke="#3a414a" fill="#3a414a"/><path d="M741 521.67c0 22.1-61.5 40-137.33 40-75.85 0-137.34-17.9-137.34-40s61.5-40 137.34-40 137.33 17.9 137.33 40z" stroke="#3a414a" fill-opacity="0"/><use xlink:href="#m" transform="matrix(1,0,0,1,471.3333333333727,486.66666666670545) translate(55.61611111111112 39.24305555555556)"/><path d="M603.67 480.67v-43.12" stroke="#3a414a" fill="none"/><path d="M604.17 481.18h-1v-.53h1z" stroke="#3a414a" stroke-width=".05" fill="#3a414a"/><path d="M603.67 422.8l4.63 14.25h-9.27z" stroke="#3a414a" fill="#3a414a"/><path d="M501.16 494.06l-75.2-75.2" stroke="#3a414a" fill="none"/><path d="M502.05 494.25l-.82.25-.25.1-.2-.2.72-.7z" stroke="#3a414a" stroke-width=".05" fill="#3a414a"/><path d="M415.52 408.42l13.36 6.8-6.55 6.57z" stroke="#3a414a" fill="#3a414a"/><path d="M-331.5 717.67h-65.78M-331.5 717.67h.5" stroke="#3a414a" fill="none"/><path d="M-412.05 717.67l14.27-4.64v9.27z" stroke="#3a414a" fill="#3a414a"/><path d="M-320.33 699a6 6 0 0 1 6-6h66.66a6 6 0 0 1 6 6v35.5a6 6 0 0 1-6 6h-66.66a6 6 0 0 1-6-6z" stroke="#000" stroke-opacity="0" fill="#fff" fill-opacity="0"/><use xlink:href="#n" transform="matrix(1,0,0,1,-315.33333333344956,698.0000000000388) translate(0.5000000000000071 23.72222222222222)"/><use xlink:href="#o" transform="matrix(1,0,0,1,-315.33333333344956,698.0000000000388) translate(53.685185185185176 23.72222222222222)"/><path d="M1081 169a6 6 0 0 1 6-6h68a6 6 0 0 1 6 6v270.5a6 6 0 0 1-6 6h-68a6 6 0 0 1-6-6z" fill="none"/><path d="M1081 445.5c5.52 0 10-4.48 10-10V314.25c0-5.52 4.48-10 10-10-5.52 0-10-4.48-10-10V173c0-5.52-4.48-10-10-10" stroke="#3a414a" fill="none"/><use xlink:href="#p" transform="matrix(1,0,0,1,1115.9999999999418,167.9999999999611) translate(0 127.61111111111111)"/><use xlink:href="#q" transform="matrix(1,0,0,1,1115.9999999999418,167.9999999999611) translate(0 154.27777777777777)"/><path d="M1081 479.58a6 6 0 0 1 6-6h216a6 6 0 0 1 6 6V734.5a6 6 0 0 1-6 6h-216a6 6 0 0 1-6-6z" fill="none"/><path d="M1081 740.5c5.52 0 10-4.48 10-10V617.04c0-5.52 4.48-10 10-10-5.52 0-10-4.47-10-10V483.58c0-5.52-4.48-10-10-10" stroke="#3a414a" fill="none"/><use xlink:href="#r" transform="matrix(1,0,0,1,1115.9999999999418,478.58333333329455) translate(0 119.61111111111111)"/><use xlink:href="#s" transform="matrix(1,0,0,1,1115.9999999999418,478.58333333329455) translate(104.7530864197531 119.61111111111111)"/><use xlink:href="#t" transform="matrix(1,0,0,1,1115.9999999999418,478.58333333329455) translate(130.6172839506173 119.61111111111111)"/><use xlink:href="#q" transform="matrix(1,0,0,1,1115.9999999999418,478.58333333329455) translate(0 146.27777777777777)"/><path d="M401.82 823.93c0 22.1-61.5 40-137.33 40-75.86 0-137.35-17.9-137.35-40s61.5-40 137.34-40c75.83 0 137.32 17.9 137.32 40z" stroke="#3a414a" fill-opacity="0"/><use xlink:href="#u" transform="matrix(1,0,0,1,132.15445488295683,788.9285391225308) translate(41.08524691358024 39.24305555555556)"/><use xlink:href="#f" transform="matrix(1,0,0,1,132.15445488295683,788.9285391225308) translate(156.51734567901235 39.24305555555556)"/><path d="M347.76 791.14l30.03-59.2" stroke="#3a414a" fill="none"/><path d="M348.2 791.36l-.16.35-1-.23.28-.56z" stroke="#3a414a" stroke-width=".05" fill="#3a414a"/><path d="M384.47 718.76l-2.32 14.82-8.26-4.2z" stroke="#3a414a" fill="#3a414a"/><path d="M-139 380.67c0 22.1-61.5 40-137.33 40-75.85 0-137.34-17.9-137.34-40s61.5-40 137.34-40 137.33 17.9 137.33 40z" fill-opacity="0"/><path d="M-142.6 389.8l-.54.65-.72.8-.82.84-.96.9-1.12.96-1.3 1.03-1.56 1.12-.43.28m-4.25 2.62l-1.98 1.1-3.2 1.57-3.8 1.7m-4.66 1.83l-.22.08-5.9 2.06-3.37 1.02m-4.8 1.4l-8.04 2.06-1.66.35m-4.9 1.03l-4.37.93-5.45.9m-4.93.84l-2.75.47-7.15.9m-4.96.62l-3.3.4-6.65.56m-4.97.42l-5.85.5-4.13.16m-5 .2l-9.98.42m-5 .06l-5 .05-5-.1m-5-.1l-9.74-.2-.26-.03m-5-.3l-9.97-.64m-4.98-.4l-9.95-1.03m-4.97-.53l-9.9-1.45m-4.93-.78l-9.82-1.86m-4.88-1.1l-6.38-1.48-3.33-.92m-4.82-1.35l-6.48-2.1-3-1.1m-4.64-1.83l-1.97-.83-3.53-1.66-2.9-1.5-.6-.36m-4.25-2.62l-1.24-.86-1.42-1.08-1.2-1-1.04-.93-.9-.87-.76-.82-.67-.77-.22-.28m-2.6-4.27l-.2-.5-.18-.55-.16-.53-.14-.52-.1-.5-.1-.5-.06-.52-.04-.5-.02-.48v-.75l.04-.5.05-.5.07-.5.1-.5.12-.53.15-.52.17-.54.2-.55.1-.23m2.6-4.26l.53-.66.72-.8.8-.84.98-.9 1.1-.96 1.33-1.04 1.55-1.12.43-.3m4.25-2.6l2-1.1 3.18-1.58 3.82-1.7m4.65-1.83l.22-.08 5.88-2.05 3.38-1m4.8-1.42l8.05-2.06 1.66-.36m4.9-1.03l4.38-.92 5.44-.92m4.93-.83l2.77-.47 7.14-.9m4.97-.62l3.3-.4 6.65-.57m5-.4l5.84-.5 4.12-.18m5-.2l10-.43m5-.05l5-.05 5 .1m4.98.1l9.74.2.26.02m5 .3l9.97.63m4.98.4l9.96 1.03m4.97.53l9.9 1.45m4.93.76l9.83 1.88m4.87 1.08l6.37 1.5 3.33.92m4.8 1.34l6.5 2.1 2.98 1.1m4.65 1.85l1.98.83 3.52 1.65 2.9 1.52.6.34m4.25 2.63l1.24.86 1.4 1.07 1.22 1 1.04.93.9.87.76.82.66.76.23.28m2.6 4.26l.2.5.18.55.16.53.14.52.1.5.1.52.06.5.04.5.02.5v.75l-.04.5-.05.5-.07.5-.1.5-.12.52-.13.52-.18.53-.2.55-.1.23" stroke="#3a414a" fill="none"/><g><use xlink:href="#v" transform="matrix(1,0,0,1,-408.66666666674416,345.66666666666663) translate(75.03586419753087 39.24305555555556)"/></g><path d="M186.78 790.03L-141.37 410.7" stroke="#3a414a" fill="none"/><path d="M187.66 790.3l-1.12.23-.15-.18.75-.66z" stroke="#3a414a" stroke-width=".05" fill="#3a414a"/><path d="M-151.03 399.53l12.84 7.75-7 6.07z" stroke="#3a414a" fill="#3a414a"/><path d="M-337.67 591.67c0 8.83-17 16-38 16-20.98 0-38-7.17-38-16 0-8.84 17.02-16 38-16 21 0 38 7.16 38 16z" stroke="#3a414a" fill-opacity="0"/><path d="M-320.33 567.67a6 6 0 0 1 6-6h214.66a6 6 0 0 1 6 6v56.66a6 6 0 0 1-6 6h-214.66a6 6 0 0 1-6-6z" stroke="#000" stroke-opacity="0" fill="#fff" fill-opacity="0"/><g><use xlink:href="#w" transform="matrix(1,0,0,1,-315.33333333344956,566.6666666667054) translate(0 32.659722222222214)"/><use xlink:href="#h" transform="matrix(1,0,0,1,-315.33333333344956,566.6666666667054) translate(78.91358024691354 32.659722222222214)"/><use xlink:href="#i" transform="matrix(1,0,0,1,-315.33333333344956,566.6666666667054) translate(119.99999999999994 32.659722222222214)"/></g><defs><path fill="#3a414a" d="M140-251c81 0 123 46 123 126C263-46 219 4 140 4 59 4 17-45 17-125s42-126 123-126zm0 227c63 0 89-41 89-101s-29-99-89-99c-61 0-89 39-89 99S79-25 140-24" id="x"/><path fill="#3a414a" d="M266 0h-40l-56-210L115 0H75L2-248h35L96-30l15-64 43-154h32l59 218 59-218h35" id="y"/><path fill="#3a414a" d="M30 0v-248h33v221h125V0H30" id="z"/><g id="a"><use transform="matrix(0.06790123456790123,0,0,0.06790123456790123,0,0)" xlink:href="#x"/><use transform="matrix(0.06790123456790123,0,0,0.06790123456790123,19.012345679012345,0)" xlink:href="#y"/><use transform="matrix(0.06790123456790123,0,0,0.06790123456790123,42.03086419753086,0)" xlink:href="#z"/></g><path fill="#3a414a" d="M143 4C61 4 22-44 18-125c-5-107 100-154 193-111 17 8 29 25 37 43l-32 9c-13-25-37-40-76-40-61 0-88 39-88 99 0 61 29 100 91 101 35 0 62-11 79-27v-45h-74v-28h105v86C228-13 192 4 143 4" id="A"/><path fill="#3a414a" d="M100-194c63 0 86 42 84 106H49c0 40 14 67 53 68 26 1 43-12 49-29l28 8c-11 28-37 45-77 45C44 4 14-33 15-96c1-61 26-98 85-98zm52 81c6-60-76-77-97-28-3 7-6 17-6 28h103" id="B"/><path fill="#3a414a" d="M100-194c62-1 85 37 85 99 1 63-27 99-86 99S16-35 15-95c0-66 28-99 85-99zM99-20c44 1 53-31 53-75 0-43-8-75-51-75s-53 32-53 75 10 74 51 75" id="C"/><path fill="#3a414a" d="M185-189c-5-48-123-54-124 2 14 75 158 14 163 119 3 78-121 87-175 55-17-10-28-26-33-46l33-7c5 56 141 63 141-1 0-78-155-14-162-118-5-82 145-84 179-34 5 7 8 16 11 25" id="D"/><path fill="#3a414a" d="M30-248c87 1 191-15 191 75 0 78-77 80-158 76V0H30v-248zm33 125c57 0 124 11 124-50 0-59-68-47-124-48v98" id="E"/><path fill="#3a414a" d="M205 0l-28-72H64L36 0H1l101-248h38L239 0h-34zm-38-99l-47-123c-12 45-31 82-46 123h93" id="F"/><path fill="#3a414a" d="M233-177c-1 41-23 64-60 70L243 0h-38l-65-103H63V0H30v-248c88 3 205-21 203 71zM63-129c60-2 137 13 137-47 0-61-80-42-137-45v92" id="G"/><path fill="#3a414a" d="M140-251c81 0 123 46 123 126C263-53 228-8 163 1c7 30 30 48 69 40v23c-55 16-95-15-103-61C56-3 17-48 17-125c0-80 42-126 123-126zm0 227c63 0 89-41 89-101s-29-99-89-99c-61 0-89 39-89 99S79-25 140-24" id="H"/><g id="b"><use transform="matrix(0.06790123456790123,0,0,0.06790123456790123,0,0)" xlink:href="#A"/><use transform="matrix(0.06790123456790123,0,0,0.06790123456790123,19.012345679012345,0)" xlink:href="#B"/><use transform="matrix(0.06790123456790123,0,0,0.06790123456790123,32.592592592592595,0)" xlink:href="#C"/><use transform="matrix(0.06790123456790123,0,0,0.06790123456790123,46.17283950617284,0)" xlink:href="#D"/><use transform="matrix(0.06790123456790123,0,0,0.06790123456790123,62.46913580246914,0)" xlink:href="#E"/><use transform="matrix(0.06790123456790123,0,0,0.06790123456790123,76.9320987654321,0)" xlink:href="#F"/><use transform="matrix(0.06790123456790123,0,0,0.06790123456790123,93.22839506172839,0)" xlink:href="#G"/><use transform="matrix(0.06790123456790123,0,0,0.06790123456790123,110.81481481481481,0)" xlink:href="#H"/><use transform="matrix(0.06790123456790123,0,0,0.06790123456790123,129.82716049382717,0)" xlink:href="#z"/></g><g id="c"><use transform="matrix(0.06790123456790123,0,0,0.06790123456790123,0,0)" xlink:href="#D"/><use transform="matrix(0.06790123456790123,0,0,0.06790123456790123,16.296296296296294,0)" xlink:href="#x"/><use transform="matrix(0.06790123456790123,0,0,0.06790123456790123,35.30864197530864,0)" xlink:href="#D"/><use transform="matrix(0.06790123456790123,0,0,0.06790123456790123,51.60493827160494,0)" xlink:href="#F"/></g><path fill="#3a414a" d="M63-220v92h138v28H63V0H30v-248h175v28H63" id="I"/><path fill="#3a414a" d="M30-248c118-7 216 8 213 122C240-48 200 0 122 0H30v-248zM63-27c89 8 146-16 146-99s-60-101-146-95v194" id="J"/><g id="d"><use transform="matrix(0.06790123456790123,0,0,0.06790123456790123,0,0)" xlink:href="#I"/><use transform="matrix(0.06790123456790123,0,0,0.06790123456790123,14.87037037037037,0)" xlink:href="#D"/><use transform="matrix(0.06790123456790123,0,0,0.06790123456790123,31.166666666666664,0)" xlink:href="#J"/><use transform="matrix(0.06790123456790123,0,0,0.06790123456790123,48.75308641975308,0)" xlink:href="#I"/></g><path fill="#3a414a" d="M160-131c35 5 61 23 61 61C221 17 115-2 30 0v-248c76 3 177-17 177 60 0 33-19 50-47 57zm-97-11c50-1 110 9 110-42 0-47-63-36-110-37v79zm0 115c55-2 124 14 124-45 0-56-70-42-124-44v89" id="K"/><path fill="#3a414a" d="M141-36C126-15 110 5 73 4 37 3 15-17 15-53c-1-64 63-63 125-63 3-35-9-54-41-54-24 1-41 7-42 31l-33-3c5-37 33-52 76-52 45 0 72 20 72 64v82c-1 20 7 32 28 27v20c-31 9-61-2-59-35zM48-53c0 20 12 33 32 33 41-3 63-29 60-74-43 2-92-5-92 41" id="L"/><path fill="#3a414a" d="M96-169c-40 0-48 33-48 73s9 75 48 75c24 0 41-14 43-38l32 2c-6 37-31 61-74 61-59 0-76-41-82-99-10-93 101-131 147-64 4 7 5 14 7 22l-32 3c-4-21-16-35-41-35" id="M"/><path fill="#3a414a" d="M143 0L79-87 56-68V0H24v-261h32v163l83-92h37l-77 82L181 0h-38" id="N"/><path fill="#3a414a" d="M115-194c53 0 69 39 70 98 0 66-23 100-70 100C84 3 66-7 56-30L54 0H23l1-261h32v101c10-23 28-34 59-34zm-8 174c40 0 45-34 45-75 0-40-5-75-45-74-42 0-51 32-51 76 0 43 10 73 51 73" id="O"/><path fill="#3a414a" d="M117-194c89-4 53 116 60 194h-32v-121c0-31-8-49-39-48C34-167 62-67 57 0H25l-1-190h30c1 10-1 24 2 32 11-22 29-35 61-36" id="P"/><g id="e"><use transform="matrix(0.06790123456790123,0,0,0.06790123456790123,0,0)" xlink:href="#K"/><use transform="matrix(0.06790123456790123,0,0,0.06790123456790123,16.296296296296294,0)" xlink:href="#L"/><use transform="matrix(0.06790123456790123,0,0,0.06790123456790123,29.87654320987654,0)" xlink:href="#M"/><use transform="matrix(0.06790123456790123,0,0,0.06790123456790123,42.09876543209876,0)" xlink:href="#N"/><use transform="matrix(0.06790123456790123,0,0,0.06790123456790123,54.32098765432098,0)" xlink:href="#O"/><use transform="matrix(0.06790123456790123,0,0,0.06790123456790123,67.90123456790123,0)" xlink:href="#C"/><use transform="matrix(0.06790123456790123,0,0,0.06790123456790123,81.48148148148147,0)" xlink:href="#P"/><use transform="matrix(0.06790123456790123,0,0,0.06790123456790123,95.06172839506172,0)" xlink:href="#B"/></g><path fill="#3a414a" d="M240 0l2-218c-23 76-54 145-80 218h-23L58-218 59 0H30v-248h44l77 211c21-75 51-140 76-211h43V0h-30" id="Q"/><path fill="#3a414a" d="M85-194c31 0 48 13 60 33l-1-100h32l1 261h-30c-2-10 0-23-3-31C134-8 116 4 85 4 32 4 16-35 15-94c0-66 23-100 70-100zm9 24c-40 0-46 34-46 75 0 40 6 74 45 74 42 0 51-32 51-76 0-42-9-74-50-73" id="R"/><path fill="#3a414a" d="M24 0v-261h32V0H24" id="S"/><g id="f"><use transform="matrix(0.06790123456790123,0,0,0.06790123456790123,0,0)" xlink:href="#Q"/><use transform="matrix(0.06790123456790123,0,0,0.06790123456790123,20.30246913580247,0)" xlink:href="#C"/><use transform="matrix(0.06790123456790123,0,0,0.06790123456790123,33.882716049382715,0)" xlink:href="#R"/><use transform="matrix(0.06790123456790123,0,0,0.06790123456790123,47.46296296296296,0)" xlink:href="#B"/><use transform="matrix(0.06790123456790123,0,0,0.06790123456790123,61.04320987654321,0)" xlink:href="#S"/></g><path fill="#3a414a" d="M190 0L58-211 59 0H30v-248h39L202-35l-2-213h31V0h-41" id="T"/><path fill="#3a414a" d="M16-82v-28h88v28H16" id="U"/><path fill="#3a414a" d="M210-169c-67 3-38 105-44 169h-31v-121c0-29-5-50-35-48C34-165 62-65 56 0H25l-1-190h30c1 10-1 24 2 32 10-44 99-50 107 0 11-21 27-35 58-36 85-2 47 119 55 194h-31v-121c0-29-5-49-35-48" id="V"/><path fill="#3a414a" d="M59-47c-2 24 18 29 38 22v24C64 9 27 4 27-40v-127H5v-23h24l9-43h21v43h35v23H59v120" id="W"/><path fill="#3a414a" d="M24-231v-30h32v30H24zM24 0v-190h32V0H24" id="X"/><g id="g"><use transform="matrix(0.0493827160493827,0,0,0.0493827160493827,0,0)" xlink:href="#T"/><use transform="matrix(0.0493827160493827,0,0,0.0493827160493827,12.79012345679012,0)" xlink:href="#C"/><use transform="matrix(0.0493827160493827,0,0,0.0493827160493827,22.666666666666657,0)" xlink:href="#P"/><use transform="matrix(0.0493827160493827,0,0,0.0493827160493827,32.543209876543195,0)" xlink:href="#U"/><use transform="matrix(0.0493827160493827,0,0,0.0493827160493827,38.41975308641973,0)" xlink:href="#D"/><use transform="matrix(0.0493827160493827,0,0,0.0493827160493827,50.27160493827158,0)" xlink:href="#B"/><use transform="matrix(0.0493827160493827,0,0,0.0493827160493827,60.14814814814812,0)" xlink:href="#V"/><use transform="matrix(0.0493827160493827,0,0,0.0493827160493827,74.91358024691354,0)" xlink:href="#L"/><use transform="matrix(0.0493827160493827,0,0,0.0493827160493827,84.79012345679008,0)" xlink:href="#P"/><use transform="matrix(0.0493827160493827,0,0,0.0493827160493827,94.66666666666663,0)" xlink:href="#W"/><use transform="matrix(0.0493827160493827,0,0,0.0493827160493827,99.6049382716049,0)" xlink:href="#X"/><use transform="matrix(0.0493827160493827,0,0,0.0493827160493827,103.50617283950612,0)" xlink:href="#M"/></g><g id="h"><use transform="matrix(0.0493827160493827,0,0,0.0493827160493827,0,0)" xlink:href="#y"/><use transform="matrix(0.0493827160493827,0,0,0.0493827160493827,16.395061728395053,0)" xlink:href="#B"/><use transform="matrix(0.0493827160493827,0,0,0.0493827160493827,26.271604938271597,0)" xlink:href="#O"/></g><g id="i"><use transform="matrix(0.0493827160493827,0,0,0.0493827160493827,0,0)" xlink:href="#Q"/><use transform="matrix(0.0493827160493827,0,0,0.0493827160493827,14.765432098765427,0)" xlink:href="#C"/><use transform="matrix(0.0493827160493827,0,0,0.0493827160493827,24.641975308641968,0)" xlink:href="#R"/><use transform="matrix(0.0493827160493827,0,0,0.0493827160493827,34.518518518518505,0)" xlink:href="#B"/><use transform="matrix(0.0493827160493827,0,0,0.0493827160493827,44.39506172839504,0)" xlink:href="#S"/></g><path fill="#3a414a" d="M212-179c-10-28-35-45-73-45-59 0-87 40-87 99 0 60 29 101 89 101 43 0 62-24 78-52l27 14C228-24 195 4 139 4 59 4 22-46 18-125c-6-104 99-153 187-111 19 9 31 26 39 46" id="Y"/><path fill="#3a414a" d="M127-220V0H93v-220H8v-28h204v28h-85" id="Z"/><g id="j"><use transform="matrix(0.06790123456790123,0,0,0.06790123456790123,0,0)" xlink:href="#J"/><use transform="matrix(0.06790123456790123,0,0,0.06790123456790123,17.586419753086417,0)" xlink:href="#Y"/><use transform="matrix(0.06790123456790123,0,0,0.06790123456790123,35.172839506172835,0)" xlink:href="#F"/><use transform="matrix(0.06790123456790123,0,0,0.06790123456790123,49.6358024691358,0)" xlink:href="#Z"/></g><path fill="#3a414a" d="M137 0h-34L2-248h35l83 218 83-218h36" id="aa"/><path fill="#3a414a" d="M84 4C-5 8 30-112 23-190h32v120c0 31 7 50 39 49 72-2 45-101 50-169h31l1 190h-30c-1-10 1-25-2-33-11 22-28 36-60 37" id="ab"/><g id="k"><use transform="matrix(0.06790123456790123,0,0,0.06790123456790123,0,0)" xlink:href="#aa"/><use transform="matrix(0.06790123456790123,0,0,0.06790123456790123,14.938271604938269,0)" xlink:href="#C"/><use transform="matrix(0.06790123456790123,0,0,0.06790123456790123,28.518518518518515,0)" xlink:href="#M"/><use transform="matrix(0.06790123456790123,0,0,0.06790123456790123,40.74074074074073,0)" xlink:href="#E"/><use transform="matrix(0.06790123456790123,0,0,0.06790123456790123,57.037037037037024,0)" xlink:href="#ab"/><use transform="matrix(0.06790123456790123,0,0,0.06790123456790123,70.61728395061726,0)" xlink:href="#O"/></g><path fill="#3a414a" d="M194 0L95-120 63-95V0H30v-248h33v124l119-124h40L117-140 236 0h-42" id="ac"/><g id="l"><use transform="matrix(0.06790123456790123,0,0,0.06790123456790123,0,0)" xlink:href="#D"/><use transform="matrix(0.06790123456790123,0,0,0.06790123456790123,16.296296296296294,0)" xlink:href="#ac"/><use transform="matrix(0.06790123456790123,0,0,0.06790123456790123,32.59259259259259,0)" xlink:href="#x"/><use transform="matrix(0.06790123456790123,0,0,0.06790123456790123,51.60493827160494,0)" xlink:href="#D"/></g><path fill="#3a414a" d="M135-143c-3-34-86-38-87 0 15 53 115 12 119 90S17 21 10-45l28-5c4 36 97 45 98 0-10-56-113-15-118-90-4-57 82-63 122-42 12 7 21 19 24 35" id="ad"/><g id="m"><use transform="matrix(0.06790123456790123,0,0,0.06790123456790123,0,0)" xlink:href="#F"/><use transform="matrix(0.06790123456790123,0,0,0.06790123456790123,16.296296296296294,0)" xlink:href="#ab"/><use transform="matrix(0.06790123456790123,0,0,0.06790123456790123,29.87654320987654,0)" xlink:href="#ad"/><use transform="matrix(0.06790123456790123,0,0,0.06790123456790123,42.09876543209876,0)" xlink:href="#A"/><use transform="matrix(0.06790123456790123,0,0,0.06790123456790123,61.1111111111111,0)" xlink:href="#B"/><use transform="matrix(0.06790123456790123,0,0,0.06790123456790123,74.69135802469134,0)" xlink:href="#C"/><use transform="matrix(0.06790123456790123,0,0,0.06790123456790123,88.2716049382716,0)" xlink:href="#J"/><use transform="matrix(0.06790123456790123,0,0,0.06790123456790123,105.85802469135803,0)" xlink:href="#Y"/><use transform="matrix(0.06790123456790123,0,0,0.06790123456790123,123.44444444444443,0)" xlink:href="#F"/><use transform="matrix(0.06790123456790123,0,0,0.06790123456790123,137.9074074074074,0)" xlink:href="#Z"/></g><path fill="#3a414a" d="M115-194c55 1 70 41 70 98S169 2 115 4C84 4 66-9 55-30l1 105H24l-1-265h31l2 30c10-21 28-34 59-34zm-8 174c40 0 45-34 45-75s-6-73-45-74c-42 0-51 32-51 76 0 43 10 73 51 73" id="ae"/><path fill="#3a414a" d="M114-163C36-179 61-72 57 0H25l-1-190h30c1 12-1 29 2 39 6-27 23-49 58-41v29" id="af"/><path fill="#3a414a" d="M101-234c-31-9-42 10-38 44h38v23H63V0H32v-167H5v-23h27c-7-52 17-82 69-68v24" id="ag"/><g id="n"><use transform="matrix(0.049382716049382706,0,0,0.049382716049382706,0,0)" xlink:href="#ae"/><use transform="matrix(0.049382716049382706,0,0,0.049382716049382706,9.87654320987654,0)" xlink:href="#af"/><use transform="matrix(0.049382716049382706,0,0,0.049382716049382706,15.75308641975308,0)" xlink:href="#C"/><use transform="matrix(0.049382716049382706,0,0,0.049382716049382706,25.629629629629626,0)" xlink:href="#ag"/><use transform="matrix(0.049382716049382706,0,0,0.049382716049382706,30.56790123456789,0)" xlink:href="#X"/><use transform="matrix(0.049382716049382706,0,0,0.049382716049382706,34.469135802469125,0)" xlink:href="#S"/><use transform="matrix(0.049382716049382706,0,0,0.049382716049382706,38.37037037037036,0)" xlink:href="#B"/></g><g id="o"><use transform="matrix(0.049382716049382706,0,0,0.049382716049382706,0,0)" xlink:href="#C"/><use transform="matrix(0.049382716049382706,0,0,0.049382716049382706,9.87654320987654,0)" xlink:href="#ag"/></g><path fill="#3a414a" d="M33 0v-248h34V0H33" id="ah"/><g id="p"><use transform="matrix(0.06172839506172839,0,0,0.06172839506172839,0,0)" xlink:href="#ah"/><use transform="matrix(0.06172839506172839,0,0,0.06172839506172839,6.172839506172839,0)" xlink:href="#P"/><use transform="matrix(0.06172839506172839,0,0,0.06172839506172839,18.51851851851852,0)" xlink:href="#W"/><use transform="matrix(0.06172839506172839,0,0,0.06172839506172839,24.691358024691358,0)" xlink:href="#B"/><use transform="matrix(0.06172839506172839,0,0,0.06172839506172839,37.03703703703704,0)" xlink:href="#P"/><use transform="matrix(0.06172839506172839,0,0,0.06172839506172839,49.382716049382715,0)" xlink:href="#L"/><use transform="matrix(0.06172839506172839,0,0,0.06172839506172839,61.72839506172839,0)" xlink:href="#W"/><use transform="matrix(0.06172839506172839,0,0,0.06172839506172839,67.90123456790123,0)" xlink:href="#X"/><use transform="matrix(0.06172839506172839,0,0,0.06172839506172839,72.77777777777777,0)" xlink:href="#C"/><use transform="matrix(0.06172839506172839,0,0,0.06172839506172839,85.12345679012346,0)" xlink:href="#P"/><use transform="matrix(0.06172839506172839,0,0,0.06172839506172839,97.46913580246914,0)" xlink:href="#L"/><use transform="matrix(0.06172839506172839,0,0,0.06172839506172839,109.81481481481482,0)" xlink:href="#S"/></g><g id="q"><use transform="matrix(0.06172839506172839,0,0,0.06172839506172839,0,0)" xlink:href="#D"/><use transform="matrix(0.06172839506172839,0,0,0.06172839506172839,14.814814814814813,0)" xlink:href="#W"/><use transform="matrix(0.06172839506172839,0,0,0.06172839506172839,20.98765432098765,0)" xlink:href="#L"/><use transform="matrix(0.06172839506172839,0,0,0.06172839506172839,33.33333333333333,0)" xlink:href="#P"/><use transform="matrix(0.06172839506172839,0,0,0.06172839506172839,45.679012345679006,0)" xlink:href="#R"/><use transform="matrix(0.06172839506172839,0,0,0.06172839506172839,58.02469135802468,0)" xlink:href="#L"/><use transform="matrix(0.06172839506172839,0,0,0.06172839506172839,70.37037037037037,0)" xlink:href="#af"/><use transform="matrix(0.06172839506172839,0,0,0.06172839506172839,77.71604938271605,0)" xlink:href="#R"/><use transform="matrix(0.06172839506172839,0,0,0.06172839506172839,90.06172839506173,0)" xlink:href="#ad"/></g><g id="r"><use transform="matrix(0.06172839506172839,0,0,0.06172839506172839,0,0)" xlink:href="#F"/><use transform="matrix(0.06172839506172839,0,0,0.06172839506172839,14.814814814814813,0)" xlink:href="#ab"/><use transform="matrix(0.06172839506172839,0,0,0.06172839506172839,27.160493827160494,0)" xlink:href="#ad"/><use transform="matrix(0.06172839506172839,0,0,0.06172839506172839,38.27160493827161,0)" xlink:href="#W"/><use transform="matrix(0.06172839506172839,0,0,0.06172839506172839,44.44444444444445,0)" xlink:href="#af"/><use transform="matrix(0.06172839506172839,0,0,0.06172839506172839,51.79012345679013,0)" xlink:href="#L"/><use transform="matrix(0.06172839506172839,0,0,0.06172839506172839,64.13580246913581,0)" xlink:href="#S"/><use transform="matrix(0.06172839506172839,0,0,0.06172839506172839,69.01234567901236,0)" xlink:href="#X"/><use transform="matrix(0.06172839506172839,0,0,0.06172839506172839,73.8888888888889,0)" xlink:href="#L"/><use transform="matrix(0.06172839506172839,0,0,0.06172839506172839,86.23456790123458,0)" xlink:href="#P"/></g><g id="s"><use transform="matrix(0.06172839506172839,0,0,0.06172839506172839,0,0)" xlink:href="#C"/><use transform="matrix(0.06172839506172839,0,0,0.06172839506172839,12.345679012345679,0)" xlink:href="#af"/></g><g id="t"><use transform="matrix(0.06172839506172839,0,0,0.06172839506172839,0,0)" xlink:href="#S"/><use transform="matrix(0.06172839506172839,0,0,0.06172839506172839,4.876543209876543,0)" xlink:href="#C"/><use transform="matrix(0.06172839506172839,0,0,0.06172839506172839,17.22222222222222,0)" xlink:href="#M"/><use transform="matrix(0.06172839506172839,0,0,0.06172839506172839,28.333333333333332,0)" xlink:href="#L"/><use transform="matrix(0.06172839506172839,0,0,0.06172839506172839,40.67901234567901,0)" xlink:href="#S"/></g><g id="u"><use transform="matrix(0.06790123456790123,0,0,0.06790123456790123,0,0)" xlink:href="#K"/><use transform="matrix(0.06790123456790123,0,0,0.06790123456790123,16.296296296296294,0)" xlink:href="#L"/><use transform="matrix(0.06790123456790123,0,0,0.06790123456790123,29.87654320987654,0)" xlink:href="#M"/><use transform="matrix(0.06790123456790123,0,0,0.06790123456790123,42.09876543209876,0)" xlink:href="#N"/><use transform="matrix(0.06790123456790123,0,0,0.06790123456790123,54.32098765432098,0)" xlink:href="#O"/><use transform="matrix(0.06790123456790123,0,0,0.06790123456790123,67.90123456790123,0)" xlink:href="#C"/><use transform="matrix(0.06790123456790123,0,0,0.06790123456790123,81.48148148148147,0)" xlink:href="#P"/><use transform="matrix(0.06790123456790123,0,0,0.06790123456790123,95.06172839506172,0)" xlink:href="#B"/></g><g id="v"><use transform="matrix(0.06790123456790123,0,0,0.06790123456790123,0,0)" xlink:href="#A"/><use transform="matrix(0.06790123456790123,0,0,0.06790123456790123,19.012345679012345,0)" xlink:href="#B"/><use transform="matrix(0.06790123456790123,0,0,0.06790123456790123,32.592592592592595,0)" xlink:href="#C"/><use transform="matrix(0.06790123456790123,0,0,0.06790123456790123,46.17283950617284,0)" xlink:href="#D"/><use transform="matrix(0.06790123456790123,0,0,0.06790123456790123,62.46913580246914,0)" xlink:href="#M"/><use transform="matrix(0.06790123456790123,0,0,0.06790123456790123,74.69135802469137,0)" xlink:href="#X"/><use transform="matrix(0.06790123456790123,0,0,0.06790123456790123,80.05555555555557,0)" xlink:href="#Q"/><use transform="matrix(0.06790123456790123,0,0,0.06790123456790123,100.35802469135804,0)" xlink:href="#z"/></g><g id="w"><use transform="matrix(0.0493827160493827,0,0,0.0493827160493827,0,0)" xlink:href="#D"/><use transform="matrix(0.0493827160493827,0,0,0.0493827160493827,11.851851851851848,0)" xlink:href="#B"/><use transform="matrix(0.0493827160493827,0,0,0.0493827160493827,21.728395061728385,0)" xlink:href="#V"/><use transform="matrix(0.0493827160493827,0,0,0.0493827160493827,36.49382716049381,0)" xlink:href="#L"/><use transform="matrix(0.0493827160493827,0,0,0.0493827160493827,46.370370370370345,0)" xlink:href="#P"/><use transform="matrix(0.0493827160493827,0,0,0.0493827160493827,56.24691358024688,0)" xlink:href="#W"/><use transform="matrix(0.0493827160493827,0,0,0.0493827160493827,61.185185185185155,0)" xlink:href="#X"/><use transform="matrix(0.0493827160493827,0,0,0.0493827160493827,65.08641975308639,0)" xlink:href="#M"/></g></defs></g></svg>