<svg xmlns="http://www.w3.org/2000/svg" xmlns:xlink="http://www.w3.org/1999/xlink" xmlns:lucid="lucid" width="1022.85" height="722.67"><g transform="translate(8.566666666705359 -310.0000000001163)" lucid:page-tab-id="TnZILs7i2x7y"><path d="M0 0h1870.87v1322.83H0z" fill="#fff"/><path d="M139.62 472a6 6 0 0 1 6-6h719.05a6 6 0 0 1 6 6v121.33a6 6 0 0 1-6 6H145.62a6 6 0 0 1-6-6zM139.62 825.33a6 6 0 0 1 6-6h719.05a6 6 0 0 1 6 6v181.34a6 6 0 0 1-6 6H145.62a6 6 0 0 1-6-6z" stroke="#000" stroke-opacity="0" fill="#f2f3f5"/><path d="M544.28 354c17.68 0 32 17.9 32 40s-14.32 40-32 40h-96c-17.67 0-32-17.9-32-40s14.33-40 32-40z" stroke="#000" stroke-width="2" fill="#fff"/><use xlink:href="#a" transform="matrix(1,0,0,1,421.2833333333334,358.99999999996123) translate(35 38.4625)"/><path d="M286.28 492.67c17.68 0 32 17.9 32 40s-14.32 40-32 40h-96c-17.67 0-32-17.9-32-40s14.33-40 32-40z" stroke="#000" stroke-width="2" fill="#fff"/><use xlink:href="#b" transform="matrix(1,0,0,1,163.28333333337218,497.66666666666674) translate(34.55 27.525)"/><use xlink:href="#c" transform="matrix(1,0,0,1,163.28333333337218,497.66666666666674) translate(49.574999999999996 49.125)"/><path d="M458.28 492.67c17.68 0 32 17.9 32 40s-14.32 40-32 40h-96c-17.67 0-32-17.9-32-40s14.33-40 32-40z" stroke="#000" stroke-width="2" fill="#fff"/><use xlink:href="#d" transform="matrix(1,0,0,1,335.2833333333723,497.66666666666674) translate(40.05 27.525)"/><use xlink:href="#c" transform="matrix(1,0,0,1,335.2833333333723,497.66666666666674) translate(49.574999999999996 49.125)"/><path d="M70.28 471a5 5 0 0 1 5-5h70a5 5 0 0 1 5 5v123.33a5 5 0 0 1-5 5h-70a5 5 0 0 1-5-5z" fill="none"/><path d="M150.28 599.33c-5.52 0-10-4.47-10-10v-46.66c0-5.53-4.47-10-10-10 5.53 0 10-4.48 10-10V476c0-5.52 4.48-10 10-10" stroke="#000" stroke-width="2" fill="none"/><use xlink:href="#e" transform="matrix(1,0,0,1,75.28333333333342,471) translate(-52.900000000000006 54.8)"/><use xlink:href="#f" transform="matrix(1,0,0,1,75.28333333333342,471) translate(-17.900000000000006 76.4)"/><path d="M70.28 335a5 5 0 0 1 5-5h70a5 5 0 0 1 5 5v112.67a5 5 0 0 1-5 5h-70a5 5 0 0 1-5-5z" fill="none"/><path d="M150.28 452.67c-5.52 0-10-4.48-10-10v-41.34c0-5.52-4.47-10-10-10 5.53 0 10-4.47 10-10V340c0-5.52 4.48-10 10-10" stroke="#000" stroke-width="2" fill="none"/><use xlink:href="#g" transform="matrix(1,0,0,1,75.28333333333342,335.0000000001163) translate(-43.900000000000006 49.3)"/><use xlink:href="#h" transform="matrix(1,0,0,1,75.28333333333342,335.0000000001163) translate(-8.900000000000006 70.9)"/><path d="M862.28 335a5 5 0 0 1 5-5h70a5 5 0 0 1 5 5v672.67a5 5 0 0 1-5 5h-70a5 5 0 0 1-5-5z" fill="none"/><path d="M862.28 1012.67c5.53 0 10-4.48 10-10V681.33c0-5.52 4.48-10 10-10-5.52 0-10-4.47-10-10V340c0-5.52-4.47-10-10-10" stroke="#000" stroke-width="2" fill="none"/><use xlink:href="#i" transform="matrix(1,0,0,1,897.2833333333333,335.0000000001163) translate(0 340.09999999999997)"/><path d="M370.95 712.67c17.67 0 32 17.9 32 40s-14.33 40-32 40h-96c-17.67 0-32-17.9-32-40s14.33-40 32-40z" stroke="#000" stroke-width="2" fill="#fff"/><use xlink:href="#j" transform="matrix(1,0,0,1,247.9500000000001,717.666666666686) translate(50 38.4625)"/><path d="M544.28 712.67c17.68 0 32 17.9 32 40s-14.32 40-32 40h-96c-17.67 0-32-17.9-32-40s14.33-40 32-40z" stroke="#000" stroke-width="2" fill="#fff"/><use xlink:href="#k" transform="matrix(1,0,0,1,421.28333333333353,717.666666666686) translate(22.199999999999996 38.4625)"/><path d="M544.28 620.67c17.68 0 32 17.9 32 40s-14.32 40-32 40h-96c-17.67 0-32-17.9-32-40s14.33-40 32-40z" stroke="#000" stroke-width="2" fill="#fff"/><use xlink:href="#l" transform="matrix(1,0,0,1,421.28333333333353,625.6666666667443) translate(54.525 38.4625)"/><path d="M717.62 712.67c17.67 0 32 17.9 32 40s-14.33 40-32 40h-96c-17.68 0-32-17.9-32-40s14.32-40 32-40z" stroke="#000" stroke-width="2" fill="#fff"/><use xlink:href="#m" transform="matrix(1,0,0,1,594.6166666666668,717.666666666686) translate(49.525 38.4625)"/><path d="M62.28 617.67a5 5 0 0 1 5-5h78a5 5 0 0 1 5 5V801a5 5 0 0 1-5 5h-78a5 5 0 0 1-5-5z" fill="none"/><path d="M150.28 806c-5.52 0-10-4.48-10-10v-76.67c0-5.52-4.47-10-10-10 5.53 0 10-4.47 10-10v-76.66c0-5.53 4.48-10 10-10" stroke="#000" stroke-width="2" fill="none"/><use xlink:href="#n" transform="matrix(1,0,0,1,67.28333333329465,617.6666666667053) translate(-46.95 84.80000000000001)"/><use xlink:href="#f" transform="matrix(1,0,0,1,67.28333333329465,617.6666666667053) translate(-8.900000000000006 106.4)"/><path d="M62.28 824.33a5 5 0 0 1 5-5h78a5 5 0 0 1 5 5v183.34a5 5 0 0 1-5 5h-78a5 5 0 0 1-5-5z" fill="none"/><path d="M150.28 1012.67c-5.52 0-10-4.48-10-10V926c0-5.52-4.47-10-10-10 5.53 0 10-4.48 10-10v-76.67c0-5.52 4.48-10 10-10" stroke="#000" stroke-width="2" fill="none"/><use xlink:href="#o" transform="matrix(1,0,0,1,67.28333333329465,824.333333333411) translate(-53.85000000000001 95.60000000000001)"/><path d="M286.28 876c17.68 0 32 17.9 32 40s-14.32 40-32 40h-96c-17.67 0-32-17.9-32-40s14.33-40 32-40z" stroke="#000" stroke-width="2" fill="#fff"/><use xlink:href="#p" transform="matrix(1,0,0,1,163.28333333337218,881.0000000000776) translate(41.099999999999994 38.4625)"/><path d="M458.28 876c17.68 0 32 17.9 32 40s-14.32 40-32 40h-96c-17.67 0-32-17.9-32-40s14.33-40 32-40z" stroke="#000" stroke-width="2" fill="#fff"/><use xlink:href="#q" transform="matrix(1,0,0,1,335.2833333333723,881.0000000000776) translate(22.624999999999993 38.4625)"/><path d="M630.28 876c17.68 0 32 17.9 32 40s-14.32 40-32 40h-96c-17.67 0-32-17.9-32-40s14.33-40 32-40z" fill="#fff"/><path d="M640.6 878.17l2.5 1.16 3.16 2 .47.4m5.16 4.82l.52.56 2.83 3.88.74 1.33m3.05 6.4l.8 1.97 1.26 4.8m1.06 7l.12 3.53-.22 3.54m-.98 7l-.3 1.64-1.67 5.16m-3.1 6.35l-1.95 3.08-2.18 2.66m-5.16 4.82l-1.82 1.34-3.17 1.78-1.1.44m-6.8 1.9l-1.68.2-1.84.08h-4m-8 0h-8m-8 0h-8m-8 0h-8m-8 0h-8m-8 0h-8m-8 0h-4l-3.24-.2-.3-.06m-6.8-1.9l-2.46-1.17-3.17-2-.46-.4m-5.16-4.82l-.53-.56-2.84-3.88-.72-1.33m-3.06-6.4l-.8-1.97-1.26-4.8m-1.05-7l-.12-3.53.22-3.54m.98-7l.3-1.64 1.68-5.16m3.1-6.35l1.95-3.08 2.2-2.66m5.16-4.82l1.82-1.34 3.18-1.78 1.1-.44m6.8-1.9l1.68-.2 1.84-.08h4m8 0h8m8 0h8m8 0h8m8 0h8m8 0h8m8 0h4l3.24.2.3.06" stroke="#000" stroke-width="2" fill="none"/><use xlink:href="#r" transform="matrix(1,0,0,1,507.2833333333724,881.0000000000776) translate(67.5 38.4625)"/><path d="M802.28 876c17.68 0 32 17.9 32 40s-14.32 40-32 40h-96c-17.67 0-32-17.9-32-40s14.33-40 32-40z" fill="#fff"/><path d="M812.6 878.17l2.5 1.16 3.16 2 .47.4m5.16 4.82l.52.56 2.83 3.88.74 1.33m3.05 6.4l.8 1.97 1.26 4.8m1.06 7l.12 3.53-.22 3.54m-.98 7l-.3 1.64-1.67 5.16m-3.1 6.35l-1.95 3.08-2.18 2.66m-5.16 4.82l-1.82 1.34-3.17 1.78-1.1.44m-6.8 1.9l-1.68.2-1.84.08h-4m-8 0h-8m-8 0h-8m-8 0h-8m-8 0h-8m-8 0h-8m-8 0h-4l-3.24-.2-.3-.06m-6.8-1.9l-2.46-1.17-3.17-2-.46-.4m-5.16-4.82l-.53-.56-2.84-3.88-.72-1.33m-3.06-6.4l-.8-1.97-1.26-4.8m-1.05-7l-.12-3.53.22-3.54m.98-7l.3-1.64 1.68-5.16m3.1-6.35l1.95-3.08 2.2-2.66m5.16-4.82l1.82-1.34 3.18-1.78 1.1-.44m6.8-1.9l1.68-.2 1.84-.08h4m8 0h8m8 0h8m8 0h8m8 0h8m8 0h8m8 0h4l3.24.2.3.06" stroke="#000" stroke-width="2" fill="none"/><use xlink:href="#r" transform="matrix(1,0,0,1,679.2833333333725,881.0000000000776) translate(67.5 38.4625)"/><path d="M630.28 492.67c17.68 0 32 17.9 32 40s-14.32 40-32 40h-96c-17.67 0-32-17.9-32-40s14.33-40 32-40z" fill="#fff"/><path d="M640.6 494.84l2.5 1.16 3.16 2 .47.38m5.16 4.84l.52.56 2.83 3.87.74 1.33m3.05 6.37l.8 2 1.26 4.77m1.06 7l.12 3.55-.22 3.53m-.98 7l-.3 1.64-1.67 5.16m-3.1 6.36l-1.95 3.1-2.18 2.65m-5.16 4.83l-1.82 1.34-3.17 1.77-1.1.45m-6.8 1.88l-1.68.22-1.84.07h-4m-8 0h-8m-8 0h-8m-8 0h-8m-8 0h-8m-8 0h-8m-8 0h-4l-3.24-.2-.3-.06m-6.8-1.9l-2.46-1.16-3.17-2-.46-.4m-5.16-4.83l-.53-.54-2.84-3.88-.72-1.32m-3.06-6.38l-.8-1.98-1.26-4.8m-1.05-7l-.12-3.53.22-3.54m.98-7l.3-1.64 1.68-5.17m3.1-6.36l1.95-3.08 2.2-2.67m5.16-4.82l1.82-1.34 3.18-1.77 1.1-.45m6.8-1.9l1.68-.22 1.84-.06h4m8 0h8m8 0h8m8 0h8m8 0h8m8 0h8m8 0h4l3.24.2.3.05" stroke="#000" stroke-width="2" fill="none"/><g><use xlink:href="#r" transform="matrix(1,0,0,1,507.2833333333724,497.66666666666663) translate(67.5 38.4625)"/></g><path d="M802.28 492.67c17.68 0 32 17.9 32 40s-14.32 40-32 40h-96c-17.67 0-32-17.9-32-40s14.33-40 32-40z" fill="#fff"/><path d="M812.6 494.84l2.5 1.16 3.16 2 .47.38m5.16 4.84l.52.56 2.83 3.87.74 1.33m3.05 6.37l.8 2 1.26 4.77m1.06 7l.12 3.55-.22 3.53m-.98 7l-.3 1.64-1.67 5.16m-3.1 6.36l-1.95 3.1-2.18 2.65m-5.16 4.83l-1.82 1.34-3.17 1.77-1.1.45m-6.8 1.88l-1.68.22-1.84.07h-4m-8 0h-8m-8 0h-8m-8 0h-8m-8 0h-8m-8 0h-8m-8 0h-4l-3.24-.2-.3-.06m-6.8-1.9l-2.46-1.16-3.17-2-.46-.4m-5.16-4.83l-.53-.54-2.84-3.88-.72-1.32m-3.06-6.38l-.8-1.98-1.26-4.8m-1.05-7l-.12-3.53.22-3.54m.98-7l.3-1.64 1.68-5.17m3.1-6.36l1.95-3.08 2.2-2.67m5.16-4.82l1.82-1.34 3.18-1.77 1.1-.45m6.8-1.9l1.68-.22 1.84-.06h4m8 0h8m8 0h8m8 0h8m8 0h8m8 0h8m8 0h4l3.24.2.3.05" stroke="#000" stroke-width="2" fill="none"/><g><use xlink:href="#r" transform="matrix(1,0,0,1,679.2833333333725,497.66666666666663) translate(67.5 38.4625)"/></g><defs><path d="M160-131c35 5 61 23 61 61C221 17 115-2 30 0v-248c76 3 177-17 177 60 0 33-19 50-47 57zm-97-11c50-1 110 9 110-42 0-47-63-36-110-37v79zm0 115c55-2 124 14 124-45 0-56-70-42-124-44v89" id="s"/><path d="M141-36C126-15 110 5 73 4 37 3 15-17 15-53c-1-64 63-63 125-63 3-35-9-54-41-54-24 1-41 7-42 31l-33-3c5-37 33-52 76-52 45 0 72 20 72 64v82c-1 20 7 32 28 27v20c-31 9-61-2-59-35zM48-53c0 20 12 33 32 33 41-3 63-29 60-74-43 2-92-5-92 41" id="t"/><path d="M96-169c-40 0-48 33-48 73s9 75 48 75c24 0 41-14 43-38l32 2c-6 37-31 61-74 61-59 0-76-41-82-99-10-93 101-131 147-64 4 7 5 14 7 22l-32 3c-4-21-16-35-41-35" id="u"/><path d="M143 0L79-87 56-68V0H24v-261h32v163l83-92h37l-77 82L181 0h-38" id="v"/><path d="M115-194c53 0 69 39 70 98 0 66-23 100-70 100C84 3 66-7 56-30L54 0H23l1-261h32v101c10-23 28-34 59-34zm-8 174c40 0 45-34 45-75 0-40-5-75-45-74-42 0-51 32-51 76 0 43 10 73 51 73" id="w"/><path d="M100-194c62-1 85 37 85 99 1 63-27 99-86 99S16-35 15-95c0-66 28-99 85-99zM99-20c44 1 53-31 53-75 0-43-8-75-51-75s-53 32-53 75 10 74 51 75" id="x"/><path d="M117-194c89-4 53 116 60 194h-32v-121c0-31-8-49-39-48C34-167 62-67 57 0H25l-1-190h30c1 10-1 24 2 32 11-22 29-35 61-36" id="y"/><path d="M100-194c63 0 86 42 84 106H49c0 40 14 67 53 68 26 1 43-12 49-29l28 8c-11 28-37 45-77 45C44 4 14-33 15-96c1-61 26-98 85-98zm52 81c6-60-76-77-97-28-3 7-6 17-6 28h103" id="z"/><g id="a"><use transform="matrix(0.05,0,0,0.05,0,0)" xlink:href="#s"/><use transform="matrix(0.05,0,0,0.05,12,0)" xlink:href="#t"/><use transform="matrix(0.05,0,0,0.05,22,0)" xlink:href="#u"/><use transform="matrix(0.05,0,0,0.05,31,0)" xlink:href="#v"/><use transform="matrix(0.05,0,0,0.05,40,0)" xlink:href="#w"/><use transform="matrix(0.05,0,0,0.05,50,0)" xlink:href="#x"/><use transform="matrix(0.05,0,0,0.05,60,0)" xlink:href="#y"/><use transform="matrix(0.05,0,0,0.05,70,0)" xlink:href="#z"/></g><path d="M114-163C36-179 61-72 57 0H25l-1-190h30c1 12-1 29 2 39 6-27 23-49 58-41v29" id="A"/><path d="M106-169C34-169 62-67 57 0H25v-261h32l-1 103c12-21 28-36 61-36 89 0 53 116 60 194h-32v-121c2-32-8-49-39-48" id="B"/><path d="M24 0v-261h32V0H24" id="C"/><path d="M135-143c-3-34-86-38-87 0 15 53 115 12 119 90S17 21 10-45l28-5c4 36 97 45 98 0-10-56-113-15-118-90-4-57 82-63 122-42 12 7 21 19 24 35" id="D"/><g id="b"><use transform="matrix(0.05,0,0,0.05,0,0)" xlink:href="#s"/><use transform="matrix(0.05,0,0,0.05,12,0)" xlink:href="#x"/><use transform="matrix(0.05,0,0,0.05,22,0)" xlink:href="#A"/><use transform="matrix(0.05,0,0,0.05,27.950000000000003,0)" xlink:href="#z"/><use transform="matrix(0.05,0,0,0.05,37.95,0)" xlink:href="#B"/><use transform="matrix(0.05,0,0,0.05,47.95,0)" xlink:href="#x"/><use transform="matrix(0.05,0,0,0.05,57.95,0)" xlink:href="#C"/><use transform="matrix(0.05,0,0,0.05,61.900000000000006,0)" xlink:href="#z"/><use transform="matrix(0.05,0,0,0.05,71.9,0)" xlink:href="#D"/></g><path d="M30-248c87 1 191-15 191 75 0 78-77 80-158 76V0H30v-248zm33 125c57 0 124 11 124-50 0-59-68-47-124-48v98" id="E"/><path d="M101-234c-31-9-42 10-38 44h38v23H63V0H32v-167H5v-23h27c-7-52 17-82 69-68v24" id="F"/><path d="M24-231v-30h32v30H24zM24 0v-190h32V0H24" id="G"/><g id="c"><use transform="matrix(0.05,0,0,0.05,0,0)" xlink:href="#E"/><use transform="matrix(0.05,0,0,0.05,12,0)" xlink:href="#A"/><use transform="matrix(0.05,0,0,0.05,17.95,0)" xlink:href="#x"/><use transform="matrix(0.05,0,0,0.05,27.950000000000003,0)" xlink:href="#F"/><use transform="matrix(0.05,0,0,0.05,32.95,0)" xlink:href="#G"/><use transform="matrix(0.05,0,0,0.05,36.900000000000006,0)" xlink:href="#C"/><use transform="matrix(0.05,0,0,0.05,40.85000000000001,0)" xlink:href="#z"/></g><path d="M185-189c-5-48-123-54-124 2 14 75 158 14 163 119 3 78-121 87-175 55-17-10-28-26-33-46l33-7c5 56 141 63 141-1 0-78-155-14-162-118-5-82 145-84 179-34 5 7 8 16 11 25" id="H"/><path d="M210-169c-67 3-38 105-44 169h-31v-121c0-29-5-50-35-48C34-165 62-65 56 0H25l-1-190h30c1 10-1 24 2 32 10-44 99-50 107 0 11-21 27-35 58-36 85-2 47 119 55 194h-31v-121c0-29-5-49-35-48" id="I"/><path d="M115-194c55 1 70 41 70 98S169 2 115 4C84 4 66-9 55-30l1 105H24l-1-265h31l2 30c10-21 28-34 59-34zm-8 174c40 0 45-34 45-75s-6-73-45-74c-42 0-51 32-51 76 0 43 10 73 51 73" id="J"/><g id="d"><use transform="matrix(0.05,0,0,0.05,0,0)" xlink:href="#H"/><use transform="matrix(0.05,0,0,0.05,12,0)" xlink:href="#t"/><use transform="matrix(0.05,0,0,0.05,22,0)" xlink:href="#I"/><use transform="matrix(0.05,0,0,0.05,36.95,0)" xlink:href="#J"/><use transform="matrix(0.05,0,0,0.05,46.95,0)" xlink:href="#C"/><use transform="matrix(0.05,0,0,0.05,50.900000000000006,0)" xlink:href="#z"/><use transform="matrix(0.05,0,0,0.05,60.900000000000006,0)" xlink:href="#D"/></g><path d="M212-179c-10-28-35-45-73-45-59 0-87 40-87 99 0 60 29 101 89 101 43 0 62-24 78-52l27 14C228-24 195 4 139 4 59 4 22-46 18-125c-6-104 99-153 187-111 19 9 31 26 39 46" id="K"/><path d="M59-47c-2 24 18 29 38 22v24C64 9 27 4 27-40v-127H5v-23h24l9-43h21v43h35v23H59v120" id="L"/><g id="e"><use transform="matrix(0.05,0,0,0.05,0,0)" xlink:href="#K"/><use transform="matrix(0.05,0,0,0.05,12.950000000000001,0)" xlink:href="#x"/><use transform="matrix(0.05,0,0,0.05,22.950000000000003,0)" xlink:href="#I"/><use transform="matrix(0.05,0,0,0.05,37.900000000000006,0)" xlink:href="#J"/><use transform="matrix(0.05,0,0,0.05,47.900000000000006,0)" xlink:href="#x"/><use transform="matrix(0.05,0,0,0.05,57.900000000000006,0)" xlink:href="#y"/><use transform="matrix(0.05,0,0,0.05,67.9,0)" xlink:href="#z"/><use transform="matrix(0.05,0,0,0.05,77.9,0)" xlink:href="#y"/><use transform="matrix(0.05,0,0,0.05,87.9,0)" xlink:href="#L"/></g><path d="M240 0l2-218c-23 76-54 145-80 218h-23L58-218 59 0H30v-248h44l77 211c21-75 51-140 76-211h43V0h-30" id="M"/><path d="M85-194c31 0 48 13 60 33l-1-100h32l1 261h-30c-2-10 0-23-3-31C134-8 116 4 85 4 32 4 16-35 15-94c0-66 23-100 70-100zm9 24c-40 0-46 34-46 75 0 40 6 74 45 74 42 0 51-32 51-76 0-42-9-74-50-73" id="N"/><g id="f"><use transform="matrix(0.05,0,0,0.05,0,0)" xlink:href="#M"/><use transform="matrix(0.05,0,0,0.05,14.950000000000001,0)" xlink:href="#x"/><use transform="matrix(0.05,0,0,0.05,24.950000000000003,0)" xlink:href="#N"/><use transform="matrix(0.05,0,0,0.05,34.95,0)" xlink:href="#z"/><use transform="matrix(0.05,0,0,0.05,44.95,0)" xlink:href="#C"/><use transform="matrix(0.05,0,0,0.05,48.900000000000006,0)" xlink:href="#D"/></g><path d="M33 0v-248h34V0H33" id="O"/><path d="M177-190C167-65 218 103 67 71c-23-6-38-20-44-43l32-5c15 47 100 32 89-28v-30C133-14 115 1 83 1 29 1 15-40 15-95c0-56 16-97 71-98 29-1 48 16 59 35 1-10 0-23 2-32h30zM94-22c36 0 50-32 50-73 0-42-14-75-50-75-39 0-46 34-46 75s6 73 46 73" id="P"/><path d="M108 0H70L1-190h34L89-25l56-165h34" id="Q"/><g id="g"><use transform="matrix(0.05,0,0,0.05,0,0)" xlink:href="#O"/><use transform="matrix(0.05,0,0,0.05,5,0)" xlink:href="#y"/><use transform="matrix(0.05,0,0,0.05,15,0)" xlink:href="#L"/><use transform="matrix(0.05,0,0,0.05,20,0)" xlink:href="#z"/><use transform="matrix(0.05,0,0,0.05,30,0)" xlink:href="#P"/><use transform="matrix(0.05,0,0,0.05,40,0)" xlink:href="#A"/><use transform="matrix(0.05,0,0,0.05,45.95,0)" xlink:href="#t"/><use transform="matrix(0.05,0,0,0.05,55.95,0)" xlink:href="#L"/><use transform="matrix(0.05,0,0,0.05,60.95,0)" xlink:href="#G"/><use transform="matrix(0.05,0,0,0.05,64.9,0)" xlink:href="#Q"/><use transform="matrix(0.05,0,0,0.05,73.9,0)" xlink:href="#z"/></g><g id="h"><use transform="matrix(0.05,0,0,0.05,0,0)" xlink:href="#M"/><use transform="matrix(0.05,0,0,0.05,14.950000000000001,0)" xlink:href="#x"/><use transform="matrix(0.05,0,0,0.05,24.950000000000003,0)" xlink:href="#N"/><use transform="matrix(0.05,0,0,0.05,34.95,0)" xlink:href="#z"/><use transform="matrix(0.05,0,0,0.05,44.95,0)" xlink:href="#C"/></g><path d="M84 4C-5 8 30-112 23-190h32v120c0 31 7 50 39 49 72-2 45-101 50-169h31l1 190h-30c-1-10 1-25-2-33-11 22-28 36-60 37" id="R"/><g id="i"><use transform="matrix(0.05,0,0,0.05,0,0)" xlink:href="#H"/><use transform="matrix(0.05,0,0,0.05,12,0)" xlink:href="#R"/><use transform="matrix(0.05,0,0,0.05,22,0)" xlink:href="#J"/><use transform="matrix(0.05,0,0,0.05,32,0)" xlink:href="#z"/><use transform="matrix(0.05,0,0,0.05,42,0)" xlink:href="#A"/><use transform="matrix(0.05,0,0,0.05,47.95,0)" xlink:href="#I"/><use transform="matrix(0.05,0,0,0.05,62.900000000000006,0)" xlink:href="#x"/><use transform="matrix(0.05,0,0,0.05,72.9,0)" xlink:href="#N"/><use transform="matrix(0.05,0,0,0.05,82.9,0)" xlink:href="#z"/><use transform="matrix(0.05,0,0,0.05,92.9,0)" xlink:href="#C"/></g><path d="M140-251c81 0 123 46 123 126C263-46 219 4 140 4 59 4 17-45 17-125s42-126 123-126zm0 227c63 0 89-41 89-101s-29-99-89-99c-61 0-89 39-89 99S79-25 140-24" id="S"/><path d="M205 0l-28-72H64L36 0H1l101-248h38L239 0h-34zm-38-99l-47-123c-12 45-31 82-46 123h93" id="T"/><g id="j"><use transform="matrix(0.05,0,0,0.05,0,0)" xlink:href="#H"/><use transform="matrix(0.05,0,0,0.05,12,0)" xlink:href="#S"/><use transform="matrix(0.05,0,0,0.05,26,0)" xlink:href="#H"/><use transform="matrix(0.05,0,0,0.05,38,0)" xlink:href="#T"/></g><path d="M143 4C61 4 22-44 18-125c-5-107 100-154 193-111 17 8 29 25 37 43l-32 9c-13-25-37-40-76-40-61 0-88 39-88 99 0 61 29 100 91 101 35 0 62-11 79-27v-45h-74v-28h105v86C228-13 192 4 143 4" id="U"/><path d="M233-177c-1 41-23 64-60 70L243 0h-38l-65-103H63V0H30v-248c88 3 205-21 203 71zM63-129c60-2 137 13 137-47 0-61-80-42-137-45v92" id="V"/><path d="M140-251c81 0 123 46 123 126C263-53 228-8 163 1c7 30 30 48 69 40v23c-55 16-95-15-103-61C56-3 17-48 17-125c0-80 42-126 123-126zm0 227c63 0 89-41 89-101s-29-99-89-99c-61 0-89 39-89 99S79-25 140-24" id="W"/><path d="M30 0v-248h33v221h125V0H30" id="X"/><g id="k"><use transform="matrix(0.05,0,0,0.05,0,0)" xlink:href="#U"/><use transform="matrix(0.05,0,0,0.05,14,0)" xlink:href="#z"/><use transform="matrix(0.05,0,0,0.05,24,0)" xlink:href="#x"/><use transform="matrix(0.05,0,0,0.05,34,0)" xlink:href="#H"/><use transform="matrix(0.05,0,0,0.05,46,0)" xlink:href="#E"/><use transform="matrix(0.05,0,0,0.05,56.650000000000006,0)" xlink:href="#T"/><use transform="matrix(0.05,0,0,0.05,68.65,0)" xlink:href="#V"/><use transform="matrix(0.05,0,0,0.05,81.60000000000001,0)" xlink:href="#W"/><use transform="matrix(0.05,0,0,0.05,95.60000000000001,0)" xlink:href="#X"/></g><path d="M266 0h-40l-56-210L115 0H75L2-248h35L96-30l15-64 43-154h32l59 218 59-218h35" id="Y"/><g id="l"><use transform="matrix(0.05,0,0,0.05,0,0)" xlink:href="#S"/><use transform="matrix(0.05,0,0,0.05,14,0)" xlink:href="#Y"/><use transform="matrix(0.05,0,0,0.05,30.950000000000003,0)" xlink:href="#X"/></g><path d="M137 0h-34L2-248h35l83 218 83-218h36" id="Z"/><g id="m"><use transform="matrix(0.05,0,0,0.05,0,0)" xlink:href="#E"/><use transform="matrix(0.05,0,0,0.05,12,0)" xlink:href="#V"/><use transform="matrix(0.05,0,0,0.05,24.950000000000003,0)" xlink:href="#S"/><use transform="matrix(0.05,0,0,0.05,38.95,0)" xlink:href="#Z"/></g><g id="n"><use transform="matrix(0.05,0,0,0.05,0,0)" xlink:href="#s"/><use transform="matrix(0.05,0,0,0.05,12,0)" xlink:href="#t"/><use transform="matrix(0.05,0,0,0.05,22,0)" xlink:href="#u"/><use transform="matrix(0.05,0,0,0.05,31,0)" xlink:href="#v"/><use transform="matrix(0.05,0,0,0.05,40,0)" xlink:href="#P"/><use transform="matrix(0.05,0,0,0.05,50,0)" xlink:href="#A"/><use transform="matrix(0.05,0,0,0.05,55.95,0)" xlink:href="#x"/><use transform="matrix(0.05,0,0,0.05,65.95,0)" xlink:href="#R"/><use transform="matrix(0.05,0,0,0.05,75.95,0)" xlink:href="#y"/><use transform="matrix(0.05,0,0,0.05,85.95,0)" xlink:href="#N"/></g><g id="o"><use transform="matrix(0.05,0,0,0.05,0,0)" xlink:href="#Z"/><use transform="matrix(0.05,0,0,0.05,11,0)" xlink:href="#x"/><use transform="matrix(0.05,0,0,0.05,21,0)" xlink:href="#u"/><use transform="matrix(0.05,0,0,0.05,30,0)" xlink:href="#t"/><use transform="matrix(0.05,0,0,0.05,40,0)" xlink:href="#w"/><use transform="matrix(0.05,0,0,0.05,50,0)" xlink:href="#R"/><use transform="matrix(0.05,0,0,0.05,60,0)" xlink:href="#C"/><use transform="matrix(0.05,0,0,0.05,63.95,0)" xlink:href="#t"/><use transform="matrix(0.05,0,0,0.05,73.95,0)" xlink:href="#A"/><use transform="matrix(0.05,0,0,0.05,79.9,0)" xlink:href="#G"/><use transform="matrix(0.05,0,0,0.05,83.85000000000001,0)" xlink:href="#z"/><use transform="matrix(0.05,0,0,0.05,93.85000000000001,0)" xlink:href="#D"/></g><g id="p"><use transform="matrix(0.05,0,0,0.05,0,0)" xlink:href="#M"/><use transform="matrix(0.05,0,0,0.05,14.950000000000001,0)" xlink:href="#G"/><use transform="matrix(0.05,0,0,0.05,18.900000000000002,0)" xlink:href="#y"/><use transform="matrix(0.05,0,0,0.05,28.900000000000002,0)" xlink:href="#z"/><use transform="matrix(0.05,0,0,0.05,38.900000000000006,0)" xlink:href="#A"/><use transform="matrix(0.05,0,0,0.05,44.85000000000001,0)" xlink:href="#t"/><use transform="matrix(0.05,0,0,0.05,54.85,0)" xlink:href="#C"/><use transform="matrix(0.05,0,0,0.05,58.80000000000001,0)" xlink:href="#D"/></g><g id="q"><use transform="matrix(0.05,0,0,0.05,0,0)" xlink:href="#K"/><use transform="matrix(0.05,0,0,0.05,12.950000000000001,0)" xlink:href="#x"/><use transform="matrix(0.05,0,0,0.05,22.950000000000003,0)" xlink:href="#I"/><use transform="matrix(0.05,0,0,0.05,37.900000000000006,0)" xlink:href="#I"/><use transform="matrix(0.05,0,0,0.05,52.85,0)" xlink:href="#x"/><use transform="matrix(0.05,0,0,0.05,62.85,0)" xlink:href="#N"/><use transform="matrix(0.05,0,0,0.05,72.85000000000001,0)" xlink:href="#G"/><use transform="matrix(0.05,0,0,0.05,76.80000000000001,0)" xlink:href="#L"/><use transform="matrix(0.05,0,0,0.05,81.80000000000001,0)" xlink:href="#G"/><use transform="matrix(0.05,0,0,0.05,85.75000000000001,0)" xlink:href="#z"/><use transform="matrix(0.05,0,0,0.05,95.75000000000001,0)" xlink:href="#D"/></g><path d="M33 0v-38h34V0H33" id="aa"/><g id="r"><use transform="matrix(0.05,0,0,0.05,0,0)" xlink:href="#aa"/><use transform="matrix(0.05,0,0,0.05,5,0)" xlink:href="#aa"/><use transform="matrix(0.05,0,0,0.05,10,0)" xlink:href="#aa"/></g></defs></g></svg>