<svg xmlns="http://www.w3.org/2000/svg" xmlns:xlink="http://www.w3.org/1999/xlink" xmlns:lucid="lucid" width="595.48" height="760"><g transform="translate(-407.59583333333336 -136)" lucid:page-tab-id="2DJ__sKbPTvi"><path d="M0 0h1000v1000H0z" fill="#fff"/><path d="M583.07 361a5 5 0 0 1 5-5h150a5 5 0 0 1 5 5v110a5 5 0 0 1-5 5h-150a5 5 0 0 1-5-5z" stroke="#000" stroke-width="2" fill="#fff"/><use xlink:href="#a" transform="matrix(1,0,0,1,591.0708333333333,364) translate(56.525 55.6)"/><path d="M823.07 361a5 5 0 0 1 5-5h150a5 5 0 0 1 5 5v110a5 5 0 0 1-5 5h-150a5 5 0 0 1-5-5z" stroke="#000" stroke-width="2" fill="#666"/><use xlink:href="#b" transform="matrix(1,0,0,1,831.0708333333334,364) translate(53.025 55.6)"/><path d="M821.07 416h-58.5" stroke="#000" stroke-width="2" fill="none"/><path d="M822.07 417h-1.03v-2h1.03z" stroke="#000" stroke-width=".05"/><path d="M747.3 416l14.27-4.63v9.26zM583.07 561a5 5 0 0 1 5-5h150a5 5 0 0 1 5 5v114a5 5 0 0 1-5 5h-150a5 5 0 0 1-5-5z" stroke="#000" stroke-width="2" fill="#fff"/><use xlink:href="#c" transform="matrix(1,0,0,1,591.0708333333333,564) translate(41.55 57.6)"/><path d="M583.07 761a5 5 0 0 1 5-5h150a5 5 0 0 1 5 5v110a5 5 0 0 1-5 5h-150a5 5 0 0 1-5-5z" stroke="#000" stroke-width="2" fill="#fff"/><use xlink:href="#d" transform="matrix(1,0,0,1,591.0708333333333,764) translate(34.574999999999996 55.6)"/><path d="M583.07 161a5 5 0 0 1 5-5h150a5 5 0 0 1 5 5v110a5 5 0 0 1-5 5h-150a5 5 0 0 1-5-5z" stroke="#000" stroke-width="2" fill="#fff"/><use xlink:href="#e" transform="matrix(1,0,0,1,591.0708333333333,164) translate(1.5749999999999886 55.6)"/><path d="M664.07 354h-2v-27.2h2zm0-48.8h-2v-26.38h2z" stroke="#000" stroke-width=".05"/><path d="M664.07 355h-2v-1.03h2z"/><path d="M664.1 355.02h-2.05v-1.07h2.05zm-2-1.02v.98h1.95V354zM674.1 295.67l-1.7 1.02-9.33-15.77-9.32 15.76-1.72-1.03L663.07 277z" stroke="#000" stroke-width=".05"/><use xlink:href="#f" transform="matrix(1,0,0,1,595.1458333333333,305.2) translate(0 14.4)"/><path d="M664.07 554h-2v-27.2h2zm0-48.8h-2v-26.38h2z" stroke="#000" stroke-width=".05"/><path d="M664.07 555h-2v-1.03h2z"/><path d="M664.1 555.02h-2.05v-1.07h2.05zm-2-1.02v.98h1.95V554zM674.1 495.67l-1.7 1.02-9.33-15.77-9.32 15.76-1.72-1.03L663.07 477z" stroke="#000" stroke-width=".05"/><use xlink:href="#f" transform="matrix(1,0,0,1,595.1458333333333,505.2) translate(0 14.4)"/><path d="M664.07 754h-2v-25.2h2zm0-46.8h-2v-24.38h2z" stroke="#000" stroke-width=".05"/><path d="M664.07 755h-2v-1.03h2z"/><path d="M664.1 755.02h-2.05v-1.07h2.05zm-2-1.02v.98h1.95V754zM674.1 699.67l-1.7 1.02-9.33-15.77-9.32 15.76-1.72-1.03L663.07 681z" stroke="#000" stroke-width=".05"/><use xlink:href="#g" transform="matrix(1,0,0,1,601.6208333333333,707.2) translate(0 14.4)"/><path d="M524.07 617h57v2h-59v-80.56h2zm56.18-379.33h-56.18v257.57h-2V235.67h58.18z" stroke="#000" stroke-width=".05"/><path d="M582.07 619h-1.03v-2h1.03z"/><path d="M582.1 619.02h-1.08V617h1.08zm-1.03-2V619h.98V617zM582.07 236.67L563.4 247.7l-1.02-1.7 15.76-9.33-15.76-9.32 1.02-1.72z" stroke="#000" stroke-width=".05"/><use xlink:href="#h" transform="matrix(1,0,0,1,476.6458333333334,495.23648425614806) translate(24.930000000000007 14.4)"/><use xlink:href="#i" transform="matrix(1,0,0,1,476.6458333333334,495.23648425614806) translate(0.005000000000002558 36)"/><path d="M454.07 815H577.7v2H452.06v-52.1h2zm126.18-628H454.07v513.1h-2V185h128.18z" stroke="#000" stroke-width=".05"/><path d="M578.7 817h-1.03v-2h1.02zM582.07 186l-18.67 11.04-1.02-1.72 15.76-9.32-15.76-9.32 1.02-1.72z" stroke="#000" stroke-width=".05"/><use xlink:href="#h" transform="matrix(1,0,0,1,410.59583333333336,700.1101822289535) translate(20.980000000000004 14.4)"/><use xlink:href="#j" transform="matrix(1,0,0,1,410.59583333333336,700.1101822289535) translate(0.005000000000002558 36)"/><use xlink:href="#k" transform="matrix(1,0,0,1,410.59583333333336,700.1101822289535) translate(3.0050000000000026 57.6)"/><path d="M785.07 619h-22.5v-2h20.5V443h-38v-2h40z" stroke="#000" stroke-width=".05"/><path d="M745.1 443h-1.03v-2h1.03z"/><path d="M745.12 443.02h-1.07v-2.04h1.07zm-1.02-2v1.96h.97v-1.96z" stroke="#000" stroke-width=".05"/><path d="M761.57 622.63L747.3 618l14.27-4.63z" fill="#fff"/><path d="M762.57 624l-18.5-6 18.5-6zm-12.03-6l10.03 3.26v-6.52z" stroke="#000" stroke-width=".05"/><defs><path d="M185-189c-5-48-123-54-124 2 14 75 158 14 163 119 3 78-121 87-175 55-17-10-28-26-33-46l33-7c5 56 141 63 141-1 0-78-155-14-162-118-5-82 145-84 179-34 5 7 8 16 11 25" id="l"/><path d="M24-231v-30h32v30H24zM24 0v-190h32V0H24" id="m"/><path d="M59-47c-2 24 18 29 38 22v24C64 9 27 4 27-40v-127H5v-23h24l9-43h21v43h35v23H59v120" id="n"/><path d="M100-194c63 0 86 42 84 106H49c0 40 14 67 53 68 26 1 43-12 49-29l28 8c-11 28-37 45-77 45C44 4 14-33 15-96c1-61 26-98 85-98zm52 81c6-60-76-77-97-28-3 7-6 17-6 28h103" id="o"/><g id="a"><use transform="matrix(0.05,0,0,0.05,0,0)" xlink:href="#l"/><use transform="matrix(0.05,0,0,0.05,12,0)" xlink:href="#m"/><use transform="matrix(0.05,0,0,0.05,15.949999999999998,0)" xlink:href="#n"/><use transform="matrix(0.05,0,0,0.05,20.95,0)" xlink:href="#o"/></g><path fill="#fff" d="M160-131c35 5 61 23 61 61C221 17 115-2 30 0v-248c76 3 177-17 177 60 0 33-19 50-47 57zm-97-11c50-1 110 9 110-42 0-47-63-36-110-37v79zm0 115c55-2 124 14 124-45 0-56-70-42-124-44v89" id="p"/><path fill="#fff" d="M100-194c62-1 85 37 85 99 1 63-27 99-86 99S16-35 15-95c0-66 28-99 85-99zM99-20c44 1 53-31 53-75 0-43-8-75-51-75s-53 32-53 75 10 74 51 75" id="q"/><path fill="#fff" d="M114-163C36-179 61-72 57 0H25l-1-190h30c1 12-1 29 2 39 6-27 23-49 58-41v29" id="r"/><path fill="#fff" d="M100-194c63 0 86 42 84 106H49c0 40 14 67 53 68 26 1 43-12 49-29l28 8c-11 28-37 45-77 45C44 4 14-33 15-96c1-61 26-98 85-98zm52 81c6-60-76-77-97-28-3 7-6 17-6 28h103" id="s"/><g id="b"><use transform="matrix(0.05,0,0,0.05,0,0)" xlink:href="#p"/><use transform="matrix(0.05,0,0,0.05,12,0)" xlink:href="#q"/><use transform="matrix(0.05,0,0,0.05,22,0)" xlink:href="#r"/><use transform="matrix(0.05,0,0,0.05,27.950000000000003,0)" xlink:href="#s"/></g><path d="M141-36C126-15 110 5 73 4 37 3 15-17 15-53c-1-64 63-63 125-63 3-35-9-54-41-54-24 1-41 7-42 31l-33-3c5-37 33-52 76-52 45 0 72 20 72 64v82c-1 20 7 32 28 27v20c-31 9-61-2-59-35zM48-53c0 20 12 33 32 33 41-3 63-29 60-74-43 2-92-5-92 41" id="t"/><path d="M210-169c-67 3-38 105-44 169h-31v-121c0-29-5-50-35-48C34-165 62-65 56 0H25l-1-190h30c1 10-1 24 2 32 10-44 99-50 107 0 11-21 27-35 58-36 85-2 47 119 55 194h-31v-121c0-29-5-49-35-48" id="u"/><path d="M115-194c55 1 70 41 70 98S169 2 115 4C84 4 66-9 55-30l1 105H24l-1-265h31l2 30c10-21 28-34 59-34zm-8 174c40 0 45-34 45-75s-6-73-45-74c-42 0-51 32-51 76 0 43 10 73 51 73" id="v"/><path d="M24 0v-261h32V0H24" id="w"/><g id="c"><use transform="matrix(0.05,0,0,0.05,0,0)" xlink:href="#l"/><use transform="matrix(0.05,0,0,0.05,12,0)" xlink:href="#t"/><use transform="matrix(0.05,0,0,0.05,22,0)" xlink:href="#u"/><use transform="matrix(0.05,0,0,0.05,36.95,0)" xlink:href="#v"/><use transform="matrix(0.05,0,0,0.05,46.95,0)" xlink:href="#w"/><use transform="matrix(0.05,0,0,0.05,50.900000000000006,0)" xlink:href="#o"/></g><path d="M117-194c89-4 53 116 60 194h-32v-121c0-31-8-49-39-48C34-167 62-67 57 0H25l-1-190h30c1 10-1 24 2 32 11-22 29-35 61-36" id="x"/><path d="M177-190C167-65 218 103 67 71c-23-6-38-20-44-43l32-5c15 47 100 32 89-28v-30C133-14 115 1 83 1 29 1 15-40 15-95c0-56 16-97 71-98 29-1 48 16 59 35 1-10 0-23 2-32h30zM94-22c36 0 50-32 50-73 0-42-14-75-50-75-39 0-46 34-46 75s6 73 46 73" id="y"/><g id="d"><use transform="matrix(0.05,0,0,0.05,0,0)" xlink:href="#l"/><use transform="matrix(0.05,0,0,0.05,12,0)" xlink:href="#t"/><use transform="matrix(0.05,0,0,0.05,22,0)" xlink:href="#u"/><use transform="matrix(0.05,0,0,0.05,36.95,0)" xlink:href="#v"/><use transform="matrix(0.05,0,0,0.05,46.95,0)" xlink:href="#w"/><use transform="matrix(0.05,0,0,0.05,50.900000000000006,0)" xlink:href="#m"/><use transform="matrix(0.05,0,0,0.05,54.85,0)" xlink:href="#x"/><use transform="matrix(0.05,0,0,0.05,64.85000000000001,0)" xlink:href="#y"/></g><path d="M63-220v92h138v28H63V0H30v-248h175v28H63" id="z"/><path d="M84 4C-5 8 30-112 23-190h32v120c0 31 7 50 39 49 72-2 45-101 50-169h31l1 190h-30c-1-10 1-25-2-33-11 22-28 36-60 37" id="A"/><path d="M114-163C36-179 61-72 57 0H25l-1-190h30c1 12-1 29 2 39 6-27 23-49 58-41v29" id="B"/><path d="M140-251c81 0 123 46 123 126C263-46 219 4 140 4 59 4 17-45 17-125s42-126 123-126zm0 227c63 0 89-41 89-101s-29-99-89-99c-61 0-89 39-89 99S79-25 140-24" id="C"/><path d="M101-234c-31-9-42 10-38 44h38v23H63V0H32v-167H5v-23h27c-7-52 17-82 69-68v24" id="D"/><path d="M33 0v-248h34V0H33" id="E"/><path d="M135-143c-3-34-86-38-87 0 15 53 115 12 119 90S17 21 10-45l28-5c4 36 97 45 98 0-10-56-113-15-118-90-4-57 82-63 122-42 12 7 21 19 24 35" id="F"/><g id="e"><use transform="matrix(0.05,0,0,0.05,0,0)" xlink:href="#z"/><use transform="matrix(0.05,0,0,0.05,10.950000000000001,0)" xlink:href="#o"/><use transform="matrix(0.05,0,0,0.05,20.950000000000003,0)" xlink:href="#t"/><use transform="matrix(0.05,0,0,0.05,30.950000000000003,0)" xlink:href="#n"/><use transform="matrix(0.05,0,0,0.05,35.95,0)" xlink:href="#A"/><use transform="matrix(0.05,0,0,0.05,45.95,0)" xlink:href="#B"/><use transform="matrix(0.05,0,0,0.05,51.900000000000006,0)" xlink:href="#o"/><use transform="matrix(0.05,0,0,0.05,61.900000000000006,0)" xlink:href="#C"/><use transform="matrix(0.05,0,0,0.05,75.9,0)" xlink:href="#D"/><use transform="matrix(0.05,0,0,0.05,80.9,0)" xlink:href="#E"/><use transform="matrix(0.05,0,0,0.05,85.9,0)" xlink:href="#x"/><use transform="matrix(0.05,0,0,0.05,95.9,0)" xlink:href="#n"/><use transform="matrix(0.05,0,0,0.05,100.9,0)" xlink:href="#o"/><use transform="matrix(0.05,0,0,0.05,110.9,0)" xlink:href="#B"/><use transform="matrix(0.05,0,0,0.05,116.85000000000001,0)" xlink:href="#o"/><use transform="matrix(0.05,0,0,0.05,126.85000000000001,0)" xlink:href="#F"/><use transform="matrix(0.05,0,0,0.05,135.85000000000002,0)" xlink:href="#n"/></g><path d="M100-194c62-1 85 37 85 99 1 63-27 99-86 99S16-35 15-95c0-66 28-99 85-99zM99-20c44 1 53-31 53-75 0-43-8-75-51-75s-53 32-53 75 10 74 51 75" id="G"/><path d="M33-154v-36h34v36H33zM33 0v-36h34V0H33" id="H"/><g id="f"><use transform="matrix(0.05,0,0,0.05,0,0)" xlink:href="#F"/><use transform="matrix(0.05,0,0,0.05,9,0)" xlink:href="#G"/><use transform="matrix(0.05,0,0,0.05,19,0)" xlink:href="#F"/><use transform="matrix(0.05,0,0,0.05,28,0)" xlink:href="#t"/><use transform="matrix(0.05,0,0,0.05,38,0)" xlink:href="#H"/><use transform="matrix(0.05,0,0,0.05,43,0)" xlink:href="#m"/><use transform="matrix(0.05,0,0,0.05,46.95,0)" xlink:href="#F"/><use transform="matrix(0.05,0,0,0.05,55.95,0)" xlink:href="#l"/><use transform="matrix(0.05,0,0,0.05,67.95,0)" xlink:href="#t"/><use transform="matrix(0.05,0,0,0.05,77.95,0)" xlink:href="#u"/><use transform="matrix(0.05,0,0,0.05,92.9,0)" xlink:href="#v"/><use transform="matrix(0.05,0,0,0.05,102.9,0)" xlink:href="#w"/><use transform="matrix(0.05,0,0,0.05,106.85000000000001,0)" xlink:href="#o"/><use transform="matrix(0.05,0,0,0.05,116.85000000000001,0)" xlink:href="#C"/><use transform="matrix(0.05,0,0,0.05,130.85000000000002,0)" xlink:href="#D"/></g><path d="M106-169C34-169 62-67 57 0H25v-261h32l-1 103c12-21 28-36 61-36 89 0 53 116 60 194h-32v-121c2-32-8-49-39-48" id="I"/><path d="M233-177c-1 41-23 64-60 70L243 0h-38l-65-103H63V0H30v-248c88 3 205-21 203 71zM63-129c60-2 137 13 137-47 0-61-80-42-137-45v92" id="J"/><g id="g"><use transform="matrix(0.05,0,0,0.05,0,0)" xlink:href="#F"/><use transform="matrix(0.05,0,0,0.05,9,0)" xlink:href="#G"/><use transform="matrix(0.05,0,0,0.05,19,0)" xlink:href="#F"/><use transform="matrix(0.05,0,0,0.05,28,0)" xlink:href="#t"/><use transform="matrix(0.05,0,0,0.05,38,0)" xlink:href="#H"/><use transform="matrix(0.05,0,0,0.05,43,0)" xlink:href="#I"/><use transform="matrix(0.05,0,0,0.05,53,0)" xlink:href="#t"/><use transform="matrix(0.05,0,0,0.05,63,0)" xlink:href="#F"/><use transform="matrix(0.05,0,0,0.05,72,0)" xlink:href="#J"/><use transform="matrix(0.05,0,0,0.05,84.95,0)" xlink:href="#o"/><use transform="matrix(0.05,0,0,0.05,94.95,0)" xlink:href="#F"/><use transform="matrix(0.05,0,0,0.05,103.95,0)" xlink:href="#A"/><use transform="matrix(0.05,0,0,0.05,113.95,0)" xlink:href="#w"/><use transform="matrix(0.05,0,0,0.05,117.9,0)" xlink:href="#n"/></g><g id="h"><use transform="matrix(0.05,0,0,0.05,0,0)" xlink:href="#F"/><use transform="matrix(0.05,0,0,0.05,9,0)" xlink:href="#G"/><use transform="matrix(0.05,0,0,0.05,19,0)" xlink:href="#F"/><use transform="matrix(0.05,0,0,0.05,28,0)" xlink:href="#t"/><use transform="matrix(0.05,0,0,0.05,38,0)" xlink:href="#H"/></g><g id="i"><use transform="matrix(0.05,0,0,0.05,0,0)" xlink:href="#m"/><use transform="matrix(0.05,0,0,0.05,3.95,0)" xlink:href="#F"/><use transform="matrix(0.05,0,0,0.05,12.949999999999998,0)" xlink:href="#l"/><use transform="matrix(0.05,0,0,0.05,24.95,0)" xlink:href="#t"/><use transform="matrix(0.05,0,0,0.05,34.95,0)" xlink:href="#u"/><use transform="matrix(0.05,0,0,0.05,49.900000000000006,0)" xlink:href="#v"/><use transform="matrix(0.05,0,0,0.05,59.900000000000006,0)" xlink:href="#w"/><use transform="matrix(0.05,0,0,0.05,63.85,0)" xlink:href="#o"/><use transform="matrix(0.05,0,0,0.05,73.85000000000001,0)" xlink:href="#C"/><use transform="matrix(0.05,0,0,0.05,87.85000000000001,0)" xlink:href="#D"/></g><g id="j"><use transform="matrix(0.05,0,0,0.05,0,0)" xlink:href="#I"/><use transform="matrix(0.05,0,0,0.05,10,0)" xlink:href="#t"/><use transform="matrix(0.05,0,0,0.05,20,0)" xlink:href="#F"/><use transform="matrix(0.05,0,0,0.05,29,0)" xlink:href="#D"/><use transform="matrix(0.05,0,0,0.05,34,0)" xlink:href="#o"/><use transform="matrix(0.05,0,0,0.05,44,0)" xlink:href="#t"/><use transform="matrix(0.05,0,0,0.05,54,0)" xlink:href="#n"/><use transform="matrix(0.05,0,0,0.05,59,0)" xlink:href="#A"/><use transform="matrix(0.05,0,0,0.05,69,0)" xlink:href="#B"/><use transform="matrix(0.05,0,0,0.05,74.95,0)" xlink:href="#o"/></g><g id="k"><use transform="matrix(0.05,0,0,0.05,0,0)" xlink:href="#C"/><use transform="matrix(0.05,0,0,0.05,14,0)" xlink:href="#D"/><use transform="matrix(0.05,0,0,0.05,19,0)" xlink:href="#E"/><use transform="matrix(0.05,0,0,0.05,24,0)" xlink:href="#x"/><use transform="matrix(0.05,0,0,0.05,34,0)" xlink:href="#n"/><use transform="matrix(0.05,0,0,0.05,39,0)" xlink:href="#o"/><use transform="matrix(0.05,0,0,0.05,49,0)" xlink:href="#B"/><use transform="matrix(0.05,0,0,0.05,54.95,0)" xlink:href="#o"/><use transform="matrix(0.05,0,0,0.05,64.95,0)" xlink:href="#F"/><use transform="matrix(0.05,0,0,0.05,73.95,0)" xlink:href="#n"/></g></defs></g></svg>