<svg xmlns="http://www.w3.org/2000/svg" xmlns:xlink="http://www.w3.org/1999/xlink" xmlns:lucid="lucid" width="467.4" height="816.36"><g transform="translate(-523.6347738355473 -314.5480634494163)" lucid:page-tab-id="VGJ_dQWdczP5"><path d="M500 0h500v1500H500z" fill="#fff"/><path d="M543.63 777.12a5 5 0 0 1 5-5h150a5 5 0 0 1 5 5v110a5 5 0 0 1-5 5h-150a5 5 0 0 1-5-5z" stroke="#000" stroke-width="2" fill="#fff"/><use xlink:href="#a" transform="matrix(1,0,0,1,551.6347738355473,780.1186032172504) translate(49.525 55.6)"/><path d="M543.63 386.07a8.7 8.7 0 0 1 4.33-7.52l71.35-41.5a8.6 8.6 0 0 1 8.66 0l71.35 41.5a8.7 8.7 0 0 1 4.34 7.52v63.48a5 5 0 0 1-5 5h-150a5 5 0 0 1-5-5z" stroke="#000" stroke-width="2" fill="#fff"/><use xlink:href="#b" transform="matrix(1,0,0,1,543.6347738355473,334.5480634494163) translate(56.5 63.6)"/><path d="M624.63 770.12h-2v-30h2zm0-51.6h-2v-42.37h2z" stroke="#000" stroke-width=".05"/><path d="M624.63 771.12h-2v-1.03h2z"/><path d="M624.66 771.14h-2.05v-1.07h2.06zm-2-1.02v.97h1.95v-.98zM634.68 693l-1.72 1.02-9.33-15.76-9.3 15.76-1.74-1.02 11.03-18.67z" stroke="#000" stroke-width=".05"/><use xlink:href="#c" transform="matrix(1,0,0,1,542.7597738355473,718.5333333333334) translate(0.0049999999999954525 14.4)"/><use xlink:href="#d" transform="matrix(1,0,0,1,542.7597738355473,718.5333333333334) translate(71.855 14.4)"/><path d="M543.63 558.33a5 5 0 0 1 5-5h150a5 5 0 0 1 5 5v110a5 5 0 0 1-5 5h-150a5 5 0 0 1-5-5z" stroke="#000" stroke-width="2" fill="#fff"/><use xlink:href="#e" transform="matrix(1,0,0,1,551.6347738355473,561.3333333333139) translate(26.049999999999997 55.6)"/><path d="M624.63 551.33h-2V520.1h2zm0-52.83h-2v-41.13h2z" stroke="#000" stroke-width=".05"/><path d="M624.63 552.33h-2v-1.02h2z"/><path d="M624.66 552.36h-2.05v-1.08h2.06zm-2-1.03v.98h1.95v-.97zM634.68 474.22l-1.72 1.02-9.33-15.76-9.3 15.76-1.74-1.02 11.03-18.67z" stroke="#000" stroke-width=".05"/><use xlink:href="#f" transform="matrix(1,0,0,1,601.1347738355473,498.5038621131549) translate(0.004999999999999005 14.4)"/><path d="M736.5 614.33h-30.86v-2h30.85zm71.7 0h-41.7v-2h41.7z" stroke="#000" stroke-width=".05"/><path d="M705.66 614.33h-1.02v-2h1.02z"/><path d="M705.7 614.36h-1.1v-2.05h1.1zm-1.04-2v1.95h.98v-1.94zM810.03 613.33l-18.67 11.04-1.02-1.72 15.76-9.32-15.76-9.32 1.02-1.7z" stroke="#000" stroke-width=".05"/><use xlink:href="#g" transform="matrix(1,0,0,1,736.4929615708174,591.733333333314) translate(0.005000000000000782 14.4)"/><use xlink:href="#h" transform="matrix(1,0,0,1,736.4929615708174,591.733333333314) translate(0.05500000000000149 36)"/><path d="M811.03 558.33a5 5 0 0 1 5-5h150a5 5 0 0 1 5 5v110a5 5 0 0 1-5 5h-150a5 5 0 0 1-5-5z" stroke="#000" stroke-width="2" fill="#b2b2b2"/><use xlink:href="#i" transform="matrix(1,0,0,1,819.0318928311194,561.3333333333139) translate(53.55 55.6)"/><path d="M543.63 995.9a5 5 0 0 1 5-5h150a5 5 0 0 1 5 5v110a5 5 0 0 1-5 5h-150a5 5 0 0 1-5-5z" stroke="#000" stroke-width="2" fill="#666"/><use xlink:href="#j" transform="matrix(1,0,0,1,551.6347738355473,998.903873101187) translate(53.025 55.6)"/><path d="M623.63 988.9v-77.28" stroke="#3a414a" stroke-width="2" fill="none"/><path d="M624.63 989.9h-2v-1.02h2z" stroke="#3a414a" stroke-width=".05" fill="#3a414a"/><path d="M623.63 896.36l4.64 14.26H619z" stroke="#3a414a" stroke-width="2" fill="#fff"/><defs><path d="M30 0v-248h187v28H63v79h144v27H63v87h162V0H30" id="k"/><path d="M117-194c89-4 53 116 60 194h-32v-121c0-31-8-49-39-48C34-167 62-67 57 0H25l-1-190h30c1 10-1 24 2 32 11-22 29-35 61-36" id="l"/><path d="M59-47c-2 24 18 29 38 22v24C64 9 27 4 27-40v-127H5v-23h24l9-43h21v43h35v23H59v120" id="m"/><path d="M24-231v-30h32v30H24zM24 0v-190h32V0H24" id="n"/><path d="M179-190L93 31C79 59 56 82 12 73V49c39 6 53-20 64-50L1-190h34L92-34l54-156h33" id="o"/><g id="a"><use transform="matrix(0.05,0,0,0.05,0,0)" xlink:href="#k"/><use transform="matrix(0.05,0,0,0.05,12,0)" xlink:href="#l"/><use transform="matrix(0.05,0,0,0.05,22,0)" xlink:href="#m"/><use transform="matrix(0.05,0,0,0.05,27,0)" xlink:href="#n"/><use transform="matrix(0.05,0,0,0.05,30.950000000000003,0)" xlink:href="#m"/><use transform="matrix(0.05,0,0,0.05,35.95,0)" xlink:href="#o"/></g><path d="M205 0l-28-72H64L36 0H1l101-248h38L239 0h-34zm-38-99l-47-123c-12 45-31 82-46 123h93" id="p"/><path d="M177-190C167-65 218 103 67 71c-23-6-38-20-44-43l32-5c15 47 100 32 89-28v-30C133-14 115 1 83 1 29 1 15-40 15-95c0-56 16-97 71-98 29-1 48 16 59 35 1-10 0-23 2-32h30zM94-22c36 0 50-32 50-73 0-42-14-75-50-75-39 0-46 34-46 75s6 73 46 73" id="q"/><path d="M100-194c63 0 86 42 84 106H49c0 40 14 67 53 68 26 1 43-12 49-29l28 8c-11 28-37 45-77 45C44 4 14-33 15-96c1-61 26-98 85-98zm52 81c6-60-76-77-97-28-3 7-6 17-6 28h103" id="r"/><g id="b"><use transform="matrix(0.05,0,0,0.05,0,0)" xlink:href="#p"/><use transform="matrix(0.05,0,0,0.05,12,0)" xlink:href="#q"/><use transform="matrix(0.05,0,0,0.05,22,0)" xlink:href="#r"/><use transform="matrix(0.05,0,0,0.05,32,0)" xlink:href="#l"/><use transform="matrix(0.05,0,0,0.05,42,0)" xlink:href="#m"/></g><path d="M145-31C134-9 116 4 85 4 32 4 16-35 15-94c0-59 17-99 70-100 32-1 48 14 60 33 0-11-1-24 2-32h30l-1 268h-32zM93-21c41 0 51-33 51-76s-8-73-50-73c-40 0-46 35-46 75s5 74 45 74" id="s"/><path d="M84 4C-5 8 30-112 23-190h32v120c0 31 7 50 39 49 72-2 45-101 50-169h31l1 190h-30c-1-10 1-25-2-33-11 22-28 36-60 37" id="t"/><path d="M141-36C126-15 110 5 73 4 37 3 15-17 15-53c-1-64 63-63 125-63 3-35-9-54-41-54-24 1-41 7-42 31l-33-3c5-37 33-52 76-52 45 0 72 20 72 64v82c-1 20 7 32 28 27v20c-31 9-61-2-59-35zM48-53c0 20 12 33 32 33 41-3 63-29 60-74-43 2-92-5-92 41" id="u"/><path d="M24 0v-261h32V0H24" id="v"/><path d="M101-234c-31-9-42 10-38 44h38v23H63V0H32v-167H5v-23h27c-7-52 17-82 69-68v24" id="w"/><path d="M85-194c31 0 48 13 60 33l-1-100h32l1 261h-30c-2-10 0-23-3-31C134-8 116 4 85 4 32 4 16-35 15-94c0-66 23-100 70-100zm9 24c-40 0-46 34-46 75 0 40 6 74 45 74 42 0 51-32 51-76 0-42-9-74-50-73" id="x"/><g id="c"><use transform="matrix(0.05,0,0,0.05,0,0)" xlink:href="#s"/><use transform="matrix(0.05,0,0,0.05,10,0)" xlink:href="#t"/><use transform="matrix(0.05,0,0,0.05,20,0)" xlink:href="#u"/><use transform="matrix(0.05,0,0,0.05,30,0)" xlink:href="#v"/><use transform="matrix(0.05,0,0,0.05,33.95,0)" xlink:href="#n"/><use transform="matrix(0.05,0,0,0.05,37.900000000000006,0)" xlink:href="#w"/><use transform="matrix(0.05,0,0,0.05,42.900000000000006,0)" xlink:href="#n"/><use transform="matrix(0.05,0,0,0.05,46.85000000000001,0)" xlink:href="#r"/><use transform="matrix(0.05,0,0,0.05,56.85,0)" xlink:href="#x"/></g><path d="M135-143c-3-34-86-38-87 0 15 53 115 12 119 90S17 21 10-45l28-5c4 36 97 45 98 0-10-56-113-15-118-90-4-57 82-63 122-42 12 7 21 19 24 35" id="y"/><path d="M100-194c62-1 85 37 85 99 1 63-27 99-86 99S16-35 15-95c0-66 28-99 85-99zM99-20c44 1 53-31 53-75 0-43-8-75-51-75s-53 32-53 75 10 74 51 75" id="z"/><path d="M96-169c-40 0-48 33-48 73s9 75 48 75c24 0 41-14 43-38l32 2c-6 37-31 61-74 61-59 0-76-41-82-99-10-93 101-131 147-64 4 7 5 14 7 22l-32 3c-4-21-16-35-41-35" id="A"/><g id="d"><use transform="matrix(0.05,0,0,0.05,0,0)" xlink:href="#u"/><use transform="matrix(0.05,0,0,0.05,10,0)" xlink:href="#y"/><use transform="matrix(0.05,0,0,0.05,19,0)" xlink:href="#y"/><use transform="matrix(0.05,0,0,0.05,28,0)" xlink:href="#z"/><use transform="matrix(0.05,0,0,0.05,38,0)" xlink:href="#A"/><use transform="matrix(0.05,0,0,0.05,47,0)" xlink:href="#n"/><use transform="matrix(0.05,0,0,0.05,50.95,0)" xlink:href="#u"/><use transform="matrix(0.05,0,0,0.05,60.95,0)" xlink:href="#m"/><use transform="matrix(0.05,0,0,0.05,65.95,0)" xlink:href="#n"/><use transform="matrix(0.05,0,0,0.05,69.9,0)" xlink:href="#z"/><use transform="matrix(0.05,0,0,0.05,79.9,0)" xlink:href="#l"/></g><g id="e"><use transform="matrix(0.05,0,0,0.05,0,0)" xlink:href="#p"/><use transform="matrix(0.05,0,0,0.05,12,0)" xlink:href="#y"/><use transform="matrix(0.05,0,0,0.05,21,0)" xlink:href="#y"/><use transform="matrix(0.05,0,0,0.05,30,0)" xlink:href="#z"/><use transform="matrix(0.05,0,0,0.05,40,0)" xlink:href="#A"/><use transform="matrix(0.05,0,0,0.05,49,0)" xlink:href="#n"/><use transform="matrix(0.05,0,0,0.05,52.95,0)" xlink:href="#u"/><use transform="matrix(0.05,0,0,0.05,62.95,0)" xlink:href="#m"/><use transform="matrix(0.05,0,0,0.05,67.95,0)" xlink:href="#n"/><use transform="matrix(0.05,0,0,0.05,71.9,0)" xlink:href="#z"/><use transform="matrix(0.05,0,0,0.05,81.9,0)" xlink:href="#l"/></g><g id="f"><use transform="matrix(0.05,0,0,0.05,0,0)" xlink:href="#u"/><use transform="matrix(0.05,0,0,0.05,10,0)" xlink:href="#q"/><use transform="matrix(0.05,0,0,0.05,20,0)" xlink:href="#r"/><use transform="matrix(0.05,0,0,0.05,30,0)" xlink:href="#l"/><use transform="matrix(0.05,0,0,0.05,40,0)" xlink:href="#m"/></g><path d="M106-169C34-169 62-67 57 0H25v-261h32l-1 103c12-21 28-36 61-36 89 0 53 116 60 194h-32v-121c2-32-8-49-39-48" id="B"/><g id="g"><use transform="matrix(0.05,0,0,0.05,0,0)" xlink:href="#B"/><use transform="matrix(0.05,0,0,0.05,10,0)" xlink:href="#u"/><use transform="matrix(0.05,0,0,0.05,20,0)" xlink:href="#x"/></g><path d="M114-163C36-179 61-72 57 0H25l-1-190h30c1 12-1 29 2 39 6-27 23-49 58-41v29" id="C"/><g id="h"><use transform="matrix(0.05,0,0,0.05,0,0)" xlink:href="#C"/><use transform="matrix(0.05,0,0,0.05,5.95,0)" xlink:href="#z"/><use transform="matrix(0.05,0,0,0.05,15.949999999999998,0)" xlink:href="#v"/><use transform="matrix(0.05,0,0,0.05,19.9,0)" xlink:href="#r"/></g><path d="M233-177c-1 41-23 64-60 70L243 0h-38l-65-103H63V0H30v-248c88 3 205-21 203 71zM63-129c60-2 137 13 137-47 0-61-80-42-137-45v92" id="D"/><g id="i"><use transform="matrix(0.05,0,0,0.05,0,0)" xlink:href="#D"/><use transform="matrix(0.05,0,0,0.05,12.950000000000001,0)" xlink:href="#z"/><use transform="matrix(0.05,0,0,0.05,22.950000000000003,0)" xlink:href="#v"/><use transform="matrix(0.05,0,0,0.05,26.900000000000002,0)" xlink:href="#r"/></g><path fill="#fff" d="M160-131c35 5 61 23 61 61C221 17 115-2 30 0v-248c76 3 177-17 177 60 0 33-19 50-47 57zm-97-11c50-1 110 9 110-42 0-47-63-36-110-37v79zm0 115c55-2 124 14 124-45 0-56-70-42-124-44v89" id="E"/><path fill="#fff" d="M100-194c62-1 85 37 85 99 1 63-27 99-86 99S16-35 15-95c0-66 28-99 85-99zM99-20c44 1 53-31 53-75 0-43-8-75-51-75s-53 32-53 75 10 74 51 75" id="F"/><path fill="#fff" d="M114-163C36-179 61-72 57 0H25l-1-190h30c1 12-1 29 2 39 6-27 23-49 58-41v29" id="G"/><path fill="#fff" d="M100-194c63 0 86 42 84 106H49c0 40 14 67 53 68 26 1 43-12 49-29l28 8c-11 28-37 45-77 45C44 4 14-33 15-96c1-61 26-98 85-98zm52 81c6-60-76-77-97-28-3 7-6 17-6 28h103" id="H"/><g id="j"><use transform="matrix(0.05,0,0,0.05,0,0)" xlink:href="#E"/><use transform="matrix(0.05,0,0,0.05,12,0)" xlink:href="#F"/><use transform="matrix(0.05,0,0,0.05,22,0)" xlink:href="#G"/><use transform="matrix(0.05,0,0,0.05,27.950000000000003,0)" xlink:href="#H"/></g></defs></g></svg>