<svg xmlns="http://www.w3.org/2000/svg" xmlns:xlink="http://www.w3.org/1999/xlink" xmlns:lucid="lucid" width="857" height="602.3"><g transform="translate(-264.8333333333333 -176.18154847980844)" lucid:page-tab-id="-AJ_c9DSZOrt"><path d="M0 0h1500v1000H0z" fill="#fff"/><path d="M581.83 418.15a5 5 0 0 1 5-5h150a5 5 0 0 1 5 5v110a5 5 0 0 1-5 5h-150a5 5 0 0 1-5-5z" stroke="#000" stroke-width="2" fill="#666"/><use xlink:href="#a" transform="matrix(1,0,0,1,589.8333333333334,421.15178485352493) translate(36.05 44.8)"/><use xlink:href="#b" transform="matrix(1,0,0,1,589.8333333333334,421.15178485352493) translate(42.55 66.4)"/><path d="M941.83 418.15a5 5 0 0 1 5-5h150a5 5 0 0 1 5 5v105a5 5 0 0 1-5 5h-150a5 5 0 0 1-5-5z" stroke="#000" stroke-width="2" fill="#fff"/><use xlink:href="#c" transform="matrix(1,0,0,1,949.8333333333334,421.15178485352493) translate(32.55 53.1)"/><path d="M470.36 474.15h-22.7v-2h22.7zm109.47 0H556.3v-2h23.53z" stroke="#000" stroke-width=".05"/><path d="M580.83 474.15h-1.02v-2h1.03z"/><path d="M580.86 474.18h-1.08v-2.05h1.08zm-1.03-2v1.95h.98v-1.95zM465.52 463.83l-15.76 9.32 15.76 9.32-1 1.72-18.7-11.05 18.7-11.04z" stroke="#000" stroke-width=".05"/><use xlink:href="#d" transform="matrix(1,0,0,1,470.35833333333323,451.5517848535249) translate(0.005000000000002558 14.4)"/><use xlink:href="#e" transform="matrix(1,0,0,1,470.35833333333323,451.5517848535249) translate(34.005 14.4)"/><use xlink:href="#f" transform="matrix(1,0,0,1,470.35833333333323,451.5517848535249) translate(22.980000000000004 36)"/><path d="M662.83 411.15h-2v-45.2h2zm0-66.8h-2V319h2z" stroke="#000" stroke-width=".05"/><path d="M662.83 412.15h-2v-1.02h2z"/><path d="M662.86 412.18h-2.05v-1.08h2.06zm-2-1.03v.98h1.95v-.98zM672.88 335.85l-1.73 1.02-9.32-15.76-9.32 15.77-1.7-1.02 11.03-18.67z" stroke="#000" stroke-width=".05"/><use xlink:href="#g" transform="matrix(1,0,0,1,614.8833333333333,344.3517748347209) translate(0 14.4)"/><use xlink:href="#h" transform="matrix(1,0,0,1,614.8833333333333,344.3517748347209) translate(17.95 14.4)"/><use xlink:href="#i" transform="matrix(1,0,0,1,614.8833333333333,344.3517748347209) translate(53.900000000000006 14.4)"/><use xlink:href="#j" transform="matrix(1,0,0,1,614.8833333333333,344.3517748347209) translate(73.9 14.4)"/><path d="M787.38 474.15h-43.55v-2h43.55zm151.63-2.5H896.3v-2h42.74z" stroke="#000" stroke-width=".05"/><path d="M743.86 474.15h-1.03v-2h1.03z"/><path d="M743.88 474.18h-1.07v-2.05h1.08zm-1.02-2v1.95h.97v-1.95zM940.83 470.65l-18.67 11.04-1-1.73 15.74-9.32-15.75-9.32 1-1.72z" stroke="#000" stroke-width=".05"/><use xlink:href="#d" transform="matrix(1,0,0,1,787.3833333333333,450.3017848535249) translate(0.005000000000002558 14.4)"/><use xlink:href="#k" transform="matrix(1,0,0,1,787.3833333333333,450.3017848535249) translate(34.005 14.4)"/><use xlink:href="#l" transform="matrix(1,0,0,1,787.3833333333333,450.3017848535249) translate(44.455000000000005 36)"/><path d="M581.83 201.18a5 5 0 0 1 5-5h150a5 5 0 0 1 5 5v110a5 5 0 0 1-5 5h-150a5 5 0 0 1-5-5z" stroke="#000" stroke-width="2" fill="#666"/><use xlink:href="#m" transform="matrix(1,0,0,1,589.8333333333334,204.18154847980844) translate(36.05 55.6)"/><path d="M581.83 643.5a5 5 0 0 1 5-5h150a5 5 0 0 1 5 5v110a5 5 0 0 1-5 5h-150a5 5 0 0 1-5-5z" stroke="#000" stroke-width="2" fill="#666"/><use xlink:href="#n" transform="matrix(1,0,0,1,589.8333333333334,646.4851181868582) translate(38.525 55.6)"/><path d="M541.83 693.45l.06.66.13.62.24.58.33.53.4.48.48.42.54.33.58.24.6.13.67.06H579v2h-33.2l-.9-.1-.92-.2-.87-.37-.8-.5-.7-.6-.62-.72-.5-.8-.36-.86-.22-.92-.07-.9v-65.9h2zM628 569.2l-.07.9-.22.9-.35.88-.5.8-.6.72-.72.6-.8.5-.88.36-.9.22-.9.07h-76.18l-.66.05-.6.15-.58.24-.54.32-.47.4-.4.48-.33.54-.24.58-.14.6-.07.67V606h-2v-26.9l.07-.9.22-.92.37-.87.48-.8.6-.72.72-.6.8-.5.88-.36.9-.22.9-.07h76.18l.66-.05.62-.15.57-.24.55-.32.48-.4.4-.48.33-.53.24-.58.15-.62.05-.67v-33.95h2z" stroke="#000" stroke-width=".05"/><path d="M628 535.18h-2v-1.03h2z"/><path d="M628.02 535.2H626v-1.07H628zm-2-1.02v.97H628v-.97zM580.83 698.5l-18.67 11.03-1-1.73 15.74-9.3-15.75-9.34 1-1.72z" stroke="#000" stroke-width=".05"/><use xlink:href="#d" transform="matrix(1,0,0,1,493.8583833333329,606.0184548419809) translate(0.005000000000002558 14.4)"/><use xlink:href="#o" transform="matrix(1,0,0,1,493.8583833333329,606.0184548419809) translate(34.005 14.4)"/><use xlink:href="#j" transform="matrix(1,0,0,1,493.8583833333329,606.0184548419809) translate(73.95500000000001 14.4)"/><path d="M662.83 635.67h-2V609.5h2zm0-47.78h-2v-52.75h2z" stroke="#000" stroke-width=".05"/><path d="M662.83 535.18h-2v-1.03h2z"/><path d="M662.86 535.2h-2.05v-1.07h2.06zm-2-1.02v.97h1.95v-.97zM672.88 618.82l-11.05 18.66-11.04-18.66 1.7-1.02 9.33 15.76 9.32-15.76z" stroke="#000" stroke-width=".05"/><use xlink:href="#d" transform="matrix(1,0,0,1,617.3333333333334,587.8927809190986) translate(0.005000000000002558 14.4)"/><use xlink:href="#p" transform="matrix(1,0,0,1,617.3333333333334,587.8927809190986) translate(34.005 14.4)"/><use xlink:href="#j" transform="matrix(1,0,0,1,617.3333333333334,587.8927809190986) translate(69.005 14.4)"/><path d="M802.83 693.52l-.07.9-.22.92-.36.87-.5.8-.6.73-.72.6-.8.5-.87.36-.93.2-.9.1h-52.22v-2h52.14l.66-.07.6-.14.6-.25.52-.33.48-.4.4-.5.34-.52.24-.58.14-.6.05-.67v-64.5h2zM706.2 563.45l.04.66.15.62.23.58.33.53.4.48.48.42.53.33.58.24.6.13.68.06h86.64l.9.06.92.22.86.36.8.5.72.6.6.72.5.8.36.87.22.92.07.9v33.9h-2v-33.83l-.05-.66-.14-.6-.25-.6-.33-.52-.4-.48-.5-.4-.52-.34-.58-.24-.6-.14-.68-.05h-86.65l-.9-.1-.92-.2-.87-.37-.8-.5-.72-.6-.6-.72-.5-.8-.36-.86-.22-.92-.07-.9v-28.37h2z" stroke="#000" stroke-width=".05"/><path d="M706.2 535.18h-2v-1.03h2z"/><path d="M706.2 535.2h-2.04v-1.07h2.05zm-2-1.02v.97h1.96v-.97zM762.52 689.16l-15.76 9.33 15.76 9.3-1.02 1.73-18.67-11.04 18.67-11.06z" stroke="#000" stroke-width=".05"/><use xlink:href="#d" transform="matrix(1,0,0,1,727.4083333333334,607.3517787228681) translate(0 14.4)"/><use xlink:href="#q" transform="matrix(1,0,0,1,727.4083333333334,607.3517787228681) translate(34 14.4)"/><use xlink:href="#r" transform="matrix(1,0,0,1,727.4083333333334,607.3517787228681) translate(108.85 14.4)"/><path d="M548.6 373.15h-2.73l-.66.05-.6.15-.58.24-.54.32-.47.4-.4.48-.33.54-.24.58-.14.6-.07.67v62.93l.06.67.13.6.24.6.33.52.4.48.48.4.54.33.58.24.6.15.67.05H579v2h-33.2l-.9-.07-.92-.22-.87-.36-.8-.5-.7-.6-.62-.72-.5-.8-.36-.87-.22-.92-.07-.9v-63.1l.07-.9.22-.9.37-.87.48-.8.6-.72.72-.6.8-.5.88-.36.9-.22.9-.07h2.84zm60.17-1.93l.92.22.86.36.8.5.72.6.6.72.5.8.37.88.22.9.07.9v34.05h-2V377.2l-.06-.67-.14-.6-.24-.6-.33-.53-.4-.47-.5-.4-.52-.34-.58-.25-.6-.15-.67-.05h-25.18v-2h25.25z" stroke="#000" stroke-width=".05"/><path d="M613.84 412.15h-2v-1.02h2z"/><path d="M613.86 412.18h-2.05v-1.08h2.06zm-2-1.03v.98h1.95v-.98zM580.83 445.17l-18.67 11.04-1-1.7 15.74-9.33-15.75-9.32 1-1.72z" stroke="#000" stroke-width=".05"/><use xlink:href="#s" transform="matrix(1,0,0,1,548.6146622705226,361.35186751871623) translate(0 14.4)"/><path d="M744.25 473.24l-1.33-1.5 85.12-74.87h3.03zm195.88-172.3l-84.5 74.33h-3.03l86.2-75.83z" stroke="#000" stroke-width=".05"/><path d="M744.26 473.23l-1.43 1.25v-2.66l.1-.1z"/><path d="M744.3 473.23l-1.5 1.3v-2.72l.15-.1zm-1.44-1.4v2.6l1.37-1.2-1.3-1.47zM934.1 319.6l-1.9-.6 5.68-17.42-18 3.4-.36-1.95 21.3-4.04z" stroke="#000" stroke-width=".05"/><g><use xlink:href="#t" transform="matrix(1,0,0,1,766.5083333333333,375.2684515201915) translate(0.0049999999999954525 14.4)"/><use xlink:href="#u" transform="matrix(1,0,0,1,766.5083333333333,375.2684515201915) translate(35.004999999999995 14.4)"/><use xlink:href="#v" transform="matrix(1,0,0,1,766.5083333333333,375.2684515201915) translate(91.755 14.4)"/><use xlink:href="#j" transform="matrix(1,0,0,1,766.5083333333333,375.2684515201915) translate(130.655 14.4)"/></g><path d="M941.83 246.5a5 5 0 0 1 5-5h150a5 5 0 0 1 5 5v105a5 5 0 0 1-5 5h-150a5 5 0 0 1-5-5z" stroke="#000" stroke-width="2" fill="#fff"/><g><use xlink:href="#w" transform="matrix(1,0,0,1,949.8333333333334,249.48511818685816) translate(42.55 53.1)"/></g><path d="M771.23 281.5h145.3v34.68h-145.3z" stroke="#000" stroke-opacity="0" stroke-width="2" fill="#fff" fill-opacity="0"/><g><use xlink:href="#d" transform="matrix(1,0,0,1,776.2261939192338,286.48511818685813) translate(34.05 15.9625)"/><use xlink:href="#x" transform="matrix(1,0,0,1,776.2261939192338,286.48511818685813) translate(68.05 15.9625)"/></g><path d="M844.55 334.7l-.7 40.57h-2l.7-40.6z" stroke="#000" stroke-width=".05"/><path d="M848.2 333.76l-9.27-.16 4.9-14.18z" fill="#fff"/><path d="M849.56 334.8l-12.02-.23 6.34-18.4zm-9.23-2.18l6.5.12-3.07-10.1z" stroke="#000" stroke-width=".05"/><path stroke="#000" stroke-width=".05"/><path d="M284.83 418.15a5 5 0 0 1 5-5h150a5 5 0 0 1 5 5v110a5 5 0 0 1-5 5h-150a5 5 0 0 1-5-5z" stroke="#000" stroke-width="2" fill="#666"/><g><use xlink:href="#y" transform="matrix(1,0,0,1,292.8333333333333,421.15178485352493) translate(24.074999999999996 44.8)"/><use xlink:href="#z" transform="matrix(1,0,0,1,292.8333333333333,421.15178485352493) translate(53.025 66.4)"/></g><defs><path fill="#fff" d="M160-131c35 5 61 23 61 61C221 17 115-2 30 0v-248c76 3 177-17 177 60 0 33-19 50-47 57zm-97-11c50-1 110 9 110-42 0-47-63-36-110-37v79zm0 115c55-2 124 14 124-45 0-56-70-42-124-44v89" id="A"/><path fill="#fff" d="M100-194c62-1 85 37 85 99 1 63-27 99-86 99S16-35 15-95c0-66 28-99 85-99zM99-20c44 1 53-31 53-75 0-43-8-75-51-75s-53 32-53 75 10 74 51 75" id="B"/><path fill="#fff" d="M114-163C36-179 61-72 57 0H25l-1-190h30c1 12-1 29 2 39 6-27 23-49 58-41v29" id="C"/><path fill="#fff" d="M100-194c63 0 86 42 84 106H49c0 40 14 67 53 68 26 1 43-12 49-29l28 8c-11 28-37 45-77 45C44 4 14-33 15-96c1-61 26-98 85-98zm52 81c6-60-76-77-97-28-3 7-6 17-6 28h103" id="D"/><path fill="#fff" d="M106-169C34-169 62-67 57 0H25v-261h32l-1 103c12-21 28-36 61-36 89 0 53 116 60 194h-32v-121c2-32-8-49-39-48" id="E"/><path fill="#fff" d="M24 0v-261h32V0H24" id="F"/><g id="a"><use transform="matrix(0.05,0,0,0.05,0,0)" xlink:href="#A"/><use transform="matrix(0.05,0,0,0.05,12,0)" xlink:href="#B"/><use transform="matrix(0.05,0,0,0.05,22,0)" xlink:href="#C"/><use transform="matrix(0.05,0,0,0.05,27.950000000000003,0)" xlink:href="#D"/><use transform="matrix(0.05,0,0,0.05,37.95,0)" xlink:href="#E"/><use transform="matrix(0.05,0,0,0.05,47.95,0)" xlink:href="#B"/><use transform="matrix(0.05,0,0,0.05,57.95,0)" xlink:href="#F"/><use transform="matrix(0.05,0,0,0.05,61.900000000000006,0)" xlink:href="#D"/></g><path fill="#fff" d="M33 0v-248h34V0H33" id="G"/><path fill="#fff" d="M117-194c89-4 53 116 60 194h-32v-121c0-31-8-49-39-48C34-167 62-67 57 0H25l-1-190h30c1 10-1 24 2 32 11-22 29-35 61-36" id="H"/><path fill="#fff" d="M59-47c-2 24 18 29 38 22v24C64 9 27 4 27-40v-127H5v-23h24l9-43h21v43h35v23H59v120" id="I"/><path fill="#fff" d="M108 0H70L1-190h34L89-25l56-165h34" id="J"/><path fill="#fff" d="M141-36C126-15 110 5 73 4 37 3 15-17 15-53c-1-64 63-63 125-63 3-35-9-54-41-54-24 1-41 7-42 31l-33-3c5-37 33-52 76-52 45 0 72 20 72 64v82c-1 20 7 32 28 27v20c-31 9-61-2-59-35zM48-53c0 20 12 33 32 33 41-3 63-29 60-74-43 2-92-5-92 41" id="K"/><g id="b"><use transform="matrix(0.05,0,0,0.05,0,0)" xlink:href="#G"/><use transform="matrix(0.05,0,0,0.05,5,0)" xlink:href="#H"/><use transform="matrix(0.05,0,0,0.05,15,0)" xlink:href="#I"/><use transform="matrix(0.05,0,0,0.05,20,0)" xlink:href="#D"/><use transform="matrix(0.05,0,0,0.05,30,0)" xlink:href="#C"/><use transform="matrix(0.05,0,0,0.05,35.95,0)" xlink:href="#J"/><use transform="matrix(0.05,0,0,0.05,44.95,0)" xlink:href="#K"/><use transform="matrix(0.05,0,0,0.05,54.95,0)" xlink:href="#F"/></g><path d="M143 4C61 4 22-44 18-125c-5-107 100-154 193-111 17 8 29 25 37 43l-32 9c-13-25-37-40-76-40-61 0-88 39-88 99 0 61 29 100 91 101 35 0 62-11 79-27v-45h-74v-28h105v86C228-13 192 4 143 4" id="L"/><path d="M100-194c63 0 86 42 84 106H49c0 40 14 67 53 68 26 1 43-12 49-29l28 8c-11 28-37 45-77 45C44 4 14-33 15-96c1-61 26-98 85-98zm52 81c6-60-76-77-97-28-3 7-6 17-6 28h103" id="M"/><path d="M100-194c62-1 85 37 85 99 1 63-27 99-86 99S16-35 15-95c0-66 28-99 85-99zM99-20c44 1 53-31 53-75 0-43-8-75-51-75s-53 32-53 75 10 74 51 75" id="N"/><path d="M210-169c-67 3-38 105-44 169h-31v-121c0-29-5-50-35-48C34-165 62-65 56 0H25l-1-190h30c1 10-1 24 2 32 10-44 99-50 107 0 11-21 27-35 58-36 85-2 47 119 55 194h-31v-121c0-29-5-49-35-48" id="O"/><path d="M59-47c-2 24 18 29 38 22v24C64 9 27 4 27-40v-127H5v-23h24l9-43h21v43h35v23H59v120" id="P"/><path d="M114-163C36-179 61-72 57 0H25l-1-190h30c1 12-1 29 2 39 6-27 23-49 58-41v29" id="Q"/><path d="M179-190L93 31C79 59 56 82 12 73V49c39 6 53-20 64-50L1-190h34L92-34l54-156h33" id="R"/><g id="c"><use transform="matrix(0.05,0,0,0.05,0,0)" xlink:href="#L"/><use transform="matrix(0.05,0,0,0.05,14,0)" xlink:href="#M"/><use transform="matrix(0.05,0,0,0.05,24,0)" xlink:href="#N"/><use transform="matrix(0.05,0,0,0.05,34,0)" xlink:href="#O"/><use transform="matrix(0.05,0,0,0.05,48.95,0)" xlink:href="#M"/><use transform="matrix(0.05,0,0,0.05,58.95,0)" xlink:href="#P"/><use transform="matrix(0.05,0,0,0.05,63.95,0)" xlink:href="#Q"/><use transform="matrix(0.05,0,0,0.05,69.9,0)" xlink:href="#R"/></g><path d="M106-169C34-169 62-67 57 0H25v-261h32l-1 103c12-21 28-36 61-36 89 0 53 116 60 194h-32v-121c2-32-8-49-39-48" id="S"/><path d="M141-36C126-15 110 5 73 4 37 3 15-17 15-53c-1-64 63-63 125-63 3-35-9-54-41-54-24 1-41 7-42 31l-33-3c5-37 33-52 76-52 45 0 72 20 72 64v82c-1 20 7 32 28 27v20c-31 9-61-2-59-35zM48-53c0 20 12 33 32 33 41-3 63-29 60-74-43 2-92-5-92 41" id="T"/><path d="M135-143c-3-34-86-38-87 0 15 53 115 12 119 90S17 21 10-45l28-5c4 36 97 45 98 0-10-56-113-15-118-90-4-57 82-63 122-42 12 7 21 19 24 35" id="U"/><g id="d"><use transform="matrix(0.05,0,0,0.05,0,0)" xlink:href="#S"/><use transform="matrix(0.05,0,0,0.05,10,0)" xlink:href="#T"/><use transform="matrix(0.05,0,0,0.05,20,0)" xlink:href="#U"/></g><path d="M96-169c-40 0-48 33-48 73s9 75 48 75c24 0 41-14 43-38l32 2c-6 37-31 61-74 61-59 0-76-41-82-99-10-93 101-131 147-64 4 7 5 14 7 22l-32 3c-4-21-16-35-41-35" id="V"/><path d="M24-231v-30h32v30H24zM24 0v-190h32V0H24" id="W"/><path d="M117-194c89-4 53 116 60 194h-32v-121c0-31-8-49-39-48C34-167 62-67 57 0H25l-1-190h30c1 10-1 24 2 32 11-22 29-35 61-36" id="X"/><path d="M177-190C167-65 218 103 67 71c-23-6-38-20-44-43l32-5c15 47 100 32 89-28v-30C133-14 115 1 83 1 29 1 15-40 15-95c0-56 16-97 71-98 29-1 48 16 59 35 1-10 0-23 2-32h30zM94-22c36 0 50-32 50-73 0-42-14-75-50-75-39 0-46 34-46 75s6 73 46 73" id="Y"/><g id="e"><use transform="matrix(0.05,0,0,0.05,0,0)" xlink:href="#V"/><use transform="matrix(0.05,0,0,0.05,9,0)" xlink:href="#T"/><use transform="matrix(0.05,0,0,0.05,19,0)" xlink:href="#U"/><use transform="matrix(0.05,0,0,0.05,28,0)" xlink:href="#W"/><use transform="matrix(0.05,0,0,0.05,31.950000000000003,0)" xlink:href="#X"/><use transform="matrix(0.05,0,0,0.05,41.95,0)" xlink:href="#Y"/></g><path d="M26 75v-336h71v23H56V52h41v23H26" id="Z"/><path d="M101-251c68 0 85 55 85 127S166 4 100 4C33 4 14-52 14-124c0-73 17-127 87-127zm-1 229c47 0 54-49 54-102s-4-102-53-102c-51 0-55 48-55 102 0 53 5 102 54 102" id="aa"/><path d="M33 0v-38h34V0H33" id="ab"/><path d="M27 0v-27h64v-190l-56 39v-29l58-41h29v221h61V0H27" id="ac"/><path d="M3 75V52h41v-290H3v-23h71V75H3" id="ad"/><g id="f"><use transform="matrix(0.05,0,0,0.05,0,0)" xlink:href="#Z"/><use transform="matrix(0.05,0,0,0.05,5,0)" xlink:href="#aa"/><use transform="matrix(0.05,0,0,0.05,15,0)" xlink:href="#ab"/><use transform="matrix(0.05,0,0,0.05,20,0)" xlink:href="#ab"/><use transform="matrix(0.05,0,0,0.05,25,0)" xlink:href="#ac"/><use transform="matrix(0.05,0,0,0.05,35,0)" xlink:href="#ad"/></g><g id="g"><use transform="matrix(0.05,0,0,0.05,0,0)" xlink:href="#W"/><use transform="matrix(0.05,0,0,0.05,3.95,0)" xlink:href="#U"/></g><path d="M115-194c55 1 70 41 70 98S169 2 115 4C84 4 66-9 55-30l1 105H24l-1-265h31l2 30c10-21 28-34 59-34zm-8 174c40 0 45-34 45-75s-6-73-45-74c-42 0-51 32-51 76 0 43 10 73 51 73" id="ae"/><g id="h"><use transform="matrix(0.05,0,0,0.05,0,0)" xlink:href="#ae"/><use transform="matrix(0.05,0,0,0.05,10,0)" xlink:href="#T"/><use transform="matrix(0.05,0,0,0.05,20,0)" xlink:href="#Q"/><use transform="matrix(0.05,0,0,0.05,25.950000000000003,0)" xlink:href="#P"/></g><path d="M101-234c-31-9-42 10-38 44h38v23H63V0H32v-167H5v-23h27c-7-52 17-82 69-68v24" id="af"/><g id="i"><use transform="matrix(0.05,0,0,0.05,0,0)" xlink:href="#N"/><use transform="matrix(0.05,0,0,0.05,10,0)" xlink:href="#af"/></g><g id="j"><use transform="matrix(0.05,0,0,0.05,0,0)" xlink:href="#Z"/><use transform="matrix(0.05,0,0,0.05,5,0)" xlink:href="#ac"/><use transform="matrix(0.05,0,0,0.05,15,0)" xlink:href="#ad"/></g><g id="k"><use transform="matrix(0.05,0,0,0.05,0,0)" xlink:href="#Y"/><use transform="matrix(0.05,0,0,0.05,10,0)" xlink:href="#M"/><use transform="matrix(0.05,0,0,0.05,20,0)" xlink:href="#N"/><use transform="matrix(0.05,0,0,0.05,30,0)" xlink:href="#O"/><use transform="matrix(0.05,0,0,0.05,44.95,0)" xlink:href="#M"/><use transform="matrix(0.05,0,0,0.05,54.95,0)" xlink:href="#P"/><use transform="matrix(0.05,0,0,0.05,59.95,0)" xlink:href="#Q"/><use transform="matrix(0.05,0,0,0.05,65.9,0)" xlink:href="#R"/></g><g id="l"><use transform="matrix(0.05,0,0,0.05,0,0)" xlink:href="#Z"/><use transform="matrix(0.05,0,0,0.05,5,0)" xlink:href="#ac"/><use transform="matrix(0.05,0,0,0.05,15,0)" xlink:href="#ad"/></g><g id="m"><use transform="matrix(0.05,0,0,0.05,0,0)" xlink:href="#A"/><use transform="matrix(0.05,0,0,0.05,12,0)" xlink:href="#B"/><use transform="matrix(0.05,0,0,0.05,22,0)" xlink:href="#C"/><use transform="matrix(0.05,0,0,0.05,27.950000000000003,0)" xlink:href="#D"/><use transform="matrix(0.05,0,0,0.05,37.95,0)" xlink:href="#E"/><use transform="matrix(0.05,0,0,0.05,47.95,0)" xlink:href="#B"/><use transform="matrix(0.05,0,0,0.05,57.95,0)" xlink:href="#F"/><use transform="matrix(0.05,0,0,0.05,61.900000000000006,0)" xlink:href="#D"/></g><path fill="#fff" d="M140-251c81 0 123 46 123 126C263-53 228-8 163 1c7 30 30 48 69 40v23c-55 16-95-15-103-61C56-3 17-48 17-125c0-80 42-126 123-126zm0 227c63 0 89-41 89-101s-29-99-89-99c-61 0-89 39-89 99S79-25 140-24" id="ag"/><path fill="#fff" d="M84 4C-5 8 30-112 23-190h32v120c0 31 7 50 39 49 72-2 45-101 50-169h31l1 190h-30c-1-10 1-25-2-33-11 22-28 36-60 37" id="ah"/><path fill="#fff" d="M24-231v-30h32v30H24zM24 0v-190h32V0H24" id="ai"/><path fill="#fff" d="M179-190L93 31C79 59 56 82 12 73V49c39 6 53-20 64-50L1-190h34L92-34l54-156h33" id="aj"/><g id="n"><use transform="matrix(0.05,0,0,0.05,0,0)" xlink:href="#ag"/><use transform="matrix(0.05,0,0,0.05,14,0)" xlink:href="#ah"/><use transform="matrix(0.05,0,0,0.05,24,0)" xlink:href="#K"/><use transform="matrix(0.05,0,0,0.05,34,0)" xlink:href="#H"/><use transform="matrix(0.05,0,0,0.05,44,0)" xlink:href="#I"/><use transform="matrix(0.05,0,0,0.05,49,0)" xlink:href="#ai"/><use transform="matrix(0.05,0,0,0.05,52.95,0)" xlink:href="#I"/><use transform="matrix(0.05,0,0,0.05,57.95,0)" xlink:href="#aj"/></g><g id="o"><use transform="matrix(0.05,0,0,0.05,0,0)" xlink:href="#U"/><use transform="matrix(0.05,0,0,0.05,9,0)" xlink:href="#P"/><use transform="matrix(0.05,0,0,0.05,14,0)" xlink:href="#T"/><use transform="matrix(0.05,0,0,0.05,24,0)" xlink:href="#Q"/><use transform="matrix(0.05,0,0,0.05,29.950000000000003,0)" xlink:href="#P"/></g><path d="M85-194c31 0 48 13 60 33l-1-100h32l1 261h-30c-2-10 0-23-3-31C134-8 116 4 85 4 32 4 16-35 15-94c0-66 23-100 70-100zm9 24c-40 0-46 34-46 75 0 40 6 74 45 74 42 0 51-32 51-76 0-42-9-74-50-73" id="ak"/><g id="p"><use transform="matrix(0.05,0,0,0.05,0,0)" xlink:href="#M"/><use transform="matrix(0.05,0,0,0.05,10,0)" xlink:href="#X"/><use transform="matrix(0.05,0,0,0.05,20,0)" xlink:href="#ak"/></g><g id="q"><use transform="matrix(0.05,0,0,0.05,0,0)" xlink:href="#ak"/><use transform="matrix(0.05,0,0,0.05,10,0)" xlink:href="#W"/><use transform="matrix(0.05,0,0,0.05,13.949999999999998,0)" xlink:href="#T"/><use transform="matrix(0.05,0,0,0.05,23.95,0)" xlink:href="#O"/><use transform="matrix(0.05,0,0,0.05,38.9,0)" xlink:href="#M"/><use transform="matrix(0.05,0,0,0.05,48.9,0)" xlink:href="#P"/><use transform="matrix(0.05,0,0,0.05,53.900000000000006,0)" xlink:href="#M"/><use transform="matrix(0.05,0,0,0.05,63.900000000000006,0)" xlink:href="#Q"/></g><g id="r"><use transform="matrix(0.05,0,0,0.05,0,0)" xlink:href="#Z"/><use transform="matrix(0.05,0,0,0.05,5,0)" xlink:href="#aa"/><use transform="matrix(0.05,0,0,0.05,15,0)" xlink:href="#ab"/><use transform="matrix(0.05,0,0,0.05,20,0)" xlink:href="#ab"/><use transform="matrix(0.05,0,0,0.05,25,0)" xlink:href="#ac"/><use transform="matrix(0.05,0,0,0.05,35,0)" xlink:href="#ad"/></g><path d="M141 0L90-78 38 0H4l68-98-65-92h35l48 74 47-74h35l-64 92 68 98h-35" id="al"/><g id="s"><use transform="matrix(0.05,0,0,0.05,0,0)" xlink:href="#X"/><use transform="matrix(0.05,0,0,0.05,10,0)" xlink:href="#M"/><use transform="matrix(0.05,0,0,0.05,20,0)" xlink:href="#al"/><use transform="matrix(0.05,0,0,0.05,29,0)" xlink:href="#P"/></g><g id="t"><use transform="matrix(0.05,0,0,0.05,0,0)" xlink:href="#S"/><use transform="matrix(0.05,0,0,0.05,10,0)" xlink:href="#T"/><use transform="matrix(0.05,0,0,0.05,20,0)" xlink:href="#ak"/></g><path d="M24 0v-261h32V0H24" id="am"/><g id="u"><use transform="matrix(0.05,0,0,0.05,0,0)" xlink:href="#ak"/><use transform="matrix(0.05,0,0,0.05,10,0)" xlink:href="#Q"/><use transform="matrix(0.05,0,0,0.05,15.949999999999998,0)" xlink:href="#W"/><use transform="matrix(0.05,0,0,0.05,19.9,0)" xlink:href="#am"/><use transform="matrix(0.05,0,0,0.05,23.849999999999998,0)" xlink:href="#am"/><use transform="matrix(0.05,0,0,0.05,27.799999999999997,0)" xlink:href="#W"/><use transform="matrix(0.05,0,0,0.05,31.749999999999996,0)" xlink:href="#X"/><use transform="matrix(0.05,0,0,0.05,41.75,0)" xlink:href="#Y"/></g><g id="v"><use transform="matrix(0.05,0,0,0.05,0,0)" xlink:href="#P"/><use transform="matrix(0.05,0,0,0.05,5,0)" xlink:href="#W"/><use transform="matrix(0.05,0,0,0.05,8.95,0)" xlink:href="#O"/><use transform="matrix(0.05,0,0,0.05,23.9,0)" xlink:href="#M"/></g><path d="M33 0v-248h34V0H33" id="an"/><path d="M108 0H70L1-190h34L89-25l56-165h34" id="ao"/><g id="w"><use transform="matrix(0.05,0,0,0.05,0,0)" xlink:href="#an"/><use transform="matrix(0.05,0,0,0.05,5,0)" xlink:href="#X"/><use transform="matrix(0.05,0,0,0.05,15,0)" xlink:href="#P"/><use transform="matrix(0.05,0,0,0.05,20,0)" xlink:href="#M"/><use transform="matrix(0.05,0,0,0.05,30,0)" xlink:href="#Q"/><use transform="matrix(0.05,0,0,0.05,35.95,0)" xlink:href="#ao"/><use transform="matrix(0.05,0,0,0.05,44.95,0)" xlink:href="#T"/><use transform="matrix(0.05,0,0,0.05,54.95,0)" xlink:href="#am"/></g><g id="x"><use transform="matrix(0.05,0,0,0.05,0,0)" xlink:href="#P"/><use transform="matrix(0.05,0,0,0.05,5,0)" xlink:href="#W"/><use transform="matrix(0.05,0,0,0.05,8.95,0)" xlink:href="#O"/><use transform="matrix(0.05,0,0,0.05,23.9,0)" xlink:href="#M"/></g><path fill="#fff" d="M30 0v-248h187v28H63v79h144v27H63v87h162V0H30" id="ap"/><path fill="#fff" d="M177-190C167-65 218 103 67 71c-23-6-38-20-44-43l32-5c15 47 100 32 89-28v-30C133-14 115 1 83 1 29 1 15-40 15-95c0-56 16-97 71-98 29-1 48 16 59 35 1-10 0-23 2-32h30zM94-22c36 0 50-32 50-73 0-42-14-75-50-75-39 0-46 34-46 75s6 73 46 73" id="aq"/><g id="y"><use transform="matrix(0.05,0,0,0.05,0,0)" xlink:href="#ap"/><use transform="matrix(0.05,0,0,0.05,12,0)" xlink:href="#H"/><use transform="matrix(0.05,0,0,0.05,22,0)" xlink:href="#aq"/><use transform="matrix(0.05,0,0,0.05,32,0)" xlink:href="#ai"/><use transform="matrix(0.05,0,0,0.05,35.95,0)" xlink:href="#H"/><use transform="matrix(0.05,0,0,0.05,45.95,0)" xlink:href="#D"/><use transform="matrix(0.05,0,0,0.05,55.95,0)" xlink:href="#D"/><use transform="matrix(0.05,0,0,0.05,65.95,0)" xlink:href="#C"/><use transform="matrix(0.05,0,0,0.05,71.9,0)" xlink:href="#ai"/><use transform="matrix(0.05,0,0,0.05,75.85000000000001,0)" xlink:href="#H"/><use transform="matrix(0.05,0,0,0.05,85.85000000000001,0)" xlink:href="#aq"/></g><path fill="#fff" d="M30-248c118-7 216 8 213 122C240-48 200 0 122 0H30v-248zM63-27c89 8 146-16 146-99s-60-101-146-95v194" id="ar"/><g id="z"><use transform="matrix(0.05,0,0,0.05,0,0)" xlink:href="#ar"/><use transform="matrix(0.05,0,0,0.05,12.950000000000001,0)" xlink:href="#K"/><use transform="matrix(0.05,0,0,0.05,22.950000000000003,0)" xlink:href="#I"/><use transform="matrix(0.05,0,0,0.05,27.950000000000003,0)" xlink:href="#K"/></g></defs></g></svg>