<svg xmlns="http://www.w3.org/2000/svg" xmlns:xlink="http://www.w3.org/1999/xlink" xmlns:lucid="lucid" width="1851.53" height="578.8"><g transform="translate(372.8922390828262 -98.91632745364086)" lucid:page-tab-id="Mj2X1eitSrsL"><path d="M-500 0h2000v1000H-500z" fill="#fff"/><path d="M249.18 267c0 81.78-134.78 148.08-301.04 148.08-166.25 0-301.03-66.3-301.03-148.08 0-81.78 134.8-148.08 301.04-148.08 166.26 0 301.04 66.3 301.04 148.08z" stroke="#000" stroke-opacity="0" fill="#fff0f0"/><path d="M1196.54 487c0 91.32-276.22 165.35-616.94 165.35S-37.33 578.32-37.33 487s276.2-165.35 616.93-165.35c340.72 0 616.94 74.03 616.94 165.35z" stroke="#000" stroke-opacity="0" fill="#e3fae3"/><path d="M1458.64 385.63c0 147.3-68.06 266.72-152 266.72-83.95 0-152-119.4-152-266.72 0-147.3 68.05-266.7 152-266.7 83.94 0 152 119.4 152 266.7z" stroke="#000" stroke-opacity="0" fill="#fff3d9"/><path d="M867.38 267c0 79.18-127.04 143.37-283.76 143.37-156.72 0-283.77-64.2-283.77-143.37 0-79.18 127.05-143.37 283.77-143.37 156.72 0 283.76 64.2 283.76 143.37z" stroke="#000" stroke-opacity="0" fill="#cfe4ff"/><path d="M649.66 212a5 5 0 0 1 5-5h150a5 5 0 0 1 5 5v110a5 5 0 0 1-5 5h-150a5 5 0 0 1-5-5z" stroke="#000" stroke-width="2" fill="#ced4db"/><use xlink:href="#a" transform="matrix(1,0,0,1,661.6565991009179,219.00000000000006) translate(50.5 41.4)"/><use xlink:href="#b" transform="matrix(1,0,0,1,661.6565991009179,219.00000000000006) translate(37.05 63)"/><path d="M649.66 432a5 5 0 0 1 5-5h150a5 5 0 0 1 5 5v110a5 5 0 0 1-5 5h-150a5 5 0 0 1-5-5z" stroke="#000" stroke-width="2" fill="#ced4db"/><use xlink:href="#c" transform="matrix(1,0,0,1,661.6565991009179,439) translate(46.5 20.4)"/><use xlink:href="#d" transform="matrix(1,0,0,1,661.6565991009179,439) translate(37.05 42)"/><use xlink:href="#e" transform="matrix(1,0,0,1,661.6565991009179,439) translate(58.5 63.6)"/><use xlink:href="#f" transform="matrix(1,0,0,1,661.6565991009179,439) translate(38.025 85.20000000000002)"/><path d="M346.82 432a5 5 0 0 1 5-5h150a5 5 0 0 1 5 5v110a5 5 0 0 1-5 5h-150a5 5 0 0 1-5-5z" stroke="#000" stroke-width="2" fill="#ced4db"/><use xlink:href="#c" transform="matrix(1,0,0,1,358.8240615106288,439) translate(46.5 41.4)"/><use xlink:href="#g" transform="matrix(1,0,0,1,358.8240615106288,439) translate(19.549999999999997 63)"/><path d="M729.66 328.5v81.12" stroke="#3a414a" fill="none"/><path d="M730.16 328.5h-1v-.5h1z" stroke="#3a414a" stroke-width=".05" fill="#3a414a"/><path d="M729.66 424.38l-4.64-14.26h9.27z" stroke="#3a414a" fill="#fff"/><path d="M533.35 487.5h-25.03v-1h25.03zm114.4 0h-24.62v-1h24.62z" stroke="#3a414a" stroke-width=".05" fill="#3a414a"/><path d="M508.34 487.5h-.52v-1h.52z" fill="#3a414a"/><path d="M508.36 487.52h-.56v-1.04h.56zm-.5-1v.96h.45v-.96zM648.66 487l-17.95 10.6-.5-.85 16.5-9.75-16.5-9.75.5-.86z" stroke="#3a414a" stroke-width=".05" fill="#3a414a"/><use xlink:href="#h" transform="matrix(1,0,0,1,533.3514414168844,455) translate(23.659320987654326 14.222222222222223)"/><use xlink:href="#i" transform="matrix(1,0,0,1,533.3514414168844,455) translate(0.005000000000002558 35.55555555555556)"/><use xlink:href="#j" transform="matrix(1,0,0,1,533.3514414168844,455) translate(5.906234567901237 56.88888888888889)"/><path d="M44 432a5 5 0 0 1 5-5h150a5 5 0 0 1 5 5v110a5 5 0 0 1-5 5H49a5 5 0 0 1-5-5z" stroke="#000" stroke-width="2" fill="#ced4db"/><use xlink:href="#c" transform="matrix(1,0,0,1,55.99152392033966,439) translate(46.5 29.4)"/><use xlink:href="#k" transform="matrix(1,0,0,1,55.99152392033966,439) translate(19.549999999999997 51)"/><use xlink:href="#l" transform="matrix(1,0,0,1,55.99152392033966,439) translate(28.599999999999994 72.60000000000001)"/><path d="M235.7 487.5h-30.2v-1h30.2zm109.22 0h-44.17v-1h44.17z" stroke="#3a414a" stroke-width=".05" fill="#3a414a"/><path d="M205.5 487.5h-.5v-1h.5z" fill="#3a414a"/><path d="M205.53 487.52h-.56v-1.04h.56zm-.5-1v.96h.45v-.96zM345.82 487l-17.94 10.6-.5-.85 16.48-9.75-16.5-9.75.52-.86z" stroke="#3a414a" stroke-width=".05" fill="#3a414a"/><use xlink:href="#m" transform="matrix(1,0,0,1,235.70957532747963,465.6666666666667) translate(15.264259259259262 14.222222222222223)"/><use xlink:href="#n" transform="matrix(1,0,0,1,235.70957532747963,465.6666666666667) translate(0.005000000000002558 35.55555555555556)"/><path d="M44 212a5 5 0 0 1 5-5h150a5 5 0 0 1 5 5v110a5 5 0 0 1-5 5H49a5 5 0 0 1-5-5z" stroke="#000" stroke-width="2" fill="#ced4db"/><use xlink:href="#o" transform="matrix(1,0,0,1,55.99152392033966,219.00000000000006) translate(48.5 41.4)"/><use xlink:href="#p" transform="matrix(1,0,0,1,55.99152392033966,219.00000000000006) translate(37.025 63)"/><path d="M124 425.5v-81.12" stroke="#3a414a" fill="none"/><path d="M124.5 426h-1v-.5h1z" stroke="#3a414a" stroke-width=".05" fill="#3a414a"/><path d="M124 329.62l4.63 14.26h-9.27z" stroke="#3a414a" fill="#fff"/><path d="M362.2 212a5 5 0 0 1 5-5h150a5 5 0 0 1 5 5v110a5 5 0 0 1-5 5h-150a5 5 0 0 1-5-5z" stroke="#000" stroke-width="2" fill="#ced4db"/><use xlink:href="#a" transform="matrix(1,0,0,1,374.2008141112231,219.00000000000006) translate(50.5 29.4)"/><use xlink:href="#d" transform="matrix(1,0,0,1,374.2008141112231,219.00000000000006) translate(37.05 51)"/><use xlink:href="#l" transform="matrix(1,0,0,1,374.2008141112231,219.00000000000006) translate(28.599999999999994 72.60000000000001)"/><path d="M547 267.5h-23.3v-1H547zm100.75 0h-35.7v-1h35.7z" stroke="#3a414a" stroke-width=".05" fill="#3a414a"/><path d="M523.7 267.5h-.5v-1h.5z" fill="#3a414a"/><path d="M523.74 267.52h-.56v-1.04h.56zm-.5-1v.96h.45v-.96zM648.66 267l-17.95 10.6-.5-.85 16.5-9.75-16.5-9.75.5-.86z" stroke="#3a414a" stroke-width=".05" fill="#3a414a"/><use xlink:href="#m" transform="matrix(1,0,0,1,547.0144016346184,245.6666666666667) translate(15.264259259259262 14.222222222222223)"/><use xlink:href="#n" transform="matrix(1,0,0,1,547.0144016346184,245.6666666666667) translate(0.005000000000002558 35.55555555555556)"/><path d="M-266.3 212a5 5 0 0 1 5-5h150a5 5 0 0 1 5 5v110a5 5 0 0 1-5 5h-150a5 5 0 0 1-5-5z" stroke="#000" stroke-width="2" fill="#ced4db"/><use xlink:href="#o" transform="matrix(1,0,0,1,-254.29160588517823,219.00000000000006) translate(48.5 41.4)"/><use xlink:href="#q" transform="matrix(1,0,0,1,-254.29160588517823,219.00000000000006) translate(37.05 63)"/><path d="M-71.23 267.5h-33.56v-1h33.57zm113.3 0H-6.18v-1H42.1z" stroke="#3a414a" stroke-width=".05" fill="#3a414a"/><path d="M-104.78 267.5h-.5v-1h.5z" fill="#3a414a"/><path d="M-104.75 267.52h-.57v-1.04h.57zm-.52-1v.96h.47v-.96zM43 267l-17.95 10.6-.5-.85L41.02 267l-16.5-9.75.52-.86z" stroke="#3a414a" stroke-width=".05" fill="#3a414a"/><use xlink:href="#m" transform="matrix(1,0,0,1,-71.22809225992539,245.6666666666667) translate(15.264259259259262 14.222222222222223)"/><use xlink:href="#n" transform="matrix(1,0,0,1,-71.22809225992539,245.6666666666667) translate(0.005000000000002558 35.55555555555556)"/><path d="M242.6 267.5h-37.1v-1h37.1zm117.7 0h-52.65v-1h52.64z" stroke="#3a414a" stroke-width=".05" fill="#3a414a"/><path d="M205.5 267.5h-.5v-1h.5z" fill="#3a414a"/><path d="M205.53 267.52h-.56v-1.04h.56zm-.5-1v.96h.45v-.96zM361.2 267l-17.94 10.6-.5-.85 16.48-9.75-16.5-9.75.52-.86z" stroke="#3a414a" stroke-width=".05" fill="#3a414a"/><use xlink:href="#m" transform="matrix(1,0,0,1,242.6140392112244,245.6666666666667) translate(15.264259259259262 14.222222222222223)"/><use xlink:href="#n" transform="matrix(1,0,0,1,242.6140392112244,245.6666666666667) translate(0.005000000000002558 35.55555555555556)"/><path d="M463.62 143.8a6 6 0 0 1 6-6h228a6 6 0 0 1 6 6v48a6 6 0 0 1-6 6h-228a6 6 0 0 1-6-6z" stroke="#000" stroke-opacity="0" fill="#fff" fill-opacity="0"/><use xlink:href="#r" transform="matrix(1,0,0,1,468.61736770692005,142.79194934418825) translate(65.53395061728395 28.930555555555557)"/><path d="M-171.86 143a6 6 0 0 1 6-6h228a6 6 0 0 1 6 6v48a6 6 0 0 1-6 6h-228a6 6 0 0 1-6-6z" stroke="#000" stroke-opacity="0" fill="#fff" fill-opacity="0"/><use xlink:href="#s" transform="matrix(1,0,0,1,-166.8556040760419,142.00000000000006) translate(49.91666666666666 28.930555555555557)"/><path d="M459.6 598.35a6 6 0 0 1 6-6h228a6 6 0 0 1 6 6v48a6 6 0 0 1-6 6h-228a6 6 0 0 1-6-6z" stroke="#000" stroke-opacity="0" fill="#fff" fill-opacity="0"/><use xlink:href="#t" transform="matrix(1,0,0,1,464.600633197648,597.3536861148802) translate(43.09259259259257 28.930555555555557)"/><path d="M952.5 432a5 5 0 0 1 5-5h150a5 5 0 0 1 5 5v110a5 5 0 0 1-5 5h-150a5 5 0 0 1-5-5z" stroke="#000" stroke-width="2" fill="#ced4db"/><use xlink:href="#c" transform="matrix(1,0,0,1,964.489136691207,439) translate(46.5 29.4)"/><use xlink:href="#u" transform="matrix(1,0,0,1,964.489136691207,439) translate(22.049999999999997 51)"/><use xlink:href="#v" transform="matrix(1,0,0,1,964.489136691207,439) translate(34.05 72.60000000000001)"/><path d="M1226.64 432a5 5 0 0 1 5-5h150a5 5 0 0 1 5 5v110a5 5 0 0 1-5 5h-150a5 5 0 0 1-5-5z" stroke="#000" stroke-width="2" fill="#fff"/><use xlink:href="#w" transform="matrix(1,0,0,1,1238.638005288961,439) translate(44.525 29.4)"/><use xlink:href="#x" transform="matrix(1,0,0,1,1238.638005288961,439) translate(25.574999999999996 51)"/><use xlink:href="#v" transform="matrix(1,0,0,1,1238.638005288961,439) translate(34.05 72.60000000000001)"/><path d="M1225.14 487h-95.28" stroke="#3a414a" fill="none"/><path d="M1225.64 487.5h-.52v-1h.52z" stroke="#3a414a" stroke-width=".05" fill="#3a414a"/><path d="M1115.1 487l14.27-4.63v9.26z" stroke="#3a414a" fill="#fff"/><path d="M1307.14 425.1h-1v-26.77h1zm0-69.43h-1V328.5h1z" stroke="#e81313" stroke-width=".05" fill="#e81313"/><path d="M1307.14 328.5h-1v-.5h1z" fill="#e81313"/><path d="M1307.16 328.54h-1.05v-.56h1.06zm-1-.52v.47h.95V328zM1317.25 408.06l-10.6 17.94-10.62-17.94.86-.5 9.74 16.48 9.75-16.5z" stroke="#e81313" stroke-width=".05" fill="#e81313"/><g><use xlink:href="#y" transform="matrix(1,0,0,1,1258.7861534371089,355.6666666666667) translate(26.622283950617295 14.222222222222223)"/><use xlink:href="#z" transform="matrix(1,0,0,1,1258.7861534371089,355.6666666666667) translate(0.005000000000002558 35.55555555555556)"/></g><path d="M1226.64 212a5 5 0 0 1 5-5h150a5 5 0 0 1 5 5v110a5 5 0 0 1-5 5h-150a5 5 0 0 1-5-5z" stroke="#000" stroke-width="2" fill="#fff"/><g><use xlink:href="#w" transform="matrix(1,0,0,1,1238.638005288961,219.00000000000006) translate(44.525 29.4)"/><use xlink:href="#x" transform="matrix(1,0,0,1,1238.638005288961,219.00000000000006) translate(25.574999999999996 51)"/><use xlink:href="#b" transform="matrix(1,0,0,1,1238.638005288961,219.00000000000006) translate(37.05 72.60000000000001)"/></g><path d="M1225.14 267h-398.1" stroke="#3a414a" fill="none"/><path d="M1225.64 267.5h-.52v-1h.52z" stroke="#3a414a" stroke-width=".05" fill="#3a414a"/><path d="M812.27 267l14.27-4.63v9.26z" stroke="#3a414a" fill="#fff"/><path d="M855.87 487.5h-44.7v-1h44.7zm94.7 0H928.9v-1h21.68z" stroke="#3a414a" stroke-width=".05" fill="#3a414a"/><path d="M811.17 487.5h-.5v-1h.5z" fill="#3a414a"/><path d="M811.2 487.52h-.57v-1.04h.56zm-.52-1v.96h.46v-.96zM951.5 487l-17.95 10.6-.5-.85 16.48-9.75-16.5-9.75.52-.86z" stroke="#3a414a" stroke-width=".05" fill="#3a414a"/><g><use xlink:href="#h" transform="matrix(1,0,0,1,855.8652422516789,455) translate(15.288950617283952 14.222222222222223)"/><use xlink:href="#A" transform="matrix(1,0,0,1,855.8652422516789,455) translate(0.005000000000002558 35.55555555555556)"/><use xlink:href="#B" transform="matrix(1,0,0,1,855.8652422516789,455) translate(2.992654320987654 56.88888888888889)"/></g><path d="M1186.64 603.72a6 6 0 0 1 6-6h228a6 6 0 0 1 6 6v48a6 6 0 0 1-6 6h-228a6 6 0 0 1-6-6z" stroke="#000" stroke-opacity="0" fill="#fff" fill-opacity="0"/><g><use xlink:href="#C" transform="matrix(1,0,0,1,1191.6380052889608,602.7171187780735) translate(69.54012345679011 28.930555555555557)"/></g><defs><path d="M177-190C167-65 218 103 67 71c-23-6-38-20-44-43l32-5c15 47 100 32 89-28v-30C133-14 115 1 83 1 29 1 15-40 15-95c0-56 16-97 71-98 29-1 48 16 59 35 1-10 0-23 2-32h30zM94-22c36 0 50-32 50-73 0-42-14-75-50-75-39 0-46 34-46 75s6 73 46 73" id="D"/><path d="M100-194c63 0 86 42 84 106H49c0 40 14 67 53 68 26 1 43-12 49-29l28 8c-11 28-37 45-77 45C44 4 14-33 15-96c1-61 26-98 85-98zm52 81c6-60-76-77-97-28-3 7-6 17-6 28h103" id="E"/><path d="M100-194c62-1 85 37 85 99 1 63-27 99-86 99S16-35 15-95c0-66 28-99 85-99zM99-20c44 1 53-31 53-75 0-43-8-75-51-75s-53 32-53 75 10 74 51 75" id="F"/><path d="M33-154v-36h34v36H33zM33 0v-36h34V0H33" id="G"/><g id="a"><use transform="matrix(0.05,0,0,0.05,0,0)" xlink:href="#D"/><use transform="matrix(0.05,0,0,0.05,10,0)" xlink:href="#E"/><use transform="matrix(0.05,0,0,0.05,20,0)" xlink:href="#F"/><use transform="matrix(0.05,0,0,0.05,30,0)" xlink:href="#G"/></g><path d="M63-220v92h138v28H63V0H30v-248h175v28H63" id="H"/><path d="M141-36C126-15 110 5 73 4 37 3 15-17 15-53c-1-64 63-63 125-63 3-35-9-54-41-54-24 1-41 7-42 31l-33-3c5-37 33-52 76-52 45 0 72 20 72 64v82c-1 20 7 32 28 27v20c-31 9-61-2-59-35zM48-53c0 20 12 33 32 33 41-3 63-29 60-74-43 2-92-5-92 41" id="I"/><path d="M59-47c-2 24 18 29 38 22v24C64 9 27 4 27-40v-127H5v-23h24l9-43h21v43h35v23H59v120" id="J"/><path d="M84 4C-5 8 30-112 23-190h32v120c0 31 7 50 39 49 72-2 45-101 50-169h31l1 190h-30c-1-10 1-25-2-33-11 22-28 36-60 37" id="K"/><path d="M114-163C36-179 61-72 57 0H25l-1-190h30c1 12-1 29 2 39 6-27 23-49 58-41v29" id="L"/><g id="b"><use transform="matrix(0.05,0,0,0.05,0,0)" xlink:href="#H"/><use transform="matrix(0.05,0,0,0.05,10.950000000000001,0)" xlink:href="#E"/><use transform="matrix(0.05,0,0,0.05,20.950000000000003,0)" xlink:href="#I"/><use transform="matrix(0.05,0,0,0.05,30.950000000000003,0)" xlink:href="#J"/><use transform="matrix(0.05,0,0,0.05,35.95,0)" xlink:href="#K"/><use transform="matrix(0.05,0,0,0.05,45.95,0)" xlink:href="#L"/><use transform="matrix(0.05,0,0,0.05,51.900000000000006,0)" xlink:href="#E"/></g><path d="M135-143c-3-34-86-38-87 0 15 53 115 12 119 90S17 21 10-45l28-5c4 36 97 45 98 0-10-56-113-15-118-90-4-57 82-63 122-42 12 7 21 19 24 35" id="M"/><g id="c"><use transform="matrix(0.05,0,0,0.05,0,0)" xlink:href="#M"/><use transform="matrix(0.05,0,0,0.05,9,0)" xlink:href="#F"/><use transform="matrix(0.05,0,0,0.05,19,0)" xlink:href="#M"/><use transform="matrix(0.05,0,0,0.05,28,0)" xlink:href="#I"/><use transform="matrix(0.05,0,0,0.05,38,0)" xlink:href="#G"/></g><g id="d"><use transform="matrix(0.05,0,0,0.05,0,0)" xlink:href="#H"/><use transform="matrix(0.05,0,0,0.05,10.950000000000001,0)" xlink:href="#E"/><use transform="matrix(0.05,0,0,0.05,20.950000000000003,0)" xlink:href="#I"/><use transform="matrix(0.05,0,0,0.05,30.950000000000003,0)" xlink:href="#J"/><use transform="matrix(0.05,0,0,0.05,35.95,0)" xlink:href="#K"/><use transform="matrix(0.05,0,0,0.05,45.95,0)" xlink:href="#L"/><use transform="matrix(0.05,0,0,0.05,51.900000000000006,0)" xlink:href="#E"/></g><path d="M140-251c81 0 123 46 123 126C263-46 219 4 140 4 59 4 17-45 17-125s42-126 123-126zm0 227c63 0 89-41 89-101s-29-99-89-99c-61 0-89 39-89 99S79-25 140-24" id="N"/><path d="M101-234c-31-9-42 10-38 44h38v23H63V0H32v-167H5v-23h27c-7-52 17-82 69-68v24" id="O"/><g id="e"><use transform="matrix(0.05,0,0,0.05,0,0)" xlink:href="#N"/><use transform="matrix(0.05,0,0,0.05,14,0)" xlink:href="#O"/></g><path d="M33 0v-248h34V0H33" id="P"/><path d="M117-194c89-4 53 116 60 194h-32v-121c0-31-8-49-39-48C34-167 62-67 57 0H25l-1-190h30c1 10-1 24 2 32 11-22 29-35 61-36" id="Q"/><g id="f"><use transform="matrix(0.05,0,0,0.05,0,0)" xlink:href="#P"/><use transform="matrix(0.05,0,0,0.05,5,0)" xlink:href="#Q"/><use transform="matrix(0.05,0,0,0.05,15,0)" xlink:href="#J"/><use transform="matrix(0.05,0,0,0.05,20,0)" xlink:href="#E"/><use transform="matrix(0.05,0,0,0.05,30,0)" xlink:href="#L"/><use transform="matrix(0.05,0,0,0.05,35.95,0)" xlink:href="#E"/><use transform="matrix(0.05,0,0,0.05,45.95,0)" xlink:href="#M"/><use transform="matrix(0.05,0,0,0.05,54.95,0)" xlink:href="#J"/></g><path d="M115-194c53 0 69 39 70 98 0 66-23 100-70 100C84 3 66-7 56-30L54 0H23l1-261h32v101c10-23 28-34 59-34zm-8 174c40 0 45-34 45-75 0-40-5-75-45-74-42 0-51 32-51 76 0 43 10 73 51 73" id="R"/><path d="M108 0H70L1-190h34L89-25l56-165h34" id="S"/><path d="M24-231v-30h32v30H24zM24 0v-190h32V0H24" id="T"/><g id="g"><use transform="matrix(0.05,0,0,0.05,0,0)" xlink:href="#N"/><use transform="matrix(0.05,0,0,0.05,14,0)" xlink:href="#R"/><use transform="matrix(0.05,0,0,0.05,24,0)" xlink:href="#M"/><use transform="matrix(0.05,0,0,0.05,33,0)" xlink:href="#E"/><use transform="matrix(0.05,0,0,0.05,43,0)" xlink:href="#L"/><use transform="matrix(0.05,0,0,0.05,48.95,0)" xlink:href="#S"/><use transform="matrix(0.05,0,0,0.05,57.95,0)" xlink:href="#I"/><use transform="matrix(0.05,0,0,0.05,67.95,0)" xlink:href="#J"/><use transform="matrix(0.05,0,0,0.05,72.95,0)" xlink:href="#T"/><use transform="matrix(0.05,0,0,0.05,76.9,0)" xlink:href="#F"/><use transform="matrix(0.05,0,0,0.05,86.9,0)" xlink:href="#Q"/></g><path fill="#333" d="M135-143c-3-34-86-38-87 0 15 53 115 12 119 90S17 21 10-45l28-5c4 36 97 45 98 0-10-56-113-15-118-90-4-57 82-63 122-42 12 7 21 19 24 35" id="U"/><path fill="#333" d="M100-194c62-1 85 37 85 99 1 63-27 99-86 99S16-35 15-95c0-66 28-99 85-99zM99-20c44 1 53-31 53-75 0-43-8-75-51-75s-53 32-53 75 10 74 51 75" id="V"/><path fill="#333" d="M141-36C126-15 110 5 73 4 37 3 15-17 15-53c-1-64 63-63 125-63 3-35-9-54-41-54-24 1-41 7-42 31l-33-3c5-37 33-52 76-52 45 0 72 20 72 64v82c-1 20 7 32 28 27v20c-31 9-61-2-59-35zM48-53c0 20 12 33 32 33 41-3 63-29 60-74-43 2-92-5-92 41" id="W"/><path fill="#333" d="M33-154v-36h34v36H33zM33 0v-36h34V0H33" id="X"/><g id="h"><use transform="matrix(0.04938271604938272,0,0,0.04938271604938272,0,0)" xlink:href="#U"/><use transform="matrix(0.04938271604938272,0,0,0.04938271604938272,8.88888888888889,0)" xlink:href="#V"/><use transform="matrix(0.04938271604938272,0,0,0.04938271604938272,18.765432098765434,0)" xlink:href="#U"/><use transform="matrix(0.04938271604938272,0,0,0.04938271604938272,27.654320987654323,0)" xlink:href="#W"/><use transform="matrix(0.04938271604938272,0,0,0.04938271604938272,37.53086419753087,0)" xlink:href="#X"/></g><path fill="#333" d="M106-169C34-169 62-67 57 0H25v-261h32l-1 103c12-21 28-36 61-36 89 0 53 116 60 194h-32v-121c2-32-8-49-39-48" id="Y"/><path fill="#333" d="M63-220v92h138v28H63V0H30v-248h175v28H63" id="Z"/><path fill="#333" d="M100-194c63 0 86 42 84 106H49c0 40 14 67 53 68 26 1 43-12 49-29l28 8c-11 28-37 45-77 45C44 4 14-33 15-96c1-61 26-98 85-98zm52 81c6-60-76-77-97-28-3 7-6 17-6 28h103" id="aa"/><path fill="#333" d="M59-47c-2 24 18 29 38 22v24C64 9 27 4 27-40v-127H5v-23h24l9-43h21v43h35v23H59v120" id="ab"/><path fill="#333" d="M84 4C-5 8 30-112 23-190h32v120c0 31 7 50 39 49 72-2 45-101 50-169h31l1 190h-30c-1-10 1-25-2-33-11 22-28 36-60 37" id="ac"/><path fill="#333" d="M114-163C36-179 61-72 57 0H25l-1-190h30c1 12-1 29 2 39 6-27 23-49 58-41v29" id="ad"/><g id="i"><use transform="matrix(0.04938271604938272,0,0,0.04938271604938272,0,0)" xlink:href="#Y"/><use transform="matrix(0.04938271604938272,0,0,0.04938271604938272,9.876543209876544,0)" xlink:href="#W"/><use transform="matrix(0.04938271604938272,0,0,0.04938271604938272,19.75308641975309,0)" xlink:href="#U"/><use transform="matrix(0.04938271604938272,0,0,0.04938271604938272,28.641975308641978,0)" xlink:href="#Z"/><use transform="matrix(0.04938271604938272,0,0,0.04938271604938272,39.45679012345679,0)" xlink:href="#aa"/><use transform="matrix(0.04938271604938272,0,0,0.04938271604938272,49.333333333333336,0)" xlink:href="#W"/><use transform="matrix(0.04938271604938272,0,0,0.04938271604938272,59.20987654320988,0)" xlink:href="#ab"/><use transform="matrix(0.04938271604938272,0,0,0.04938271604938272,64.14814814814815,0)" xlink:href="#ac"/><use transform="matrix(0.04938271604938272,0,0,0.04938271604938272,74.0246913580247,0)" xlink:href="#ad"/><use transform="matrix(0.04938271604938272,0,0,0.04938271604938272,79.90123456790124,0)" xlink:href="#aa"/></g><path fill="#333" d="M140-251c81 0 123 46 123 126C263-46 219 4 140 4 59 4 17-45 17-125s42-126 123-126zm0 227c63 0 89-41 89-101s-29-99-89-99c-61 0-89 39-89 99S79-25 140-24" id="ae"/><path fill="#333" d="M101-234c-31-9-42 10-38 44h38v23H63V0H32v-167H5v-23h27c-7-52 17-82 69-68v24" id="af"/><path fill="#333" d="M33 0v-248h34V0H33" id="ag"/><path fill="#333" d="M117-194c89-4 53 116 60 194h-32v-121c0-31-8-49-39-48C34-167 62-67 57 0H25l-1-190h30c1 10-1 24 2 32 11-22 29-35 61-36" id="ah"/><g id="j"><use transform="matrix(0.04938271604938272,0,0,0.04938271604938272,0,0)" xlink:href="#ae"/><use transform="matrix(0.04938271604938272,0,0,0.04938271604938272,13.827160493827162,0)" xlink:href="#af"/><use transform="matrix(0.04938271604938272,0,0,0.04938271604938272,18.765432098765434,0)" xlink:href="#ag"/><use transform="matrix(0.04938271604938272,0,0,0.04938271604938272,23.703703703703706,0)" xlink:href="#ah"/><use transform="matrix(0.04938271604938272,0,0,0.04938271604938272,33.580246913580254,0)" xlink:href="#ab"/><use transform="matrix(0.04938271604938272,0,0,0.04938271604938272,38.518518518518526,0)" xlink:href="#aa"/><use transform="matrix(0.04938271604938272,0,0,0.04938271604938272,48.39506172839507,0)" xlink:href="#ad"/><use transform="matrix(0.04938271604938272,0,0,0.04938271604938272,54.27160493827161,0)" xlink:href="#aa"/><use transform="matrix(0.04938271604938272,0,0,0.04938271604938272,64.14814814814815,0)" xlink:href="#U"/><use transform="matrix(0.04938271604938272,0,0,0.04938271604938272,73.03703703703704,0)" xlink:href="#ab"/></g><g id="k"><use transform="matrix(0.05,0,0,0.05,0,0)" xlink:href="#N"/><use transform="matrix(0.05,0,0,0.05,14,0)" xlink:href="#R"/><use transform="matrix(0.05,0,0,0.05,24,0)" xlink:href="#M"/><use transform="matrix(0.05,0,0,0.05,33,0)" xlink:href="#E"/><use transform="matrix(0.05,0,0,0.05,43,0)" xlink:href="#L"/><use transform="matrix(0.05,0,0,0.05,48.95,0)" xlink:href="#S"/><use transform="matrix(0.05,0,0,0.05,57.95,0)" xlink:href="#I"/><use transform="matrix(0.05,0,0,0.05,67.95,0)" xlink:href="#J"/><use transform="matrix(0.05,0,0,0.05,72.95,0)" xlink:href="#T"/><use transform="matrix(0.05,0,0,0.05,76.9,0)" xlink:href="#F"/><use transform="matrix(0.05,0,0,0.05,86.9,0)" xlink:href="#Q"/></g><path d="M212-179c-10-28-35-45-73-45-59 0-87 40-87 99 0 60 29 101 89 101 43 0 62-24 78-52l27 14C228-24 195 4 139 4 59 4 22-46 18-125c-6-104 99-153 187-111 19 9 31 26 39 46" id="ai"/><path d="M24 0v-261h32V0H24" id="aj"/><path d="M96-169c-40 0-48 33-48 73s9 75 48 75c24 0 41-14 43-38l32 2c-6 37-31 61-74 61-59 0-76-41-82-99-10-93 101-131 147-64 4 7 5 14 7 22l-32 3c-4-21-16-35-41-35" id="ak"/><g id="l"><use transform="matrix(0.05,0,0,0.05,0,0)" xlink:href="#ai"/><use transform="matrix(0.05,0,0,0.05,12.950000000000001,0)" xlink:href="#F"/><use transform="matrix(0.05,0,0,0.05,22.950000000000003,0)" xlink:href="#aj"/><use transform="matrix(0.05,0,0,0.05,26.900000000000002,0)" xlink:href="#aj"/><use transform="matrix(0.05,0,0,0.05,30.85,0)" xlink:href="#E"/><use transform="matrix(0.05,0,0,0.05,40.85,0)" xlink:href="#ak"/><use transform="matrix(0.05,0,0,0.05,49.85,0)" xlink:href="#J"/><use transform="matrix(0.05,0,0,0.05,54.85,0)" xlink:href="#T"/><use transform="matrix(0.05,0,0,0.05,58.800000000000004,0)" xlink:href="#F"/><use transform="matrix(0.05,0,0,0.05,68.80000000000001,0)" xlink:href="#Q"/></g><path fill="#333" d="M85-194c31 0 48 13 60 33l-1-100h32l1 261h-30c-2-10 0-23-3-31C134-8 116 4 85 4 32 4 16-35 15-94c0-66 23-100 70-100zm9 24c-40 0-46 34-46 75 0 40 6 74 45 74 42 0 51-32 51-76 0-42-9-74-50-73" id="al"/><g id="m"><use transform="matrix(0.04938271604938272,0,0,0.04938271604938272,0,0)" xlink:href="#ad"/><use transform="matrix(0.04938271604938272,0,0,0.04938271604938272,5.8765432098765435,0)" xlink:href="#al"/><use transform="matrix(0.04938271604938272,0,0,0.04938271604938272,15.753086419753087,0)" xlink:href="#af"/><use transform="matrix(0.04938271604938272,0,0,0.04938271604938272,20.69135802469136,0)" xlink:href="#U"/><use transform="matrix(0.04938271604938272,0,0,0.04938271604938272,29.58024691358025,0)" xlink:href="#X"/></g><path fill="#333" d="M210-169c-67 3-38 105-44 169h-31v-121c0-29-5-50-35-48C34-165 62-65 56 0H25l-1-190h30c1 10-1 24 2 32 10-44 99-50 107 0 11-21 27-35 58-36 85-2 47 119 55 194h-31v-121c0-29-5-49-35-48" id="am"/><path fill="#333" d="M115-194c53 0 69 39 70 98 0 66-23 100-70 100C84 3 66-7 56-30L54 0H23l1-261h32v101c10-23 28-34 59-34zm-8 174c40 0 45-34 45-75 0-40-5-75-45-74-42 0-51 32-51 76 0 43 10 73 51 73" id="an"/><g id="n"><use transform="matrix(0.04938271604938272,0,0,0.04938271604938272,0,0)" xlink:href="#am"/><use transform="matrix(0.04938271604938272,0,0,0.04938271604938272,14.765432098765434,0)" xlink:href="#aa"/><use transform="matrix(0.04938271604938272,0,0,0.04938271604938272,24.641975308641978,0)" xlink:href="#am"/><use transform="matrix(0.04938271604938272,0,0,0.04938271604938272,39.40740740740741,0)" xlink:href="#an"/><use transform="matrix(0.04938271604938272,0,0,0.04938271604938272,49.283950617283956,0)" xlink:href="#aa"/><use transform="matrix(0.04938271604938272,0,0,0.04938271604938272,59.1604938271605,0)" xlink:href="#ad"/></g><path d="M85-194c31 0 48 13 60 33l-1-100h32l1 261h-30c-2-10 0-23-3-31C134-8 116 4 85 4 32 4 16-35 15-94c0-66 23-100 70-100zm9 24c-40 0-46 34-46 75 0 40 6 74 45 74 42 0 51-32 51-76 0-42-9-74-50-73" id="ao"/><g id="o"><use transform="matrix(0.05,0,0,0.05,0,0)" xlink:href="#ao"/><use transform="matrix(0.05,0,0,0.05,10,0)" xlink:href="#ak"/><use transform="matrix(0.05,0,0,0.05,19,0)" xlink:href="#I"/><use transform="matrix(0.05,0,0,0.05,29,0)" xlink:href="#J"/><use transform="matrix(0.05,0,0,0.05,34,0)" xlink:href="#G"/></g><path d="M30-248c118-7 216 8 213 122C240-48 200 0 122 0H30v-248zM63-27c89 8 146-16 146-99s-60-101-146-95v194" id="ap"/><g id="p"><use transform="matrix(0.05,0,0,0.05,0,0)" xlink:href="#ap"/><use transform="matrix(0.05,0,0,0.05,12.950000000000001,0)" xlink:href="#I"/><use transform="matrix(0.05,0,0,0.05,22.950000000000003,0)" xlink:href="#J"/><use transform="matrix(0.05,0,0,0.05,27.950000000000003,0)" xlink:href="#I"/><use transform="matrix(0.05,0,0,0.05,37.95,0)" xlink:href="#M"/><use transform="matrix(0.05,0,0,0.05,46.95,0)" xlink:href="#E"/><use transform="matrix(0.05,0,0,0.05,56.95,0)" xlink:href="#J"/></g><g id="q"><use transform="matrix(0.05,0,0,0.05,0,0)" xlink:href="#ai"/><use transform="matrix(0.05,0,0,0.05,12.950000000000001,0)" xlink:href="#I"/><use transform="matrix(0.05,0,0,0.05,22.950000000000003,0)" xlink:href="#J"/><use transform="matrix(0.05,0,0,0.05,27.950000000000003,0)" xlink:href="#I"/><use transform="matrix(0.05,0,0,0.05,37.95,0)" xlink:href="#aj"/><use transform="matrix(0.05,0,0,0.05,41.900000000000006,0)" xlink:href="#F"/><use transform="matrix(0.05,0,0,0.05,51.900000000000006,0)" xlink:href="#D"/></g><path fill="#3a414a" d="M185-189c-5-48-123-54-124 2 14 75 158 14 163 119 3 78-121 87-175 55-17-10-28-26-33-46l33-7c5 56 141 63 141-1 0-78-155-14-162-118-5-82 145-84 179-34 5 7 8 16 11 25" id="aq"/><path fill="#3a414a" d="M115-194c55 1 70 41 70 98S169 2 115 4C84 4 66-9 55-30l1 105H24l-1-265h31l2 30c10-21 28-34 59-34zm-8 174c40 0 45-34 45-75s-6-73-45-74c-42 0-51 32-51 76 0 43 10 73 51 73" id="ar"/><path fill="#3a414a" d="M141-36C126-15 110 5 73 4 37 3 15-17 15-53c-1-64 63-63 125-63 3-35-9-54-41-54-24 1-41 7-42 31l-33-3c5-37 33-52 76-52 45 0 72 20 72 64v82c-1 20 7 32 28 27v20c-31 9-61-2-59-35zM48-53c0 20 12 33 32 33 41-3 63-29 60-74-43 2-92-5-92 41" id="as"/><path fill="#3a414a" d="M59-47c-2 24 18 29 38 22v24C64 9 27 4 27-40v-127H5v-23h24l9-43h21v43h35v23H59v120" id="at"/><path fill="#3a414a" d="M24-231v-30h32v30H24zM24 0v-190h32V0H24" id="au"/><path fill="#3a414a" d="M24 0v-261h32V0H24" id="av"/><path fill="#3a414a" d="M179-190L93 31C79 59 56 82 12 73V49c39 6 53-20 64-50L1-190h34L92-34l54-156h33" id="aw"/><g id="r"><use transform="matrix(0.06790123456790123,0,0,0.06790123456790123,0,0)" xlink:href="#aq"/><use transform="matrix(0.06790123456790123,0,0,0.06790123456790123,16.296296296296294,0)" xlink:href="#ar"/><use transform="matrix(0.06790123456790123,0,0,0.06790123456790123,29.87654320987654,0)" xlink:href="#as"/><use transform="matrix(0.06790123456790123,0,0,0.06790123456790123,43.456790123456784,0)" xlink:href="#at"/><use transform="matrix(0.06790123456790123,0,0,0.06790123456790123,50.24691358024691,0)" xlink:href="#au"/><use transform="matrix(0.06790123456790123,0,0,0.06790123456790123,55.61111111111111,0)" xlink:href="#as"/><use transform="matrix(0.06790123456790123,0,0,0.06790123456790123,69.19135802469135,0)" xlink:href="#av"/><use transform="matrix(0.06790123456790123,0,0,0.06790123456790123,74.55555555555556,0)" xlink:href="#au"/><use transform="matrix(0.06790123456790123,0,0,0.06790123456790123,79.91975308641976,0)" xlink:href="#at"/><use transform="matrix(0.06790123456790123,0,0,0.06790123456790123,86.70987654320989,0)" xlink:href="#aw"/></g><path fill="#3a414a" d="M212-179c-10-28-35-45-73-45-59 0-87 40-87 99 0 60 29 101 89 101 43 0 62-24 78-52l27 14C228-24 195 4 139 4 59 4 22-46 18-125c-6-104 99-153 187-111 19 9 31 26 39 46" id="ax"/><path fill="#3a414a" d="M100-194c62-1 85 37 85 99 1 63-27 99-86 99S16-35 15-95c0-66 28-99 85-99zM99-20c44 1 53-31 53-75 0-43-8-75-51-75s-53 32-53 75 10 74 51 75" id="ay"/><path fill="#3a414a" d="M177-190C167-65 218 103 67 71c-23-6-38-20-44-43l32-5c15 47 100 32 89-28v-30C133-14 115 1 83 1 29 1 15-40 15-95c0-56 16-97 71-98 29-1 48 16 59 35 1-10 0-23 2-32h30zM94-22c36 0 50-32 50-73 0-42-14-75-50-75-39 0-46 34-46 75s6 73 46 73" id="az"/><path fill="#3a414a" d="M84 4C-5 8 30-112 23-190h32v120c0 31 7 50 39 49 72-2 45-101 50-169h31l1 190h-30c-1-10 1-25-2-33-11 22-28 36-60 37" id="aA"/><path fill="#3a414a" d="M117-194c89-4 53 116 60 194h-32v-121c0-31-8-49-39-48C34-167 62-67 57 0H25l-1-190h30c1 10-1 24 2 32 11-22 29-35 61-36" id="aB"/><g id="s"><use transform="matrix(0.06790123456790123,0,0,0.06790123456790123,0,0)" xlink:href="#ax"/><use transform="matrix(0.06790123456790123,0,0,0.06790123456790123,17.586419753086417,0)" xlink:href="#as"/><use transform="matrix(0.06790123456790123,0,0,0.06790123456790123,31.166666666666664,0)" xlink:href="#at"/><use transform="matrix(0.06790123456790123,0,0,0.06790123456790123,37.95679012345679,0)" xlink:href="#as"/><use transform="matrix(0.06790123456790123,0,0,0.06790123456790123,51.53703703703703,0)" xlink:href="#av"/><use transform="matrix(0.06790123456790123,0,0,0.06790123456790123,56.90123456790123,0)" xlink:href="#ay"/><use transform="matrix(0.06790123456790123,0,0,0.06790123456790123,70.48148148148147,0)" xlink:href="#az"/><use transform="matrix(0.06790123456790123,0,0,0.06790123456790123,84.06172839506172,0)" xlink:href="#aA"/><use transform="matrix(0.06790123456790123,0,0,0.06790123456790123,97.64197530864197,0)" xlink:href="#au"/><use transform="matrix(0.06790123456790123,0,0,0.06790123456790123,103.00617283950618,0)" xlink:href="#aB"/><use transform="matrix(0.06790123456790123,0,0,0.06790123456790123,116.58641975308643,0)" xlink:href="#az"/></g><path fill="#3a414a" d="M140-251c81 0 123 46 123 126C263-46 219 4 140 4 59 4 17-45 17-125s42-126 123-126zm0 227c63 0 89-41 89-101s-29-99-89-99c-61 0-89 39-89 99S79-25 140-24" id="aC"/><path fill="#3a414a" d="M115-194c53 0 69 39 70 98 0 66-23 100-70 100C84 3 66-7 56-30L54 0H23l1-261h32v101c10-23 28-34 59-34zm-8 174c40 0 45-34 45-75 0-40-5-75-45-74-42 0-51 32-51 76 0 43 10 73 51 73" id="aD"/><path fill="#3a414a" d="M135-143c-3-34-86-38-87 0 15 53 115 12 119 90S17 21 10-45l28-5c4 36 97 45 98 0-10-56-113-15-118-90-4-57 82-63 122-42 12 7 21 19 24 35" id="aE"/><path fill="#3a414a" d="M100-194c63 0 86 42 84 106H49c0 40 14 67 53 68 26 1 43-12 49-29l28 8c-11 28-37 45-77 45C44 4 14-33 15-96c1-61 26-98 85-98zm52 81c6-60-76-77-97-28-3 7-6 17-6 28h103" id="aF"/><path fill="#3a414a" d="M114-163C36-179 61-72 57 0H25l-1-190h30c1 12-1 29 2 39 6-27 23-49 58-41v29" id="aG"/><path fill="#3a414a" d="M108 0H70L1-190h34L89-25l56-165h34" id="aH"/><g id="t"><use transform="matrix(0.06790123456790123,0,0,0.06790123456790123,0,0)" xlink:href="#aC"/><use transform="matrix(0.06790123456790123,0,0,0.06790123456790123,19.012345679012345,0)" xlink:href="#aD"/><use transform="matrix(0.06790123456790123,0,0,0.06790123456790123,32.592592592592595,0)" xlink:href="#aE"/><use transform="matrix(0.06790123456790123,0,0,0.06790123456790123,44.81481481481482,0)" xlink:href="#aF"/><use transform="matrix(0.06790123456790123,0,0,0.06790123456790123,58.39506172839506,0)" xlink:href="#aG"/><use transform="matrix(0.06790123456790123,0,0,0.06790123456790123,66.47530864197532,0)" xlink:href="#aH"/><use transform="matrix(0.06790123456790123,0,0,0.06790123456790123,78.69753086419755,0)" xlink:href="#as"/><use transform="matrix(0.06790123456790123,0,0,0.06790123456790123,92.2777777777778,0)" xlink:href="#at"/><use transform="matrix(0.06790123456790123,0,0,0.06790123456790123,99.06790123456793,0)" xlink:href="#au"/><use transform="matrix(0.06790123456790123,0,0,0.06790123456790123,104.43209876543213,0)" xlink:href="#ay"/><use transform="matrix(0.06790123456790123,0,0,0.06790123456790123,118.01234567901238,0)" xlink:href="#aB"/><use transform="matrix(0.06790123456790123,0,0,0.06790123456790123,131.59259259259264,0)" xlink:href="#aE"/></g><g id="u"><use transform="matrix(0.05,0,0,0.05,0,0)" xlink:href="#N"/><use transform="matrix(0.05,0,0,0.05,14,0)" xlink:href="#R"/><use transform="matrix(0.05,0,0,0.05,24,0)" xlink:href="#M"/><use transform="matrix(0.05,0,0,0.05,33,0)" xlink:href="#E"/><use transform="matrix(0.05,0,0,0.05,43,0)" xlink:href="#L"/><use transform="matrix(0.05,0,0,0.05,48.95,0)" xlink:href="#S"/><use transform="matrix(0.05,0,0,0.05,57.95,0)" xlink:href="#I"/><use transform="matrix(0.05,0,0,0.05,67.95,0)" xlink:href="#R"/><use transform="matrix(0.05,0,0,0.05,77.95,0)" xlink:href="#aj"/><use transform="matrix(0.05,0,0,0.05,81.9,0)" xlink:href="#E"/></g><path d="M30-248c87 1 191-15 191 75 0 78-77 80-158 76V0H30v-248zm33 125c57 0 124 11 124-50 0-59-68-47-124-48v98" id="aI"/><path d="M115-194c55 1 70 41 70 98S169 2 115 4C84 4 66-9 55-30l1 105H24l-1-265h31l2 30c10-21 28-34 59-34zm-8 174c40 0 45-34 45-75s-6-73-45-74c-42 0-51 32-51 76 0 43 10 73 51 73" id="aJ"/><path d="M179-190L93 31C79 59 56 82 12 73V49c39 6 53-20 64-50L1-190h34L92-34l54-156h33" id="aK"/><g id="v"><use transform="matrix(0.05,0,0,0.05,0,0)" xlink:href="#aI"/><use transform="matrix(0.05,0,0,0.05,12,0)" xlink:href="#L"/><use transform="matrix(0.05,0,0,0.05,17.95,0)" xlink:href="#F"/><use transform="matrix(0.05,0,0,0.05,27.950000000000003,0)" xlink:href="#aJ"/><use transform="matrix(0.05,0,0,0.05,37.95,0)" xlink:href="#E"/><use transform="matrix(0.05,0,0,0.05,47.95,0)" xlink:href="#L"/><use transform="matrix(0.05,0,0,0.05,53.900000000000006,0)" xlink:href="#J"/><use transform="matrix(0.05,0,0,0.05,58.900000000000006,0)" xlink:href="#aK"/></g><path d="M206 0h-36l-40-164L89 0H53L-1-190h32L70-26l43-164h34l41 164 42-164h31" id="aL"/><g id="w"><use transform="matrix(0.05,0,0,0.05,0,0)" xlink:href="#D"/><use transform="matrix(0.05,0,0,0.05,10,0)" xlink:href="#M"/><use transform="matrix(0.05,0,0,0.05,19,0)" xlink:href="#aL"/><use transform="matrix(0.05,0,0,0.05,31.950000000000003,0)" xlink:href="#I"/><use transform="matrix(0.05,0,0,0.05,41.95,0)" xlink:href="#G"/></g><path d="M143 4C61 4 22-44 18-125c-5-107 100-154 193-111 17 8 29 25 37 43l-32 9c-13-25-37-40-76-40-61 0-88 39-88 99 0 61 29 100 91 101 35 0 62-11 79-27v-45h-74v-28h105v86C228-13 192 4 143 4" id="aM"/><g id="x"><use transform="matrix(0.05,0,0,0.05,0,0)" xlink:href="#aM"/><use transform="matrix(0.05,0,0,0.05,14,0)" xlink:href="#E"/><use transform="matrix(0.05,0,0,0.05,24,0)" xlink:href="#F"/><use transform="matrix(0.05,0,0,0.05,34,0)" xlink:href="#aj"/><use transform="matrix(0.05,0,0,0.05,37.95,0)" xlink:href="#F"/><use transform="matrix(0.05,0,0,0.05,47.95,0)" xlink:href="#D"/><use transform="matrix(0.05,0,0,0.05,57.95,0)" xlink:href="#T"/><use transform="matrix(0.05,0,0,0.05,61.900000000000006,0)" xlink:href="#ak"/><use transform="matrix(0.05,0,0,0.05,70.9,0)" xlink:href="#I"/><use transform="matrix(0.05,0,0,0.05,80.9,0)" xlink:href="#aj"/></g><path fill="#e81313" d="M135-143c-3-34-86-38-87 0 15 53 115 12 119 90S17 21 10-45l28-5c4 36 97 45 98 0-10-56-113-15-118-90-4-57 82-63 122-42 12 7 21 19 24 35" id="aN"/><path fill="#e81313" d="M100-194c62-1 85 37 85 99 1 63-27 99-86 99S16-35 15-95c0-66 28-99 85-99zM99-20c44 1 53-31 53-75 0-43-8-75-51-75s-53 32-53 75 10 74 51 75" id="aO"/><path fill="#e81313" d="M141-36C126-15 110 5 73 4 37 3 15-17 15-53c-1-64 63-63 125-63 3-35-9-54-41-54-24 1-41 7-42 31l-33-3c5-37 33-52 76-52 45 0 72 20 72 64v82c-1 20 7 32 28 27v20c-31 9-61-2-59-35zM48-53c0 20 12 33 32 33 41-3 63-29 60-74-43 2-92-5-92 41" id="aP"/><path fill="#e81313" d="M33-154v-36h34v36H33zM33 0v-36h34V0H33" id="aQ"/><g id="y"><use transform="matrix(0.04938271604938272,0,0,0.04938271604938272,0,0)" xlink:href="#aN"/><use transform="matrix(0.04938271604938272,0,0,0.04938271604938272,8.88888888888889,0)" xlink:href="#aO"/><use transform="matrix(0.04938271604938272,0,0,0.04938271604938272,18.765432098765434,0)" xlink:href="#aN"/><use transform="matrix(0.04938271604938272,0,0,0.04938271604938272,27.654320987654323,0)" xlink:href="#aP"/><use transform="matrix(0.04938271604938272,0,0,0.04938271604938272,37.53086419753087,0)" xlink:href="#aQ"/></g><path fill="#e81313" d="M106-169C34-169 62-67 57 0H25v-261h32l-1 103c12-21 28-36 61-36 89 0 53 116 60 194h-32v-121c2-32-8-49-39-48" id="aR"/><path fill="#e81313" d="M30-248c87 1 191-15 191 75 0 78-77 80-158 76V0H30v-248zm33 125c57 0 124 11 124-50 0-59-68-47-124-48v98" id="aS"/><path fill="#e81313" d="M114-163C36-179 61-72 57 0H25l-1-190h30c1 12-1 29 2 39 6-27 23-49 58-41v29" id="aT"/><path fill="#e81313" d="M115-194c55 1 70 41 70 98S169 2 115 4C84 4 66-9 55-30l1 105H24l-1-265h31l2 30c10-21 28-34 59-34zm-8 174c40 0 45-34 45-75s-6-73-45-74c-42 0-51 32-51 76 0 43 10 73 51 73" id="aU"/><path fill="#e81313" d="M100-194c63 0 86 42 84 106H49c0 40 14 67 53 68 26 1 43-12 49-29l28 8c-11 28-37 45-77 45C44 4 14-33 15-96c1-61 26-98 85-98zm52 81c6-60-76-77-97-28-3 7-6 17-6 28h103" id="aV"/><path fill="#e81313" d="M59-47c-2 24 18 29 38 22v24C64 9 27 4 27-40v-127H5v-23h24l9-43h21v43h35v23H59v120" id="aW"/><path fill="#e81313" d="M179-190L93 31C79 59 56 82 12 73V49c39 6 53-20 64-50L1-190h34L92-34l54-156h33" id="aX"/><g id="z"><use transform="matrix(0.04938271604938272,0,0,0.04938271604938272,0,0)" xlink:href="#aR"/><use transform="matrix(0.04938271604938272,0,0,0.04938271604938272,9.876543209876544,0)" xlink:href="#aP"/><use transform="matrix(0.04938271604938272,0,0,0.04938271604938272,19.75308641975309,0)" xlink:href="#aN"/><use transform="matrix(0.04938271604938272,0,0,0.04938271604938272,28.641975308641978,0)" xlink:href="#aS"/><use transform="matrix(0.04938271604938272,0,0,0.04938271604938272,40.49382716049383,0)" xlink:href="#aT"/><use transform="matrix(0.04938271604938272,0,0,0.04938271604938272,46.370370370370374,0)" xlink:href="#aO"/><use transform="matrix(0.04938271604938272,0,0,0.04938271604938272,56.24691358024692,0)" xlink:href="#aU"/><use transform="matrix(0.04938271604938272,0,0,0.04938271604938272,66.12345679012347,0)" xlink:href="#aV"/><use transform="matrix(0.04938271604938272,0,0,0.04938271604938272,76.00000000000001,0)" xlink:href="#aT"/><use transform="matrix(0.04938271604938272,0,0,0.04938271604938272,81.87654320987656,0)" xlink:href="#aW"/><use transform="matrix(0.04938271604938272,0,0,0.04938271604938272,86.81481481481484,0)" xlink:href="#aX"/></g><path fill="#333" d="M108 0H70L1-190h34L89-25l56-165h34" id="aY"/><g id="A"><use transform="matrix(0.04938271604938272,0,0,0.04938271604938272,0,0)" xlink:href="#V"/><use transform="matrix(0.04938271604938272,0,0,0.04938271604938272,9.876543209876544,0)" xlink:href="#an"/><use transform="matrix(0.04938271604938272,0,0,0.04938271604938272,19.75308641975309,0)" xlink:href="#U"/><use transform="matrix(0.04938271604938272,0,0,0.04938271604938272,28.641975308641978,0)" xlink:href="#aa"/><use transform="matrix(0.04938271604938272,0,0,0.04938271604938272,38.51851851851852,0)" xlink:href="#ad"/><use transform="matrix(0.04938271604938272,0,0,0.04938271604938272,44.39506172839506,0)" xlink:href="#aY"/><use transform="matrix(0.04938271604938272,0,0,0.04938271604938272,53.28395061728394,0)" xlink:href="#aa"/><use transform="matrix(0.04938271604938272,0,0,0.04938271604938272,63.1604938271605,0)" xlink:href="#al"/></g><path fill="#333" d="M30-248c87 1 191-15 191 75 0 78-77 80-158 76V0H30v-248zm33 125c57 0 124 11 124-50 0-59-68-47-124-48v98" id="aZ"/><path fill="#333" d="M115-194c55 1 70 41 70 98S169 2 115 4C84 4 66-9 55-30l1 105H24l-1-265h31l2 30c10-21 28-34 59-34zm-8 174c40 0 45-34 45-75s-6-73-45-74c-42 0-51 32-51 76 0 43 10 73 51 73" id="ba"/><path fill="#333" d="M179-190L93 31C79 59 56 82 12 73V49c39 6 53-20 64-50L1-190h34L92-34l54-156h33" id="bb"/><g id="B"><use transform="matrix(0.04938271604938272,0,0,0.04938271604938272,0,0)" xlink:href="#aZ"/><use transform="matrix(0.04938271604938272,0,0,0.04938271604938272,11.851851851851853,0)" xlink:href="#ad"/><use transform="matrix(0.04938271604938272,0,0,0.04938271604938272,17.728395061728396,0)" xlink:href="#V"/><use transform="matrix(0.04938271604938272,0,0,0.04938271604938272,27.60493827160494,0)" xlink:href="#ba"/><use transform="matrix(0.04938271604938272,0,0,0.04938271604938272,37.48148148148148,0)" xlink:href="#aa"/><use transform="matrix(0.04938271604938272,0,0,0.04938271604938272,47.358024691358025,0)" xlink:href="#ad"/><use transform="matrix(0.04938271604938272,0,0,0.04938271604938272,53.23456790123457,0)" xlink:href="#ab"/><use transform="matrix(0.04938271604938272,0,0,0.04938271604938272,58.17283950617284,0)" xlink:href="#bb"/></g><path fill="#3a414a" d="M143 4C61 4 22-44 18-125c-5-107 100-154 193-111 17 8 29 25 37 43l-32 9c-13-25-37-40-76-40-61 0-88 39-88 99 0 61 29 100 91 101 35 0 62-11 79-27v-45h-74v-28h105v86C228-13 192 4 143 4" id="bc"/><g id="C"><use transform="matrix(0.06790123456790123,0,0,0.06790123456790123,0,0)" xlink:href="#bc"/><use transform="matrix(0.06790123456790123,0,0,0.06790123456790123,19.012345679012345,0)" xlink:href="#aF"/><use transform="matrix(0.06790123456790123,0,0,0.06790123456790123,32.592592592592595,0)" xlink:href="#ay"/><use transform="matrix(0.06790123456790123,0,0,0.06790123456790123,46.17283950617284,0)" xlink:href="#av"/><use transform="matrix(0.06790123456790123,0,0,0.06790123456790123,51.537037037037045,0)" xlink:href="#ay"/><use transform="matrix(0.06790123456790123,0,0,0.06790123456790123,65.11728395061729,0)" xlink:href="#az"/><use transform="matrix(0.06790123456790123,0,0,0.06790123456790123,78.69753086419755,0)" xlink:href="#aw"/></g></defs></g></svg>