<svg xmlns="http://www.w3.org/2000/svg" xmlns:xlink="http://www.w3.org/1999/xlink" xmlns:lucid="lucid" width="726.67" height="395.34"><g transform="translate(7.838981081206043 7.838981081206043)" lucid:page-tab-id="tpapIT1KjUHk"><path d="M0 0h711v502.72H0z" fill="#fff"/><path d="M294.83 33v309.67M294.83 33.07V30.5M294.83 342.6v2.57" stroke="#3a414a" stroke-width="5" fill="none"/><path d="M445.83 29.17h-302M445.8 29.17h1.03M143.85 29.17h-1.02" stroke="#3a414a" stroke-width="2" fill="none"/><path d="M292.82 213.33l-6.82 5.1-5.8 5.9-4.94 6.92-8.43 13.92-4.7 5-11.6 8.7-14.37 8.97-2.6 1.6-3.55 1.9-5.32 2.54-11.04 4.55-42.9 16.95-13.05 6.23-10.9 5.9-7.17 4.37" stroke="#3a414a" stroke-width="5" stroke-linejoin="round" fill="none"/><path d="M292.77 213.37l2.06-1.53M139.7 311.84l-2.2 1.33" stroke="#3a414a" stroke-width="5" fill="none"/><path d="M295.6 58.22l1.7 5.26 2.6 7.03 2.8 6.7 3.05 6.54 3.5 6.68 4.13 7.2 5.37 8.48 8.68 12.48 48.7 67.28 9.35 14.54" stroke="#3a414a" stroke-width="5" stroke-linejoin="round" fill="none"/><path d="M295.62 58.28l-.8-2.44M385.44 200.35l1.4 2.16" stroke="#3a414a" stroke-width="5" fill="none"/><path d="M348.8 152.92l.28 1 .85 3.93.77 4.83.7 6.5.64 13.52 1 25.2.9 8.62 1.12 6.92 1.3 6.05 1.5 5.52 1.7 5.18 1.93 4.96 2.03 4.56 2.65 5.24 3.5 6.23 4.9 7.77 7.47 10.75 20.4 26.36L426.53 337l7.92 11.4 1.7 2.67" stroke="#3a414a" stroke-width="5" stroke-linejoin="round" fill="none"/><path d="M348.83 152.98l-.67-2.47M436.1 351l1.4 2.17" stroke="#3a414a" stroke-width="5" fill="none"/><path d="M140.7 155.86l63.75 108.8" stroke="#979ea8" fill="none"/><path d="M141.12 155.62l-.86.5-.38-.65.55-.04.5-.12z" stroke="#979ea8" stroke-width=".05" fill="#979ea8"/><path d="M211.92 277.4l-11.22-9.97 8-4.7z" stroke="#979ea8" fill="#979ea8"/><path d="M146 121.13l132.5-10.65" stroke="#979ea8" fill="none"/><path d="M146.05 121.63l-.56.04v-1l.47-.04z" stroke="#979ea8" stroke-width=".05" fill="#979ea8"/><path d="M293.2 109.3l-13.83 5.76-.75-9.24z" stroke="#979ea8" fill="#979ea8"/><path d="M12.16 92.84a6 6 0 0 1 6-6H139.5a6 6 0 0 1 6 6v56.66a6 6 0 0 1-6 6H18.15a6 6 0 0 1-6-6z" stroke="#000" stroke-opacity="0" fill="#fff" fill-opacity="0"/><use xlink:href="#a" transform="matrix(1,0,0,1,17.161018918793957,91.83803713537856) translate(13.179012345679013 23.243055555555557)"/><use xlink:href="#b" transform="matrix(1,0,0,1,17.161018918793957,91.83803713537856) translate(14.163580246913583 52.57638888888889)"/><path d="M390.4 82.26l-81.25-45.13" stroke="#979ea8" fill="none"/><path d="M390.83 81.93v1.15l-.7-.4.5-.86z" stroke="#979ea8" stroke-width=".05" fill="#979ea8"/><path d="M296.24 29.96l14.72 2.87-4.5 8.1z" stroke="#979ea8" fill="#979ea8"/><path d="M390.83 63.5a6 6 0 0 1 6-6h121.33a6 6 0 0 1 6 6v38a6 6 0 0 1-6 6H396.83a6 6 0 0 1-6-6z" stroke="#000" stroke-opacity="0" fill="#fff" fill-opacity="0"/><use xlink:href="#c" transform="matrix(1,0,0,1,395.82768558549947,62.50470380204527) translate(0.3456790123456841 24.555555555555557)"/><use xlink:href="#d" transform="matrix(1,0,0,1,395.82768558549947,62.50470380204527) translate(58.672839506172835 24.555555555555557)"/><path d="M484.88 130.17a6 6 0 0 1 6-6h89.33a6 6 0 0 1 6 6v45.77a6 6 0 0 1-6 6H490.9a6 6 0 0 1-6-6z" stroke="#000" stroke-opacity="0" fill="#fff" fill-opacity="0"/><use xlink:href="#e" transform="matrix(1,0,0,1,489.8804408509733,129.17137046871198) translate(-2.8209876543209873 19.555555555555557)"/><use xlink:href="#f" transform="matrix(1,0,0,1,489.8804408509733,129.17137046871198) translate(6.006172839506171 48.88888888888889)"/><g fill="none"><path d="M304.72 62.6a6 6 0 0 1 1.72-8.32l59.05-38.82a6 6 0 0 1 8.3 1.7l85.18 129.58a6 6 0 0 1-1.7 8.3l-59.06 38.83a6 6 0 0 1-8.3-1.72z"/><path d="M393.2 197.16c4.62-3.03 5.9-9.23 2.87-13.84l-34.9-53.1c-3.04-4.6-1.76-10.8 2.86-13.84-4.62 3.04-10.82 1.76-13.85-2.86l-34.9-53.08c-3.04-4.62-9.24-5.9-13.85-2.86" stroke="#979ea8"/></g><path d="M360.6 156.48a6 6 0 0 1 6-6h70.65a6 6 0 0 1 6 6v69.72a6 6 0 0 1-6 6H366.6a6 6 0 0 1-6-6z" fill="none"/><path d="M360.6 232.2c5.5 0 10-4.47 10-10v-20.86c0-5.52 4.46-10 10-10-5.54 0-10-4.48-10-10v-20.86c0-5.52-4.5-10-10-10" stroke="#979ea8" fill="none"/><g fill="none"><path d="M363.36 237.68a6 6 0 0 1 1.02-8.43l55.6-43.6a6 6 0 0 1 8.43 1l81.56 103.98a6 6 0 0 1-1.02 8.43l-55.6 43.6a6 6 0 0 1-8.42-1z"/><path d="M448.62 346.37c4.35-3.4 5.1-9.7 1.7-14.04l-32.14-40.97c-3.4-4.34-2.65-10.63 1.7-14.04-4.35 3.4-10.63 2.65-14.04-1.7l-32.14-40.97c-3.4-4.34-9.7-5.1-14.04-1.7" stroke="#979ea8"/></g><path d="M484.4 155.52L376.38 126" stroke="#979ea8" fill="none"/><path d="M484.88 155.13v1.04l-.63-.17.27-.96z" stroke="#979ea8" stroke-width=".05" fill="#979ea8"/><path d="M362.13 122.1l15-.7-2.46 8.94z" stroke="#979ea8" fill="#979ea8"/><path d="M484.65 153.5l-56.9 108.6" stroke="#979ea8" fill="none"/><path d="M484.88 153.63l-.68-.35.68-1.3z" stroke="#979ea8" stroke-width=".05" fill="#979ea8"/><path d="M420.88 275.18l2.52-14.8 8.2 4.3z" stroke="#979ea8" fill="#979ea8"/><path d="M484.4 153.23l-86.53 32.2" stroke="#979ea8" fill="none"/><path d="M484.88 153.6l-.3.1-.35-.94.65-.24z" stroke="#979ea8" stroke-width=".05" fill="#979ea8"/><path d="M384.03 190.58l11.75-9.32 3.23 8.7z" stroke="#979ea8" fill="#979ea8"/><path d="M596.16 31.78a6 6 0 0 1 6-6h70.67a6 6 0 0 1 6 6V361.5a6 6 0 0 1-6 6h-70.67a6 6 0 0 1-6-6z" fill="none"/><path d="M596.16 367.5c5.52 0 10-4.47 10-10V206.64c0-5.52 4.48-10 10-10-5.52 0-10-4.47-10-10V35.78c0-5.52-4.48-10-10-10" stroke="#979ea8" fill="none"/><path d="M624.16 169.54a6 6 0 0 1 6-6h62.67a6 6 0 0 1 6 6v56.66a6 6 0 0 1-6 6h-62.67a6 6 0 0 1-6-6z" stroke="#000" stroke-opacity="0" fill="#fff" fill-opacity="0"/><use xlink:href="#g" transform="matrix(1,0,0,1,629.1610189188328,168.53596678813952) translate(6.7314814814814845 23.243055555555557)"/><use xlink:href="#h" transform="matrix(1,0,0,1,629.1610189188328,168.53596678813952) translate(9.074074074074076 52.57638888888889)"/><path d="M33.5 18.16a6 6 0 0 1 6-6h92a6 6 0 0 1 6 6v25.32a6 6 0 0 1-6 6h-92a6 6 0 0 1-6-6z" stroke="#000" stroke-opacity="0" fill="#fff" fill-opacity="0"/><g><use xlink:href="#i" transform="matrix(1,0,0,1,38.494352252166124,17.161018918793992) translate(4.9351851851851904 21.305555555555557)"/></g><defs><path fill="#3a414a" d="M160-131c35 5 61 23 61 61C221 17 115-2 30 0v-248c76 3 177-17 177 60 0 33-19 50-47 57zm-97-11c50-1 110 9 110-42 0-47-63-36-110-37v79zm0 115c55-2 124 14 124-45 0-56-70-42-124-44v89" id="j"/><path fill="#3a414a" d="M100-194c62-1 85 37 85 99 1 63-27 99-86 99S16-35 15-95c0-66 28-99 85-99zM99-20c44 1 53-31 53-75 0-43-8-75-51-75s-53 32-53 75 10 74 51 75" id="k"/><path fill="#3a414a" d="M114-163C36-179 61-72 57 0H25l-1-190h30c1 12-1 29 2 39 6-27 23-49 58-41v29" id="l"/><path fill="#3a414a" d="M100-194c63 0 86 42 84 106H49c0 40 14 67 53 68 26 1 43-12 49-29l28 8c-11 28-37 45-77 45C44 4 14-33 15-96c1-61 26-98 85-98zm52 81c6-60-76-77-97-28-3 7-6 17-6 28h103" id="m"/><path fill="#3a414a" d="M106-169C34-169 62-67 57 0H25v-261h32l-1 103c12-21 28-36 61-36 89 0 53 116 60 194h-32v-121c2-32-8-49-39-48" id="n"/><path fill="#3a414a" d="M24 0v-261h32V0H24" id="o"/><g id="a"><use transform="matrix(0.06790123456790123,0,0,0.06790123456790123,0,0)" xlink:href="#j"/><use transform="matrix(0.06790123456790123,0,0,0.06790123456790123,16.296296296296294,0)" xlink:href="#k"/><use transform="matrix(0.06790123456790123,0,0,0.06790123456790123,29.87654320987654,0)" xlink:href="#l"/><use transform="matrix(0.06790123456790123,0,0,0.06790123456790123,37.95679012345679,0)" xlink:href="#m"/><use transform="matrix(0.06790123456790123,0,0,0.06790123456790123,51.53703703703703,0)" xlink:href="#n"/><use transform="matrix(0.06790123456790123,0,0,0.06790123456790123,65.11728395061728,0)" xlink:href="#k"/><use transform="matrix(0.06790123456790123,0,0,0.06790123456790123,78.69753086419752,0)" xlink:href="#o"/><use transform="matrix(0.06790123456790123,0,0,0.06790123456790123,84.06172839506172,0)" xlink:href="#m"/></g><path fill="#3a414a" d="M247 0h-39l-15-214-24 57L95 0H56L31-248h35L82-30l101-218h33l16 218 101-218h35" id="p"/><path fill="#3a414a" d="M111-194c62-3 86 47 72 106H45c-7 38 6 69 45 68 27-1 43-14 53-32l24 11C152-15 129 4 87 4 38 3 12-23 12-71c0-70 32-119 99-123zm44 81c14-66-71-72-95-28-4 8-8 17-11 28h106" id="q"/><path fill="#3a414a" d="M6 0l50-261h32L37 0H6" id="r"/><path fill="#3a414a" d="M68-162c25-46 127-43 121 31C183-60 169 1 98 4 69 5 53-11 43-31L36 0H5l52-261h31zm88 36c2-27-9-43-34-43-55 0-70 51-70 103 0 29 15 45 43 46 52 0 58-58 61-106" id="s"/><path fill="#3a414a" d="M30-147c31-64 166-65 159 27C183-49 158 1 86 4 9 8 1-88 30-147zM88-20c53 0 68-48 68-100 0-31-11-51-44-50-52 1-68 46-68 97 0 32 13 53 44 53" id="t"/><path fill="#3a414a" d="M66-151c12-25 30-51 66-40l-6 26C45-176 58-65 38 0H6l36-190h30" id="u"/><g id="b"><use transform="matrix(0.06790123456790123,0,0,0.06790123456790123,0,0)" xlink:href="#p"/><use transform="matrix(0.06790123456790123,0,0,0.06790123456790123,22.543209876543205,0)" xlink:href="#q"/><use transform="matrix(0.06790123456790123,0,0,0.06790123456790123,36.123456790123456,0)" xlink:href="#r"/><use transform="matrix(0.06790123456790123,0,0,0.06790123456790123,41.48765432098765,0)" xlink:href="#r"/><use transform="matrix(0.06790123456790123,0,0,0.06790123456790123,46.85185185185185,0)" xlink:href="#s"/><use transform="matrix(0.06790123456790123,0,0,0.06790123456790123,60.432098765432094,0)" xlink:href="#t"/><use transform="matrix(0.06790123456790123,0,0,0.06790123456790123,74.01234567901234,0)" xlink:href="#u"/><use transform="matrix(0.06790123456790123,0,0,0.06790123456790123,82.09259259259258,0)" xlink:href="#q"/></g><g id="c"><use transform="matrix(0.06790123456790123,0,0,0.06790123456790123,0,0)" xlink:href="#j"/><use transform="matrix(0.06790123456790123,0,0,0.06790123456790123,16.296296296296294,0)" xlink:href="#k"/><use transform="matrix(0.06790123456790123,0,0,0.06790123456790123,29.87654320987654,0)" xlink:href="#l"/><use transform="matrix(0.06790123456790123,0,0,0.06790123456790123,37.95679012345679,0)" xlink:href="#m"/></g><path fill="#3a414a" d="M140-251c81 0 123 46 123 126C263-46 219 4 140 4 59 4 17-45 17-125s42-126 123-126zm0 227c63 0 89-41 89-101s-29-99-89-99c-61 0-89 39-89 99S79-25 140-24" id="v"/><path fill="#3a414a" d="M24-231v-30h32v30H24zM24 0v-190h32V0H24" id="w"/><path fill="#3a414a" d="M177-190C167-65 218 103 67 71c-23-6-38-20-44-43l32-5c15 47 100 32 89-28v-30C133-14 115 1 83 1 29 1 15-40 15-95c0-56 16-97 71-98 29-1 48 16 59 35 1-10 0-23 2-32h30zM94-22c36 0 50-32 50-73 0-42-14-75-50-75-39 0-46 34-46 75s6 73 46 73" id="x"/><path fill="#3a414a" d="M117-194c89-4 53 116 60 194h-32v-121c0-31-8-49-39-48C34-167 62-67 57 0H25l-1-190h30c1 10-1 24 2 32 11-22 29-35 61-36" id="y"/><g id="d"><use transform="matrix(0.06790123456790123,0,0,0.06790123456790123,0,0)" xlink:href="#v"/><use transform="matrix(0.06790123456790123,0,0,0.06790123456790123,19.012345679012345,0)" xlink:href="#l"/><use transform="matrix(0.06790123456790123,0,0,0.06790123456790123,27.09259259259259,0)" xlink:href="#w"/><use transform="matrix(0.06790123456790123,0,0,0.06790123456790123,32.45679012345679,0)" xlink:href="#x"/><use transform="matrix(0.06790123456790123,0,0,0.06790123456790123,46.03703703703703,0)" xlink:href="#w"/><use transform="matrix(0.06790123456790123,0,0,0.06790123456790123,51.401234567901234,0)" xlink:href="#y"/></g><g id="e"><use transform="matrix(0.06790123456790123,0,0,0.06790123456790123,0,0)" xlink:href="#j"/><use transform="matrix(0.06790123456790123,0,0,0.06790123456790123,16.296296296296294,0)" xlink:href="#k"/><use transform="matrix(0.06790123456790123,0,0,0.06790123456790123,29.87654320987654,0)" xlink:href="#l"/><use transform="matrix(0.06790123456790123,0,0,0.06790123456790123,37.95679012345679,0)" xlink:href="#m"/><use transform="matrix(0.06790123456790123,0,0,0.06790123456790123,51.53703703703703,0)" xlink:href="#n"/><use transform="matrix(0.06790123456790123,0,0,0.06790123456790123,65.11728395061728,0)" xlink:href="#k"/><use transform="matrix(0.06790123456790123,0,0,0.06790123456790123,78.69753086419752,0)" xlink:href="#o"/><use transform="matrix(0.06790123456790123,0,0,0.06790123456790123,84.06172839506172,0)" xlink:href="#m"/></g><path fill="#3a414a" d="M33 0v-248h34V0H33" id="z"/><path fill="#3a414a" d="M59-47c-2 24 18 29 38 22v24C64 9 27 4 27-40v-127H5v-23h24l9-43h21v43h35v23H59v120" id="A"/><path fill="#3a414a" d="M108 0H70L1-190h34L89-25l56-165h34" id="B"/><path fill="#3a414a" d="M141-36C126-15 110 5 73 4 37 3 15-17 15-53c-1-64 63-63 125-63 3-35-9-54-41-54-24 1-41 7-42 31l-33-3c5-37 33-52 76-52 45 0 72 20 72 64v82c-1 20 7 32 28 27v20c-31 9-61-2-59-35zM48-53c0 20 12 33 32 33 41-3 63-29 60-74-43 2-92-5-92 41" id="C"/><g id="f"><use transform="matrix(0.06790123456790123,0,0,0.06790123456790123,0,0)" xlink:href="#z"/><use transform="matrix(0.06790123456790123,0,0,0.06790123456790123,6.790123456790123,0)" xlink:href="#y"/><use transform="matrix(0.06790123456790123,0,0,0.06790123456790123,20.37037037037037,0)" xlink:href="#A"/><use transform="matrix(0.06790123456790123,0,0,0.06790123456790123,27.160493827160494,0)" xlink:href="#m"/><use transform="matrix(0.06790123456790123,0,0,0.06790123456790123,40.74074074074074,0)" xlink:href="#l"/><use transform="matrix(0.06790123456790123,0,0,0.06790123456790123,48.82098765432099,0)" xlink:href="#B"/><use transform="matrix(0.06790123456790123,0,0,0.06790123456790123,61.04320987654321,0)" xlink:href="#C"/><use transform="matrix(0.06790123456790123,0,0,0.06790123456790123,74.62345679012346,0)" xlink:href="#o"/></g><g id="g"><use transform="matrix(0.06790123456790123,0,0,0.06790123456790123,0,0)" xlink:href="#j"/><use transform="matrix(0.06790123456790123,0,0,0.06790123456790123,16.296296296296294,0)" xlink:href="#k"/><use transform="matrix(0.06790123456790123,0,0,0.06790123456790123,29.87654320987654,0)" xlink:href="#l"/><use transform="matrix(0.06790123456790123,0,0,0.06790123456790123,37.95679012345679,0)" xlink:href="#m"/></g><g id="h"><use transform="matrix(0.06790123456790123,0,0,0.06790123456790123,0,0)" xlink:href="#p"/><use transform="matrix(0.06790123456790123,0,0,0.06790123456790123,22.543209876543205,0)" xlink:href="#q"/><use transform="matrix(0.06790123456790123,0,0,0.06790123456790123,36.123456790123456,0)" xlink:href="#r"/><use transform="matrix(0.06790123456790123,0,0,0.06790123456790123,41.48765432098765,0)" xlink:href="#r"/></g><path fill="#3a414a" d="M185-189c-5-48-123-54-124 2 14 75 158 14 163 119 3 78-121 87-175 55-17-10-28-26-33-46l33-7c5 56 141 63 141-1 0-78-155-14-162-118-5-82 145-84 179-34 5 7 8 16 11 25" id="D"/><path fill="#3a414a" d="M84 4C-5 8 30-112 23-190h32v120c0 31 7 50 39 49 72-2 45-101 50-169h31l1 190h-30c-1-10 1-25-2-33-11 22-28 36-60 37" id="E"/><path fill="#3a414a" d="M101-234c-31-9-42 10-38 44h38v23H63V0H32v-167H5v-23h27c-7-52 17-82 69-68v24" id="F"/><path fill="#3a414a" d="M96-169c-40 0-48 33-48 73s9 75 48 75c24 0 41-14 43-38l32 2c-6 37-31 61-74 61-59 0-76-41-82-99-10-93 101-131 147-64 4 7 5 14 7 22l-32 3c-4-21-16-35-41-35" id="G"/><g id="i"><use transform="matrix(0.06790123456790123,0,0,0.06790123456790123,0,0)" xlink:href="#D"/><use transform="matrix(0.06790123456790123,0,0,0.06790123456790123,16.296296296296294,0)" xlink:href="#E"/><use transform="matrix(0.06790123456790123,0,0,0.06790123456790123,29.87654320987654,0)" xlink:href="#l"/><use transform="matrix(0.06790123456790123,0,0,0.06790123456790123,37.95679012345679,0)" xlink:href="#F"/><use transform="matrix(0.06790123456790123,0,0,0.06790123456790123,44.74691358024691,0)" xlink:href="#C"/><use transform="matrix(0.06790123456790123,0,0,0.06790123456790123,58.32716049382716,0)" xlink:href="#G"/><use transform="matrix(0.06790123456790123,0,0,0.06790123456790123,70.54938271604938,0)" xlink:href="#m"/></g></defs></g></svg>