<svg xmlns="http://www.w3.org/2000/svg" xmlns:xlink="http://www.w3.org/1999/xlink" xmlns:lucid="lucid" width="905.65" height="902.68"><g transform="translate(-0.8945686900958663 12.688010524968917)" lucid:page-tab-id=".5IIFpT8PoVq"><path d="M0 0h1201.8v873.1H0z" fill="#fff"/><path d="M440.9 549.52a5 5 0 0 1 5-5h150a5 5 0 0 1 5 5v110a5 5 0 0 1-5 5h-150a5 5 0 0 1-5-5z" stroke="#000" stroke-width="2" fill="#666"/><use xlink:href="#a" transform="matrix(1,0,0,1,448.89456869009587,552.5155311671614) translate(53.025 55.6)"/><path d="M521.9 541.73h-2v-38.7h2zm0-60.3h-2V460h2z" stroke="#000" stroke-width=".05"/><path d="M521.9 460.03h-2V459h2z"/><path d="M521.92 460.06h-2.05v-1.08h2.05zm-2-1.03v.98h1.95v-.97zM520.9 539.62l9.3-15.76 1.74 1.02-11.05 18.67-11.05-18.67 1.72-1.02z" stroke="#000" stroke-width=".05"/><use xlink:href="#b" transform="matrix(1,0,0,1,451.4445686900959,481.4339078061765) translate(0 14.4)"/><use xlink:href="#c" transform="matrix(1,0,0,1,451.4445686900959,481.4339078061765) translate(95.95 14.4)"/><path d="M440.9 343.04a5 5 0 0 1 5-5h150a5 5 0 0 1 5 5v110a5 5 0 0 1-5 5h-150a5 5 0 0 1-5-5z" stroke="#000" stroke-width="2" fill="#666"/><use xlink:href="#d" transform="matrix(1,0,0,1,448.89456869009587,346.03838326196194) translate(36.05 55.6)"/><path d="M20.9 194.47a5 5 0 0 1 5-5h150a5 5 0 0 1 5 5v110a5 5 0 0 1-5 5h-150a5 5 0 0 1-5-5z" stroke="#000" stroke-width="2" fill="#b2b2b2"/><use xlink:href="#e" transform="matrix(1,0,0,1,28.894568690095866,197.46647597602885) translate(36.05 44.8)"/><use xlink:href="#f" transform="matrix(1,0,0,1,28.894568690095866,197.46647597602885) translate(31.575000000000003 66.4)"/><path d="M20.9 343.04a5 5 0 0 1 5-5h150a5 5 0 0 1 5 5v110a5 5 0 0 1-5 5h-150a5 5 0 0 1-5-5z" stroke="#000" stroke-width="2" fill="#b2b2b2"/><use xlink:href="#g" transform="matrix(1,0,0,1,28.894568690095866,346.03838326196194) translate(36.05 34)"/><use xlink:href="#h" transform="matrix(1,0,0,1,28.894568690095866,346.03838326196194) translate(41.025 55.6)"/><use xlink:href="#i" transform="matrix(1,0,0,1,28.894568690095866,346.03838326196194) translate(17.099999999999994 77.2)"/><path d="M20.9 494.47a5 5 0 0 1 5-5h150a5 5 0 0 1 5 5v110a5 5 0 0 1-5 5h-150a5 5 0 0 1-5-5z" stroke="#000" stroke-width="2" fill="#b2b2b2"/><use xlink:href="#g" transform="matrix(1,0,0,1,28.894568690095866,497.46647597602896) translate(36.05 44.8)"/><use xlink:href="#j" transform="matrix(1,0,0,1,28.894568690095866,497.46647597602896) translate(46.5 66.4)"/><path d="M20.9 45.9a5 5 0 0 1 5-5h150a5 5 0 0 1 5 5v110a5 5 0 0 1-5 5h-150a5 5 0 0 1-5-5z" stroke="#000" stroke-width="2" fill="#b2b2b2"/><use xlink:href="#g" transform="matrix(1,0,0,1,28.894568690095866,48.89456869009585) translate(36.05 44.8)"/><use xlink:href="#k" transform="matrix(1,0,0,1,28.894568690095866,48.89456869009585) translate(38.525 66.4)"/><path d="M20.9 645.9a5 5 0 0 1 5-5h150a5 5 0 0 1 5 5v110a5 5 0 0 1-5 5h-150a5 5 0 0 1-5-5z" stroke="#000" stroke-width="2" fill="#b2b2b2"/><use xlink:href="#g" transform="matrix(1,0,0,1,28.894568690095866,648.8945686900959) translate(36.05 44.8)"/><use xlink:href="#l" transform="matrix(1,0,0,1,28.894568690095866,648.8945686900959) translate(12.174999999999997 66.4)"/><use xlink:href="#m" transform="matrix(1,0,0,1,28.894568690095866,648.8945686900959) translate(71.875 66.4)"/><path d="M440.02 396.63l-1.5 1.3-136.77-157.47h2.65zM285.64 218.86H283L182.3 102.92l1.5-1.3z" stroke="#000" stroke-width=".05"/><path d="M439.93 399.56l-1.43-1.64 1.42-1.24z"/><path d="M439.95 399.63l-1.5-1.7 1.5-1.3zm-1.42-1.7l1.37 1.57v-2.76zM202.44 107.75l-.63 1.9-17.36-5.8 3.3 18.02-1.97.36-3.9-21.34z" stroke="#000" stroke-width=".05"/><use xlink:href="#n" transform="matrix(1,0,0,1,244.21841862253257,218.86026257300566) translate(0.005000000000002558 14.4)"/><use xlink:href="#o" transform="matrix(1,0,0,1,244.21841862253257,218.86026257300566) translate(34.005 14.4)"/><path d="M439.56 396.67l-1 1.74-128.1-73.75h4zm-162.62-93.62h-4l-90-51.8 1-1.74z" stroke="#000" stroke-width=".05"/><path d="M439.92 396.88v2.3l-1.38-.8 1-1.72z"/><path d="M439.95 396.87v2.37l-1.45-.84 1.03-1.77zm-1.38 1.5l1.33.78v-2.25l-.36-.2zM203.58 251.2l-18.3.23 9 15.94-1.74.98-10.68-18.88 21.7-.26z" stroke="#000" stroke-width=".05"/><use xlink:href="#n" transform="matrix(1,0,0,1,236.79341862253258,303.0493229174838) translate(0.005000000000002558 14.4)"/><use xlink:href="#p" transform="matrix(1,0,0,1,236.79341862253258,303.0493229174838) translate(34.005 14.4)"/><path d="M240.77 399.04h-57.1v-2h57.1zm198.16 0h-92.3v-2h92.3z" stroke="#000" stroke-width=".05"/><path d="M439.93 399.04h-1.03v-2h1.02z"/><path d="M439.95 399.06h-1.08V397h1.08zm-1.03-2V399h.98v-1.94zM201.55 388.72l-15.76 9.32 15.75 9.32-1.02 1.72-18.67-11.04L200.53 387z" stroke="#000" stroke-width=".05"/><use xlink:href="#q" transform="matrix(1,0,0,1,240.76841862253258,376.4383832619619) translate(3.9549999999999983 14.4)"/><use xlink:href="#r" transform="matrix(1,0,0,1,240.76841862253258,376.4383832619619) translate(8.954999999999998 14.4)"/><use xlink:href="#s" transform="matrix(1,0,0,1,240.76841862253258,376.4383832619619) translate(42.955 14.4)"/><use xlink:href="#t" transform="matrix(1,0,0,1,240.76841862253258,376.4383832619619) translate(0.005000000000002558 36)"/><path d="M183.94 549.4l-1-1.72 90.37-53.03h3.96zm255.63-150l-125.5 73.65h-3.95l128.44-75.37z" stroke="#000" stroke-width=".05"/><path d="M439.93 399.2l-.38.22-1.02-1.73 1.4-.82z"/><path d="M439.95 399.2l-.4.25-1.05-1.76 1.45-.86zm-1.38-1.5l1 1.7.33-.22v-2.26zM194.13 531.46l-8.88 16.02 18.3.06v2l-21.7-.07 10.53-18.98z" stroke="#000" stroke-width=".05"/><use xlink:href="#n" transform="matrix(1,0,0,1,252.6934186225326,473.04591624879106) translate(0.005000000000002558 14.4)"/><use xlink:href="#u" transform="matrix(1,0,0,1,252.6934186225326,473.04591624879106) translate(34.005 14.4)"/><path d="M183.8 700.16l-1.52-1.3 88.3-103.63h2.64zm256.24-300.7l-130 152.57h-2.64l131.12-153.88z" stroke="#000" stroke-width=".05"/><path d="M439.93 399.4l-1.43-1.23 1.42-1.67z"/><path d="M439.95 399.44l-1.5-1.27 1.5-1.74zm-1.42-1.27l1.37 1.16v-2.76zM187.54 679.86l-3.13 18.04 17.33-5.95.65 1.9-20.52 7.04 3.7-21.38z" stroke="#000" stroke-width=".05"/><use xlink:href="#v" transform="matrix(1,0,0,1,246.93212111128474,552.0275496324003) translate(0.005000000000002558 14.4)"/><use xlink:href="#w" transform="matrix(1,0,0,1,246.93212111128474,552.0275496324003) translate(35.005 14.4)"/><use xlink:href="#x" transform="matrix(1,0,0,1,246.93212111128474,552.0275496324003) translate(13.405000000000001 36)"/><path d="M242.23 58.83a8.7 8.7 0 0 1 4.32-7.5l71.36-41.5a8.6 8.6 0 0 1 8.65 0l71.36 41.5a8.7 8.7 0 0 1 4.33 7.5v63.48a5 5 0 0 1-5 5h-150a5 5 0 0 1-5-5z" stroke="#000" stroke-width="2" fill="#fff"/><use xlink:href="#y" transform="matrix(1,0,0,1,242.22790202342924,7.311989475031083) translate(60.025 52.8)"/><use xlink:href="#z" transform="matrix(1,0,0,1,242.22790202342924,7.311989475031083) translate(56.5 74.4)"/><path d="M521.9 336.07h-2V321.6h2zm0-57.67h-2v-24.05h2z" stroke="#000" stroke-width=".05"/><path d="M521.9 337.07h-2v-1.03h2z"/><path d="M521.92 337.1h-2.05V336h2.05zm-2-1.03v.97h1.95v-.97zM531.94 271.2l-1.73 1.02-9.3-15.76-9.33 15.76-1.72-1.02 11.04-18.67z" stroke="#000" stroke-width=".05"/><use xlink:href="#A" transform="matrix(1,0,0,1,437.01956869009587,278.3999999999999) translate(0.0049999999999954525 14.4)"/><use xlink:href="#B" transform="matrix(1,0,0,1,437.01956869009587,278.3999999999999) translate(62.404999999999994 36)"/><path d="M624.8 399.04h-21.94v-2h21.94zm98.96 0h-21.1v-2h21.1z" stroke="#000" stroke-width=".05"/><path d="M602.9 399.04h-1.04v-2h1.03z"/><path d="M602.9 399.06h-1.06V397h1.07zm-1-2V399h.96v-1.94zM725.58 398.04l-18.67 11.04-1-1.72 15.75-9.32-15.76-9.32 1-1.72z" stroke="#000" stroke-width=".05"/><use xlink:href="#n" transform="matrix(1,0,0,1,624.7950829549914,365.63838326196196) translate(0.005000000000002558 14.4)"/><use xlink:href="#C" transform="matrix(1,0,0,1,624.7950829549914,365.63838326196196) translate(34.005 14.4)"/><use xlink:href="#D" transform="matrix(1,0,0,1,624.7950829549914,365.63838326196196) translate(7.979999999999997 36)"/><use xlink:href="#E" transform="matrix(1,0,0,1,624.7950829549914,365.63838326196196) translate(28.93 57.6)"/><path d="M726.55 343.04a5 5 0 0 1 5-5h150a5 5 0 0 1 5 5v110a5 5 0 0 1-5 5h-150a5 5 0 0 1-5-5z" stroke="#000" stroke-width="2" fill="#fff"/><use xlink:href="#F" transform="matrix(1,0,0,1,734.5455972198868,346.03838326196194) translate(54.5 44.8)"/><use xlink:href="#G" transform="matrix(1,0,0,1,734.5455972198868,346.03838326196194) translate(32.55 66.4)"/><path d="M678.93 605.52h-76.07v-2h76.07zm128.62-144.7l-.07 139.6-.23.95-.36.87-.5.8-.6.72-.73.6-.8.5-.87.36-.92.22-.9.08h-14.75v-2h14.68l.67-.06.6-.14.6-.24.52-.33.47-.4.4-.5.34-.52.25-.58.13-.57.07-139.35z" stroke="#000" stroke-width=".05"/><path d="M602.9 605.52h-1.04v-2h1.03z"/><path d="M602.9 605.54h-1.06v-2.05h1.07zm-1-2v1.95h.96v-1.96zM817.6 477.68l-1.73 1.02-9.32-15.76-9.32 15.76-1.73-1.02L806.55 459z" stroke="#000" stroke-width=".05"/><use xlink:href="#H" transform="matrix(1,0,0,1,678.9343663528875,572.1155311671614) translate(36.455000000000005 14.4)"/><use xlink:href="#I" transform="matrix(1,0,0,1,678.9343663528875,572.1155311671614) translate(0.005000000000002558 36)"/><use xlink:href="#E" transform="matrix(1,0,0,1,678.9343663528875,572.1155311671614) translate(43.955000000000005 57.6)"/><path d="M500.9 217.9a5 5 0 0 1 5-5h30a5 5 0 0 1 5 5v28.66a5 5 0 0 1-5 5h-30a5 5 0 0 1-5-5z" stroke="#000" stroke-width="2" fill="#fff"/><path d="M520.36 210.6l-.78 1.86-106.2-44.72h5.15zm-153.14-64.46h-5.15l-38.55-16.23.77-1.83z" stroke="#000" stroke-width=".05"/><path d="M523.46 211.92h-3.68l.56-1.32z"/><path d="M523.58 211.94h-3.84l.58-1.37zm-3.76-.04h3.52l-3-1.26zM344 127.33l-18.15 2.48 10.9 14.7-1.6 1.2-12.92-17.42 21.5-2.93z" stroke="#000" stroke-width=".05"/><g><use xlink:href="#J" transform="matrix(1,0,0,1,335.32251877392736,146.14021626907018) translate(0 14.4)"/><use xlink:href="#K" transform="matrix(1,0,0,1,335.32251877392736,146.14021626907018) translate(89.95 14.4)"/></g><path d="M440.9 12.3a5 5 0 0 1 5-5h150a5 5 0 0 1 5 5v110a5 5 0 0 1-5 5h-150a5 5 0 0 1-5-5z" stroke="#000" stroke-width="2" fill="#b2b2b2"/><g><use xlink:href="#L" transform="matrix(1,0,0,1,448.89456869009587,15.311989475031083) translate(53.55 55.6)"/></g><path d="M521.9 210.92h-2v-39.44h2zm0-61.04h-2V130.1h2z" stroke="#000" stroke-width=".05"/><path d="M521.9 211.92h-2v-1.02h2z"/><path d="M521.92 211.95h-2.05v-1.08h2.05zm-2-1.03v.98h1.95v-.98zM531.94 146.95l-1.73 1.02-9.3-15.76-9.33 15.77-1.72-1.02 11.04-18.67z" stroke="#000" stroke-width=".05"/><g><use xlink:href="#M" transform="matrix(1,0,0,1,455.4445686900959,149.87817098013142) translate(0.0049999999999954525 14.4)"/><use xlink:href="#K" transform="matrix(1,0,0,1,455.4445686900959,149.87817098013142) translate(110.905 14.4)"/></g><path d="M440.9 756a5 5 0 0 1 5-5h150a5 5 0 0 1 5 5v109a5 5 0 0 1-5 5h-150a5 5 0 0 1-5-5z" stroke="#000" stroke-width="2" fill="#666"/><g><use xlink:href="#N" transform="matrix(1,0,0,1,448.89456869009587,758.9926790723608) translate(36.05 44.3)"/><use xlink:href="#O" transform="matrix(1,0,0,1,448.89456869009587,758.9926790723608) translate(42.55 65.9)"/></g><path d="M521.9 748.2h-2v-29.65h2zm0-51.25h-2v-30.47h2z" stroke="#000" stroke-width=".05"/><path d="M521.9 666.5h-2v-1l2-.02z"/><path d="M521.92 666.54h-2.05v-1.08h2.05zm-2-1.03v1h1.95v-1zM520.9 746.1l9.3-15.76 1.74 1-11.05 18.68-11.05-18.67 1.72-1z" stroke="#000" stroke-width=".05"/><g><use xlink:href="#P" transform="matrix(1,0,0,1,451.9945686900959,696.9541051197612) translate(0 14.4)"/><use xlink:href="#Q" transform="matrix(1,0,0,1,451.9945686900959,696.9541051197612) translate(94.85000000000001 14.4)"/></g><path d="M726.55 91.23a5 5 0 0 1 5-5h150a5 5 0 0 1 5 5v110a5 5 0 0 1-5 5h-150a5 5 0 0 1-5-5z" stroke="#000" stroke-width="2" fill="#fff"/><g><use xlink:href="#R" transform="matrix(1,0,0,1,734.5455972198868,94.22790202342912) translate(50.5 44.8)"/><use xlink:href="#S" transform="matrix(1,0,0,1,734.5455972198868,94.22790202342912) translate(41.55 66.4)"/></g><path d="M601.43 337.66l-1.38-1.46 77.2-73.3h2.92zM737.3 208.64l-34.38 32.66h-2.9l35.92-34.1z" stroke="#000" stroke-width=".05"/><path d="M607.28 317.87l-5 17.6 17.84-4.1.45 1.96-21.15 4.85 4.72-16.58h.63v-2.2l.6-2.08z" stroke="#000" stroke-width=".05"/><path d="M737.3 208.66l-1.36-1.43h2.86z"/><path d="M737.3 208.7l-1.42-1.5h3zm-1.3-1.45l1.3 1.37 1.44-1.37z" stroke="#000" stroke-width=".05"/><g><use xlink:href="#T" transform="matrix(1,0,0,1,598.1921516952575,241.29537310000214) translate(0 14.4)"/><use xlink:href="#Q" transform="matrix(1,0,0,1,598.1921516952575,241.29537310000214) translate(140.85000000000002 14.4)"/></g><defs><path fill="#fff" d="M160-131c35 5 61 23 61 61C221 17 115-2 30 0v-248c76 3 177-17 177 60 0 33-19 50-47 57zm-97-11c50-1 110 9 110-42 0-47-63-36-110-37v79zm0 115c55-2 124 14 124-45 0-56-70-42-124-44v89" id="U"/><path fill="#fff" d="M100-194c62-1 85 37 85 99 1 63-27 99-86 99S16-35 15-95c0-66 28-99 85-99zM99-20c44 1 53-31 53-75 0-43-8-75-51-75s-53 32-53 75 10 74 51 75" id="V"/><path fill="#fff" d="M114-163C36-179 61-72 57 0H25l-1-190h30c1 12-1 29 2 39 6-27 23-49 58-41v29" id="W"/><path fill="#fff" d="M100-194c63 0 86 42 84 106H49c0 40 14 67 53 68 26 1 43-12 49-29l28 8c-11 28-37 45-77 45C44 4 14-33 15-96c1-61 26-98 85-98zm52 81c6-60-76-77-97-28-3 7-6 17-6 28h103" id="X"/><g id="a"><use transform="matrix(0.05,0,0,0.05,0,0)" xlink:href="#U"/><use transform="matrix(0.05,0,0,0.05,12,0)" xlink:href="#V"/><use transform="matrix(0.05,0,0,0.05,22,0)" xlink:href="#W"/><use transform="matrix(0.05,0,0,0.05,27.950000000000003,0)" xlink:href="#X"/></g><path d="M85-194c31 0 48 13 60 33l-1-100h32l1 261h-30c-2-10 0-23-3-31C134-8 116 4 85 4 32 4 16-35 15-94c0-66 23-100 70-100zm9 24c-40 0-46 34-46 75 0 40 6 74 45 74 42 0 51-32 51-76 0-42-9-74-50-73" id="Y"/><path d="M96-169c-40 0-48 33-48 73s9 75 48 75c24 0 41-14 43-38l32 2c-6 37-31 61-74 61-59 0-76-41-82-99-10-93 101-131 147-64 4 7 5 14 7 22l-32 3c-4-21-16-35-41-35" id="Z"/><path d="M59-47c-2 24 18 29 38 22v24C64 9 27 4 27-40v-127H5v-23h24l9-43h21v43h35v23H59v120" id="aa"/><path d="M33-154v-36h34v36H33zM33 0v-36h34V0H33" id="ab"/><path d="M106-169C34-169 62-67 57 0H25v-261h32l-1 103c12-21 28-36 61-36 89 0 53 116 60 194h-32v-121c2-32-8-49-39-48" id="ac"/><path d="M141-36C126-15 110 5 73 4 37 3 15-17 15-53c-1-64 63-63 125-63 3-35-9-54-41-54-24 1-41 7-42 31l-33-3c5-37 33-52 76-52 45 0 72 20 72 64v82c-1 20 7 32 28 27v20c-31 9-61-2-59-35zM48-53c0 20 12 33 32 33 41-3 63-29 60-74-43 2-92-5-92 41" id="ad"/><path d="M135-143c-3-34-86-38-87 0 15 53 115 12 119 90S17 21 10-45l28-5c4 36 97 45 98 0-10-56-113-15-118-90-4-57 82-63 122-42 12 7 21 19 24 35" id="ae"/><path d="M30-248c87 1 191-15 191 75 0 78-77 80-158 76V0H30v-248zm33 125c57 0 124 11 124-50 0-59-68-47-124-48v98" id="af"/><path d="M114-163C36-179 61-72 57 0H25l-1-190h30c1 12-1 29 2 39 6-27 23-49 58-41v29" id="ag"/><g id="b"><use transform="matrix(0.05,0,0,0.05,0,0)" xlink:href="#Y"/><use transform="matrix(0.05,0,0,0.05,10,0)" xlink:href="#Z"/><use transform="matrix(0.05,0,0,0.05,19,0)" xlink:href="#aa"/><use transform="matrix(0.05,0,0,0.05,24,0)" xlink:href="#ab"/><use transform="matrix(0.05,0,0,0.05,29,0)" xlink:href="#ac"/><use transform="matrix(0.05,0,0,0.05,39,0)" xlink:href="#ad"/><use transform="matrix(0.05,0,0,0.05,49,0)" xlink:href="#ae"/><use transform="matrix(0.05,0,0,0.05,58,0)" xlink:href="#af"/><use transform="matrix(0.05,0,0,0.05,70,0)" xlink:href="#ad"/><use transform="matrix(0.05,0,0,0.05,80,0)" xlink:href="#ag"/><use transform="matrix(0.05,0,0,0.05,85.95,0)" xlink:href="#aa"/></g><path d="M26 75v-336h71v23H56V52h41v23H26" id="ah"/><path d="M27 0v-27h64v-190l-56 39v-29l58-41h29v221h61V0H27" id="ai"/><path d="M33 0v-38h34V0H33" id="aj"/><path d="M190 0L58-211 59 0H30v-248h39L202-35l-2-213h31V0h-41" id="ak"/><path d="M3 75V52h41v-290H3v-23h71V75H3" id="al"/><g id="c"><use transform="matrix(0.05,0,0,0.05,0,0)" xlink:href="#ah"/><use transform="matrix(0.05,0,0,0.05,5,0)" xlink:href="#ai"/><use transform="matrix(0.05,0,0,0.05,15,0)" xlink:href="#aj"/><use transform="matrix(0.05,0,0,0.05,20,0)" xlink:href="#aj"/><use transform="matrix(0.05,0,0,0.05,25,0)" xlink:href="#ak"/><use transform="matrix(0.05,0,0,0.05,37.95,0)" xlink:href="#al"/></g><path fill="#fff" d="M106-169C34-169 62-67 57 0H25v-261h32l-1 103c12-21 28-36 61-36 89 0 53 116 60 194h-32v-121c2-32-8-49-39-48" id="am"/><path fill="#fff" d="M24 0v-261h32V0H24" id="an"/><g id="d"><use transform="matrix(0.05,0,0,0.05,0,0)" xlink:href="#U"/><use transform="matrix(0.05,0,0,0.05,12,0)" xlink:href="#V"/><use transform="matrix(0.05,0,0,0.05,22,0)" xlink:href="#W"/><use transform="matrix(0.05,0,0,0.05,27.950000000000003,0)" xlink:href="#X"/><use transform="matrix(0.05,0,0,0.05,37.95,0)" xlink:href="#am"/><use transform="matrix(0.05,0,0,0.05,47.95,0)" xlink:href="#V"/><use transform="matrix(0.05,0,0,0.05,57.95,0)" xlink:href="#an"/><use transform="matrix(0.05,0,0,0.05,61.900000000000006,0)" xlink:href="#X"/></g><path d="M160-131c35 5 61 23 61 61C221 17 115-2 30 0v-248c76 3 177-17 177 60 0 33-19 50-47 57zm-97-11c50-1 110 9 110-42 0-47-63-36-110-37v79zm0 115c55-2 124 14 124-45 0-56-70-42-124-44v89" id="ao"/><path d="M100-194c62-1 85 37 85 99 1 63-27 99-86 99S16-35 15-95c0-66 28-99 85-99zM99-20c44 1 53-31 53-75 0-43-8-75-51-75s-53 32-53 75 10 74 51 75" id="ap"/><path d="M100-194c63 0 86 42 84 106H49c0 40 14 67 53 68 26 1 43-12 49-29l28 8c-11 28-37 45-77 45C44 4 14-33 15-96c1-61 26-98 85-98zm52 81c6-60-76-77-97-28-3 7-6 17-6 28h103" id="aq"/><path d="M24 0v-261h32V0H24" id="ar"/><g id="e"><use transform="matrix(0.05,0,0,0.05,0,0)" xlink:href="#ao"/><use transform="matrix(0.05,0,0,0.05,12,0)" xlink:href="#ap"/><use transform="matrix(0.05,0,0,0.05,22,0)" xlink:href="#ag"/><use transform="matrix(0.05,0,0,0.05,27.950000000000003,0)" xlink:href="#aq"/><use transform="matrix(0.05,0,0,0.05,37.95,0)" xlink:href="#ac"/><use transform="matrix(0.05,0,0,0.05,47.95,0)" xlink:href="#ap"/><use transform="matrix(0.05,0,0,0.05,57.95,0)" xlink:href="#ar"/><use transform="matrix(0.05,0,0,0.05,61.900000000000006,0)" xlink:href="#aq"/></g><path d="M33 0v-248h34V0H33" id="as"/><path d="M117-194c89-4 53 116 60 194h-32v-121c0-31-8-49-39-48C34-167 62-67 57 0H25l-1-190h30c1 10-1 24 2 32 11-22 29-35 61-36" id="at"/><path d="M24-231v-30h32v30H24zM24 0v-190h32V0H24" id="au"/><g id="f"><use transform="matrix(0.05,0,0,0.05,0,0)" xlink:href="#as"/><use transform="matrix(0.05,0,0,0.05,5,0)" xlink:href="#at"/><use transform="matrix(0.05,0,0,0.05,15,0)" xlink:href="#Z"/><use transform="matrix(0.05,0,0,0.05,24,0)" xlink:href="#ar"/><use transform="matrix(0.05,0,0,0.05,27.950000000000003,0)" xlink:href="#au"/><use transform="matrix(0.05,0,0,0.05,31.899999999999995,0)" xlink:href="#at"/><use transform="matrix(0.05,0,0,0.05,41.9,0)" xlink:href="#ad"/><use transform="matrix(0.05,0,0,0.05,51.900000000000006,0)" xlink:href="#aa"/><use transform="matrix(0.05,0,0,0.05,56.900000000000006,0)" xlink:href="#au"/><use transform="matrix(0.05,0,0,0.05,60.85,0)" xlink:href="#ap"/><use transform="matrix(0.05,0,0,0.05,70.85,0)" xlink:href="#at"/></g><g id="g"><use transform="matrix(0.05,0,0,0.05,0,0)" xlink:href="#ao"/><use transform="matrix(0.05,0,0,0.05,12,0)" xlink:href="#ap"/><use transform="matrix(0.05,0,0,0.05,22,0)" xlink:href="#ag"/><use transform="matrix(0.05,0,0,0.05,27.950000000000003,0)" xlink:href="#aq"/><use transform="matrix(0.05,0,0,0.05,37.95,0)" xlink:href="#ac"/><use transform="matrix(0.05,0,0,0.05,47.95,0)" xlink:href="#ap"/><use transform="matrix(0.05,0,0,0.05,57.95,0)" xlink:href="#ar"/><use transform="matrix(0.05,0,0,0.05,61.900000000000006,0)" xlink:href="#aq"/></g><path d="M185-189c-5-48-123-54-124 2 14 75 158 14 163 119 3 78-121 87-175 55-17-10-28-26-33-46l33-7c5 56 141 63 141-1 0-78-155-14-162-118-5-82 145-84 179-34 5 7 8 16 11 25" id="av"/><path d="M84 4C-5 8 30-112 23-190h32v120c0 31 7 50 39 49 72-2 45-101 50-169h31l1 190h-30c-1-10 1-25-2-33-11 22-28 36-60 37" id="aw"/><path d="M101-234c-31-9-42 10-38 44h38v23H63V0H32v-167H5v-23h27c-7-52 17-82 69-68v24" id="ax"/><g id="h"><use transform="matrix(0.05,0,0,0.05,0,0)" xlink:href="#av"/><use transform="matrix(0.05,0,0,0.05,12,0)" xlink:href="#aw"/><use transform="matrix(0.05,0,0,0.05,22,0)" xlink:href="#ag"/><use transform="matrix(0.05,0,0,0.05,27.950000000000003,0)" xlink:href="#ax"/><use transform="matrix(0.05,0,0,0.05,32.95,0)" xlink:href="#ad"/><use transform="matrix(0.05,0,0,0.05,42.95,0)" xlink:href="#Z"/><use transform="matrix(0.05,0,0,0.05,51.95,0)" xlink:href="#aq"/></g><path d="M212-179c-10-28-35-45-73-45-59 0-87 40-87 99 0 60 29 101 89 101 43 0 62-24 78-52l27 14C228-24 195 4 139 4 59 4 22-46 18-125c-6-104 99-153 187-111 19 9 31 26 39 46" id="ay"/><path d="M210-169c-67 3-38 105-44 169h-31v-121c0-29-5-50-35-48C34-165 62-65 56 0H25l-1-190h30c1 10-1 24 2 32 10-44 99-50 107 0 11-21 27-35 58-36 85-2 47 119 55 194h-31v-121c0-29-5-49-35-48" id="az"/><g id="i"><use transform="matrix(0.05,0,0,0.05,0,0)" xlink:href="#ay"/><use transform="matrix(0.05,0,0,0.05,12.950000000000001,0)" xlink:href="#au"/><use transform="matrix(0.05,0,0,0.05,16.900000000000002,0)" xlink:href="#ag"/><use transform="matrix(0.05,0,0,0.05,22.85,0)" xlink:href="#Z"/><use transform="matrix(0.05,0,0,0.05,31.85,0)" xlink:href="#aw"/><use transform="matrix(0.05,0,0,0.05,41.85,0)" xlink:href="#az"/><use transform="matrix(0.05,0,0,0.05,56.800000000000004,0)" xlink:href="#ae"/><use transform="matrix(0.05,0,0,0.05,65.80000000000001,0)" xlink:href="#aa"/><use transform="matrix(0.05,0,0,0.05,70.80000000000001,0)" xlink:href="#ad"/><use transform="matrix(0.05,0,0,0.05,80.80000000000001,0)" xlink:href="#at"/><use transform="matrix(0.05,0,0,0.05,90.80000000000001,0)" xlink:href="#Z"/><use transform="matrix(0.05,0,0,0.05,99.80000000000001,0)" xlink:href="#aq"/></g><g id="j"><use transform="matrix(0.05,0,0,0.05,0,0)" xlink:href="#av"/><use transform="matrix(0.05,0,0,0.05,12,0)" xlink:href="#aa"/><use transform="matrix(0.05,0,0,0.05,17,0)" xlink:href="#ad"/><use transform="matrix(0.05,0,0,0.05,27,0)" xlink:href="#aa"/><use transform="matrix(0.05,0,0,0.05,32,0)" xlink:href="#aw"/><use transform="matrix(0.05,0,0,0.05,42,0)" xlink:href="#ae"/></g><path d="M115-194c55 1 70 41 70 98S169 2 115 4C84 4 66-9 55-30l1 105H24l-1-265h31l2 30c10-21 28-34 59-34zm-8 174c40 0 45-34 45-75s-6-73-45-74c-42 0-51 32-51 76 0 43 10 73 51 73" id="aA"/><g id="k"><use transform="matrix(0.05,0,0,0.05,0,0)" xlink:href="#af"/><use transform="matrix(0.05,0,0,0.05,12,0)" xlink:href="#aw"/><use transform="matrix(0.05,0,0,0.05,22,0)" xlink:href="#ag"/><use transform="matrix(0.05,0,0,0.05,27.950000000000003,0)" xlink:href="#aA"/><use transform="matrix(0.05,0,0,0.05,37.95,0)" xlink:href="#ap"/><use transform="matrix(0.05,0,0,0.05,47.95,0)" xlink:href="#ae"/><use transform="matrix(0.05,0,0,0.05,56.95,0)" xlink:href="#aq"/></g><path d="M30-248c118-7 216 8 213 122C240-48 200 0 122 0H30v-248zM63-27c89 8 146-16 146-99s-60-101-146-95v194" id="aB"/><path d="M177-190C167-65 218 103 67 71c-23-6-38-20-44-43l32-5c15 47 100 32 89-28v-30C133-14 115 1 83 1 29 1 15-40 15-95c0-56 16-97 71-98 29-1 48 16 59 35 1-10 0-23 2-32h30zM94-22c36 0 50-32 50-73 0-42-14-75-50-75-39 0-46 34-46 75s6 73 46 73" id="aC"/><g id="l"><use transform="matrix(0.05,0,0,0.05,0,0)" xlink:href="#aB"/><use transform="matrix(0.05,0,0,0.05,12.950000000000001,0)" xlink:href="#ag"/><use transform="matrix(0.05,0,0,0.05,18.900000000000002,0)" xlink:href="#au"/><use transform="matrix(0.05,0,0,0.05,22.85,0)" xlink:href="#ar"/><use transform="matrix(0.05,0,0,0.05,26.8,0)" xlink:href="#ar"/><use transform="matrix(0.05,0,0,0.05,30.75,0)" xlink:href="#au"/><use transform="matrix(0.05,0,0,0.05,34.7,0)" xlink:href="#at"/><use transform="matrix(0.05,0,0,0.05,44.7,0)" xlink:href="#aC"/></g><path d="M240 0l2-218c-23 76-54 145-80 218h-23L58-218 59 0H30v-248h44l77 211c21-75 51-140 76-211h43V0h-30" id="aD"/><g id="m"><use transform="matrix(0.05,0,0,0.05,0,0)" xlink:href="#aD"/><use transform="matrix(0.05,0,0,0.05,14.950000000000001,0)" xlink:href="#aq"/><use transform="matrix(0.05,0,0,0.05,24.950000000000003,0)" xlink:href="#aa"/><use transform="matrix(0.05,0,0,0.05,29.950000000000003,0)" xlink:href="#ac"/><use transform="matrix(0.05,0,0,0.05,39.95,0)" xlink:href="#ap"/><use transform="matrix(0.05,0,0,0.05,49.95,0)" xlink:href="#Y"/></g><g id="n"><use transform="matrix(0.05,0,0,0.05,0,0)" xlink:href="#ac"/><use transform="matrix(0.05,0,0,0.05,10,0)" xlink:href="#ad"/><use transform="matrix(0.05,0,0,0.05,20,0)" xlink:href="#ae"/></g><g id="o"><use transform="matrix(0.05,0,0,0.05,0,0)" xlink:href="#aA"/><use transform="matrix(0.05,0,0,0.05,10,0)" xlink:href="#aw"/><use transform="matrix(0.05,0,0,0.05,20,0)" xlink:href="#ag"/><use transform="matrix(0.05,0,0,0.05,25.950000000000003,0)" xlink:href="#aA"/><use transform="matrix(0.05,0,0,0.05,35.95,0)" xlink:href="#ap"/><use transform="matrix(0.05,0,0,0.05,45.95,0)" xlink:href="#ae"/><use transform="matrix(0.05,0,0,0.05,54.95,0)" xlink:href="#aq"/></g><g id="p"><use transform="matrix(0.05,0,0,0.05,0,0)" xlink:href="#au"/><use transform="matrix(0.05,0,0,0.05,3.95,0)" xlink:href="#at"/><use transform="matrix(0.05,0,0,0.05,13.949999999999998,0)" xlink:href="#Z"/><use transform="matrix(0.05,0,0,0.05,22.95,0)" xlink:href="#ar"/><use transform="matrix(0.05,0,0,0.05,26.899999999999995,0)" xlink:href="#au"/><use transform="matrix(0.05,0,0,0.05,30.849999999999994,0)" xlink:href="#at"/><use transform="matrix(0.05,0,0,0.05,40.849999999999994,0)" xlink:href="#ad"/><use transform="matrix(0.05,0,0,0.05,50.849999999999994,0)" xlink:href="#aa"/><use transform="matrix(0.05,0,0,0.05,55.849999999999994,0)" xlink:href="#au"/><use transform="matrix(0.05,0,0,0.05,59.79999999999999,0)" xlink:href="#ap"/><use transform="matrix(0.05,0,0,0.05,69.8,0)" xlink:href="#at"/></g><g id="r"><use transform="matrix(0.05,0,0,0.05,0,0)" xlink:href="#ac"/><use transform="matrix(0.05,0,0,0.05,10,0)" xlink:href="#ad"/><use transform="matrix(0.05,0,0,0.05,20,0)" xlink:href="#ae"/></g><g id="s"><use transform="matrix(0.05,0,0,0.05,0,0)" xlink:href="#ae"/><use transform="matrix(0.05,0,0,0.05,9,0)" xlink:href="#aw"/><use transform="matrix(0.05,0,0,0.05,19,0)" xlink:href="#ag"/><use transform="matrix(0.05,0,0,0.05,24.95,0)" xlink:href="#ax"/><use transform="matrix(0.05,0,0,0.05,29.950000000000003,0)" xlink:href="#ad"/><use transform="matrix(0.05,0,0,0.05,39.95,0)" xlink:href="#Z"/><use transform="matrix(0.05,0,0,0.05,48.95,0)" xlink:href="#aq"/></g><g id="t"><use transform="matrix(0.05,0,0,0.05,0,0)" xlink:href="#Z"/><use transform="matrix(0.05,0,0,0.05,9,0)" xlink:href="#au"/><use transform="matrix(0.05,0,0,0.05,12.949999999999998,0)" xlink:href="#ag"/><use transform="matrix(0.05,0,0,0.05,18.9,0)" xlink:href="#Z"/><use transform="matrix(0.05,0,0,0.05,27.899999999999995,0)" xlink:href="#aw"/><use transform="matrix(0.05,0,0,0.05,37.9,0)" xlink:href="#az"/><use transform="matrix(0.05,0,0,0.05,52.85,0)" xlink:href="#ae"/><use transform="matrix(0.05,0,0,0.05,61.85,0)" xlink:href="#aa"/><use transform="matrix(0.05,0,0,0.05,66.85,0)" xlink:href="#ad"/><use transform="matrix(0.05,0,0,0.05,76.85,0)" xlink:href="#at"/><use transform="matrix(0.05,0,0,0.05,86.85,0)" xlink:href="#Z"/><use transform="matrix(0.05,0,0,0.05,95.85,0)" xlink:href="#aq"/></g><g id="u"><use transform="matrix(0.05,0,0,0.05,0,0)" xlink:href="#ae"/><use transform="matrix(0.05,0,0,0.05,9,0)" xlink:href="#aa"/><use transform="matrix(0.05,0,0,0.05,14,0)" xlink:href="#ad"/><use transform="matrix(0.05,0,0,0.05,24,0)" xlink:href="#aa"/><use transform="matrix(0.05,0,0,0.05,29,0)" xlink:href="#aw"/><use transform="matrix(0.05,0,0,0.05,39,0)" xlink:href="#ae"/></g><g id="v"><use transform="matrix(0.05,0,0,0.05,0,0)" xlink:href="#ac"/><use transform="matrix(0.05,0,0,0.05,10,0)" xlink:href="#ad"/><use transform="matrix(0.05,0,0,0.05,20,0)" xlink:href="#Y"/></g><g id="w"><use transform="matrix(0.05,0,0,0.05,0,0)" xlink:href="#Y"/><use transform="matrix(0.05,0,0,0.05,10,0)" xlink:href="#ag"/><use transform="matrix(0.05,0,0,0.05,15.949999999999998,0)" xlink:href="#au"/><use transform="matrix(0.05,0,0,0.05,19.9,0)" xlink:href="#ar"/><use transform="matrix(0.05,0,0,0.05,23.849999999999998,0)" xlink:href="#ar"/><use transform="matrix(0.05,0,0,0.05,27.799999999999997,0)" xlink:href="#au"/><use transform="matrix(0.05,0,0,0.05,31.749999999999996,0)" xlink:href="#at"/><use transform="matrix(0.05,0,0,0.05,41.75,0)" xlink:href="#aC"/></g><g id="x"><use transform="matrix(0.05,0,0,0.05,0,0)" xlink:href="#az"/><use transform="matrix(0.05,0,0,0.05,14.950000000000001,0)" xlink:href="#aq"/><use transform="matrix(0.05,0,0,0.05,24.950000000000003,0)" xlink:href="#aa"/><use transform="matrix(0.05,0,0,0.05,29.950000000000003,0)" xlink:href="#ac"/><use transform="matrix(0.05,0,0,0.05,39.95,0)" xlink:href="#ap"/><use transform="matrix(0.05,0,0,0.05,49.95,0)" xlink:href="#Y"/></g><path d="M108 0H70L1-190h34L89-25l56-165h34" id="aE"/><g id="y"><use transform="matrix(0.05,0,0,0.05,0,0)" xlink:href="#aA"/><use transform="matrix(0.05,0,0,0.05,10,0)" xlink:href="#ag"/><use transform="matrix(0.05,0,0,0.05,15.949999999999998,0)" xlink:href="#ap"/><use transform="matrix(0.05,0,0,0.05,25.950000000000003,0)" xlink:href="#aE"/><use transform="matrix(0.05,0,0,0.05,34.95,0)" xlink:href="#ab"/></g><path d="M205 0l-28-72H64L36 0H1l101-248h38L239 0h-34zm-38-99l-47-123c-12 45-31 82-46 123h93" id="aF"/><g id="z"><use transform="matrix(0.05,0,0,0.05,0,0)" xlink:href="#aF"/><use transform="matrix(0.05,0,0,0.05,12,0)" xlink:href="#aC"/><use transform="matrix(0.05,0,0,0.05,22,0)" xlink:href="#aq"/><use transform="matrix(0.05,0,0,0.05,32,0)" xlink:href="#at"/><use transform="matrix(0.05,0,0,0.05,42,0)" xlink:href="#aa"/></g><path d="M206 0h-36l-40-164L89 0H53L-1-190h32L70-26l43-164h34l41 164 42-164h31" id="aG"/><path d="M115-194c53 0 69 39 70 98 0 66-23 100-70 100C84 3 66-7 56-30L54 0H23l1-261h32v101c10-23 28-34 59-34zm-8 174c40 0 45-34 45-75 0-40-5-75-45-74-42 0-51 32-51 76 0 43 10 73 51 73" id="aH"/><path d="M127-220V0H93v-220H8v-28h204v28h-85" id="aI"/><g id="A"><use transform="matrix(0.05,0,0,0.05,0,0)" xlink:href="#aA"/><use transform="matrix(0.05,0,0,0.05,10,0)" xlink:href="#ag"/><use transform="matrix(0.05,0,0,0.05,15.949999999999998,0)" xlink:href="#ap"/><use transform="matrix(0.05,0,0,0.05,25.950000000000003,0)" xlink:href="#aE"/><use transform="matrix(0.05,0,0,0.05,34.95,0)" xlink:href="#ab"/><use transform="matrix(0.05,0,0,0.05,39.95,0)" xlink:href="#aG"/><use transform="matrix(0.05,0,0,0.05,52.900000000000006,0)" xlink:href="#ad"/><use transform="matrix(0.05,0,0,0.05,62.900000000000006,0)" xlink:href="#ae"/><use transform="matrix(0.05,0,0,0.05,71.9,0)" xlink:href="#aF"/><use transform="matrix(0.05,0,0,0.05,83.9,0)" xlink:href="#aa"/><use transform="matrix(0.05,0,0,0.05,88.9,0)" xlink:href="#aa"/><use transform="matrix(0.05,0,0,0.05,93.9,0)" xlink:href="#ag"/><use transform="matrix(0.05,0,0,0.05,99.85000000000001,0)" xlink:href="#au"/><use transform="matrix(0.05,0,0,0.05,103.80000000000001,0)" xlink:href="#aH"/><use transform="matrix(0.05,0,0,0.05,113.80000000000001,0)" xlink:href="#aw"/><use transform="matrix(0.05,0,0,0.05,123.80000000000001,0)" xlink:href="#aa"/><use transform="matrix(0.05,0,0,0.05,128.8,0)" xlink:href="#aq"/><use transform="matrix(0.05,0,0,0.05,138.8,0)" xlink:href="#Y"/><use transform="matrix(0.05,0,0,0.05,148.8,0)" xlink:href="#aI"/><use transform="matrix(0.05,0,0,0.05,157.75,0)" xlink:href="#ap"/></g><path d="M101-251c68 0 85 55 85 127S166 4 100 4C33 4 14-52 14-124c0-73 17-127 87-127zm-1 229c47 0 54-49 54-102s-4-102-53-102c-51 0-55 48-55 102 0 53 5 102 54 102" id="aJ"/><g id="B"><use transform="matrix(0.05,0,0,0.05,0,0)" xlink:href="#ah"/><use transform="matrix(0.05,0,0,0.05,5,0)" xlink:href="#aJ"/><use transform="matrix(0.05,0,0,0.05,15,0)" xlink:href="#aj"/><use transform="matrix(0.05,0,0,0.05,20,0)" xlink:href="#aj"/><use transform="matrix(0.05,0,0,0.05,25,0)" xlink:href="#ak"/><use transform="matrix(0.05,0,0,0.05,37.95,0)" xlink:href="#al"/></g><g id="C"><use transform="matrix(0.05,0,0,0.05,0,0)" xlink:href="#ap"/><use transform="matrix(0.05,0,0,0.05,10,0)" xlink:href="#ag"/><use transform="matrix(0.05,0,0,0.05,15.949999999999998,0)" xlink:href="#au"/><use transform="matrix(0.05,0,0,0.05,19.9,0)" xlink:href="#aC"/><use transform="matrix(0.05,0,0,0.05,29.899999999999995,0)" xlink:href="#au"/><use transform="matrix(0.05,0,0,0.05,33.85,0)" xlink:href="#at"/></g><g id="D"><use transform="matrix(0.05,0,0,0.05,0,0)" xlink:href="#aA"/><use transform="matrix(0.05,0,0,0.05,10,0)" xlink:href="#ap"/><use transform="matrix(0.05,0,0,0.05,20,0)" xlink:href="#ae"/><use transform="matrix(0.05,0,0,0.05,29,0)" xlink:href="#au"/><use transform="matrix(0.05,0,0,0.05,32.95,0)" xlink:href="#aa"/><use transform="matrix(0.05,0,0,0.05,37.95,0)" xlink:href="#au"/><use transform="matrix(0.05,0,0,0.05,41.900000000000006,0)" xlink:href="#ap"/><use transform="matrix(0.05,0,0,0.05,51.900000000000006,0)" xlink:href="#at"/></g><g id="E"><use transform="matrix(0.05,0,0,0.05,0,0)" xlink:href="#ah"/><use transform="matrix(0.05,0,0,0.05,5,0)" xlink:href="#ai"/><use transform="matrix(0.05,0,0,0.05,15,0)" xlink:href="#al"/></g><g id="F"><use transform="matrix(0.05,0,0,0.05,0,0)" xlink:href="#aC"/><use transform="matrix(0.05,0,0,0.05,10,0)" xlink:href="#aq"/><use transform="matrix(0.05,0,0,0.05,20,0)" xlink:href="#ap"/><use transform="matrix(0.05,0,0,0.05,30,0)" xlink:href="#ab"/></g><path d="M143 4C61 4 22-44 18-125c-5-107 100-154 193-111 17 8 29 25 37 43l-32 9c-13-25-37-40-76-40-61 0-88 39-88 99 0 61 29 100 91 101 35 0 62-11 79-27v-45h-74v-28h105v86C228-13 192 4 143 4" id="aK"/><path d="M179-190L93 31C79 59 56 82 12 73V49c39 6 53-20 64-50L1-190h34L92-34l54-156h33" id="aL"/><g id="G"><use transform="matrix(0.05,0,0,0.05,0,0)" xlink:href="#aK"/><use transform="matrix(0.05,0,0,0.05,14,0)" xlink:href="#aq"/><use transform="matrix(0.05,0,0,0.05,24,0)" xlink:href="#ap"/><use transform="matrix(0.05,0,0,0.05,34,0)" xlink:href="#az"/><use transform="matrix(0.05,0,0,0.05,48.95,0)" xlink:href="#aq"/><use transform="matrix(0.05,0,0,0.05,58.95,0)" xlink:href="#aa"/><use transform="matrix(0.05,0,0,0.05,63.95,0)" xlink:href="#ag"/><use transform="matrix(0.05,0,0,0.05,69.9,0)" xlink:href="#aL"/></g><g id="H"><use transform="matrix(0.05,0,0,0.05,0,0)" xlink:href="#aC"/><use transform="matrix(0.05,0,0,0.05,10,0)" xlink:href="#aq"/><use transform="matrix(0.05,0,0,0.05,20,0)" xlink:href="#ap"/><use transform="matrix(0.05,0,0,0.05,30,0)" xlink:href="#ab"/></g><g id="I"><use transform="matrix(0.05,0,0,0.05,0,0)" xlink:href="#ac"/><use transform="matrix(0.05,0,0,0.05,10,0)" xlink:href="#ad"/><use transform="matrix(0.05,0,0,0.05,20,0)" xlink:href="#ae"/><use transform="matrix(0.05,0,0,0.05,29,0)" xlink:href="#aK"/><use transform="matrix(0.05,0,0,0.05,43,0)" xlink:href="#aq"/><use transform="matrix(0.05,0,0,0.05,53,0)" xlink:href="#ap"/><use transform="matrix(0.05,0,0,0.05,63,0)" xlink:href="#az"/><use transform="matrix(0.05,0,0,0.05,77.95,0)" xlink:href="#aq"/><use transform="matrix(0.05,0,0,0.05,87.95,0)" xlink:href="#aa"/><use transform="matrix(0.05,0,0,0.05,92.95,0)" xlink:href="#ag"/><use transform="matrix(0.05,0,0,0.05,98.9,0)" xlink:href="#aL"/></g><g id="J"><use transform="matrix(0.05,0,0,0.05,0,0)" xlink:href="#aA"/><use transform="matrix(0.05,0,0,0.05,10,0)" xlink:href="#ag"/><use transform="matrix(0.05,0,0,0.05,15.949999999999998,0)" xlink:href="#ap"/><use transform="matrix(0.05,0,0,0.05,25.950000000000003,0)" xlink:href="#aE"/><use transform="matrix(0.05,0,0,0.05,34.95,0)" xlink:href="#ab"/><use transform="matrix(0.05,0,0,0.05,39.95,0)" xlink:href="#ad"/><use transform="matrix(0.05,0,0,0.05,49.95,0)" xlink:href="#aC"/><use transform="matrix(0.05,0,0,0.05,59.95,0)" xlink:href="#aq"/><use transform="matrix(0.05,0,0,0.05,69.95,0)" xlink:href="#at"/><use transform="matrix(0.05,0,0,0.05,79.95,0)" xlink:href="#aa"/></g><g id="K"><use transform="matrix(0.05,0,0,0.05,0,0)" xlink:href="#ah"/><use transform="matrix(0.05,0,0,0.05,5,0)" xlink:href="#ai"/><use transform="matrix(0.05,0,0,0.05,15,0)" xlink:href="#al"/></g><path d="M233-177c-1 41-23 64-60 70L243 0h-38l-65-103H63V0H30v-248c88 3 205-21 203 71zM63-129c60-2 137 13 137-47 0-61-80-42-137-45v92" id="aM"/><g id="L"><use transform="matrix(0.05,0,0,0.05,0,0)" xlink:href="#aM"/><use transform="matrix(0.05,0,0,0.05,12.950000000000001,0)" xlink:href="#ap"/><use transform="matrix(0.05,0,0,0.05,22.950000000000003,0)" xlink:href="#ar"/><use transform="matrix(0.05,0,0,0.05,26.900000000000002,0)" xlink:href="#aq"/></g><g id="M"><use transform="matrix(0.05,0,0,0.05,0,0)" xlink:href="#Y"/><use transform="matrix(0.05,0,0,0.05,10,0)" xlink:href="#Z"/><use transform="matrix(0.05,0,0,0.05,19,0)" xlink:href="#ad"/><use transform="matrix(0.05,0,0,0.05,29,0)" xlink:href="#aa"/><use transform="matrix(0.05,0,0,0.05,34,0)" xlink:href="#ab"/><use transform="matrix(0.05,0,0,0.05,39,0)" xlink:href="#ac"/><use transform="matrix(0.05,0,0,0.05,49,0)" xlink:href="#ad"/><use transform="matrix(0.05,0,0,0.05,59,0)" xlink:href="#Y"/><use transform="matrix(0.05,0,0,0.05,69,0)" xlink:href="#aM"/><use transform="matrix(0.05,0,0,0.05,81.95,0)" xlink:href="#ap"/><use transform="matrix(0.05,0,0,0.05,91.95,0)" xlink:href="#ar"/><use transform="matrix(0.05,0,0,0.05,95.9,0)" xlink:href="#aq"/></g><g id="N"><use transform="matrix(0.05,0,0,0.05,0,0)" xlink:href="#U"/><use transform="matrix(0.05,0,0,0.05,12,0)" xlink:href="#V"/><use transform="matrix(0.05,0,0,0.05,22,0)" xlink:href="#W"/><use transform="matrix(0.05,0,0,0.05,27.950000000000003,0)" xlink:href="#X"/><use transform="matrix(0.05,0,0,0.05,37.95,0)" xlink:href="#am"/><use transform="matrix(0.05,0,0,0.05,47.95,0)" xlink:href="#V"/><use transform="matrix(0.05,0,0,0.05,57.95,0)" xlink:href="#an"/><use transform="matrix(0.05,0,0,0.05,61.900000000000006,0)" xlink:href="#X"/></g><path fill="#fff" d="M33 0v-248h34V0H33" id="aN"/><path fill="#fff" d="M117-194c89-4 53 116 60 194h-32v-121c0-31-8-49-39-48C34-167 62-67 57 0H25l-1-190h30c1 10-1 24 2 32 11-22 29-35 61-36" id="aO"/><path fill="#fff" d="M59-47c-2 24 18 29 38 22v24C64 9 27 4 27-40v-127H5v-23h24l9-43h21v43h35v23H59v120" id="aP"/><path fill="#fff" d="M108 0H70L1-190h34L89-25l56-165h34" id="aQ"/><path fill="#fff" d="M141-36C126-15 110 5 73 4 37 3 15-17 15-53c-1-64 63-63 125-63 3-35-9-54-41-54-24 1-41 7-42 31l-33-3c5-37 33-52 76-52 45 0 72 20 72 64v82c-1 20 7 32 28 27v20c-31 9-61-2-59-35zM48-53c0 20 12 33 32 33 41-3 63-29 60-74-43 2-92-5-92 41" id="aR"/><g id="O"><use transform="matrix(0.05,0,0,0.05,0,0)" xlink:href="#aN"/><use transform="matrix(0.05,0,0,0.05,5,0)" xlink:href="#aO"/><use transform="matrix(0.05,0,0,0.05,15,0)" xlink:href="#aP"/><use transform="matrix(0.05,0,0,0.05,20,0)" xlink:href="#X"/><use transform="matrix(0.05,0,0,0.05,30,0)" xlink:href="#W"/><use transform="matrix(0.05,0,0,0.05,35.95,0)" xlink:href="#aQ"/><use transform="matrix(0.05,0,0,0.05,44.95,0)" xlink:href="#aR"/><use transform="matrix(0.05,0,0,0.05,54.95,0)" xlink:href="#an"/></g><path d="M30 0v-248h187v28H63v79h144v27H63v87h162V0H30" id="aS"/><g id="P"><use transform="matrix(0.05,0,0,0.05,0,0)" xlink:href="#ar"/><use transform="matrix(0.05,0,0,0.05,3.95,0)" xlink:href="#ap"/><use transform="matrix(0.05,0,0,0.05,13.949999999999998,0)" xlink:href="#aC"/><use transform="matrix(0.05,0,0,0.05,23.95,0)" xlink:href="#aS"/><use transform="matrix(0.05,0,0,0.05,35.95,0)" xlink:href="#ar"/><use transform="matrix(0.05,0,0,0.05,39.900000000000006,0)" xlink:href="#aq"/><use transform="matrix(0.05,0,0,0.05,49.900000000000006,0)" xlink:href="#az"/><use transform="matrix(0.05,0,0,0.05,64.85000000000001,0)" xlink:href="#aq"/><use transform="matrix(0.05,0,0,0.05,74.85000000000001,0)" xlink:href="#at"/><use transform="matrix(0.05,0,0,0.05,84.85000000000001,0)" xlink:href="#aa"/></g><g id="Q"><use transform="matrix(0.05,0,0,0.05,0,0)" xlink:href="#ah"/><use transform="matrix(0.05,0,0,0.05,5,0)" xlink:href="#aJ"/><use transform="matrix(0.05,0,0,0.05,15,0)" xlink:href="#aj"/><use transform="matrix(0.05,0,0,0.05,20,0)" xlink:href="#aj"/><use transform="matrix(0.05,0,0,0.05,25,0)" xlink:href="#ak"/><use transform="matrix(0.05,0,0,0.05,37.95,0)" xlink:href="#al"/></g><g id="R"><use transform="matrix(0.05,0,0,0.05,0,0)" xlink:href="#ae"/><use transform="matrix(0.05,0,0,0.05,9,0)" xlink:href="#ap"/><use transform="matrix(0.05,0,0,0.05,19,0)" xlink:href="#ae"/><use transform="matrix(0.05,0,0,0.05,28,0)" xlink:href="#ad"/><use transform="matrix(0.05,0,0,0.05,38,0)" xlink:href="#ab"/></g><g id="S"><use transform="matrix(0.05,0,0,0.05,0,0)" xlink:href="#av"/><use transform="matrix(0.05,0,0,0.05,12,0)" xlink:href="#ad"/><use transform="matrix(0.05,0,0,0.05,22,0)" xlink:href="#az"/><use transform="matrix(0.05,0,0,0.05,36.95,0)" xlink:href="#aA"/><use transform="matrix(0.05,0,0,0.05,46.95,0)" xlink:href="#ar"/><use transform="matrix(0.05,0,0,0.05,50.900000000000006,0)" xlink:href="#aq"/></g><path d="M140-251c81 0 123 46 123 126C263-46 219 4 140 4 59 4 17-45 17-125s42-126 123-126zm0 227c63 0 89-41 89-101s-29-99-89-99c-61 0-89 39-89 99S79-25 140-24" id="aT"/><g id="T"><use transform="matrix(0.05,0,0,0.05,0,0)" xlink:href="#ae"/><use transform="matrix(0.05,0,0,0.05,9,0)" xlink:href="#ap"/><use transform="matrix(0.05,0,0,0.05,19,0)" xlink:href="#ae"/><use transform="matrix(0.05,0,0,0.05,28,0)" xlink:href="#ad"/><use transform="matrix(0.05,0,0,0.05,38,0)" xlink:href="#ab"/><use transform="matrix(0.05,0,0,0.05,43,0)" xlink:href="#au"/><use transform="matrix(0.05,0,0,0.05,46.95,0)" xlink:href="#ae"/><use transform="matrix(0.05,0,0,0.05,55.95,0)" xlink:href="#av"/><use transform="matrix(0.05,0,0,0.05,67.95,0)" xlink:href="#ad"/><use transform="matrix(0.05,0,0,0.05,77.95,0)" xlink:href="#az"/><use transform="matrix(0.05,0,0,0.05,92.9,0)" xlink:href="#aA"/><use transform="matrix(0.05,0,0,0.05,102.9,0)" xlink:href="#ar"/><use transform="matrix(0.05,0,0,0.05,106.85000000000001,0)" xlink:href="#aq"/><use transform="matrix(0.05,0,0,0.05,116.85000000000001,0)" xlink:href="#aT"/><use transform="matrix(0.05,0,0,0.05,130.85000000000002,0)" xlink:href="#ax"/></g></defs></g></svg>