<svg xmlns="http://www.w3.org/2000/svg" xmlns:xlink="http://www.w3.org/1999/xlink" xmlns:lucid="lucid" width="1160" height="354"><g transform="translate(-245.33333333333314 -461.66666666666663)" lucid:page-tab-id="zB3XymGHz-Ii"><path d="M0 0h1500v1000H0z" fill="#fff"/><path d="M737.33 486.67a5 5 0 0 1 5-5h150a5 5 0 0 1 5 5v110a5 5 0 0 1-5 5h-150a5 5 0 0 1-5-5z" stroke="#000" stroke-width="2" fill="#f2f2ff"/><use xlink:href="#a" transform="matrix(1,0,0,1,749.333333333333,493.66666666666663) translate(58 30)"/><use xlink:href="#b" transform="matrix(1,0,0,1,749.333333333333,493.66666666666663) translate(-0.375 51.6)"/><use xlink:href="#c" transform="matrix(1,0,0,1,749.333333333333,493.66666666666663) translate(47.525 73.2)"/><path d="M265.33 680.67a5 5 0 0 1 5-5h150a5 5 0 0 1 5 5v110a5 5 0 0 1-5 5h-150a5 5 0 0 1-5-5z" stroke="#000" stroke-width="2" fill="#f2f2ff"/><use xlink:href="#a" transform="matrix(1,0,0,1,277.33333333333314,687.6666666666666) translate(58 41.4)"/><use xlink:href="#d" transform="matrix(1,0,0,1,277.33333333333314,687.6666666666666) translate(52 63)"/><path d="M457.33 680.67a5 5 0 0 1 5-5h150a5 5 0 0 1 5 5v110a5 5 0 0 1-5 5h-150a5 5 0 0 1-5-5z" stroke="#000" stroke-width="2" fill="#f2f2ff"/><use xlink:href="#a" transform="matrix(1,0,0,1,469.33333333333303,687.6666666666666) translate(58 41.4)"/><use xlink:href="#e" transform="matrix(1,0,0,1,469.33333333333303,687.6666666666666) translate(47.5 63)"/><path d="M649.33 680.67a5 5 0 0 1 5-5h150a5 5 0 0 1 5 5v110a5 5 0 0 1-5 5h-150a5 5 0 0 1-5-5z" stroke="#000" stroke-width="2" fill="#f2f2ff"/><use xlink:href="#a" transform="matrix(1,0,0,1,661.333333333333,687.6666666666666) translate(58 41.4)"/><use xlink:href="#f" transform="matrix(1,0,0,1,661.333333333333,687.6666666666666) translate(49.075 63)"/><path d="M841.33 680.67a5 5 0 0 1 5-5h150a5 5 0 0 1 5 5v110a5 5 0 0 1-5 5h-150a5 5 0 0 1-5-5z" stroke="#000" stroke-width="2" fill="#f2f2ff"/><use xlink:href="#a" transform="matrix(1,0,0,1,853.3333333333333,687.6666666666666) translate(58 41.4)"/><use xlink:href="#g" transform="matrix(1,0,0,1,853.3333333333333,687.6666666666666) translate(27.599999999999994 63)"/><path d="M1033.33 680.67a5 5 0 0 1 5-5h150a5 5 0 0 1 5 5v110a5 5 0 0 1-5 5h-150a5 5 0 0 1-5-5z" stroke="#000" stroke-width="2" fill="#f2f2ff"/><use xlink:href="#a" transform="matrix(1,0,0,1,1045.3333333333335,687.6666666666666) translate(58 41.4)"/><use xlink:href="#h" transform="matrix(1,0,0,1,1045.3333333333335,687.6666666666666) translate(43.025 63)"/><path d="M1225.33 680.67a5 5 0 0 1 5-5h150a5 5 0 0 1 5 5v110a5 5 0 0 1-5 5h-150a5 5 0 0 1-5-5z" stroke="#000" stroke-width="2" fill="#f2f2ff"/><use xlink:href="#a" transform="matrix(1,0,0,1,1237.3333333333337,687.6666666666666) translate(58 41.4)"/><use xlink:href="#i" transform="matrix(1,0,0,1,1237.3333333333337,687.6666666666666) translate(35.074999999999996 63)"/><path d="M345.33 674.17v-29.5a6 6 0 0 1 6-6h460a6 6 0 0 0 6-6v-13.62" stroke="#3a414a" fill="none"/><path d="M345.83 674.67h-1v-.52h1z" stroke="#3a414a" stroke-width=".05" fill="#3a414a"/><path d="M817.33 604.3l4.64 14.25h-9.27z" stroke="#3a414a" fill="#fff"/><path d="M537.33 674.17v-29.5a6 6 0 0 1 6-6h268a6 6 0 0 0 6-6v-13.62" stroke="#3a414a" fill="none"/><path d="M537.83 674.67h-1v-.52h1z" stroke="#3a414a" stroke-width=".05" fill="#3a414a"/><path d="M817.33 604.3l4.64 14.25h-9.27z" stroke="#3a414a" fill="#fff"/><path d="M729.33 674.17v-29.5a6 6 0 0 1 6-6h76a6 6 0 0 0 6-6v-13.62" stroke="#3a414a" fill="none"/><path d="M729.83 674.67h-1v-.52h1z" stroke="#3a414a" stroke-width=".05" fill="#3a414a"/><path d="M817.33 604.3l4.64 14.25h-9.27z" stroke="#3a414a" fill="#fff"/><path d="M921.33 674.17v-29.5a6 6 0 0 0-6-6h-92a6 6 0 0 1-6-6v-13.62" stroke="#3a414a" fill="none"/><path d="M921.83 674.67h-1v-.52h1z" stroke="#3a414a" stroke-width=".05" fill="#3a414a"/><path d="M817.33 604.3l4.64 14.25h-9.27z" stroke="#3a414a" fill="#fff"/><path d="M1113.33 674.17v-29.5a6 6 0 0 0-6-6h-284a6 6 0 0 1-6-6v-13.62" stroke="#3a414a" fill="none"/><path d="M1113.83 674.67h-1v-.52h1z" stroke="#3a414a" stroke-width=".05" fill="#3a414a"/><path d="M817.33 604.3l4.64 14.25h-9.27z" stroke="#3a414a" fill="#fff"/><path d="M1305.33 674.17v-29.5a6 6 0 0 0-6-6h-476a6 6 0 0 1-6-6v-13.62" stroke="#3a414a" fill="none"/><path d="M1305.83 674.67h-1v-.52h1z" stroke="#3a414a" stroke-width=".05" fill="#3a414a"/><path d="M817.33 604.3l4.64 14.25h-9.27z" stroke="#3a414a" fill="#fff"/><defs><path d="M177-190C167-65 218 103 67 71c-23-6-38-20-44-43l32-5c15 47 100 32 89-28v-30C133-14 115 1 83 1 29 1 15-40 15-95c0-56 16-97 71-98 29-1 48 16 59 35 1-10 0-23 2-32h30zM94-22c36 0 50-32 50-73 0-42-14-75-50-75-39 0-46 34-46 75s6 73 46 73" id="j"/><path d="M101-234c-31-9-42 10-38 44h38v23H63V0H32v-167H5v-23h27c-7-52 17-82 69-68v24" id="k"/><path d="M33-154v-36h34v36H33zM33 0v-36h34V0H33" id="l"/><g id="a"><use transform="matrix(0.05,0,0,0.05,0,0)" xlink:href="#j"/><use transform="matrix(0.05,0,0,0.05,10,0)" xlink:href="#k"/><use transform="matrix(0.05,0,0,0.05,15,0)" xlink:href="#l"/></g><path d="M30 0v-248h33v221h125V0H30" id="m"/><path d="M24-231v-30h32v30H24zM24 0v-190h32V0H24" id="n"/><path d="M59-47c-2 24 18 29 38 22v24C64 9 27 4 27-40v-127H5v-23h24l9-43h21v43h35v23H59v120" id="o"/><path d="M106-169C34-169 62-67 57 0H25v-261h32l-1 103c12-21 28-36 61-36 89 0 53 116 60 194h-32v-121c2-32-8-49-39-48" id="p"/><path d="M100-194c62-1 85 37 85 99 1 63-27 99-86 99S16-35 15-95c0-66 28-99 85-99zM99-20c44 1 53-31 53-75 0-43-8-75-51-75s-53 32-53 75 10 74 51 75" id="q"/><path d="M135-143c-3-34-86-38-87 0 15 53 115 12 119 90S17 21 10-45l28-5c4 36 97 45 98 0-10-56-113-15-118-90-4-57 82-63 122-42 12 7 21 19 24 35" id="r"/><path d="M114-163C36-179 61-72 57 0H25l-1-190h30c1 12-1 29 2 39 6-27 23-49 58-41v29" id="s"/><path d="M141-36C126-15 110 5 73 4 37 3 15-17 15-53c-1-64 63-63 125-63 3-35-9-54-41-54-24 1-41 7-42 31l-33-3c5-37 33-52 76-52 45 0 72 20 72 64v82c-1 20 7 32 28 27v20c-31 9-61-2-59-35zM48-53c0 20 12 33 32 33 41-3 63-29 60-74-43 2-92-5-92 41" id="t"/><path d="M115-194c55 1 70 41 70 98S169 2 115 4C84 4 66-9 55-30l1 105H24l-1-265h31l2 30c10-21 28-34 59-34zm-8 174c40 0 45-34 45-75s-6-73-45-74c-42 0-51 32-51 76 0 43 10 73 51 73" id="u"/><path d="M96-169c-40 0-48 33-48 73s9 75 48 75c24 0 41-14 43-38l32 2c-6 37-31 61-74 61-59 0-76-41-82-99-10-93 101-131 147-64 4 7 5 14 7 22l-32 3c-4-21-16-35-41-35" id="v"/><g id="b"><use transform="matrix(0.05,0,0,0.05,0,0)" xlink:href="#m"/><use transform="matrix(0.05,0,0,0.05,10,0)" xlink:href="#n"/><use transform="matrix(0.05,0,0,0.05,13.949999999999998,0)" xlink:href="#o"/><use transform="matrix(0.05,0,0,0.05,18.95,0)" xlink:href="#p"/><use transform="matrix(0.05,0,0,0.05,28.950000000000003,0)" xlink:href="#q"/><use transform="matrix(0.05,0,0,0.05,38.95,0)" xlink:href="#r"/><use transform="matrix(0.05,0,0,0.05,47.95,0)" xlink:href="#o"/><use transform="matrix(0.05,0,0,0.05,52.95,0)" xlink:href="#s"/><use transform="matrix(0.05,0,0,0.05,58.900000000000006,0)" xlink:href="#t"/><use transform="matrix(0.05,0,0,0.05,68.9,0)" xlink:href="#o"/><use transform="matrix(0.05,0,0,0.05,73.9,0)" xlink:href="#n"/><use transform="matrix(0.05,0,0,0.05,77.85000000000001,0)" xlink:href="#j"/><use transform="matrix(0.05,0,0,0.05,87.85000000000001,0)" xlink:href="#s"/><use transform="matrix(0.05,0,0,0.05,93.80000000000001,0)" xlink:href="#t"/><use transform="matrix(0.05,0,0,0.05,103.80000000000001,0)" xlink:href="#u"/><use transform="matrix(0.05,0,0,0.05,113.80000000000001,0)" xlink:href="#p"/><use transform="matrix(0.05,0,0,0.05,123.80000000000001,0)" xlink:href="#n"/><use transform="matrix(0.05,0,0,0.05,127.75,0)" xlink:href="#v"/></g><path d="M209 0H11v-25l151-195H24v-28h176v25L50-27h159V0" id="w"/><path d="M117-194c89-4 53 116 60 194h-32v-121c0-31-8-49-39-48C34-167 62-67 57 0H25l-1-190h30c1 10-1 24 2 32 11-22 29-35 61-36" id="x"/><path d="M100-194c63 0 86 42 84 106H49c0 40 14 67 53 68 26 1 43-12 49-29l28 8c-11 28-37 45-77 45C44 4 14-33 15-96c1-61 26-98 85-98zm52 81c6-60-76-77-97-28-3 7-6 17-6 28h103" id="y"/><g id="c"><use transform="matrix(0.05,0,0,0.05,0,0)" xlink:href="#w"/><use transform="matrix(0.05,0,0,0.05,10.950000000000001,0)" xlink:href="#q"/><use transform="matrix(0.05,0,0,0.05,20.950000000000003,0)" xlink:href="#x"/><use transform="matrix(0.05,0,0,0.05,30.950000000000003,0)" xlink:href="#y"/></g><path d="M160-131c35 5 61 23 61 61C221 17 115-2 30 0v-248c76 3 177-17 177 60 0 33-19 50-47 57zm-97-11c50-1 110 9 110-42 0-47-63-36-110-37v79zm0 115c55-2 124 14 124-45 0-56-70-42-124-44v89" id="z"/><path d="M85-194c31 0 48 13 60 33l-1-100h32l1 261h-30c-2-10 0-23-3-31C134-8 116 4 85 4 32 4 16-35 15-94c0-66 23-100 70-100zm9 24c-40 0-46 34-46 75 0 40 6 74 45 74 42 0 51-32 51-76 0-42-9-74-50-73" id="A"/><g id="d"><use transform="matrix(0.05,0,0,0.05,0,0)" xlink:href="#z"/><use transform="matrix(0.05,0,0,0.05,12,0)" xlink:href="#y"/><use transform="matrix(0.05,0,0,0.05,22,0)" xlink:href="#A"/></g><g id="e"><use transform="matrix(0.05,0,0,0.05,0,0)" xlink:href="#z"/><use transform="matrix(0.05,0,0,0.05,12,0)" xlink:href="#y"/><use transform="matrix(0.05,0,0,0.05,22,0)" xlink:href="#A"/><use transform="matrix(0.05,0,0,0.05,32,0)" xlink:href="#r"/></g><path d="M63-220v92h138v28H63V0H30v-248h175v28H63" id="B"/><path d="M24 0v-261h32V0H24" id="C"/><path d="M206 0h-36l-40-164L89 0H53L-1-190h32L70-26l43-164h34l41 164 42-164h31" id="D"/><g id="f"><use transform="matrix(0.05,0,0,0.05,0,0)" xlink:href="#B"/><use transform="matrix(0.05,0,0,0.05,10.950000000000001,0)" xlink:href="#C"/><use transform="matrix(0.05,0,0,0.05,14.9,0)" xlink:href="#q"/><use transform="matrix(0.05,0,0,0.05,24.900000000000002,0)" xlink:href="#D"/></g><path d="M210-169c-67 3-38 105-44 169h-31v-121c0-29-5-50-35-48C34-165 62-65 56 0H25l-1-190h30c1 10-1 24 2 32 10-44 99-50 107 0 11-21 27-35 58-36 85-2 47 119 55 194h-31v-121c0-29-5-49-35-48" id="E"/><g id="g"><use transform="matrix(0.05,0,0,0.05,0,0)" xlink:href="#B"/><use transform="matrix(0.05,0,0,0.05,10.950000000000001,0)" xlink:href="#q"/><use transform="matrix(0.05,0,0,0.05,20.950000000000003,0)" xlink:href="#s"/><use transform="matrix(0.05,0,0,0.05,26.900000000000002,0)" xlink:href="#E"/><use transform="matrix(0.05,0,0,0.05,41.85,0)" xlink:href="#t"/><use transform="matrix(0.05,0,0,0.05,51.85,0)" xlink:href="#o"/><use transform="matrix(0.05,0,0,0.05,56.85,0)" xlink:href="#n"/><use transform="matrix(0.05,0,0,0.05,60.800000000000004,0)" xlink:href="#q"/><use transform="matrix(0.05,0,0,0.05,70.80000000000001,0)" xlink:href="#x"/></g><path d="M143 4C61 4 22-44 18-125c-5-107 100-154 193-111 17 8 29 25 37 43l-32 9c-13-25-37-40-76-40-61 0-88 39-88 99 0 61 29 100 91 101 35 0 62-11 79-27v-45h-74v-28h105v86C228-13 192 4 143 4" id="F"/><path d="M84 4C-5 8 30-112 23-190h32v120c0 31 7 50 39 49 72-2 45-101 50-169h31l1 190h-30c-1-10 1-25-2-33-11 22-28 36-60 37" id="G"/><g id="h"><use transform="matrix(0.05,0,0,0.05,0,0)" xlink:href="#F"/><use transform="matrix(0.05,0,0,0.05,14,0)" xlink:href="#s"/><use transform="matrix(0.05,0,0,0.05,19.95,0)" xlink:href="#q"/><use transform="matrix(0.05,0,0,0.05,29.950000000000003,0)" xlink:href="#G"/><use transform="matrix(0.05,0,0,0.05,39.95,0)" xlink:href="#u"/></g><path d="M240 0l2-218c-23 76-54 145-80 218h-23L58-218 59 0H30v-248h44l77 211c21-75 51-140 76-211h43V0h-30" id="H"/><path d="M115-194c53 0 69 39 70 98 0 66-23 100-70 100C84 3 66-7 56-30L54 0H23l1-261h32v101c10-23 28-34 59-34zm-8 174c40 0 45-34 45-75 0-40-5-75-45-74-42 0-51 32-51 76 0 43 10 73 51 73" id="I"/><g id="i"><use transform="matrix(0.05,0,0,0.05,0,0)" xlink:href="#H"/><use transform="matrix(0.05,0,0,0.05,14.950000000000001,0)" xlink:href="#y"/><use transform="matrix(0.05,0,0,0.05,24.950000000000003,0)" xlink:href="#E"/><use transform="matrix(0.05,0,0,0.05,39.900000000000006,0)" xlink:href="#I"/><use transform="matrix(0.05,0,0,0.05,49.900000000000006,0)" xlink:href="#y"/><use transform="matrix(0.05,0,0,0.05,59.900000000000006,0)" xlink:href="#s"/></g></defs></g></svg>