<svg xmlns="http://www.w3.org/2000/svg" xmlns:xlink="http://www.w3.org/1999/xlink" xmlns:lucid="lucid" width="1753.33" height="742"><g transform="translate(-269.33333333333326 -170)" lucid:page-tab-id="pp3XBRzxAric"><path d="M0 0h2500v1000H0z" fill="#fff"/><path d="M865.33 195a5 5 0 0 1 5-5h150a5 5 0 0 1 5 5v110a5 5 0 0 1-5 5h-150a5 5 0 0 1-5-5z" stroke="#000" stroke-width="2" fill="#fff"/><use xlink:href="#a" transform="matrix(1,0,0,1,877.3333333333334,202) translate(44.525 29.4)"/><use xlink:href="#b" transform="matrix(1,0,0,1,877.3333333333334,202) translate(25.574999999999996 51)"/><use xlink:href="#c" transform="matrix(1,0,0,1,877.3333333333334,202) translate(37.05 72.60000000000001)"/><path d="M673.33 389a5 5 0 0 1 5-5h150a5 5 0 0 1 5 5v110a5 5 0 0 1-5 5h-150a5 5 0 0 1-5-5z" stroke="#000" stroke-width="2" fill="#f2f2ff"/><use xlink:href="#d" transform="matrix(1,0,0,1,685.3333333333333,396) translate(58 29.4)"/><use xlink:href="#e" transform="matrix(1,0,0,1,685.3333333333333,396) translate(17.599999999999994 51)"/><use xlink:href="#c" transform="matrix(1,0,0,1,685.3333333333333,396) translate(37.05 72.60000000000001)"/><path d="M865.33 389a5 5 0 0 1 5-5h150a5 5 0 0 1 5 5v110a5 5 0 0 1-5 5h-150a5 5 0 0 1-5-5z" stroke="#000" stroke-width="2" fill="#fff0f0"/><use xlink:href="#d" transform="matrix(1,0,0,1,877.3333333333334,396) translate(58 29.4)"/><use xlink:href="#f" transform="matrix(1,0,0,1,877.3333333333334,396) translate(29.574999999999996 51)"/><use xlink:href="#c" transform="matrix(1,0,0,1,877.3333333333334,396) translate(37.05 72.60000000000001)"/><path d="M1057.33 389a5 5 0 0 1 5-5h150a5 5 0 0 1 5 5v110a5 5 0 0 1-5 5h-150a5 5 0 0 1-5-5z" stroke="#000" stroke-width="2" fill="#e3fae3"/><use xlink:href="#d" transform="matrix(1,0,0,1,1069.3333333333335,396) translate(58 29.4)"/><use xlink:href="#g" transform="matrix(1,0,0,1,1069.3333333333335,396) translate(35.05 51)"/><use xlink:href="#c" transform="matrix(1,0,0,1,1069.3333333333335,396) translate(37.05 72.60000000000001)"/><path d="M753.33 382.5V353a6 6 0 0 1 6-6h180a6 6 0 0 0 6-6v-13.62" stroke="#3a414a" fill="none"/><path d="M753.83 383h-1v-.5h1z" stroke="#3a414a" stroke-width=".05" fill="#3a414a"/><path d="M945.33 312.62l4.64 14.26h-9.27z" stroke="#3a414a" fill="#fff"/><path d="M945.33 382.5v-55.12" stroke="#3a414a" fill="none"/><path d="M945.83 383h-1v-.5h1z" stroke="#3a414a" stroke-width=".05" fill="#3a414a"/><path d="M945.33 312.62l4.64 14.26h-9.27z" stroke="#3a414a" fill="#fff"/><path d="M1137.33 382.5V353a6 6 0 0 0-6-6h-180a6 6 0 0 1-6-6v-13.62" stroke="#3a414a" fill="none"/><path d="M1137.83 383h-1v-.5h1z" stroke="#3a414a" stroke-width=".05" fill="#3a414a"/><path d="M945.33 312.62l4.64 14.26h-9.27z" stroke="#3a414a" fill="#fff"/><path d="M289.33 583a5 5 0 0 1 5-5h150a5 5 0 0 1 5 5v110a5 5 0 0 1-5 5h-150a5 5 0 0 1-5-5z" stroke="#000" stroke-width="2" fill="#f2f2ff"/><use xlink:href="#d" transform="matrix(1,0,0,1,301.33333333333326,590) translate(58 29.4)"/><use xlink:href="#h" transform="matrix(1,0,0,1,301.33333333333326,590) translate(6.124999999999993 51)"/><use xlink:href="#i" transform="matrix(1,0,0,1,301.33333333333326,590) translate(47.525 72.60000000000001)"/><path d="M481.33 583a5 5 0 0 1 5-5h150a5 5 0 0 1 5 5v110a5 5 0 0 1-5 5h-150a5 5 0 0 1-5-5z" stroke="#000" stroke-width="2" fill="#f2f2ff"/><use xlink:href="#d" transform="matrix(1,0,0,1,493.33333333333326,590) translate(58 30)"/><use xlink:href="#j" transform="matrix(1,0,0,1,493.33333333333326,590) translate(-0.375 51.6)"/><use xlink:href="#c" transform="matrix(1,0,0,1,493.33333333333326,590) translate(37.05 73.2)"/><path d="M673.33 583a5 5 0 0 1 5-5h150a5 5 0 0 1 5 5v110a5 5 0 0 1-5 5h-150a5 5 0 0 1-5-5z" stroke="#000" stroke-width="2" fill="#f2f2ff"/><use xlink:href="#d" transform="matrix(1,0,0,1,685.3333333333333,590) translate(58 20.4)"/><use xlink:href="#k" transform="matrix(1,0,0,1,685.3333333333333,590) translate(30.049999999999997 42)"/><use xlink:href="#l" transform="matrix(1,0,0,1,685.3333333333333,590) translate(19.099999999999994 63.6)"/><use xlink:href="#c" transform="matrix(1,0,0,1,685.3333333333333,590) translate(37.05 85.20000000000002)"/><path d="M369.33 576.5V547a6 6 0 0 1 6-6h372a6 6 0 0 0 6-6v-13.62" stroke="#3a414a" fill="none"/><path d="M369.83 577h-1v-.5h1z" stroke="#3a414a" stroke-width=".05" fill="#3a414a"/><path d="M753.33 506.62l4.64 14.26h-9.27z" stroke="#3a414a" fill="#fff"/><path d="M561.33 576.5V547a6 6 0 0 1 6-6h180a6 6 0 0 0 6-6v-13.62" stroke="#3a414a" fill="none"/><path d="M561.83 577h-1v-.5h1z" stroke="#3a414a" stroke-width=".05" fill="#3a414a"/><path d="M753.33 506.62l4.64 14.26h-9.27z" stroke="#3a414a" fill="#fff"/><path d="M753.33 576.5v-55.12" stroke="#3a414a" fill="none"/><path d="M753.83 577h-1v-.5h1z" stroke="#3a414a" stroke-width=".05" fill="#3a414a"/><path d="M753.33 506.62l4.64 14.26h-9.27z" stroke="#3a414a" fill="#fff"/><path d="M1057.33 583a5 5 0 0 1 5-5h150a5 5 0 0 1 5 5v110a5 5 0 0 1-5 5h-150a5 5 0 0 1-5-5z" stroke="#000" stroke-width="2" fill="#e3fae3"/><use xlink:href="#d" transform="matrix(1,0,0,1,1069.3333333333335,590) translate(58 41.4)"/><use xlink:href="#m" transform="matrix(1,0,0,1,1069.3333333333335,590) translate(33.05 63)"/><path d="M1249.33 583a5 5 0 0 1 5-5h150a5 5 0 0 1 5 5v110a5 5 0 0 1-5 5h-150a5 5 0 0 1-5-5z" stroke="#000" stroke-width="2" fill="#e3fae3"/><use xlink:href="#d" transform="matrix(1,0,0,1,1261.3333333333335,590) translate(58 41.4)"/><use xlink:href="#n" transform="matrix(1,0,0,1,1261.3333333333335,590) translate(41.05 63)"/><path d="M1441.33 583a5 5 0 0 1 5-5h150a5 5 0 0 1 5 5v110a5 5 0 0 1-5 5h-150a5 5 0 0 1-5-5z" stroke="#000" stroke-width="2" fill="#e3fae3"/><use xlink:href="#d" transform="matrix(1,0,0,1,1453.3333333333335,590) translate(58 41.4)"/><use xlink:href="#o" transform="matrix(1,0,0,1,1453.3333333333335,590) translate(38.025 63)"/><path d="M1137.33 576.5v-55.12" stroke="#3a414a" fill="none"/><path d="M1137.83 577h-1v-.5h1z" stroke="#3a414a" stroke-width=".05" fill="#3a414a"/><path d="M1137.33 506.62l4.64 14.26h-9.27z" stroke="#3a414a" fill="#fff"/><path d="M1329.33 576.5V547a6 6 0 0 0-6-6h-180a6 6 0 0 1-6-6v-13.62" stroke="#3a414a" fill="none"/><path d="M1329.83 577h-1v-.5h1z" stroke="#3a414a" stroke-width=".05" fill="#3a414a"/><path d="M1137.33 506.62l4.64 14.26h-9.27z" stroke="#3a414a" fill="#fff"/><path d="M1521.33 576.5V547a6 6 0 0 0-6-6h-372a6 6 0 0 1-6-6v-13.62" stroke="#3a414a" fill="none"/><path d="M1521.83 577h-1v-.5h1z" stroke="#3a414a" stroke-width=".05" fill="#3a414a"/><path d="M1137.33 506.62l4.64 14.26h-9.27z" stroke="#3a414a" fill="#fff"/><path d="M1633.33 583a5 5 0 0 1 5-5h150a5 5 0 0 1 5 5v110a5 5 0 0 1-5 5h-150a5 5 0 0 1-5-5z" stroke="#000" stroke-width="2" fill="#e3fae3"/><use xlink:href="#p" transform="matrix(1,0,0,1,1645.3333333333335,590) translate(60.5 50.4)"/><path d="M1713.33 576.5V547a6 6 0 0 0-6-6h-564a6 6 0 0 1-6-6v-13.62" stroke="#3a414a" fill="none"/><path d="M1713.83 577h-1v-.5h1z" stroke="#3a414a" stroke-width=".05" fill="#3a414a"/><path d="M1137.33 506.62l4.64 14.26h-9.27z" stroke="#3a414a" fill="#fff"/><path d="M592 777a5 5 0 0 1 5-5h150a5 5 0 0 1 5 5v110a5 5 0 0 1-5 5H597a5 5 0 0 1-5-5z" stroke="#000" stroke-width="2" fill="#fff0f0"/><use xlink:href="#d" transform="matrix(1,0,0,1,604.0000000000001,784) translate(58 41.4)"/><use xlink:href="#q" transform="matrix(1,0,0,1,604.0000000000001,784) translate(34.074999999999996 63)"/><path d="M784 777a5 5 0 0 1 5-5h150a5 5 0 0 1 5 5v110a5 5 0 0 1-5 5H789a5 5 0 0 1-5-5z" stroke="#000" stroke-width="2" fill="#fff0f0"/><use xlink:href="#d" transform="matrix(1,0,0,1,796.0000000000001,784) translate(58 41.4)"/><use xlink:href="#r" transform="matrix(1,0,0,1,796.0000000000001,784) translate(48.05 63)"/><path d="M976 777a5 5 0 0 1 5-5h150a5 5 0 0 1 5 5v110a5 5 0 0 1-5 5H981a5 5 0 0 1-5-5z" stroke="#000" stroke-width="2" fill="#fff0f0"/><use xlink:href="#d" transform="matrix(1,0,0,1,988,784) translate(58 41.4)"/><use xlink:href="#s" transform="matrix(1,0,0,1,988,784) translate(38.025 63)"/><path d="M672 770.5v-35.17a6 6 0 0 1 6-6h261.33a6 6 0 0 0 6-6V521.38" stroke="#3a414a" fill="none"/><path d="M672.5 771h-1v-.5h1z" stroke="#3a414a" stroke-width=".05" fill="#3a414a"/><path d="M945.33 506.62l4.64 14.26h-9.27z" stroke="#3a414a" fill="#fff"/><path d="M864 770.5v-35.17a6 6 0 0 1 6-6h69.33a6 6 0 0 0 6-6V521.38" stroke="#3a414a" fill="none"/><path d="M864.5 771h-1v-.5h1z" stroke="#3a414a" stroke-width=".05" fill="#3a414a"/><path d="M945.33 506.62l4.64 14.26h-9.27z" stroke="#3a414a" fill="#fff"/><path d="M1056 770.5V735a6 6 0 0 0-6-6h-98.67a6 6 0 0 1-6-6V521.38" stroke="#3a414a" fill="none"/><path d="M1056.5 771h-1v-.5h1z" stroke="#3a414a" stroke-width=".05" fill="#3a414a"/><path d="M945.33 506.62l4.64 14.26h-9.27z" stroke="#3a414a" fill="#fff"/><path d="M1168 777a5 5 0 0 1 5-5h150a5 5 0 0 1 5 5v110a5 5 0 0 1-5 5h-150a5 5 0 0 1-5-5z" stroke="#000" stroke-width="2" fill="#fff0f0"/><g><use xlink:href="#p" transform="matrix(1,0,0,1,1180.0000000000002,784) translate(60.5 50.4)"/></g><path d="M1248 770.5V735a6 6 0 0 0-6-6H951.33a6 6 0 0 1-6-6V521.38" stroke="#3a414a" fill="none"/><path d="M1248.5 771h-1v-.5h1z" stroke="#3a414a" stroke-width=".05" fill="#3a414a"/><path d="M945.33 506.62l4.64 14.26h-9.27z" stroke="#3a414a" fill="#fff"/><path d="M1842.67 389a5 5 0 0 1 5-5h150a5 5 0 0 1 5 5v110a5 5 0 0 1-5 5h-150a5 5 0 0 1-5-5z" stroke="#000" stroke-width="2" fill="#fcfcca"/><g><use xlink:href="#d" transform="matrix(1,0,0,1,1854.666666666667,396) translate(58 29.4)"/><use xlink:href="#t" transform="matrix(1,0,0,1,1854.666666666667,396) translate(16.049999999999997 51)"/><use xlink:href="#u" transform="matrix(1,0,0,1,1854.666666666667,396) translate(14.074999999999996 72.60000000000001)"/></g><path d="M1922.67 382.5V353a6 6 0 0 0-6-6H951.33a6 6 0 0 1-6-6v-13.62" stroke="#3a414a" fill="none"/><path d="M1923.17 383h-1v-.5h1z" stroke="#3a414a" stroke-width=".05" fill="#3a414a"/><path d="M945.33 312.62l4.64 14.26h-9.27z" stroke="#3a414a" fill="#fff"/><defs><path d="M177-190C167-65 218 103 67 71c-23-6-38-20-44-43l32-5c15 47 100 32 89-28v-30C133-14 115 1 83 1 29 1 15-40 15-95c0-56 16-97 71-98 29-1 48 16 59 35 1-10 0-23 2-32h30zM94-22c36 0 50-32 50-73 0-42-14-75-50-75-39 0-46 34-46 75s6 73 46 73" id="v"/><path d="M135-143c-3-34-86-38-87 0 15 53 115 12 119 90S17 21 10-45l28-5c4 36 97 45 98 0-10-56-113-15-118-90-4-57 82-63 122-42 12 7 21 19 24 35" id="w"/><path d="M206 0h-36l-40-164L89 0H53L-1-190h32L70-26l43-164h34l41 164 42-164h31" id="x"/><path d="M141-36C126-15 110 5 73 4 37 3 15-17 15-53c-1-64 63-63 125-63 3-35-9-54-41-54-24 1-41 7-42 31l-33-3c5-37 33-52 76-52 45 0 72 20 72 64v82c-1 20 7 32 28 27v20c-31 9-61-2-59-35zM48-53c0 20 12 33 32 33 41-3 63-29 60-74-43 2-92-5-92 41" id="y"/><path d="M33-154v-36h34v36H33zM33 0v-36h34V0H33" id="z"/><g id="a"><use transform="matrix(0.05,0,0,0.05,0,0)" xlink:href="#v"/><use transform="matrix(0.05,0,0,0.05,10,0)" xlink:href="#w"/><use transform="matrix(0.05,0,0,0.05,19,0)" xlink:href="#x"/><use transform="matrix(0.05,0,0,0.05,31.950000000000003,0)" xlink:href="#y"/><use transform="matrix(0.05,0,0,0.05,41.95,0)" xlink:href="#z"/></g><path d="M143 4C61 4 22-44 18-125c-5-107 100-154 193-111 17 8 29 25 37 43l-32 9c-13-25-37-40-76-40-61 0-88 39-88 99 0 61 29 100 91 101 35 0 62-11 79-27v-45h-74v-28h105v86C228-13 192 4 143 4" id="A"/><path d="M100-194c63 0 86 42 84 106H49c0 40 14 67 53 68 26 1 43-12 49-29l28 8c-11 28-37 45-77 45C44 4 14-33 15-96c1-61 26-98 85-98zm52 81c6-60-76-77-97-28-3 7-6 17-6 28h103" id="B"/><path d="M100-194c62-1 85 37 85 99 1 63-27 99-86 99S16-35 15-95c0-66 28-99 85-99zM99-20c44 1 53-31 53-75 0-43-8-75-51-75s-53 32-53 75 10 74 51 75" id="C"/><path d="M24 0v-261h32V0H24" id="D"/><path d="M24-231v-30h32v30H24zM24 0v-190h32V0H24" id="E"/><path d="M96-169c-40 0-48 33-48 73s9 75 48 75c24 0 41-14 43-38l32 2c-6 37-31 61-74 61-59 0-76-41-82-99-10-93 101-131 147-64 4 7 5 14 7 22l-32 3c-4-21-16-35-41-35" id="F"/><g id="b"><use transform="matrix(0.05,0,0,0.05,0,0)" xlink:href="#A"/><use transform="matrix(0.05,0,0,0.05,14,0)" xlink:href="#B"/><use transform="matrix(0.05,0,0,0.05,24,0)" xlink:href="#C"/><use transform="matrix(0.05,0,0,0.05,34,0)" xlink:href="#D"/><use transform="matrix(0.05,0,0,0.05,37.95,0)" xlink:href="#C"/><use transform="matrix(0.05,0,0,0.05,47.95,0)" xlink:href="#v"/><use transform="matrix(0.05,0,0,0.05,57.95,0)" xlink:href="#E"/><use transform="matrix(0.05,0,0,0.05,61.900000000000006,0)" xlink:href="#F"/><use transform="matrix(0.05,0,0,0.05,70.9,0)" xlink:href="#y"/><use transform="matrix(0.05,0,0,0.05,80.9,0)" xlink:href="#D"/></g><path d="M63-220v92h138v28H63V0H30v-248h175v28H63" id="G"/><path d="M59-47c-2 24 18 29 38 22v24C64 9 27 4 27-40v-127H5v-23h24l9-43h21v43h35v23H59v120" id="H"/><path d="M84 4C-5 8 30-112 23-190h32v120c0 31 7 50 39 49 72-2 45-101 50-169h31l1 190h-30c-1-10 1-25-2-33-11 22-28 36-60 37" id="I"/><path d="M114-163C36-179 61-72 57 0H25l-1-190h30c1 12-1 29 2 39 6-27 23-49 58-41v29" id="J"/><g id="c"><use transform="matrix(0.05,0,0,0.05,0,0)" xlink:href="#G"/><use transform="matrix(0.05,0,0,0.05,10.950000000000001,0)" xlink:href="#B"/><use transform="matrix(0.05,0,0,0.05,20.950000000000003,0)" xlink:href="#y"/><use transform="matrix(0.05,0,0,0.05,30.950000000000003,0)" xlink:href="#H"/><use transform="matrix(0.05,0,0,0.05,35.95,0)" xlink:href="#I"/><use transform="matrix(0.05,0,0,0.05,45.95,0)" xlink:href="#J"/><use transform="matrix(0.05,0,0,0.05,51.900000000000006,0)" xlink:href="#B"/></g><path d="M101-234c-31-9-42 10-38 44h38v23H63V0H32v-167H5v-23h27c-7-52 17-82 69-68v24" id="K"/><g id="d"><use transform="matrix(0.05,0,0,0.05,0,0)" xlink:href="#v"/><use transform="matrix(0.05,0,0,0.05,10,0)" xlink:href="#K"/><use transform="matrix(0.05,0,0,0.05,15,0)" xlink:href="#z"/></g><path d="M185-189c-5-48-123-54-124 2 14 75 158 14 163 119 3 78-121 87-175 55-17-10-28-26-33-46l33-7c5 56 141 63 141-1 0-78-155-14-162-118-5-82 145-84 179-34 5 7 8 16 11 25" id="L"/><path d="M115-194c55 1 70 41 70 98S169 2 115 4C84 4 66-9 55-30l1 105H24l-1-265h31l2 30c10-21 28-34 59-34zm-8 174c40 0 45-34 45-75s-6-73-45-74c-42 0-51 32-51 76 0 43 10 73 51 73" id="M"/><path d="M106-169C34-169 62-67 57 0H25v-261h32l-1 103c12-21 28-36 61-36 89 0 53 116 60 194h-32v-121c2-32-8-49-39-48" id="N"/><g id="e"><use transform="matrix(0.05,0,0,0.05,0,0)" xlink:href="#L"/><use transform="matrix(0.05,0,0,0.05,12,0)" xlink:href="#H"/><use transform="matrix(0.05,0,0,0.05,17,0)" xlink:href="#J"/><use transform="matrix(0.05,0,0,0.05,22.95,0)" xlink:href="#y"/><use transform="matrix(0.05,0,0,0.05,32.95,0)" xlink:href="#H"/><use transform="matrix(0.05,0,0,0.05,37.95,0)" xlink:href="#E"/><use transform="matrix(0.05,0,0,0.05,41.900000000000006,0)" xlink:href="#v"/><use transform="matrix(0.05,0,0,0.05,51.900000000000006,0)" xlink:href="#J"/><use transform="matrix(0.05,0,0,0.05,57.85,0)" xlink:href="#y"/><use transform="matrix(0.05,0,0,0.05,67.85000000000001,0)" xlink:href="#M"/><use transform="matrix(0.05,0,0,0.05,77.85000000000001,0)" xlink:href="#N"/><use transform="matrix(0.05,0,0,0.05,87.85000000000001,0)" xlink:href="#E"/><use transform="matrix(0.05,0,0,0.05,91.80000000000001,0)" xlink:href="#F"/></g><g id="f"><use transform="matrix(0.05,0,0,0.05,0,0)" xlink:href="#L"/><use transform="matrix(0.05,0,0,0.05,12,0)" xlink:href="#H"/><use transform="matrix(0.05,0,0,0.05,17,0)" xlink:href="#J"/><use transform="matrix(0.05,0,0,0.05,22.95,0)" xlink:href="#I"/><use transform="matrix(0.05,0,0,0.05,32.95,0)" xlink:href="#F"/><use transform="matrix(0.05,0,0,0.05,41.95,0)" xlink:href="#H"/><use transform="matrix(0.05,0,0,0.05,46.95,0)" xlink:href="#I"/><use transform="matrix(0.05,0,0,0.05,56.95,0)" xlink:href="#J"/><use transform="matrix(0.05,0,0,0.05,62.900000000000006,0)" xlink:href="#y"/><use transform="matrix(0.05,0,0,0.05,72.9,0)" xlink:href="#D"/></g><path d="M127-220V0H93v-220H8v-28h204v28h-85" id="O"/><path d="M117-194c89-4 53 116 60 194h-32v-121c0-31-8-49-39-48C34-167 62-67 57 0H25l-1-190h30c1 10-1 24 2 32 11-22 29-35 61-36" id="P"/><g id="g"><use transform="matrix(0.05,0,0,0.05,0,0)" xlink:href="#O"/><use transform="matrix(0.05,0,0,0.05,8.950000000000001,0)" xlink:href="#B"/><use transform="matrix(0.05,0,0,0.05,18.950000000000003,0)" xlink:href="#F"/><use transform="matrix(0.05,0,0,0.05,27.950000000000003,0)" xlink:href="#H"/><use transform="matrix(0.05,0,0,0.05,32.95,0)" xlink:href="#C"/><use transform="matrix(0.05,0,0,0.05,42.95,0)" xlink:href="#P"/><use transform="matrix(0.05,0,0,0.05,52.95,0)" xlink:href="#E"/><use transform="matrix(0.05,0,0,0.05,56.900000000000006,0)" xlink:href="#F"/></g><path d="M160-131c35 5 61 23 61 61C221 17 115-2 30 0v-248c76 3 177-17 177 60 0 33-19 50-47 57zm-97-11c50-1 110 9 110-42 0-47-63-36-110-37v79zm0 115c55-2 124 14 124-45 0-56-70-42-124-44v89" id="Q"/><g id="h"><use transform="matrix(0.05,0,0,0.05,0,0)" xlink:href="#Q"/><use transform="matrix(0.05,0,0,0.05,12,0)" xlink:href="#E"/><use transform="matrix(0.05,0,0,0.05,15.949999999999998,0)" xlink:href="#C"/><use transform="matrix(0.05,0,0,0.05,25.950000000000003,0)" xlink:href="#w"/><use transform="matrix(0.05,0,0,0.05,34.95,0)" xlink:href="#H"/><use transform="matrix(0.05,0,0,0.05,39.95,0)" xlink:href="#J"/><use transform="matrix(0.05,0,0,0.05,45.900000000000006,0)" xlink:href="#y"/><use transform="matrix(0.05,0,0,0.05,55.900000000000006,0)" xlink:href="#H"/><use transform="matrix(0.05,0,0,0.05,60.900000000000006,0)" xlink:href="#E"/><use transform="matrix(0.05,0,0,0.05,64.85000000000001,0)" xlink:href="#v"/><use transform="matrix(0.05,0,0,0.05,74.85000000000001,0)" xlink:href="#J"/><use transform="matrix(0.05,0,0,0.05,80.80000000000001,0)" xlink:href="#y"/><use transform="matrix(0.05,0,0,0.05,90.80000000000001,0)" xlink:href="#M"/><use transform="matrix(0.05,0,0,0.05,100.80000000000001,0)" xlink:href="#N"/><use transform="matrix(0.05,0,0,0.05,110.80000000000001,0)" xlink:href="#E"/><use transform="matrix(0.05,0,0,0.05,114.75,0)" xlink:href="#F"/></g><path d="M209 0H11v-25l151-195H24v-28h176v25L50-27h159V0" id="R"/><g id="i"><use transform="matrix(0.05,0,0,0.05,0,0)" xlink:href="#R"/><use transform="matrix(0.05,0,0,0.05,10.950000000000001,0)" xlink:href="#C"/><use transform="matrix(0.05,0,0,0.05,20.950000000000003,0)" xlink:href="#P"/><use transform="matrix(0.05,0,0,0.05,30.950000000000003,0)" xlink:href="#B"/></g><path d="M30 0v-248h33v221h125V0H30" id="S"/><g id="j"><use transform="matrix(0.05,0,0,0.05,0,0)" xlink:href="#S"/><use transform="matrix(0.05,0,0,0.05,10,0)" xlink:href="#E"/><use transform="matrix(0.05,0,0,0.05,13.949999999999998,0)" xlink:href="#H"/><use transform="matrix(0.05,0,0,0.05,18.95,0)" xlink:href="#N"/><use transform="matrix(0.05,0,0,0.05,28.950000000000003,0)" xlink:href="#C"/><use transform="matrix(0.05,0,0,0.05,38.95,0)" xlink:href="#w"/><use transform="matrix(0.05,0,0,0.05,47.95,0)" xlink:href="#H"/><use transform="matrix(0.05,0,0,0.05,52.95,0)" xlink:href="#J"/><use transform="matrix(0.05,0,0,0.05,58.900000000000006,0)" xlink:href="#y"/><use transform="matrix(0.05,0,0,0.05,68.9,0)" xlink:href="#H"/><use transform="matrix(0.05,0,0,0.05,73.9,0)" xlink:href="#E"/><use transform="matrix(0.05,0,0,0.05,77.85000000000001,0)" xlink:href="#v"/><use transform="matrix(0.05,0,0,0.05,87.85000000000001,0)" xlink:href="#J"/><use transform="matrix(0.05,0,0,0.05,93.80000000000001,0)" xlink:href="#y"/><use transform="matrix(0.05,0,0,0.05,103.80000000000001,0)" xlink:href="#M"/><use transform="matrix(0.05,0,0,0.05,113.80000000000001,0)" xlink:href="#N"/><use transform="matrix(0.05,0,0,0.05,123.80000000000001,0)" xlink:href="#E"/><use transform="matrix(0.05,0,0,0.05,127.75,0)" xlink:href="#F"/></g><path d="M240 0l2-218c-23 76-54 145-80 218h-23L58-218 59 0H30v-248h44l77 211c21-75 51-140 76-211h43V0h-30" id="T"/><path d="M16-82v-28h88v28H16" id="U"/><g id="k"><use transform="matrix(0.05,0,0,0.05,0,0)" xlink:href="#T"/><use transform="matrix(0.05,0,0,0.05,14.950000000000001,0)" xlink:href="#y"/><use transform="matrix(0.05,0,0,0.05,24.950000000000003,0)" xlink:href="#v"/><use transform="matrix(0.05,0,0,0.05,34.95,0)" xlink:href="#P"/><use transform="matrix(0.05,0,0,0.05,44.95,0)" xlink:href="#B"/><use transform="matrix(0.05,0,0,0.05,54.95,0)" xlink:href="#H"/><use transform="matrix(0.05,0,0,0.05,59.95,0)" xlink:href="#C"/><use transform="matrix(0.05,0,0,0.05,69.95,0)" xlink:href="#U"/></g><g id="l"><use transform="matrix(0.05,0,0,0.05,0,0)" xlink:href="#w"/><use transform="matrix(0.05,0,0,0.05,9,0)" xlink:href="#H"/><use transform="matrix(0.05,0,0,0.05,14,0)" xlink:href="#J"/><use transform="matrix(0.05,0,0,0.05,19.95,0)" xlink:href="#y"/><use transform="matrix(0.05,0,0,0.05,29.950000000000003,0)" xlink:href="#H"/><use transform="matrix(0.05,0,0,0.05,34.95,0)" xlink:href="#E"/><use transform="matrix(0.05,0,0,0.05,38.900000000000006,0)" xlink:href="#v"/><use transform="matrix(0.05,0,0,0.05,48.900000000000006,0)" xlink:href="#J"/><use transform="matrix(0.05,0,0,0.05,54.85,0)" xlink:href="#y"/><use transform="matrix(0.05,0,0,0.05,64.85000000000001,0)" xlink:href="#M"/><use transform="matrix(0.05,0,0,0.05,74.85000000000001,0)" xlink:href="#N"/><use transform="matrix(0.05,0,0,0.05,84.85000000000001,0)" xlink:href="#E"/><use transform="matrix(0.05,0,0,0.05,88.80000000000001,0)" xlink:href="#F"/></g><path d="M30-248c87 1 191-15 191 75 0 78-77 80-158 76V0H30v-248zm33 125c57 0 124 11 124-50 0-59-68-47-124-48v98" id="V"/><path d="M108 0H70L1-190h34L89-25l56-165h34" id="W"/><g id="m"><use transform="matrix(0.05,0,0,0.05,0,0)" xlink:href="#V"/><use transform="matrix(0.05,0,0,0.05,12,0)" xlink:href="#J"/><use transform="matrix(0.05,0,0,0.05,17.95,0)" xlink:href="#C"/><use transform="matrix(0.05,0,0,0.05,27.950000000000003,0)" xlink:href="#W"/><use transform="matrix(0.05,0,0,0.05,36.95,0)" xlink:href="#E"/><use transform="matrix(0.05,0,0,0.05,40.900000000000006,0)" xlink:href="#P"/><use transform="matrix(0.05,0,0,0.05,50.900000000000006,0)" xlink:href="#F"/><use transform="matrix(0.05,0,0,0.05,59.900000000000006,0)" xlink:href="#B"/></g><path d="M212-179c-10-28-35-45-73-45-59 0-87 40-87 99 0 60 29 101 89 101 43 0 62-24 78-52l27 14C228-24 195 4 139 4 59 4 22-46 18-125c-6-104 99-153 187-111 19 9 31 26 39 46" id="X"/><g id="n"><use transform="matrix(0.05,0,0,0.05,0,0)" xlink:href="#X"/><use transform="matrix(0.05,0,0,0.05,12.950000000000001,0)" xlink:href="#J"/><use transform="matrix(0.05,0,0,0.05,18.900000000000002,0)" xlink:href="#y"/><use transform="matrix(0.05,0,0,0.05,28.900000000000002,0)" xlink:href="#H"/><use transform="matrix(0.05,0,0,0.05,33.900000000000006,0)" xlink:href="#C"/><use transform="matrix(0.05,0,0,0.05,43.900000000000006,0)" xlink:href="#P"/></g><path d="M140-251c81 0 123 46 123 126C263-46 219 4 140 4 59 4 17-45 17-125s42-126 123-126zm0 227c63 0 89-41 89-101s-29-99-89-99c-61 0-89 39-89 99S79-25 140-24" id="Y"/><g id="o"><use transform="matrix(0.05,0,0,0.05,0,0)" xlink:href="#Y"/><use transform="matrix(0.05,0,0,0.05,14,0)" xlink:href="#J"/><use transform="matrix(0.05,0,0,0.05,19.95,0)" xlink:href="#C"/><use transform="matrix(0.05,0,0,0.05,29.950000000000003,0)" xlink:href="#v"/><use transform="matrix(0.05,0,0,0.05,39.95,0)" xlink:href="#B"/><use transform="matrix(0.05,0,0,0.05,49.95,0)" xlink:href="#P"/></g><path d="M33 0v-38h34V0H33" id="Z"/><g id="p"><use transform="matrix(0.05,0,0,0.05,0,0)" xlink:href="#Z"/><use transform="matrix(0.05,0,0,0.05,5,0)" xlink:href="#Z"/><use transform="matrix(0.05,0,0,0.05,10,0)" xlink:href="#Z"/></g><path d="M205 0l-28-72H64L36 0H1l101-248h38L239 0h-34zm-38-99l-47-123c-12 45-31 82-46 123h93" id="aa"/><g id="q"><use transform="matrix(0.05,0,0,0.05,0,0)" xlink:href="#aa"/><use transform="matrix(0.05,0,0,0.05,12,0)" xlink:href="#P"/><use transform="matrix(0.05,0,0,0.05,22,0)" xlink:href="#H"/><use transform="matrix(0.05,0,0,0.05,27,0)" xlink:href="#E"/><use transform="matrix(0.05,0,0,0.05,30.950000000000003,0)" xlink:href="#F"/><use transform="matrix(0.05,0,0,0.05,39.95,0)" xlink:href="#D"/><use transform="matrix(0.05,0,0,0.05,43.900000000000006,0)" xlink:href="#E"/><use transform="matrix(0.05,0,0,0.05,47.85000000000001,0)" xlink:href="#P"/><use transform="matrix(0.05,0,0,0.05,57.85,0)" xlink:href="#B"/></g><g id="r"><use transform="matrix(0.05,0,0,0.05,0,0)" xlink:href="#G"/><use transform="matrix(0.05,0,0,0.05,10.950000000000001,0)" xlink:href="#y"/><use transform="matrix(0.05,0,0,0.05,20.950000000000003,0)" xlink:href="#I"/><use transform="matrix(0.05,0,0,0.05,30.950000000000003,0)" xlink:href="#D"/><use transform="matrix(0.05,0,0,0.05,34.900000000000006,0)" xlink:href="#H"/></g><path d="M115-194c53 0 69 39 70 98 0 66-23 100-70 100C84 3 66-7 56-30L54 0H23l1-261h32v101c10-23 28-34 59-34zm-8 174c40 0 45-34 45-75 0-40-5-75-45-74-42 0-51 32-51 76 0 43 10 73 51 73" id="ab"/><g id="s"><use transform="matrix(0.05,0,0,0.05,0,0)" xlink:href="#A"/><use transform="matrix(0.05,0,0,0.05,14,0)" xlink:href="#J"/><use transform="matrix(0.05,0,0,0.05,19.95,0)" xlink:href="#y"/><use transform="matrix(0.05,0,0,0.05,29.950000000000003,0)" xlink:href="#ab"/><use transform="matrix(0.05,0,0,0.05,39.95,0)" xlink:href="#B"/><use transform="matrix(0.05,0,0,0.05,49.95,0)" xlink:href="#P"/></g><g id="t"><use transform="matrix(0.05,0,0,0.05,0,0)" xlink:href="#A"/><use transform="matrix(0.05,0,0,0.05,14,0)" xlink:href="#B"/><use transform="matrix(0.05,0,0,0.05,24,0)" xlink:href="#C"/><use transform="matrix(0.05,0,0,0.05,34,0)" xlink:href="#J"/><use transform="matrix(0.05,0,0,0.05,39.95,0)" xlink:href="#B"/><use transform="matrix(0.05,0,0,0.05,49.95,0)" xlink:href="#w"/><use transform="matrix(0.05,0,0,0.05,58.95,0)" xlink:href="#C"/><use transform="matrix(0.05,0,0,0.05,68.95,0)" xlink:href="#I"/><use transform="matrix(0.05,0,0,0.05,78.95,0)" xlink:href="#J"/><use transform="matrix(0.05,0,0,0.05,84.9,0)" xlink:href="#F"/><use transform="matrix(0.05,0,0,0.05,93.9,0)" xlink:href="#B"/></g><path d="M210-169c-67 3-38 105-44 169h-31v-121c0-29-5-50-35-48C34-165 62-65 56 0H25l-1-190h30c1 10-1 24 2 32 10-44 99-50 107 0 11-21 27-35 58-36 85-2 47 119 55 194h-31v-121c0-29-5-49-35-48" id="ac"/><g id="u"><use transform="matrix(0.05,0,0,0.05,0,0)" xlink:href="#aa"/><use transform="matrix(0.05,0,0,0.05,12,0)" xlink:href="#F"/><use transform="matrix(0.05,0,0,0.05,21,0)" xlink:href="#F"/><use transform="matrix(0.05,0,0,0.05,30,0)" xlink:href="#I"/><use transform="matrix(0.05,0,0,0.05,40,0)" xlink:href="#ac"/><use transform="matrix(0.05,0,0,0.05,54.95,0)" xlink:href="#I"/><use transform="matrix(0.05,0,0,0.05,64.95,0)" xlink:href="#D"/><use transform="matrix(0.05,0,0,0.05,68.9,0)" xlink:href="#y"/><use transform="matrix(0.05,0,0,0.05,78.9,0)" xlink:href="#H"/><use transform="matrix(0.05,0,0,0.05,83.9,0)" xlink:href="#E"/><use transform="matrix(0.05,0,0,0.05,87.85000000000001,0)" xlink:href="#C"/><use transform="matrix(0.05,0,0,0.05,97.85000000000001,0)" xlink:href="#P"/></g></defs></g></svg>