<svg xmlns="http://www.w3.org/2000/svg" xmlns:xlink="http://www.w3.org/1999/xlink" xmlns:lucid="lucid" width="682.17" height="783.67"><g transform="translate(-242.50742793000518 -146.9991499554984)" lucid:page-tab-id="E2F7mK55Oo4x"><path d="M0 0h1000v1000H0z" fill="#fff"/><path d="M262.5 473.14a5 5 0 0 1 5-5h150a5 5 0 0 1 5 5v110a5 5 0 0 1-5 5h-150a5 5 0 0 1-5-5z" fill="#fff"/><path d="M287.5 468.14h20m10 0h20m10 0h20m10 0h20m10 0h10l.8.06.75.2.73.3.67.4.6.5.5.6.4.67.3.73.2.76.06.78v9.17m0 9.17v18.34m0 9.17v18.34m0 9.17v18.34m0 9.17v9.17l-.05.78-.2.76-.3.73-.4.68-.5.6-.6.5-.67.42-.73.3-.76.18-.8.06h-10m-10 0h-20m-10 0h-20m-10 0h-20m-10 0h-20m-10 0h-10l-.77-.06-.77-.2-.72-.28-.67-.42-.6-.5-.5-.6-.42-.67-.3-.72-.18-.76-.06-.78v-9.17m0-9.16v-18.33m0-9.16v-18.33m0-9.16v-18.33m0-9.16v-9.16l.07-.78.18-.76.3-.73.4-.67.52-.6.6-.5.67-.42.72-.3.77-.18.78-.06h10" stroke="#1071e5" stroke-width="2" fill="none"/><use xlink:href="#a" transform="matrix(1,0,0,1,274.5074279300052,480.1399552587172) translate(40.05 50.4)"/><use xlink:href="#b" transform="matrix(1,0,0,1,274.5074279300052,480.1399552587172) translate(83.95 50.4)"/><path d="M651.97 192.2a5 5 0 0 1 5-5h150a5 5 0 0 1 5 5v110a5 5 0 0 1-5 5h-150a5 5 0 0 1-5-5z" fill="#fff"/><path d="M676.97 187.2h20m10 0h20m10 0h20m10 0h20m10 0h10l.78.05.76.18.74.3.67.4.6.52.5.6.42.66.3.74.2.76.05.78v9.17m0 9.17v18.33m0 9.17v18.33m0 9.17v18.33m0 9.17v9.17l-.06.77-.18.76-.3.72-.4.67-.52.6-.6.5-.66.42-.73.3-.75.18-.78.06h-10m-10 0h-20m-10 0h-20m-10 0h-20m-10 0h-20m-10 0h-10l-.8-.06-.75-.18-.72-.3-.67-.4-.6-.52-.5-.6-.42-.67-.3-.72-.17-.76-.06-.8v-9.15m0-9.17v-18.33m0-9.17v-18.33m0-9.17v-18.33m0-9.17v-9.16l.06-.8.18-.76.3-.72.42-.67.5-.6.6-.5.68-.42.72-.3.76-.18.8-.06h10" stroke="#1071e5" stroke-width="2" fill="none"/><use xlink:href="#c" transform="matrix(1,0,0,1,663.9674928736802,199.18511194414128) translate(32.55 50.4)"/><path d="M652.1 400.25a10.2 10.2 0 0 1 5.05-9l68.9-40.1a10.3 10.3 0 0 1 10.36 0l68.9 40.1a10.68 10.68 0 0 1 5.3 9l1.25 61.9a5.88 5.88 0 0 1-5.88 6H659.45a6.12 6.12 0 0 1-6.12-6z" fill="#fff"/><path d="M672.46 382.33l15.3-8.9m7.66-4.46l15.3-8.9m7.66-4.46l7.66-4.44.96-.5 1.02-.4 1.05-.27 1.07-.18 1.08-.06 1.1.06 1.06.17 1.05.27 1 .4.98.5 7.66 4.44m7.66 4.46l15.3 8.9m7.66 4.47l15.3 8.9m7.66 4.46l7.65 4.44.9.6.86.68.77.78.7.84.6.9.5.98.4 1.02.3 1.05.2 1.06.07 1.1.2 10.3m.22 10.32l.4 20.63m.22 10.33l.2 10.3-.05.94-.2.92-.36.86-.47.8-.6.72-.7.6-.8.5-.86.37-.9.22-.93.07h-9.77m-9.77 0H766.9m-9.77 0H737.6m-9.77 0H708.3m-9.77 0H679m-9.78 0h-9.77l-.94-.07-.9-.22-.9-.36-.8-.5-.73-.6-.62-.72-.5-.8-.4-.88-.22-.92-.1-.94-.2-10.3m-.2-10.33l-.43-20.62m-.2-10.3l-.2-10.32.02-1.1.15-1.06.27-1.05.37-1.02.5-.97.57-.92.68-.85.76-.78.85-.7.9-.58 7.66-4.45" stroke="#1071e5" stroke-width="2" fill="none"/><use xlink:href="#d" transform="matrix(1,0,0,1,651.9674928736802,348.1399552587171) translate(33.62962962962964 64.05555555555556)"/><use xlink:href="#e" transform="matrix(1,0,0,1,651.9674928736802,348.1399552587171) translate(114.5185185185185 64.05555555555556)"/><path d="M491.97 346.85a5 5 0 0 1 5-5h47.33a5 5 0 0 1 5 5v40.67a5 5 0 0 1-5 5h-47.33a5 5 0 0 1-5-5z" fill="#fff"/><path d="M512.75 341.85h15.77m7.9 0h7.88l.78.06.77.2.72.3.67.4.6.52.5.6.42.66.3.73.18.77.06.78v13.56m0 13.56v13.56l-.06.78-.18.76-.3.73-.4.66-.52.6-.6.5-.67.4-.72.3-.77.2-.78.06h-7.9m-7.88 0h-15.77m-7.9 0h-7.88l-.8-.06-.75-.2-.72-.3-.67-.4-.6-.5-.5-.6-.42-.67-.3-.74-.17-.76-.06-.78v-13.56m0-13.55v-13.55l.06-.78.18-.76.3-.72.42-.67.5-.58.6-.5.68-.42.72-.3.76-.2.8-.05h7.88" stroke="#1071e5" stroke-width="2" fill="none"/><use xlink:href="#f" transform="matrix(1,0,0,1,503.96749287367993,353.851778610808) translate(7 17.775)"/><use xlink:href="#g" transform="matrix(1,0,0,1,503.96749287367993,353.851778610808) translate(22 17.775)"/><path d="M424.2 527.98l-.85-.53 34.4-54.64h1.18zm84-133.43l-22.4 35.6h-1.2L507.36 394z" stroke="#3a414a" stroke-width=".05" fill="#3a414a"/><path d="M424.2 527.97l-.7 1.1v-1.54z" fill="#3a414a"/><path d="M424.24 527.97l-.76 1.2v-1.68zm-.7 1.02l.63-1.02-.64-.4zM507.68 414.36l-1-.03.53-19.15-17.02 8.76-.46-.9 18.54-9.52z" stroke="#3a414a" stroke-width=".05" fill="#3a414a"/><use xlink:href="#h" transform="matrix(1,0,0,1,432.8343916766745,430.1402807979827) translate(5.930925925925926 14.222222222222223)"/><use xlink:href="#i" transform="matrix(1,0,0,1,432.8343916766745,430.1402807979827) translate(0.005000000000002558 35.55555555555556)"/><path d="M650.6 407.33l-.38.93L623 397.22v-1.08zm-72.05-29.22v1.1l-27.97-11.36.37-.93z" stroke="#3a414a" stroke-width=".05" fill="#3a414a"/><path d="M550.96 366.92l-.37.92-.3-.1v-1.1z" fill="#3a414a"/><path d="M551 366.9l-.4.97-.32-.13v-1.13zm-.67.8l.24.1.36-.87-.6-.25zM651.25 408.14l-20.62 3.1-.15-1 18.95-2.84-11.62-15.23.8-.6z" stroke="#3a414a" stroke-width=".05" fill="#3a414a"/><use xlink:href="#j" transform="matrix(1,0,0,1,578.5515260665716,376.99586693476255) translate(0.004999999999999005 14.222222222222223)"/><path d="M550.98 367.38l-.48-.87 21.1-11.62h2.06zm105.8-58.32l-44.42 24.5h-2.07l46-25.37z" stroke="#3a414a" stroke-width=".05" fill="#3a414a"/><path d="M551 367.38l-.46.24-.48-.87.45-.25zM657.33 308.2l-10.6 17.94-.85-.5 9.73-16.5-19.13-.6.03-1z" stroke="#3a414a" stroke-width=".05" fill="#3a414a"/><use xlink:href="#k" transform="matrix(1,0,0,1,559.9241592457033,333.5469926503631) translate(0.005000000000002558 14.222222222222223)"/><use xlink:href="#l" transform="matrix(1,0,0,1,559.9241592457033,333.5469926503631) translate(34.57290123456791 14.222222222222223)"/><path d="M651.97 743.67a5 5 0 0 1 5-5h150a5 5 0 0 1 5 5v110a5 5 0 0 1-5 5h-150a5 5 0 0 1-5-5z" fill="#fff"/><path d="M676.97 738.67h20m10 0h20m10 0h20m10 0h20m10 0h10l.78.06.76.18.74.3.67.42.6.5.5.6.42.68.3.72.2.76.05.8v9.15m0 9.17v18.33m0 9.17v18.33m0 9.17v18.33m0 9.17v9.17l-.06.78-.18.76-.3.74-.4.67-.52.6-.6.5-.66.42-.73.3-.75.2-.78.05h-10m-10 0h-20m-10 0h-20m-10 0h-20m-10 0h-20m-10 0h-10l-.8-.06-.75-.18-.72-.3-.67-.4-.6-.52-.5-.6-.42-.66-.3-.73-.17-.75-.06-.78v-9.17m0-9.17V817m0-9.17V789.5m0-9.17V762m0-9.17v-9.16l.06-.78.18-.78.3-.72.42-.67.5-.6.6-.5.68-.42.72-.3.76-.17.8-.06h10" stroke="#1071e5" stroke-width="2" fill="none"/><use xlink:href="#m" transform="matrix(1,0,0,1,663.9674928736802,750.6666666666667) translate(28.549999999999997 41.4)"/><use xlink:href="#n" transform="matrix(1,0,0,1,663.9674928736802,750.6666666666667) translate(41.574999999999996 63)"/><path d="M652.1 629.2a10.2 10.2 0 0 1 5.05-9l68.9-40.1a10.3 10.3 0 0 1 10.36 0l68.9 40.1a10.68 10.68 0 0 1 5.3 9l1.25 61.9a5.88 5.88 0 0 1-5.88 6H659.45a6.12 6.12 0 0 1-6.12-6z" fill="#fff"/><path d="M672.46 611.3l15.3-8.92m7.66-4.45l15.3-8.9m7.66-4.46l7.66-4.46.96-.48 1.02-.4 1.05-.28 1.07-.17 1.08-.06 1.1.07 1.06.17 1.05.28 1 .4.98.5 7.66 4.45m7.66 4.45l15.3 8.9m7.66 4.46l15.3 8.9m7.66 4.46l7.65 4.45.9.6.86.68.77.77.7.85.6.9.5.98.4 1 .3 1.06.2 1.08.07 1.1.2 10.3m.22 10.32l.4 20.63m.22 10.3l.2 10.33-.05.93-.2.9-.36.88-.47.8-.6.73-.7.6-.8.5-.86.37-.9.22-.93.08h-9.77m-9.77 0H766.9m-9.77 0H737.6m-9.77 0H708.3m-9.77 0H679m-9.78 0h-9.77l-.94-.08-.9-.22-.9-.36-.8-.5-.73-.6-.62-.7-.5-.8-.4-.88-.22-.92-.1-.94-.2-10.32m-.2-10.3l-.43-20.64m-.2-10.32l-.2-10.3.02-1.1.15-1.07.27-1.05.37-1.02.5-.97.57-.9.68-.85.76-.77.85-.7.9-.6 7.66-4.44" stroke="#1071e5" stroke-width="2" fill="none"/><use xlink:href="#o" transform="matrix(1,0,0,1,651.9674928736802,577.0947985732929) translate(25.802469135802475 64.05555555555556)"/><use xlink:href="#p" transform="matrix(1,0,0,1,651.9674928736802,577.0947985732929) translate(121.40740740740739 64.05555555555556)"/><path d="M508.73 650.1a5 5 0 0 1 5-5h47.33a5 5 0 0 1 5 5v40.66a5 5 0 0 1-5 5h-47.33a5 5 0 0 1-5-5z" fill="#fff"/><path d="M529.5 645.1h15.8m7.87 0h7.9l.78.06.76.18.73.3.67.4.6.52.5.6.42.67.3.72.18.76.06.8v13.55m0 13.56v13.56l-.06.78-.18.77-.3.73-.4.67-.52.6-.6.5-.67.42-.72.3-.75.18-.8.06h-7.88m-7.88 0h-15.8m-7.88 0h-7.9l-.77-.06-.77-.18-.72-.3-.67-.4-.6-.52-.5-.6-.43-.67-.3-.72-.18-.76-.07-.78V677.2m0-13.55V650.1l.06-.8.18-.75.3-.72.4-.67.5-.6.6-.5.68-.42.72-.3.77-.18.78-.06h7.9" stroke="#1071e5" stroke-width="2" fill="none"/><use xlink:href="#f" transform="matrix(1,0,0,1,520.7300324718375,657.094798573293) translate(7 17.775)"/><use xlink:href="#g" transform="matrix(1,0,0,1,520.7300324718375,657.094798573293) translate(22 17.775)"/><path d="M586.93 663.1l-19.22 7.6-.36-.92 19.6-7.76zm63.66-25.2l-19.22 7.6v-1.08l18.84-7.45z" stroke="#3a414a" stroke-width=".05" fill="#3a414a"/><path d="M567.72 670.7l-.66.27v-1.08l.3-.13z" fill="#3a414a"/><path d="M567.76 670.72l-.72.28v-1.13l.33-.13zm-.67-.8v1l.6-.23-.36-.9zM651.25 637.1l-12.78 16.47-.8-.62 11.75-15.13-18.92-3 .16-1z" stroke="#3a414a" stroke-width=".05" fill="#3a414a"/><use xlink:href="#j" transform="matrix(1,0,0,1,586.9327958656502,643.094798573293) translate(0.004999999999999005 14.222222222222223)"/><path d="M650.6 742.7l-.65.74-38.76-33.83h1.5zm-62.33-54.43h-1.52l-19.64-17.14.67-.75z" stroke="#3a414a" stroke-width=".05" fill="#3a414a"/><path d="M567.78 670.4l-.66.74-.06-1.38z" fill="#3a414a"/><path d="M567.8 670.4l-.7.8-.06-1.5zm-.66.68l.6-.7-.65-.56zM650.97 743.66l-20.5-3.8.18-1 18.84 3.5-6.02-18.18.95-.3z" stroke="#3a414a" stroke-width=".05" fill="#3a414a"/><use xlink:href="#k" transform="matrix(1,0,0,1,567.6817434056522,688.2748922315095) translate(0.005000000000002558 14.222222222222223)"/><use xlink:href="#l" transform="matrix(1,0,0,1,567.6817434056522,688.2748922315095) translate(34.57290123456791 14.222222222222223)"/><path d="M507.68 663.22l-.85.52L484.08 627h1.18zm-48.82-78.9h-1.18l-34.33-55.5.85-.52z" stroke="#3a414a" stroke-width=".05" fill="#3a414a"/><path d="M424.2 528.3l-.7.44v-1.55z" fill="#3a414a"/><path d="M424.24 528.32l-.76.47v-1.7zm-.7.38l.63-.4-.64-1.02zM507.73 664.25l-18.46-9.67.46-.9 16.97 8.9-.4-19.15 1-.02z" stroke="#3a414a" stroke-width=".05" fill="#3a414a"/><use xlink:href="#h" transform="matrix(1,0,0,1,432.5335386486158,584.3224434256947) translate(5.930925925925926 14.222222222222223)"/><use xlink:href="#i" transform="matrix(1,0,0,1,432.5335386486158,584.3224434256947) translate(0.005000000000002558 35.55555555555556)"/><path d="M880.4 536.22l-.72 8.67-1.04 8.3-1.33 7.83-1.54 7.3-1.73 6.75-1.86 6.18-1.96 5.64-2.02 5.1-2.06 4.65-2.08 4.2-2.1 3.8-2.06 3.42-2.07 3.1-2.04 2.83-2.02 2.56-2 2.32-2 2.12-1.96 1.92-1.95 1.76-1.93 1.6-1.93 1.46-1.9 1.33-1.92 1.2-1.9 1.1-1.9 1-1.93.9-1.93.82-1.95.7-1.97.65-2 .55-2 .48-2.07.4-2.1.3-2.15.23-2.2.15-1.37.03-.02-1 1.34-.03 2.17-.14 2.1-.2 2.08-.3 2-.4 2-.46 1.94-.55 1.92-.63 1.9-.7 1.9-.8 1.87-.9 1.86-.97 1.87-1.08 1.88-1.2 1.9-1.3 1.87-1.43 1.9-1.58 1.92-1.73 1.93-1.9 1.96-2.1 1.97-2.28 2-2.53 2.02-2.8 2.03-3.07 2.06-3.4 2.05-3.75 2.06-4.16 2.06-4.6 2-5.07 1.95-5.6 1.87-6.13 1.72-6.7 1.53-7.28 1.32-7.8 1.04-8.25.7-8.64.13-2.68h1zm-66.35-128.14l2.22.14 2.15.22 2.1.32 2.07.4 2 .46 2 .56 1.96.64 1.94.72 1.93.8 1.92.9 1.9 1 1.9 1.1 1.92 1.22 1.9 1.33 1.94 1.45 1.94 1.6 1.95 1.76 1.96 1.93 1.98 2.12 2 2.32 2.03 2.56 2.05 2.82 2.06 3.1 2.08 3.44 2.1 3.8 2.07 4.18 2.06 4.64 2 5.1 1.97 5.65 1.87 6.18 1.73 6.75 1.55 7.3 1.32 7.84 1.05 8.3.7 8.67.13 2.75h-1l-.12-2.67-.7-8.63-1.05-8.27-1.32-7.8-1.54-7.26-1.73-6.7-1.85-6.14-1.95-5.6-2-5.07-2.05-4.6-2.06-4.15-2.06-3.75-2.06-3.4-2.04-3.08-2.02-2.78-2-2.53-1.98-2.28-1.96-2.1-1.94-1.88-1.9-1.73-1.92-1.56-1.88-1.44-1.88-1.3-1.88-1.2-1.87-1.07-1.87-.98-1.88-.9-1.88-.78-1.9-.7-1.93-.63-1.94-.55-1.98-.47-2.02-.4-2.06-.3-2.12-.2-2.17-.15-1.74-.04.02-1z" stroke="#3a414a" stroke-width=".05" fill="#3a414a"/><path d="M812.3 408.04l-.03 1h-.5v-1z" fill="#3a414a"/><path d="M812.32 408.02l-.02 1.05h-.55l-.02-1.06zm-.52 1h.45l.02-.95h-.5zM828.6 624.78l-14.9 12.03 17.73 7.28-.38.92-19.3-7.9L828 624z" stroke="#3a414a" stroke-width=".05" fill="#3a414a"/><use xlink:href="#q" transform="matrix(1,0,0,1,837.8908079543796,512.1496506412631) translate(0 14.222222222222223)"/><use xlink:href="#r" transform="matrix(1,0,0,1,837.8908079543796,512.1496506412631) translate(69.97530864197532 14.222222222222223)"/><path d="M262.5 795.67a5 5 0 0 1 5-5h150a5 5 0 0 1 5 5v110a5 5 0 0 1-5 5h-150a5 5 0 0 1-5-5z" fill="#fff"/><path d="M287.5 790.67h20m10 0h20m10 0h20m10 0h20m10 0h10l.8.06.75.18.73.3.67.42.6.5.5.6.4.68.3.72.2.76.06.8v9.15m0 9.17v18.33m0 9.17v18.33m0 9.17v18.33m0 9.17v9.17l-.05.78-.2.76-.3.74-.4.67-.5.6-.6.5-.67.42-.73.3-.76.2-.8.05h-10m-10 0h-20m-10 0h-20m-10 0h-20m-10 0h-20m-10 0h-10l-.77-.06-.77-.18-.72-.3-.67-.4-.6-.52-.5-.6-.42-.66-.3-.73-.18-.75-.06-.78v-9.17m0-9.17V869m0-9.17V841.5m0-9.17V814m0-9.17v-9.16l.07-.78.18-.78.3-.72.4-.67.52-.6.6-.5.67-.42.72-.3.77-.17.78-.06h10" stroke="#1071e5" stroke-width="2" fill="none"/><use xlink:href="#s" transform="matrix(1,0,0,1,274.5074279300052,802.6666666666667) translate(18.074999999999996 50.4)"/><use xlink:href="#t" transform="matrix(1,0,0,1,274.5074279300052,802.6666666666667) translate(106.975 50.4)"/><path d="M343 788.76h-1V714h1zm0-96.1h-1V589.65h1z" stroke="#3a414a" stroke-width=".05" fill="#3a414a"/><path d="M343 589.65h-1v-.5h1z" fill="#3a414a"/><path d="M343.03 589.68h-1.05v-.56h1.05zm-1-.5v.45h.95v-.47zM353.12 771.72l-10.6 17.95-10.62-17.95.86-.5 9.75 16.48 9.76-16.5z" stroke="#3a414a" stroke-width=".05" fill="#3a414a"/><use xlink:href="#u" transform="matrix(1,0,0,1,291.69261311519034,692.6723308820184) translate(0.005000000000002558 14.222222222222223)"/><use xlink:href="#v" transform="matrix(1,0,0,1,291.69261311519034,692.6723308820184) translate(33.58524691358026 14.222222222222223)"/><path d="M527.1 498.2l-102.97 30.28-.28-.96 103.26-30.37zm124.48-36.62l-58.4 17.18v-1.05l58.1-17.08z" stroke="#e81313" stroke-width=".05" fill="#e81313"/><path d="M424.14 528.48l-.63.18v-1.04l.36-.1z" fill="#e81313"/><path d="M424.17 528.5l-.7.2v-1.1l.4-.12zm-.64-.86v1l.58-.18-.26-.9zM652.3 460.84l-14.2 15.25-.74-.7 13.06-14-18.57-4.7.25-.97z" stroke="#e81313" stroke-width=".05" fill="#e81313"/><g><use xlink:href="#w" transform="matrix(1,0,0,1,527.1056560483174,477.28527314183714) translate(0 14.222222222222223)"/></g><path d="M653.8 620.2l-.37.94-50.1-20.15v-1.1zm-124.5-50.06v1.08L423.8 528.8l.36-.94z" stroke="#e81313" stroke-width=".05" fill="#e81313"/><path d="M424.17 527.87l-.37.92-.3-.12v-1.08z" fill="#e81313"/><path d="M424.2 527.85l-.4.98-.32-.13v-1.14zm-.67.8l.25.1.36-.87-.6-.24zM654.46 621l-20.6 3.16-.15-1 18.94-2.88-11.66-15.2.8-.6z" stroke="#e81313" stroke-width=".05" fill="#e81313"/><g><use xlink:href="#x" transform="matrix(1,0,0,1,529.3002231982524,564.2314859990362) translate(0.005000000000002558 14.222222222222223)"/><use xlink:href="#y" transform="matrix(1,0,0,1,529.3002231982524,564.2314859990362) translate(12.37537037037038 35.55555555555556)"/></g><path d="M315.5 240.85H263v-1h52.5zm117.17 0h-52.1v-1h52.1z" stroke="#e81313" stroke-width=".05" fill="#e81313"/><path d="M263.02 240.85h-.5v-1h.5zM433.57 240.35l-17.94 10.6-.5-.85 16.48-9.75-16.48-9.75.5-.86z" stroke="#e81313" stroke-width=".05" fill="#e81313"/><g><use xlink:href="#z" transform="matrix(1,0,0,1,315.4975853666315,219.01861825808663) translate(0 14.222222222222223)"/><use xlink:href="#A" transform="matrix(1,0,0,1,315.4975853666315,219.01861825808663) translate(0 35.55555555555556)"/></g><path d="M290.94 173a6 6 0 0 1 6-6h99.45a6 6 0 0 1 6 6v22a6 6 0 0 1-6 6h-99.46a6 6 0 0 1-6-6z" stroke="#000" stroke-opacity="0" fill="#fff" fill-opacity="0"/><g><use xlink:href="#B" transform="matrix(1,0,0,1,295.94024144663103,171.9991499554984) translate(30.165493827160496 19.34027777777778)"/></g><defs><path fill="#1071e5" d="M240 0l2-218c-23 76-54 145-80 218h-23L58-218 59 0H30v-248h44l77 211c21-75 51-140 76-211h43V0h-30" id="C"/><path fill="#1071e5" d="M24-231v-30h32v30H24zM24 0v-190h32V0H24" id="D"/><path fill="#1071e5" d="M117-194c89-4 53 116 60 194h-32v-121c0-31-8-49-39-48C34-167 62-67 57 0H25l-1-190h30c1 10-1 24 2 32 11-22 29-35 61-36" id="E"/><path fill="#1071e5" d="M100-194c63 0 86 42 84 106H49c0 40 14 67 53 68 26 1 43-12 49-29l28 8c-11 28-37 45-77 45C44 4 14-33 15-96c1-61 26-98 85-98zm52 81c6-60-76-77-97-28-3 7-6 17-6 28h103" id="F"/><g id="a"><use transform="matrix(0.05,0,0,0.05,0,0)" xlink:href="#C"/><use transform="matrix(0.05,0,0,0.05,14.950000000000001,0)" xlink:href="#D"/><use transform="matrix(0.05,0,0,0.05,18.900000000000002,0)" xlink:href="#E"/><use transform="matrix(0.05,0,0,0.05,28.900000000000002,0)" xlink:href="#F"/></g><path fill="#1071e5" d="M195 0l-74-108L45 0H8l94-129-87-119h37l69 98 67-98h37l-84 118L233 0h-38" id="G"/><use transform="matrix(0.05,0,0,0.05,0,0)" xlink:href="#G" id="b"/><path fill="#1071e5" d="M140-251c81 0 123 46 123 126C263-46 219 4 140 4 59 4 17-45 17-125s42-126 123-126zm0 227c63 0 89-41 89-101s-29-99-89-99c-61 0-89 39-89 99S79-25 140-24" id="H"/><path fill="#1071e5" d="M115-194c55 1 70 41 70 98S169 2 115 4C84 4 66-9 55-30l1 105H24l-1-265h31l2 30c10-21 28-34 59-34zm-8 174c40 0 45-34 45-75s-6-73-45-74c-42 0-51 32-51 76 0 43 10 73 51 73" id="I"/><path fill="#1071e5" d="M114-163C36-179 61-72 57 0H25l-1-190h30c1 12-1 29 2 39 6-27 23-49 58-41v29" id="J"/><path fill="#1071e5" d="M141-36C126-15 110 5 73 4 37 3 15-17 15-53c-1-64 63-63 125-63 3-35-9-54-41-54-24 1-41 7-42 31l-33-3c5-37 33-52 76-52 45 0 72 20 72 64v82c-1 20 7 32 28 27v20c-31 9-61-2-59-35zM48-53c0 20 12 33 32 33 41-3 63-29 60-74-43 2-92-5-92 41" id="K"/><path fill="#1071e5" d="M59-47c-2 24 18 29 38 22v24C64 9 27 4 27-40v-127H5v-23h24l9-43h21v43h35v23H59v120" id="L"/><path fill="#1071e5" d="M100-194c62-1 85 37 85 99 1 63-27 99-86 99S16-35 15-95c0-66 28-99 85-99zM99-20c44 1 53-31 53-75 0-43-8-75-51-75s-53 32-53 75 10 74 51 75" id="M"/><g id="c"><use transform="matrix(0.05,0,0,0.05,0,0)" xlink:href="#H"/><use transform="matrix(0.05,0,0,0.05,14,0)" xlink:href="#I"/><use transform="matrix(0.05,0,0,0.05,24,0)" xlink:href="#F"/><use transform="matrix(0.05,0,0,0.05,34,0)" xlink:href="#J"/><use transform="matrix(0.05,0,0,0.05,39.95,0)" xlink:href="#K"/><use transform="matrix(0.05,0,0,0.05,49.95,0)" xlink:href="#L"/><use transform="matrix(0.05,0,0,0.05,54.95,0)" xlink:href="#M"/><use transform="matrix(0.05,0,0,0.05,64.95,0)" xlink:href="#J"/></g><path fill="#1071e5" d="M212-179c-10-28-35-45-73-45-59 0-87 40-87 99 0 60 29 101 89 101 43 0 62-24 78-52l27 14C228-24 195 4 139 4 59 4 22-46 18-125c-6-104 99-153 187-111 19 9 31 26 39 46" id="N"/><path fill="#1071e5" d="M210-169c-67 3-38 105-44 169h-31v-121c0-29-5-50-35-48C34-165 62-65 56 0H25l-1-190h30c1 10-1 24 2 32 10-44 99-50 107 0 11-21 27-35 58-36 85-2 47 119 55 194h-31v-121c0-29-5-49-35-48" id="O"/><path fill="#1071e5" d="M179-190L93 31C79 59 56 82 12 73V49c39 6 53-20 64-50L1-190h34L92-34l54-156h33" id="P"/><g id="d"><use transform="matrix(0.049382716049382706,0,0,0.049382716049382706,0,0)" xlink:href="#N"/><use transform="matrix(0.049382716049382706,0,0,0.049382716049382706,12.790123456790122,0)" xlink:href="#M"/><use transform="matrix(0.049382716049382706,0,0,0.049382716049382706,22.666666666666664,0)" xlink:href="#O"/><use transform="matrix(0.049382716049382706,0,0,0.049382716049382706,37.432098765432094,0)" xlink:href="#I"/><use transform="matrix(0.049382716049382706,0,0,0.049382716049382706,47.30864197530863,0)" xlink:href="#K"/><use transform="matrix(0.049382716049382706,0,0,0.049382716049382706,57.185185185185176,0)" xlink:href="#E"/><use transform="matrix(0.049382716049382706,0,0,0.049382716049382706,67.06172839506172,0)" xlink:href="#P"/></g><path fill="#1071e5" d="M137-103V0h-34v-103L8-248h37l75 118 75-118h37" id="Q"/><use transform="matrix(0.049382716049382706,0,0,0.049382716049382706,0,0)" xlink:href="#Q" id="e"/><path fill="#1071e5" d="M26 75v-336h71v23H56V52h41v23H26" id="R"/><use transform="matrix(0.05,0,0,0.05,0,0)" xlink:href="#R" id="f"/><path fill="#1071e5" d="M3 75V52h41v-290H3v-23h71V75H3" id="S"/><use transform="matrix(0.05,0,0,0.05,0,0)" xlink:href="#S" id="g"/><path fill="#333" d="M145-31C134-9 116 4 85 4 32 4 16-35 15-94c0-59 17-99 70-100 32-1 48 14 60 33 0-11-1-24 2-32h30l-1 268h-32zM93-21c41 0 51-33 51-76s-8-73-50-73c-40 0-46 35-46 75s5 74 45 74" id="T"/><path fill="#333" d="M84 4C-5 8 30-112 23-190h32v120c0 31 7 50 39 49 72-2 45-101 50-169h31l1 190h-30c-1-10 1-25-2-33-11 22-28 36-60 37" id="U"/><path fill="#333" d="M141-36C126-15 110 5 73 4 37 3 15-17 15-53c-1-64 63-63 125-63 3-35-9-54-41-54-24 1-41 7-42 31l-33-3c5-37 33-52 76-52 45 0 72 20 72 64v82c-1 20 7 32 28 27v20c-31 9-61-2-59-35zM48-53c0 20 12 33 32 33 41-3 63-29 60-74-43 2-92-5-92 41" id="V"/><path fill="#333" d="M24 0v-261h32V0H24" id="W"/><path fill="#333" d="M24-231v-30h32v30H24zM24 0v-190h32V0H24" id="X"/><path fill="#333" d="M101-234c-31-9-42 10-38 44h38v23H63V0H32v-167H5v-23h27c-7-52 17-82 69-68v24" id="Y"/><path fill="#333" d="M100-194c63 0 86 42 84 106H49c0 40 14 67 53 68 26 1 43-12 49-29l28 8c-11 28-37 45-77 45C44 4 14-33 15-96c1-61 26-98 85-98zm52 81c6-60-76-77-97-28-3 7-6 17-6 28h103" id="Z"/><path fill="#333" d="M85-194c31 0 48 13 60 33l-1-100h32l1 261h-30c-2-10 0-23-3-31C134-8 116 4 85 4 32 4 16-35 15-94c0-66 23-100 70-100zm9 24c-40 0-46 34-46 75 0 40 6 74 45 74 42 0 51-32 51-76 0-42-9-74-50-73" id="aa"/><g id="h"><use transform="matrix(0.04938271604938272,0,0,0.04938271604938272,0,0)" xlink:href="#T"/><use transform="matrix(0.04938271604938272,0,0,0.04938271604938272,9.876543209876544,0)" xlink:href="#U"/><use transform="matrix(0.04938271604938272,0,0,0.04938271604938272,19.75308641975309,0)" xlink:href="#V"/><use transform="matrix(0.04938271604938272,0,0,0.04938271604938272,29.629629629629633,0)" xlink:href="#W"/><use transform="matrix(0.04938271604938272,0,0,0.04938271604938272,33.53086419753087,0)" xlink:href="#X"/><use transform="matrix(0.04938271604938272,0,0,0.04938271604938272,37.4320987654321,0)" xlink:href="#Y"/><use transform="matrix(0.04938271604938272,0,0,0.04938271604938272,42.370370370370374,0)" xlink:href="#X"/><use transform="matrix(0.04938271604938272,0,0,0.04938271604938272,46.27160493827161,0)" xlink:href="#Z"/><use transform="matrix(0.04938271604938272,0,0,0.04938271604938272,56.14814814814815,0)" xlink:href="#aa"/></g><path fill="#333" d="M59-47c-2 24 18 29 38 22v24C64 9 27 4 27-40v-127H5v-23h24l9-43h21v43h35v23H59v120" id="ab"/><path fill="#333" d="M114-163C36-179 61-72 57 0H25l-1-190h30c1 12-1 29 2 39 6-27 23-49 58-41v29" id="ac"/><path fill="#333" d="M115-194c53 0 69 39 70 98 0 66-23 100-70 100C84 3 66-7 56-30L54 0H23l1-261h32v101c10-23 28-34 59-34zm-8 174c40 0 45-34 45-75 0-40-5-75-45-74-42 0-51 32-51 76 0 43 10 73 51 73" id="ad"/><path fill="#333" d="M100-194c62-1 85 37 85 99 1 63-27 99-86 99S16-35 15-95c0-66 28-99 85-99zM99-20c44 1 53-31 53-75 0-43-8-75-51-75s-53 32-53 75 10 74 51 75" id="ae"/><path fill="#333" d="M117-194c89-4 53 116 60 194h-32v-121c0-31-8-49-39-48C34-167 62-67 57 0H25l-1-190h30c1 10-1 24 2 32 11-22 29-35 61-36" id="af"/><g id="i"><use transform="matrix(0.04938271604938272,0,0,0.04938271604938272,0,0)" xlink:href="#V"/><use transform="matrix(0.04938271604938272,0,0,0.04938271604938272,9.876543209876544,0)" xlink:href="#ab"/><use transform="matrix(0.04938271604938272,0,0,0.04938271604938272,14.814814814814817,0)" xlink:href="#ab"/><use transform="matrix(0.04938271604938272,0,0,0.04938271604938272,19.75308641975309,0)" xlink:href="#ac"/><use transform="matrix(0.04938271604938272,0,0,0.04938271604938272,25.629629629629633,0)" xlink:href="#X"/><use transform="matrix(0.04938271604938272,0,0,0.04938271604938272,29.530864197530867,0)" xlink:href="#ad"/><use transform="matrix(0.04938271604938272,0,0,0.04938271604938272,39.40740740740741,0)" xlink:href="#U"/><use transform="matrix(0.04938271604938272,0,0,0.04938271604938272,49.283950617283956,0)" xlink:href="#ab"/><use transform="matrix(0.04938271604938272,0,0,0.04938271604938272,54.22222222222223,0)" xlink:href="#X"/><use transform="matrix(0.04938271604938272,0,0,0.04938271604938272,58.12345679012346,0)" xlink:href="#ae"/><use transform="matrix(0.04938271604938272,0,0,0.04938271604938272,68,0)" xlink:href="#af"/></g><path fill="#333" d="M177-190C167-65 218 103 67 71c-23-6-38-20-44-43l32-5c15 47 100 32 89-28v-30C133-14 115 1 83 1 29 1 15-40 15-95c0-56 16-97 71-98 29-1 48 16 59 35 1-10 0-23 2-32h30zM94-22c36 0 50-32 50-73 0-42-14-75-50-75-39 0-46 34-46 75s6 73 46 73" id="ag"/><g id="j"><use transform="matrix(0.04938271604938272,0,0,0.04938271604938272,0,0)" xlink:href="#V"/><use transform="matrix(0.04938271604938272,0,0,0.04938271604938272,9.876543209876544,0)" xlink:href="#ag"/><use transform="matrix(0.04938271604938272,0,0,0.04938271604938272,19.75308641975309,0)" xlink:href="#Z"/><use transform="matrix(0.04938271604938272,0,0,0.04938271604938272,29.629629629629633,0)" xlink:href="#af"/><use transform="matrix(0.04938271604938272,0,0,0.04938271604938272,39.50617283950618,0)" xlink:href="#ab"/></g><path fill="#333" d="M106-169C34-169 62-67 57 0H25v-261h32l-1 103c12-21 28-36 61-36 89 0 53 116 60 194h-32v-121c2-32-8-49-39-48" id="ah"/><g id="k"><use transform="matrix(0.04938271604938272,0,0,0.04938271604938272,0,0)" xlink:href="#ah"/><use transform="matrix(0.04938271604938272,0,0,0.04938271604938272,9.876543209876544,0)" xlink:href="#V"/><use transform="matrix(0.04938271604938272,0,0,0.04938271604938272,19.75308641975309,0)" xlink:href="#aa"/></g><g id="l"><use transform="matrix(0.04938271604938272,0,0,0.04938271604938272,0,0)" xlink:href="#ac"/><use transform="matrix(0.04938271604938272,0,0,0.04938271604938272,5.8765432098765435,0)" xlink:href="#ae"/><use transform="matrix(0.04938271604938272,0,0,0.04938271604938272,15.753086419753087,0)" xlink:href="#W"/><use transform="matrix(0.04938271604938272,0,0,0.04938271604938272,19.654320987654323,0)" xlink:href="#Z"/></g><path fill="#1071e5" d="M127-220V0H93v-220H8v-28h204v28h-85" id="ai"/><g id="m"><use transform="matrix(0.05,0,0,0.05,0,0)" xlink:href="#ai"/><use transform="matrix(0.05,0,0,0.05,8.950000000000001,0)" xlink:href="#F"/><use transform="matrix(0.05,0,0,0.05,18.950000000000003,0)" xlink:href="#E"/><use transform="matrix(0.05,0,0,0.05,28.950000000000003,0)" xlink:href="#F"/><use transform="matrix(0.05,0,0,0.05,38.95,0)" xlink:href="#O"/><use transform="matrix(0.05,0,0,0.05,53.900000000000006,0)" xlink:href="#F"/><use transform="matrix(0.05,0,0,0.05,63.900000000000006,0)" xlink:href="#E"/><use transform="matrix(0.05,0,0,0.05,73.9,0)" xlink:href="#L"/></g><path fill="#1071e5" d="M197 0v-115H63V0H30v-248h33v105h134v-105h34V0h-34" id="aj"/><path fill="#1071e5" d="M24 0v-261h32V0H24" id="ak"/><path fill="#1071e5" d="M85-194c31 0 48 13 60 33l-1-100h32l1 261h-30c-2-10 0-23-3-31C134-8 116 4 85 4 32 4 16-35 15-94c0-66 23-100 70-100zm9 24c-40 0-46 34-46 75 0 40 6 74 45 74 42 0 51-32 51-76 0-42-9-74-50-73" id="al"/><g id="n"><use transform="matrix(0.05,0,0,0.05,0,0)" xlink:href="#aj"/><use transform="matrix(0.05,0,0,0.05,12.950000000000001,0)" xlink:href="#M"/><use transform="matrix(0.05,0,0,0.05,22.950000000000003,0)" xlink:href="#ak"/><use transform="matrix(0.05,0,0,0.05,26.900000000000002,0)" xlink:href="#al"/><use transform="matrix(0.05,0,0,0.05,36.900000000000006,0)" xlink:href="#F"/><use transform="matrix(0.05,0,0,0.05,46.900000000000006,0)" xlink:href="#J"/></g><path fill="#1071e5" d="M135-143c-3-34-86-38-87 0 15 53 115 12 119 90S17 21 10-45l28-5c4 36 97 45 98 0-10-56-113-15-118-90-4-57 82-63 122-42 12 7 21 19 24 35" id="am"/><path fill="#1071e5" d="M84 4C-5 8 30-112 23-190h32v120c0 31 7 50 39 49 72-2 45-101 50-169h31l1 190h-30c-1-10 1-25-2-33-11 22-28 36-60 37" id="an"/><g id="o"><use transform="matrix(0.049382716049382706,0,0,0.049382716049382706,0,0)" xlink:href="#N"/><use transform="matrix(0.049382716049382706,0,0,0.049382716049382706,12.790123456790122,0)" xlink:href="#M"/><use transform="matrix(0.049382716049382706,0,0,0.049382716049382706,22.666666666666664,0)" xlink:href="#E"/><use transform="matrix(0.049382716049382706,0,0,0.049382716049382706,32.5432098765432,0)" xlink:href="#am"/><use transform="matrix(0.049382716049382706,0,0,0.049382716049382706,41.43209876543209,0)" xlink:href="#M"/><use transform="matrix(0.049382716049382706,0,0,0.049382716049382706,51.30864197530863,0)" xlink:href="#J"/><use transform="matrix(0.049382716049382706,0,0,0.049382716049382706,57.185185185185176,0)" xlink:href="#L"/><use transform="matrix(0.049382716049382706,0,0,0.049382716049382706,62.12345679012344,0)" xlink:href="#D"/><use transform="matrix(0.049382716049382706,0,0,0.049382716049382706,66.02469135802468,0)" xlink:href="#an"/><use transform="matrix(0.049382716049382706,0,0,0.049382716049382706,75.90123456790123,0)" xlink:href="#O"/></g><path fill="#1071e5" d="M190 0L58-211 59 0H30v-248h39L202-35l-2-213h31V0h-41" id="ao"/><use transform="matrix(0.049382716049382706,0,0,0.049382716049382706,0,0)" xlink:href="#ao" id="p"/><path fill="#333" d="M210-169c-67 3-38 105-44 169h-31v-121c0-29-5-50-35-48C34-165 62-65 56 0H25l-1-190h30c1 10-1 24 2 32 10-44 99-50 107 0 11-21 27-35 58-36 85-2 47 119 55 194h-31v-121c0-29-5-49-35-48" id="ap"/><g id="q"><use transform="matrix(0.04938271604938272,0,0,0.04938271604938272,0,0)" xlink:href="#ap"/><use transform="matrix(0.04938271604938272,0,0,0.04938271604938272,14.765432098765434,0)" xlink:href="#Z"/><use transform="matrix(0.04938271604938272,0,0,0.04938271604938272,24.641975308641978,0)" xlink:href="#ap"/><use transform="matrix(0.04938271604938272,0,0,0.04938271604938272,39.40740740740741,0)" xlink:href="#ad"/><use transform="matrix(0.04938271604938272,0,0,0.04938271604938272,49.283950617283956,0)" xlink:href="#Z"/><use transform="matrix(0.04938271604938272,0,0,0.04938271604938272,59.1604938271605,0)" xlink:href="#ac"/></g><g id="r"><use transform="matrix(0.04938271604938272,0,0,0.04938271604938272,0,0)" xlink:href="#ae"/><use transform="matrix(0.04938271604938272,0,0,0.04938271604938272,9.876543209876544,0)" xlink:href="#Y"/></g><g id="s"><use transform="matrix(0.05,0,0,0.05,0,0)" xlink:href="#ai"/><use transform="matrix(0.05,0,0,0.05,8.950000000000001,0)" xlink:href="#F"/><use transform="matrix(0.05,0,0,0.05,18.950000000000003,0)" xlink:href="#E"/><use transform="matrix(0.05,0,0,0.05,28.950000000000003,0)" xlink:href="#F"/><use transform="matrix(0.05,0,0,0.05,38.95,0)" xlink:href="#O"/><use transform="matrix(0.05,0,0,0.05,53.900000000000006,0)" xlink:href="#F"/><use transform="matrix(0.05,0,0,0.05,63.900000000000006,0)" xlink:href="#E"/><use transform="matrix(0.05,0,0,0.05,73.9,0)" xlink:href="#L"/></g><path fill="#1071e5" d="M209 0H11v-25l151-195H24v-28h176v25L50-27h159V0" id="aq"/><use transform="matrix(0.05,0,0,0.05,0,0)" xlink:href="#aq" id="t"/><path fill="#333" d="M135-143c-3-34-86-38-87 0 15 53 115 12 119 90S17 21 10-45l28-5c4 36 97 45 98 0-10-56-113-15-118-90-4-57 82-63 122-42 12 7 21 19 24 35" id="ar"/><g id="u"><use transform="matrix(0.04938271604938272,0,0,0.04938271604938272,0,0)" xlink:href="#ah"/><use transform="matrix(0.04938271604938272,0,0,0.04938271604938272,9.876543209876544,0)" xlink:href="#V"/><use transform="matrix(0.04938271604938272,0,0,0.04938271604938272,19.75308641975309,0)" xlink:href="#ar"/></g><path fill="#333" d="M179-190L93 31C79 59 56 82 12 73V49c39 6 53-20 64-50L1-190h34L92-34l54-156h33" id="as"/><g id="v"><use transform="matrix(0.04938271604938272,0,0,0.04938271604938272,0,0)" xlink:href="#V"/><use transform="matrix(0.04938271604938272,0,0,0.04938271604938272,9.876543209876544,0)" xlink:href="#U"/><use transform="matrix(0.04938271604938272,0,0,0.04938271604938272,19.75308641975309,0)" xlink:href="#ab"/><use transform="matrix(0.04938271604938272,0,0,0.04938271604938272,24.69135802469136,0)" xlink:href="#ah"/><use transform="matrix(0.04938271604938272,0,0,0.04938271604938272,34.567901234567906,0)" xlink:href="#ae"/><use transform="matrix(0.04938271604938272,0,0,0.04938271604938272,44.44444444444445,0)" xlink:href="#ac"/><use transform="matrix(0.04938271604938272,0,0,0.04938271604938272,50.320987654320994,0)" xlink:href="#X"/><use transform="matrix(0.04938271604938272,0,0,0.04938271604938272,54.22222222222223,0)" xlink:href="#ab"/><use transform="matrix(0.04938271604938272,0,0,0.04938271604938272,59.1604938271605,0)" xlink:href="#as"/></g><path fill="#e81313" d="M100-194c62-1 85 37 85 99 1 63-27 99-86 99S16-35 15-95c0-66 28-99 85-99zM99-20c44 1 53-31 53-75 0-43-8-75-51-75s-53 32-53 75 10 74 51 75" id="at"/><path fill="#e81313" d="M115-194c55 1 70 41 70 98S169 2 115 4C84 4 66-9 55-30l1 105H24l-1-265h31l2 30c10-21 28-34 59-34zm-8 174c40 0 45-34 45-75s-6-73-45-74c-42 0-51 32-51 76 0 43 10 73 51 73" id="au"/><path fill="#e81313" d="M100-194c63 0 86 42 84 106H49c0 40 14 67 53 68 26 1 43-12 49-29l28 8c-11 28-37 45-77 45C44 4 14-33 15-96c1-61 26-98 85-98zm52 81c6-60-76-77-97-28-3 7-6 17-6 28h103" id="av"/><path fill="#e81313" d="M114-163C36-179 61-72 57 0H25l-1-190h30c1 12-1 29 2 39 6-27 23-49 58-41v29" id="aw"/><path fill="#e81313" d="M141-36C126-15 110 5 73 4 37 3 15-17 15-53c-1-64 63-63 125-63 3-35-9-54-41-54-24 1-41 7-42 31l-33-3c5-37 33-52 76-52 45 0 72 20 72 64v82c-1 20 7 32 28 27v20c-31 9-61-2-59-35zM48-53c0 20 12 33 32 33 41-3 63-29 60-74-43 2-92-5-92 41" id="ax"/><path fill="#e81313" d="M59-47c-2 24 18 29 38 22v24C64 9 27 4 27-40v-127H5v-23h24l9-43h21v43h35v23H59v120" id="ay"/><g id="w"><use transform="matrix(0.04938271604938272,0,0,0.04938271604938272,0,0)" xlink:href="#at"/><use transform="matrix(0.04938271604938272,0,0,0.04938271604938272,9.876543209876544,0)" xlink:href="#au"/><use transform="matrix(0.04938271604938272,0,0,0.04938271604938272,19.75308641975309,0)" xlink:href="#av"/><use transform="matrix(0.04938271604938272,0,0,0.04938271604938272,29.629629629629633,0)" xlink:href="#aw"/><use transform="matrix(0.04938271604938272,0,0,0.04938271604938272,35.50617283950618,0)" xlink:href="#ax"/><use transform="matrix(0.04938271604938272,0,0,0.04938271604938272,45.38271604938272,0)" xlink:href="#ay"/><use transform="matrix(0.04938271604938272,0,0,0.04938271604938272,50.320987654320994,0)" xlink:href="#at"/><use transform="matrix(0.04938271604938272,0,0,0.04938271604938272,60.19753086419754,0)" xlink:href="#aw"/></g><path fill="#e81313" d="M117-194c89-4 53 116 60 194h-32v-121c0-31-8-49-39-48C34-167 62-67 57 0H25l-1-190h30c1 10-1 24 2 32 11-22 29-35 61-36" id="az"/><path fill="#e81313" d="M210-169c-67 3-38 105-44 169h-31v-121c0-29-5-50-35-48C34-165 62-65 56 0H25l-1-190h30c1 10-1 24 2 32 10-44 99-50 107 0 11-21 27-35 58-36 85-2 47 119 55 194h-31v-121c0-29-5-49-35-48" id="aA"/><g id="x"><use transform="matrix(0.04938271604938272,0,0,0.04938271604938272,0,0)" xlink:href="#ay"/><use transform="matrix(0.04938271604938272,0,0,0.04938271604938272,4.938271604938272,0)" xlink:href="#av"/><use transform="matrix(0.04938271604938272,0,0,0.04938271604938272,14.814814814814817,0)" xlink:href="#az"/><use transform="matrix(0.04938271604938272,0,0,0.04938271604938272,24.69135802469136,0)" xlink:href="#av"/><use transform="matrix(0.04938271604938272,0,0,0.04938271604938272,34.567901234567906,0)" xlink:href="#aA"/><use transform="matrix(0.04938271604938272,0,0,0.04938271604938272,49.33333333333334,0)" xlink:href="#av"/><use transform="matrix(0.04938271604938272,0,0,0.04938271604938272,59.209876543209894,0)" xlink:href="#az"/><use transform="matrix(0.04938271604938272,0,0,0.04938271604938272,69.08641975308643,0)" xlink:href="#ay"/></g><path fill="#e81313" d="M106-169C34-169 62-67 57 0H25v-261h32l-1 103c12-21 28-36 61-36 89 0 53 116 60 194h-32v-121c2-32-8-49-39-48" id="aB"/><path fill="#e81313" d="M24 0v-261h32V0H24" id="aC"/><path fill="#e81313" d="M85-194c31 0 48 13 60 33l-1-100h32l1 261h-30c-2-10 0-23-3-31C134-8 116 4 85 4 32 4 16-35 15-94c0-66 23-100 70-100zm9 24c-40 0-46 34-46 75 0 40 6 74 45 74 42 0 51-32 51-76 0-42-9-74-50-73" id="aD"/><g id="y"><use transform="matrix(0.04938271604938272,0,0,0.04938271604938272,0,0)" xlink:href="#aB"/><use transform="matrix(0.04938271604938272,0,0,0.04938271604938272,9.876543209876544,0)" xlink:href="#at"/><use transform="matrix(0.04938271604938272,0,0,0.04938271604938272,19.75308641975309,0)" xlink:href="#aC"/><use transform="matrix(0.04938271604938272,0,0,0.04938271604938272,23.654320987654323,0)" xlink:href="#aD"/><use transform="matrix(0.04938271604938272,0,0,0.04938271604938272,33.53086419753087,0)" xlink:href="#av"/><use transform="matrix(0.04938271604938272,0,0,0.04938271604938272,43.40740740740741,0)" xlink:href="#aw"/></g><path fill="#e81313" d="M24-231v-30h32v30H24zM24 0v-190h32V0H24" id="aE"/><path fill="#e81313" d="M101-234c-31-9-42 10-38 44h38v23H63V0H32v-167H5v-23h27c-7-52 17-82 69-68v24" id="aF"/><g id="z"><use transform="matrix(0.04938271604938272,0,0,0.04938271604938272,0,0)" xlink:href="#aE"/><use transform="matrix(0.04938271604938272,0,0,0.04938271604938272,3.901234567901235,0)" xlink:href="#az"/><use transform="matrix(0.04938271604938272,0,0,0.04938271604938272,13.777777777777779,0)" xlink:href="#aF"/><use transform="matrix(0.04938271604938272,0,0,0.04938271604938272,18.71604938271605,0)" xlink:href="#av"/><use transform="matrix(0.04938271604938272,0,0,0.04938271604938272,28.592592592592595,0)" xlink:href="#aw"/><use transform="matrix(0.04938271604938272,0,0,0.04938271604938272,34.46913580246914,0)" xlink:href="#aw"/><use transform="matrix(0.04938271604938272,0,0,0.04938271604938272,40.345679012345684,0)" xlink:href="#av"/><use transform="matrix(0.04938271604938272,0,0,0.04938271604938272,50.22222222222223,0)" xlink:href="#aD"/></g><path fill="#e81313" d="M179-190L93 31C79 59 56 82 12 73V49c39 6 53-20 64-50L1-190h34L92-34l54-156h33" id="aG"/><g id="A"><use transform="matrix(0.04938271604938272,0,0,0.04938271604938272,0,0)" xlink:href="#au"/><use transform="matrix(0.04938271604938272,0,0,0.04938271604938272,9.876543209876544,0)" xlink:href="#aw"/><use transform="matrix(0.04938271604938272,0,0,0.04938271604938272,15.753086419753087,0)" xlink:href="#at"/><use transform="matrix(0.04938271604938272,0,0,0.04938271604938272,25.629629629629633,0)" xlink:href="#au"/><use transform="matrix(0.04938271604938272,0,0,0.04938271604938272,35.50617283950618,0)" xlink:href="#av"/><use transform="matrix(0.04938271604938272,0,0,0.04938271604938272,45.38271604938272,0)" xlink:href="#aw"/><use transform="matrix(0.04938271604938272,0,0,0.04938271604938272,51.25925925925927,0)" xlink:href="#ay"/><use transform="matrix(0.04938271604938272,0,0,0.04938271604938272,56.19753086419754,0)" xlink:href="#aG"/></g><path fill="#3a414a" d="M195 0l-88-114-31 24V0H24v-248h52v113l112-113h60L142-143 257 0h-62" id="aH"/><path fill="#3a414a" d="M185-48c-13 30-37 53-82 52C43 2 14-33 14-96s30-98 90-98c62 0 83 45 84 108H66c0 31 8 55 39 56 18 0 30-7 34-22zm-45-69c5-46-57-63-70-21-2 6-4 13-4 21h74" id="aI"/><path fill="#3a414a" d="M123 10C108 53 80 86 19 72V37c35 8 53-11 59-39L3-190h52l48 148c12-52 28-100 44-148h51" id="aJ"/><g id="B"><use transform="matrix(0.06172839506172839,0,0,0.06172839506172839,0,0)" xlink:href="#aH"/><use transform="matrix(0.06172839506172839,0,0,0.06172839506172839,15.987654320987653,0)" xlink:href="#aI"/><use transform="matrix(0.06172839506172839,0,0,0.06172839506172839,28.333333333333332,0)" xlink:href="#aJ"/><path fill="#3a414a" d="M-1.1 1.2h42.9V3.5H-1.1z"/></g></defs></g></svg>