<svg xmlns="http://www.w3.org/2000/svg" xmlns:xlink="http://www.w3.org/1999/xlink" xmlns:lucid="lucid" width="1131.65" height="1054.07"><g transform="translate(-195.78739804454125 213.5177857690955)" lucid:page-tab-id="0_0"><path d="M0-500h1500v1500H0z" fill="#fff"/><path d="M571.6 256.23a5 5 0 0 1 5-5h150a5 5 0 0 1 5 5v110a5 5 0 0 1-5 5h-150a5 5 0 0 1-5-5z" stroke="#000" stroke-width="2" fill="#fff"/><use xlink:href="#a" transform="matrix(1,0,0,1,583.6011134308249,263.2289191646187) translate(48.55 50.4)"/><path d="M733.3 311.23l-.7-.7 30.52-30.12h1.42zm124.92-123.26l-50.44 49.77h-1.42l51.16-50.48z" stroke="#3a414a" stroke-width=".05" fill="#3a414a"/><path d="M733.32 311.23l-.72.7v-1.4z" fill="#3a414a"/><path d="M733.35 311.23l-.77.76v-1.53zm-.72.64l.65-.64-.65-.64zM853.2 207.13l-.97-.25 4.9-18.52-18.6 4.64-.24-.97 20.22-5.05z" stroke="#3a414a" stroke-width=".05" fill="#3a414a"/><use xlink:href="#b" transform="matrix(1,0,0,1,747.5006632486366,237.74415421505333) translate(0.005000000000002558 14.222222222222223)"/><use xlink:href="#c" transform="matrix(1,0,0,1,747.5006632486366,237.74415421505333) translate(21.165493827160496 35.55555555555556)"/><path d="M225.05-12.6a5 5 0 0 1 5-5h150a5 5 0 0 1 5 5v110a5 5 0 0 1-5 5h-150a5 5 0 0 1-5-5z" stroke="#000" stroke-width="2" fill="#ced4db"/><use xlink:href="#d" transform="matrix(1,0,0,1,237.05422246849247,-5.609992593985254) translate(25.099999999999994 41.4)"/><use xlink:href="#e" transform="matrix(1,0,0,1,237.05422246849247,-5.609992593985254) translate(75 41.4)"/><use xlink:href="#f" transform="matrix(1,0,0,1,237.05422246849247,-5.609992593985254) translate(10.574999999999996 63)"/><use xlink:href="#g" transform="matrix(1,0,0,1,237.05422246849247,-5.609992593985254) translate(76.525 63)"/><path d="M249.33-187.52a6 6 0 0 1 6-6h99.45a6 6 0 0 1 6 6v22a6 6 0 0 1-6 6h-99.45a6 6 0 0 1-6-6z" stroke="#000" stroke-opacity="0" fill="#fff" fill-opacity="0"/><use xlink:href="#h" transform="matrix(1,0,0,1,254.32779724845687,-188.5177857690955) translate(30.165493827160496 19.34027777777778)"/><path d="M272.5 157.6h-53.8v-1h53.8zm119.32 0H337.6v-1h54.22z" stroke="#3a414a" stroke-width=".05" fill="#3a414a"/><path d="M392.32 157.6h-.5v-1h.5zM236.24 147.36l-16.5 9.75 16.5 9.76-.5.86-17.95-10.6 17.93-10.62z" stroke="#3a414a" stroke-width=".05" fill="#3a414a"/><use xlink:href="#i" transform="matrix(1,0,0,1,272.5110125919492,146.44571359988137) translate(0.005000000000002558 14.222222222222223)"/><path d="M225.05-146.04a5 5 0 0 1 5-5h150a5 5 0 0 1 5 5v110a5 5 0 0 1-5 5h-150a5 5 0 0 1-5-5z" stroke="#000" stroke-width="2" fill="#fff"/><use xlink:href="#j" transform="matrix(1,0,0,1,237.05422246849247,-139.03957320550475) translate(13.574999999999996 29.4)"/><use xlink:href="#k" transform="matrix(1,0,0,1,237.05422246849247,-139.03957320550475) translate(63.475 29.4)"/><use xlink:href="#l" transform="matrix(1,0,0,1,237.05422246849247,-139.03957320550475) translate(17.9 51)"/><use xlink:href="#m" transform="matrix(1,0,0,1,237.05422246849247,-139.03957320550475) translate(58.85 51)"/><use xlink:href="#n" transform="matrix(1,0,0,1,237.05422246849247,-139.03957320550475) translate(36.074999999999996 72.60000000000001)"/><path d="M571.6-188.52a5 5 0 0 1 5-5h150a5 5 0 0 1 5 5v110a5 5 0 0 1-5 5h-150a5 5 0 0 1-5-5z" stroke="#000" stroke-width="2" fill="#ced4db"/><use xlink:href="#o" transform="matrix(1,0,0,1,583.6011134308249,-181.5177857690955) translate(37.05 50.4)"/><path d="M571.6 107.98a5 5 0 0 1 5-5h150a5 5 0 0 1 5 5v110a5 5 0 0 1-5 5h-150a5 5 0 0 1-5-5z" stroke="#000" stroke-width="2" fill="#fff"/><use xlink:href="#p" transform="matrix(1,0,0,1,583.6011134308249,114.98001752004728) translate(52.525 50.4)"/><path d="M571.6-40.27a5 5 0 0 1 5-5h150a5 5 0 0 1 5 5v110a5 5 0 0 1-5 5h-150a5 5 0 0 1-5-5z" stroke="#000" stroke-width="2" fill="#fff"/><use xlink:href="#q" transform="matrix(1,0,0,1,583.6011134308249,-33.26888412452411) translate(28.049999999999997 41.4)"/><use xlink:href="#r" transform="matrix(1,0,0,1,583.6011134308249,-33.26888412452411) translate(37.05 63)"/><path d="M651.6 249.73v-9.37" stroke="#3a414a" fill="none"/><path d="M652.1 250.23h-1v-.5h1z" stroke="#3a414a" stroke-width=".05" fill="#3a414a"/><path d="M651.6 225.6l4.64 14.26h-9.27z" stroke="#3a414a" fill="#fff"/><path d="M651.6 101.48V92.1" stroke="#3a414a" fill="none"/><path d="M652.1 101.98h-1v-.5h1z" stroke="#3a414a" stroke-width=".05" fill="#3a414a"/><path d="M651.6 77.35l4.64 14.27h-9.27z" stroke="#3a414a" fill="#fff"/><path d="M651.6-46.77v-9.36" stroke="#3a414a" fill="none"/><path d="M652.1-46.27h-1v-.5h1z" stroke="#3a414a" stroke-width=".05" fill="#3a414a"/><path d="M651.6-70.9l4.64 14.27h-9.27z" stroke="#3a414a" fill="#fff"/><path d="M258.17 207.8h-24v-1h24zm133.65 0h-39.88v-1h39.88z" stroke="#3a414a" stroke-width=".05" fill="#3a414a"/><path d="M392.32 207.8h-.5v-1h.5z" stroke="#3a414a" stroke-width=".05" fill="#3a414a"/><path d="M233.67 211.92l-14.26-4.63 14.27-4.65z" fill="#fff"/><path d="M234.17 212.6l-16.38-5.3 16.37-5.34zm-13.15-5.3l12.15 3.93v-7.9z" stroke="#3a414a" stroke-width=".05" fill="#3a414a"/><use xlink:href="#s" transform="matrix(1,0,0,1,258.1653335796036,196.61960865823013) translate(0.005000000000002558 14.222222222222223)"/><use xlink:href="#t" transform="matrix(1,0,0,1,258.1653335796036,196.61960865823013) translate(33.58524691358026 14.222222222222223)"/><use xlink:href="#u" transform="matrix(1,0,0,1,258.1653335796036,196.61960865823013) translate(78.96796296296296 14.222222222222223)"/><path d="M859.52 131.98a5 5 0 0 1 5-5h150a5 5 0 0 1 5 5v110a5 5 0 0 1-5 5h-150a5 5 0 0 1-5-5z" stroke="#000" stroke-width="2" fill="#ced4db"/><use xlink:href="#v" transform="matrix(1,0,0,1,871.5182731750026,138.9765372262891) translate(34.525 50.4)"/><path d="M858.02 391.4l-.54.83-35.04-22.56v-1.2zm-109.56-70.55v1.2l-15.7-10.13.53-.84z" stroke="#3a414a" stroke-width=".05" fill="#3a414a"/><path d="M733.3 311.1l-.54.83-.16-.1v-1.2z" fill="#3a414a"/><path d="M733.34 311.08l-.57.88-.2-.12v-1.25zm-.7.73l.1.1.53-.8-.64-.42zM858.52 392.3l-20.83-.8.03-1 19.14.74-8.6-17.13.9-.43z" stroke="#3a414a" stroke-width=".05" fill="#3a414a"/><use xlink:href="#w" transform="matrix(1,0,0,1,748.4636262115995,313.2566157371937) translate(22.671666666666674 14.222222222222223)"/><use xlink:href="#x" transform="matrix(1,0,0,1,748.4636262115995,313.2566157371937) translate(0.005000000000002558 35.55555555555556)"/><use xlink:href="#y" transform="matrix(1,0,0,1,748.4636262115995,313.2566157371937) translate(13.288950617283959 56.88888888888889)"/><path d="M859.52 337.3a5 5 0 0 1 5-5h150a5 5 0 0 1 5 5v110a5 5 0 0 1-5 5h-150a5 5 0 0 1-5-5z" stroke="#000" stroke-width="2" fill="#ced4db"/><use xlink:href="#v" transform="matrix(1,0,0,1,871.5182731750026,344.3009476782371) translate(34.525 50.4)"/><path d="M1147.43 337.3a5 5 0 0 1 5-5h150a5 5 0 0 1 5 5v110a5 5 0 0 1-5 5h-150a5 5 0 0 1-5-5z" fill="#fff"/><path d="M1172.43 332.3h20m10 0h20m10 0h20m10 0h20m10 0h10l.8.06.75.2.72.3.67.4.6.5.5.6.42.67.3.73.17.76.07.78v9.17m0 9.16v18.34m0 9.16v18.34m0 9.16v18.34m0 9.16v9.17l-.07.78-.18.77-.3.72-.42.67-.5.6-.6.5-.68.42-.72.3-.76.18-.8.06h-10m-10 0h-20m-10 0h-20m-10 0h-20m-10 0h-20m-10 0h-10l-.77-.06-.76-.18-.74-.3-.66-.4-.6-.52-.5-.6-.42-.67-.3-.72-.18-.77-.06-.78v-9.17m0-9.16v-18.34m0-9.16v-18.34m0-9.16v-18.34m0-9.16v-9.17l.06-.78.18-.76.3-.73.4-.67.52-.6.6-.5.66-.4.73-.3.75-.2.78-.06h10" stroke="#1071e5" stroke-width="2" fill="none"/><use xlink:href="#z" transform="matrix(1,0,0,1,1159.4354329191804,344.3009476782371) translate(20.549999999999997 50.4)"/><use xlink:href="#A" transform="matrix(1,0,0,1,1159.4354329191804,344.3009476782371) translate(64.45 50.4)"/><path d="M1145.43 392.3h-10.25m-10.26 0h-20.52m-10.26 0h-20.5m-10.27 0h-20.52m-10.25 0h-10.26" stroke="#1071e5" stroke-width="2" fill="none"/><path d="M1146.43 393.3h-1.02v-2h1.03z" stroke="#1071e5" stroke-width=".05" fill="#1071e5"/><path d="M1039.7 382.12l-17.22 10.18 17.22 10.18" stroke="#1071e5" stroke-width="2" fill="none"/><path d="M1147.43 131.98a5 5 0 0 1 5-5h150a5 5 0 0 1 5 5v110a5 5 0 0 1-5 5h-150a5 5 0 0 1-5-5z" fill="#fff"/><path d="M1172.43 126.98h20m10 0h20m10 0h20m10 0h20m10 0h10l.8.06.75.18.72.3.67.4.6.52.5.6.42.67.3.73.17.76.07.78v9.16m0 9.17v18.34m0 9.17v18.34m0 9.17v18.34m0 9.17V242l-.07.78-.18.76-.3.73-.42.66-.5.6-.6.52-.68.4-.72.3-.76.2-.8.06h-10m-10 0h-20m-10 0h-20m-10 0h-20m-10 0h-20m-10 0h-10l-.77-.06-.76-.2-.74-.3-.66-.4-.6-.5-.5-.6-.42-.67-.3-.73-.18-.76-.06-.78v-9.17m0-9.16V205.3m0-9.16V177.8m0-9.16V150.3m0-9.16v-9.16l.06-.8.18-.75.3-.72.4-.66.52-.6.6-.5.66-.42.73-.3.75-.18.78-.06h10" stroke="#1071e5" stroke-width="2" fill="none"/><use xlink:href="#B" transform="matrix(1,0,0,1,1159.4354329191804,138.9765372262891) translate(30.549999999999997 50.4)"/><use xlink:href="#C" transform="matrix(1,0,0,1,1159.4354329191804,138.9765372262891) translate(66.5 50.4)"/><path d="M1145.43 186.98h-10.25m-10.26 0h-20.52m-10.26 0h-20.5m-10.27 0h-20.52m-10.25 0h-10.26" stroke="#1071e5" stroke-width="2" fill="none"/><path d="M1146.43 187.98h-1.02v-2h1.03z" stroke="#1071e5" stroke-width=".05" fill="#1071e5"/><path d="M1039.7 176.8l-17.22 10.18 17.22 10.18" stroke="#1071e5" stroke-width="2" fill="none"/><path d="M652.1 473.98h-1v-37.33h1zm0-80h-1v-21.25h1z" stroke="#3a414a" stroke-width=".05" fill="#3a414a"/><path d="M652.1 372.74h-1v-.5h1z" fill="#3a414a"/><path d="M652.13 372.77h-1.05v-.57h1.05zm-1-.52v.47h.95v-.47zM662.2 456.95l-10.6 17.94-10.6-17.95.85-.5 9.75 16.48 9.75-16.5z" stroke="#3a414a" stroke-width=".05" fill="#3a414a"/><use xlink:href="#w" transform="matrix(1,0,0,1,624.9838294802075,393.9846455659915) translate(12.301296296296298 14.222222222222223)"/><use xlink:href="#D" transform="matrix(1,0,0,1,624.9838294802075,393.9846455659915) translate(0.004999999999999005 35.55555555555556)"/><path d="M571.6 480.9a5 5 0 0 1 5-5h150a5 5 0 0 1 5 5v110a5 5 0 0 1-5 5h-150a5 5 0 0 1-5-5z" stroke="#000" stroke-width="2" fill="#fff"/><use xlink:href="#E" transform="matrix(1,0,0,1,583.6011134308249,487.8899418647078) translate(40.05 50.4)"/><path d="M570.1 535.9H455.55" stroke="#3a414a" fill="none"/><path d="M570.6 536.4h-.5v-1h.5z" stroke="#3a414a" stroke-width=".05" fill="#3a414a"/><path d="M440.78 535.9l14.27-4.64v9.26z" stroke="#3a414a" fill="#fff"/><path d="M278.16 480.9a5 5 0 0 1 5-5h150a5 5 0 0 1 5 5v110a5 5 0 0 1-5 5h-150a5 5 0 0 1-5-5z" stroke="#000" stroke-width="2" fill="#ced4db"/><use xlink:href="#F" transform="matrix(1,0,0,1,290.1626152740955,487.8899418647078) translate(39.90123456790124 50.22222222222222)"/><path d="M454.06 54.02v15.3l.63 15.16 1.23 14.75 1.78 14.13 2.26 13.33 2.64 12.42 2.94 11.47 3.17 10.5 3.34 9.56 3.43 8.7 3.5 7.85 3.53 7.13 3.53 6.43 3.52 5.82 3.5 5.26 3.46 4.77 3.44 4.34 3.4 3.93 3.34 3.57 3.32 3.25 3.3 2.95 3.25 2.7 3.23 2.45 3.23 2.24 3.22 2.04 3.2 1.85 3.22 1.7 3.22 1.5 3.24 1.36 3.26 1.2 3.3 1.08 3.35.94 3.4.8 3.47.65 3.54.53 3.63.38 3.73.23 3.35.08v1l-3.4-.07-3.75-.23-3.67-.38-3.58-.54-3.5-.67-3.44-.82-3.4-.94-3.33-1.1-3.3-1.22-3.28-1.38-3.26-1.53-3.26-1.7-3.24-1.86-3.25-2.06-3.25-2.27-3.28-2.47-3.3-2.72-3.3-2.98-3.35-3.28-3.38-3.6-3.43-3.97-3.45-4.35-3.5-4.8-3.5-5.3-3.55-5.86-3.56-6.47-3.53-7.16-3.52-7.9-3.45-8.73-3.34-9.6-3.18-10.54-2.95-11.5-2.65-12.48-2.26-13.37-1.8-14.16-1.23-14.8-.64-15.2V54l.13-3.13h1zM569.7-133l-2.94.06-3.72.24-3.63.38-3.52.52-3.47.66-3.38.8-3.35.93-3.3 1.06-3.27 1.22-3.24 1.36-3.22 1.5-3.2 1.7-3.22 1.84-3.2 2.04-3.23 2.24-3.25 2.46-3.26 2.7-3.3 2.96-3.3 3.25-3.36 3.57-3.4 3.92-3.42 4.33-3.46 4.77-3.5 5.26-3.52 5.82-3.53 6.43-3.52 7.1-3.5 7.87-3.43 8.7-3.33 9.56-3.17 10.5-2.94 11.46-2.63 12.43-2.25 13.33-1.8 14.13-.44 5.44h-1l.46-5.54 1.8-14.17 2.25-13.37L461.62-16l2.95-11.5 3.2-10.55 3.33-9.6 3.46-8.73 3.52-7.9 3.54-7.16 3.56-6.46 3.54-5.85 3.52-5.3 3.5-4.8 3.44-4.36 3.4-3.97 3.4-3.6 3.34-3.28 3.32-3 3.3-2.7 3.26-2.5 3.26-2.26 3.25-2.07 3.25-1.87 3.25-1.7 3.26-1.54 3.28-1.37 3.3-1.23 3.34-1.1 3.4-.93 3.43-.82 3.5-.67 3.6-.52 3.66-.38 3.76-.24 2.96-.06z" stroke="#3a414a" stroke-width=".05" fill="#3a414a"/><path d="M570.6 256.4v1l-.53-.02.02-1z" fill="#3a414a"/><path d="M570.63 256.37v1.05l-.58-.02.02-1.05zm-.53 1h.48v-.95l-.46-.02zM570.6-133.52l-17 12.07-.58-.82 15.62-11.08-17.24-8.35.44-.9z" stroke="#3a414a" stroke-width=".05" fill="#3a414a"/><use xlink:href="#G" transform="matrix(1,0,0,1,431.49569791459925,29.539496786962207) translate(0 14.222222222222223)"/><path d="M865.16 528a10.2 10.2 0 0 1 5.07-9l68.88-40.1a10.3 10.3 0 0 1 10.38 0l68.9 40.1a10.68 10.68 0 0 1 5.3 9l1.24 61.9a5.88 5.88 0 0 1-5.88 6h-146.5a6.12 6.12 0 0 1-6.13-6z" stroke="#3a414a" stroke-width="2" fill="#ced4db"/><use xlink:href="#H" transform="matrix(1,0,0,1,865.0396115875542,475.8899418647078) translate(56.79012345679013 64.05555555555556)"/><path d="M743.5 536.4h-10.4v-1h10.4zm119.9 0H832.3v-1h31.13z" stroke="#3a414a" stroke-width=".05" fill="#3a414a"/><path d="M733.1 536.4h-.5v-1h.5z" fill="#3a414a"/><path d="M733.14 536.4h-.56v-1.03h.56zm-.5-1v.97h.45v-.96zM864.32 535.9l-17.94 10.6-.5-.86 16.47-9.75-16.48-9.76.5-.86z" stroke="#3a414a" stroke-width=".05" fill="#3a414a"/><use xlink:href="#I" transform="matrix(1,0,0,1,743.4908218392,525.2232751980412) translate(0.005000000000002558 14.222222222222223)"/><path d="M1147.43 530.42a6 6 0 0 1 6-6h148a6 6 0 0 1 6 6v59.47a6 6 0 0 1-6 6h-148a6 6 0 0 1-6-6z" fill="#fff"/><path d="M1163.3 524.42h9.87m4.93 0h9.87m4.93 0h9.87m4.93 0h9.87m4.93 0h9.87m4.93 0h9.87m4.93 0h9.87m4.93 0h9.87m4.93 0h9.87m4.93 0h4.93l.94.08.92.22.86.36.8.5.72.6.6.72.5.8.36.87.22.9.08.95v4.96m0 4.95v9.9m0 4.97v9.9m0 4.97v9.9m0 4.96v4.96l-.08.93-.22.9-.36.88-.5.82-.6.7-.72.62-.8.5-.87.36-.93.22-.93.07h-4.94m-4.93 0h-9.87m-4.93 0h-9.87m-4.93 0h-9.87m-4.93 0h-9.87m-4.93 0h-9.87m-4.93 0h-9.87m-4.93 0h-9.87m-4.93 0h-9.87m-4.93 0h-9.87m-4.93 0h-4.93l-.94-.08-.92-.22-.87-.36-.8-.5-.7-.6-.62-.72-.5-.8-.35-.88-.22-.9-.06-.95v-4.97m0-4.95v-9.9m0-4.97v-9.9m0-4.96v-9.9m0-4.96v-4.96l.07-.94.23-.9.36-.88.48-.8.6-.72.73-.6.8-.5.88-.37.92-.2.93-.08h4.94" stroke="#3a414a" fill="none"/><use xlink:href="#J" transform="matrix(1,0,0,1,1152.4354329191804,529.4213066825346) translate(3 18.09722222222222)"/><use xlink:href="#K" transform="matrix(1,0,0,1,1152.4354329191804,529.4213066825346) translate(39.5432098765432 18.09722222222222)"/><use xlink:href="#L" transform="matrix(1,0,0,1,1152.4354329191804,529.4213066825346) translate(84.87654320987653 18.09722222222222)"/><use xlink:href="#M" transform="matrix(1,0,0,1,1152.4354329191804,529.4213066825346) translate(11.395061728395078 39.43055555555556)"/><use xlink:href="#N" transform="matrix(1,0,0,1,1152.4354329191804,529.4213066825346) translate(62.753086419753096 39.43055555555556)"/><use xlink:href="#O" transform="matrix(1,0,0,1,1152.4354329191804,529.4213066825346) translate(42.97530864197531 60.763888888888886)"/><path d="M1106.83 611.4l-.08 1-.24 1-.38.93-.53.87-.67.78-.78.66-.87.53-.94.4-1 .23-1 .08h-5.13v-1h5.1l.9-.07.83-.2.8-.32.73-.45.66-.56.56-.66.45-.72.33-.8.2-.84.07-.88v-5h1zm-16.73 6.48h-10.24v-1h10.24zm-15.36 0h-10.23v-1h10.24zm-15.35 0h-10.25v-1h10.24zm-15.36 0h-10.24v-1h10.24zm-15.36 0h-10.23v-1h10.23zm-15.35 0h-10.23v-1h10.23zm-15.35 0h-10.24v-1h10.24zm-15.35 0H972.4v-1h10.23zm-15.36 0h-10.23v-1h10.23zm-15.35 0H941.7v-1h10.22zm-15.35 0h-10.24v-1h10.24zm-15.35 0h-10.24v-1h10.24zm-15.36 0h-10.23v-1h10.23zm-15.35 0h-10.23v-1h10.24zm-15.34 0h-10.24v-1h10.24zm-15.36 0h-10.23v-1h10.23zm-15.35 0h-10.23v-1h10.23zm-15.35 0h-10.24v-1h10.24zm-15.35 0H803.5v-1h10.25zm-25.97-6.52l.07.88.2.84.33.8.45.73.56.67.64.56.74.45.8.33.84.2.88.08h5.1v1h-5.14l-1-.08-1-.24-.93-.4-.88-.52-.77-.66-.66-.78-.54-.87-.4-.94-.23-1-.07-1v-5.02h1zm0-9.98h-1v-10h1zm319.05-.05h-1v-10.05h1zm-319.05-14.95h-1v-10h1zm319.05-.13h-1V576.2h1zM787.78 571.4h-1v-10h1zm330.24-10.72h-5.67l-.88.07-.84.2-.8.33-.73.45-.66.57-.56.65-.45.74-.33.8-.2.83-.07.88v5h-1v-5.04l.08-1 .25-1 .4-.94.52-.87.66-.77.78-.66.88-.54.94-.4 1-.23 1-.07h5.7zm28.4 0h-5.67v-1h5.68zm-11.35 0h-11.37v-1h11.37zm-347.3-4.27h-1v-9.84h1z" stroke="#3a414a" stroke-width=".05" fill="#3a414a"/><path d="M1146.93 560.66h-.5v-1h.5z" fill="#3a414a"/><path d="M1146.96 560.68h-.56v-1.05h.56zm-.5-1v.95h.45v-.95z" stroke="#3a414a" stroke-width=".05" fill="#3a414a"/><path stroke="#3a414a" stroke-width=".05" fill="#3a414a"/><path d="M874.03 514.46l-.7.7-72.8-72.77h1.43zm-93.4-93.4h-1.42l-49.18-49.2.7-.7z" stroke="#3a414a" stroke-width=".05" fill="#3a414a"/><path d="M730.73 371.16l-.7.7-.45-.44.55-.34.28-.24z" fill="#3a414a"/><path d="M730.77 371.16l-.74.74-.5-.48.6-.36.28-.25zm-.63-.05l-.52.33.4.4.68-.67-.3-.28zM874.32 515.45l-20.2-5.18.25-.97 18.56 4.76-4.77-18.55.97-.24z" stroke="#3a414a" stroke-width=".05" fill="#3a414a"/><g><use xlink:href="#P" transform="matrix(1,0,0,1,751.6448787901215,421.05216573575626) translate(0.005000000000002558 14.222222222222223)"/></g><path d="M1146.43 560.16h-5.58m-5.58 0h-11.17m-5.58 0h-5.6l-.92-.08-.92-.22-.87-.36-.8-.5-.7-.6-.62-.72-.5-.8-.35-.87-.22-.9-.07-.94v-4.75m0-4.74v-9.5m0-4.75v-9.48m0-4.75v-9.5m0-4.75v-9.5m0-4.74v-9.5m0-4.75v-4.74l-.07-.95-.22-.92-.36-.87-.5-.8-.6-.72-.72-.6-.8-.5-.87-.36-.93-.22-.93-.07h-5.05m-5.06 0h-10.1m-5.04 0h-10.1m-5.04 0h-10.1m-5.04 0h-10.1m-5.04 0h-10.1m-5.04 0h-10.1m-5.03 0h-10.1m-5.03 0h-10.1m-5.04 0h-10.1m-5.04 0h-10.1m-5.05 0h-10.1m-5.04 0h-10.1m-5.03 0h-10.1m-5.04 0h-10.1m-5.04 0h-10.1m-5.05 0h-10.1m-5.04 0h-5.04l-.94.06-.9.22-.88.36-.8.5-.72.6-.6.72-.5.8-.36.87-.22.92-.08.94v9.5" stroke="#3a414a" fill="none"/><path d="M1146.93 560.66h-.5v-1h.5z" stroke="#3a414a" stroke-width=".05" fill="#3a414a"/><path d="M837.56 478.2v.5" stroke="#3a414a" fill="none"/><path d="M571.6 705.55a5 5 0 0 1 5-5h150a5 5 0 0 1 5 5v110a5 5 0 0 1-5 5h-150a5 5 0 0 1-5-5z" stroke="#000" stroke-width="2" fill="#ced4db"/><g><use xlink:href="#v" transform="matrix(1,0,0,1,583.6011134308249,712.5509645647969) translate(34.525 50.4)"/></g><path d="M865.04 705.55a5 5 0 0 1 5-5h150a5 5 0 0 1 5 5v110a5 5 0 0 1-5 5h-150a5 5 0 0 1-5-5z" fill="#fff"/><path d="M890.04 700.55h20m10 0h20m10 0h20m10 0h20m10 0h10l.78.06.76.2.73.3.68.4.6.5.5.6.4.68.32.73.18.77.06.78v9.17m0 9.16v18.34m0 9.16v18.34m0 9.16v18.34m0 9.16v9.17l-.06.78-.18.77-.3.72-.4.67-.52.6-.6.5-.67.4-.7.3-.78.2-.78.05h-10m-10 0h-20m-10 0h-20m-10 0h-20m-10 0h-20m-10 0h-10l-.78-.06-.76-.2-.73-.3-.67-.4-.6-.5-.5-.6-.4-.68-.32-.72-.18-.77-.06-.78v-9.17m0-9.16v-18.34m0-9.16v-18.34m0-9.16v-18.34m0-9.16v-9.17l.06-.78.18-.76.3-.72.4-.67.52-.6.6-.5.67-.4.73-.3.76-.2.78-.05h10" stroke="#1071e5" stroke-width="2" fill="none"/><g><use xlink:href="#Q" transform="matrix(1,0,0,1,877.0396115875542,712.5509645647969) translate(12.049999999999997 50.4)"/><use xlink:href="#A" transform="matrix(1,0,0,1,877.0396115875542,712.5509645647969) translate(72.94999999999999 50.4)"/></g><path d="M863.04 760.55h-10.72m-10.72 0h-21.43m-10.72 0H788m-10.7 0h-21.44m-10.72 0h-10.72" stroke="#1071e5" stroke-width="2" fill="none"/><path d="M864.04 761.55H863v-2h1.04z" stroke="#1071e5" stroke-width=".05" fill="#1071e5"/><path d="M751.78 750.37l-17.2 10.18 17.2 10.18" stroke="#1071e5" stroke-width="2" fill="none"/><path d="M652.12 698.65l-1-.02.56-26.65h1zm2.14-101.25l-.22 10.58h-1l.22-10.6z" stroke="#3a414a" stroke-width=".05" fill="#3a414a"/><path d="M654.26 597.4h-1v-.5h1z" fill="#3a414a"/><path d="M654.3 597.44l-1.06-.02v-.55h1.06zm-1-.53v.47l.94.02v-.5zM651.64 697.6l10.1-16.3.85.54-11 17.7-10.23-18.15.87-.5z" stroke="#3a414a" stroke-width=".05" fill="#3a414a"/><g><use xlink:href="#w" transform="matrix(1,0,0,1,626.2451702091922,607.9790007585201) translate(12.301296296296298 14.222222222222223)"/><use xlink:href="#R" transform="matrix(1,0,0,1,626.2451702091922,607.9790007585201) translate(0.004999999999999005 35.55555555555556)"/><use xlink:href="#y" transform="matrix(1,0,0,1,626.2451702091922,607.9790007585201) translate(2.918580246913585 56.88888888888889)"/></g><defs><path d="M240 0l2-218c-23 76-54 145-80 218h-23L58-218 59 0H30v-248h44l77 211c21-75 51-140 76-211h43V0h-30" id="S"/><path d="M24-231v-30h32v30H24zM24 0v-190h32V0H24" id="T"/><path d="M117-194c89-4 53 116 60 194h-32v-121c0-31-8-49-39-48C34-167 62-67 57 0H25l-1-190h30c1 10-1 24 2 32 11-22 29-35 61-36" id="U"/><path d="M100-194c63 0 86 42 84 106H49c0 40 14 67 53 68 26 1 43-12 49-29l28 8c-11 28-37 45-77 45C44 4 14-33 15-96c1-61 26-98 85-98zm52 81c6-60-76-77-97-28-3 7-6 17-6 28h103" id="V"/><g id="a"><use transform="matrix(0.05,0,0,0.05,0,0)" xlink:href="#S"/><use transform="matrix(0.05,0,0,0.05,14.950000000000001,0)" xlink:href="#T"/><use transform="matrix(0.05,0,0,0.05,18.900000000000002,0)" xlink:href="#U"/><use transform="matrix(0.05,0,0,0.05,28.900000000000002,0)" xlink:href="#V"/></g><path fill="#333" d="M141-36C126-15 110 5 73 4 37 3 15-17 15-53c-1-64 63-63 125-63 3-35-9-54-41-54-24 1-41 7-42 31l-33-3c5-37 33-52 76-52 45 0 72 20 72 64v82c-1 20 7 32 28 27v20c-31 9-61-2-59-35zM48-53c0 20 12 33 32 33 41-3 63-29 60-74-43 2-92-5-92 41" id="W"/><path fill="#333" d="M85-194c31 0 48 13 60 33l-1-100h32l1 261h-30c-2-10 0-23-3-31C134-8 116 4 85 4 32 4 16-35 15-94c0-66 23-100 70-100zm9 24c-40 0-46 34-46 75 0 40 6 74 45 74 42 0 51-32 51-76 0-42-9-74-50-73" id="X"/><path fill="#333" d="M24-231v-30h32v30H24zM24 0v-190h32V0H24" id="Y"/><path fill="#333" d="M59-47c-2 24 18 29 38 22v24C64 9 27 4 27-40v-127H5v-23h24l9-43h21v43h35v23H59v120" id="Z"/><path fill="#333" d="M100-194c62-1 85 37 85 99 1 63-27 99-86 99S16-35 15-95c0-66 28-99 85-99zM99-20c44 1 53-31 53-75 0-43-8-75-51-75s-53 32-53 75 10 74 51 75" id="aa"/><path fill="#333" d="M117-194c89-4 53 116 60 194h-32v-121c0-31-8-49-39-48C34-167 62-67 57 0H25l-1-190h30c1 10-1 24 2 32 11-22 29-35 61-36" id="ab"/><path fill="#333" d="M24 0v-261h32V0H24" id="ac"/><g id="b"><use transform="matrix(0.04938271604938272,0,0,0.04938271604938272,0,0)" xlink:href="#W"/><use transform="matrix(0.04938271604938272,0,0,0.04938271604938272,9.876543209876544,0)" xlink:href="#X"/><use transform="matrix(0.04938271604938272,0,0,0.04938271604938272,19.75308641975309,0)" xlink:href="#X"/><use transform="matrix(0.04938271604938272,0,0,0.04938271604938272,29.629629629629633,0)" xlink:href="#Y"/><use transform="matrix(0.04938271604938272,0,0,0.04938271604938272,33.53086419753087,0)" xlink:href="#Z"/><use transform="matrix(0.04938271604938272,0,0,0.04938271604938272,38.46913580246914,0)" xlink:href="#Y"/><use transform="matrix(0.04938271604938272,0,0,0.04938271604938272,42.370370370370374,0)" xlink:href="#aa"/><use transform="matrix(0.04938271604938272,0,0,0.04938271604938272,52.24691358024692,0)" xlink:href="#ab"/><use transform="matrix(0.04938271604938272,0,0,0.04938271604938272,62.12345679012346,0)" xlink:href="#W"/><use transform="matrix(0.04938271604938272,0,0,0.04938271604938272,72,0)" xlink:href="#ac"/></g><path fill="#333" d="M179-190L93 31C79 59 56 82 12 73V49c39 6 53-20 64-50L1-190h34L92-34l54-156h33" id="ad"/><path fill="#333" d="M115-194c55 1 70 41 70 98S169 2 115 4C84 4 66-9 55-30l1 105H24l-1-265h31l2 30c10-21 28-34 59-34zm-8 174c40 0 45-34 45-75s-6-73-45-74c-42 0-51 32-51 76 0 43 10 73 51 73" id="ae"/><path fill="#333" d="M100-194c63 0 86 42 84 106H49c0 40 14 67 53 68 26 1 43-12 49-29l28 8c-11 28-37 45-77 45C44 4 14-33 15-96c1-61 26-98 85-98zm52 81c6-60-76-77-97-28-3 7-6 17-6 28h103" id="af"/><g id="c"><use transform="matrix(0.04938271604938272,0,0,0.04938271604938272,0,0)" xlink:href="#Z"/><use transform="matrix(0.04938271604938272,0,0,0.04938271604938272,4.938271604938272,0)" xlink:href="#ad"/><use transform="matrix(0.04938271604938272,0,0,0.04938271604938272,13.827160493827162,0)" xlink:href="#ae"/><use transform="matrix(0.04938271604938272,0,0,0.04938271604938272,23.703703703703706,0)" xlink:href="#af"/></g><path d="M212-179c-10-28-35-45-73-45-59 0-87 40-87 99 0 60 29 101 89 101 43 0 62-24 78-52l27 14C228-24 195 4 139 4 59 4 22-46 18-125c-6-104 99-153 187-111 19 9 31 26 39 46" id="ag"/><path d="M24 0v-261h32V0H24" id="ah"/><path d="M141-36C126-15 110 5 73 4 37 3 15-17 15-53c-1-64 63-63 125-63 3-35-9-54-41-54-24 1-41 7-42 31l-33-3c5-37 33-52 76-52 45 0 72 20 72 64v82c-1 20 7 32 28 27v20c-31 9-61-2-59-35zM48-53c0 20 12 33 32 33 41-3 63-29 60-74-43 2-92-5-92 41" id="ai"/><path d="M135-143c-3-34-86-38-87 0 15 53 115 12 119 90S17 21 10-45l28-5c4 36 97 45 98 0-10-56-113-15-118-90-4-57 82-63 122-42 12 7 21 19 24 35" id="aj"/><g id="d"><use transform="matrix(0.05,0,0,0.05,0,0)" xlink:href="#ag"/><use transform="matrix(0.05,0,0,0.05,12.950000000000001,0)" xlink:href="#ah"/><use transform="matrix(0.05,0,0,0.05,16.900000000000002,0)" xlink:href="#ai"/><use transform="matrix(0.05,0,0,0.05,26.900000000000002,0)" xlink:href="#aj"/><use transform="matrix(0.05,0,0,0.05,35.900000000000006,0)" xlink:href="#aj"/></g><path d="M101-234c-31-9-42 10-38 44h38v23H63V0H32v-167H5v-23h27c-7-52 17-82 69-68v24" id="ak"/><path d="M114-163C36-179 61-72 57 0H25l-1-190h30c1 12-1 29 2 39 6-27 23-49 58-41v29" id="al"/><path d="M100-194c62-1 85 37 85 99 1 63-27 99-86 99S16-35 15-95c0-66 28-99 85-99zM99-20c44 1 53-31 53-75 0-43-8-75-51-75s-53 32-53 75 10 74 51 75" id="am"/><path d="M210-169c-67 3-38 105-44 169h-31v-121c0-29-5-50-35-48C34-165 62-65 56 0H25l-1-190h30c1 10-1 24 2 32 10-44 99-50 107 0 11-21 27-35 58-36 85-2 47 119 55 194h-31v-121c0-29-5-49-35-48" id="an"/><g id="e"><use transform="matrix(0.05,0,0,0.05,0,0)" xlink:href="#ak"/><use transform="matrix(0.05,0,0,0.05,5,0)" xlink:href="#al"/><use transform="matrix(0.05,0,0,0.05,10.95,0)" xlink:href="#am"/><use transform="matrix(0.05,0,0,0.05,20.95,0)" xlink:href="#an"/></g><path d="M59-47c-2 24 18 29 38 22v24C64 9 27 4 27-40v-127H5v-23h24l9-43h21v43h35v23H59v120" id="ao"/><path d="M106-169C34-169 62-67 57 0H25v-261h32l-1 103c12-21 28-36 61-36 89 0 53 116 60 194h-32v-121c2-32-8-49-39-48" id="ap"/><g id="f"><use transform="matrix(0.05,0,0,0.05,0,0)" xlink:href="#ai"/><use transform="matrix(0.05,0,0,0.05,10,0)" xlink:href="#U"/><use transform="matrix(0.05,0,0,0.05,20,0)" xlink:href="#am"/><use transform="matrix(0.05,0,0,0.05,30,0)" xlink:href="#ao"/><use transform="matrix(0.05,0,0,0.05,35,0)" xlink:href="#ap"/><use transform="matrix(0.05,0,0,0.05,45,0)" xlink:href="#V"/><use transform="matrix(0.05,0,0,0.05,55,0)" xlink:href="#al"/></g><path d="M85-194c31 0 48 13 60 33l-1-100h32l1 261h-30c-2-10 0-23-3-31C134-8 116 4 85 4 32 4 16-35 15-94c0-66 23-100 70-100zm9 24c-40 0-46 34-46 75 0 40 6 74 45 74 42 0 51-32 51-76 0-42-9-74-50-73" id="aq"/><g id="g"><use transform="matrix(0.05,0,0,0.05,0,0)" xlink:href="#an"/><use transform="matrix(0.05,0,0,0.05,14.950000000000001,0)" xlink:href="#am"/><use transform="matrix(0.05,0,0,0.05,24.950000000000003,0)" xlink:href="#aq"/><use transform="matrix(0.05,0,0,0.05,34.95,0)" xlink:href="#V"/><use transform="matrix(0.05,0,0,0.05,44.95,0)" xlink:href="#ah"/></g><path fill="#3a414a" d="M195 0l-88-114-31 24V0H24v-248h52v113l112-113h60L142-143 257 0h-62" id="ar"/><path fill="#3a414a" d="M185-48c-13 30-37 53-82 52C43 2 14-33 14-96s30-98 90-98c62 0 83 45 84 108H66c0 31 8 55 39 56 18 0 30-7 34-22zm-45-69c5-46-57-63-70-21-2 6-4 13-4 21h74" id="as"/><path fill="#3a414a" d="M123 10C108 53 80 86 19 72V37c35 8 53-11 59-39L3-190h52l48 148c12-52 28-100 44-148h51" id="at"/><g id="h"><use transform="matrix(0.06172839506172839,0,0,0.06172839506172839,0,0)" xlink:href="#ar"/><use transform="matrix(0.06172839506172839,0,0,0.06172839506172839,15.987654320987653,0)" xlink:href="#as"/><use transform="matrix(0.06172839506172839,0,0,0.06172839506172839,28.333333333333332,0)" xlink:href="#at"/><path fill="#3a414a" d="M-1.1 1.2h42.9V3.5H-1.1z"/></g><path fill="#333" d="M114-163C36-179 61-72 57 0H25l-1-190h30c1 12-1 29 2 39 6-27 23-49 58-41v29" id="au"/><g id="i"><use transform="matrix(0.04938271604938272,0,0,0.04938271604938272,0,0)" xlink:href="#ae"/><use transform="matrix(0.04938271604938272,0,0,0.04938271604938272,9.876543209876544,0)" xlink:href="#au"/><use transform="matrix(0.04938271604938272,0,0,0.04938271604938272,15.753086419753087,0)" xlink:href="#aa"/><use transform="matrix(0.04938271604938272,0,0,0.04938271604938272,25.629629629629633,0)" xlink:href="#ae"/><use transform="matrix(0.04938271604938272,0,0,0.04938271604938272,35.50617283950618,0)" xlink:href="#af"/><use transform="matrix(0.04938271604938272,0,0,0.04938271604938272,45.38271604938272,0)" xlink:href="#au"/><use transform="matrix(0.04938271604938272,0,0,0.04938271604938272,51.25925925925927,0)" xlink:href="#Z"/><use transform="matrix(0.04938271604938272,0,0,0.04938271604938272,56.19753086419754,0)" xlink:href="#ad"/></g><g id="j"><use transform="matrix(0.05,0,0,0.05,0,0)" xlink:href="#ag"/><use transform="matrix(0.05,0,0,0.05,12.950000000000001,0)" xlink:href="#ah"/><use transform="matrix(0.05,0,0,0.05,16.900000000000002,0)" xlink:href="#ai"/><use transform="matrix(0.05,0,0,0.05,26.900000000000002,0)" xlink:href="#aj"/><use transform="matrix(0.05,0,0,0.05,35.900000000000006,0)" xlink:href="#aj"/></g><g id="k"><use transform="matrix(0.05,0,0,0.05,0,0)" xlink:href="#aq"/><use transform="matrix(0.05,0,0,0.05,10,0)" xlink:href="#V"/><use transform="matrix(0.05,0,0,0.05,20,0)" xlink:href="#ak"/><use transform="matrix(0.05,0,0,0.05,25,0)" xlink:href="#T"/><use transform="matrix(0.05,0,0,0.05,28.950000000000003,0)" xlink:href="#U"/><use transform="matrix(0.05,0,0,0.05,38.95,0)" xlink:href="#V"/><use transform="matrix(0.05,0,0,0.05,48.95,0)" xlink:href="#aq"/></g><g id="l"><use transform="matrix(0.05,0,0,0.05,0,0)" xlink:href="#ap"/><use transform="matrix(0.05,0,0,0.05,10,0)" xlink:href="#V"/><use transform="matrix(0.05,0,0,0.05,20,0)" xlink:href="#al"/><use transform="matrix(0.05,0,0,0.05,25.950000000000003,0)" xlink:href="#V"/></g><path d="M87 75C49 33 22-17 22-94c0-76 28-126 65-167h31c-38 41-64 92-64 168S80 34 118 75H87" id="av"/><path d="M143 4C61 4 22-44 18-125c-5-107 100-154 193-111 17 8 29 25 37 43l-32 9c-13-25-37-40-76-40-61 0-88 39-88 99 0 61 29 100 91 101 35 0 62-11 79-27v-45h-74v-28h105v86C228-13 192 4 143 4" id="aw"/><path d="M185-189c-5-48-123-54-124 2 14 75 158 14 163 119 3 78-121 87-175 55-17-10-28-26-33-46l33-7c5 56 141 63 141-1 0-78-155-14-162-118-5-82 145-84 179-34 5 7 8 16 11 25" id="ax"/><path d="M266 0h-40l-56-210L115 0H75L2-248h35L96-30l15-64 43-154h32l59 218 59-218h35" id="ay"/><path d="M205 0l-28-72H64L36 0H1l101-248h38L239 0h-34zm-38-99l-47-123c-12 45-31 82-46 123h93" id="az"/><g id="m"><use transform="matrix(0.05,0,0,0.05,0,0)" xlink:href="#av"/><use transform="matrix(0.05,0,0,0.05,5.95,0)" xlink:href="#aw"/><use transform="matrix(0.05,0,0,0.05,19.95,0)" xlink:href="#ax"/><use transform="matrix(0.05,0,0,0.05,31.950000000000003,0)" xlink:href="#ay"/><use transform="matrix(0.05,0,0,0.05,48.25,0)" xlink:href="#az"/></g><path d="M33-261c38 41 65 92 65 168S71 34 33 75H2C39 34 66-17 66-93S39-220 2-261h31" id="aA"/><g id="n"><use transform="matrix(0.05,0,0,0.05,0,0)" xlink:href="#an"/><use transform="matrix(0.05,0,0,0.05,14.950000000000001,0)" xlink:href="#am"/><use transform="matrix(0.05,0,0,0.05,24.950000000000003,0)" xlink:href="#aq"/><use transform="matrix(0.05,0,0,0.05,34.95,0)" xlink:href="#V"/><use transform="matrix(0.05,0,0,0.05,44.95,0)" xlink:href="#ah"/><use transform="matrix(0.05,0,0,0.05,48.900000000000006,0)" xlink:href="#aj"/><use transform="matrix(0.05,0,0,0.05,57.900000000000006,0)" xlink:href="#aA"/></g><path d="M63-220v92h138v28H63V0H30v-248h175v28H63" id="aB"/><path d="M84 4C-5 8 30-112 23-190h32v120c0 31 7 50 39 49 72-2 45-101 50-169h31l1 190h-30c-1-10 1-25-2-33-11 22-28 36-60 37" id="aC"/><g id="o"><use transform="matrix(0.05,0,0,0.05,0,0)" xlink:href="#aB"/><use transform="matrix(0.05,0,0,0.05,10.950000000000001,0)" xlink:href="#V"/><use transform="matrix(0.05,0,0,0.05,20.950000000000003,0)" xlink:href="#ai"/><use transform="matrix(0.05,0,0,0.05,30.950000000000003,0)" xlink:href="#ao"/><use transform="matrix(0.05,0,0,0.05,35.95,0)" xlink:href="#aC"/><use transform="matrix(0.05,0,0,0.05,45.95,0)" xlink:href="#al"/><use transform="matrix(0.05,0,0,0.05,51.900000000000006,0)" xlink:href="#V"/></g><g id="p"><use transform="matrix(0.05,0,0,0.05,0,0)" xlink:href="#ax"/><use transform="matrix(0.05,0,0,0.05,12,0)" xlink:href="#T"/><use transform="matrix(0.05,0,0,0.05,15.949999999999998,0)" xlink:href="#ao"/><use transform="matrix(0.05,0,0,0.05,20.95,0)" xlink:href="#V"/></g><g id="q"><use transform="matrix(0.05,0,0,0.05,0,0)" xlink:href="#S"/><use transform="matrix(0.05,0,0,0.05,14.950000000000001,0)" xlink:href="#ai"/><use transform="matrix(0.05,0,0,0.05,24.950000000000003,0)" xlink:href="#U"/><use transform="matrix(0.05,0,0,0.05,34.95,0)" xlink:href="#S"/><use transform="matrix(0.05,0,0,0.05,49.900000000000006,0)" xlink:href="#ai"/><use transform="matrix(0.05,0,0,0.05,59.900000000000006,0)" xlink:href="#aq"/><use transform="matrix(0.05,0,0,0.05,69.9,0)" xlink:href="#V"/></g><g id="r"><use transform="matrix(0.05,0,0,0.05,0,0)" xlink:href="#aB"/><use transform="matrix(0.05,0,0,0.05,10.950000000000001,0)" xlink:href="#V"/><use transform="matrix(0.05,0,0,0.05,20.950000000000003,0)" xlink:href="#ai"/><use transform="matrix(0.05,0,0,0.05,30.950000000000003,0)" xlink:href="#ao"/><use transform="matrix(0.05,0,0,0.05,35.95,0)" xlink:href="#aC"/><use transform="matrix(0.05,0,0,0.05,45.95,0)" xlink:href="#al"/><use transform="matrix(0.05,0,0,0.05,51.900000000000006,0)" xlink:href="#V"/></g><path fill="#333" d="M135-143c-3-34-86-38-87 0 15 53 115 12 119 90S17 21 10-45l28-5c4 36 97 45 98 0-10-56-113-15-118-90-4-57 82-63 122-42 12 7 21 19 24 35" id="aD"/><path fill="#333" d="M84 4C-5 8 30-112 23-190h32v120c0 31 7 50 39 49 72-2 45-101 50-169h31l1 190h-30c-1-10 1-25-2-33-11 22-28 36-60 37" id="aE"/><path fill="#333" d="M115-194c53 0 69 39 70 98 0 66-23 100-70 100C84 3 66-7 56-30L54 0H23l1-261h32v101c10-23 28-34 59-34zm-8 174c40 0 45-34 45-75 0-40-5-75-45-74-42 0-51 32-51 76 0 43 10 73 51 73" id="aF"/><g id="s"><use transform="matrix(0.04938271604938272,0,0,0.04938271604938272,0,0)" xlink:href="#aD"/><use transform="matrix(0.04938271604938272,0,0,0.04938271604938272,8.88888888888889,0)" xlink:href="#aE"/><use transform="matrix(0.04938271604938272,0,0,0.04938271604938272,18.765432098765434,0)" xlink:href="#aF"/></g><path fill="#333" d="M96-169c-40 0-48 33-48 73s9 75 48 75c24 0 41-14 43-38l32 2c-6 37-31 61-74 61-59 0-76-41-82-99-10-93 101-131 147-64 4 7 5 14 7 22l-32 3c-4-21-16-35-41-35" id="aG"/><g id="t"><use transform="matrix(0.04938271604938272,0,0,0.04938271604938272,0,0)" xlink:href="#aG"/><use transform="matrix(0.04938271604938272,0,0,0.04938271604938272,8.88888888888889,0)" xlink:href="#ac"/><use transform="matrix(0.04938271604938272,0,0,0.04938271604938272,12.790123456790125,0)" xlink:href="#W"/><use transform="matrix(0.04938271604938272,0,0,0.04938271604938272,22.666666666666668,0)" xlink:href="#aD"/><use transform="matrix(0.04938271604938272,0,0,0.04938271604938272,31.555555555555557,0)" xlink:href="#aD"/></g><path fill="#333" d="M101-234c-31-9-42 10-38 44h38v23H63V0H32v-167H5v-23h27c-7-52 17-82 69-68v24" id="aH"/><g id="u"><use transform="matrix(0.04938271604938272,0,0,0.04938271604938272,0,0)" xlink:href="#aa"/><use transform="matrix(0.04938271604938272,0,0,0.04938271604938272,9.876543209876544,0)" xlink:href="#aH"/></g><path d="M96-169c-40 0-48 33-48 73s9 75 48 75c24 0 41-14 43-38l32 2c-6 37-31 61-74 61-59 0-76-41-82-99-10-93 101-131 147-64 4 7 5 14 7 22l-32 3c-4-21-16-35-41-35" id="aI"/><path d="M115-194c55 1 70 41 70 98S169 2 115 4C84 4 66-9 55-30l1 105H24l-1-265h31l2 30c10-21 28-34 59-34zm-8 174c40 0 45-34 45-75s-6-73-45-74c-42 0-51 32-51 76 0 43 10 73 51 73" id="aJ"/><g id="v"><use transform="matrix(0.05,0,0,0.05,0,0)" xlink:href="#ag"/><use transform="matrix(0.05,0,0,0.05,12.950000000000001,0)" xlink:href="#am"/><use transform="matrix(0.05,0,0,0.05,22.950000000000003,0)" xlink:href="#U"/><use transform="matrix(0.05,0,0,0.05,32.95,0)" xlink:href="#aI"/><use transform="matrix(0.05,0,0,0.05,41.95,0)" xlink:href="#V"/><use transform="matrix(0.05,0,0,0.05,51.95,0)" xlink:href="#aJ"/><use transform="matrix(0.05,0,0,0.05,61.95,0)" xlink:href="#ao"/></g><path fill="#333" d="M106-169C34-169 62-67 57 0H25v-261h32l-1 103c12-21 28-36 61-36 89 0 53 116 60 194h-32v-121c2-32-8-49-39-48" id="aK"/><g id="w"><use transform="matrix(0.04938271604938272,0,0,0.04938271604938272,0,0)" xlink:href="#aK"/><use transform="matrix(0.04938271604938272,0,0,0.04938271604938272,9.876543209876544,0)" xlink:href="#W"/><use transform="matrix(0.04938271604938272,0,0,0.04938271604938272,19.75308641975309,0)" xlink:href="#aD"/></g><path fill="#333" d="M177-190C167-65 218 103 67 71c-23-6-38-20-44-43l32-5c15 47 100 32 89-28v-30C133-14 115 1 83 1 29 1 15-40 15-95c0-56 16-97 71-98 29-1 48 16 59 35 1-10 0-23 2-32h30zM94-22c36 0 50-32 50-73 0-42-14-75-50-75-39 0-46 34-46 75s6 73 46 73" id="aL"/><g id="x"><use transform="matrix(0.04938271604938272,0,0,0.04938271604938272,0,0)" xlink:href="#aa"/><use transform="matrix(0.04938271604938272,0,0,0.04938271604938272,9.876543209876544,0)" xlink:href="#ae"/><use transform="matrix(0.04938271604938272,0,0,0.04938271604938272,19.75308641975309,0)" xlink:href="#af"/><use transform="matrix(0.04938271604938272,0,0,0.04938271604938272,29.629629629629633,0)" xlink:href="#au"/><use transform="matrix(0.04938271604938272,0,0,0.04938271604938272,35.50617283950618,0)" xlink:href="#W"/><use transform="matrix(0.04938271604938272,0,0,0.04938271604938272,45.38271604938272,0)" xlink:href="#Z"/><use transform="matrix(0.04938271604938272,0,0,0.04938271604938272,50.320987654320994,0)" xlink:href="#Y"/><use transform="matrix(0.04938271604938272,0,0,0.04938271604938272,54.22222222222223,0)" xlink:href="#ab"/><use transform="matrix(0.04938271604938272,0,0,0.04938271604938272,64.09876543209877,0)" xlink:href="#aL"/></g><g id="y"><use transform="matrix(0.04938271604938272,0,0,0.04938271604938272,0,0)" xlink:href="#aD"/><use transform="matrix(0.04938271604938272,0,0,0.04938271604938272,8.88888888888889,0)" xlink:href="#Z"/><use transform="matrix(0.04938271604938272,0,0,0.04938271604938272,13.827160493827162,0)" xlink:href="#W"/><use transform="matrix(0.04938271604938272,0,0,0.04938271604938272,23.703703703703706,0)" xlink:href="#Z"/><use transform="matrix(0.04938271604938272,0,0,0.04938271604938272,28.641975308641978,0)" xlink:href="#aE"/><use transform="matrix(0.04938271604938272,0,0,0.04938271604938272,38.51851851851852,0)" xlink:href="#aD"/></g><path fill="#1071e5" d="M240 0l2-218c-23 76-54 145-80 218h-23L58-218 59 0H30v-248h44l77 211c21-75 51-140 76-211h43V0h-30" id="aM"/><path fill="#1071e5" d="M24-231v-30h32v30H24zM24 0v-190h32V0H24" id="aN"/><path fill="#1071e5" d="M117-194c89-4 53 116 60 194h-32v-121c0-31-8-49-39-48C34-167 62-67 57 0H25l-1-190h30c1 10-1 24 2 32 11-22 29-35 61-36" id="aO"/><path fill="#1071e5" d="M100-194c63 0 86 42 84 106H49c0 40 14 67 53 68 26 1 43-12 49-29l28 8c-11 28-37 45-77 45C44 4 14-33 15-96c1-61 26-98 85-98zm52 81c6-60-76-77-97-28-3 7-6 17-6 28h103" id="aP"/><g id="z"><use transform="matrix(0.05,0,0,0.05,0,0)" xlink:href="#aM"/><use transform="matrix(0.05,0,0,0.05,14.950000000000001,0)" xlink:href="#aN"/><use transform="matrix(0.05,0,0,0.05,18.900000000000002,0)" xlink:href="#aO"/><use transform="matrix(0.05,0,0,0.05,28.900000000000002,0)" xlink:href="#aP"/></g><path fill="#1071e5" d="M185-189c-5-48-123-54-124 2 14 75 158 14 163 119 3 78-121 87-175 55-17-10-28-26-33-46l33-7c5 56 141 63 141-1 0-78-155-14-162-118-5-82 145-84 179-34 5 7 8 16 11 25" id="aQ"/><path fill="#1071e5" d="M59-47c-2 24 18 29 38 22v24C64 9 27 4 27-40v-127H5v-23h24l9-43h21v43h35v23H59v120" id="aR"/><path fill="#1071e5" d="M141-36C126-15 110 5 73 4 37 3 15-17 15-53c-1-64 63-63 125-63 3-35-9-54-41-54-24 1-41 7-42 31l-33-3c5-37 33-52 76-52 45 0 72 20 72 64v82c-1 20 7 32 28 27v20c-31 9-61-2-59-35zM48-53c0 20 12 33 32 33 41-3 63-29 60-74-43 2-92-5-92 41" id="aS"/><path fill="#1071e5" d="M84 4C-5 8 30-112 23-190h32v120c0 31 7 50 39 49 72-2 45-101 50-169h31l1 190h-30c-1-10 1-25-2-33-11 22-28 36-60 37" id="aT"/><path fill="#1071e5" d="M135-143c-3-34-86-38-87 0 15 53 115 12 119 90S17 21 10-45l28-5c4 36 97 45 98 0-10-56-113-15-118-90-4-57 82-63 122-42 12 7 21 19 24 35" id="aU"/><g id="A"><use transform="matrix(0.05,0,0,0.05,0,0)" xlink:href="#aQ"/><use transform="matrix(0.05,0,0,0.05,12,0)" xlink:href="#aR"/><use transform="matrix(0.05,0,0,0.05,17,0)" xlink:href="#aS"/><use transform="matrix(0.05,0,0,0.05,27,0)" xlink:href="#aR"/><use transform="matrix(0.05,0,0,0.05,32,0)" xlink:href="#aT"/><use transform="matrix(0.05,0,0,0.05,42,0)" xlink:href="#aU"/></g><g id="B"><use transform="matrix(0.05,0,0,0.05,0,0)" xlink:href="#aQ"/><use transform="matrix(0.05,0,0,0.05,12,0)" xlink:href="#aN"/><use transform="matrix(0.05,0,0,0.05,15.949999999999998,0)" xlink:href="#aR"/><use transform="matrix(0.05,0,0,0.05,20.95,0)" xlink:href="#aP"/></g><path fill="#1071e5" d="M127-220V0H93v-220H8v-28h204v28h-85" id="aV"/><path fill="#1071e5" d="M179-190L93 31C79 59 56 82 12 73V49c39 6 53-20 64-50L1-190h34L92-34l54-156h33" id="aW"/><path fill="#1071e5" d="M115-194c55 1 70 41 70 98S169 2 115 4C84 4 66-9 55-30l1 105H24l-1-265h31l2 30c10-21 28-34 59-34zm-8 174c40 0 45-34 45-75s-6-73-45-74c-42 0-51 32-51 76 0 43 10 73 51 73" id="aX"/><g id="C"><use transform="matrix(0.05,0,0,0.05,0,0)" xlink:href="#aV"/><use transform="matrix(0.05,0,0,0.05,9.950000000000001,0)" xlink:href="#aW"/><use transform="matrix(0.05,0,0,0.05,18.950000000000003,0)" xlink:href="#aX"/><use transform="matrix(0.05,0,0,0.05,28.950000000000003,0)" xlink:href="#aP"/></g><path fill="#333" d="M24-231v-30h32v30H24zM-9 49c24 4 33-6 33-30v-209h32V24c2 40-23 58-65 49V49" id="aY"/><g id="D"><use transform="matrix(0.04938271604938272,0,0,0.04938271604938272,0,0)" xlink:href="#ae"/><use transform="matrix(0.04938271604938272,0,0,0.04938271604938272,9.876543209876544,0)" xlink:href="#au"/><use transform="matrix(0.04938271604938272,0,0,0.04938271604938272,15.753086419753087,0)" xlink:href="#aa"/><use transform="matrix(0.04938271604938272,0,0,0.04938271604938272,25.629629629629633,0)" xlink:href="#aY"/><use transform="matrix(0.04938271604938272,0,0,0.04938271604938272,29.530864197530867,0)" xlink:href="#af"/><use transform="matrix(0.04938271604938272,0,0,0.04938271604938272,39.40740740740741,0)" xlink:href="#aG"/><use transform="matrix(0.04938271604938272,0,0,0.04938271604938272,48.296296296296305,0)" xlink:href="#Z"/></g><path d="M30-248c87 1 191-15 191 75 0 78-77 80-158 76V0H30v-248zm33 125c57 0 124 11 124-50 0-59-68-47-124-48v98" id="aZ"/><path d="M24-231v-30h32v30H24zM-9 49c24 4 33-6 33-30v-209h32V24c2 40-23 58-65 49V49" id="ba"/><g id="E"><use transform="matrix(0.05,0,0,0.05,0,0)" xlink:href="#aZ"/><use transform="matrix(0.05,0,0,0.05,12,0)" xlink:href="#al"/><use transform="matrix(0.05,0,0,0.05,17.95,0)" xlink:href="#am"/><use transform="matrix(0.05,0,0,0.05,27.950000000000003,0)" xlink:href="#ba"/><use transform="matrix(0.05,0,0,0.05,31.899999999999995,0)" xlink:href="#V"/><use transform="matrix(0.05,0,0,0.05,41.9,0)" xlink:href="#aI"/><use transform="matrix(0.05,0,0,0.05,50.9,0)" xlink:href="#ao"/></g><path fill="#3a414a" d="M205 0l-28-72H64L36 0H1l101-248h38L239 0h-34zm-38-99l-47-123c-12 45-31 82-46 123h93" id="bb"/><path fill="#3a414a" d="M96-169c-40 0-48 33-48 73s9 75 48 75c24 0 41-14 43-38l32 2c-6 37-31 61-74 61-59 0-76-41-82-99-10-93 101-131 147-64 4 7 5 14 7 22l-32 3c-4-21-16-35-41-35" id="bc"/><path fill="#3a414a" d="M59-47c-2 24 18 29 38 22v24C64 9 27 4 27-40v-127H5v-23h24l9-43h21v43h35v23H59v120" id="bd"/><path fill="#3a414a" d="M24-231v-30h32v30H24zM24 0v-190h32V0H24" id="be"/><path fill="#3a414a" d="M108 0H70L1-190h34L89-25l56-165h34" id="bf"/><path fill="#3a414a" d="M179-190L93 31C79 59 56 82 12 73V49c39 6 53-20 64-50L1-190h34L92-34l54-156h33" id="bg"/><g id="F"><use transform="matrix(0.049382716049382706,0,0,0.049382716049382706,0,0)" xlink:href="#bb"/><use transform="matrix(0.049382716049382706,0,0,0.049382716049382706,11.85185185185185,0)" xlink:href="#bc"/><use transform="matrix(0.049382716049382706,0,0,0.049382716049382706,20.740740740740737,0)" xlink:href="#bd"/><use transform="matrix(0.049382716049382706,0,0,0.049382716049382706,25.679012345679006,0)" xlink:href="#be"/><use transform="matrix(0.049382716049382706,0,0,0.049382716049382706,29.58024691358024,0)" xlink:href="#bf"/><use transform="matrix(0.049382716049382706,0,0,0.049382716049382706,38.469135802469125,0)" xlink:href="#be"/><use transform="matrix(0.049382716049382706,0,0,0.049382716049382706,42.37037037037036,0)" xlink:href="#bd"/><use transform="matrix(0.049382716049382706,0,0,0.049382716049382706,47.30864197530863,0)" xlink:href="#bg"/></g><path fill="#333" d="M206 0h-36l-40-164L89 0H53L-1-190h32L70-26l43-164h34l41 164 42-164h31" id="bh"/><g id="G"><use transform="matrix(0.04938271604938272,0,0,0.04938271604938272,0,0)" xlink:href="#bh"/><use transform="matrix(0.04938271604938272,0,0,0.04938271604938272,12.790123456790125,0)" xlink:href="#Y"/><use transform="matrix(0.04938271604938272,0,0,0.04938271604938272,16.69135802469136,0)" xlink:href="#Z"/><use transform="matrix(0.04938271604938272,0,0,0.04938271604938272,21.629629629629633,0)" xlink:href="#aK"/><use transform="matrix(0.04938271604938272,0,0,0.04938271604938272,31.506172839506174,0)" xlink:href="#Y"/><use transform="matrix(0.04938271604938272,0,0,0.04938271604938272,35.40740740740741,0)" xlink:href="#ab"/></g><path fill="#3a414a" d="M177-190C167-65 218 103 67 71c-23-6-38-20-44-43l32-5c15 47 100 32 89-28v-30C133-14 115 1 83 1 29 1 15-40 15-95c0-56 16-97 71-98 29-1 48 16 59 35 1-10 0-23 2-32h30zM94-22c36 0 50-32 50-73 0-42-14-75-50-75-39 0-46 34-46 75s6 73 46 73" id="bi"/><path fill="#3a414a" d="M100-194c63 0 86 42 84 106H49c0 40 14 67 53 68 26 1 43-12 49-29l28 8c-11 28-37 45-77 45C44 4 14-33 15-96c1-61 26-98 85-98zm52 81c6-60-76-77-97-28-3 7-6 17-6 28h103" id="bj"/><path fill="#3a414a" d="M117-194c89-4 53 116 60 194h-32v-121c0-31-8-49-39-48C34-167 62-67 57 0H25l-1-190h30c1 10-1 24 2 32 11-22 29-35 61-36" id="bk"/><g id="H"><use transform="matrix(0.049382716049382706,0,0,0.049382716049382706,0,0)" xlink:href="#bb"/><use transform="matrix(0.049382716049382706,0,0,0.049382716049382706,11.85185185185185,0)" xlink:href="#bi"/><use transform="matrix(0.049382716049382706,0,0,0.049382716049382706,21.728395061728392,0)" xlink:href="#bj"/><use transform="matrix(0.049382716049382706,0,0,0.049382716049382706,31.604938271604933,0)" xlink:href="#bk"/><use transform="matrix(0.049382716049382706,0,0,0.049382716049382706,41.481481481481474,0)" xlink:href="#bd"/></g><path fill="#333" d="M165-48c-4 18 1 34 23 27l-3 20c-29 8-62 0-52-35h-2C116-14 99 4 63 4 30 4 8-16 8-49c0-68 71-67 138-67 10-26 0-56-31-54-26 1-42 9-47 31l-32-5c8-67 160-71 144 15-5 28-9 54-15 81zM42-50c3 52 80 24 89-6 7-12 7-24 11-38-47 1-103-4-100 44" id="bl"/><path fill="#333" d="M55-144c13 50 104 24 104 88C159 21 15 23 1-39l26-10c6 40 102 42 102-4-13-50-104-23-104-87 0-71 143-71 148-8l-29 4c-5-35-85-37-89 0" id="bm"/><path fill="#333" d="M30-147c31-64 166-65 159 27C183-49 158 1 86 4 9 8 1-88 30-147zM88-20c53 0 68-48 68-100 0-31-11-51-44-50-52 1-68 46-68 97 0 32 13 53 44 53" id="bn"/><path fill="#333" d="M44-68c0 29 11 47 38 47 30 0 42-19 51-41l28 9C148-21 126 4 82 4 31 4 10-29 12-85c3-77 74-140 146-93 12 8 15 23 18 40l-31 5c-1-22-13-36-36-36-52 0-65 49-65 101" id="bo"/><path fill="#333" d="M50-231l6-30h32l-6 30H50zM6 0l37-190h31L37 0H6" id="bp"/><path fill="#333" d="M51-54c-9 22 5 41 31 30L79-1C43 14 10-4 19-52l22-115H19l5-23h22l19-43h21l-9 43h35l-4 23H73" id="bq"/><path fill="#333" d="M67-158c22-48 132-52 116 29L158 0h-32l25-140c3-38-53-32-70-12C52-117 51-52 38 0H6l36-190h30" id="br"/><g id="I"><use transform="matrix(0.04938271604938272,0,0,0.04938271604938272,0,0)" xlink:href="#bl"/><use transform="matrix(0.04938271604938272,0,0,0.04938271604938272,9.876543209876544,0)" xlink:href="#bm"/><use transform="matrix(0.04938271604938272,0,0,0.04938271604938272,18.765432098765434,0)" xlink:href="#bm"/><use transform="matrix(0.04938271604938272,0,0,0.04938271604938272,27.654320987654323,0)" xlink:href="#bn"/><use transform="matrix(0.04938271604938272,0,0,0.04938271604938272,37.53086419753087,0)" xlink:href="#bo"/><use transform="matrix(0.04938271604938272,0,0,0.04938271604938272,46.41975308641976,0)" xlink:href="#bp"/><use transform="matrix(0.04938271604938272,0,0,0.04938271604938272,50.320987654320994,0)" xlink:href="#bl"/><use transform="matrix(0.04938271604938272,0,0,0.04938271604938272,60.19753086419754,0)" xlink:href="#bq"/><use transform="matrix(0.04938271604938272,0,0,0.04938271604938272,65.13580246913581,0)" xlink:href="#bp"/><use transform="matrix(0.04938271604938272,0,0,0.04938271604938272,69.03703703703705,0)" xlink:href="#bn"/><use transform="matrix(0.04938271604938272,0,0,0.04938271604938272,78.9135802469136,0)" xlink:href="#br"/></g><path fill="#3a414a" d="M185-189c-5-48-123-54-124 2 14 75 158 14 163 119 3 78-121 87-175 55-17-10-28-26-33-46l33-7c5 56 141 63 141-1 0-78-155-14-162-118-5-82 145-84 179-34 5 7 8 16 11 25" id="bs"/><g id="J"><use transform="matrix(0.049382716049382706,0,0,0.049382716049382706,0,0)" xlink:href="#bs"/><use transform="matrix(0.049382716049382706,0,0,0.049382716049382706,11.85185185185185,0)" xlink:href="#bj"/><use transform="matrix(0.049382716049382706,0,0,0.049382716049382706,21.728395061728392,0)" xlink:href="#bj"/></g><path fill="#3a414a" d="M210-169c-67 3-38 105-44 169h-31v-121c0-29-5-50-35-48C34-165 62-65 56 0H25l-1-190h30c1 10-1 24 2 32 10-44 99-50 107 0 11-21 27-35 58-36 85-2 47 119 55 194h-31v-121c0-29-5-49-35-48" id="bt"/><path fill="#3a414a" d="M100-194c62-1 85 37 85 99 1 63-27 99-86 99S16-35 15-95c0-66 28-99 85-99zM99-20c44 1 53-31 53-75 0-43-8-75-51-75s-53 32-53 75 10 74 51 75" id="bu"/><path fill="#3a414a" d="M114-163C36-179 61-72 57 0H25l-1-190h30c1 12-1 29 2 39 6-27 23-49 58-41v29" id="bv"/><g id="K"><use transform="matrix(0.049382716049382706,0,0,0.049382716049382706,0,0)" xlink:href="#bt"/><use transform="matrix(0.049382716049382706,0,0,0.049382716049382706,14.765432098765428,0)" xlink:href="#bu"/><use transform="matrix(0.049382716049382706,0,0,0.049382716049382706,24.641975308641968,0)" xlink:href="#bv"/><use transform="matrix(0.049382716049382706,0,0,0.049382716049382706,30.51851851851851,0)" xlink:href="#bj"/></g><path fill="#3a414a" d="M85-194c31 0 48 13 60 33l-1-100h32l1 261h-30c-2-10 0-23-3-31C134-8 116 4 85 4 32 4 16-35 15-94c0-66 23-100 70-100zm9 24c-40 0-46 34-46 75 0 40 6 74 45 74 42 0 51-32 51-76 0-42-9-74-50-73" id="bw"/><path fill="#3a414a" d="M141-36C126-15 110 5 73 4 37 3 15-17 15-53c-1-64 63-63 125-63 3-35-9-54-41-54-24 1-41 7-42 31l-33-3c5-37 33-52 76-52 45 0 72 20 72 64v82c-1 20 7 32 28 27v20c-31 9-61-2-59-35zM48-53c0 20 12 33 32 33 41-3 63-29 60-74-43 2-92-5-92 41" id="bx"/><path fill="#3a414a" d="M24 0v-261h32V0H24" id="by"/><g id="L"><use transform="matrix(0.049382716049382706,0,0,0.049382716049382706,0,0)" xlink:href="#bw"/><use transform="matrix(0.049382716049382706,0,0,0.049382716049382706,9.87654320987654,0)" xlink:href="#bj"/><use transform="matrix(0.049382716049382706,0,0,0.049382716049382706,19.75308641975308,0)" xlink:href="#bd"/><use transform="matrix(0.049382716049382706,0,0,0.049382716049382706,24.691358024691354,0)" xlink:href="#bx"/><use transform="matrix(0.049382716049382706,0,0,0.049382716049382706,34.5679012345679,0)" xlink:href="#be"/><use transform="matrix(0.049382716049382706,0,0,0.049382716049382706,38.46913580246913,0)" xlink:href="#by"/><use transform="matrix(0.049382716049382706,0,0,0.049382716049382706,42.37037037037037,0)" xlink:href="#bj"/><use transform="matrix(0.049382716049382706,0,0,0.049382716049382706,52.24691358024691,0)" xlink:href="#bw"/></g><g id="M"><use transform="matrix(0.049382716049382706,0,0,0.049382716049382706,0,0)" xlink:href="#bb"/><use transform="matrix(0.049382716049382706,0,0,0.049382716049382706,11.85185185185185,0)" xlink:href="#bi"/><use transform="matrix(0.049382716049382706,0,0,0.049382716049382706,21.728395061728392,0)" xlink:href="#bj"/><use transform="matrix(0.049382716049382706,0,0,0.049382716049382706,31.604938271604933,0)" xlink:href="#bk"/><use transform="matrix(0.049382716049382706,0,0,0.049382716049382706,41.481481481481474,0)" xlink:href="#bd"/></g><g id="N"><use transform="matrix(0.049382716049382706,0,0,0.049382716049382706,0,0)" xlink:href="#bt"/><use transform="matrix(0.049382716049382706,0,0,0.049382716049382706,14.765432098765428,0)" xlink:href="#bu"/><use transform="matrix(0.049382716049382706,0,0,0.049382716049382706,24.641975308641968,0)" xlink:href="#bw"/><use transform="matrix(0.049382716049382706,0,0,0.049382716049382706,34.518518518518505,0)" xlink:href="#bj"/><use transform="matrix(0.049382716049382706,0,0,0.049382716049382706,44.39506172839505,0)" xlink:href="#by"/><use transform="matrix(0.049382716049382706,0,0,0.049382716049382706,48.29629629629628,0)" xlink:href="#by"/><use transform="matrix(0.049382716049382706,0,0,0.049382716049382706,52.19753086419752,0)" xlink:href="#be"/><use transform="matrix(0.049382716049382706,0,0,0.049382716049382706,56.09876543209875,0)" xlink:href="#bk"/><use transform="matrix(0.049382716049382706,0,0,0.049382716049382706,65.97530864197529,0)" xlink:href="#bi"/></g><g id="O"><use transform="matrix(0.049382716049382706,0,0,0.049382716049382706,0,0)" xlink:href="#bw"/><use transform="matrix(0.049382716049382706,0,0,0.049382716049382706,9.87654320987654,0)" xlink:href="#be"/><use transform="matrix(0.049382716049382706,0,0,0.049382716049382706,13.777777777777775,0)" xlink:href="#bx"/><use transform="matrix(0.049382716049382706,0,0,0.049382716049382706,23.654320987654316,0)" xlink:href="#bi"/><use transform="matrix(0.049382716049382706,0,0,0.049382716049382706,33.53086419753086,0)" xlink:href="#bv"/><use transform="matrix(0.049382716049382706,0,0,0.049382716049382706,39.407407407407405,0)" xlink:href="#bx"/><use transform="matrix(0.049382716049382706,0,0,0.049382716049382706,49.28395061728395,0)" xlink:href="#bt"/></g><path fill="#333" d="M66-151c12-25 30-51 66-40l-6 26C45-176 58-65 38 0H6l36-190h30" id="bz"/><path fill="#333" d="M68-162c25-46 127-43 121 31C183-60 169 1 98 4 69 5 53-11 43-31L36 0H5l52-261h31zm88 36c2-27-9-43-34-43-55 0-70 51-70 103 0 29 15 45 43 46 52 0 58-58 61-106" id="bA"/><path fill="#333" d="M67 3c-93-2-31-127-26-193h32L48-50c-3 39 53 32 70 12 30-34 30-101 43-152h32L157 0h-30c1-10 6-24 4-33-14 20-29 37-64 36" id="bB"/><g id="P"><use transform="matrix(0.04938271604938272,0,0,0.04938271604938272,0,0)" xlink:href="#bl"/><use transform="matrix(0.04938271604938272,0,0,0.04938271604938272,9.876543209876544,0)" xlink:href="#bq"/><use transform="matrix(0.04938271604938272,0,0,0.04938271604938272,14.814814814814817,0)" xlink:href="#bq"/><use transform="matrix(0.04938271604938272,0,0,0.04938271604938272,19.75308641975309,0)" xlink:href="#bz"/><use transform="matrix(0.04938271604938272,0,0,0.04938271604938272,25.629629629629633,0)" xlink:href="#bp"/><use transform="matrix(0.04938271604938272,0,0,0.04938271604938272,29.530864197530867,0)" xlink:href="#bA"/><use transform="matrix(0.04938271604938272,0,0,0.04938271604938272,39.40740740740741,0)" xlink:href="#bB"/><use transform="matrix(0.04938271604938272,0,0,0.04938271604938272,49.283950617283956,0)" xlink:href="#bq"/><use transform="matrix(0.04938271604938272,0,0,0.04938271604938272,54.22222222222223,0)" xlink:href="#bp"/><use transform="matrix(0.04938271604938272,0,0,0.04938271604938272,58.12345679012346,0)" xlink:href="#bn"/><use transform="matrix(0.04938271604938272,0,0,0.04938271604938272,68,0)" xlink:href="#br"/></g><path fill="#1071e5" d="M30-248c87 1 191-15 191 75 0 78-77 80-158 76V0H30v-248zm33 125c57 0 124 11 124-50 0-59-68-47-124-48v98" id="bC"/><path fill="#1071e5" d="M114-163C36-179 61-72 57 0H25l-1-190h30c1 12-1 29 2 39 6-27 23-49 58-41v29" id="bD"/><path fill="#1071e5" d="M100-194c62-1 85 37 85 99 1 63-27 99-86 99S16-35 15-95c0-66 28-99 85-99zM99-20c44 1 53-31 53-75 0-43-8-75-51-75s-53 32-53 75 10 74 51 75" id="bE"/><path fill="#1071e5" d="M24-231v-30h32v30H24zM-9 49c24 4 33-6 33-30v-209h32V24c2 40-23 58-65 49V49" id="bF"/><path fill="#1071e5" d="M96-169c-40 0-48 33-48 73s9 75 48 75c24 0 41-14 43-38l32 2c-6 37-31 61-74 61-59 0-76-41-82-99-10-93 101-131 147-64 4 7 5 14 7 22l-32 3c-4-21-16-35-41-35" id="bG"/><g id="Q"><use transform="matrix(0.05,0,0,0.05,0,0)" xlink:href="#bC"/><use transform="matrix(0.05,0,0,0.05,12,0)" xlink:href="#bD"/><use transform="matrix(0.05,0,0,0.05,17.95,0)" xlink:href="#bE"/><use transform="matrix(0.05,0,0,0.05,27.950000000000003,0)" xlink:href="#bF"/><use transform="matrix(0.05,0,0,0.05,31.899999999999995,0)" xlink:href="#aP"/><use transform="matrix(0.05,0,0,0.05,41.9,0)" xlink:href="#bG"/><use transform="matrix(0.05,0,0,0.05,50.9,0)" xlink:href="#aR"/></g><g id="R"><use transform="matrix(0.04938271604938272,0,0,0.04938271604938272,0,0)" xlink:href="#ae"/><use transform="matrix(0.04938271604938272,0,0,0.04938271604938272,9.876543209876544,0)" xlink:href="#au"/><use transform="matrix(0.04938271604938272,0,0,0.04938271604938272,15.753086419753087,0)" xlink:href="#aa"/><use transform="matrix(0.04938271604938272,0,0,0.04938271604938272,25.629629629629633,0)" xlink:href="#aY"/><use transform="matrix(0.04938271604938272,0,0,0.04938271604938272,29.530864197530867,0)" xlink:href="#af"/><use transform="matrix(0.04938271604938272,0,0,0.04938271604938272,39.40740740740741,0)" xlink:href="#aG"/><use transform="matrix(0.04938271604938272,0,0,0.04938271604938272,48.296296296296305,0)" xlink:href="#Z"/></g></defs></g></svg>