<svg xmlns="http://www.w3.org/2000/svg" xmlns:xlink="http://www.w3.org/1999/xlink" xmlns:lucid="lucid" width="1466.96" height="1103.35"><g transform="translate(-192.02930446116943 18.787961748722978)" lucid:page-tab-id="93F5hGJe1rx1"><path d="M0 0h2000v1500H0z" fill="#fff"/><path d="M518.5 112.53a6 6 0 0 1 6-6h657.74a6 6 0 0 1 6 6v355.2a6 6 0 0 1-6 6H524.5a6 6 0 0 1-6-6z" fill="#e3fae3"/><path d="M594.65 540.62a6 6 0 0 1 6-6h611.05a6 6 0 0 1 6 6v381.85a6 6 0 0 1-6 6H600.65a6 6 0 0 1-6-6z" fill="#cfe4ff"/><path d="M897.5 343.45a6 6 0 0 1 6-6h527.98a6 6 0 0 1 6 6v309.72a6 6 0 0 1-6 6H903.5a6 6 0 0 1-6-6z" fill="#fbf0ff"/><path d="M760.74 433.12a5 5 0 0 1 5-5h150a5 5 0 0 1 5 5v110a5 5 0 0 1-5 5h-150a5 5 0 0 1-5-5z" stroke="#1071e5" stroke-width="2" fill="#fff"/><use xlink:href="#a" transform="matrix(1,0,0,1,772.7361441621022,440.11946298199837) translate(29.049999999999997 50.4)"/><use xlink:href="#b" transform="matrix(1,0,0,1,772.7361441621022,440.11946298199837) translate(94.95 50.4)"/><path d="M1479.1 578.67a10.2 10.2 0 0 1 5.08-9.02l68.88-40.08a10.3 10.3 0 0 1 10.37 0l68.9 40.08a10.68 10.68 0 0 1 5.3 9.02l1.24 61.88a5.88 5.88 0 0 1-5.88 6h-146.52a6.12 6.12 0 0 1-6.13-6z" stroke="#3a414a" stroke-width="2" fill="#ced4db"/><use xlink:href="#c" transform="matrix(1,0,0,1,1478.988605167242,526.5540738792988) translate(59.01234567901234 51.611111111111114)"/><use xlink:href="#d" transform="matrix(1,0,0,1,1478.988605167242,526.5540738792988) translate(44.845679012345684 78.27777777777777)"/><path d="M1257.12 578.67a10.2 10.2 0 0 1 5.07-9.02l68.87-40.08a10.3 10.3 0 0 1 10.37 0l68.9 40.08a10.68 10.68 0 0 1 5.3 9.02l1.24 61.88a5.88 5.88 0 0 1-5.88 6h-146.5a6.12 6.12 0 0 1-6.13-6z" stroke="#1071e5" stroke-width="2" fill="#fff"/><use xlink:href="#e" transform="matrix(1,0,0,1,1257.0005110925354,526.5540738792987) translate(24.506172839506178 64.94444444444444)"/><use xlink:href="#f" transform="matrix(1,0,0,1,1257.0005110925354,526.5540738792987) translate(78.82716049382717 64.94444444444444)"/><path d="M268.75 362.77h-53.8v-1h53.8zm119.3 0h-54.2v-1h54.2zM388.56 362.77h-.5v-1h.5z" stroke="#3a414a" stroke-width=".05" fill="#3a414a"/><path d="M232.48 352.52l-16.5 9.75 16.5 9.75-.5.87-17.95-10.63 17.94-10.6z" stroke="#3a414a" stroke-width=".05" fill="#3a414a"/><use xlink:href="#g" transform="matrix(1,0,0,1,268.75291900857746,351.6076726723346) translate(0.005000000000002558 14.222222222222223)"/><path d="M221.3 71.17a5 5 0 0 1 5-5h150a5 5 0 0 1 5 5v110a5 5 0 0 1-5 5h-150a5 5 0 0 1-5-5z" stroke="#000" stroke-width="2" fill="#6f7681"/><use xlink:href="#h" transform="matrix(1,0,0,1,233.29612888512065,78.1651217970333) translate(21.549999999999997 41.4)"/><use xlink:href="#i" transform="matrix(1,0,0,1,233.29612888512065,78.1651217970333) translate(65.45 41.4)"/><use xlink:href="#j" transform="matrix(1,0,0,1,233.29612888512065,78.1651217970333) translate(45.55 63)"/><path d="M221.3 209.03a5 5 0 0 1 5-5h150a5 5 0 0 1 5 5v110a5 5 0 0 1-5 5h-150a5 5 0 0 1-5-5z" stroke="#000" stroke-width="2" fill="#ced4db"/><use xlink:href="#k" transform="matrix(1,0,0,1,233.29612888512065,216.02576437215208) translate(25.099999999999994 41.4)"/><use xlink:href="#l" transform="matrix(1,0,0,1,233.29612888512065,216.02576437215208) translate(75 41.4)"/><use xlink:href="#m" transform="matrix(1,0,0,1,233.29612888512065,216.02576437215208) translate(10.574999999999996 63)"/><use xlink:href="#n" transform="matrix(1,0,0,1,233.29612888512065,216.02576437215208) translate(76.525 63)"/><path d="M245.57 27.2a6 6 0 0 1 6-6h99.45a6 6 0 0 1 6 6v22a6 6 0 0 1-6 6h-99.45a6 6 0 0 1-6-6z" stroke="#000" stroke-opacity="0" fill="#fff" fill-opacity="0"/><use xlink:href="#o" transform="matrix(1,0,0,1,250.56970366508494,26.212038251277022) translate(30.165493827160496 19.34027777777778)"/><path d="M221.3 399.62a5 5 0 0 1 5-5h150a5 5 0 0 1 5 5v110a5 5 0 0 1-5 5h-150a5 5 0 0 1-5-5z" stroke="#1071e5" stroke-width="2" fill="#fff"/><use xlink:href="#p" transform="matrix(1,0,0,1,233.29612888512065,406.6222372724817) translate(16.5 41.4)"/><use xlink:href="#q" transform="matrix(1,0,0,1,233.29612888512065,406.6222372724817) translate(89.5 41.4)"/><use xlink:href="#r" transform="matrix(1,0,0,1,233.29612888512065,406.6222372724817) translate(109.5 41.4)"/><use xlink:href="#s" transform="matrix(1,0,0,1,233.29612888512065,406.6222372724817) translate(45.55 63)"/><path d="M388.06 552.63h-4.8v-1h4.8zm-9.62 0h-9.6v-1h9.6zm-14.42 0h-9.62v-1h9.62zm-115.42 0h-9.62v-1h9.62zm-14.43 0h-9.6v-1h9.6zm-14.42 0h-4.8v-1h4.8zM388.56 552.63h-.5v-1h.5z" stroke="#1071e5" stroke-width=".05" fill="#1071e5"/><path d="M232.48 542.38l-16.5 9.75 16.5 9.75-.5.86-17.95-10.6 17.94-10.62z" stroke="#1071e5" stroke-width=".05" fill="#1071e5"/><use xlink:href="#t" transform="matrix(1,0,0,1,249.49365974931823,541.4663428172785) translate(0 14.222222222222223)"/><use xlink:href="#u" transform="matrix(1,0,0,1,249.49365974931823,541.4663428172785) translate(17.728395061728396 14.222222222222223)"/><use xlink:href="#v" transform="matrix(1,0,0,1,249.49365974931823,541.4663428172785) translate(88.79012345679011 14.222222222222223)"/><path d="M223.93 681.6a6 6 0 0 1 6-6h142.74a6 6 0 0 1 6 6v14.53a6 6 0 0 1-6 6H229.93a6 6 0 0 1-6-6z" stroke="#000" stroke-opacity="0" fill="#fff" fill-opacity="0"/><use xlink:href="#w" transform="matrix(1,0,0,1,228.92705360142557,680.6057518707337) translate(15.154320987654323 17.77777777777778)"/><use xlink:href="#x" transform="matrix(1,0,0,1,228.92705360142557,680.6057518707337) translate(76.82098765432099 17.77777777777778)"/><path d="M1123.12 850.57h-1v-32.3h1zm0-74.95h-1v-32.7h1z" stroke="#3a414a" stroke-width=".05" fill="#3a414a"/><path d="M1123.12 742.94h-1v-.52h1z" fill="#3a414a"/><path d="M1123.14 742.96h-1.05v-.56h1.04zm-1-.5v.45h.95v-.45zM1133.23 833.53l-10.6 17.95-10.62-17.95.87-.5 9.75 16.48 9.75-16.48z" stroke="#3a414a" stroke-width=".05" fill="#3a414a"/><use xlink:href="#y" transform="matrix(1,0,0,1,1079.7283678779852,775.6170262260665) translate(8.869197530864199 14.222222222222223)"/><use xlink:href="#z" transform="matrix(1,0,0,1,1079.7283678779852,775.6170262260665) translate(0.005000000000002558 35.55555555555556)"/><path d="M1045.86 857.48a5 5 0 0 1 5-5h143.52a5 5 0 0 1 5 5v55.6a5 5 0 0 1-5 5h-143.52a5 5 0 0 1-5-5z" stroke="#1071e5" stroke-width="2" fill="#fff"/><use xlink:href="#A" transform="matrix(1,0,0,1,1057.860010312506,864.4765022195774) translate(20.246296296296286 16.491666666666667)"/><use xlink:href="#B" transform="matrix(1,0,0,1,1057.860010312506,864.4765022195774) translate(64.49444444444444 16.491666666666667)"/><use xlink:href="#C" transform="matrix(1,0,0,1,1057.860010312506,864.4765022195774) translate(1.4685185185185006 37.29166666666667)"/><use xlink:href="#D" transform="matrix(1,0,0,1,1057.860010312506,864.4765022195774) translate(45.71666666666666 37.29166666666667)"/><use xlink:href="#E" transform="matrix(1,0,0,1,1057.860010312506,864.4765022195774) translate(74.60555555555555 37.29166666666667)"/><use xlink:href="#F" transform="matrix(1,0,0,1,1057.860010312506,864.4765022195774) translate(109.27222222222224 37.29166666666667)"/><path d="M1122.12 677.26l-.54.85-83.78-53v-1.18zm-151.43-95.8v1.18l-52.6-33.27.54-.85z" stroke="#3a414a" stroke-width=".05" fill="#3a414a"/><path d="M918.65 548.53l-.53.85-.78-.5.25-.05.86-.36z" fill="#3a414a"/><path d="M918.7 548.52l-.58.9-.84-.54.3-.08.88-.36zm-1.1.33l-.2.05.7.44.5-.8-.14-.04zM1122.62 678.17l-20.84-.62.03-1 19.16.57-8.72-17.05.9-.46z" stroke="#3a414a" stroke-width=".05" fill="#3a414a"/><use xlink:href="#G" transform="matrix(1,0,0,1,970.6891779104276,571.2782082573707) translate(16.770432098765433 14.222222222222223)"/><use xlink:href="#H" transform="matrix(1,0,0,1,970.6891779104276,571.2782082573707) translate(5.95561728395062 35.55555555555556)"/><use xlink:href="#I" transform="matrix(1,0,0,1,970.6891779104276,571.2782082573707) translate(0.005000000000002558 56.88888888888889)"/><path d="M914.2 677.26h-1v-31.6h1zm0-95.6h-1V549.6h1z" stroke="#3a414a" stroke-width=".05" fill="#3a414a"/><path d="M914.2 549.63h-1v-.5h1z" fill="#3a414a"/><path d="M914.2 549.66h-1.04v-.57h1.06zm-1-.52v.47h.96v-.46zM924.3 660.23l-10.6 17.94-10.62-17.94.86-.5 9.75 16.48 9.74-16.48z" stroke="#3a414a" stroke-width=".05" fill="#3a414a"/><use xlink:href="#G" transform="matrix(1,0,0,1,878.2083075129628,581.6455811227268) translate(18.696358024691357 14.222222222222223)"/><use xlink:href="#J" transform="matrix(1,0,0,1,878.2083075129628,581.6455811227268) translate(0.005000000000002558 35.55555555555556)"/><use xlink:href="#I" transform="matrix(1,0,0,1,878.2083075129628,581.6455811227268) translate(1.9309259259259264 56.88888888888889)"/><path d="M914.2 850.57h-1v-32.3h1zm0-74.95h-1v-32.7h1z" stroke="#3a414a" stroke-width=".05" fill="#3a414a"/><path d="M914.2 742.94h-1v-.52h1z" fill="#3a414a"/><path d="M914.2 742.96h-1.04v-.56h1.06zm-1-.5v.45h.96v-.45zM924.3 833.53l-10.6 17.95-10.62-17.95.86-.5 9.75 16.48 9.74-16.48z" stroke="#3a414a" stroke-width=".05" fill="#3a414a"/><use xlink:href="#K" transform="matrix(1,0,0,1,884.603369241358,775.6170262260665) translate(11.80746913580247 14.222222222222223)"/><use xlink:href="#L" transform="matrix(1,0,0,1,884.603369241358,775.6170262260665) translate(0.004999999999999005 35.55555555555556)"/><path d="M836.93 857.48a5 5 0 0 1 5-5h143.52a5 5 0 0 1 5 5v55.6a5 5 0 0 1-5 5H841.93a5 5 0 0 1-5-5z" stroke="#1071e5" stroke-width="2" fill="#fff"/><use xlink:href="#M" transform="matrix(1,0,0,1,848.9325425400765,864.4765022195774) translate(25.61481481481482 24.366666666666667)"/><path d="M420.35 635.3a5 5 0 0 1 5-5h150a5 5 0 0 1 5 5v110a5 5 0 0 1-5 5h-150a5 5 0 0 1-5-5z" stroke="#000" stroke-width="2" fill="#ced4db"/><use xlink:href="#N" transform="matrix(1,0,0,1,432.34672903976355,642.2979826007879) translate(48.55 41.4)"/><use xlink:href="#O" transform="matrix(1,0,0,1,432.34672903976355,642.2979826007879) translate(41 63)"/><path d="M1217.7 949.56a5 5 0 0 1 5-5h150a5 5 0 0 1 5 5v110a5 5 0 0 1-5 5h-150a5 5 0 0 1-5-5z" stroke="#000" stroke-width="2" fill="#ced4db"/><use xlink:href="#P" transform="matrix(1,0,0,1,1229.7043518589553,956.5620079656303) translate(50.5 41.4)"/><use xlink:href="#Q" transform="matrix(1,0,0,1,1229.7043518589553,956.5620079656303) translate(37.05 63)"/><path d="M933.5 949.56a5 5 0 0 1 5-5h150a5 5 0 0 1 5 5v110a5 5 0 0 1-5 5h-150a5 5 0 0 1-5-5z" stroke="#000" stroke-width="2" fill="#ced4db"/><use xlink:href="#P" transform="matrix(1,0,0,1,945.4900813403026,956.5620079656303) translate(50.5 41.4)"/><use xlink:href="#R" transform="matrix(1,0,0,1,945.4900813403026,956.5620079656303) translate(28.549999999999997 63)"/><path d="M1257 6.2a5 5 0 0 1 5-5h150a5 5 0 0 1 5 5v110a5 5 0 0 1-5 5h-150a5 5 0 0 1-5-5z" stroke="#000" stroke-width="2" fill="#ced4db"/><use xlink:href="#S" transform="matrix(1,0,0,1,1269.0005110925354,13.212038251277022) translate(47 41.4)"/><use xlink:href="#T" transform="matrix(1,0,0,1,1269.0005110925354,13.212038251277022) translate(34.525 63)"/><path d="M1093.5 684.17a5 5 0 0 1 5-5h48.24a5 5 0 0 1 5 5v52.25a5 5 0 0 1-5 5h-48.25a5 5 0 0 1-5-5z" stroke="#1071e5" stroke-width="2" fill="#fff"/><use xlink:href="#U" transform="matrix(1,0,0,1,1105.4900813403026,691.1717478992202) translate(5 24.15)"/><use xlink:href="#V" transform="matrix(1,0,0,1,1105.4900813403026,691.1717478992202) translate(10 24.15)"/><use xlink:href="#W" transform="matrix(1,0,0,1,1105.4900813403026,691.1717478992202) translate(25 24.15)"/><path d="M884.56 684.17a5 5 0 0 1 5-5h48.26a5 5 0 0 1 5 5v52.25a5 5 0 0 1-5 5h-48.26a5 5 0 0 1-5-5z" stroke="#1071e5" stroke-width="2" fill="#fff"/><use xlink:href="#U" transform="matrix(1,0,0,1,896.5626135678729,691.1717478992202) translate(5 24.15)"/><use xlink:href="#V" transform="matrix(1,0,0,1,896.5626135678729,691.1717478992202) translate(10 24.15)"/><use xlink:href="#W" transform="matrix(1,0,0,1,896.5626135678729,691.1717478992202) translate(25 24.15)"/><path d="M1088.26 462a5 5 0 0 1 5-5h48.25a5 5 0 0 1 5 5v52.25a5 5 0 0 1-5 5h-48.24a5 5 0 0 1-5-5z" stroke="#1071e5" stroke-width="2" fill="#fff"/><use xlink:href="#U" transform="matrix(1,0,0,1,1100.2591329975655,468.99322828043074) translate(5 24.15)"/><use xlink:href="#V" transform="matrix(1,0,0,1,1100.2591329975655,468.99322828043074) translate(10 24.15)"/><use xlink:href="#W" transform="matrix(1,0,0,1,1100.2591329975655,468.99322828043074) translate(25 24.15)"/><path d="M951.6 488.62h-29.36v-1h29.36zm134.75 0h-54.9v-1h54.9z" stroke="#3a414a" stroke-width=".05" fill="#3a414a"/><path d="M922.25 488.62h-.5v-1h.5z" fill="#3a414a"/><path d="M922.27 488.64h-.56v-1.05h.57zm-.5-1v.95h.45v-.96zM1087.26 488.12l-17.94 10.6-.5-.85 16.48-9.75-16.5-9.75.52-.86z" stroke="#3a414a" stroke-width=".05" fill="#3a414a"/><use xlink:href="#X" transform="matrix(1,0,0,1,951.600373609279,456.11946298199837) translate(20.202530864197538 14.222222222222223)"/><use xlink:href="#Y" transform="matrix(1,0,0,1,951.600373609279,456.11946298199837) translate(6.918580246913585 35.55555555555556)"/><use xlink:href="#Z" transform="matrix(1,0,0,1,951.600373609279,456.11946298199837) translate(0.005000000000002558 56.88888888888889)"/><path d="M1255.94 585.57l-.67.75-39.67-35.9v-1.36zm-84.8-76.73v1.35l-23.6-21.37.68-.75z" stroke="#3a414a" stroke-width=".05" fill="#3a414a"/><path d="M1148.23 488.1l-.67.73-.05-1.38z" fill="#3a414a"/><path d="M1148.26 488.1l-.72.8-.05-1.5zm-.68.67l.6-.67-.64-.6zM1256.28 586.55l-20.42-4.17.2-.98 18.76 3.84-5.68-18.3.96-.3z" stroke="#3a414a" stroke-width=".05" fill="#3a414a"/><use xlink:href="#X" transform="matrix(1,0,0,1,1171.15081246192,508.2895341505767) translate(2.4988271604938284 14.222222222222223)"/><use xlink:href="#aa" transform="matrix(1,0,0,1,1171.15081246192,508.2895341505767) translate(0.004999999999999005 35.55555555555556)"/><path d="M1257 358.73a5 5 0 0 1 5-5h150a5 5 0 0 1 5 5v110a5 5 0 0 1-5 5h-150a5 5 0 0 1-5-5z" stroke="#1071e5" stroke-width="2" fill="#fff"/><use xlink:href="#ab" transform="matrix(1,0,0,1,1269.0005110925354,365.73038691354895) translate(32.6 50.4)"/><path d="M1148.2 488.25l-.56-.83 13.62-9.33h1.77zm107.33-73.6l-30.28 20.77h-1.77l31.5-21.6z" stroke="#3a414a" stroke-width=".05" fill="#3a414a"/><path d="M1148.22 488.24l-.7.5v-1.23l.13-.08z" fill="#3a414a"/><path d="M1148.25 488.25l-.76.52v-1.27l.16-.12zm-.7-.72v1.15l.63-.44-.53-.8zM1247.2 432.63l-.9-.42 8.08-17.36-19.1 1.28-.08-1 20.8-1.4z" stroke="#3a414a" stroke-width=".05" fill="#3a414a"/><use xlink:href="#X" transform="matrix(1,0,0,1,1160.2182867087456,435.42114647406294) translate(13.313641975308645 14.222222222222223)"/><use xlink:href="#ac" transform="matrix(1,0,0,1,1160.2182867087456,435.42114647406294) translate(0.005000000000002558 35.55555555555556)"/><path d="M652.13 664.17a5 5 0 0 1 5-5h48.25a5 5 0 0 1 5 5v52.25a5 5 0 0 1-5 5h-48.25a5 5 0 0 1-5-5z" stroke="#1071e5" stroke-width="2" fill="#fff"/><use xlink:href="#U" transform="matrix(1,0,0,1,664.1305047704551,671.1717478992202) translate(5 24.15)"/><use xlink:href="#V" transform="matrix(1,0,0,1,664.1305047704551,671.1717478992202) translate(10 24.15)"/><use xlink:href="#W" transform="matrix(1,0,0,1,664.1305047704551,671.1717478992202) translate(25 24.15)"/><path d="M682.2 657.75l-.8-.6 16.32-21.73h1.25zm81.42-108.37l-16.57 22.04h-1.25l17.02-22.64z" stroke="#3a414a" stroke-width=".05" fill="#3a414a"/><path d="M763.88 548.83l.13.03-.4.53-.8-.6.24-.32z" fill="#3a414a"/><path d="M763.9 548.8l.15.04-.44.58-.83-.63.26-.35zm-1.05-.02l.75.57.36-.48-.1-.02-.8-.34zM684.54 637.56l-2.1 19.04 17.7-7.32.38.92-19.26 7.97 2.3-20.72z" stroke="#3a414a" stroke-width=".05" fill="#3a414a"/><use xlink:href="#X" transform="matrix(1,0,0,1,682.4121853800333,571.4249253377608) translate(20.251913580246917 14.222222222222223)"/><use xlink:href="#ad" transform="matrix(1,0,0,1,682.4121853800333,571.4249253377608) translate(0.005000000000002558 35.55555555555556)"/><use xlink:href="#ae" transform="matrix(1,0,0,1,682.4121853800333,571.4249253377608) translate(12.227222222222224 56.88888888888889)"/><path d="M684.46 850.56l-1 .02-.9-42.3h1zm-1.8-84.94h-1l-.9-42.7h1z" stroke="#3a414a" stroke-width=".05" fill="#3a414a"/><path d="M681.77 722.93l-1 .02v-.53h1z" fill="#3a414a"/><path d="M681.8 722.95l-1.06.02v-.57h1.04zm-1.02-.5v.47l.96-.02v-.45zM694.2 833.3L684 851.5l-11-17.72.86-.52 10.1 16.27 9.4-16.68z" stroke="#3a414a" stroke-width=".05" fill="#3a414a"/><use xlink:href="#af" transform="matrix(1,0,0,1,638.7417457425039,765.6170262260665) translate(24.671666666666678 14.222222222222223)"/><use xlink:href="#ag" transform="matrix(1,0,0,1,638.7417457425039,765.6170262260665) translate(0.005000000000002558 35.55555555555556)"/><path d="M607.22 857.48a5 5 0 0 1 5-5h143.52a5 5 0 0 1 5 5v55.6a5 5 0 0 1-5 5H612.22a5 5 0 0 1-5-5z" stroke="#1071e5" stroke-width="2" fill="#fff"/><use xlink:href="#ah" transform="matrix(1,0,0,1,619.2216512533664,864.4765022195774) translate(20.75185185185184 24.366666666666667)"/><path d="M650.63 690.3h-4.56m-4.56 0h-9.1m-4.56 0h-9.12m-4.56 0h-9.1m-4.57 0h-9.13m-4.56 0h-4.54" stroke="#1071e5" fill="none"/><path d="M651.13 690.8h-.5v-1h.5z" stroke="#1071e5" stroke-width=".05" fill="#1071e5"/><path d="M599.54 680.12l-17.2 10.18 17.2 10.18" stroke="#1071e5" fill="none"/><path d="M1014 942.65h-1v-5.03h1zm0-10.06h-1v-10.07h1zm0-15.1h-1v-10.06h1zm0-15.1h-1v-10.05h1zm0-15.08h-1v-10.06h1zm0-15.1h-1v-10.05h1zm0-15.08h-1v-10.06h1zm0-15.1h-1V832h1zm0-15.08h-1V816.9h1zm0-15.1h-1v-10.05h1zm0-15.08h-1v-10.06h1zm0-15.1h-1v-10.05h1zm0-15.08h-1v-10.06h1zm0-15.1h-1v-10.05h1zm0-15.08h-1v-10.06h1zm-5.5-26.54l1 .24.94.38.87.54.8.66.65.78.53.87.4.94.23.98.1 1v5.05h-1v-5l-.08-.9-.2-.83-.33-.8-.46-.73-.56-.66-.66-.55-.73-.45-.8-.33-.85-.2-.88-.07h-5.24v-1h5.28zm-58.92.92h-5.26v-1h5.26zm15.8 0h-10.53v-1h10.52zm15.8 0h-10.54v-1h10.53zm15.78 0h-10.53v-1h10.53z" stroke="#1071e5" stroke-width=".05" fill="#1071e5"/><path d="M944.33 710.8h-.5v-1h.5z" fill="#1071e5"/><path d="M944.36 710.82h-.57v-1.05h.56zm-.52-1v.95h.46v-.95zM1024.1 925.62l-10.6 17.94-10.62-17.94.86-.5 9.75 16.48 9.74-16.5zM1298.2 942.65h-1v-5.03h1zm0-10.06h-1v-10.07h1zm0-15.1h-1v-10.06h1zm0-15.1h-1v-10.05h1zm0-15.08h-1v-10.06h1zm0-15.1h-1v-10.05h1zm0-15.08h-1v-10.06h1zm0-15.1h-1V832h1zm0-15.08h-1V816.9h1zm0-15.1h-1v-10.05h1zm0-15.08h-1v-10.06h1zm0-15.1h-1v-10.05h1zm0-15.08h-1v-10.06h1zm0-15.1h-1v-10.05h1zm0-15.08h-1v-10.06h1zm-5.48-26.54l1 .24.94.38.87.54.77.66.66.78.54.87.4.94.23.98.07 1v5.05h-1v-5l-.07-.9-.2-.83-.33-.8-.45-.73-.56-.66-.66-.55-.74-.45-.8-.33-.84-.2-.88-.07h-5.1v-1h5.14zm-134.35.92h-5.13v-1h5.13zm15.4 0h-10.27v-1h10.26zm15.37 0h-10.26v-1h10.26zm15.4 0h-10.27v-1h10.26zm15.37 0h-10.25v-1h10.26zm15.4 0h-10.26v-1h10.26zm15.38 0h-10.26v-1h10.26zm15.38 0h-10.25v-1h10.26zm15.4 0h-10.27v-1h10.25z" stroke="#1071e5" stroke-width=".05" fill="#1071e5"/><path d="M1153.26 710.8h-.52v-1h.52z" fill="#1071e5"/><path d="M1153.28 710.82h-.56v-1.05h.56zm-.5-1v.95h.45v-.95zM1308.32 925.62l-10.62 17.94-10.6-17.94.85-.5 9.75 16.48 9.75-16.5z" stroke="#1071e5" stroke-width=".05" fill="#1071e5"/><path d="M1417.3 586.55h5.03m5.04 0h10.08m5.04 0h10m4.97 0h9.94m5 0h4.96" stroke="#1071e5" fill="none"/><path d="M1417.3 587.05h-.5l-.02-1h.53z" stroke="#1071e5" stroke-width=".05" fill="#1071e5"/><path d="M1460.07 596.74l17.22-10.2-17.23-10.17M1337 352.23v-5.1m0-5.08v-10.2m0-5.08V316.6m0-5.1v-10.18m0-5.1v-10.18m0-5.1v-10.17m0-5.1V255.5m0-5.1v-10.18m0-5.1v-10.17m0-5.1v-10.18m0-5.1V194.4m0-5.1v-10.17m0-5.1v-10.18m0-5.1V148.6m0-5.1V133.3m0-5.1v-5.08" stroke="#1071e5" fill="none"/><path d="M1337.5 352.73h-1v-.5h1z" stroke="#1071e5" stroke-width=".05" fill="#1071e5"/><path d="M1347.18 140.4L1337 123.2l-10.18 17.2" stroke="#1071e5" fill="none"/><path d="M535 204.8a5 5 0 0 1 5-5h150a5 5 0 0 1 5 5v110a5 5 0 0 1-5 5H540a5 5 0 0 1-5-5z" stroke="#1071e5" stroke-width="2" fill="#fff"/><g><use xlink:href="#ai" transform="matrix(1,0,0,1,547.0118130125207,211.79966721683263) translate(47.525 50.4)"/></g><path d="M760.74 108.34a5 5 0 0 1 5-5h150a5 5 0 0 1 5 5v110a5 5 0 0 1-5 5h-150a5 5 0 0 1-5-5z" stroke="#1071e5" stroke-width="2" fill="#fff"/><g><use xlink:href="#aj" transform="matrix(1,0,0,1,772.7361441621022,115.34078924602) translate(30.674999999999997 50.4)"/><use xlink:href="#ak" transform="matrix(1,0,0,1,772.7361441621022,115.34078924602) translate(74.575 50.4)"/></g><path d="M1004.36 204.8a5 5 0 0 1 5-5h150a5 5 0 0 1 5 5v110a5 5 0 0 1-5 5h-150a5 5 0 0 1-5-5z" stroke="#1071e5" stroke-width="2" fill="#fff"/><g><use xlink:href="#al" transform="matrix(1,0,0,1,1016.3629334694447,211.79966721683263) translate(48.55 29.4)"/><use xlink:href="#am" transform="matrix(1,0,0,1,1016.3629334694447,211.79966721683263) translate(38.025 51)"/><use xlink:href="#an" transform="matrix(1,0,0,1,1016.3629334694447,211.79966721683263) translate(52.05 72.60000000000001)"/></g><path d="M840.62 426.42l-.58.8-59.4-42.92h1.7zm-87.8-63.45h-1.7l-57.94-41.88.6-.82z" stroke="#3a414a" stroke-width=".05" fill="#3a414a"/><path d="M841.6 427.12h-1.5l.5-.7z" fill="#3a414a"/><path d="M841.67 427.14h-1.62l.56-.76zm-1.52-.04h1.36l-.88-.65zM713.5 322.06l-.1 1-19.07-1.76 7.65 17.56-.92.4-8.32-19.1z" stroke="#3a414a" stroke-width=".05" fill="#3a414a"/><g><use xlink:href="#ao" transform="matrix(1,0,0,1,718.4403457582521,362.96729498527384) translate(0.005000000000002558 14.222222222222223)"/></g><path d="M841.24 426.62h-1V336.4h1zm0-111.56h-1v-89.8h1z" stroke="#3a414a" stroke-width=".05" fill="#3a414a"/><path d="M841.24 427.12h-1v-.5h1z" fill="#3a414a"/><path d="M841.26 427.14h-1.05v-.56h1.06zm-1-.5v.46h.95v-.47zM851.35 242.28l-.86.5-9.76-16.47-9.75 16.5-.88-.52 10.62-17.94z" stroke="#3a414a" stroke-width=".05" fill="#3a414a"/><g><use xlink:href="#ap" transform="matrix(1,0,0,1,758.8596009522256,315.0634594473425) translate(0.0049999999999954525 14.222222222222223)"/></g><path d="M848.27 427.25l-.56-.82 62.65-42.13h1.8zm157.9-106.18l-62.3 41.9h-1.8l63.53-42.73z" stroke="#3a414a" stroke-width=".05" fill="#3a414a"/><path d="M848.2 427.12h-1.52l1.04-.7z" fill="#3a414a"/><path d="M848.24 427.14h-1.65l1.13-.76zm-1.48-.04h1.38l-.43-.65zM997.67 338.97l-.9-.43 8.24-17.3-19.12 1.1-.05-.98 20.8-1.2z" stroke="#3a414a" stroke-width=".05" fill="#3a414a"/><g><use xlink:href="#aq" transform="matrix(1,0,0,1,853.1294224402512,362.9673157825082) translate(0.0049999999999954525 14.222222222222223)"/></g><path d="M1084.36 198.3v-4.86m0-4.85v-9.72m0-4.86v-9.7m0-4.86v-9.7m0-4.87v-9.72m0-4.85v-9.7m0-4.87v-9.7m0-4.86v-9.7m0-4.87v-9.7m0-4.86V67.2l.08-.93.22-.9.36-.88.5-.8.6-.73.72-.6.8-.5.87-.36.92-.2.94-.1h5m5 0h9.97m5 0h9.98m5 0h9.98m5 0h9.98m5 0h9.97m5 0h9.98m5 0h9.98m5 0h9.98m5 0h9.97m5 0h9.98m5 0h5" stroke="#1071e5" fill="none"/><path d="M1084.86 198.8h-1v-.5h1z" stroke="#1071e5" stroke-width=".05" fill="#1071e5"/><path d="M1237.8 71.4l17.22-10.2-17.22-10.17M840.74 101.84v-5.77m0-5.77V78.75m0-5.77V67.2l.07-.93.23-.9.36-.88.48-.8.6-.73.73-.6.8-.5.88-.36.92-.2.94-.1h5.04m5.04 0h10.08m5.04 0h10.1m5.03 0h10.08m5.04 0h10.07m5.05 0h10.08m5.04 0h10.08m5.05 0h10.08m5.04 0h10.07m5.04 0h10.1m5.04 0h10.08m5.04 0h10.1m5.03 0h10.07m5.04 0h10.1m5.03 0h10.1m5.03 0h10.08m5.04 0h10.1m5.03 0h10.1m5.03 0H1124m5.06 0h10.08m5.04 0h10.08m5.04 0h10.1m5.03 0h10.08m5.05 0h10.1m5.03 0h10.08m5.04 0h10.08m5.05 0H1245m5.05 0h5.04" stroke="#1071e5" fill="none"/><path d="M841.24 102.34h-1v-.5h1z" stroke="#1071e5" stroke-width=".05" fill="#1071e5"/><path d="M1237.8 71.4l17.22-10.2-17.22-10.17M615 198.3v-4.86m0-4.85v-9.72m0-4.86v-9.7m0-4.86v-9.7m0-4.87v-9.72m0-4.85v-9.7m0-4.87v-9.7m0-4.86v-9.7m0-4.87v-9.7m0-4.86V67.2l.1-.93.2-.9.37-.88.5-.8.6-.73.72-.6.8-.5.86-.36.9-.2.95-.1h5.04m5.04 0h10.06m5.03 0h10.07m5.03 0h10.07m5.03 0h10.06m5.04 0h10.06m5.03 0h10.07m5.03 0h10.06m5.04 0h10.06m5.03 0h10.07m5.03 0h10.07m5.03 0h10.06m5.04 0h10.07m5.04 0h10.07m5.04 0h10.06m5.04 0h10.06m5.03 0h10.07m5.03 0h10.07m5.03 0h10.06m5.03 0h10.06m5.02 0H928m5.02 0h10.06m5.04 0h10.06m5.03 0h10.08m5.03 0h10.08m5.03 0h10.07m5.03 0h10.07m5.03 0h10.07m5.03 0h10.06m5.04 0h10.06m5.03 0h10.06m5.03 0h10.06m5.03 0h10.05m5.03 0h10.07m5.03 0h10.07m5.03 0h10.06m5.04 0h10.06m5.03 0h10.07m5.03 0h10.06m5.04 0h10.06m5.04 0h10.06m5.03 0h10.07m5.03 0h5.03" stroke="#1071e5" fill="none"/><path d="M615.5 198.8h-1v-.5h1z" stroke="#1071e5" stroke-width=".05" fill="#1071e5"/><path d="M1237.8 71.4l17.22-10.2-17.22-10.17" stroke="#1071e5" fill="none"/><path d="M420.35 433.12a5 5 0 0 1 5-5h150a5 5 0 0 1 5 5v110a5 5 0 0 1-5 5h-150a5 5 0 0 1-5-5z" stroke="#000" stroke-width="2" fill="#6f7681"/><g><use xlink:href="#ar" transform="matrix(1,0,0,1,432.34672903976355,440.11946298199837) translate(46.5 41.4)"/><use xlink:href="#as" transform="matrix(1,0,0,1,432.34672903976355,440.11946298199837) translate(37.55 63)"/></g><path d="M759.24 488.12h-4.92m-4.92 0h-9.83m-4.9 0h-9.85m-4.9 0h-9.84m-4.92 0h-9.83m-4.92 0h-9.82m-4.92 0h-9.83m-4.92 0h-9.82m-4.92 0h-9.83m-4.9 0h-9.84m-4.93 0h-9.83m-4.92 0h-9.83m-4.93 0h-4.9" stroke="#1071e5" fill="none"/><path d="M759.74 488.62h-.52v-1h.52z" stroke="#1071e5" stroke-width=".05" fill="#1071e5"/><path d="M599.54 477.94l-17.2 10.18 17.2 10.18" stroke="#1071e5" fill="none"/><path d="M272.17 604.5a5 5 0 0 1 5-5h48.25a5 5 0 0 1 5 5v52.26a5 5 0 0 1-5 5h-48.25a5 5 0 0 1-5-5z" stroke="#1071e5" stroke-width="2" fill="#fff"/><g><use xlink:href="#U" transform="matrix(1,0,0,1,284.1689534585491,611.508072500995) translate(5 24.15)"/><use xlink:href="#V" transform="matrix(1,0,0,1,284.1689534585491,611.508072500995) translate(10 24.15)"/><use xlink:href="#W" transform="matrix(1,0,0,1,284.1689534585491,611.508072500995) translate(25 24.15)"/></g><defs><path fill="#1071e5" d="M185-189c-5-48-123-54-124 2 14 75 158 14 163 119 3 78-121 87-175 55-17-10-28-26-33-46l33-7c5 56 141 63 141-1 0-78-155-14-162-118-5-82 145-84 179-34 5 7 8 16 11 25" id="at"/><path fill="#1071e5" d="M141-36C126-15 110 5 73 4 37 3 15-17 15-53c-1-64 63-63 125-63 3-35-9-54-41-54-24 1-41 7-42 31l-33-3c5-37 33-52 76-52 45 0 72 20 72 64v82c-1 20 7 32 28 27v20c-31 9-61-2-59-35zM48-53c0 20 12 33 32 33 41-3 63-29 60-74-43 2-92-5-92 41" id="au"/><path fill="#1071e5" d="M210-169c-67 3-38 105-44 169h-31v-121c0-29-5-50-35-48C34-165 62-65 56 0H25l-1-190h30c1 10-1 24 2 32 10-44 99-50 107 0 11-21 27-35 58-36 85-2 47 119 55 194h-31v-121c0-29-5-49-35-48" id="av"/><path fill="#1071e5" d="M115-194c55 1 70 41 70 98S169 2 115 4C84 4 66-9 55-30l1 105H24l-1-265h31l2 30c10-21 28-34 59-34zm-8 174c40 0 45-34 45-75s-6-73-45-74c-42 0-51 32-51 76 0 43 10 73 51 73" id="aw"/><path fill="#1071e5" d="M24 0v-261h32V0H24" id="ax"/><path fill="#1071e5" d="M100-194c63 0 86 42 84 106H49c0 40 14 67 53 68 26 1 43-12 49-29l28 8c-11 28-37 45-77 45C44 4 14-33 15-96c1-61 26-98 85-98zm52 81c6-60-76-77-97-28-3 7-6 17-6 28h103" id="ay"/><g id="a"><use transform="matrix(0.05,0,0,0.05,0,0)" xlink:href="#at"/><use transform="matrix(0.05,0,0,0.05,12,0)" xlink:href="#au"/><use transform="matrix(0.05,0,0,0.05,22,0)" xlink:href="#av"/><use transform="matrix(0.05,0,0,0.05,36.95,0)" xlink:href="#aw"/><use transform="matrix(0.05,0,0,0.05,46.95,0)" xlink:href="#ax"/><use transform="matrix(0.05,0,0,0.05,50.900000000000006,0)" xlink:href="#ay"/></g><path fill="#1071e5" d="M195 0l-74-108L45 0H8l94-129-87-119h37l69 98 67-98h37l-84 118L233 0h-38" id="az"/><use transform="matrix(0.05,0,0,0.05,0,0)" xlink:href="#az" id="b"/><path fill="#3a414a" d="M135-143c-3-34-86-38-87 0 15 53 115 12 119 90S17 21 10-45l28-5c4 36 97 45 98 0-10-56-113-15-118-90-4-57 82-63 122-42 12 7 21 19 24 35" id="aA"/><path fill="#3a414a" d="M85-194c31 0 48 13 60 33l-1-100h32l1 261h-30c-2-10 0-23-3-31C134-8 116 4 85 4 32 4 16-35 15-94c0-66 23-100 70-100zm9 24c-40 0-46 34-46 75 0 40 6 74 45 74 42 0 51-32 51-76 0-42-9-74-50-73" id="aB"/><path fill="#3a414a" d="M100-194c62-1 85 37 85 99 1 63-27 99-86 99S16-35 15-95c0-66 28-99 85-99zM99-20c44 1 53-31 53-75 0-43-8-75-51-75s-53 32-53 75 10 74 51 75" id="aC"/><path fill="#3a414a" d="M33-154v-36h34v36H33zM33 0v-36h34V0H33" id="aD"/><g id="c"><use transform="matrix(0.06172839506172839,0,0,0.06172839506172839,0,0)" xlink:href="#aA"/><use transform="matrix(0.06172839506172839,0,0,0.06172839506172839,11.11111111111111,0)" xlink:href="#aB"/><use transform="matrix(0.06172839506172839,0,0,0.06172839506172839,23.45679012345679,0)" xlink:href="#aC"/><use transform="matrix(0.06172839506172839,0,0,0.06172839506172839,35.80246913580247,0)" xlink:href="#aD"/></g><path fill="#3a414a" d="M30-248c87 1 191-15 191 75 0 78-77 80-158 76V0H30v-248zm33 125c57 0 124 11 124-50 0-59-68-47-124-48v98" id="aE"/><path fill="#3a414a" d="M100-194c63 0 86 42 84 106H49c0 40 14 67 53 68 26 1 43-12 49-29l28 8c-11 28-37 45-77 45C44 4 14-33 15-96c1-61 26-98 85-98zm52 81c6-60-76-77-97-28-3 7-6 17-6 28h103" id="aF"/><path fill="#3a414a" d="M114-163C36-179 61-72 57 0H25l-1-190h30c1 12-1 29 2 39 6-27 23-49 58-41v29" id="aG"/><path fill="#3a414a" d="M117-194c89-4 53 116 60 194h-32v-121c0-31-8-49-39-48C34-167 62-67 57 0H25l-1-190h30c1 10-1 24 2 32 11-22 29-35 61-36" id="aH"/><g id="d"><use transform="matrix(0.06172839506172839,0,0,0.06172839506172839,0,0)" xlink:href="#aE"/><use transform="matrix(0.06172839506172839,0,0,0.06172839506172839,14.814814814814813,0)" xlink:href="#aF"/><use transform="matrix(0.06172839506172839,0,0,0.06172839506172839,27.160493827160494,0)" xlink:href="#aG"/><use transform="matrix(0.06172839506172839,0,0,0.06172839506172839,34.50617283950617,0)" xlink:href="#aA"/><use transform="matrix(0.06172839506172839,0,0,0.06172839506172839,45.61728395061728,0)" xlink:href="#aC"/><use transform="matrix(0.06172839506172839,0,0,0.06172839506172839,57.962962962962955,0)" xlink:href="#aH"/></g><path fill="#1071e5" d="M153-248C145-148 188 4 80 4 36 3 13-21 6-62l32-5c4 25 16 42 43 43 27 0 39-20 39-49v-147H72v-28h81" id="aI"/><path fill="#1071e5" d="M100-194c62-1 85 37 85 99 1 63-27 99-86 99S16-35 15-95c0-66 28-99 85-99zM99-20c44 1 53-31 53-75 0-43-8-75-51-75s-53 32-53 75 10 74 51 75" id="aJ"/><path fill="#1071e5" d="M106-169C34-169 62-67 57 0H25v-261h32l-1 103c12-21 28-36 61-36 89 0 53 116 60 194h-32v-121c2-32-8-49-39-48" id="aK"/><path fill="#1071e5" d="M117-194c89-4 53 116 60 194h-32v-121c0-31-8-49-39-48C34-167 62-67 57 0H25l-1-190h30c1 10-1 24 2 32 11-22 29-35 61-36" id="aL"/><g id="e"><use transform="matrix(0.06172839506172839,0,0,0.06172839506172839,0,0)" xlink:href="#aI"/><use transform="matrix(0.06172839506172839,0,0,0.06172839506172839,11.11111111111111,0)" xlink:href="#aJ"/><use transform="matrix(0.06172839506172839,0,0,0.06172839506172839,23.45679012345679,0)" xlink:href="#aK"/><use transform="matrix(0.06172839506172839,0,0,0.06172839506172839,35.80246913580247,0)" xlink:href="#aL"/></g><path fill="#1071e5" d="M24-231v-30h32v30H24zM24 0v-190h32V0H24" id="aM"/><path fill="#1071e5" d="M59-47c-2 24 18 29 38 22v24C64 9 27 4 27-40v-127H5v-23h24l9-43h21v43h35v23H59v120" id="aN"/><g id="f"><use transform="matrix(0.06172839506172839,0,0,0.06172839506172839,0,0)" xlink:href="#at"/><use transform="matrix(0.06172839506172839,0,0,0.06172839506172839,14.814814814814813,0)" xlink:href="#av"/><use transform="matrix(0.06172839506172839,0,0,0.06172839506172839,33.2716049382716,0)" xlink:href="#aM"/><use transform="matrix(0.06172839506172839,0,0,0.06172839506172839,38.148148148148145,0)" xlink:href="#aN"/><use transform="matrix(0.06172839506172839,0,0,0.06172839506172839,44.32098765432099,0)" xlink:href="#aK"/></g><path fill="#333" d="M115-194c55 1 70 41 70 98S169 2 115 4C84 4 66-9 55-30l1 105H24l-1-265h31l2 30c10-21 28-34 59-34zm-8 174c40 0 45-34 45-75s-6-73-45-74c-42 0-51 32-51 76 0 43 10 73 51 73" id="aO"/><path fill="#333" d="M114-163C36-179 61-72 57 0H25l-1-190h30c1 12-1 29 2 39 6-27 23-49 58-41v29" id="aP"/><path fill="#333" d="M100-194c62-1 85 37 85 99 1 63-27 99-86 99S16-35 15-95c0-66 28-99 85-99zM99-20c44 1 53-31 53-75 0-43-8-75-51-75s-53 32-53 75 10 74 51 75" id="aQ"/><path fill="#333" d="M100-194c63 0 86 42 84 106H49c0 40 14 67 53 68 26 1 43-12 49-29l28 8c-11 28-37 45-77 45C44 4 14-33 15-96c1-61 26-98 85-98zm52 81c6-60-76-77-97-28-3 7-6 17-6 28h103" id="aR"/><path fill="#333" d="M59-47c-2 24 18 29 38 22v24C64 9 27 4 27-40v-127H5v-23h24l9-43h21v43h35v23H59v120" id="aS"/><path fill="#333" d="M179-190L93 31C79 59 56 82 12 73V49c39 6 53-20 64-50L1-190h34L92-34l54-156h33" id="aT"/><g id="g"><use transform="matrix(0.04938271604938272,0,0,0.04938271604938272,0,0)" xlink:href="#aO"/><use transform="matrix(0.04938271604938272,0,0,0.04938271604938272,9.876543209876544,0)" xlink:href="#aP"/><use transform="matrix(0.04938271604938272,0,0,0.04938271604938272,15.753086419753087,0)" xlink:href="#aQ"/><use transform="matrix(0.04938271604938272,0,0,0.04938271604938272,25.629629629629633,0)" xlink:href="#aO"/><use transform="matrix(0.04938271604938272,0,0,0.04938271604938272,35.50617283950618,0)" xlink:href="#aR"/><use transform="matrix(0.04938271604938272,0,0,0.04938271604938272,45.38271604938272,0)" xlink:href="#aP"/><use transform="matrix(0.04938271604938272,0,0,0.04938271604938272,51.25925925925927,0)" xlink:href="#aS"/><use transform="matrix(0.04938271604938272,0,0,0.04938271604938272,56.19753086419754,0)" xlink:href="#aT"/></g><path fill="#fff" d="M212-179c-10-28-35-45-73-45-59 0-87 40-87 99 0 60 29 101 89 101 43 0 62-24 78-52l27 14C228-24 195 4 139 4 59 4 22-46 18-125c-6-104 99-153 187-111 19 9 31 26 39 46" id="aU"/><path fill="#fff" d="M100-194c62-1 85 37 85 99 1 63-27 99-86 99S16-35 15-95c0-66 28-99 85-99zM99-20c44 1 53-31 53-75 0-43-8-75-51-75s-53 32-53 75 10 74 51 75" id="aV"/><path fill="#fff" d="M114-163C36-179 61-72 57 0H25l-1-190h30c1 12-1 29 2 39 6-27 23-49 58-41v29" id="aW"/><path fill="#fff" d="M100-194c63 0 86 42 84 106H49c0 40 14 67 53 68 26 1 43-12 49-29l28 8c-11 28-37 45-77 45C44 4 14-33 15-96c1-61 26-98 85-98zm52 81c6-60-76-77-97-28-3 7-6 17-6 28h103" id="aX"/><g id="h"><use transform="matrix(0.05,0,0,0.05,0,0)" xlink:href="#aU"/><use transform="matrix(0.05,0,0,0.05,12.950000000000001,0)" xlink:href="#aV"/><use transform="matrix(0.05,0,0,0.05,22.950000000000003,0)" xlink:href="#aW"/><use transform="matrix(0.05,0,0,0.05,28.900000000000002,0)" xlink:href="#aX"/></g><path fill="#fff" d="M185-189c-5-48-123-54-124 2 14 75 158 14 163 119 3 78-121 87-175 55-17-10-28-26-33-46l33-7c5 56 141 63 141-1 0-78-155-14-162-118-5-82 145-84 179-34 5 7 8 16 11 25" id="aY"/><path fill="#fff" d="M140-251c81 0 123 46 123 126C263-46 219 4 140 4 59 4 17-45 17-125s42-126 123-126zm0 227c63 0 89-41 89-101s-29-99-89-99c-61 0-89 39-89 99S79-25 140-24" id="aZ"/><path fill="#fff" d="M205 0l-28-72H64L36 0H1l101-248h38L239 0h-34zm-38-99l-47-123c-12 45-31 82-46 123h93" id="ba"/><g id="i"><use transform="matrix(0.05,0,0,0.05,0,0)" xlink:href="#aY"/><use transform="matrix(0.05,0,0,0.05,12,0)" xlink:href="#aZ"/><use transform="matrix(0.05,0,0,0.05,26,0)" xlink:href="#aY"/><use transform="matrix(0.05,0,0,0.05,38,0)" xlink:href="#ba"/></g><path fill="#fff" d="M24 0v-261h32V0H24" id="bb"/><path fill="#fff" d="M141-36C126-15 110 5 73 4 37 3 15-17 15-53c-1-64 63-63 125-63 3-35-9-54-41-54-24 1-41 7-42 31l-33-3c5-37 33-52 76-52 45 0 72 20 72 64v82c-1 20 7 32 28 27v20c-31 9-61-2-59-35zM48-53c0 20 12 33 32 33 41-3 63-29 60-74-43 2-92-5-92 41" id="bc"/><path fill="#fff" d="M135-143c-3-34-86-38-87 0 15 53 115 12 119 90S17 21 10-45l28-5c4 36 97 45 98 0-10-56-113-15-118-90-4-57 82-63 122-42 12 7 21 19 24 35" id="bd"/><g id="j"><use transform="matrix(0.05,0,0,0.05,0,0)" xlink:href="#aU"/><use transform="matrix(0.05,0,0,0.05,12.950000000000001,0)" xlink:href="#bb"/><use transform="matrix(0.05,0,0,0.05,16.900000000000002,0)" xlink:href="#bc"/><use transform="matrix(0.05,0,0,0.05,26.900000000000002,0)" xlink:href="#bd"/><use transform="matrix(0.05,0,0,0.05,35.900000000000006,0)" xlink:href="#bd"/></g><path d="M212-179c-10-28-35-45-73-45-59 0-87 40-87 99 0 60 29 101 89 101 43 0 62-24 78-52l27 14C228-24 195 4 139 4 59 4 22-46 18-125c-6-104 99-153 187-111 19 9 31 26 39 46" id="be"/><path d="M24 0v-261h32V0H24" id="bf"/><path d="M141-36C126-15 110 5 73 4 37 3 15-17 15-53c-1-64 63-63 125-63 3-35-9-54-41-54-24 1-41 7-42 31l-33-3c5-37 33-52 76-52 45 0 72 20 72 64v82c-1 20 7 32 28 27v20c-31 9-61-2-59-35zM48-53c0 20 12 33 32 33 41-3 63-29 60-74-43 2-92-5-92 41" id="bg"/><path d="M135-143c-3-34-86-38-87 0 15 53 115 12 119 90S17 21 10-45l28-5c4 36 97 45 98 0-10-56-113-15-118-90-4-57 82-63 122-42 12 7 21 19 24 35" id="bh"/><g id="k"><use transform="matrix(0.05,0,0,0.05,0,0)" xlink:href="#be"/><use transform="matrix(0.05,0,0,0.05,12.950000000000001,0)" xlink:href="#bf"/><use transform="matrix(0.05,0,0,0.05,16.900000000000002,0)" xlink:href="#bg"/><use transform="matrix(0.05,0,0,0.05,26.900000000000002,0)" xlink:href="#bh"/><use transform="matrix(0.05,0,0,0.05,35.900000000000006,0)" xlink:href="#bh"/></g><path d="M101-234c-31-9-42 10-38 44h38v23H63V0H32v-167H5v-23h27c-7-52 17-82 69-68v24" id="bi"/><path d="M114-163C36-179 61-72 57 0H25l-1-190h30c1 12-1 29 2 39 6-27 23-49 58-41v29" id="bj"/><path d="M100-194c62-1 85 37 85 99 1 63-27 99-86 99S16-35 15-95c0-66 28-99 85-99zM99-20c44 1 53-31 53-75 0-43-8-75-51-75s-53 32-53 75 10 74 51 75" id="bk"/><path d="M210-169c-67 3-38 105-44 169h-31v-121c0-29-5-50-35-48C34-165 62-65 56 0H25l-1-190h30c1 10-1 24 2 32 10-44 99-50 107 0 11-21 27-35 58-36 85-2 47 119 55 194h-31v-121c0-29-5-49-35-48" id="bl"/><g id="l"><use transform="matrix(0.05,0,0,0.05,0,0)" xlink:href="#bi"/><use transform="matrix(0.05,0,0,0.05,5,0)" xlink:href="#bj"/><use transform="matrix(0.05,0,0,0.05,10.95,0)" xlink:href="#bk"/><use transform="matrix(0.05,0,0,0.05,20.95,0)" xlink:href="#bl"/></g><path d="M117-194c89-4 53 116 60 194h-32v-121c0-31-8-49-39-48C34-167 62-67 57 0H25l-1-190h30c1 10-1 24 2 32 11-22 29-35 61-36" id="bm"/><path d="M59-47c-2 24 18 29 38 22v24C64 9 27 4 27-40v-127H5v-23h24l9-43h21v43h35v23H59v120" id="bn"/><path d="M106-169C34-169 62-67 57 0H25v-261h32l-1 103c12-21 28-36 61-36 89 0 53 116 60 194h-32v-121c2-32-8-49-39-48" id="bo"/><path d="M100-194c63 0 86 42 84 106H49c0 40 14 67 53 68 26 1 43-12 49-29l28 8c-11 28-37 45-77 45C44 4 14-33 15-96c1-61 26-98 85-98zm52 81c6-60-76-77-97-28-3 7-6 17-6 28h103" id="bp"/><g id="m"><use transform="matrix(0.05,0,0,0.05,0,0)" xlink:href="#bg"/><use transform="matrix(0.05,0,0,0.05,10,0)" xlink:href="#bm"/><use transform="matrix(0.05,0,0,0.05,20,0)" xlink:href="#bk"/><use transform="matrix(0.05,0,0,0.05,30,0)" xlink:href="#bn"/><use transform="matrix(0.05,0,0,0.05,35,0)" xlink:href="#bo"/><use transform="matrix(0.05,0,0,0.05,45,0)" xlink:href="#bp"/><use transform="matrix(0.05,0,0,0.05,55,0)" xlink:href="#bj"/></g><path d="M85-194c31 0 48 13 60 33l-1-100h32l1 261h-30c-2-10 0-23-3-31C134-8 116 4 85 4 32 4 16-35 15-94c0-66 23-100 70-100zm9 24c-40 0-46 34-46 75 0 40 6 74 45 74 42 0 51-32 51-76 0-42-9-74-50-73" id="bq"/><g id="n"><use transform="matrix(0.05,0,0,0.05,0,0)" xlink:href="#bl"/><use transform="matrix(0.05,0,0,0.05,14.950000000000001,0)" xlink:href="#bk"/><use transform="matrix(0.05,0,0,0.05,24.950000000000003,0)" xlink:href="#bq"/><use transform="matrix(0.05,0,0,0.05,34.95,0)" xlink:href="#bp"/><use transform="matrix(0.05,0,0,0.05,44.95,0)" xlink:href="#bf"/></g><path fill="#3a414a" d="M195 0l-88-114-31 24V0H24v-248h52v113l112-113h60L142-143 257 0h-62" id="br"/><path fill="#3a414a" d="M185-48c-13 30-37 53-82 52C43 2 14-33 14-96s30-98 90-98c62 0 83 45 84 108H66c0 31 8 55 39 56 18 0 30-7 34-22zm-45-69c5-46-57-63-70-21-2 6-4 13-4 21h74" id="bs"/><path fill="#3a414a" d="M123 10C108 53 80 86 19 72V37c35 8 53-11 59-39L3-190h52l48 148c12-52 28-100 44-148h51" id="bt"/><g id="o"><use transform="matrix(0.06172839506172839,0,0,0.06172839506172839,0,0)" xlink:href="#br"/><use transform="matrix(0.06172839506172839,0,0,0.06172839506172839,15.987654320987653,0)" xlink:href="#bs"/><use transform="matrix(0.06172839506172839,0,0,0.06172839506172839,28.333333333333332,0)" xlink:href="#bt"/><path fill="#3a414a" d="M-1.1 1.2h42.9V3.5H-1.1z"/></g><path fill="#1071e5" d="M33 0v-248h34V0H33" id="bu"/><path fill="#1071e5" d="M135-143c-3-34-86-38-87 0 15 53 115 12 119 90S17 21 10-45l28-5c4 36 97 45 98 0-10-56-113-15-118-90-4-57 82-63 122-42 12 7 21 19 24 35" id="bv"/><path fill="#1071e5" d="M96-169c-40 0-48 33-48 73s9 75 48 75c24 0 41-14 43-38l32 2c-6 37-31 61-74 61-59 0-76-41-82-99-10-93 101-131 147-64 4 7 5 14 7 22l-32 3c-4-21-16-35-41-35" id="bw"/><g id="p"><use transform="matrix(0.05,0,0,0.05,0,0)" xlink:href="#bu"/><use transform="matrix(0.05,0,0,0.05,5,0)" xlink:href="#aL"/><use transform="matrix(0.05,0,0,0.05,15,0)" xlink:href="#bv"/><use transform="matrix(0.05,0,0,0.05,24,0)" xlink:href="#aN"/><use transform="matrix(0.05,0,0,0.05,29,0)" xlink:href="#au"/><use transform="matrix(0.05,0,0,0.05,39,0)" xlink:href="#aL"/><use transform="matrix(0.05,0,0,0.05,49,0)" xlink:href="#bw"/><use transform="matrix(0.05,0,0,0.05,58,0)" xlink:href="#ay"/></g><path fill="#1071e5" d="M101-234c-31-9-42 10-38 44h38v23H63V0H32v-167H5v-23h27c-7-52 17-82 69-68v24" id="bx"/><g id="q"><use transform="matrix(0.05,0,0,0.05,0,0)" xlink:href="#aJ"/><use transform="matrix(0.05,0,0,0.05,10,0)" xlink:href="#bx"/></g><use transform="matrix(0.05,0,0,0.05,0,0)" xlink:href="#au" id="r"/><path fill="#1071e5" d="M212-179c-10-28-35-45-73-45-59 0-87 40-87 99 0 60 29 101 89 101 43 0 62-24 78-52l27 14C228-24 195 4 139 4 59 4 22-46 18-125c-6-104 99-153 187-111 19 9 31 26 39 46" id="by"/><g id="s"><use transform="matrix(0.05,0,0,0.05,0,0)" xlink:href="#by"/><use transform="matrix(0.05,0,0,0.05,12.950000000000001,0)" xlink:href="#ax"/><use transform="matrix(0.05,0,0,0.05,16.900000000000002,0)" xlink:href="#au"/><use transform="matrix(0.05,0,0,0.05,26.900000000000002,0)" xlink:href="#bv"/><use transform="matrix(0.05,0,0,0.05,35.900000000000006,0)" xlink:href="#bv"/></g><g id="t"><use transform="matrix(0.04938271604938272,0,0,0.04938271604938272,0,0)" xlink:href="#aM"/><use transform="matrix(0.04938271604938272,0,0,0.04938271604938272,3.901234567901235,0)" xlink:href="#bv"/></g><g id="u"><use transform="matrix(0.04938271604938272,0,0,0.04938271604938272,0,0)" xlink:href="#aM"/><use transform="matrix(0.04938271604938272,0,0,0.04938271604938272,3.901234567901235,0)" xlink:href="#aL"/><use transform="matrix(0.04938271604938272,0,0,0.04938271604938272,13.777777777777779,0)" xlink:href="#bv"/><use transform="matrix(0.04938271604938272,0,0,0.04938271604938272,22.666666666666668,0)" xlink:href="#aN"/><use transform="matrix(0.04938271604938272,0,0,0.04938271604938272,27.60493827160494,0)" xlink:href="#au"/><use transform="matrix(0.04938271604938272,0,0,0.04938271604938272,37.48148148148148,0)" xlink:href="#aL"/><use transform="matrix(0.04938271604938272,0,0,0.04938271604938272,47.358024691358025,0)" xlink:href="#bw"/><use transform="matrix(0.04938271604938272,0,0,0.04938271604938272,56.246913580246904,0)" xlink:href="#ay"/></g><g id="v"><use transform="matrix(0.04938271604938272,0,0,0.04938271604938272,0,0)" xlink:href="#aJ"/><use transform="matrix(0.04938271604938272,0,0,0.04938271604938272,9.876543209876544,0)" xlink:href="#bx"/></g><path fill="#1071e5" d="M160-131c35 5 61 23 61 61C221 17 115-2 30 0v-248c76 3 177-17 177 60 0 33-19 50-47 57zm-97-11c50-1 110 9 110-42 0-47-63-36-110-37v79zm0 115c55-2 124 14 124-45 0-56-70-42-124-44v89" id="bz"/><path fill="#1071e5" d="M143 0L79-87 56-68V0H24v-261h32v163l83-92h37l-77 82L181 0h-38" id="bA"/><g id="w"><use transform="matrix(0.06172839506172839,0,0,0.06172839506172839,0,0)" xlink:href="#bz"/><use transform="matrix(0.06172839506172839,0,0,0.06172839506172839,14.814814814814813,0)" xlink:href="#ax"/><use transform="matrix(0.06172839506172839,0,0,0.06172839506172839,19.691358024691354,0)" xlink:href="#au"/><use transform="matrix(0.06172839506172839,0,0,0.06172839506172839,32.03703703703703,0)" xlink:href="#aL"/><use transform="matrix(0.06172839506172839,0,0,0.06172839506172839,44.38271604938271,0)" xlink:href="#bA"/></g><path fill="#1071e5" d="M190 0L58-211 59 0H30v-248h39L202-35l-2-213h31V0h-41" id="bB"/><path fill="#1071e5" d="M85-194c31 0 48 13 60 33l-1-100h32l1 261h-30c-2-10 0-23-3-31C134-8 116 4 85 4 32 4 16-35 15-94c0-66 23-100 70-100zm9 24c-40 0-46 34-46 75 0 40 6 74 45 74 42 0 51-32 51-76 0-42-9-74-50-73" id="bC"/><g id="x"><use transform="matrix(0.06172839506172839,0,0,0.06172839506172839,0,0)" xlink:href="#bB"/><use transform="matrix(0.06172839506172839,0,0,0.06172839506172839,15.987654320987653,0)" xlink:href="#aJ"/><use transform="matrix(0.06172839506172839,0,0,0.06172839506172839,28.333333333333332,0)" xlink:href="#bC"/><use transform="matrix(0.06172839506172839,0,0,0.06172839506172839,40.67901234567901,0)" xlink:href="#ay"/></g><path fill="#333" d="M85-194c31 0 48 13 60 33l-1-100h32l1 261h-30c-2-10 0-23-3-31C134-8 116 4 85 4 32 4 16-35 15-94c0-66 23-100 70-100zm9 24c-40 0-46 34-46 75 0 40 6 74 45 74 42 0 51-32 51-76 0-42-9-74-50-73" id="bD"/><path fill="#333" d="M96-169c-40 0-48 33-48 73s9 75 48 75c24 0 41-14 43-38l32 2c-6 37-31 61-74 61-59 0-76-41-82-99-10-93 101-131 147-64 4 7 5 14 7 22l-32 3c-4-21-16-35-41-35" id="bE"/><path fill="#333" d="M210-169c-67 3-38 105-44 169h-31v-121c0-29-5-50-35-48C34-165 62-65 56 0H25l-1-190h30c1 10-1 24 2 32 10-44 99-50 107 0 11-21 27-35 58-36 85-2 47 119 55 194h-31v-121c0-29-5-49-35-48" id="bF"/><path fill="#333" d="M135-143c-3-34-86-38-87 0 15 53 115 12 119 90S17 21 10-45l28-5c4 36 97 45 98 0-10-56-113-15-118-90-4-57 82-63 122-42 12 7 21 19 24 35" id="bG"/><path fill="#333" d="M33-154v-36h34v36H33zM33 0v-36h34V0H33" id="bH"/><g id="y"><use transform="matrix(0.04938271604938272,0,0,0.04938271604938272,0,0)" xlink:href="#bD"/><use transform="matrix(0.04938271604938272,0,0,0.04938271604938272,9.876543209876544,0)" xlink:href="#bE"/><use transform="matrix(0.04938271604938272,0,0,0.04938271604938272,18.765432098765434,0)" xlink:href="#aS"/><use transform="matrix(0.04938271604938272,0,0,0.04938271604938272,23.703703703703706,0)" xlink:href="#aR"/><use transform="matrix(0.04938271604938272,0,0,0.04938271604938272,33.580246913580254,0)" xlink:href="#aP"/><use transform="matrix(0.04938271604938272,0,0,0.04938271604938272,39.4567901234568,0)" xlink:href="#bF"/><use transform="matrix(0.04938271604938272,0,0,0.04938271604938272,54.22222222222223,0)" xlink:href="#bG"/><use transform="matrix(0.04938271604938272,0,0,0.04938271604938272,63.111111111111114,0)" xlink:href="#bH"/></g><path fill="#333" d="M24-231v-30h32v30H24zM24 0v-190h32V0H24" id="bI"/><path fill="#333" d="M117-194c89-4 53 116 60 194h-32v-121c0-31-8-49-39-48C34-167 62-67 57 0H25l-1-190h30c1 10-1 24 2 32 11-22 29-35 61-36" id="bJ"/><g id="z"><use transform="matrix(0.04938271604938272,0,0,0.04938271604938272,0,0)" xlink:href="#bD"/><use transform="matrix(0.04938271604938272,0,0,0.04938271604938272,9.876543209876544,0)" xlink:href="#aR"/><use transform="matrix(0.04938271604938272,0,0,0.04938271604938272,19.75308641975309,0)" xlink:href="#bG"/><use transform="matrix(0.04938271604938272,0,0,0.04938271604938272,28.641975308641978,0)" xlink:href="#bE"/><use transform="matrix(0.04938271604938272,0,0,0.04938271604938272,37.53086419753087,0)" xlink:href="#aP"/><use transform="matrix(0.04938271604938272,0,0,0.04938271604938272,43.40740740740741,0)" xlink:href="#bI"/><use transform="matrix(0.04938271604938272,0,0,0.04938271604938272,47.308641975308646,0)" xlink:href="#aO"/><use transform="matrix(0.04938271604938272,0,0,0.04938271604938272,57.18518518518519,0)" xlink:href="#aS"/><use transform="matrix(0.04938271604938272,0,0,0.04938271604938272,62.12345679012346,0)" xlink:href="#bI"/><use transform="matrix(0.04938271604938272,0,0,0.04938271604938272,66.0246913580247,0)" xlink:href="#aQ"/><use transform="matrix(0.04938271604938272,0,0,0.04938271604938272,75.90123456790124,0)" xlink:href="#bJ"/></g><path fill="#1071e5" d="M233-177c-1 41-23 64-60 70L243 0h-38l-65-103H63V0H30v-248c88 3 205-21 203 71zM63-129c60-2 137 13 137-47 0-61-80-42-137-45v92" id="bK"/><g id="A"><use transform="matrix(0.048148148148148155,0,0,0.048148148148148155,0,0)" xlink:href="#bK"/><use transform="matrix(0.048148148148148155,0,0,0.048148148148148155,12.470370370370372,0)" xlink:href="#aJ"/><use transform="matrix(0.048148148148148155,0,0,0.048148148148148155,22.1,0)" xlink:href="#bw"/><use transform="matrix(0.048148148148148155,0,0,0.048148148148148155,30.766666666666673,0)" xlink:href="#bA"/></g><path fill="#1071e5" d="M68-38c1 34 0 65-14 84H32c9-13 17-26 17-46H33v-38h35" id="bL"/><g id="B"><use transform="matrix(0.048148148148148155,0,0,0.048148148148148155,0,0)" xlink:href="#at"/><use transform="matrix(0.048148148148148155,0,0,0.048148148148148155,11.555555555555557,0)" xlink:href="#aK"/><use transform="matrix(0.048148148148148155,0,0,0.048148148148148155,21.18518518518519,0)" xlink:href="#ay"/><use transform="matrix(0.048148148148148155,0,0,0.048148148148148155,30.814814814814824,0)" xlink:href="#bC"/><use transform="matrix(0.048148148148148155,0,0,0.048148148148148155,40.44444444444446,0)" xlink:href="#bL"/></g><g id="C"><use transform="matrix(0.048148148148148155,0,0,0.048148148148148155,0,0)" xlink:href="#at"/><use transform="matrix(0.048148148148148155,0,0,0.048148148148148155,11.555555555555557,0)" xlink:href="#aK"/><use transform="matrix(0.048148148148148155,0,0,0.048148148148148155,21.18518518518519,0)" xlink:href="#ay"/><use transform="matrix(0.048148148148148155,0,0,0.048148148148148155,30.814814814814824,0)" xlink:href="#ax"/><use transform="matrix(0.048148148148148155,0,0,0.048148148148148155,34.61851851851853,0)" xlink:href="#bx"/></g><path fill="#1071e5" d="M27 0v-27h64v-190l-56 39v-29l58-41h29v221h61V0H27" id="bM"/><path fill="#1071e5" d="M101-251c82-7 93 87 43 132L82-64C71-53 59-42 53-27h129V0H18c2-99 128-94 128-182 0-28-16-43-45-43s-46 15-49 41l-32-3c6-41 34-60 81-64" id="bN"/><g id="D"><use transform="matrix(0.048148148148148155,0,0,0.048148148148148155,0,0)" xlink:href="#bM"/><use transform="matrix(0.048148148148148155,0,0,0.048148148148148155,9.629629629629632,0)" xlink:href="#bN"/><use transform="matrix(0.048148148148148155,0,0,0.048148148148148155,19.259259259259263,0)" xlink:href="#bL"/></g><path fill="#1071e5" d="M141 0L90-78 38 0H4l68-98-65-92h35l48 74 47-74h35l-64 92 68 98h-35" id="bO"/><g id="E"><use transform="matrix(0.048148148148148155,0,0,0.048148148148148155,0,0)" xlink:href="#bz"/><use transform="matrix(0.048148148148148155,0,0,0.048148148148148155,11.555555555555557,0)" xlink:href="#aJ"/><use transform="matrix(0.048148148148148155,0,0,0.048148148148148155,21.18518518518519,0)" xlink:href="#bO"/></g><path fill="#1071e5" d="M126-127c33 6 58 20 58 59 0 88-139 92-164 29-3-8-5-16-6-25l32-3c6 27 21 44 54 44 32 0 52-15 52-46 0-38-36-46-79-43v-28c39 1 72-4 72-42 0-27-17-43-46-43-28 0-47 15-49 41l-32-3c6-42 35-63 81-64 48-1 79 21 79 65 0 36-21 52-52 59" id="bP"/><g id="F"><use transform="matrix(0.048148148148148155,0,0,0.048148148148148155,0,0)" xlink:href="#bP"/><use transform="matrix(0.048148148148148155,0,0,0.048148148148148155,9.629629629629632,0)" xlink:href="#bN"/></g><path fill="#333" d="M177-190C167-65 218 103 67 71c-23-6-38-20-44-43l32-5c15 47 100 32 89-28v-30C133-14 115 1 83 1 29 1 15-40 15-95c0-56 16-97 71-98 29-1 48 16 59 35 1-10 0-23 2-32h30zM94-22c36 0 50-32 50-73 0-42-14-75-50-75-39 0-46 34-46 75s6 73 46 73" id="bQ"/><path fill="#333" d="M141-36C126-15 110 5 73 4 37 3 15-17 15-53c-1-64 63-63 125-63 3-35-9-54-41-54-24 1-41 7-42 31l-33-3c5-37 33-52 76-52 45 0 72 20 72 64v82c-1 20 7 32 28 27v20c-31 9-61-2-59-35zM48-53c0 20 12 33 32 33 41-3 63-29 60-74-43 2-92-5-92 41" id="bR"/><g id="G"><use transform="matrix(0.04938271604938272,0,0,0.04938271604938272,0,0)" xlink:href="#bQ"/><use transform="matrix(0.04938271604938272,0,0,0.04938271604938272,9.876543209876544,0)" xlink:href="#bR"/><use transform="matrix(0.04938271604938272,0,0,0.04938271604938272,19.75308641975309,0)" xlink:href="#bG"/><use transform="matrix(0.04938271604938272,0,0,0.04938271604938272,28.641975308641978,0)" xlink:href="#bH"/></g><path fill="#333" d="M84 4C-5 8 30-112 23-190h32v120c0 31 7 50 39 49 72-2 45-101 50-169h31l1 190h-30c-1-10 1-25-2-33-11 22-28 36-60 37" id="bS"/><g id="H"><use transform="matrix(0.04938271604938272,0,0,0.04938271604938272,0,0)" xlink:href="#bE"/><use transform="matrix(0.04938271604938272,0,0,0.04938271604938272,8.88888888888889,0)" xlink:href="#bS"/><use transform="matrix(0.04938271604938272,0,0,0.04938271604938272,18.765432098765434,0)" xlink:href="#aP"/><use transform="matrix(0.04938271604938272,0,0,0.04938271604938272,24.641975308641978,0)" xlink:href="#aP"/><use transform="matrix(0.04938271604938272,0,0,0.04938271604938272,30.518518518518523,0)" xlink:href="#aR"/><use transform="matrix(0.04938271604938272,0,0,0.04938271604938272,40.39506172839506,0)" xlink:href="#bJ"/><use transform="matrix(0.04938271604938272,0,0,0.04938271604938272,50.27160493827161,0)" xlink:href="#aS"/></g><path fill="#333" d="M30 0v-248h33v221h125V0H30" id="bT"/><g id="I"><use transform="matrix(0.04938271604938272,0,0,0.04938271604938272,0,0)" xlink:href="#bT"/><use transform="matrix(0.04938271604938272,0,0,0.04938271604938272,9.876543209876544,0)" xlink:href="#aQ"/><use transform="matrix(0.04938271604938272,0,0,0.04938271604938272,19.75308641975309,0)" xlink:href="#bE"/><use transform="matrix(0.04938271604938272,0,0,0.04938271604938272,28.641975308641978,0)" xlink:href="#bR"/><use transform="matrix(0.04938271604938272,0,0,0.04938271604938272,38.51851851851852,0)" xlink:href="#aS"/><use transform="matrix(0.04938271604938272,0,0,0.04938271604938272,43.45679012345679,0)" xlink:href="#bI"/><use transform="matrix(0.04938271604938272,0,0,0.04938271604938272,47.358024691358025,0)" xlink:href="#aQ"/><use transform="matrix(0.04938271604938272,0,0,0.04938271604938272,57.23456790123457,0)" xlink:href="#bJ"/></g><path fill="#333" d="M24 0v-261h32V0H24" id="bU"/><g id="J"><use transform="matrix(0.04938271604938272,0,0,0.04938271604938272,0,0)" xlink:href="#bG"/><use transform="matrix(0.04938271604938272,0,0,0.04938271604938272,8.88888888888889,0)" xlink:href="#bR"/><use transform="matrix(0.04938271604938272,0,0,0.04938271604938272,18.765432098765434,0)" xlink:href="#bF"/><use transform="matrix(0.04938271604938272,0,0,0.04938271604938272,33.53086419753087,0)" xlink:href="#aO"/><use transform="matrix(0.04938271604938272,0,0,0.04938271604938272,43.40740740740741,0)" xlink:href="#bU"/><use transform="matrix(0.04938271604938272,0,0,0.04938271604938272,47.308641975308646,0)" xlink:href="#bI"/><use transform="matrix(0.04938271604938272,0,0,0.04938271604938272,51.20987654320988,0)" xlink:href="#bJ"/><use transform="matrix(0.04938271604938272,0,0,0.04938271604938272,61.086419753086425,0)" xlink:href="#bQ"/></g><g id="K"><use transform="matrix(0.04938271604938272,0,0,0.04938271604938272,0,0)" xlink:href="#bQ"/><use transform="matrix(0.04938271604938272,0,0,0.04938271604938272,9.876543209876544,0)" xlink:href="#aR"/><use transform="matrix(0.04938271604938272,0,0,0.04938271604938272,19.75308641975309,0)" xlink:href="#aQ"/><use transform="matrix(0.04938271604938272,0,0,0.04938271604938272,29.629629629629633,0)" xlink:href="#bH"/></g><path fill="#333" d="M266 0h-40l-56-210L115 0H75L2-248h35L96-30l15-64 43-154h32l59 218 59-218h35" id="bV"/><path fill="#333" d="M194 0L95-120 63-95V0H30v-248h33v124l119-124h40L117-140 236 0h-42" id="bW"/><path fill="#333" d="M127-220V0H93v-220H8v-28h204v28h-85" id="bX"/><g id="L"><use transform="matrix(0.04938271604938272,0,0,0.04938271604938272,0,0)" xlink:href="#bR"/><use transform="matrix(0.04938271604938272,0,0,0.04938271604938272,9.876543209876544,0)" xlink:href="#bG"/><use transform="matrix(0.04938271604938272,0,0,0.04938271604938272,18.765432098765434,0)" xlink:href="#bV"/><use transform="matrix(0.04938271604938272,0,0,0.04938271604938272,35.50617283950618,0)" xlink:href="#bW"/><use transform="matrix(0.04938271604938272,0,0,0.04938271604938272,47.35802469135803,0)" xlink:href="#bX"/></g><path fill="#1071e5" d="M30-248c87 1 191-15 191 75 0 78-77 80-158 76V0H30v-248zm33 125c57 0 124 11 124-50 0-59-68-47-124-48v98" id="bY"/><path fill="#1071e5" d="M140-251c81 0 123 46 123 126C263-46 219 4 140 4 59 4 17-45 17-125s42-126 123-126zm0 227c63 0 89-41 89-101s-29-99-89-99c-61 0-89 39-89 99S79-25 140-24" id="bZ"/><path fill="#1071e5" d="M127-220V0H93v-220H8v-28h204v28h-85" id="ca"/><path fill="#1071e5" d="M87 75C49 33 22-17 22-94c0-76 28-126 65-167h31c-38 41-64 92-64 168S80 34 118 75H87" id="cb"/><path fill="#1071e5" d="M33 0v-38h34V0H33" id="cc"/><path fill="#1071e5" d="M33-261c38 41 65 92 65 168S71 34 33 75H2C39 34 66-17 66-93S39-220 2-261h31" id="cd"/><g id="M"><use transform="matrix(0.048148148148148155,0,0,0.048148148148148155,0,0)" xlink:href="#bY"/><use transform="matrix(0.048148148148148155,0,0,0.048148148148148155,11.555555555555557,0)" xlink:href="#bZ"/><use transform="matrix(0.048148148148148155,0,0,0.048148148148148155,25.03703703703704,0)" xlink:href="#bu"/><use transform="matrix(0.048148148148148155,0,0,0.048148148148148155,29.851851851851855,0)" xlink:href="#bB"/><use transform="matrix(0.048148148148148155,0,0,0.048148148148148155,42.32222222222222,0)" xlink:href="#ca"/><use transform="matrix(0.048148148148148155,0,0,0.048148148148148155,52.86666666666666,0)" xlink:href="#cb"/><use transform="matrix(0.048148148148148155,0,0,0.048148148148148155,58.596296296296295,0)" xlink:href="#cc"/><use transform="matrix(0.048148148148148155,0,0,0.048148148148148155,63.41111111111111,0)" xlink:href="#cc"/><use transform="matrix(0.048148148148148155,0,0,0.048148148148148155,68.22592592592592,0)" xlink:href="#cc"/><use transform="matrix(0.048148148148148155,0,0,0.048148148148148155,73.04074074074073,0)" xlink:href="#cd"/></g><path d="M24-231v-30h32v30H24zM24 0v-190h32V0H24" id="ce"/><path d="M33-154v-36h34v36H33zM33 0v-36h34V0H33" id="cf"/><g id="N"><use transform="matrix(0.05,0,0,0.05,0,0)" xlink:href="#bn"/><use transform="matrix(0.05,0,0,0.05,5,0)" xlink:href="#ce"/><use transform="matrix(0.05,0,0,0.05,8.95,0)" xlink:href="#bl"/><use transform="matrix(0.05,0,0,0.05,23.9,0)" xlink:href="#bp"/><use transform="matrix(0.05,0,0,0.05,33.9,0)" xlink:href="#cf"/></g><path d="M33 0v-248h34V0H33" id="cg"/><g id="O"><use transform="matrix(0.05,0,0,0.05,0,0)" xlink:href="#cg"/><use transform="matrix(0.05,0,0,0.05,5,0)" xlink:href="#bm"/><use transform="matrix(0.05,0,0,0.05,15,0)" xlink:href="#bh"/><use transform="matrix(0.05,0,0,0.05,24,0)" xlink:href="#bn"/><use transform="matrix(0.05,0,0,0.05,29,0)" xlink:href="#bg"/><use transform="matrix(0.05,0,0,0.05,39,0)" xlink:href="#bm"/><use transform="matrix(0.05,0,0,0.05,49,0)" xlink:href="#bn"/></g><path d="M177-190C167-65 218 103 67 71c-23-6-38-20-44-43l32-5c15 47 100 32 89-28v-30C133-14 115 1 83 1 29 1 15-40 15-95c0-56 16-97 71-98 29-1 48 16 59 35 1-10 0-23 2-32h30zM94-22c36 0 50-32 50-73 0-42-14-75-50-75-39 0-46 34-46 75s6 73 46 73" id="ch"/><g id="P"><use transform="matrix(0.05,0,0,0.05,0,0)" xlink:href="#ch"/><use transform="matrix(0.05,0,0,0.05,10,0)" xlink:href="#bp"/><use transform="matrix(0.05,0,0,0.05,20,0)" xlink:href="#bk"/><use transform="matrix(0.05,0,0,0.05,30,0)" xlink:href="#cf"/></g><path d="M63-220v92h138v28H63V0H30v-248h175v28H63" id="ci"/><path d="M84 4C-5 8 30-112 23-190h32v120c0 31 7 50 39 49 72-2 45-101 50-169h31l1 190h-30c-1-10 1-25-2-33-11 22-28 36-60 37" id="cj"/><g id="Q"><use transform="matrix(0.05,0,0,0.05,0,0)" xlink:href="#ci"/><use transform="matrix(0.05,0,0,0.05,10.950000000000001,0)" xlink:href="#bp"/><use transform="matrix(0.05,0,0,0.05,20.950000000000003,0)" xlink:href="#bg"/><use transform="matrix(0.05,0,0,0.05,30.950000000000003,0)" xlink:href="#bn"/><use transform="matrix(0.05,0,0,0.05,35.95,0)" xlink:href="#cj"/><use transform="matrix(0.05,0,0,0.05,45.95,0)" xlink:href="#bj"/><use transform="matrix(0.05,0,0,0.05,51.900000000000006,0)" xlink:href="#bp"/></g><path d="M143 4C61 4 22-44 18-125c-5-107 100-154 193-111 17 8 29 25 37 43l-32 9c-13-25-37-40-76-40-61 0-88 39-88 99 0 61 29 100 91 101 35 0 62-11 79-27v-45h-74v-28h105v86C228-13 192 4 143 4" id="ck"/><path d="M179-190L93 31C79 59 56 82 12 73V49c39 6 53-20 64-50L1-190h34L92-34l54-156h33" id="cl"/><g id="R"><use transform="matrix(0.05,0,0,0.05,0,0)" xlink:href="#ck"/><use transform="matrix(0.05,0,0,0.05,14,0)" xlink:href="#bp"/><use transform="matrix(0.05,0,0,0.05,24,0)" xlink:href="#bk"/><use transform="matrix(0.05,0,0,0.05,34,0)" xlink:href="#bl"/><use transform="matrix(0.05,0,0,0.05,48.95,0)" xlink:href="#bp"/><use transform="matrix(0.05,0,0,0.05,58.95,0)" xlink:href="#bn"/><use transform="matrix(0.05,0,0,0.05,63.95,0)" xlink:href="#bj"/><use transform="matrix(0.05,0,0,0.05,69.9,0)" xlink:href="#cl"/></g><path d="M143 0L79-87 56-68V0H24v-261h32v163l83-92h37l-77 82L181 0h-38" id="cm"/><g id="S"><use transform="matrix(0.05,0,0,0.05,0,0)" xlink:href="#bh"/><use transform="matrix(0.05,0,0,0.05,9,0)" xlink:href="#cm"/><use transform="matrix(0.05,0,0,0.05,18,0)" xlink:href="#bk"/><use transform="matrix(0.05,0,0,0.05,28,0)" xlink:href="#bh"/><use transform="matrix(0.05,0,0,0.05,37,0)" xlink:href="#cf"/></g><path d="M96-169c-40 0-48 33-48 73s9 75 48 75c24 0 41-14 43-38l32 2c-6 37-31 61-74 61-59 0-76-41-82-99-10-93 101-131 147-64 4 7 5 14 7 22l-32 3c-4-21-16-35-41-35" id="cn"/><path d="M115-194c55 1 70 41 70 98S169 2 115 4C84 4 66-9 55-30l1 105H24l-1-265h31l2 30c10-21 28-34 59-34zm-8 174c40 0 45-34 45-75s-6-73-45-74c-42 0-51 32-51 76 0 43 10 73 51 73" id="co"/><g id="T"><use transform="matrix(0.05,0,0,0.05,0,0)" xlink:href="#be"/><use transform="matrix(0.05,0,0,0.05,12.950000000000001,0)" xlink:href="#bk"/><use transform="matrix(0.05,0,0,0.05,22.950000000000003,0)" xlink:href="#bm"/><use transform="matrix(0.05,0,0,0.05,32.95,0)" xlink:href="#cn"/><use transform="matrix(0.05,0,0,0.05,41.95,0)" xlink:href="#bp"/><use transform="matrix(0.05,0,0,0.05,51.95,0)" xlink:href="#co"/><use transform="matrix(0.05,0,0,0.05,61.95,0)" xlink:href="#bn"/></g><path fill="#1071e5" d="M26 75v-336h71v23H56V52h41v23H26" id="cp"/><use transform="matrix(0.05,0,0,0.05,0,0)" xlink:href="#cp" id="V"/><path fill="#1071e5" d="M3 75V52h41v-290H3v-23h71V75H3" id="cq"/><use transform="matrix(0.05,0,0,0.05,0,0)" xlink:href="#cq" id="W"/><path fill="#333" d="M108 0H70L1-190h34L89-25l56-165h34" id="cr"/><g id="X"><use transform="matrix(0.04938271604938272,0,0,0.04938271604938272,0,0)" xlink:href="#aO"/><use transform="matrix(0.04938271604938272,0,0,0.04938271604938272,9.876543209876544,0)" xlink:href="#aP"/><use transform="matrix(0.04938271604938272,0,0,0.04938271604938272,15.753086419753087,0)" xlink:href="#aQ"/><use transform="matrix(0.04938271604938272,0,0,0.04938271604938272,25.629629629629633,0)" xlink:href="#cr"/><use transform="matrix(0.04938271604938272,0,0,0.04938271604938272,34.51851851851852,0)" xlink:href="#bH"/></g><path fill="#333" d="M145-31C134-9 116 4 85 4 32 4 16-35 15-94c0-59 17-99 70-100 32-1 48 14 60 33 0-11-1-24 2-32h30l-1 268h-32zM93-21c41 0 51-33 51-76s-8-73-50-73c-40 0-46 35-46 75s5 74 45 74" id="cs"/><path fill="#333" d="M101-234c-31-9-42 10-38 44h38v23H63V0H32v-167H5v-23h27c-7-52 17-82 69-68v24" id="ct"/><g id="Y"><use transform="matrix(0.04938271604938272,0,0,0.04938271604938272,0,0)" xlink:href="#cs"/><use transform="matrix(0.04938271604938272,0,0,0.04938271604938272,9.876543209876544,0)" xlink:href="#bS"/><use transform="matrix(0.04938271604938272,0,0,0.04938271604938272,19.75308641975309,0)" xlink:href="#bR"/><use transform="matrix(0.04938271604938272,0,0,0.04938271604938272,29.629629629629633,0)" xlink:href="#bU"/><use transform="matrix(0.04938271604938272,0,0,0.04938271604938272,33.53086419753087,0)" xlink:href="#bI"/><use transform="matrix(0.04938271604938272,0,0,0.04938271604938272,37.4320987654321,0)" xlink:href="#ct"/><use transform="matrix(0.04938271604938272,0,0,0.04938271604938272,42.370370370370374,0)" xlink:href="#bI"/><use transform="matrix(0.04938271604938272,0,0,0.04938271604938272,46.27160493827161,0)" xlink:href="#aR"/><use transform="matrix(0.04938271604938272,0,0,0.04938271604938272,56.14814814814815,0)" xlink:href="#bD"/></g><path fill="#333" d="M205 0l-28-72H64L36 0H1l101-248h38L239 0h-34zm-38-99l-47-123c-12 45-31 82-46 123h93" id="cu"/><path fill="#333" d="M115-194c53 0 69 39 70 98 0 66-23 100-70 100C84 3 66-7 56-30L54 0H23l1-261h32v101c10-23 28-34 59-34zm-8 174c40 0 45-34 45-75 0-40-5-75-45-74-42 0-51 32-51 76 0 43 10 73 51 73" id="cv"/><g id="Z"><use transform="matrix(0.04938271604938272,0,0,0.04938271604938272,0,0)" xlink:href="#cu"/><use transform="matrix(0.04938271604938272,0,0,0.04938271604938272,11.851851851851853,0)" xlink:href="#aS"/><use transform="matrix(0.04938271604938272,0,0,0.04938271604938272,16.790123456790127,0)" xlink:href="#aS"/><use transform="matrix(0.04938271604938272,0,0,0.04938271604938272,21.7283950617284,0)" xlink:href="#aP"/><use transform="matrix(0.04938271604938272,0,0,0.04938271604938272,27.604938271604947,0)" xlink:href="#bI"/><use transform="matrix(0.04938271604938272,0,0,0.04938271604938272,31.506172839506174,0)" xlink:href="#cv"/><use transform="matrix(0.04938271604938272,0,0,0.04938271604938272,41.38271604938272,0)" xlink:href="#bS"/><use transform="matrix(0.04938271604938272,0,0,0.04938271604938272,51.25925925925927,0)" xlink:href="#aS"/><use transform="matrix(0.04938271604938272,0,0,0.04938271604938272,56.19753086419754,0)" xlink:href="#bI"/><use transform="matrix(0.04938271604938272,0,0,0.04938271604938272,60.09876543209877,0)" xlink:href="#aQ"/><use transform="matrix(0.04938271604938272,0,0,0.04938271604938272,69.97530864197532,0)" xlink:href="#bJ"/></g><g id="aa"><use transform="matrix(0.04938271604938272,0,0,0.04938271604938272,0,0)" xlink:href="#bR"/><use transform="matrix(0.04938271604938272,0,0,0.04938271604938272,9.876543209876544,0)" xlink:href="#bQ"/><use transform="matrix(0.04938271604938272,0,0,0.04938271604938272,19.75308641975309,0)" xlink:href="#aR"/><use transform="matrix(0.04938271604938272,0,0,0.04938271604938272,29.629629629629633,0)" xlink:href="#bJ"/><use transform="matrix(0.04938271604938272,0,0,0.04938271604938272,39.50617283950618,0)" xlink:href="#aS"/></g><path fill="#1071e5" d="M114-163C36-179 61-72 57 0H25l-1-190h30c1 12-1 29 2 39 6-27 23-49 58-41v29" id="cw"/><g id="ab"><use transform="matrix(0.05,0,0,0.05,0,0)" xlink:href="#by"/><use transform="matrix(0.05,0,0,0.05,12.950000000000001,0)" xlink:href="#aJ"/><use transform="matrix(0.05,0,0,0.05,22.950000000000003,0)" xlink:href="#ax"/><use transform="matrix(0.05,0,0,0.05,26.900000000000002,0)" xlink:href="#ax"/><use transform="matrix(0.05,0,0,0.05,30.85,0)" xlink:href="#ay"/><use transform="matrix(0.05,0,0,0.05,40.85,0)" xlink:href="#bw"/><use transform="matrix(0.05,0,0,0.05,49.85,0)" xlink:href="#aN"/><use transform="matrix(0.05,0,0,0.05,54.85,0)" xlink:href="#aJ"/><use transform="matrix(0.05,0,0,0.05,64.85,0)" xlink:href="#cw"/></g><path fill="#333" d="M106-169C34-169 62-67 57 0H25v-261h32l-1 103c12-21 28-36 61-36 89 0 53 116 60 194h-32v-121c2-32-8-49-39-48" id="cx"/><path fill="#333" d="M233-177c-1 41-23 64-60 70L243 0h-38l-65-103H63V0H30v-248c88 3 205-21 203 71zM63-129c60-2 137 13 137-47 0-61-80-42-137-45v92" id="cy"/><g id="ac"><use transform="matrix(0.04938271604938272,0,0,0.04938271604938272,0,0)" xlink:href="#cx"/><use transform="matrix(0.04938271604938272,0,0,0.04938271604938272,9.876543209876544,0)" xlink:href="#bR"/><use transform="matrix(0.04938271604938272,0,0,0.04938271604938272,19.75308641975309,0)" xlink:href="#bD"/><use transform="matrix(0.04938271604938272,0,0,0.04938271604938272,29.629629629629633,0)" xlink:href="#cy"/><use transform="matrix(0.04938271604938272,0,0,0.04938271604938272,42.41975308641976,0)" xlink:href="#aQ"/><use transform="matrix(0.04938271604938272,0,0,0.04938271604938272,52.2962962962963,0)" xlink:href="#bU"/><use transform="matrix(0.04938271604938272,0,0,0.04938271604938272,56.19753086419754,0)" xlink:href="#aR"/></g><g id="ad"><use transform="matrix(0.04938271604938272,0,0,0.04938271604938272,0,0)" xlink:href="#bQ"/><use transform="matrix(0.04938271604938272,0,0,0.04938271604938272,9.876543209876544,0)" xlink:href="#aR"/><use transform="matrix(0.04938271604938272,0,0,0.04938271604938272,19.75308641975309,0)" xlink:href="#bJ"/><use transform="matrix(0.04938271604938272,0,0,0.04938271604938272,29.629629629629633,0)" xlink:href="#aR"/><use transform="matrix(0.04938271604938272,0,0,0.04938271604938272,39.50617283950618,0)" xlink:href="#aP"/><use transform="matrix(0.04938271604938272,0,0,0.04938271604938272,45.38271604938272,0)" xlink:href="#bR"/><use transform="matrix(0.04938271604938272,0,0,0.04938271604938272,55.25925925925927,0)" xlink:href="#aS"/><use transform="matrix(0.04938271604938272,0,0,0.04938271604938272,60.19753086419754,0)" xlink:href="#aR"/><use transform="matrix(0.04938271604938272,0,0,0.04938271604938272,70.07407407407408,0)" xlink:href="#bD"/></g><g id="ae"><use transform="matrix(0.04938271604938272,0,0,0.04938271604938272,0,0)" xlink:href="#cu"/><use transform="matrix(0.04938271604938272,0,0,0.04938271604938272,11.851851851851853,0)" xlink:href="#aS"/><use transform="matrix(0.04938271604938272,0,0,0.04938271604938272,16.790123456790127,0)" xlink:href="#bX"/><use transform="matrix(0.04938271604938272,0,0,0.04938271604938272,26.962962962962973,0)" xlink:href="#bI"/><use transform="matrix(0.04938271604938272,0,0,0.04938271604938272,30.864197530864207,0)" xlink:href="#bF"/><use transform="matrix(0.04938271604938272,0,0,0.04938271604938272,45.62962962962963,0)" xlink:href="#aR"/></g><g id="af"><use transform="matrix(0.04938271604938272,0,0,0.04938271604938272,0,0)" xlink:href="#aS"/><use transform="matrix(0.04938271604938272,0,0,0.04938271604938272,4.938271604938272,0)" xlink:href="#bI"/><use transform="matrix(0.04938271604938272,0,0,0.04938271604938272,8.839506172839506,0)" xlink:href="#bF"/><use transform="matrix(0.04938271604938272,0,0,0.04938271604938272,23.60493827160494,0)" xlink:href="#aR"/><use transform="matrix(0.04938271604938272,0,0,0.04938271604938272,33.48148148148148,0)" xlink:href="#bH"/></g><path fill="#333" d="M195 0l-74-108L45 0H8l94-129-87-119h37l69 98 67-98h37l-84 118L233 0h-38" id="cz"/><path fill="#333" d="M185-189c-5-48-123-54-124 2 14 75 158 14 163 119 3 78-121 87-175 55-17-10-28-26-33-46l33-7c5 56 141 63 141-1 0-78-155-14-162-118-5-82 145-84 179-34 5 7 8 16 11 25" id="cA"/><path fill="#333" d="M30-248c118-7 216 8 213 122C240-48 200 0 122 0H30v-248zM63-27c89 8 146-16 146-99s-60-101-146-95v194" id="cB"/><g id="ag"><use transform="matrix(0.04938271604938272,0,0,0.04938271604938272,0,0)" xlink:href="#bI"/><use transform="matrix(0.04938271604938272,0,0,0.04938271604938272,3.901234567901235,0)" xlink:href="#bJ"/><use transform="matrix(0.04938271604938272,0,0,0.04938271604938272,13.777777777777779,0)" xlink:href="#cz"/><use transform="matrix(0.04938271604938272,0,0,0.04938271604938272,25.629629629629633,0)" xlink:href="#cA"/><use transform="matrix(0.04938271604938272,0,0,0.04938271604938272,37.48148148148149,0)" xlink:href="#cB"/><use transform="matrix(0.04938271604938272,0,0,0.04938271604938272,50.271604938271615,0)" xlink:href="#cB"/><use transform="matrix(0.04938271604938272,0,0,0.04938271604938272,63.06172839506174,0)" xlink:href="#bR"/><use transform="matrix(0.04938271604938272,0,0,0.04938271604938272,72.93827160493828,0)" xlink:href="#aS"/><use transform="matrix(0.04938271604938272,0,0,0.04938271604938272,77.87654320987656,0)" xlink:href="#aR"/></g><path fill="#1071e5" d="M101-251c68 0 85 55 85 127S166 4 100 4C33 4 14-52 14-124c0-73 17-127 87-127zm-1 229c47 0 54-49 54-102s-4-102-53-102c-51 0-55 48-55 102 0 53 5 102 54 102" id="cC"/><path fill="#1071e5" d="M16-82v-28h88v28H16" id="cD"/><path fill="#1071e5" d="M110-160c48 1 74 30 74 79 0 53-28 85-80 85-65 0-83-55-86-122-5-90 50-162 133-122 14 7 22 21 27 39l-31 6c-5-40-67-38-82-6-9 19-15 44-15 74 11-20 30-34 60-33zm-7 138c34 0 49-23 49-58s-16-56-50-56c-29 0-50 16-49 49 1 36 15 65 50 65" id="cE"/><path fill="#1071e5" d="M99-251c64 0 84 50 84 122C183-37 130 33 47-8c-14-7-20-23-25-40l30-5c6 39 69 39 84 7 9-19 16-44 16-74-10 22-31 35-62 35-49 0-73-33-73-83 0-54 28-83 82-83zm-1 141c31-1 51-18 51-49 0-36-14-67-51-67-34 0-49 23-49 58 0 34 15 58 49 58" id="cF"/><g id="ah"><use transform="matrix(0.048148148148148155,0,0,0.048148148148148155,0,0)" xlink:href="#bN"/><use transform="matrix(0.048148148148148155,0,0,0.048148148148148155,9.629629629629632,0)" xlink:href="#cC"/><use transform="matrix(0.048148148148148155,0,0,0.048148148148148155,19.259259259259263,0)" xlink:href="#bN"/><use transform="matrix(0.048148148148148155,0,0,0.048148148148148155,28.888888888888893,0)" xlink:href="#bP"/><use transform="matrix(0.048148148148148155,0,0,0.048148148148148155,38.518518518518526,0)" xlink:href="#cD"/><use transform="matrix(0.048148148148148155,0,0,0.048148148148148155,44.248148148148154,0)" xlink:href="#cC"/><use transform="matrix(0.048148148148148155,0,0,0.048148148148148155,53.87777777777779,0)" xlink:href="#cE"/><use transform="matrix(0.048148148148148155,0,0,0.048148148148148155,63.50740740740741,0)" xlink:href="#cD"/><use transform="matrix(0.048148148148148155,0,0,0.048148148148148155,69.23703703703706,0)" xlink:href="#cC"/><use transform="matrix(0.048148148148148155,0,0,0.048148148148148155,78.86666666666669,0)" xlink:href="#cF"/></g><g id="ai"><use transform="matrix(0.05,0,0,0.05,0,0)" xlink:href="#bK"/><use transform="matrix(0.05,0,0,0.05,12.950000000000001,0)" xlink:href="#aJ"/><use transform="matrix(0.05,0,0,0.05,22.950000000000003,0)" xlink:href="#bw"/><use transform="matrix(0.05,0,0,0.05,31.950000000000003,0)" xlink:href="#bA"/></g><g id="aj"><use transform="matrix(0.05,0,0,0.05,0,0)" xlink:href="#by"/><use transform="matrix(0.05,0,0,0.05,12.950000000000001,0)" xlink:href="#aJ"/><use transform="matrix(0.05,0,0,0.05,22.950000000000003,0)" xlink:href="#cw"/><use transform="matrix(0.05,0,0,0.05,28.900000000000002,0)" xlink:href="#ay"/></g><path fill="#1071e5" d="M30-248c118-7 216 8 213 122C240-48 200 0 122 0H30v-248zM63-27c89 8 146-16 146-99s-60-101-146-95v194" id="cG"/><g id="ak"><use transform="matrix(0.05,0,0,0.05,0,0)" xlink:href="#cG"/><use transform="matrix(0.05,0,0,0.05,12.950000000000001,0)" xlink:href="#cw"/><use transform="matrix(0.05,0,0,0.05,18.900000000000002,0)" xlink:href="#aM"/><use transform="matrix(0.05,0,0,0.05,22.85,0)" xlink:href="#ax"/><use transform="matrix(0.05,0,0,0.05,26.8,0)" xlink:href="#ax"/></g><g id="al"><use transform="matrix(0.05,0,0,0.05,0,0)" xlink:href="#by"/><use transform="matrix(0.05,0,0,0.05,12.950000000000001,0)" xlink:href="#aJ"/><use transform="matrix(0.05,0,0,0.05,22.950000000000003,0)" xlink:href="#cw"/><use transform="matrix(0.05,0,0,0.05,28.900000000000002,0)" xlink:href="#ay"/></g><g id="am"><use transform="matrix(0.05,0,0,0.05,0,0)" xlink:href="#at"/><use transform="matrix(0.05,0,0,0.05,12,0)" xlink:href="#ay"/><use transform="matrix(0.05,0,0,0.05,22,0)" xlink:href="#bw"/><use transform="matrix(0.05,0,0,0.05,31,0)" xlink:href="#aN"/><use transform="matrix(0.05,0,0,0.05,36,0)" xlink:href="#aM"/><use transform="matrix(0.05,0,0,0.05,39.95,0)" xlink:href="#aJ"/><use transform="matrix(0.05,0,0,0.05,49.95,0)" xlink:href="#aL"/></g><path fill="#1071e5" d="M197 0v-115H63V0H30v-248h33v105h134v-105h34V0h-34" id="cH"/><g id="an"><use transform="matrix(0.05,0,0,0.05,0,0)" xlink:href="#cH"/><use transform="matrix(0.05,0,0,0.05,12.950000000000001,0)" xlink:href="#au"/><use transform="matrix(0.05,0,0,0.05,22.950000000000003,0)" xlink:href="#ax"/><use transform="matrix(0.05,0,0,0.05,26.900000000000002,0)" xlink:href="#bx"/></g><g id="ao"><use transform="matrix(0.04938271604938272,0,0,0.04938271604938272,0,0)" xlink:href="#bQ"/><use transform="matrix(0.04938271604938272,0,0,0.04938271604938272,9.876543209876544,0)" xlink:href="#bR"/><use transform="matrix(0.04938271604938272,0,0,0.04938271604938272,19.75308641975309,0)" xlink:href="#bG"/><use transform="matrix(0.04938271604938272,0,0,0.04938271604938272,28.641975308641978,0)" xlink:href="#bH"/><use transform="matrix(0.04938271604938272,0,0,0.04938271604938272,33.580246913580254,0)" xlink:href="#bF"/><use transform="matrix(0.04938271604938272,0,0,0.04938271604938272,48.345679012345684,0)" xlink:href="#bR"/><use transform="matrix(0.04938271604938272,0,0,0.04938271604938272,58.22222222222223,0)" xlink:href="#aS"/><use transform="matrix(0.04938271604938272,0,0,0.04938271604938272,63.1604938271605,0)" xlink:href="#aR"/><use transform="matrix(0.04938271604938272,0,0,0.04938271604938272,73.03703703703704,0)" xlink:href="#aP"/><use transform="matrix(0.04938271604938272,0,0,0.04938271604938272,78.91358024691358,0)" xlink:href="#bI"/><use transform="matrix(0.04938271604938272,0,0,0.04938271604938272,82.81481481481482,0)" xlink:href="#bR"/><use transform="matrix(0.04938271604938272,0,0,0.04938271604938272,92.69135802469137,0)" xlink:href="#bU"/></g><path fill="#333" d="M240 0l2-218c-23 76-54 145-80 218h-23L58-218 59 0H30v-248h44l77 211c21-75 51-140 76-211h43V0h-30" id="cI"/><g id="ap"><use transform="matrix(0.04938271604938272,0,0,0.04938271604938272,0,0)" xlink:href="#bQ"/><use transform="matrix(0.04938271604938272,0,0,0.04938271604938272,9.876543209876544,0)" xlink:href="#bR"/><use transform="matrix(0.04938271604938272,0,0,0.04938271604938272,19.75308641975309,0)" xlink:href="#bG"/><use transform="matrix(0.04938271604938272,0,0,0.04938271604938272,28.641975308641978,0)" xlink:href="#bH"/><use transform="matrix(0.04938271604938272,0,0,0.04938271604938272,33.580246913580254,0)" xlink:href="#bG"/><use transform="matrix(0.04938271604938272,0,0,0.04938271604938272,42.46913580246914,0)" xlink:href="#bR"/><use transform="matrix(0.04938271604938272,0,0,0.04938271604938272,52.345679012345684,0)" xlink:href="#bF"/><use transform="matrix(0.04938271604938272,0,0,0.04938271604938272,67.11111111111111,0)" xlink:href="#aO"/><use transform="matrix(0.04938271604938272,0,0,0.04938271604938272,76.98765432098766,0)" xlink:href="#bU"/><use transform="matrix(0.04938271604938272,0,0,0.04938271604938272,80.8888888888889,0)" xlink:href="#bI"/><use transform="matrix(0.04938271604938272,0,0,0.04938271604938272,84.79012345679014,0)" xlink:href="#bJ"/><use transform="matrix(0.04938271604938272,0,0,0.04938271604938272,94.66666666666669,0)" xlink:href="#bQ"/><use transform="matrix(0.04938271604938272,0,0,0.04938271604938272,104.54320987654324,0)" xlink:href="#cI"/><use transform="matrix(0.04938271604938272,0,0,0.04938271604938272,119.30864197530865,0)" xlink:href="#aR"/><use transform="matrix(0.04938271604938272,0,0,0.04938271604938272,129.18518518518522,0)" xlink:href="#aS"/><use transform="matrix(0.04938271604938272,0,0,0.04938271604938272,134.1234567901235,0)" xlink:href="#cx"/><use transform="matrix(0.04938271604938272,0,0,0.04938271604938272,144.00000000000006,0)" xlink:href="#aQ"/><use transform="matrix(0.04938271604938272,0,0,0.04938271604938272,153.87654320987662,0)" xlink:href="#bD"/></g><g id="aq"><use transform="matrix(0.04938271604938272,0,0,0.04938271604938272,0,0)" xlink:href="#bG"/><use transform="matrix(0.04938271604938272,0,0,0.04938271604938272,8.88888888888889,0)" xlink:href="#bD"/><use transform="matrix(0.04938271604938272,0,0,0.04938271604938272,18.765432098765434,0)" xlink:href="#aQ"/><use transform="matrix(0.04938271604938272,0,0,0.04938271604938272,28.641975308641978,0)" xlink:href="#bH"/><use transform="matrix(0.04938271604938272,0,0,0.04938271604938272,33.580246913580254,0)" xlink:href="#bR"/><use transform="matrix(0.04938271604938272,0,0,0.04938271604938272,43.4567901234568,0)" xlink:href="#bD"/><use transform="matrix(0.04938271604938272,0,0,0.04938271604938272,53.333333333333336,0)" xlink:href="#bD"/><use transform="matrix(0.04938271604938272,0,0,0.04938271604938272,63.20987654320988,0)" xlink:href="#bI"/><use transform="matrix(0.04938271604938272,0,0,0.04938271604938272,67.11111111111113,0)" xlink:href="#aS"/><use transform="matrix(0.04938271604938272,0,0,0.04938271604938272,72.0493827160494,0)" xlink:href="#bI"/><use transform="matrix(0.04938271604938272,0,0,0.04938271604938272,75.95061728395063,0)" xlink:href="#aQ"/><use transform="matrix(0.04938271604938272,0,0,0.04938271604938272,85.82716049382718,0)" xlink:href="#bJ"/><use transform="matrix(0.04938271604938272,0,0,0.04938271604938272,95.70370370370372,0)" xlink:href="#bR"/><use transform="matrix(0.04938271604938272,0,0,0.04938271604938272,105.58024691358028,0)" xlink:href="#bU"/><use transform="matrix(0.04938271604938272,0,0,0.04938271604938272,109.48148148148151,0)" xlink:href="#bX"/><use transform="matrix(0.04938271604938272,0,0,0.04938271604938272,119.30864197530865,0)" xlink:href="#aT"/><use transform="matrix(0.04938271604938272,0,0,0.04938271604938272,128.19753086419755,0)" xlink:href="#aO"/><use transform="matrix(0.04938271604938272,0,0,0.04938271604938272,138.07407407407408,0)" xlink:href="#aR"/></g><path fill="#fff" d="M33-154v-36h34v36H33zM33 0v-36h34V0H33" id="cJ"/><g id="ar"><use transform="matrix(0.05,0,0,0.05,0,0)" xlink:href="#bd"/><use transform="matrix(0.05,0,0,0.05,9,0)" xlink:href="#aV"/><use transform="matrix(0.05,0,0,0.05,19,0)" xlink:href="#bd"/><use transform="matrix(0.05,0,0,0.05,28,0)" xlink:href="#bc"/><use transform="matrix(0.05,0,0,0.05,38,0)" xlink:href="#cJ"/></g><path fill="#fff" d="M210-169c-67 3-38 105-44 169h-31v-121c0-29-5-50-35-48C34-165 62-65 56 0H25l-1-190h30c1 10-1 24 2 32 10-44 99-50 107 0 11-21 27-35 58-36 85-2 47 119 55 194h-31v-121c0-29-5-49-35-48" id="cK"/><path fill="#fff" d="M115-194c55 1 70 41 70 98S169 2 115 4C84 4 66-9 55-30l1 105H24l-1-265h31l2 30c10-21 28-34 59-34zm-8 174c40 0 45-34 45-75s-6-73-45-74c-42 0-51 32-51 76 0 43 10 73 51 73" id="cL"/><g id="as"><use transform="matrix(0.05,0,0,0.05,0,0)" xlink:href="#aY"/><use transform="matrix(0.05,0,0,0.05,12,0)" xlink:href="#bc"/><use transform="matrix(0.05,0,0,0.05,22,0)" xlink:href="#cK"/><use transform="matrix(0.05,0,0,0.05,36.95,0)" xlink:href="#cL"/><use transform="matrix(0.05,0,0,0.05,46.95,0)" xlink:href="#bb"/><use transform="matrix(0.05,0,0,0.05,50.900000000000006,0)" xlink:href="#aX"/></g></defs></g></svg>