<svg xmlns="http://www.w3.org/2000/svg" xmlns:xlink="http://www.w3.org/1999/xlink" xmlns:lucid="lucid" width="1954.63" height="907.42"><g transform="translate(1123.6334122119756 -28.250463313876153)" lucid:page-tab-id="F6z58_n4Z8My"><path d="M-1500 0h2500v1000h-2500z" fill="#fff"/><path d="M-92.87 496.46h-16.78v-1h16.78zm115.55 0h-43.5v-1h43.5z" stroke="#3a414a" stroke-width=".05" fill="#3a414a"/><path d="M-109.64 496.46h-.5v-1h.5z" fill="#3a414a"/><path d="M-109.61 496.48h-.58v-1.05h.57zm-.53-1v.95h.46v-.95zM23.6 495.96l-17.95 10.6-.5-.85 16.48-9.74-16.5-9.75.52-.85z" stroke="#3a414a" stroke-width=".05" fill="#3a414a"/><use xlink:href="#a" transform="matrix(1,0,0,1,-92.87271874398681,463.9592299505703) translate(14.795123456790122 14.222222222222223)"/><use xlink:href="#b" transform="matrix(1,0,0,1,-92.87271874398681,463.9592299505703) translate(0.005000000000002558 35.55555555555556)"/><use xlink:href="#c" transform="matrix(1,0,0,1,-92.87271874398681,463.9592299505703) translate(2.498827160493825 56.88888888888889)"/><path d="M25.03 678.94l-.7.73-33.6-31.76h1.45zM-75.6 583.9h-1.45l-33.15-31.3.68-.72z" stroke="#3a414a" stroke-width=".05" fill="#3a414a"/><path d="M-109.5 551.9l-.7.7-.16-.14.14-.56.05-.64z" fill="#3a414a"/><path d="M-109.47 551.9l-.72.75-.2-.18.15-.58.06-.7zm-.73 0l-.13.55.14.13.66-.7-.6-.57zM25.35 679.93l-20.33-4.6.22-.98 18.68 4.23-5.3-18.4.97-.3z" stroke="#3a414a" stroke-width=".05" fill="#3a414a"/><use xlink:href="#a" transform="matrix(1,0,0,1,-87.326504397802,583.9124760728755) translate(23.659320987654326 14.222222222222223)"/><use xlink:href="#d" transform="matrix(1,0,0,1,-87.326504397802,583.9124760728755) translate(0.005000000000002558 35.55555555555556)"/><use xlink:href="#e" transform="matrix(1,0,0,1,-87.326504397802,583.9124760728755) translate(5.906234567901237 56.88888888888889)"/><path d="M-1045.9 389.8h-53.82v-1h53.8zm119.3 0h-54.22v-1h54.22zM-926.1 389.8h-.5v-1h.5z" stroke="#3a414a" stroke-width=".05" fill="#3a414a"/><path d="M-1082.18 379.56l-16.5 9.75 16.5 9.76-.5.86-17.95-10.6 17.94-10.62z" stroke="#3a414a" stroke-width=".05" fill="#3a414a"/><use xlink:href="#f" transform="matrix(1,0,0,1,-1045.9097976645676,378.64609773493373) translate(0.005000000000002558 14.222222222222223)"/><path d="M24.6 440.96a5 5 0 0 1 5-5h150a5 5 0 0 1 5 5v110a5 5 0 0 1-5 5h-150a5 5 0 0 1-5-5z" stroke="#1071e5" stroke-width="2" fill="#fff"/><use xlink:href="#g" transform="matrix(1,0,0,1,36.593472715660084,447.95922995057043) translate(14.524999999999999 41.4)"/><use xlink:href="#h" transform="matrix(1,0,0,1,36.593472715660084,447.95922995057043) translate(106.475 41.4)"/><use xlink:href="#i" transform="matrix(1,0,0,1,36.593472715660084,447.95922995057043) translate(5.124999999999993 63)"/><use xlink:href="#j" transform="matrix(1,0,0,1,36.593472715660084,447.95922995057043) translate(48.074999999999996 63)"/><use xlink:href="#k" transform="matrix(1,0,0,1,36.593472715660084,447.95922995057043) translate(67.025 63)"/><use xlink:href="#l" transform="matrix(1,0,0,1,36.593472715660084,447.95922995057043) translate(82.025 63)"/><path d="M24.6 684.17a5 5 0 0 1 5-5h150a5 5 0 0 1 5 5v110a5 5 0 0 1-5 5h-150a5 5 0 0 1-5-5z" stroke="#1071e5" stroke-width="2" fill="#fff"/><use xlink:href="#m" transform="matrix(1,0,0,1,36.593472715660084,691.1714345465443) translate(29.049999999999997 50.4)"/><use xlink:href="#n" transform="matrix(1,0,0,1,36.593472715660084,691.1714345465443) translate(94.95 50.4)"/><path d="M-271.15 440.96a5 5 0 0 1 5-5h150a5 5 0 0 1 5 5v110a5 5 0 0 1-5 5h-150a5 5 0 0 1-5-5z" stroke="#1071e5" stroke-width="2" fill="#fff"/><use xlink:href="#o" transform="matrix(1,0,0,1,-259.1530729436376,447.95922995057043) translate(11.049999999999997 50.4)"/><use xlink:href="#p" transform="matrix(1,0,0,1,-259.1530729436376,447.95922995057043) translate(112.95 50.4)"/><path d="M-550.82 254.57a5 5 0 0 1 5-5h150a5 5 0 0 1 5 5v110a5 5 0 0 1-5 5h-150a5 5 0 0 1-5-5z" stroke="#000" stroke-width="2" fill="#6f7681"/><use xlink:href="#q" transform="matrix(1,0,0,1,-538.8183515815222,261.56930295893034) translate(46.5 29.4)"/><use xlink:href="#r" transform="matrix(1,0,0,1,-538.8183515815222,261.56930295893034) translate(19.549999999999997 51)"/><use xlink:href="#s" transform="matrix(1,0,0,1,-538.8183515815222,261.56930295893034) translate(28.599999999999994 72.60000000000001)"/><path d="M-550.82 68.18a5 5 0 0 1 5-5h150a5 5 0 0 1 5 5v110a5 5 0 0 1-5 5h-150a5 5 0 0 1-5-5z" stroke="#000" stroke-width="2" fill="#ced4db"/><use xlink:href="#t" transform="matrix(1,0,0,1,-538.8183515815222,75.17937596729023) translate(48.5 41.4)"/><use xlink:href="#u" transform="matrix(1,0,0,1,-538.8183515815222,75.17937596729023) translate(37.025 63)"/><path d="M-470.82 248.07v-47.5" stroke="#3a414a" fill="none"/><path d="M-470.32 248.57h-1v-.5h1z" stroke="#3a414a" stroke-width=".05" fill="#3a414a"/><path d="M-470.82 185.8l4.64 14.26h-9.27z" stroke="#3a414a" fill="#fff"/><path d="M-550.82 440.96a5 5 0 0 1 5-5h150a5 5 0 0 1 5 5v110a5 5 0 0 1-5 5h-150a5 5 0 0 1-5-5z" stroke="#1071e5" stroke-width="2" fill="#fff"/><use xlink:href="#v" transform="matrix(1,0,0,1,-538.8183515815222,447.95922995057043) translate(19.549999999999997 41.4)"/><use xlink:href="#w" transform="matrix(1,0,0,1,-538.8183515815222,447.95922995057043) translate(20.099999999999994 63)"/><use xlink:href="#x" transform="matrix(1,0,0,1,-538.8183515815222,447.95922995057043) translate(103.9 63)"/><path d="M-374.4 491.04h-14.92v-1h14.93zm101.34 0h-36.3v-1h36.3z" stroke="#3a414a" stroke-width=".05" fill="#3a414a"/><path d="M-389.3 491.04h-.52v-1h.5z" fill="#3a414a"/><path d="M-389.28 491.06h-.56V490h.56zm-.5-1v.95h.45v-.94zM-272.15 490.54l-17.95 10.6-.5-.85 16.48-9.76-16.5-9.75.52-.87z" stroke="#3a414a" stroke-width=".05" fill="#3a414a"/><use xlink:href="#y" transform="matrix(1,0,0,1,-374.391851182214,469.2047757086411) translate(15.264259259259262 14.222222222222223)"/><use xlink:href="#z" transform="matrix(1,0,0,1,-374.391851182214,469.2047757086411) translate(0.005000000000002558 35.55555555555556)"/><path d="M-470.82 434.46v-5.25m0-5.24v-10.5m0-5.24v-10.5m0-5.25v-10.5m0-5.24v-5.25" stroke="#1071e5" fill="none"/><path d="M-470.32 434.96h-1v-.5h1z" stroke="#1071e5" stroke-width=".05" fill="#1071e5"/><path d="M-460.64 388.77l-10.18-17.22-10.18 17.22" stroke="#1071e5" fill="none"/><path d="M-850.36 115.3a10.2 10.2 0 0 1 5.06-9.02l68.9-40.08a10.3 10.3 0 0 1 10.36 0l68.88 40.08a10.68 10.68 0 0 1 5.3 9.02l1.26 61.88a5.88 5.88 0 0 1-5.88 6H-843a6.12 6.12 0 0 1-6.12-6z" stroke="#3a414a" stroke-width="2" fill="#ced4db"/><use xlink:href="#A" transform="matrix(1,0,0,1,-850.4836302194067,63.179375967290184) translate(59.01234567901234 51.611111111111114)"/><use xlink:href="#B" transform="matrix(1,0,0,1,-850.4836302194067,63.179375967290184) translate(17.129629629629626 78.27777777777777)"/><path d="M-850.36 488.07a10.2 10.2 0 0 1 5.06-9l68.9-40.1a10.3 10.3 0 0 1 10.36 0l68.88 40.1a10.68 10.68 0 0 1 5.3 9l1.26 61.9a5.88 5.88 0 0 1-5.88 6H-843a6.12 6.12 0 0 1-6.12-6z" stroke="#1071e5" stroke-width="2" fill="#fff"/><use xlink:href="#C" transform="matrix(1,0,0,1,-850.4836302194067,435.95922995057043) translate(20.80246913580247 64.94444444444444)"/><use xlink:href="#D" transform="matrix(1,0,0,1,-850.4836302194067,435.95922995057043) translate(121.91358024691358 64.94444444444444)"/><path d="M-651.98 496.46h-37.8v-1h37.8zm99.66 0h-23.7v-1h23.7z" stroke="#3a414a" stroke-width=".05" fill="#3a414a"/><path d="M-551.82 496.46h-.5v-1h.5z" fill="#3a414a"/><path d="M-551.8 496.48h-.56v-1.05h.57zm-.5-1v.95h.46v-.95zM-672.24 486.2l-16.5 9.76 16.5 9.75-.5.87-17.95-10.6 17.95-10.62z" stroke="#3a414a" stroke-width=".05" fill="#3a414a"/><use xlink:href="#E" transform="matrix(1,0,0,1,-651.9753086419753,453.29256328390375) translate(18.251913580246917 14.222222222222223)"/><use xlink:href="#F" transform="matrix(1,0,0,1,-651.9753086419753,453.29256328390375) translate(22.202530864197534 35.55555555555556)"/><use xlink:href="#G" transform="matrix(1,0,0,1,-651.9753086419753,453.29256328390375) translate(0.005000000000002558 56.88888888888889)"/><use xlink:href="#H" transform="matrix(1,0,0,1,-651.9753086419753,453.29256328390375) translate(28.622283950617287 78.22222222222223)"/><path d="M-770.48 436.12V200.56" stroke="#3a414a" fill="none"/><path d="M-769.98 436.65h-.06l-.94-.06v-.5h1z" stroke="#3a414a" stroke-width=".05" fill="#3a414a"/><path d="M-770.48 185.8l4.63 14.26h-9.27z" stroke="#3a414a" fill="#fff"/><path d="M-1093.37 98.2a5 5 0 0 1 5-5h150a5 5 0 0 1 5 5v110a5 5 0 0 1-5 5h-150a5 5 0 0 1-5-5z" stroke="#000" stroke-width="2" fill="#6f7681"/><use xlink:href="#I" transform="matrix(1,0,0,1,-1081.3665877880244,105.20354685963241) translate(21.549999999999997 41.4)"/><use xlink:href="#J" transform="matrix(1,0,0,1,-1081.3665877880244,105.20354685963241) translate(65.45 41.4)"/><use xlink:href="#K" transform="matrix(1,0,0,1,-1081.3665877880244,105.20354685963241) translate(45.55 63)"/><path d="M-1093.37 236.06a5 5 0 0 1 5-5h150a5 5 0 0 1 5 5v110a5 5 0 0 1-5 5h-150a5 5 0 0 1-5-5z" stroke="#000" stroke-width="2" fill="#ced4db"/><use xlink:href="#L" transform="matrix(1,0,0,1,-1081.3665877880244,243.0641894347512) translate(25.099999999999994 41.4)"/><use xlink:href="#M" transform="matrix(1,0,0,1,-1081.3665877880244,243.0641894347512) translate(75 41.4)"/><use xlink:href="#N" transform="matrix(1,0,0,1,-1081.3665877880244,243.0641894347512) translate(10.574999999999996 63)"/><use xlink:href="#O" transform="matrix(1,0,0,1,-1081.3665877880244,243.0641894347512) translate(76.525 63)"/><path d="M-1069.1 54.25a6 6 0 0 1 6-6h99.46a6 6 0 0 1 6 6v22a6 6 0 0 1-6 6h-99.45a6 6 0 0 1-6-6z" stroke="#000" stroke-opacity="0" fill="#fff" fill-opacity="0"/><use xlink:href="#P" transform="matrix(1,0,0,1,-1064.09301300806,53.25046331387615) translate(30.165493827160496 19.34027777777778)"/><path d="M-1060.26 446.3h-24v-1h24zm133.66 0h-39.88v-1h39.88zM-926.1 446.3h-.5v-1h.5z" stroke="#3a414a" stroke-width=".05" fill="#3a414a"/><path d="M-1084.75 450.42l-14.27-4.63 14.27-4.65z" fill="#fff"/><path d="M-1084.25 451.1l-16.38-5.3 16.38-5.34zm-13.15-5.3l12.15 3.93v-7.9z" stroke="#3a414a" stroke-width=".05" fill="#3a414a"/><use xlink:href="#Q" transform="matrix(1,0,0,1,-1060.2554766769133,435.1198956286178) translate(0.005000000000002558 14.222222222222223)"/><use xlink:href="#R" transform="matrix(1,0,0,1,-1060.2554766769133,435.1198956286178) translate(33.58524691358026 14.222222222222223)"/><use xlink:href="#S" transform="matrix(1,0,0,1,-1060.2554766769133,435.1198956286178) translate(78.96796296296296 14.222222222222223)"/><path d="M-1093.37 506.66a5 5 0 0 1 5-5h150a5 5 0 0 1 5 5v110a5 5 0 0 1-5 5h-150a5 5 0 0 1-5-5z" stroke="#1071e5" stroke-width="2" fill="#fff"/><use xlink:href="#T" transform="matrix(1,0,0,1,-1081.3665877880244,513.6606623350808) translate(16.5 41.4)"/><use xlink:href="#U" transform="matrix(1,0,0,1,-1081.3665877880244,513.6606623350808) translate(89.5 41.4)"/><use xlink:href="#V" transform="matrix(1,0,0,1,-1081.3665877880244,513.6606623350808) translate(109.5 41.4)"/><use xlink:href="#W" transform="matrix(1,0,0,1,-1081.3665877880244,513.6606623350808) translate(45.55 63)"/><path d="M-926.6 679.67h-4.8v-1h4.8zm-9.62 0h-9.62v-1h9.62zm-14.42 0h-9.62v-1h9.62zm-115.42 0h-9.62v-1h9.62zm-14.43 0h-9.6v-1h9.6zm-14.4 0h-4.82v-1h4.8zM-926.1 679.67h-.5v-1h.5z" stroke="#1071e5" stroke-width=".05" fill="#1071e5"/><path d="M-1082.18 669.42l-16.5 9.75 16.5 9.75-.5.86-17.95-10.6 17.94-10.62z" stroke="#1071e5" stroke-width=".05" fill="#1071e5"/><use xlink:href="#X" transform="matrix(1,0,0,1,-1065.169056923827,668.5047678798777) translate(0 14.222222222222223)"/><use xlink:href="#Y" transform="matrix(1,0,0,1,-1065.169056923827,668.5047678798777) translate(17.728395061728396 14.222222222222223)"/><use xlink:href="#Z" transform="matrix(1,0,0,1,-1065.169056923827,668.5047678798777) translate(88.79012345679011 14.222222222222223)"/><path d="M-271.15 68.18a5 5 0 0 1 5-5h150a5 5 0 0 1 5 5v110a5 5 0 0 1-5 5h-150a5 5 0 0 1-5-5z" stroke="#000" stroke-width="2" fill="#ced4db"/><use xlink:href="#t" transform="matrix(1,0,0,1,-259.1530729436376,75.17937596729024) translate(48.5 41.4)"/><use xlink:href="#aa" transform="matrix(1,0,0,1,-259.1530729436376,75.17937596729024) translate(23.124999999999993 63)"/><path d="M-390.9 436.9l-.5-.87 47.42-27.56h2zm169.38-98.46l-47.07 27.36h-1.98l48.55-28.23z" stroke="#3a414a" stroke-width=".05" fill="#3a414a"/><path d="M-390.88 436.9l-.36.2-.33-.4-.4-.33.6-.35z" fill="#3a414a"/><path d="M-390.85 436.9l-.4.23-.34-.4-.42-.36.65-.38zm-1.08-.53l.37.33.32.37.33-.2-.5-.8zM-221 337.55l-10.17 18.2-.87-.5 9.35-16.7-19.14-.16v-1z" stroke="#3a414a" stroke-width=".05" fill="#3a414a"/><use xlink:href="#ab" transform="matrix(1,0,0,1,-349.1457047935047,365.79916099916386) translate(23.609938271604943 14.222222222222223)"/><use xlink:href="#ac" transform="matrix(1,0,0,1,-349.1457047935047,365.79916099916386) translate(0.005000000000002558 35.55555555555556)"/><path d="M-191.15 276.94v-5.1m0-5.1v-10.2m0-5.1V241.2m0-5.1v-10.2m0-5.1V210.6m0-5.1v-10.2m0-5.1v-5.1" stroke="#1071e5" fill="none"/><path d="M-190.65 277.44h-1v-.5h1z" stroke="#1071e5" stroke-width=".05" fill="#1071e5"/><path d="M-180.97 202.38l-10.18-17.22-10.18 17.22" stroke="#1071e5" fill="none"/><path d="M210.7 739.67h-24.6v-1h24.6zm115.9 0h-24.2v-1h24.2z" stroke="#3a414a" stroke-width=".05" fill="#3a414a"/><path d="M186.1 739.67h-.5v-1h.5z" fill="#3a414a"/><path d="M186.13 739.7h-.56v-1.05h.56zm-.5-1v.95h.45v-.95zM327.5 739.17l-17.94 10.6-.5-.85 16.48-9.75-16.5-9.75.52-.86z" stroke="#3a414a" stroke-width=".05" fill="#3a414a"/><use xlink:href="#a" transform="matrix(1,0,0,1,210.69489700597808,717.838101213211) translate(24.622283950617295 14.222222222222223)"/><use xlink:href="#ad" transform="matrix(1,0,0,1,210.69489700597808,717.838101213211) translate(0.005000000000002558 35.55555555555556)"/><path d="M328.5 684.17a5 5 0 0 1 5-5h150a5 5 0 0 1 5 5v110a5 5 0 0 1-5 5h-150a5 5 0 0 1-5-5z" stroke="#1071e5" stroke-width="2" fill="#fff"/><use xlink:href="#m" transform="matrix(1,0,0,1,340.5000249999998,691.1714345465443) translate(28.574999999999996 50.4)"/><use xlink:href="#ae" transform="matrix(1,0,0,1,340.5000249999998,691.1714345465443) translate(94.475 50.4)"/><path d="M624.25 684.17a5 5 0 0 1 5-5h150a5 5 0 0 1 5 5v110a5 5 0 0 1-5 5h-150a5 5 0 0 1-5-5z" stroke="#1071e5" stroke-width="2" fill="#fff"/><use xlink:href="#af" transform="matrix(1,0,0,1,636.2465706592975,691.1714345465443) translate(19.574999999999996 50.4)"/><use xlink:href="#ag" transform="matrix(1,0,0,1,636.2465706592975,691.1714345465443) translate(65.525 50.4)"/><use xlink:href="#ah" transform="matrix(1,0,0,1,636.2465706592975,691.1714345465443) translate(102.42500000000001 50.4)"/><path d="M510.52 739.67H490v-1h20.52zm111.82 0h-20.12v-1h20.12z" stroke="#3a414a" stroke-width=".05" fill="#3a414a"/><path d="M490 739.67h-.5v-1h.5z" fill="#3a414a"/><path d="M490.04 739.7h-.56v-1.05h.56zm-.52-1v.95h.47v-.95zM623.25 739.17l-17.95 10.6-.5-.85 16.48-9.75-16.5-9.75.52-.86z" stroke="#3a414a" stroke-width=".05" fill="#3a414a"/><g><use xlink:href="#a" transform="matrix(1,0,0,1,510.5214459777968,717.838101213211) translate(24.622283950617295 14.222222222222223)"/><use xlink:href="#ad" transform="matrix(1,0,0,1,510.5214459777968,717.838101213211) translate(0.005000000000002558 35.55555555555556)"/></g><path d="M-469.82 834.13l.07.82.18.77.3.72.4.67.52.6.6.5.66.42.74.3.76.2.82.05h37.13v2h-37.2l-1.06-.08-1.08-.27-1.02-.42-.94-.56-.83-.72-.7-.83-.6-.95-.4-1-.26-1.08-.1-1.06V557.97h2zm1175.07.08l-.1 1.07-.24 1.07-.4 1-.6.95-.7.82-.84.72-.93.57-1.02.43-1.06.26-1.05.07H-308.36v-2H698.2l.83-.06.76-.18.72-.3.66-.4.6-.5.5-.6.42-.68.3-.72.18-.77.07-.82V802h2z" stroke="#fc9432" stroke-width=".05" fill="#fc9432"/><path d="M-469.82 558h-2v-1.04h2z" fill="#fc9432"/><path d="M-469.8 558h-2.04v-1.07h2.05zm-2-1.02v.98h1.96v-.98zM715.3 818.84l-1.73 1.02-9.32-15.76-9.32 15.76-1.72-1.02 11.05-18.67z" stroke="#fc9432" stroke-width=".05" fill="#fc9432"/><g><use xlink:href="#ai" transform="matrix(1,0,0,1,-427.65432098765433,829.504717879878) translate(0.005000000000002558 14.222222222222223)"/></g><path d="M-1045.9 743h-52.9l-.02-2h52.9zm118.8 0h-53.72v-2h53.72z" stroke="#fc9432" stroke-width=".05" fill="#fc9432"/><path d="M-926.1 743h-1.02v-2h1.02zM-1080.94 732.68l-15.76 9.32 15.76 9.32-1.02 1.72-18.67-11.04 18.67-11.04z" stroke="#fc9432" stroke-width=".05" fill="#fc9432"/><g><use xlink:href="#aj" transform="matrix(1,0,0,1,-1045.9097976645676,720.6666666666666) translate(2.498827160493832 14.222222222222223)"/><use xlink:href="#ak" transform="matrix(1,0,0,1,-1045.9097976645676,720.6666666666666) translate(0.005000000000002558 35.55555555555556)"/></g><path d="M-527 915.96l.07.82.18.76.3.73.4.67.52.6.6.5.66.4.73.3.76.2.82.06h91.27v2h-91.34l-1.06-.08-1.06-.26-1.02-.42-.94-.57-.83-.72-.72-.83-.57-.94-.42-1.02-.26-1.06-.08-1.06V557.96h2zM823.1 495.04l1.06.26 1.02.42.94.57.83.7.72.84.57.94.42 1.02.26 1.06.08 1.06v414.12l-.08 1.06-.26 1.06-.42 1.02-.57.94-.72.83-.83.72-.94.57-1.02.42-1.06.26-1.06.08H-313.3v-2H821.95l.82-.07.76-.18.73-.3.67-.4.6-.52.5-.6.4-.66.3-.73.2-.76.06-.82V502l-.07-.82-.18-.76-.3-.73-.4-.68-.52-.6-.6-.5-.66-.4-.73-.3-.76-.2-.82-.06H187.4v-2h634.64z" stroke="#fc9432" stroke-width=".05" fill="#fc9432"/><path d="M-527 558h-2v-1.04h2z" fill="#fc9432"/><path d="M-526.98 558H-529v-1.07h2.04zm-2-1.02v.98h1.96v-.98zM205.28 486.64l-15.76 9.32 15.76 9.32-1.02 1.72-18.67-11.04 18.66-11.04z" stroke="#fc9432" stroke-width=".05" fill="#fc9432"/><g><use xlink:href="#al" transform="matrix(1,0,0,1,-430.69135802469134,911.3333333333334) translate(0.005000000000002558 14.222222222222223)"/></g><path d="M-1042.5 795.83a5 5 0 0 1 5-5h48.26a5 5 0 0 1 5 5v52.26a5 5 0 0 1-5 5h-48.25a5 5 0 0 1-5-5z" stroke="#1071e5" stroke-width="2" fill="#fff"/><g><use xlink:href="#am" transform="matrix(1,0,0,1,-1030.493763214596,802.834297318462) translate(5 24.15)"/><use xlink:href="#an" transform="matrix(1,0,0,1,-1030.493763214596,802.834297318462) translate(10 24.15)"/><use xlink:href="#ao" transform="matrix(1,0,0,1,-1030.493763214596,802.834297318462) translate(25 24.15)"/></g><path d="M-1090.74 868.64a6 6 0 0 1 6-6H-942a6 6 0 0 1 6 6v14.53a6 6 0 0 1-6 6h-142.74a6 6 0 0 1-6-6z" stroke="#000" stroke-opacity="0" fill="#fff" fill-opacity="0"/><g><use xlink:href="#ap" transform="matrix(1,0,0,1,-1085.7356630717195,867.6441769333328) translate(15.154320987654323 17.77777777777778)"/><use xlink:href="#aq" transform="matrix(1,0,0,1,-1085.7356630717195,867.6441769333328) translate(76.82098765432099 17.77777777777778)"/></g><path d="M-220.28 283.44a5 5 0 0 1 5-5h48.25a5 5 0 0 1 5 5v52.26a5 5 0 0 1-5 5h-48.25a5 5 0 0 1-5-5z" stroke="#1071e5" stroke-width="2" fill="#fff"/><g><use xlink:href="#am" transform="matrix(1,0,0,1,-208.28024837020916,290.4430682573627) translate(5 24.15)"/><use xlink:href="#an" transform="matrix(1,0,0,1,-208.28024837020916,290.4430682573627) translate(10 24.15)"/><use xlink:href="#ao" transform="matrix(1,0,0,1,-208.28024837020916,290.4430682573627) translate(25 24.15)"/></g><path d="M-102.74 310.07h-57.8v-1h57.8zm125.42 0H-34.7v-1H22.7z" stroke="#3a414a" stroke-width=".05" fill="#3a414a"/><path d="M-160.5 310.07h-.53v-1h.52z" fill="#3a414a"/><path d="M-160.5 310.1h-.55v-1.06h.56zm-.5-1v.94h.46v-.95zM23.6 309.57l-17.95 10.6-.5-.85 16.48-9.75-16.5-9.75.52-.86z" stroke="#3a414a" stroke-width=".05" fill="#3a414a"/><g><use xlink:href="#ar" transform="matrix(1,0,0,1,-102.74090368529893,288.235969625597) translate(0.005000000000002558 14.222222222222223)"/><use xlink:href="#as" transform="matrix(1,0,0,1,-102.74090368529893,288.235969625597) translate(8.893888888888892 35.55555555555556)"/></g><path d="M24.6 281.77a5 5 0 0 1 5-5h143.5a5 5 0 0 1 5 5v55.6a5 5 0 0 1-5 5H29.6a5 5 0 0 1-5-5z" stroke="#1071e5" stroke-width="2" fill="#fff"/><g><use xlink:href="#at" transform="matrix(1,0,0,1,36.593472715660084,288.7693029589303) translate(21.257407407407406 16.491666666666667)"/><use xlink:href="#au" transform="matrix(1,0,0,1,36.593472715660084,288.7693029589303) translate(14.03518518518517 37.29166666666667)"/></g><path d="M-161 280.84l-.55-.83 60.68-40.97h1.78zM24.4 155.6l-60.32 40.76h-1.8l61.57-41.6z" stroke="#3a414a" stroke-width=".05" fill="#3a414a"/><path d="M-160.98 280.83l-.5.35-.2-.46-.26-.44.4-.27z" fill="#3a414a"/><path d="M-160.94 280.84l-.56.38-.2-.5-.28-.45.45-.3zm-.97-.55l.25.4.18.44.46-.3-.54-.8zM15.96 173.52l-.9-.43 8.2-17.32-19.12 1.15-.06-1 20.8-1.25z" stroke="#3a414a" stroke-width=".05" fill="#3a414a"/><g><use xlink:href="#ar" transform="matrix(1,0,0,1,-102.42420297821677,196.36079191263312) translate(0.005000000000002558 14.222222222222223)"/><use xlink:href="#as" transform="matrix(1,0,0,1,-102.42420297821677,196.36079191263312) translate(8.893888888888892 35.55555555555556)"/></g><path d="M24.6 95.38a5 5 0 0 1 5-5h143.5a5 5 0 0 1 5 5v55.6a5 5 0 0 1-5 5H29.6a5 5 0 0 1-5-5z" stroke="#1071e5" stroke-width="2" fill="#fff"/><g><use xlink:href="#av" transform="matrix(1,0,0,1,36.593472715660084,102.3793759672902) translate(-1.3722222222222342 14.066666666666665)"/><use xlink:href="#aw" transform="matrix(1,0,0,1,36.593472715660084,102.3793759672902) translate(17.86296296296296 34.86666666666667)"/></g><defs><path fill="#333" d="M135-143c-3-34-86-38-87 0 15 53 115 12 119 90S17 21 10-45l28-5c4 36 97 45 98 0-10-56-113-15-118-90-4-57 82-63 122-42 12 7 21 19 24 35" id="ax"/><path fill="#333" d="M100-194c62-1 85 37 85 99 1 63-27 99-86 99S16-35 15-95c0-66 28-99 85-99zM99-20c44 1 53-31 53-75 0-43-8-75-51-75s-53 32-53 75 10 74 51 75" id="ay"/><path fill="#333" d="M141-36C126-15 110 5 73 4 37 3 15-17 15-53c-1-64 63-63 125-63 3-35-9-54-41-54-24 1-41 7-42 31l-33-3c5-37 33-52 76-52 45 0 72 20 72 64v82c-1 20 7 32 28 27v20c-31 9-61-2-59-35zM48-53c0 20 12 33 32 33 41-3 63-29 60-74-43 2-92-5-92 41" id="az"/><path fill="#333" d="M33-154v-36h34v36H33zM33 0v-36h34V0H33" id="aA"/><g id="a"><use transform="matrix(0.04938271604938272,0,0,0.04938271604938272,0,0)" xlink:href="#ax"/><use transform="matrix(0.04938271604938272,0,0,0.04938271604938272,8.88888888888889,0)" xlink:href="#ay"/><use transform="matrix(0.04938271604938272,0,0,0.04938271604938272,18.765432098765434,0)" xlink:href="#ax"/><use transform="matrix(0.04938271604938272,0,0,0.04938271604938272,27.654320987654323,0)" xlink:href="#az"/><use transform="matrix(0.04938271604938272,0,0,0.04938271604938272,37.53086419753087,0)" xlink:href="#aA"/></g><path fill="#333" d="M115-194c53 0 69 39 70 98 0 66-23 100-70 100C84 3 66-7 56-30L54 0H23l1-261h32v101c10-23 28-34 59-34zm-8 174c40 0 45-34 45-75 0-40-5-75-45-74-42 0-51 32-51 76 0 43 10 73 51 73" id="aB"/><path fill="#333" d="M100-194c63 0 86 42 84 106H49c0 40 14 67 53 68 26 1 43-12 49-29l28 8c-11 28-37 45-77 45C44 4 14-33 15-96c1-61 26-98 85-98zm52 81c6-60-76-77-97-28-3 7-6 17-6 28h103" id="aC"/><path fill="#333" d="M114-163C36-179 61-72 57 0H25l-1-190h30c1 12-1 29 2 39 6-27 23-49 58-41v29" id="aD"/><path fill="#333" d="M108 0H70L1-190h34L89-25l56-165h34" id="aE"/><g id="b"><use transform="matrix(0.04938271604938272,0,0,0.04938271604938272,0,0)" xlink:href="#ay"/><use transform="matrix(0.04938271604938272,0,0,0.04938271604938272,9.876543209876544,0)" xlink:href="#aB"/><use transform="matrix(0.04938271604938272,0,0,0.04938271604938272,19.75308641975309,0)" xlink:href="#ax"/><use transform="matrix(0.04938271604938272,0,0,0.04938271604938272,28.641975308641978,0)" xlink:href="#aC"/><use transform="matrix(0.04938271604938272,0,0,0.04938271604938272,38.51851851851852,0)" xlink:href="#aD"/><use transform="matrix(0.04938271604938272,0,0,0.04938271604938272,44.39506172839506,0)" xlink:href="#aE"/><use transform="matrix(0.04938271604938272,0,0,0.04938271604938272,53.28395061728394,0)" xlink:href="#aC"/><use transform="matrix(0.04938271604938272,0,0,0.04938271604938272,63.1604938271605,0)" xlink:href="#ax"/></g><path fill="#333" d="M30-248c87 1 191-15 191 75 0 78-77 80-158 76V0H30v-248zm33 125c57 0 124 11 124-50 0-59-68-47-124-48v98" id="aF"/><path fill="#333" d="M115-194c55 1 70 41 70 98S169 2 115 4C84 4 66-9 55-30l1 105H24l-1-265h31l2 30c10-21 28-34 59-34zm-8 174c40 0 45-34 45-75s-6-73-45-74c-42 0-51 32-51 76 0 43 10 73 51 73" id="aG"/><path fill="#333" d="M59-47c-2 24 18 29 38 22v24C64 9 27 4 27-40v-127H5v-23h24l9-43h21v43h35v23H59v120" id="aH"/><path fill="#333" d="M179-190L93 31C79 59 56 82 12 73V49c39 6 53-20 64-50L1-190h34L92-34l54-156h33" id="aI"/><g id="c"><use transform="matrix(0.04938271604938272,0,0,0.04938271604938272,0,0)" xlink:href="#aF"/><use transform="matrix(0.04938271604938272,0,0,0.04938271604938272,11.851851851851853,0)" xlink:href="#aD"/><use transform="matrix(0.04938271604938272,0,0,0.04938271604938272,17.728395061728396,0)" xlink:href="#ay"/><use transform="matrix(0.04938271604938272,0,0,0.04938271604938272,27.60493827160494,0)" xlink:href="#aG"/><use transform="matrix(0.04938271604938272,0,0,0.04938271604938272,37.48148148148148,0)" xlink:href="#aC"/><use transform="matrix(0.04938271604938272,0,0,0.04938271604938272,47.358024691358025,0)" xlink:href="#aD"/><use transform="matrix(0.04938271604938272,0,0,0.04938271604938272,53.23456790123457,0)" xlink:href="#aH"/><use transform="matrix(0.04938271604938272,0,0,0.04938271604938272,58.17283950617284,0)" xlink:href="#aI"/></g><path fill="#333" d="M106-169C34-169 62-67 57 0H25v-261h32l-1 103c12-21 28-36 61-36 89 0 53 116 60 194h-32v-121c2-32-8-49-39-48" id="aJ"/><path fill="#333" d="M63-220v92h138v28H63V0H30v-248h175v28H63" id="aK"/><path fill="#333" d="M84 4C-5 8 30-112 23-190h32v120c0 31 7 50 39 49 72-2 45-101 50-169h31l1 190h-30c-1-10 1-25-2-33-11 22-28 36-60 37" id="aL"/><g id="d"><use transform="matrix(0.04938271604938272,0,0,0.04938271604938272,0,0)" xlink:href="#aJ"/><use transform="matrix(0.04938271604938272,0,0,0.04938271604938272,9.876543209876544,0)" xlink:href="#az"/><use transform="matrix(0.04938271604938272,0,0,0.04938271604938272,19.75308641975309,0)" xlink:href="#ax"/><use transform="matrix(0.04938271604938272,0,0,0.04938271604938272,28.641975308641978,0)" xlink:href="#aK"/><use transform="matrix(0.04938271604938272,0,0,0.04938271604938272,39.45679012345679,0)" xlink:href="#aC"/><use transform="matrix(0.04938271604938272,0,0,0.04938271604938272,49.333333333333336,0)" xlink:href="#az"/><use transform="matrix(0.04938271604938272,0,0,0.04938271604938272,59.20987654320988,0)" xlink:href="#aH"/><use transform="matrix(0.04938271604938272,0,0,0.04938271604938272,64.14814814814815,0)" xlink:href="#aL"/><use transform="matrix(0.04938271604938272,0,0,0.04938271604938272,74.0246913580247,0)" xlink:href="#aD"/><use transform="matrix(0.04938271604938272,0,0,0.04938271604938272,79.90123456790124,0)" xlink:href="#aC"/></g><path fill="#333" d="M140-251c81 0 123 46 123 126C263-46 219 4 140 4 59 4 17-45 17-125s42-126 123-126zm0 227c63 0 89-41 89-101s-29-99-89-99c-61 0-89 39-89 99S79-25 140-24" id="aM"/><path fill="#333" d="M101-234c-31-9-42 10-38 44h38v23H63V0H32v-167H5v-23h27c-7-52 17-82 69-68v24" id="aN"/><path fill="#333" d="M33 0v-248h34V0H33" id="aO"/><path fill="#333" d="M117-194c89-4 53 116 60 194h-32v-121c0-31-8-49-39-48C34-167 62-67 57 0H25l-1-190h30c1 10-1 24 2 32 11-22 29-35 61-36" id="aP"/><g id="e"><use transform="matrix(0.04938271604938272,0,0,0.04938271604938272,0,0)" xlink:href="#aM"/><use transform="matrix(0.04938271604938272,0,0,0.04938271604938272,13.827160493827162,0)" xlink:href="#aN"/><use transform="matrix(0.04938271604938272,0,0,0.04938271604938272,18.765432098765434,0)" xlink:href="#aO"/><use transform="matrix(0.04938271604938272,0,0,0.04938271604938272,23.703703703703706,0)" xlink:href="#aP"/><use transform="matrix(0.04938271604938272,0,0,0.04938271604938272,33.580246913580254,0)" xlink:href="#aH"/><use transform="matrix(0.04938271604938272,0,0,0.04938271604938272,38.518518518518526,0)" xlink:href="#aC"/><use transform="matrix(0.04938271604938272,0,0,0.04938271604938272,48.39506172839507,0)" xlink:href="#aD"/><use transform="matrix(0.04938271604938272,0,0,0.04938271604938272,54.27160493827161,0)" xlink:href="#aC"/><use transform="matrix(0.04938271604938272,0,0,0.04938271604938272,64.14814814814815,0)" xlink:href="#ax"/><use transform="matrix(0.04938271604938272,0,0,0.04938271604938272,73.03703703703704,0)" xlink:href="#aH"/></g><g id="f"><use transform="matrix(0.04938271604938272,0,0,0.04938271604938272,0,0)" xlink:href="#aG"/><use transform="matrix(0.04938271604938272,0,0,0.04938271604938272,9.876543209876544,0)" xlink:href="#aD"/><use transform="matrix(0.04938271604938272,0,0,0.04938271604938272,15.753086419753087,0)" xlink:href="#ay"/><use transform="matrix(0.04938271604938272,0,0,0.04938271604938272,25.629629629629633,0)" xlink:href="#aG"/><use transform="matrix(0.04938271604938272,0,0,0.04938271604938272,35.50617283950618,0)" xlink:href="#aC"/><use transform="matrix(0.04938271604938272,0,0,0.04938271604938272,45.38271604938272,0)" xlink:href="#aD"/><use transform="matrix(0.04938271604938272,0,0,0.04938271604938272,51.25925925925927,0)" xlink:href="#aH"/><use transform="matrix(0.04938271604938272,0,0,0.04938271604938272,56.19753086419754,0)" xlink:href="#aI"/></g><path fill="#1071e5" d="M140-251c81 0 123 46 123 126C263-46 219 4 140 4 59 4 17-45 17-125s42-126 123-126zm0 227c63 0 89-41 89-101s-29-99-89-99c-61 0-89 39-89 99S79-25 140-24" id="aQ"/><path fill="#1071e5" d="M96-169c-40 0-48 33-48 73s9 75 48 75c24 0 41-14 43-38l32 2c-6 37-31 61-74 61-59 0-76-41-82-99-10-93 101-131 147-64 4 7 5 14 7 22l-32 3c-4-21-16-35-41-35" id="aR"/><path fill="#1071e5" d="M84 4C-5 8 30-112 23-190h32v120c0 31 7 50 39 49 72-2 45-101 50-169h31l1 190h-30c-1-10 1-25-2-33-11 22-28 36-60 37" id="aS"/><path fill="#1071e5" d="M114-163C36-179 61-72 57 0H25l-1-190h30c1 12-1 29 2 39 6-27 23-49 58-41v29" id="aT"/><path fill="#1071e5" d="M100-194c63 0 86 42 84 106H49c0 40 14 67 53 68 26 1 43-12 49-29l28 8c-11 28-37 45-77 45C44 4 14-33 15-96c1-61 26-98 85-98zm52 81c6-60-76-77-97-28-3 7-6 17-6 28h103" id="aU"/><path fill="#1071e5" d="M117-194c89-4 53 116 60 194h-32v-121c0-31-8-49-39-48C34-167 62-67 57 0H25l-1-190h30c1 10-1 24 2 32 11-22 29-35 61-36" id="aV"/><g id="g"><use transform="matrix(0.05,0,0,0.05,0,0)" xlink:href="#aQ"/><use transform="matrix(0.05,0,0,0.05,14,0)" xlink:href="#aR"/><use transform="matrix(0.05,0,0,0.05,23,0)" xlink:href="#aR"/><use transform="matrix(0.05,0,0,0.05,32,0)" xlink:href="#aS"/><use transform="matrix(0.05,0,0,0.05,42,0)" xlink:href="#aT"/><use transform="matrix(0.05,0,0,0.05,47.95,0)" xlink:href="#aU"/><use transform="matrix(0.05,0,0,0.05,57.95,0)" xlink:href="#aV"/><use transform="matrix(0.05,0,0,0.05,67.95,0)" xlink:href="#aR"/><use transform="matrix(0.05,0,0,0.05,76.95,0)" xlink:href="#aU"/></g><path fill="#1071e5" d="M100-194c62-1 85 37 85 99 1 63-27 99-86 99S16-35 15-95c0-66 28-99 85-99zM99-20c44 1 53-31 53-75 0-43-8-75-51-75s-53 32-53 75 10 74 51 75" id="aW"/><path fill="#1071e5" d="M101-234c-31-9-42 10-38 44h38v23H63V0H32v-167H5v-23h27c-7-52 17-82 69-68v24" id="aX"/><g id="h"><use transform="matrix(0.05,0,0,0.05,0,0)" xlink:href="#aW"/><use transform="matrix(0.05,0,0,0.05,10,0)" xlink:href="#aX"/></g><path fill="#1071e5" d="M143 4C61 4 22-44 18-125c-5-107 100-154 193-111 17 8 29 25 37 43l-32 9c-13-25-37-40-76-40-61 0-88 39-88 99 0 61 29 100 91 101 35 0 62-11 79-27v-45h-74v-28h105v86C228-13 192 4 143 4" id="aY"/><path fill="#1071e5" d="M24 0v-261h32V0H24" id="aZ"/><path fill="#1071e5" d="M85-194c31 0 48 13 60 33l-1-100h32l1 261h-30c-2-10 0-23-3-31C134-8 116 4 85 4 32 4 16-35 15-94c0-66 23-100 70-100zm9 24c-40 0-46 34-46 75 0 40 6 74 45 74 42 0 51-32 51-76 0-42-9-74-50-73" id="ba"/><g id="i"><use transform="matrix(0.05,0,0,0.05,0,0)" xlink:href="#aY"/><use transform="matrix(0.05,0,0,0.05,14,0)" xlink:href="#aW"/><use transform="matrix(0.05,0,0,0.05,24,0)" xlink:href="#aZ"/><use transform="matrix(0.05,0,0,0.05,27.950000000000003,0)" xlink:href="#ba"/></g><path fill="#1071e5" d="M24-231v-30h32v30H24zM24 0v-190h32V0H24" id="bb"/><g id="j"><use transform="matrix(0.05,0,0,0.05,0,0)" xlink:href="#bb"/><use transform="matrix(0.05,0,0,0.05,3.95,0)" xlink:href="#aV"/></g><path fill="#1071e5" d="M141-36C126-15 110 5 73 4 37 3 15-17 15-53c-1-64 63-63 125-63 3-35-9-54-41-54-24 1-41 7-42 31l-33-3c5-37 33-52 76-52 45 0 72 20 72 64v82c-1 20 7 32 28 27v20c-31 9-61-2-59-35zM48-53c0 20 12 33 32 33 41-3 63-29 60-74-43 2-92-5-92 41" id="bc"/><use transform="matrix(0.05,0,0,0.05,0,0)" xlink:href="#bc" id="k"/><path fill="#1071e5" d="M210-169c-67 3-38 105-44 169h-31v-121c0-29-5-50-35-48C34-165 62-65 56 0H25l-1-190h30c1 10-1 24 2 32 10-44 99-50 107 0 11-21 27-35 58-36 85-2 47 119 55 194h-31v-121c0-29-5-49-35-48" id="bd"/><path fill="#1071e5" d="M59-47c-2 24 18 29 38 22v24C64 9 27 4 27-40v-127H5v-23h24l9-43h21v43h35v23H59v120" id="be"/><path fill="#1071e5" d="M141 0L90-78 38 0H4l68-98-65-92h35l48 74 47-74h35l-64 92 68 98h-35" id="bf"/><g id="l"><use transform="matrix(0.05,0,0,0.05,0,0)" xlink:href="#bd"/><use transform="matrix(0.05,0,0,0.05,14.950000000000001,0)" xlink:href="#bc"/><use transform="matrix(0.05,0,0,0.05,24.950000000000003,0)" xlink:href="#be"/><use transform="matrix(0.05,0,0,0.05,29.950000000000003,0)" xlink:href="#aT"/><use transform="matrix(0.05,0,0,0.05,35.900000000000006,0)" xlink:href="#bb"/><use transform="matrix(0.05,0,0,0.05,39.85000000000001,0)" xlink:href="#bf"/></g><path fill="#1071e5" d="M185-189c-5-48-123-54-124 2 14 75 158 14 163 119 3 78-121 87-175 55-17-10-28-26-33-46l33-7c5 56 141 63 141-1 0-78-155-14-162-118-5-82 145-84 179-34 5 7 8 16 11 25" id="bg"/><path fill="#1071e5" d="M115-194c55 1 70 41 70 98S169 2 115 4C84 4 66-9 55-30l1 105H24l-1-265h31l2 30c10-21 28-34 59-34zm-8 174c40 0 45-34 45-75s-6-73-45-74c-42 0-51 32-51 76 0 43 10 73 51 73" id="bh"/><g id="m"><use transform="matrix(0.05,0,0,0.05,0,0)" xlink:href="#bg"/><use transform="matrix(0.05,0,0,0.05,12,0)" xlink:href="#bc"/><use transform="matrix(0.05,0,0,0.05,22,0)" xlink:href="#bd"/><use transform="matrix(0.05,0,0,0.05,36.95,0)" xlink:href="#bh"/><use transform="matrix(0.05,0,0,0.05,46.95,0)" xlink:href="#aZ"/><use transform="matrix(0.05,0,0,0.05,50.900000000000006,0)" xlink:href="#aU"/></g><path fill="#1071e5" d="M195 0l-74-108L45 0H8l94-129-87-119h37l69 98 67-98h37l-84 118L233 0h-38" id="bi"/><use transform="matrix(0.05,0,0,0.05,0,0)" xlink:href="#bi" id="n"/><path fill="#1071e5" d="M115-194c53 0 69 39 70 98 0 66-23 100-70 100C84 3 66-7 56-30L54 0H23l1-261h32v101c10-23 28-34 59-34zm-8 174c40 0 45-34 45-75 0-40-5-75-45-74-42 0-51 32-51 76 0 43 10 73 51 73" id="bj"/><path fill="#1071e5" d="M135-143c-3-34-86-38-87 0 15 53 115 12 119 90S17 21 10-45l28-5c4 36 97 45 98 0-10-56-113-15-118-90-4-57 82-63 122-42 12 7 21 19 24 35" id="bk"/><path fill="#1071e5" d="M108 0H70L1-190h34L89-25l56-165h34" id="bl"/><g id="o"><use transform="matrix(0.05,0,0,0.05,0,0)" xlink:href="#aQ"/><use transform="matrix(0.05,0,0,0.05,14,0)" xlink:href="#bj"/><use transform="matrix(0.05,0,0,0.05,24,0)" xlink:href="#bk"/><use transform="matrix(0.05,0,0,0.05,33,0)" xlink:href="#aU"/><use transform="matrix(0.05,0,0,0.05,43,0)" xlink:href="#aT"/><use transform="matrix(0.05,0,0,0.05,48.95,0)" xlink:href="#bl"/><use transform="matrix(0.05,0,0,0.05,57.95,0)" xlink:href="#bc"/><use transform="matrix(0.05,0,0,0.05,67.95,0)" xlink:href="#be"/><use transform="matrix(0.05,0,0,0.05,72.95,0)" xlink:href="#bb"/><use transform="matrix(0.05,0,0,0.05,76.9,0)" xlink:href="#aW"/><use transform="matrix(0.05,0,0,0.05,86.9,0)" xlink:href="#aV"/></g><path fill="#1071e5" d="M137-103V0h-34v-103L8-248h37l75 118 75-118h37" id="bm"/><use transform="matrix(0.05,0,0,0.05,0,0)" xlink:href="#bm" id="p"/><path fill="#fff" d="M135-143c-3-34-86-38-87 0 15 53 115 12 119 90S17 21 10-45l28-5c4 36 97 45 98 0-10-56-113-15-118-90-4-57 82-63 122-42 12 7 21 19 24 35" id="bn"/><path fill="#fff" d="M100-194c62-1 85 37 85 99 1 63-27 99-86 99S16-35 15-95c0-66 28-99 85-99zM99-20c44 1 53-31 53-75 0-43-8-75-51-75s-53 32-53 75 10 74 51 75" id="bo"/><path fill="#fff" d="M141-36C126-15 110 5 73 4 37 3 15-17 15-53c-1-64 63-63 125-63 3-35-9-54-41-54-24 1-41 7-42 31l-33-3c5-37 33-52 76-52 45 0 72 20 72 64v82c-1 20 7 32 28 27v20c-31 9-61-2-59-35zM48-53c0 20 12 33 32 33 41-3 63-29 60-74-43 2-92-5-92 41" id="bp"/><path fill="#fff" d="M33-154v-36h34v36H33zM33 0v-36h34V0H33" id="bq"/><g id="q"><use transform="matrix(0.05,0,0,0.05,0,0)" xlink:href="#bn"/><use transform="matrix(0.05,0,0,0.05,9,0)" xlink:href="#bo"/><use transform="matrix(0.05,0,0,0.05,19,0)" xlink:href="#bn"/><use transform="matrix(0.05,0,0,0.05,28,0)" xlink:href="#bp"/><use transform="matrix(0.05,0,0,0.05,38,0)" xlink:href="#bq"/></g><path fill="#fff" d="M140-251c81 0 123 46 123 126C263-46 219 4 140 4 59 4 17-45 17-125s42-126 123-126zm0 227c63 0 89-41 89-101s-29-99-89-99c-61 0-89 39-89 99S79-25 140-24" id="br"/><path fill="#fff" d="M115-194c53 0 69 39 70 98 0 66-23 100-70 100C84 3 66-7 56-30L54 0H23l1-261h32v101c10-23 28-34 59-34zm-8 174c40 0 45-34 45-75 0-40-5-75-45-74-42 0-51 32-51 76 0 43 10 73 51 73" id="bs"/><path fill="#fff" d="M100-194c63 0 86 42 84 106H49c0 40 14 67 53 68 26 1 43-12 49-29l28 8c-11 28-37 45-77 45C44 4 14-33 15-96c1-61 26-98 85-98zm52 81c6-60-76-77-97-28-3 7-6 17-6 28h103" id="bt"/><path fill="#fff" d="M114-163C36-179 61-72 57 0H25l-1-190h30c1 12-1 29 2 39 6-27 23-49 58-41v29" id="bu"/><path fill="#fff" d="M108 0H70L1-190h34L89-25l56-165h34" id="bv"/><path fill="#fff" d="M59-47c-2 24 18 29 38 22v24C64 9 27 4 27-40v-127H5v-23h24l9-43h21v43h35v23H59v120" id="bw"/><path fill="#fff" d="M24-231v-30h32v30H24zM24 0v-190h32V0H24" id="bx"/><path fill="#fff" d="M117-194c89-4 53 116 60 194h-32v-121c0-31-8-49-39-48C34-167 62-67 57 0H25l-1-190h30c1 10-1 24 2 32 11-22 29-35 61-36" id="by"/><g id="r"><use transform="matrix(0.05,0,0,0.05,0,0)" xlink:href="#br"/><use transform="matrix(0.05,0,0,0.05,14,0)" xlink:href="#bs"/><use transform="matrix(0.05,0,0,0.05,24,0)" xlink:href="#bn"/><use transform="matrix(0.05,0,0,0.05,33,0)" xlink:href="#bt"/><use transform="matrix(0.05,0,0,0.05,43,0)" xlink:href="#bu"/><use transform="matrix(0.05,0,0,0.05,48.95,0)" xlink:href="#bv"/><use transform="matrix(0.05,0,0,0.05,57.95,0)" xlink:href="#bp"/><use transform="matrix(0.05,0,0,0.05,67.95,0)" xlink:href="#bw"/><use transform="matrix(0.05,0,0,0.05,72.95,0)" xlink:href="#bx"/><use transform="matrix(0.05,0,0,0.05,76.9,0)" xlink:href="#bo"/><use transform="matrix(0.05,0,0,0.05,86.9,0)" xlink:href="#by"/></g><path fill="#fff" d="M212-179c-10-28-35-45-73-45-59 0-87 40-87 99 0 60 29 101 89 101 43 0 62-24 78-52l27 14C228-24 195 4 139 4 59 4 22-46 18-125c-6-104 99-153 187-111 19 9 31 26 39 46" id="bz"/><path fill="#fff" d="M24 0v-261h32V0H24" id="bA"/><path fill="#fff" d="M96-169c-40 0-48 33-48 73s9 75 48 75c24 0 41-14 43-38l32 2c-6 37-31 61-74 61-59 0-76-41-82-99-10-93 101-131 147-64 4 7 5 14 7 22l-32 3c-4-21-16-35-41-35" id="bB"/><g id="s"><use transform="matrix(0.05,0,0,0.05,0,0)" xlink:href="#bz"/><use transform="matrix(0.05,0,0,0.05,12.950000000000001,0)" xlink:href="#bo"/><use transform="matrix(0.05,0,0,0.05,22.950000000000003,0)" xlink:href="#bA"/><use transform="matrix(0.05,0,0,0.05,26.900000000000002,0)" xlink:href="#bA"/><use transform="matrix(0.05,0,0,0.05,30.85,0)" xlink:href="#bt"/><use transform="matrix(0.05,0,0,0.05,40.85,0)" xlink:href="#bB"/><use transform="matrix(0.05,0,0,0.05,49.85,0)" xlink:href="#bw"/><use transform="matrix(0.05,0,0,0.05,54.85,0)" xlink:href="#bx"/><use transform="matrix(0.05,0,0,0.05,58.800000000000004,0)" xlink:href="#bo"/><use transform="matrix(0.05,0,0,0.05,68.80000000000001,0)" xlink:href="#by"/></g><path d="M85-194c31 0 48 13 60 33l-1-100h32l1 261h-30c-2-10 0-23-3-31C134-8 116 4 85 4 32 4 16-35 15-94c0-66 23-100 70-100zm9 24c-40 0-46 34-46 75 0 40 6 74 45 74 42 0 51-32 51-76 0-42-9-74-50-73" id="bC"/><path d="M96-169c-40 0-48 33-48 73s9 75 48 75c24 0 41-14 43-38l32 2c-6 37-31 61-74 61-59 0-76-41-82-99-10-93 101-131 147-64 4 7 5 14 7 22l-32 3c-4-21-16-35-41-35" id="bD"/><path d="M141-36C126-15 110 5 73 4 37 3 15-17 15-53c-1-64 63-63 125-63 3-35-9-54-41-54-24 1-41 7-42 31l-33-3c5-37 33-52 76-52 45 0 72 20 72 64v82c-1 20 7 32 28 27v20c-31 9-61-2-59-35zM48-53c0 20 12 33 32 33 41-3 63-29 60-74-43 2-92-5-92 41" id="bE"/><path d="M59-47c-2 24 18 29 38 22v24C64 9 27 4 27-40v-127H5v-23h24l9-43h21v43h35v23H59v120" id="bF"/><path d="M33-154v-36h34v36H33zM33 0v-36h34V0H33" id="bG"/><g id="t"><use transform="matrix(0.05,0,0,0.05,0,0)" xlink:href="#bC"/><use transform="matrix(0.05,0,0,0.05,10,0)" xlink:href="#bD"/><use transform="matrix(0.05,0,0,0.05,19,0)" xlink:href="#bE"/><use transform="matrix(0.05,0,0,0.05,29,0)" xlink:href="#bF"/><use transform="matrix(0.05,0,0,0.05,34,0)" xlink:href="#bG"/></g><path d="M30-248c118-7 216 8 213 122C240-48 200 0 122 0H30v-248zM63-27c89 8 146-16 146-99s-60-101-146-95v194" id="bH"/><path d="M135-143c-3-34-86-38-87 0 15 53 115 12 119 90S17 21 10-45l28-5c4 36 97 45 98 0-10-56-113-15-118-90-4-57 82-63 122-42 12 7 21 19 24 35" id="bI"/><path d="M100-194c63 0 86 42 84 106H49c0 40 14 67 53 68 26 1 43-12 49-29l28 8c-11 28-37 45-77 45C44 4 14-33 15-96c1-61 26-98 85-98zm52 81c6-60-76-77-97-28-3 7-6 17-6 28h103" id="bJ"/><g id="u"><use transform="matrix(0.05,0,0,0.05,0,0)" xlink:href="#bH"/><use transform="matrix(0.05,0,0,0.05,12.950000000000001,0)" xlink:href="#bE"/><use transform="matrix(0.05,0,0,0.05,22.950000000000003,0)" xlink:href="#bF"/><use transform="matrix(0.05,0,0,0.05,27.950000000000003,0)" xlink:href="#bE"/><use transform="matrix(0.05,0,0,0.05,37.95,0)" xlink:href="#bI"/><use transform="matrix(0.05,0,0,0.05,46.95,0)" xlink:href="#bJ"/><use transform="matrix(0.05,0,0,0.05,56.95,0)" xlink:href="#bF"/></g><g id="v"><use transform="matrix(0.05,0,0,0.05,0,0)" xlink:href="#aQ"/><use transform="matrix(0.05,0,0,0.05,14,0)" xlink:href="#bj"/><use transform="matrix(0.05,0,0,0.05,24,0)" xlink:href="#bk"/><use transform="matrix(0.05,0,0,0.05,33,0)" xlink:href="#aU"/><use transform="matrix(0.05,0,0,0.05,43,0)" xlink:href="#aT"/><use transform="matrix(0.05,0,0,0.05,48.95,0)" xlink:href="#bl"/><use transform="matrix(0.05,0,0,0.05,57.95,0)" xlink:href="#bc"/><use transform="matrix(0.05,0,0,0.05,67.95,0)" xlink:href="#be"/><use transform="matrix(0.05,0,0,0.05,72.95,0)" xlink:href="#bb"/><use transform="matrix(0.05,0,0,0.05,76.9,0)" xlink:href="#aW"/><use transform="matrix(0.05,0,0,0.05,86.9,0)" xlink:href="#aV"/></g><path fill="#1071e5" d="M212-179c-10-28-35-45-73-45-59 0-87 40-87 99 0 60 29 101 89 101 43 0 62-24 78-52l27 14C228-24 195 4 139 4 59 4 22-46 18-125c-6-104 99-153 187-111 19 9 31 26 39 46" id="bK"/><g id="w"><use transform="matrix(0.05,0,0,0.05,0,0)" xlink:href="#bK"/><use transform="matrix(0.05,0,0,0.05,12.950000000000001,0)" xlink:href="#aW"/><use transform="matrix(0.05,0,0,0.05,22.950000000000003,0)" xlink:href="#aZ"/><use transform="matrix(0.05,0,0,0.05,26.900000000000002,0)" xlink:href="#aZ"/><use transform="matrix(0.05,0,0,0.05,30.85,0)" xlink:href="#aU"/><use transform="matrix(0.05,0,0,0.05,40.85,0)" xlink:href="#aR"/><use transform="matrix(0.05,0,0,0.05,49.85,0)" xlink:href="#be"/><use transform="matrix(0.05,0,0,0.05,54.85,0)" xlink:href="#bb"/><use transform="matrix(0.05,0,0,0.05,58.800000000000004,0)" xlink:href="#aW"/><use transform="matrix(0.05,0,0,0.05,68.80000000000001,0)" xlink:href="#aV"/></g><path fill="#1071e5" d="M30-248c87 1 191-15 191 75 0 78-77 80-158 76V0H30v-248zm33 125c57 0 124 11 124-50 0-59-68-47-124-48v98" id="bL"/><use transform="matrix(0.05,0,0,0.05,0,0)" xlink:href="#bL" id="x"/><path fill="#333" d="M85-194c31 0 48 13 60 33l-1-100h32l1 261h-30c-2-10 0-23-3-31C134-8 116 4 85 4 32 4 16-35 15-94c0-66 23-100 70-100zm9 24c-40 0-46 34-46 75 0 40 6 74 45 74 42 0 51-32 51-76 0-42-9-74-50-73" id="bM"/><g id="y"><use transform="matrix(0.04938271604938272,0,0,0.04938271604938272,0,0)" xlink:href="#aD"/><use transform="matrix(0.04938271604938272,0,0,0.04938271604938272,5.8765432098765435,0)" xlink:href="#bM"/><use transform="matrix(0.04938271604938272,0,0,0.04938271604938272,15.753086419753087,0)" xlink:href="#aN"/><use transform="matrix(0.04938271604938272,0,0,0.04938271604938272,20.69135802469136,0)" xlink:href="#ax"/><use transform="matrix(0.04938271604938272,0,0,0.04938271604938272,29.58024691358025,0)" xlink:href="#aA"/></g><path fill="#333" d="M210-169c-67 3-38 105-44 169h-31v-121c0-29-5-50-35-48C34-165 62-65 56 0H25l-1-190h30c1 10-1 24 2 32 10-44 99-50 107 0 11-21 27-35 58-36 85-2 47 119 55 194h-31v-121c0-29-5-49-35-48" id="bN"/><g id="z"><use transform="matrix(0.04938271604938272,0,0,0.04938271604938272,0,0)" xlink:href="#bN"/><use transform="matrix(0.04938271604938272,0,0,0.04938271604938272,14.765432098765434,0)" xlink:href="#aC"/><use transform="matrix(0.04938271604938272,0,0,0.04938271604938272,24.641975308641978,0)" xlink:href="#bN"/><use transform="matrix(0.04938271604938272,0,0,0.04938271604938272,39.40740740740741,0)" xlink:href="#aB"/><use transform="matrix(0.04938271604938272,0,0,0.04938271604938272,49.283950617283956,0)" xlink:href="#aC"/><use transform="matrix(0.04938271604938272,0,0,0.04938271604938272,59.1604938271605,0)" xlink:href="#aD"/></g><path fill="#3a414a" d="M135-143c-3-34-86-38-87 0 15 53 115 12 119 90S17 21 10-45l28-5c4 36 97 45 98 0-10-56-113-15-118-90-4-57 82-63 122-42 12 7 21 19 24 35" id="bO"/><path fill="#3a414a" d="M85-194c31 0 48 13 60 33l-1-100h32l1 261h-30c-2-10 0-23-3-31C134-8 116 4 85 4 32 4 16-35 15-94c0-66 23-100 70-100zm9 24c-40 0-46 34-46 75 0 40 6 74 45 74 42 0 51-32 51-76 0-42-9-74-50-73" id="bP"/><path fill="#3a414a" d="M100-194c62-1 85 37 85 99 1 63-27 99-86 99S16-35 15-95c0-66 28-99 85-99zM99-20c44 1 53-31 53-75 0-43-8-75-51-75s-53 32-53 75 10 74 51 75" id="bQ"/><path fill="#3a414a" d="M33-154v-36h34v36H33zM33 0v-36h34V0H33" id="bR"/><g id="A"><use transform="matrix(0.06172839506172839,0,0,0.06172839506172839,0,0)" xlink:href="#bO"/><use transform="matrix(0.06172839506172839,0,0,0.06172839506172839,11.11111111111111,0)" xlink:href="#bP"/><use transform="matrix(0.06172839506172839,0,0,0.06172839506172839,23.45679012345679,0)" xlink:href="#bQ"/><use transform="matrix(0.06172839506172839,0,0,0.06172839506172839,35.80246913580247,0)" xlink:href="#bR"/></g><path fill="#3a414a" d="M140-251c81 0 123 46 123 126C263-46 219 4 140 4 59 4 17-45 17-125s42-126 123-126zm0 227c63 0 89-41 89-101s-29-99-89-99c-61 0-89 39-89 99S79-25 140-24" id="bS"/><path fill="#3a414a" d="M114-163C36-179 61-72 57 0H25l-1-190h30c1 12-1 29 2 39 6-27 23-49 58-41v29" id="bT"/><path fill="#3a414a" d="M177-190C167-65 218 103 67 71c-23-6-38-20-44-43l32-5c15 47 100 32 89-28v-30C133-14 115 1 83 1 29 1 15-40 15-95c0-56 16-97 71-98 29-1 48 16 59 35 1-10 0-23 2-32h30zM94-22c36 0 50-32 50-73 0-42-14-75-50-75-39 0-46 34-46 75s6 73 46 73" id="bU"/><path fill="#3a414a" d="M141-36C126-15 110 5 73 4 37 3 15-17 15-53c-1-64 63-63 125-63 3-35-9-54-41-54-24 1-41 7-42 31l-33-3c5-37 33-52 76-52 45 0 72 20 72 64v82c-1 20 7 32 28 27v20c-31 9-61-2-59-35zM48-53c0 20 12 33 32 33 41-3 63-29 60-74-43 2-92-5-92 41" id="bV"/><path fill="#3a414a" d="M117-194c89-4 53 116 60 194h-32v-121c0-31-8-49-39-48C34-167 62-67 57 0H25l-1-190h30c1 10-1 24 2 32 11-22 29-35 61-36" id="bW"/><path fill="#3a414a" d="M24-231v-30h32v30H24zM24 0v-190h32V0H24" id="bX"/><path fill="#3a414a" d="M9 0v-24l116-142H16v-24h144v24L44-24h123V0H9" id="bY"/><path fill="#3a414a" d="M59-47c-2 24 18 29 38 22v24C64 9 27 4 27-40v-127H5v-23h24l9-43h21v43h35v23H59v120" id="bZ"/><g id="B"><use transform="matrix(0.06172839506172839,0,0,0.06172839506172839,0,0)" xlink:href="#bS"/><use transform="matrix(0.06172839506172839,0,0,0.06172839506172839,17.28395061728395,0)" xlink:href="#bT"/><use transform="matrix(0.06172839506172839,0,0,0.06172839506172839,24.629629629629626,0)" xlink:href="#bU"/><use transform="matrix(0.06172839506172839,0,0,0.06172839506172839,36.9753086419753,0)" xlink:href="#bV"/><use transform="matrix(0.06172839506172839,0,0,0.06172839506172839,49.32098765432098,0)" xlink:href="#bW"/><use transform="matrix(0.06172839506172839,0,0,0.06172839506172839,61.66666666666666,0)" xlink:href="#bX"/><use transform="matrix(0.06172839506172839,0,0,0.06172839506172839,66.5432098765432,0)" xlink:href="#bY"/><use transform="matrix(0.06172839506172839,0,0,0.06172839506172839,77.65432098765432,0)" xlink:href="#bV"/><use transform="matrix(0.06172839506172839,0,0,0.06172839506172839,90,0)" xlink:href="#bZ"/><use transform="matrix(0.06172839506172839,0,0,0.06172839506172839,96.17283950617283,0)" xlink:href="#bX"/><use transform="matrix(0.06172839506172839,0,0,0.06172839506172839,101.04938271604938,0)" xlink:href="#bQ"/><use transform="matrix(0.06172839506172839,0,0,0.06172839506172839,113.39506172839506,0)" xlink:href="#bW"/></g><path fill="#1071e5" d="M179-190L93 31C79 59 56 82 12 73V49c39 6 53-20 64-50L1-190h34L92-34l54-156h33" id="ca"/><g id="C"><use transform="matrix(0.06172839506172839,0,0,0.06172839506172839,0,0)" xlink:href="#bK"/><use transform="matrix(0.06172839506172839,0,0,0.06172839506172839,15.987654320987653,0)" xlink:href="#aW"/><use transform="matrix(0.06172839506172839,0,0,0.06172839506172839,28.333333333333332,0)" xlink:href="#bd"/><use transform="matrix(0.06172839506172839,0,0,0.06172839506172839,46.79012345679012,0)" xlink:href="#bh"/><use transform="matrix(0.06172839506172839,0,0,0.06172839506172839,59.1358024691358,0)" xlink:href="#bc"/><use transform="matrix(0.06172839506172839,0,0,0.06172839506172839,71.48148148148148,0)" xlink:href="#aV"/><use transform="matrix(0.06172839506172839,0,0,0.06172839506172839,83.82716049382717,0)" xlink:href="#ca"/></g><path fill="#1071e5" d="M140-251c81 0 123 46 123 126C263-53 228-8 163 1c7 30 30 48 69 40v23c-55 16-95-15-103-61C56-3 17-48 17-125c0-80 42-126 123-126zm0 227c63 0 89-41 89-101s-29-99-89-99c-61 0-89 39-89 99S79-25 140-24" id="cb"/><use transform="matrix(0.06172839506172839,0,0,0.06172839506172839,0,0)" xlink:href="#cb" id="D"/><g id="E"><use transform="matrix(0.04938271604938272,0,0,0.04938271604938272,0,0)" xlink:href="#aG"/><use transform="matrix(0.04938271604938272,0,0,0.04938271604938272,9.876543209876544,0)" xlink:href="#aD"/><use transform="matrix(0.04938271604938272,0,0,0.04938271604938272,15.753086419753087,0)" xlink:href="#ay"/><use transform="matrix(0.04938271604938272,0,0,0.04938271604938272,25.629629629629633,0)" xlink:href="#aE"/><use transform="matrix(0.04938271604938272,0,0,0.04938271604938272,34.51851851851852,0)" xlink:href="#aA"/></g><path fill="#333" d="M206 0h-36l-40-164L89 0H53L-1-190h32L70-26l43-164h34l41 164 42-164h31" id="cc"/><g id="F"><use transform="matrix(0.04938271604938272,0,0,0.04938271604938272,0,0)" xlink:href="#cc"/><use transform="matrix(0.04938271604938272,0,0,0.04938271604938272,12.790123456790125,0)" xlink:href="#az"/><use transform="matrix(0.04938271604938272,0,0,0.04938271604938272,22.66666666666667,0)" xlink:href="#ax"/></g><path fill="#333" d="M205 0l-28-72H64L36 0H1l101-248h38L239 0h-34zm-38-99l-47-123c-12 45-31 82-46 123h93" id="cd"/><path fill="#333" d="M24-231v-30h32v30H24zM24 0v-190h32V0H24" id="ce"/><g id="G"><use transform="matrix(0.04938271604938272,0,0,0.04938271604938272,0,0)" xlink:href="#cd"/><use transform="matrix(0.04938271604938272,0,0,0.04938271604938272,11.851851851851853,0)" xlink:href="#aH"/><use transform="matrix(0.04938271604938272,0,0,0.04938271604938272,16.790123456790127,0)" xlink:href="#aH"/><use transform="matrix(0.04938271604938272,0,0,0.04938271604938272,21.7283950617284,0)" xlink:href="#aD"/><use transform="matrix(0.04938271604938272,0,0,0.04938271604938272,27.604938271604947,0)" xlink:href="#ce"/><use transform="matrix(0.04938271604938272,0,0,0.04938271604938272,31.506172839506174,0)" xlink:href="#aB"/><use transform="matrix(0.04938271604938272,0,0,0.04938271604938272,41.38271604938272,0)" xlink:href="#aL"/><use transform="matrix(0.04938271604938272,0,0,0.04938271604938272,51.25925925925927,0)" xlink:href="#aH"/><use transform="matrix(0.04938271604938272,0,0,0.04938271604938272,56.19753086419754,0)" xlink:href="#aC"/><use transform="matrix(0.04938271604938272,0,0,0.04938271604938272,66.07407407407408,0)" xlink:href="#bM"/></g><path fill="#333" d="M127-220V0H93v-220H8v-28h204v28h-85" id="cf"/><g id="H"><use transform="matrix(0.04938271604938272,0,0,0.04938271604938272,0,0)" xlink:href="#cf"/><use transform="matrix(0.04938271604938272,0,0,0.04938271604938272,8.839506172839506,0)" xlink:href="#ay"/></g><g id="I"><use transform="matrix(0.05,0,0,0.05,0,0)" xlink:href="#bz"/><use transform="matrix(0.05,0,0,0.05,12.950000000000001,0)" xlink:href="#bo"/><use transform="matrix(0.05,0,0,0.05,22.950000000000003,0)" xlink:href="#bu"/><use transform="matrix(0.05,0,0,0.05,28.900000000000002,0)" xlink:href="#bt"/></g><path fill="#fff" d="M185-189c-5-48-123-54-124 2 14 75 158 14 163 119 3 78-121 87-175 55-17-10-28-26-33-46l33-7c5 56 141 63 141-1 0-78-155-14-162-118-5-82 145-84 179-34 5 7 8 16 11 25" id="cg"/><path fill="#fff" d="M205 0l-28-72H64L36 0H1l101-248h38L239 0h-34zm-38-99l-47-123c-12 45-31 82-46 123h93" id="ch"/><g id="J"><use transform="matrix(0.05,0,0,0.05,0,0)" xlink:href="#cg"/><use transform="matrix(0.05,0,0,0.05,12,0)" xlink:href="#br"/><use transform="matrix(0.05,0,0,0.05,26,0)" xlink:href="#cg"/><use transform="matrix(0.05,0,0,0.05,38,0)" xlink:href="#ch"/></g><g id="K"><use transform="matrix(0.05,0,0,0.05,0,0)" xlink:href="#bz"/><use transform="matrix(0.05,0,0,0.05,12.950000000000001,0)" xlink:href="#bA"/><use transform="matrix(0.05,0,0,0.05,16.900000000000002,0)" xlink:href="#bp"/><use transform="matrix(0.05,0,0,0.05,26.900000000000002,0)" xlink:href="#bn"/><use transform="matrix(0.05,0,0,0.05,35.900000000000006,0)" xlink:href="#bn"/></g><path d="M212-179c-10-28-35-45-73-45-59 0-87 40-87 99 0 60 29 101 89 101 43 0 62-24 78-52l27 14C228-24 195 4 139 4 59 4 22-46 18-125c-6-104 99-153 187-111 19 9 31 26 39 46" id="ci"/><path d="M24 0v-261h32V0H24" id="cj"/><g id="L"><use transform="matrix(0.05,0,0,0.05,0,0)" xlink:href="#ci"/><use transform="matrix(0.05,0,0,0.05,12.950000000000001,0)" xlink:href="#cj"/><use transform="matrix(0.05,0,0,0.05,16.900000000000002,0)" xlink:href="#bE"/><use transform="matrix(0.05,0,0,0.05,26.900000000000002,0)" xlink:href="#bI"/><use transform="matrix(0.05,0,0,0.05,35.900000000000006,0)" xlink:href="#bI"/></g><path d="M101-234c-31-9-42 10-38 44h38v23H63V0H32v-167H5v-23h27c-7-52 17-82 69-68v24" id="ck"/><path d="M114-163C36-179 61-72 57 0H25l-1-190h30c1 12-1 29 2 39 6-27 23-49 58-41v29" id="cl"/><path d="M100-194c62-1 85 37 85 99 1 63-27 99-86 99S16-35 15-95c0-66 28-99 85-99zM99-20c44 1 53-31 53-75 0-43-8-75-51-75s-53 32-53 75 10 74 51 75" id="cm"/><path d="M210-169c-67 3-38 105-44 169h-31v-121c0-29-5-50-35-48C34-165 62-65 56 0H25l-1-190h30c1 10-1 24 2 32 10-44 99-50 107 0 11-21 27-35 58-36 85-2 47 119 55 194h-31v-121c0-29-5-49-35-48" id="cn"/><g id="M"><use transform="matrix(0.05,0,0,0.05,0,0)" xlink:href="#ck"/><use transform="matrix(0.05,0,0,0.05,5,0)" xlink:href="#cl"/><use transform="matrix(0.05,0,0,0.05,10.95,0)" xlink:href="#cm"/><use transform="matrix(0.05,0,0,0.05,20.95,0)" xlink:href="#cn"/></g><path d="M117-194c89-4 53 116 60 194h-32v-121c0-31-8-49-39-48C34-167 62-67 57 0H25l-1-190h30c1 10-1 24 2 32 11-22 29-35 61-36" id="co"/><path d="M106-169C34-169 62-67 57 0H25v-261h32l-1 103c12-21 28-36 61-36 89 0 53 116 60 194h-32v-121c2-32-8-49-39-48" id="cp"/><g id="N"><use transform="matrix(0.05,0,0,0.05,0,0)" xlink:href="#bE"/><use transform="matrix(0.05,0,0,0.05,10,0)" xlink:href="#co"/><use transform="matrix(0.05,0,0,0.05,20,0)" xlink:href="#cm"/><use transform="matrix(0.05,0,0,0.05,30,0)" xlink:href="#bF"/><use transform="matrix(0.05,0,0,0.05,35,0)" xlink:href="#cp"/><use transform="matrix(0.05,0,0,0.05,45,0)" xlink:href="#bJ"/><use transform="matrix(0.05,0,0,0.05,55,0)" xlink:href="#cl"/></g><g id="O"><use transform="matrix(0.05,0,0,0.05,0,0)" xlink:href="#cn"/><use transform="matrix(0.05,0,0,0.05,14.950000000000001,0)" xlink:href="#cm"/><use transform="matrix(0.05,0,0,0.05,24.950000000000003,0)" xlink:href="#bC"/><use transform="matrix(0.05,0,0,0.05,34.95,0)" xlink:href="#bJ"/><use transform="matrix(0.05,0,0,0.05,44.95,0)" xlink:href="#cj"/></g><path fill="#3a414a" d="M195 0l-88-114-31 24V0H24v-248h52v113l112-113h60L142-143 257 0h-62" id="cq"/><path fill="#3a414a" d="M185-48c-13 30-37 53-82 52C43 2 14-33 14-96s30-98 90-98c62 0 83 45 84 108H66c0 31 8 55 39 56 18 0 30-7 34-22zm-45-69c5-46-57-63-70-21-2 6-4 13-4 21h74" id="cr"/><path fill="#3a414a" d="M123 10C108 53 80 86 19 72V37c35 8 53-11 59-39L3-190h52l48 148c12-52 28-100 44-148h51" id="cs"/><g id="P"><use transform="matrix(0.06172839506172839,0,0,0.06172839506172839,0,0)" xlink:href="#cq"/><use transform="matrix(0.06172839506172839,0,0,0.06172839506172839,15.987654320987653,0)" xlink:href="#cr"/><use transform="matrix(0.06172839506172839,0,0,0.06172839506172839,28.333333333333332,0)" xlink:href="#cs"/><path fill="#3a414a" d="M-1.1 1.2h42.9V3.5H-1.1z"/></g><g id="Q"><use transform="matrix(0.04938271604938272,0,0,0.04938271604938272,0,0)" xlink:href="#ax"/><use transform="matrix(0.04938271604938272,0,0,0.04938271604938272,8.88888888888889,0)" xlink:href="#aL"/><use transform="matrix(0.04938271604938272,0,0,0.04938271604938272,18.765432098765434,0)" xlink:href="#aB"/></g><path fill="#333" d="M96-169c-40 0-48 33-48 73s9 75 48 75c24 0 41-14 43-38l32 2c-6 37-31 61-74 61-59 0-76-41-82-99-10-93 101-131 147-64 4 7 5 14 7 22l-32 3c-4-21-16-35-41-35" id="ct"/><path fill="#333" d="M24 0v-261h32V0H24" id="cu"/><g id="R"><use transform="matrix(0.04938271604938272,0,0,0.04938271604938272,0,0)" xlink:href="#ct"/><use transform="matrix(0.04938271604938272,0,0,0.04938271604938272,8.88888888888889,0)" xlink:href="#cu"/><use transform="matrix(0.04938271604938272,0,0,0.04938271604938272,12.790123456790125,0)" xlink:href="#az"/><use transform="matrix(0.04938271604938272,0,0,0.04938271604938272,22.666666666666668,0)" xlink:href="#ax"/><use transform="matrix(0.04938271604938272,0,0,0.04938271604938272,31.555555555555557,0)" xlink:href="#ax"/></g><g id="S"><use transform="matrix(0.04938271604938272,0,0,0.04938271604938272,0,0)" xlink:href="#ay"/><use transform="matrix(0.04938271604938272,0,0,0.04938271604938272,9.876543209876544,0)" xlink:href="#aN"/></g><path fill="#1071e5" d="M33 0v-248h34V0H33" id="cv"/><g id="T"><use transform="matrix(0.05,0,0,0.05,0,0)" xlink:href="#cv"/><use transform="matrix(0.05,0,0,0.05,5,0)" xlink:href="#aV"/><use transform="matrix(0.05,0,0,0.05,15,0)" xlink:href="#bk"/><use transform="matrix(0.05,0,0,0.05,24,0)" xlink:href="#be"/><use transform="matrix(0.05,0,0,0.05,29,0)" xlink:href="#bc"/><use transform="matrix(0.05,0,0,0.05,39,0)" xlink:href="#aV"/><use transform="matrix(0.05,0,0,0.05,49,0)" xlink:href="#aR"/><use transform="matrix(0.05,0,0,0.05,58,0)" xlink:href="#aU"/></g><g id="U"><use transform="matrix(0.05,0,0,0.05,0,0)" xlink:href="#aW"/><use transform="matrix(0.05,0,0,0.05,10,0)" xlink:href="#aX"/></g><use transform="matrix(0.05,0,0,0.05,0,0)" xlink:href="#bc" id="V"/><g id="W"><use transform="matrix(0.05,0,0,0.05,0,0)" xlink:href="#bK"/><use transform="matrix(0.05,0,0,0.05,12.950000000000001,0)" xlink:href="#aZ"/><use transform="matrix(0.05,0,0,0.05,16.900000000000002,0)" xlink:href="#bc"/><use transform="matrix(0.05,0,0,0.05,26.900000000000002,0)" xlink:href="#bk"/><use transform="matrix(0.05,0,0,0.05,35.900000000000006,0)" xlink:href="#bk"/></g><g id="X"><use transform="matrix(0.04938271604938272,0,0,0.04938271604938272,0,0)" xlink:href="#bb"/><use transform="matrix(0.04938271604938272,0,0,0.04938271604938272,3.901234567901235,0)" xlink:href="#bk"/></g><g id="Y"><use transform="matrix(0.04938271604938272,0,0,0.04938271604938272,0,0)" xlink:href="#bb"/><use transform="matrix(0.04938271604938272,0,0,0.04938271604938272,3.901234567901235,0)" xlink:href="#aV"/><use transform="matrix(0.04938271604938272,0,0,0.04938271604938272,13.777777777777779,0)" xlink:href="#bk"/><use transform="matrix(0.04938271604938272,0,0,0.04938271604938272,22.666666666666668,0)" xlink:href="#be"/><use transform="matrix(0.04938271604938272,0,0,0.04938271604938272,27.60493827160494,0)" xlink:href="#bc"/><use transform="matrix(0.04938271604938272,0,0,0.04938271604938272,37.48148148148148,0)" xlink:href="#aV"/><use transform="matrix(0.04938271604938272,0,0,0.04938271604938272,47.358024691358025,0)" xlink:href="#aR"/><use transform="matrix(0.04938271604938272,0,0,0.04938271604938272,56.246913580246904,0)" xlink:href="#aU"/></g><g id="Z"><use transform="matrix(0.04938271604938272,0,0,0.04938271604938272,0,0)" xlink:href="#aW"/><use transform="matrix(0.04938271604938272,0,0,0.04938271604938272,9.876543209876544,0)" xlink:href="#aX"/></g><path d="M24-231v-30h32v30H24zM24 0v-190h32V0H24" id="cw"/><path d="M115-194c53 0 69 39 70 98 0 66-23 100-70 100C84 3 66-7 56-30L54 0H23l1-261h32v101c10-23 28-34 59-34zm-8 174c40 0 45-34 45-75 0-40-5-75-45-74-42 0-51 32-51 76 0 43 10 73 51 73" id="cx"/><path d="M84 4C-5 8 30-112 23-190h32v120c0 31 7 50 39 49 72-2 45-101 50-169h31l1 190h-30c-1-10 1-25-2-33-11 22-28 36-60 37" id="cy"/><g id="aa"><use transform="matrix(0.05,0,0,0.05,0,0)" xlink:href="#bH"/><use transform="matrix(0.05,0,0,0.05,12.950000000000001,0)" xlink:href="#cw"/><use transform="matrix(0.05,0,0,0.05,16.900000000000002,0)" xlink:href="#bI"/><use transform="matrix(0.05,0,0,0.05,25.900000000000002,0)" xlink:href="#bF"/><use transform="matrix(0.05,0,0,0.05,30.900000000000002,0)" xlink:href="#cl"/><use transform="matrix(0.05,0,0,0.05,36.85,0)" xlink:href="#cw"/><use transform="matrix(0.05,0,0,0.05,40.800000000000004,0)" xlink:href="#cx"/><use transform="matrix(0.05,0,0,0.05,50.800000000000004,0)" xlink:href="#cy"/><use transform="matrix(0.05,0,0,0.05,60.800000000000004,0)" xlink:href="#bF"/><use transform="matrix(0.05,0,0,0.05,65.80000000000001,0)" xlink:href="#cw"/><use transform="matrix(0.05,0,0,0.05,69.75000000000001,0)" xlink:href="#cm"/><use transform="matrix(0.05,0,0,0.05,79.75000000000001,0)" xlink:href="#co"/></g><g id="ab"><use transform="matrix(0.04938271604938272,0,0,0.04938271604938272,0,0)" xlink:href="#bM"/><use transform="matrix(0.04938271604938272,0,0,0.04938271604938272,9.876543209876544,0)" xlink:href="#ct"/><use transform="matrix(0.04938271604938272,0,0,0.04938271604938272,18.765432098765434,0)" xlink:href="#az"/><use transform="matrix(0.04938271604938272,0,0,0.04938271604938272,28.641975308641978,0)" xlink:href="#aH"/><use transform="matrix(0.04938271604938272,0,0,0.04938271604938272,33.580246913580254,0)" xlink:href="#aA"/></g><g id="ac"><use transform="matrix(0.04938271604938272,0,0,0.04938271604938272,0,0)" xlink:href="#bM"/><use transform="matrix(0.04938271604938272,0,0,0.04938271604938272,9.876543209876544,0)" xlink:href="#ce"/><use transform="matrix(0.04938271604938272,0,0,0.04938271604938272,13.777777777777779,0)" xlink:href="#ax"/><use transform="matrix(0.04938271604938272,0,0,0.04938271604938272,22.666666666666668,0)" xlink:href="#aH"/><use transform="matrix(0.04938271604938272,0,0,0.04938271604938272,27.60493827160494,0)" xlink:href="#aD"/><use transform="matrix(0.04938271604938272,0,0,0.04938271604938272,33.48148148148148,0)" xlink:href="#ce"/><use transform="matrix(0.04938271604938272,0,0,0.04938271604938272,37.382716049382715,0)" xlink:href="#aB"/><use transform="matrix(0.04938271604938272,0,0,0.04938271604938272,47.25925925925926,0)" xlink:href="#aL"/><use transform="matrix(0.04938271604938272,0,0,0.04938271604938272,57.135802469135804,0)" xlink:href="#aH"/><use transform="matrix(0.04938271604938272,0,0,0.04938271604938272,62.074074074074076,0)" xlink:href="#ce"/><use transform="matrix(0.04938271604938272,0,0,0.04938271604938272,65.97530864197532,0)" xlink:href="#ay"/><use transform="matrix(0.04938271604938272,0,0,0.04938271604938272,75.85185185185186,0)" xlink:href="#aP"/></g><path fill="#333" d="M185-189c-5-48-123-54-124 2 14 75 158 14 163 119 3 78-121 87-175 55-17-10-28-26-33-46l33-7c5 56 141 63 141-1 0-78-155-14-162-118-5-82 145-84 179-34 5 7 8 16 11 25" id="cz"/><g id="ad"><use transform="matrix(0.04938271604938272,0,0,0.04938271604938272,0,0)" xlink:href="#ce"/><use transform="matrix(0.04938271604938272,0,0,0.04938271604938272,3.901234567901235,0)" xlink:href="#ax"/><use transform="matrix(0.04938271604938272,0,0,0.04938271604938272,12.790123456790125,0)" xlink:href="#cz"/><use transform="matrix(0.04938271604938272,0,0,0.04938271604938272,24.641975308641975,0)" xlink:href="#az"/><use transform="matrix(0.04938271604938272,0,0,0.04938271604938272,34.51851851851852,0)" xlink:href="#bN"/><use transform="matrix(0.04938271604938272,0,0,0.04938271604938272,49.28395061728395,0)" xlink:href="#aG"/><use transform="matrix(0.04938271604938272,0,0,0.04938271604938272,59.1604938271605,0)" xlink:href="#cu"/><use transform="matrix(0.04938271604938272,0,0,0.04938271604938272,63.06172839506172,0)" xlink:href="#aC"/><use transform="matrix(0.04938271604938272,0,0,0.04938271604938272,72.93827160493828,0)" xlink:href="#aM"/><use transform="matrix(0.04938271604938272,0,0,0.04938271604938272,86.76543209876544,0)" xlink:href="#aN"/></g><path fill="#1071e5" d="M190 0L58-211 59 0H30v-248h39L202-35l-2-213h31V0h-41" id="cA"/><use transform="matrix(0.05,0,0,0.05,0,0)" xlink:href="#cA" id="ae"/><path fill="#1071e5" d="M233-177c-1 41-23 64-60 70L243 0h-38l-65-103H63V0H30v-248c88 3 205-21 203 71zM63-129c60-2 137 13 137-47 0-61-80-42-137-45v92" id="cB"/><path fill="#1071e5" d="M143 0L79-87 56-68V0H24v-261h32v163l83-92h37l-77 82L181 0h-38" id="cC"/><g id="af"><use transform="matrix(0.05,0,0,0.05,0,0)" xlink:href="#cB"/><use transform="matrix(0.05,0,0,0.05,12.950000000000001,0)" xlink:href="#aW"/><use transform="matrix(0.05,0,0,0.05,22.950000000000003,0)" xlink:href="#aR"/><use transform="matrix(0.05,0,0,0.05,31.950000000000003,0)" xlink:href="#cC"/></g><path fill="#1071e5" d="M232-93c-1 65-40 97-104 97C67 4 28-28 28-90v-158h33c8 89-33 224 67 224 102 0 64-133 71-224h33v155" id="cD"/><g id="ag"><use transform="matrix(0.05,0,0,0.05,0,0)" xlink:href="#cD"/><use transform="matrix(0.05,0,0,0.05,12.950000000000001,0)" xlink:href="#aV"/><use transform="matrix(0.05,0,0,0.05,22.950000000000003,0)" xlink:href="#bb"/><use transform="matrix(0.05,0,0,0.05,26.900000000000002,0)" xlink:href="#be"/></g><use transform="matrix(0.05,0,0,0.05,0,0)" xlink:href="#aQ" id="ah"/><path fill="#fc9432" d="M85-194c31 0 48 13 60 33l-1-100h32l1 261h-30c-2-10 0-23-3-31C134-8 116 4 85 4 32 4 16-35 15-94c0-66 23-100 70-100zm9 24c-40 0-46 34-46 75 0 40 6 74 45 74 42 0 51-32 51-76 0-42-9-74-50-73" id="cE"/><path fill="#fc9432" d="M96-169c-40 0-48 33-48 73s9 75 48 75c24 0 41-14 43-38l32 2c-6 37-31 61-74 61-59 0-76-41-82-99-10-93 101-131 147-64 4 7 5 14 7 22l-32 3c-4-21-16-35-41-35" id="cF"/><path fill="#fc9432" d="M59-47c-2 24 18 29 38 22v24C64 9 27 4 27-40v-127H5v-23h24l9-43h21v43h35v23H59v120" id="cG"/><path fill="#fc9432" d="M100-194c63 0 86 42 84 106H49c0 40 14 67 53 68 26 1 43-12 49-29l28 8c-11 28-37 45-77 45C44 4 14-33 15-96c1-61 26-98 85-98zm52 81c6-60-76-77-97-28-3 7-6 17-6 28h103" id="cH"/><path fill="#fc9432" d="M114-163C36-179 61-72 57 0H25l-1-190h30c1 12-1 29 2 39 6-27 23-49 58-41v29" id="cI"/><path fill="#fc9432" d="M210-169c-67 3-38 105-44 169h-31v-121c0-29-5-50-35-48C34-165 62-65 56 0H25l-1-190h30c1 10-1 24 2 32 10-44 99-50 107 0 11-21 27-35 58-36 85-2 47 119 55 194h-31v-121c0-29-5-49-35-48" id="cJ"/><path fill="#fc9432" d="M135-143c-3-34-86-38-87 0 15 53 115 12 119 90S17 21 10-45l28-5c4 36 97 45 98 0-10-56-113-15-118-90-4-57 82-63 122-42 12 7 21 19 24 35" id="cK"/><path fill="#fc9432" d="M33-154v-36h34v36H33zM33 0v-36h34V0H33" id="cL"/><path fill="#fc9432" d="M115-194c55 1 70 41 70 98S169 2 115 4C84 4 66-9 55-30l1 105H24l-1-265h31l2 30c10-21 28-34 59-34zm-8 174c40 0 45-34 45-75s-6-73-45-74c-42 0-51 32-51 76 0 43 10 73 51 73" id="cM"/><path fill="#fc9432" d="M141-36C126-15 110 5 73 4 37 3 15-17 15-53c-1-64 63-63 125-63 3-35-9-54-41-54-24 1-41 7-42 31l-33-3c5-37 33-52 76-52 45 0 72 20 72 64v82c-1 20 7 32 28 27v20c-31 9-61-2-59-35zM48-53c0 20 12 33 32 33 41-3 63-29 60-74-43 2-92-5-92 41" id="cN"/><path fill="#fc9432" d="M24-231v-30h32v30H24zM24 0v-190h32V0H24" id="cO"/><path fill="#fc9432" d="M24 0v-261h32V0H24" id="cP"/><g id="ai"><use transform="matrix(0.04938271604938272,0,0,0.04938271604938272,0,0)" xlink:href="#cE"/><use transform="matrix(0.04938271604938272,0,0,0.04938271604938272,9.876543209876544,0)" xlink:href="#cF"/><use transform="matrix(0.04938271604938272,0,0,0.04938271604938272,18.765432098765434,0)" xlink:href="#cG"/><use transform="matrix(0.04938271604938272,0,0,0.04938271604938272,23.703703703703706,0)" xlink:href="#cH"/><use transform="matrix(0.04938271604938272,0,0,0.04938271604938272,33.580246913580254,0)" xlink:href="#cI"/><use transform="matrix(0.04938271604938272,0,0,0.04938271604938272,39.4567901234568,0)" xlink:href="#cJ"/><use transform="matrix(0.04938271604938272,0,0,0.04938271604938272,54.22222222222223,0)" xlink:href="#cK"/><use transform="matrix(0.04938271604938272,0,0,0.04938271604938272,63.111111111111114,0)" xlink:href="#cL"/><use transform="matrix(0.04938271604938272,0,0,0.04938271604938272,68.0493827160494,0)" xlink:href="#cK"/><use transform="matrix(0.04938271604938272,0,0,0.04938271604938272,76.93827160493828,0)" xlink:href="#cM"/><use transform="matrix(0.04938271604938272,0,0,0.04938271604938272,86.81481481481482,0)" xlink:href="#cN"/><use transform="matrix(0.04938271604938272,0,0,0.04938271604938272,96.69135802469137,0)" xlink:href="#cG"/><use transform="matrix(0.04938271604938272,0,0,0.04938271604938272,101.62962962962963,0)" xlink:href="#cO"/><use transform="matrix(0.04938271604938272,0,0,0.04938271604938272,105.53086419753089,0)" xlink:href="#cN"/><use transform="matrix(0.04938271604938272,0,0,0.04938271604938272,115.40740740740743,0)" xlink:href="#cP"/></g><path fill="#fc9432" d="M117-194c89-4 53 116 60 194h-32v-121c0-31-8-49-39-48C34-167 62-67 57 0H25l-1-190h30c1 10-1 24 2 32 11-22 29-35 61-36" id="cQ"/><path fill="#fc9432" d="M101-234c-31-9-42 10-38 44h38v23H63V0H32v-167H5v-23h27c-7-52 17-82 69-68v24" id="cR"/><g id="aj"><use transform="matrix(0.04938271604938272,0,0,0.04938271604938272,0,0)" xlink:href="#cO"/><use transform="matrix(0.04938271604938272,0,0,0.04938271604938272,3.901234567901235,0)" xlink:href="#cQ"/><use transform="matrix(0.04938271604938272,0,0,0.04938271604938272,13.777777777777779,0)" xlink:href="#cR"/><use transform="matrix(0.04938271604938272,0,0,0.04938271604938272,18.71604938271605,0)" xlink:href="#cH"/><use transform="matrix(0.04938271604938272,0,0,0.04938271604938272,28.592592592592595,0)" xlink:href="#cI"/><use transform="matrix(0.04938271604938272,0,0,0.04938271604938272,34.46913580246914,0)" xlink:href="#cI"/><use transform="matrix(0.04938271604938272,0,0,0.04938271604938272,40.345679012345684,0)" xlink:href="#cH"/><use transform="matrix(0.04938271604938272,0,0,0.04938271604938272,50.22222222222223,0)" xlink:href="#cE"/></g><path fill="#fc9432" d="M100-194c62-1 85 37 85 99 1 63-27 99-86 99S16-35 15-95c0-66 28-99 85-99zM99-20c44 1 53-31 53-75 0-43-8-75-51-75s-53 32-53 75 10 74 51 75" id="cS"/><path fill="#fc9432" d="M179-190L93 31C79 59 56 82 12 73V49c39 6 53-20 64-50L1-190h34L92-34l54-156h33" id="cT"/><g id="ak"><use transform="matrix(0.04938271604938272,0,0,0.04938271604938272,0,0)" xlink:href="#cM"/><use transform="matrix(0.04938271604938272,0,0,0.04938271604938272,9.876543209876544,0)" xlink:href="#cI"/><use transform="matrix(0.04938271604938272,0,0,0.04938271604938272,15.753086419753087,0)" xlink:href="#cS"/><use transform="matrix(0.04938271604938272,0,0,0.04938271604938272,25.629629629629633,0)" xlink:href="#cM"/><use transform="matrix(0.04938271604938272,0,0,0.04938271604938272,35.50617283950618,0)" xlink:href="#cH"/><use transform="matrix(0.04938271604938272,0,0,0.04938271604938272,45.38271604938272,0)" xlink:href="#cI"/><use transform="matrix(0.04938271604938272,0,0,0.04938271604938272,51.25925925925927,0)" xlink:href="#cG"/><use transform="matrix(0.04938271604938272,0,0,0.04938271604938272,56.19753086419754,0)" xlink:href="#cT"/></g><path fill="#fc9432" d="M106-169C34-169 62-67 57 0H25v-261h32l-1 103c12-21 28-36 61-36 89 0 53 116 60 194h-32v-121c2-32-8-49-39-48" id="cU"/><g id="al"><use transform="matrix(0.04938271604938272,0,0,0.04938271604938272,0,0)" xlink:href="#cE"/><use transform="matrix(0.04938271604938272,0,0,0.04938271604938272,9.876543209876544,0)" xlink:href="#cF"/><use transform="matrix(0.04938271604938272,0,0,0.04938271604938272,18.765432098765434,0)" xlink:href="#cG"/><use transform="matrix(0.04938271604938272,0,0,0.04938271604938272,23.703703703703706,0)" xlink:href="#cH"/><use transform="matrix(0.04938271604938272,0,0,0.04938271604938272,33.580246913580254,0)" xlink:href="#cI"/><use transform="matrix(0.04938271604938272,0,0,0.04938271604938272,39.4567901234568,0)" xlink:href="#cJ"/><use transform="matrix(0.04938271604938272,0,0,0.04938271604938272,54.22222222222223,0)" xlink:href="#cK"/><use transform="matrix(0.04938271604938272,0,0,0.04938271604938272,63.111111111111114,0)" xlink:href="#cL"/><use transform="matrix(0.04938271604938272,0,0,0.04938271604938272,68.0493827160494,0)" xlink:href="#cG"/><use transform="matrix(0.04938271604938272,0,0,0.04938271604938272,72.98765432098767,0)" xlink:href="#cU"/><use transform="matrix(0.04938271604938272,0,0,0.04938271604938272,82.86419753086422,0)" xlink:href="#cH"/><use transform="matrix(0.04938271604938272,0,0,0.04938271604938272,92.74074074074076,0)" xlink:href="#cJ"/><use transform="matrix(0.04938271604938272,0,0,0.04938271604938272,107.50617283950618,0)" xlink:href="#cH"/></g><path fill="#1071e5" d="M26 75v-336h71v23H56V52h41v23H26" id="cV"/><use transform="matrix(0.05,0,0,0.05,0,0)" xlink:href="#cV" id="an"/><path fill="#1071e5" d="M3 75V52h41v-290H3v-23h71V75H3" id="cW"/><use transform="matrix(0.05,0,0,0.05,0,0)" xlink:href="#cW" id="ao"/><path fill="#1071e5" d="M160-131c35 5 61 23 61 61C221 17 115-2 30 0v-248c76 3 177-17 177 60 0 33-19 50-47 57zm-97-11c50-1 110 9 110-42 0-47-63-36-110-37v79zm0 115c55-2 124 14 124-45 0-56-70-42-124-44v89" id="cX"/><g id="ap"><use transform="matrix(0.06172839506172839,0,0,0.06172839506172839,0,0)" xlink:href="#cX"/><use transform="matrix(0.06172839506172839,0,0,0.06172839506172839,14.814814814814813,0)" xlink:href="#aZ"/><use transform="matrix(0.06172839506172839,0,0,0.06172839506172839,19.691358024691354,0)" xlink:href="#bc"/><use transform="matrix(0.06172839506172839,0,0,0.06172839506172839,32.03703703703703,0)" xlink:href="#aV"/><use transform="matrix(0.06172839506172839,0,0,0.06172839506172839,44.38271604938271,0)" xlink:href="#cC"/></g><g id="aq"><use transform="matrix(0.06172839506172839,0,0,0.06172839506172839,0,0)" xlink:href="#cA"/><use transform="matrix(0.06172839506172839,0,0,0.06172839506172839,15.987654320987653,0)" xlink:href="#aW"/><use transform="matrix(0.06172839506172839,0,0,0.06172839506172839,28.333333333333332,0)" xlink:href="#ba"/><use transform="matrix(0.06172839506172839,0,0,0.06172839506172839,40.67901234567901,0)" xlink:href="#aU"/></g><g id="ar"><use transform="matrix(0.04938271604938272,0,0,0.04938271604938272,0,0)" xlink:href="#bM"/><use transform="matrix(0.04938271604938272,0,0,0.04938271604938272,9.876543209876544,0)" xlink:href="#ct"/><use transform="matrix(0.04938271604938272,0,0,0.04938271604938272,18.765432098765434,0)" xlink:href="#aH"/><use transform="matrix(0.04938271604938272,0,0,0.04938271604938272,23.703703703703706,0)" xlink:href="#aC"/><use transform="matrix(0.04938271604938272,0,0,0.04938271604938272,33.580246913580254,0)" xlink:href="#aD"/><use transform="matrix(0.04938271604938272,0,0,0.04938271604938272,39.4567901234568,0)" xlink:href="#bN"/><use transform="matrix(0.04938271604938272,0,0,0.04938271604938272,54.22222222222223,0)" xlink:href="#ax"/><use transform="matrix(0.04938271604938272,0,0,0.04938271604938272,63.111111111111114,0)" xlink:href="#aA"/></g><g id="as"><use transform="matrix(0.04938271604938272,0,0,0.04938271604938272,0,0)" xlink:href="#aN"/><use transform="matrix(0.04938271604938272,0,0,0.04938271604938272,4.938271604938272,0)" xlink:href="#ay"/><use transform="matrix(0.04938271604938272,0,0,0.04938271604938272,14.814814814814817,0)" xlink:href="#aD"/><use transform="matrix(0.04938271604938272,0,0,0.04938271604938272,20.69135802469136,0)" xlink:href="#bN"/><use transform="matrix(0.04938271604938272,0,0,0.04938271604938272,35.4567901234568,0)" xlink:href="#az"/><use transform="matrix(0.04938271604938272,0,0,0.04938271604938272,45.33333333333334,0)" xlink:href="#aH"/></g><path fill="#1071e5" d="M0 4l72-265h28L28 4H0" id="cY"/><g id="at"><use transform="matrix(0.048148148148148155,0,0,0.048148148148148155,0,0)" xlink:href="#bc"/><use transform="matrix(0.048148148148148155,0,0,0.048148148148148155,9.629629629629632,0)" xlink:href="#bh"/><use transform="matrix(0.048148148148148155,0,0,0.048148148148148155,19.259259259259263,0)" xlink:href="#bh"/><use transform="matrix(0.048148148148148155,0,0,0.048148148148148155,28.888888888888893,0)" xlink:href="#aZ"/><use transform="matrix(0.048148148148148155,0,0,0.048148148148148155,32.6925925925926,0)" xlink:href="#bb"/><use transform="matrix(0.048148148148148155,0,0,0.048148148148148155,36.4962962962963,0)" xlink:href="#aR"/><use transform="matrix(0.048148148148148155,0,0,0.048148148148148155,45.162962962962965,0)" xlink:href="#bc"/><use transform="matrix(0.048148148148148155,0,0,0.048148148148148155,54.7925925925926,0)" xlink:href="#be"/><use transform="matrix(0.048148148148148155,0,0,0.048148148148148155,59.607407407407415,0)" xlink:href="#bb"/><use transform="matrix(0.048148148148148155,0,0,0.048148148148148155,63.41111111111112,0)" xlink:href="#aW"/><use transform="matrix(0.048148148148148155,0,0,0.048148148148148155,73.04074074074074,0)" xlink:href="#aV"/><use transform="matrix(0.048148148148148155,0,0,0.048148148148148155,82.67037037037038,0)" xlink:href="#cY"/></g><path fill="#1071e5" d="M33 0v-38h34V0H33" id="cZ"/><path fill="#1071e5" d="M16-82v-28h88v28H16" id="da"/><g id="au"><use transform="matrix(0.048148148148148155,0,0,0.048148148148148155,0,0)" xlink:href="#bl"/><use transform="matrix(0.048148148148148155,0,0,0.048148148148148155,8.666666666666668,0)" xlink:href="#aV"/><use transform="matrix(0.048148148148148155,0,0,0.048148148148148155,18.296296296296298,0)" xlink:href="#ba"/><use transform="matrix(0.048148148148148155,0,0,0.048148148148148155,27.92592592592593,0)" xlink:href="#cZ"/><use transform="matrix(0.048148148148148155,0,0,0.048148148148148155,32.74074074074075,0)" xlink:href="#bd"/><use transform="matrix(0.048148148148148155,0,0,0.048148148148148155,47.13703703703705,0)" xlink:href="#bk"/><use transform="matrix(0.048148148148148155,0,0,0.048148148148148155,55.803703703703725,0)" xlink:href="#da"/><use transform="matrix(0.048148148148148155,0,0,0.048148148148148155,61.533333333333346,0)" xlink:href="#aU"/><use transform="matrix(0.048148148148148155,0,0,0.048148148148148155,71.16296296296298,0)" xlink:href="#bf"/><use transform="matrix(0.048148148148148155,0,0,0.048148148148148155,79.82962962962965,0)" xlink:href="#aR"/><use transform="matrix(0.048148148148148155,0,0,0.048148148148148155,88.49629629629632,0)" xlink:href="#aU"/><use transform="matrix(0.048148148148148155,0,0,0.048148148148148155,98.12592592592596,0)" xlink:href="#aZ"/></g><path fill="#1071e5" d="M106-169C34-169 62-67 57 0H25v-261h32l-1 103c12-21 28-36 61-36 89 0 53 116 60 194h-32v-121c2-32-8-49-39-48" id="db"/><path fill="#1071e5" d="M33-154v-36h34v36H33zM33 0v-36h34V0H33" id="dc"/><path fill="#1071e5" d="M206 0h-36l-40-164L89 0H53L-1-190h32L70-26l43-164h34l41 164 42-164h31" id="dd"/><g id="av"><use transform="matrix(0.048148148148148155,0,0,0.048148148148148155,0,0)" xlink:href="#db"/><use transform="matrix(0.048148148148148155,0,0,0.048148148148148155,9.629629629629632,0)" xlink:href="#be"/><use transform="matrix(0.048148148148148155,0,0,0.048148148148148155,14.444444444444446,0)" xlink:href="#be"/><use transform="matrix(0.048148148148148155,0,0,0.048148148148148155,19.259259259259263,0)" xlink:href="#bh"/><use transform="matrix(0.048148148148148155,0,0,0.048148148148148155,28.888888888888893,0)" xlink:href="#dc"/><use transform="matrix(0.048148148148148155,0,0,0.048148148148148155,33.70370370370371,0)" xlink:href="#cY"/><use transform="matrix(0.048148148148148155,0,0,0.048148148148148155,38.518518518518526,0)" xlink:href="#cY"/><use transform="matrix(0.048148148148148155,0,0,0.048148148148148155,43.33333333333334,0)" xlink:href="#bk"/><use transform="matrix(0.048148148148148155,0,0,0.048148148148148155,52.00000000000002,0)" xlink:href="#aW"/><use transform="matrix(0.048148148148148155,0,0,0.048148148148148155,61.62962962962965,0)" xlink:href="#bd"/><use transform="matrix(0.048148148148148155,0,0,0.048148148148148155,76.02592592592595,0)" xlink:href="#aU"/><use transform="matrix(0.048148148148148155,0,0,0.048148148148148155,85.65555555555558,0)" xlink:href="#dd"/><use transform="matrix(0.048148148148148155,0,0,0.048148148148148155,98.12592592592596,0)" xlink:href="#db"/><use transform="matrix(0.048148148148148155,0,0,0.048148148148148155,107.75555555555559,0)" xlink:href="#aU"/><use transform="matrix(0.048148148148148155,0,0,0.048148148148148155,117.38518518518522,0)" xlink:href="#aT"/><use transform="matrix(0.048148148148148155,0,0,0.048148148148148155,123.11481481481485,0)" xlink:href="#aU"/></g><path fill="#1071e5" d="M27 0v-27h64v-190l-56 39v-29l58-41h29v221h61V0H27" id="de"/><g id="aw"><use transform="matrix(0.048148148148148155,0,0,0.048148148148148155,0,0)" xlink:href="#cZ"/><use transform="matrix(0.048148148148148155,0,0,0.048148148148148155,4.814814814814816,0)" xlink:href="#aR"/><use transform="matrix(0.048148148148148155,0,0,0.048148148148148155,13.481481481481483,0)" xlink:href="#aW"/><use transform="matrix(0.048148148148148155,0,0,0.048148148148148155,23.111111111111114,0)" xlink:href="#bd"/><use transform="matrix(0.048148148148148155,0,0,0.048148148148148155,37.50740740740741,0)" xlink:href="#cY"/><use transform="matrix(0.048148148148148155,0,0,0.048148148148148155,42.32222222222223,0)" xlink:href="#bj"/><use transform="matrix(0.048148148148148155,0,0,0.048148148148148155,51.951851851851856,0)" xlink:href="#aZ"/><use transform="matrix(0.048148148148148155,0,0,0.048148148148148155,55.75555555555557,0)" xlink:href="#aW"/><use transform="matrix(0.048148148148148155,0,0,0.048148148148148155,65.3851851851852,0)" xlink:href="#bj"/><use transform="matrix(0.048148148148148155,0,0,0.048148148148148155,75.01481481481483,0)" xlink:href="#cY"/><use transform="matrix(0.048148148148148155,0,0,0.048148148148148155,79.82962962962964,0)" xlink:href="#cY"/><use transform="matrix(0.048148148148148155,0,0,0.048148148148148155,84.64444444444445,0)" xlink:href="#de"/></g></defs></g></svg>