<svg xmlns="http://www.w3.org/2000/svg" xmlns:xlink="http://www.w3.org/1999/xlink" xmlns:lucid="lucid" width="1465.08" height="1121.95"><g transform="translate(313.74885681533414 -0.01671456864465881)" lucid:page-tab-id="6Jz5a_Ny6pGm"><path d="M-500 0h2000v1500H-500z" fill="#fff"/><path d="M298.27 25.02a5 5 0 0 1 5-5h150a5 5 0 0 1 5 5v110a5 5 0 0 1-5 5h-150a5 5 0 0 1-5-5z" stroke="#000" stroke-width="2" fill="#6f7681"/><use xlink:href="#a" transform="matrix(1,0,0,1,310.2677800974916,32.01671456864467) translate(46.5 41.4)"/><use xlink:href="#b" transform="matrix(1,0,0,1,310.2677800974916,32.01671456864467) translate(26.549999999999997 63)"/><path d="M634.8 268.23a5 5 0 0 1 5-5h150a5 5 0 0 1 5 5v110a5 5 0 0 1-5 5h-150a5 5 0 0 1-5-5z" stroke="#000" stroke-width="2" fill="#6f7681"/><use xlink:href="#a" transform="matrix(1,0,0,1,646.801328945395,275.2289191646186) translate(46.5 29.4)"/><use xlink:href="#c" transform="matrix(1,0,0,1,646.801328945395,275.2289191646186) translate(22.049999999999997 51)"/><use xlink:href="#d" transform="matrix(1,0,0,1,646.801328945395,275.2289191646186) translate(34.05 72.60000000000001)"/><path d="M634.8 503.63a5 5 0 0 1 5-5h150a5 5 0 0 1 5 5v110a5 5 0 0 1-5 5h-150a5 5 0 0 1-5-5z" stroke="#000" stroke-width="2" fill="#6f7681"/><use xlink:href="#a" transform="matrix(1,0,0,1,646.801328945395,510.62500556643) translate(46.5 20.4)"/><use xlink:href="#e" transform="matrix(1,0,0,1,646.801328945395,510.62500556643) translate(37.05 42)"/><use xlink:href="#f" transform="matrix(1,0,0,1,646.801328945395,510.62500556643) translate(58.5 63.6)"/><use xlink:href="#g" transform="matrix(1,0,0,1,646.801328945395,510.62500556643) translate(38.025 85.20000000000002)"/><path d="M298.27 511.44a5 5 0 0 1 5-5h150a5 5 0 0 1 5 5v110a5 5 0 0 1-5 5h-150a5 5 0 0 1-5-5z" stroke="#000" stroke-width="2" fill="#6f7681"/><use xlink:href="#a" transform="matrix(1,0,0,1,310.2677800974916,518.4411237605926) translate(46.5 41.4)"/><use xlink:href="#h" transform="matrix(1,0,0,1,310.2677800974916,518.4411237605926) translate(42.55 63)"/><path d="M298.27 268.23a5 5 0 0 1 5-5h150a5 5 0 0 1 5 5v110a5 5 0 0 1-5 5h-150a5 5 0 0 1-5-5z" stroke="#000" stroke-width="2" fill="#6f7681"/><use xlink:href="#a" transform="matrix(1,0,0,1,310.2677800974916,275.2289191646187) translate(46.5 41.4)"/><use xlink:href="#i" transform="matrix(1,0,0,1,310.2677800974916,275.2289191646187) translate(19.549999999999997 63)"/><path d="M191.4 730.88a5 5 0 0 1 5-5h150a5 5 0 0 1 5 5v110a5 5 0 0 1-5 5h-150a5 5 0 0 1-5-5z" stroke="#000" stroke-width="2" fill="#ced4db"/><use xlink:href="#j" transform="matrix(1,0,0,1,203.3858804633935,737.8788712626407) translate(48 41.4)"/><use xlink:href="#k" transform="matrix(1,0,0,1,203.3858804633935,737.8788712626407) translate(52.05 63)"/><path d="M492.8 323.73h-33.03v-1h33.03zm140.1 0h-68.05v-1h68.04z" stroke="#3a414a" stroke-width=".05" fill="#3a414a"/><path d="M459.78 323.73h-.5v-1h.5z" fill="#3a414a"/><path d="M459.8 323.75h-.56v-1.05h.57zm-.5-1v.95h.46v-.95zM633.8 323.23l-17.94 10.6-.5-.85 16.48-9.75-16.5-9.75.52-.86z" stroke="#3a414a" stroke-width=".05" fill="#3a414a"/><use xlink:href="#l" transform="matrix(1,0,0,1,492.8039072308293,291.2289191646187) translate(14.795123456790122 14.222222222222223)"/><use xlink:href="#m" transform="matrix(1,0,0,1,492.8039072308293,291.2289191646187) translate(0.005000000000002558 35.55555555555556)"/><use xlink:href="#n" transform="matrix(1,0,0,1,492.8039072308293,291.2289191646187) translate(2.498827160493825 56.88888888888889)"/><path d="M633.47 501.48l-.56.83-42.28-28.74v-1.2zm-132.63-90.16v1.2l-43.2-29.35.57-.83z" stroke="#3a414a" stroke-width=".05" fill="#3a414a"/><path d="M458.22 382.35l-.56.83-.54-.37.4-.33.32-.38z" fill="#3a414a"/><path d="M458.25 382.34l-.6.87-.57-.4.42-.34.33-.4zm-.72.15l-.37.3.5.34.52-.78-.34-.24zM633.94 502.4l-20.8-1.3.06-1 19.1 1.2-8.14-17.33.9-.43z" stroke="#3a414a" stroke-width=".05" fill="#3a414a"/><use xlink:href="#l" transform="matrix(1,0,0,1,500.83681842158194,410.4409601770124) translate(23.659320987654326 14.222222222222223)"/><use xlink:href="#o" transform="matrix(1,0,0,1,500.83681842158194,410.4409601770124) translate(0.005000000000002558 35.55555555555556)"/><use xlink:href="#p" transform="matrix(1,0,0,1,500.83681842158194,410.4409601770124) translate(5.906234567901237 56.88888888888889)"/><path d="M378.77 504.53h-1V446h1zm0-79.86h-1v-39.94h1z" stroke="#3a414a" stroke-width=".05" fill="#3a414a"/><path d="M378.77 384.74h-1v-.5h1z" fill="#3a414a"/><path d="M378.8 384.77h-1.06v-.57h1.05zm-1-.52v.47h.94v-.47zM388.88 487.5l-10.6 17.94-10.62-17.94.86-.5 9.75 16.48 9.75-16.5z" stroke="#3a414a" stroke-width=".05" fill="#3a414a"/><use xlink:href="#q" transform="matrix(1,0,0,1,317.57642207280026,424.6665597820126) translate(0.005000000000002558 14.222222222222223)"/><path d="M378.77 261.73h-1V212.3h1zm0-70.77h-1v-49.03h1z" stroke="#3a414a" stroke-width=".05" fill="#3a414a"/><path d="M378.77 262.23h-1v-.5h1z" fill="#3a414a"/><path d="M378.8 262.25h-1.06v-.56h1.05zm-1-.5v.45h.94v-.46zM388.88 158.96l-.86.5-9.75-16.48-9.75 16.5-.86-.52 10.6-17.94z" stroke="#3a414a" stroke-width=".05" fill="#3a414a"/><use xlink:href="#r" transform="matrix(1,0,0,1,296.8356813320595,190.95615019996498) translate(0.0049999999999954525 14.222222222222223)"/><path d="M272.4 724.64l-.68-.74 40.66-37.07h1.5zm105.84-96.5l-40.97 37.35h-1.48l41.76-38.1z" stroke="#3a414a" stroke-width=".05" fill="#3a414a"/><path d="M378.23 628.16l-.66-.72H379z" fill="#3a414a"/><path d="M378.22 628.2l-.7-.78h1.55zm-.6-.73l.6.65.72-.65zM278.45 705.24l-5.6 18.3 18.74-3.9.2 1-20.4 4.24 6.1-19.93z" stroke="#3a414a" stroke-width=".05" fill="#3a414a"/><use xlink:href="#s" transform="matrix(1,0,0,1,290.7774475643931,665.49333084495) translate(0.005000000000002558 14.222222222222223)"/><path d="M497.66 723.92l-.63.77-46.55-37.87h1.6zm-71.82-58.43h-1.58l-45.92-37.36.63-.77z" stroke="#3a414a" stroke-width=".05" fill="#3a414a"/><path d="M378.35 628.15l-.88-.7h1.46z" fill="#3a414a"/><path d="M378.35 628.2l-.95-.78h1.58zm-.8-.73l.8.65.53-.65zM498.05 724.88l-20.6-3.1.14-.98 18.93 2.84-6.64-17.97.93-.34z" stroke="#3a414a" stroke-width=".05" fill="#3a414a"/><use xlink:href="#t" transform="matrix(1,0,0,1,404.13624907537235,665.49333084495) translate(0.005000000000002558 14.222222222222223)"/><path d="M418.05 730.88a5 5 0 0 1 5-5h150a5 5 0 0 1 5 5v110a5 5 0 0 1-5 5h-150a5 5 0 0 1-5-5z" stroke="#000" stroke-width="2" fill="#ced4db"/><use xlink:href="#u" transform="matrix(1,0,0,1,430.0541007693025,737.8788712626407) translate(50.525 41.4)"/><use xlink:href="#v" transform="matrix(1,0,0,1,430.0541007693025,737.8788712626407) translate(29.549999999999997 63)"/><path d="M-284.48 69.97a5 5 0 0 1 5-5h150a5 5 0 0 1 5 5v110a5 5 0 0 1-5 5h-150a5 5 0 0 1-5-5z" stroke="#000" stroke-width="2" fill="#6f7681"/><use xlink:href="#w" transform="matrix(1,0,0,1,-272.48203239138286,76.96979811440093) translate(21.549999999999997 41.4)"/><use xlink:href="#x" transform="matrix(1,0,0,1,-272.48203239138286,76.96979811440093) translate(65.45 41.4)"/><use xlink:href="#y" transform="matrix(1,0,0,1,-272.48203239138286,76.96979811440093) translate(45.55 63)"/><path d="M-284.48 207.83a5 5 0 0 1 5-5h150a5 5 0 0 1 5 5v110a5 5 0 0 1-5 5h-150a5 5 0 0 1-5-5z" stroke="#000" stroke-width="2" fill="#ced4db"/><use xlink:href="#z" transform="matrix(1,0,0,1,-272.48203239138286,214.83044068951972) translate(25.099999999999994 41.4)"/><use xlink:href="#A" transform="matrix(1,0,0,1,-272.48203239138286,214.83044068951972) translate(75 41.4)"/><use xlink:href="#B" transform="matrix(1,0,0,1,-272.48203239138286,214.83044068951972) translate(10.574999999999996 63)"/><use xlink:href="#C" transform="matrix(1,0,0,1,-272.48203239138286,214.83044068951972) translate(76.525 63)"/><path d="M-260.2 26.02a6 6 0 0 1 6-6h99.44a6 6 0 0 1 6 6v22a6 6 0 0 1-6 6h-99.45a6 6 0 0 1-6-6z" stroke="#000" stroke-opacity="0" fill="#fff" fill-opacity="0"/><use xlink:href="#D" transform="matrix(1,0,0,1,-255.20845761141845,25.016714568644673) translate(30.165493827160496 19.34027777777778)"/><path d="M-251.37 378.05h-24v-1h24zm133.66 0h-39.9v-1h39.88z" stroke="#3a414a" stroke-width=".05" fill="#3a414a"/><path d="M-117.22 378.05h-.5v-1h.5z" stroke="#3a414a" stroke-width=".05" fill="#3a414a"/><path d="M-275.87 382.2l-14.26-4.65 14.26-4.63z" fill="#fff"/><path d="M-275.37 382.88l-16.38-5.33 16.38-5.32zm-13.14-5.33l12.13 3.95v-7.9z" stroke="#3a414a" stroke-width=".05" fill="#3a414a"/><use xlink:href="#E" transform="matrix(1,0,0,1,-251.37092128027174,366.8861468833863) translate(0.005000000000002558 14.222222222222223)"/><use xlink:href="#F" transform="matrix(1,0,0,1,-251.37092128027174,366.8861468833863) translate(33.58524691358026 14.222222222222223)"/><use xlink:href="#G" transform="matrix(1,0,0,1,-251.37092128027174,366.8861468833863) translate(78.96796296296296 14.222222222222223)"/><path d="M971.34 268.23a5 5 0 0 1 5-5h150a5 5 0 0 1 5 5v110a5 5 0 0 1-5 5h-150a5 5 0 0 1-5-5z" fill="#fff"/><path d="M996.34 263.23h20m10 0h20m10 0h20m10 0h20m10 0h10l.78.06.76.17.72.3.67.4.6.52.5.6.42.66.3.72.17.77.07.78v9.17m0 9.16v18.34m0 9.16v18.34m0 9.16v18.34m0 9.16v9.17l-.07.78-.18.77-.3.73-.42.67-.5.6-.6.5-.67.4-.72.3-.76.2-.78.06h-10m-10 0h-20m-10 0h-20m-10 0h-20m-10 0h-20m-10 0h-10l-.8-.06-.75-.2-.73-.3-.67-.4-.6-.5-.5-.6-.42-.67-.3-.73-.18-.76-.06-.77v-9.17m0-9.16v-18.34m0-9.16v-18.34m0-9.16v-18.34m0-9.16v-9.17l.06-.78.18-.77.3-.72.4-.67.52-.6.6-.52.67-.4.72-.3.75-.2.8-.05h10" stroke="#000" stroke-width="2" fill="none"/><use xlink:href="#H" transform="matrix(1,0,0,1,983.3348777932983,275.2289191646187) translate(14.524999999999999 41.4)"/><use xlink:href="#I" transform="matrix(1,0,0,1,983.3348777932983,275.2289191646187) translate(106.475 41.4)"/><use xlink:href="#J" transform="matrix(1,0,0,1,983.3348777932983,275.2289191646187) translate(5.124999999999993 63)"/><use xlink:href="#K" transform="matrix(1,0,0,1,983.3348777932983,275.2289191646187) translate(48.074999999999996 63)"/><use xlink:href="#L" transform="matrix(1,0,0,1,983.3348777932983,275.2289191646187) translate(67.025 63)"/><use xlink:href="#M" transform="matrix(1,0,0,1,983.3348777932983,275.2289191646187) translate(82.025 63)"/><path d="M969.84 323.23h-4.8m-4.82 0h-9.62m-4.8 0h-9.63m-4.8 0h-9.63m-4.8 0h-9.62m-4.8 0h-9.63m-4.82 0h-9.62m-4.8 0h-9.62m-4.8 0h-9.63m-4.8 0h-9.62m-4.8 0h-9.63m-4.8 0h-9.62m-4.8 0h-4.82" stroke="#3a414a" fill="none"/><path d="M970.34 323.73h-.52v-1h.5z" stroke="#3a414a" stroke-width=".05" fill="#3a414a"/><path d="M814 313.05l-17.22 10.18L814 333.4" stroke="#3a414a" fill="none"/><path d="M-284.48 438.43a5 5 0 0 1 5-5h150a5 5 0 0 1 5 5v110a5 5 0 0 1-5 5h-150a5 5 0 0 1-5-5z" fill="#fff"/><path d="M-259.48 433.43h20m10 0h20m10 0h20m10 0h20m10 0h10l.78.06.76.17.73.3.66.4.6.52.5.6.4.66.3.72.2.76.06.8v9.15m0 9.16v18.33m0 9.16v18.33m0 9.16v18.33m0 9.16v9.17l-.06.78-.2.77-.3.73-.4.67-.5.6-.6.5-.67.4-.74.3-.76.2-.78.06h-10m-10 0h-20m-10 0h-20m-10 0h-20m-10 0h-20m-10 0h-10l-.78-.06-.77-.2-.72-.3-.67-.4-.6-.5-.5-.6-.42-.67-.3-.73-.18-.76-.06-.77v-9.17m0-9.17v-18.34m0-9.17v-18.34m0-9.17v-18.34m0-9.17v-9.17l.06-.8.18-.75.3-.72.4-.67.52-.6.6-.52.67-.4.72-.3.77-.2.78-.05h10" stroke="#000" stroke-width="2" fill="none"/><use xlink:href="#N" transform="matrix(1,0,0,1,-272.48203239138286,445.4269135898494) translate(16.5 41.4)"/><use xlink:href="#O" transform="matrix(1,0,0,1,-272.48203239138286,445.4269135898494) translate(89.5 41.4)"/><use xlink:href="#P" transform="matrix(1,0,0,1,-272.48203239138286,445.4269135898494) translate(109.5 41.4)"/><use xlink:href="#Q" transform="matrix(1,0,0,1,-272.48203239138286,445.4269135898494) translate(45.55 63)"/><path d="M-117.72 611.44h-4.8v-1h4.8zm-9.6 0h-9.63v-1h9.62zm-14.44 0h-9.62v-1h9.62zm-115.42 0h-9.62v-1h9.62zm-14.42 0h-9.62v-1h9.62zm-14.43 0h-4.8v-1h4.8zM-117.22 611.44h-.5v-1h.5z" stroke="#3a414a" stroke-width=".05" fill="#3a414a"/><path d="M-273.3 601.2l-16.48 9.74 16.48 9.75-.5.85-17.95-10.6 17.94-10.62z" stroke="#3a414a" stroke-width=".05" fill="#3a414a"/><use xlink:href="#R" transform="matrix(1,0,0,1,-256.28450152718534,600.2710191346462) translate(0 14.222222222222223)"/><use xlink:href="#S" transform="matrix(1,0,0,1,-256.28450152718534,600.2710191346462) translate(17.728395061728396 14.222222222222223)"/><use xlink:href="#G" transform="matrix(1,0,0,1,-256.28450152718534,600.2710191346462) translate(88.79012345679011 14.222222222222223)"/><path d="M971.34 503.63a5 5 0 0 1 5-5h150a5 5 0 0 1 5 5v110a5 5 0 0 1-5 5h-150a5 5 0 0 1-5-5z" fill="#fff"/><path d="M996.34 498.63h20m10 0h20m10 0h20m10 0h20m10 0h10l.78.06.76.17.72.3.67.4.6.52.5.6.42.66.3.72.17.76.07.8v9.15m0 9.16v18.33m0 9.16v18.33m0 9.16v18.33m0 9.16v9.16l-.07.8-.18.75-.3.73-.42.66-.5.6-.6.5-.67.42-.72.3-.76.18-.78.07h-10m-10 0h-20m-10 0h-20m-10 0h-20m-10 0h-20m-10 0h-10l-.8-.07-.75-.18-.73-.3-.67-.4-.6-.52-.5-.6-.42-.66-.3-.73-.18-.76-.06-.77v-9.17m0-9.17v-18.34m0-9.17v-18.34m0-9.17v-18.34m0-9.17v-9.17l.06-.8.18-.75.3-.72.4-.67.52-.6.6-.52.67-.4.72-.3.75-.2.8-.06h10" stroke="#000" stroke-width="2" fill="none"/><use xlink:href="#T" transform="matrix(1,0,0,1,983.3348777932983,510.62500556643) translate(29.049999999999997 50.4)"/><use xlink:href="#U" transform="matrix(1,0,0,1,983.3348777932983,510.62500556643) translate(94.95 50.4)"/><path d="M969.84 558.63h-4.8m-4.82 0h-9.62m-4.8 0h-9.63m-4.8 0h-9.63m-4.8 0h-9.62m-4.8 0h-9.63m-4.82 0h-9.62m-4.8 0h-9.62m-4.8 0h-9.63m-4.8 0h-9.62m-4.8 0h-9.63m-4.8 0h-9.62m-4.8 0h-4.82" stroke="#3a414a" fill="none"/><path d="M970.34 559.13h-.52v-1h.5z" stroke="#3a414a" stroke-width=".05" fill="#3a414a"/><path d="M814 548.44l-17.22 10.18 17.22 10.2" stroke="#3a414a" fill="none"/><path d="M421.3 1056.6a5 5 0 0 1 5-5h143.5a5 5 0 0 1 5 5v40.37a5 5 0 0 1-5 5H426.3a5 5 0 0 1-5-5z" fill="#fff"/><path d="M445.43 1051.6h19.14m9.56 0h19.14m9.57 0h19.13m9.57 0h19.14m9.56 0h9.57l.8.05.76.18.72.3.67.4.6.52.5.6.42.66.3.74.18.76.06.8v13.45m0 13.46v13.47l-.05.78-.18.76-.3.74-.4.67-.52.6-.6.5-.67.42-.72.3-.77.2-.8.05h-9.56m-9.56 0h-19.14m-9.57 0h-19.13m-9.57 0h-19.13m-9.57 0h-19.14m-9.57 0h-9.56l-.8-.06-.75-.18-.72-.3-.67-.4-.6-.52-.5-.6-.42-.66-.3-.73-.18-.75-.06-.78v-13.46m0-13.45v-13.46l.06-.8.18-.76.3-.72.4-.67.52-.6.6-.5.67-.42.72-.3.76-.18.8-.07h9.56" stroke="#000" stroke-width="2" fill="none"/><use xlink:href="#V" transform="matrix(1,0,0,1,433.29685431493465,1063.584832473986) translate(50 17.775)"/><path d="M418.05 893.73a5 5 0 0 1 5-5h150a5 5 0 0 1 5 5v110a5 5 0 0 1-5 5h-150a5 5 0 0 1-5-5z" stroke="#000" stroke-width="2" fill="#ced4db"/><g><use xlink:href="#u" transform="matrix(1,0,0,1,430.0541007693025,900.7318518683132) translate(50.525 41.4)"/><use xlink:href="#W" transform="matrix(1,0,0,1,430.0541007693025,900.7318518683132) translate(43.575 63)"/></g><path d="M498.05 887.23v-23.97" stroke="#3a414a" fill="none"/><path d="M498.55 887.73h-1v-.5h1z" stroke="#3a414a" stroke-width=".05" fill="#3a414a"/><path d="M498.05 848.5l4.64 14.26h-9.28z" stroke="#3a414a" fill="#fff"/><path d="M498.05 1050.1v-4.4m0-4.38v-8.77m0-4.38v-8.76m0-4.38v-4.38" stroke="#3a414a" fill="none"/><path d="M498.55 1050.6h-1v-.53h1z" stroke="#3a414a" stroke-width=".05" fill="#3a414a"/><path d="M508.24 1027.93l-10.2-17.22-10.17 17.23" stroke="#3a414a" fill="none"/><path d="M191.4 986.97a5 5 0 0 1 5-5h150a5 5 0 0 1 5 5v110a5 5 0 0 1-5 5h-150a5 5 0 0 1-5-5z" fill="#fff"/><path d="M216.4 981.97h20m10 0h20m10 0h20m10 0h20m10 0h10l.77.06.76.18.73.3.66.42.6.5.5.6.42.68.3.72.18.77.07.77v9.16m0 9.17v18.34m0 9.16v18.34m0 9.16v18.34m0 9.16v9.17l-.08.78-.18.76-.3.74-.4.67-.52.6-.6.5-.66.42-.73.3-.76.2-.78.05h-10m-10 0h-20m-10 0h-20m-10 0h-20m-10 0h-20m-10 0h-10l-.8-.06-.76-.18-.72-.3-.67-.4-.6-.52-.5-.6-.42-.66-.3-.73-.18-.75-.06-.78v-9.17m0-9.16v-18.34m0-9.16v-18.34m0-9.16v-18.34m0-9.16v-9.17l.05-.78.18-.78.3-.72.4-.67.52-.6.6-.5.67-.42.72-.3.76-.17.8-.06h10" stroke="#000" stroke-width="2" fill="none"/><g><use xlink:href="#X" transform="matrix(1,0,0,1,203.3858804633935,993.9687375934445) translate(51.025 41.4)"/><use xlink:href="#Y" transform="matrix(1,0,0,1,203.3858804633935,993.9687375934445) translate(7.67499999999999 63)"/></g><path d="M271.4 980.47v-4.92m0-4.9v-9.84m0-4.9v-9.83m0-4.9v-9.84m0-4.92v-9.8m0-4.93v-9.83m0-4.9v-9.84m0-4.9v-9.84m0-4.92v-9.82m0-4.92v-4.9" stroke="#3a414a" fill="none"/><path d="M271.9 980.97h-1v-.5h1z" stroke="#3a414a" stroke-width=".05" fill="#3a414a"/><path d="M281.57 865.08l-10.18-17.22-10.2 17.22" stroke="#3a414a" fill="none"/><path d="M55.6 268.23a5 5 0 0 1 5-5h150a5 5 0 0 1 5 5v110a5 5 0 0 1-5 5h-150a5 5 0 0 1-5-5z" fill="#fff"/><path d="M80.6 263.23h20m10 0h20m10 0h20m10 0h20m10 0h10l.77.06.76.17.73.3.67.4.6.52.5.6.4.66.3.72.2.77.06.78v9.17m0 9.16v18.34m0 9.16v18.34m0 9.16v18.34m0 9.16v9.17l-.07.78-.2.77-.3.73-.4.67-.5.6-.6.5-.67.4-.73.3-.76.2-.78.06h-10m-10 0h-20m-10 0h-20m-10 0h-20m-10 0h-20m-10 0h-10l-.8-.06-.76-.2-.72-.3-.67-.4-.6-.5-.5-.6-.42-.67-.3-.73-.18-.76-.06-.77v-9.17m0-9.16v-18.34m0-9.16v-18.34m0-9.16v-18.34m0-9.16v-9.17l.05-.78.18-.77.3-.72.4-.67.52-.6.6-.52.67-.4.72-.3.77-.2.8-.05h10" stroke="#000" stroke-width="2" fill="none"/><g><use xlink:href="#Z" transform="matrix(1,0,0,1,67.58833213400055,275.2289191646187) translate(11.049999999999997 50.4)"/><use xlink:href="#aa" transform="matrix(1,0,0,1,67.58833213400055,275.2289191646187) translate(112.95 50.4)"/></g><path d="M217.1 323.23h5.27m5.3 0h10.56m5.28 0h10.58m5.3 0h10.56m5.28 0h10.57m5.27 0h5.3" stroke="#3a414a" fill="none"/><path d="M217.1 323.73h-.5v-1h.5z" stroke="#3a414a" stroke-width=".05" fill="#3a414a"/><path d="M279.07 333.4l17.22-10.17-17.23-10.18" stroke="#3a414a" fill="none"/><path d="M55.6 511.44a5 5 0 0 1 5-5h150a5 5 0 0 1 5 5v110a5 5 0 0 1-5 5h-150a5 5 0 0 1-5-5z" fill="#fff"/><path d="M80.6 506.44h20m10 0h20m10 0h20m10 0h20m10 0h10l.77.06.76.2.73.3.67.4.6.5.5.6.4.67.3.73.2.76.06.78v9.17m0 9.17v18.34m0 9.17v18.34m0 9.17v18.34m0 9.17v9.17l-.07.78-.2.77-.3.7-.4.68-.5.6-.6.5-.67.42-.73.3-.76.18-.78.06h-10m-10 0h-20m-10 0h-20m-10 0h-20m-10 0h-20m-10 0h-10l-.8-.06-.76-.18-.72-.3-.67-.4-.6-.52-.5-.6-.42-.67-.3-.7-.18-.78-.06-.78v-9.17m0-9.16v-18.33m0-9.16v-18.33m0-9.16v-18.33m0-9.16v-9.16l.05-.78.18-.76.3-.73.4-.67.52-.6.6-.5.67-.4.72-.3.77-.2.8-.06h10" stroke="#000" stroke-width="2" fill="none"/><g><use xlink:href="#ab" transform="matrix(1,0,0,1,67.58833213400055,518.4411237605926) translate(32.574999999999996 50.4)"/><use xlink:href="#ac" transform="matrix(1,0,0,1,67.58833213400055,518.4411237605926) translate(88.475 50.4)"/></g><path d="M217.1 566.44h5.27m5.3 0h10.56m5.28 0h10.58m5.3 0h10.56m5.28 0h10.57m5.27 0h5.3" stroke="#3a414a" fill="none"/><path d="M217.1 566.94h-.5v-1h.5z" stroke="#3a414a" stroke-width=".05" fill="#3a414a"/><path d="M279.07 576.62l17.22-10.18-17.23-10.18" stroke="#3a414a" fill="none"/><path d="M629.17 25.02a5 5 0 0 1 5-5h150a5 5 0 0 1 5 5v110a5 5 0 0 1-5 5h-150a5 5 0 0 1-5-5z" fill="#fff"/><path d="M654.17 20.02h20m10 0h20m10 0h20m10 0h20m10 0h10l.78.06.76.18.74.3.67.4.6.52.5.6.42.67.3.72.2.77.05.78v9.16m0 9.17v18.33m0 9.17v18.33m0 9.17v18.33m0 9.17v9.17l-.06.78-.18.76-.3.73-.4.66-.52.6-.6.5-.66.4-.73.3-.75.2-.78.06h-10m-10 0h-20m-10 0h-20m-10 0h-20m-10 0h-20m-10 0h-10l-.78-.06-.78-.2-.72-.3-.67-.4-.6-.5-.5-.6-.42-.67-.3-.74-.17-.76-.06-.78v-9.17m0-9.17V98.35m0-9.17V70.85m0-9.17V43.35m0-9.17v-9.16l.06-.8.18-.75.3-.72.42-.67.5-.6.6-.5.68-.42.72-.3.77-.18.77-.06h10" stroke="#000" stroke-width="2" fill="none"/><g><use xlink:href="#ad" transform="matrix(1,0,0,1,641.1680464988306,32.01671456864466) translate(18.574999999999996 50.4)"/><use xlink:href="#ae" transform="matrix(1,0,0,1,641.1680464988306,32.01671456864466) translate(106.475 50.4)"/></g><path d="M627.67 80.02h-5.08m-5.08 0h-10.15m-5.08 0h-10.16m-5.08 0H576.9m-5.06 0H561.7m-5.1 0h-10.14m-5.08 0h-10.15m-5.07 0H516m-5.07 0h-10.15m-5.07 0h-10.15m-5.07 0h-10.15m-5.08 0h-5.07" stroke="#3a414a" fill="none"/><path d="M628.17 80.52h-.5v-1h.5z" stroke="#3a414a" stroke-width=".05" fill="#3a414a"/><path d="M477.46 69.84l-17.2 10.18 17.2 10.18" stroke="#3a414a" fill="none"/><defs><path fill="#fff" d="M135-143c-3-34-86-38-87 0 15 53 115 12 119 90S17 21 10-45l28-5c4 36 97 45 98 0-10-56-113-15-118-90-4-57 82-63 122-42 12 7 21 19 24 35" id="af"/><path fill="#fff" d="M100-194c62-1 85 37 85 99 1 63-27 99-86 99S16-35 15-95c0-66 28-99 85-99zM99-20c44 1 53-31 53-75 0-43-8-75-51-75s-53 32-53 75 10 74 51 75" id="ag"/><path fill="#fff" d="M141-36C126-15 110 5 73 4 37 3 15-17 15-53c-1-64 63-63 125-63 3-35-9-54-41-54-24 1-41 7-42 31l-33-3c5-37 33-52 76-52 45 0 72 20 72 64v82c-1 20 7 32 28 27v20c-31 9-61-2-59-35zM48-53c0 20 12 33 32 33 41-3 63-29 60-74-43 2-92-5-92 41" id="ah"/><path fill="#fff" d="M33-154v-36h34v36H33zM33 0v-36h34V0H33" id="ai"/><g id="a"><use transform="matrix(0.05,0,0,0.05,0,0)" xlink:href="#af"/><use transform="matrix(0.05,0,0,0.05,9,0)" xlink:href="#ag"/><use transform="matrix(0.05,0,0,0.05,19,0)" xlink:href="#af"/><use transform="matrix(0.05,0,0,0.05,28,0)" xlink:href="#ah"/><use transform="matrix(0.05,0,0,0.05,38,0)" xlink:href="#ai"/></g><path fill="#fff" d="M30-248c87 1 191-15 191 75 0 78-77 80-158 76V0H30v-248zm33 125c57 0 124 11 124-50 0-59-68-47-124-48v98" id="aj"/><path fill="#fff" d="M114-163C36-179 61-72 57 0H25l-1-190h30c1 12-1 29 2 39 6-27 23-49 58-41v29" id="ak"/><path fill="#fff" d="M96-169c-40 0-48 33-48 73s9 75 48 75c24 0 41-14 43-38l32 2c-6 37-31 61-74 61-59 0-76-41-82-99-10-93 101-131 147-64 4 7 5 14 7 22l-32 3c-4-21-16-35-41-35" id="al"/><path fill="#fff" d="M100-194c63 0 86 42 84 106H49c0 40 14 67 53 68 26 1 43-12 49-29l28 8c-11 28-37 45-77 45C44 4 14-33 15-96c1-61 26-98 85-98zm52 81c6-60-76-77-97-28-3 7-6 17-6 28h103" id="am"/><path fill="#fff" d="M85-194c31 0 48 13 60 33l-1-100h32l1 261h-30c-2-10 0-23-3-31C134-8 116 4 85 4 32 4 16-35 15-94c0-66 23-100 70-100zm9 24c-40 0-46 34-46 75 0 40 6 74 45 74 42 0 51-32 51-76 0-42-9-74-50-73" id="an"/><path fill="#fff" d="M84 4C-5 8 30-112 23-190h32v120c0 31 7 50 39 49 72-2 45-101 50-169h31l1 190h-30c-1-10 1-25-2-33-11 22-28 36-60 37" id="ao"/><g id="b"><use transform="matrix(0.05,0,0,0.05,0,0)" xlink:href="#aj"/><use transform="matrix(0.05,0,0,0.05,12,0)" xlink:href="#ak"/><use transform="matrix(0.05,0,0,0.05,17.95,0)" xlink:href="#ag"/><use transform="matrix(0.05,0,0,0.05,27.950000000000003,0)" xlink:href="#al"/><use transform="matrix(0.05,0,0,0.05,36.95,0)" xlink:href="#am"/><use transform="matrix(0.05,0,0,0.05,46.95,0)" xlink:href="#an"/><use transform="matrix(0.05,0,0,0.05,56.95,0)" xlink:href="#ao"/><use transform="matrix(0.05,0,0,0.05,66.95,0)" xlink:href="#ak"/><use transform="matrix(0.05,0,0,0.05,72.9,0)" xlink:href="#am"/></g><path fill="#fff" d="M140-251c81 0 123 46 123 126C263-46 219 4 140 4 59 4 17-45 17-125s42-126 123-126zm0 227c63 0 89-41 89-101s-29-99-89-99c-61 0-89 39-89 99S79-25 140-24" id="ap"/><path fill="#fff" d="M115-194c53 0 69 39 70 98 0 66-23 100-70 100C84 3 66-7 56-30L54 0H23l1-261h32v101c10-23 28-34 59-34zm-8 174c40 0 45-34 45-75 0-40-5-75-45-74-42 0-51 32-51 76 0 43 10 73 51 73" id="aq"/><path fill="#fff" d="M108 0H70L1-190h34L89-25l56-165h34" id="ar"/><path fill="#fff" d="M24 0v-261h32V0H24" id="as"/><g id="c"><use transform="matrix(0.05,0,0,0.05,0,0)" xlink:href="#ap"/><use transform="matrix(0.05,0,0,0.05,14,0)" xlink:href="#aq"/><use transform="matrix(0.05,0,0,0.05,24,0)" xlink:href="#af"/><use transform="matrix(0.05,0,0,0.05,33,0)" xlink:href="#am"/><use transform="matrix(0.05,0,0,0.05,43,0)" xlink:href="#ak"/><use transform="matrix(0.05,0,0,0.05,48.95,0)" xlink:href="#ar"/><use transform="matrix(0.05,0,0,0.05,57.95,0)" xlink:href="#ah"/><use transform="matrix(0.05,0,0,0.05,67.95,0)" xlink:href="#aq"/><use transform="matrix(0.05,0,0,0.05,77.95,0)" xlink:href="#as"/><use transform="matrix(0.05,0,0,0.05,81.9,0)" xlink:href="#am"/></g><path fill="#fff" d="M115-194c55 1 70 41 70 98S169 2 115 4C84 4 66-9 55-30l1 105H24l-1-265h31l2 30c10-21 28-34 59-34zm-8 174c40 0 45-34 45-75s-6-73-45-74c-42 0-51 32-51 76 0 43 10 73 51 73" id="at"/><path fill="#fff" d="M59-47c-2 24 18 29 38 22v24C64 9 27 4 27-40v-127H5v-23h24l9-43h21v43h35v23H59v120" id="au"/><path fill="#fff" d="M179-190L93 31C79 59 56 82 12 73V49c39 6 53-20 64-50L1-190h34L92-34l54-156h33" id="av"/><g id="d"><use transform="matrix(0.05,0,0,0.05,0,0)" xlink:href="#aj"/><use transform="matrix(0.05,0,0,0.05,12,0)" xlink:href="#ak"/><use transform="matrix(0.05,0,0,0.05,17.95,0)" xlink:href="#ag"/><use transform="matrix(0.05,0,0,0.05,27.950000000000003,0)" xlink:href="#at"/><use transform="matrix(0.05,0,0,0.05,37.95,0)" xlink:href="#am"/><use transform="matrix(0.05,0,0,0.05,47.95,0)" xlink:href="#ak"/><use transform="matrix(0.05,0,0,0.05,53.900000000000006,0)" xlink:href="#au"/><use transform="matrix(0.05,0,0,0.05,58.900000000000006,0)" xlink:href="#av"/></g><path fill="#fff" d="M63-220v92h138v28H63V0H30v-248h175v28H63" id="aw"/><g id="e"><use transform="matrix(0.05,0,0,0.05,0,0)" xlink:href="#aw"/><use transform="matrix(0.05,0,0,0.05,10.950000000000001,0)" xlink:href="#am"/><use transform="matrix(0.05,0,0,0.05,20.950000000000003,0)" xlink:href="#ah"/><use transform="matrix(0.05,0,0,0.05,30.950000000000003,0)" xlink:href="#au"/><use transform="matrix(0.05,0,0,0.05,35.95,0)" xlink:href="#ao"/><use transform="matrix(0.05,0,0,0.05,45.95,0)" xlink:href="#ak"/><use transform="matrix(0.05,0,0,0.05,51.900000000000006,0)" xlink:href="#am"/></g><path fill="#fff" d="M101-234c-31-9-42 10-38 44h38v23H63V0H32v-167H5v-23h27c-7-52 17-82 69-68v24" id="ax"/><g id="f"><use transform="matrix(0.05,0,0,0.05,0,0)" xlink:href="#ap"/><use transform="matrix(0.05,0,0,0.05,14,0)" xlink:href="#ax"/></g><path fill="#fff" d="M33 0v-248h34V0H33" id="ay"/><path fill="#fff" d="M117-194c89-4 53 116 60 194h-32v-121c0-31-8-49-39-48C34-167 62-67 57 0H25l-1-190h30c1 10-1 24 2 32 11-22 29-35 61-36" id="az"/><g id="g"><use transform="matrix(0.05,0,0,0.05,0,0)" xlink:href="#ay"/><use transform="matrix(0.05,0,0,0.05,5,0)" xlink:href="#az"/><use transform="matrix(0.05,0,0,0.05,15,0)" xlink:href="#au"/><use transform="matrix(0.05,0,0,0.05,20,0)" xlink:href="#am"/><use transform="matrix(0.05,0,0,0.05,30,0)" xlink:href="#ak"/><use transform="matrix(0.05,0,0,0.05,35.95,0)" xlink:href="#am"/><use transform="matrix(0.05,0,0,0.05,45.95,0)" xlink:href="#af"/><use transform="matrix(0.05,0,0,0.05,54.95,0)" xlink:href="#au"/></g><path fill="#fff" d="M233-177c-1 41-23 64-60 70L243 0h-38l-65-103H63V0H30v-248c88 3 205-21 203 71zM63-129c60-2 137 13 137-47 0-61-80-42-137-45v92" id="aA"/><g id="h"><use transform="matrix(0.05,0,0,0.05,0,0)" xlink:href="#aA"/><use transform="matrix(0.05,0,0,0.05,12.950000000000001,0)" xlink:href="#am"/><use transform="matrix(0.05,0,0,0.05,22.950000000000003,0)" xlink:href="#af"/><use transform="matrix(0.05,0,0,0.05,31.950000000000003,0)" xlink:href="#ao"/><use transform="matrix(0.05,0,0,0.05,41.95,0)" xlink:href="#as"/><use transform="matrix(0.05,0,0,0.05,45.900000000000006,0)" xlink:href="#au"/></g><path fill="#fff" d="M24-231v-30h32v30H24zM24 0v-190h32V0H24" id="aB"/><g id="i"><use transform="matrix(0.05,0,0,0.05,0,0)" xlink:href="#ap"/><use transform="matrix(0.05,0,0,0.05,14,0)" xlink:href="#aq"/><use transform="matrix(0.05,0,0,0.05,24,0)" xlink:href="#af"/><use transform="matrix(0.05,0,0,0.05,33,0)" xlink:href="#am"/><use transform="matrix(0.05,0,0,0.05,43,0)" xlink:href="#ak"/><use transform="matrix(0.05,0,0,0.05,48.95,0)" xlink:href="#ar"/><use transform="matrix(0.05,0,0,0.05,57.95,0)" xlink:href="#ah"/><use transform="matrix(0.05,0,0,0.05,67.95,0)" xlink:href="#au"/><use transform="matrix(0.05,0,0,0.05,72.95,0)" xlink:href="#aB"/><use transform="matrix(0.05,0,0,0.05,76.9,0)" xlink:href="#ag"/><use transform="matrix(0.05,0,0,0.05,86.9,0)" xlink:href="#az"/></g><path d="M145-31C134-9 116 4 85 4 32 4 16-35 15-94c0-59 17-99 70-100 32-1 48 14 60 33 0-11-1-24 2-32h30l-1 268h-32zM93-21c41 0 51-33 51-76s-8-73-50-73c-40 0-46 35-46 75s5 74 45 74" id="aC"/><path d="M84 4C-5 8 30-112 23-190h32v120c0 31 7 50 39 49 72-2 45-101 50-169h31l1 190h-30c-1-10 1-25-2-33-11 22-28 36-60 37" id="aD"/><path d="M85-194c31 0 48 13 60 33l-1-100h32l1 261h-30c-2-10 0-23-3-31C134-8 116 4 85 4 32 4 16-35 15-94c0-66 23-100 70-100zm9 24c-40 0-46 34-46 75 0 40 6 74 45 74 42 0 51-32 51-76 0-42-9-74-50-73" id="aE"/><path d="M59-47c-2 24 18 29 38 22v24C64 9 27 4 27-40v-127H5v-23h24l9-43h21v43h35v23H59v120" id="aF"/><path d="M33-154v-36h34v36H33zM33 0v-36h34V0H33" id="aG"/><g id="j"><use transform="matrix(0.05,0,0,0.05,0,0)" xlink:href="#aC"/><use transform="matrix(0.05,0,0,0.05,10,0)" xlink:href="#aD"/><use transform="matrix(0.05,0,0,0.05,20,0)" xlink:href="#aE"/><use transform="matrix(0.05,0,0,0.05,30,0)" xlink:href="#aF"/><use transform="matrix(0.05,0,0,0.05,35,0)" xlink:href="#aG"/></g><path d="M232-93c-1 65-40 97-104 97C67 4 28-28 28-90v-158h33c8 89-33 224 67 224 102 0 64-133 71-224h33v155" id="aH"/><path d="M117-194c89-4 53 116 60 194h-32v-121c0-31-8-49-39-48C34-167 62-67 57 0H25l-1-190h30c1 10-1 24 2 32 11-22 29-35 61-36" id="aI"/><path d="M24-231v-30h32v30H24zM24 0v-190h32V0H24" id="aJ"/><g id="k"><use transform="matrix(0.05,0,0,0.05,0,0)" xlink:href="#aH"/><use transform="matrix(0.05,0,0,0.05,12.950000000000001,0)" xlink:href="#aI"/><use transform="matrix(0.05,0,0,0.05,22.950000000000003,0)" xlink:href="#aJ"/><use transform="matrix(0.05,0,0,0.05,26.900000000000002,0)" xlink:href="#aF"/></g><path fill="#333" d="M135-143c-3-34-86-38-87 0 15 53 115 12 119 90S17 21 10-45l28-5c4 36 97 45 98 0-10-56-113-15-118-90-4-57 82-63 122-42 12 7 21 19 24 35" id="aK"/><path fill="#333" d="M100-194c62-1 85 37 85 99 1 63-27 99-86 99S16-35 15-95c0-66 28-99 85-99zM99-20c44 1 53-31 53-75 0-43-8-75-51-75s-53 32-53 75 10 74 51 75" id="aL"/><path fill="#333" d="M141-36C126-15 110 5 73 4 37 3 15-17 15-53c-1-64 63-63 125-63 3-35-9-54-41-54-24 1-41 7-42 31l-33-3c5-37 33-52 76-52 45 0 72 20 72 64v82c-1 20 7 32 28 27v20c-31 9-61-2-59-35zM48-53c0 20 12 33 32 33 41-3 63-29 60-74-43 2-92-5-92 41" id="aM"/><path fill="#333" d="M33-154v-36h34v36H33zM33 0v-36h34V0H33" id="aN"/><g id="l"><use transform="matrix(0.04938271604938272,0,0,0.04938271604938272,0,0)" xlink:href="#aK"/><use transform="matrix(0.04938271604938272,0,0,0.04938271604938272,8.88888888888889,0)" xlink:href="#aL"/><use transform="matrix(0.04938271604938272,0,0,0.04938271604938272,18.765432098765434,0)" xlink:href="#aK"/><use transform="matrix(0.04938271604938272,0,0,0.04938271604938272,27.654320987654323,0)" xlink:href="#aM"/><use transform="matrix(0.04938271604938272,0,0,0.04938271604938272,37.53086419753087,0)" xlink:href="#aN"/></g><path fill="#333" d="M115-194c53 0 69 39 70 98 0 66-23 100-70 100C84 3 66-7 56-30L54 0H23l1-261h32v101c10-23 28-34 59-34zm-8 174c40 0 45-34 45-75 0-40-5-75-45-74-42 0-51 32-51 76 0 43 10 73 51 73" id="aO"/><path fill="#333" d="M100-194c63 0 86 42 84 106H49c0 40 14 67 53 68 26 1 43-12 49-29l28 8c-11 28-37 45-77 45C44 4 14-33 15-96c1-61 26-98 85-98zm52 81c6-60-76-77-97-28-3 7-6 17-6 28h103" id="aP"/><path fill="#333" d="M114-163C36-179 61-72 57 0H25l-1-190h30c1 12-1 29 2 39 6-27 23-49 58-41v29" id="aQ"/><path fill="#333" d="M108 0H70L1-190h34L89-25l56-165h34" id="aR"/><g id="m"><use transform="matrix(0.04938271604938272,0,0,0.04938271604938272,0,0)" xlink:href="#aL"/><use transform="matrix(0.04938271604938272,0,0,0.04938271604938272,9.876543209876544,0)" xlink:href="#aO"/><use transform="matrix(0.04938271604938272,0,0,0.04938271604938272,19.75308641975309,0)" xlink:href="#aK"/><use transform="matrix(0.04938271604938272,0,0,0.04938271604938272,28.641975308641978,0)" xlink:href="#aP"/><use transform="matrix(0.04938271604938272,0,0,0.04938271604938272,38.51851851851852,0)" xlink:href="#aQ"/><use transform="matrix(0.04938271604938272,0,0,0.04938271604938272,44.39506172839506,0)" xlink:href="#aR"/><use transform="matrix(0.04938271604938272,0,0,0.04938271604938272,53.28395061728394,0)" xlink:href="#aP"/><use transform="matrix(0.04938271604938272,0,0,0.04938271604938272,63.1604938271605,0)" xlink:href="#aK"/></g><path fill="#333" d="M30-248c87 1 191-15 191 75 0 78-77 80-158 76V0H30v-248zm33 125c57 0 124 11 124-50 0-59-68-47-124-48v98" id="aS"/><path fill="#333" d="M115-194c55 1 70 41 70 98S169 2 115 4C84 4 66-9 55-30l1 105H24l-1-265h31l2 30c10-21 28-34 59-34zm-8 174c40 0 45-34 45-75s-6-73-45-74c-42 0-51 32-51 76 0 43 10 73 51 73" id="aT"/><path fill="#333" d="M59-47c-2 24 18 29 38 22v24C64 9 27 4 27-40v-127H5v-23h24l9-43h21v43h35v23H59v120" id="aU"/><path fill="#333" d="M179-190L93 31C79 59 56 82 12 73V49c39 6 53-20 64-50L1-190h34L92-34l54-156h33" id="aV"/><g id="n"><use transform="matrix(0.04938271604938272,0,0,0.04938271604938272,0,0)" xlink:href="#aS"/><use transform="matrix(0.04938271604938272,0,0,0.04938271604938272,11.851851851851853,0)" xlink:href="#aQ"/><use transform="matrix(0.04938271604938272,0,0,0.04938271604938272,17.728395061728396,0)" xlink:href="#aL"/><use transform="matrix(0.04938271604938272,0,0,0.04938271604938272,27.60493827160494,0)" xlink:href="#aT"/><use transform="matrix(0.04938271604938272,0,0,0.04938271604938272,37.48148148148148,0)" xlink:href="#aP"/><use transform="matrix(0.04938271604938272,0,0,0.04938271604938272,47.358024691358025,0)" xlink:href="#aQ"/><use transform="matrix(0.04938271604938272,0,0,0.04938271604938272,53.23456790123457,0)" xlink:href="#aU"/><use transform="matrix(0.04938271604938272,0,0,0.04938271604938272,58.17283950617284,0)" xlink:href="#aV"/></g><path fill="#333" d="M106-169C34-169 62-67 57 0H25v-261h32l-1 103c12-21 28-36 61-36 89 0 53 116 60 194h-32v-121c2-32-8-49-39-48" id="aW"/><path fill="#333" d="M63-220v92h138v28H63V0H30v-248h175v28H63" id="aX"/><path fill="#333" d="M84 4C-5 8 30-112 23-190h32v120c0 31 7 50 39 49 72-2 45-101 50-169h31l1 190h-30c-1-10 1-25-2-33-11 22-28 36-60 37" id="aY"/><g id="o"><use transform="matrix(0.04938271604938272,0,0,0.04938271604938272,0,0)" xlink:href="#aW"/><use transform="matrix(0.04938271604938272,0,0,0.04938271604938272,9.876543209876544,0)" xlink:href="#aM"/><use transform="matrix(0.04938271604938272,0,0,0.04938271604938272,19.75308641975309,0)" xlink:href="#aK"/><use transform="matrix(0.04938271604938272,0,0,0.04938271604938272,28.641975308641978,0)" xlink:href="#aX"/><use transform="matrix(0.04938271604938272,0,0,0.04938271604938272,39.45679012345679,0)" xlink:href="#aP"/><use transform="matrix(0.04938271604938272,0,0,0.04938271604938272,49.333333333333336,0)" xlink:href="#aM"/><use transform="matrix(0.04938271604938272,0,0,0.04938271604938272,59.20987654320988,0)" xlink:href="#aU"/><use transform="matrix(0.04938271604938272,0,0,0.04938271604938272,64.14814814814815,0)" xlink:href="#aY"/><use transform="matrix(0.04938271604938272,0,0,0.04938271604938272,74.0246913580247,0)" xlink:href="#aQ"/><use transform="matrix(0.04938271604938272,0,0,0.04938271604938272,79.90123456790124,0)" xlink:href="#aP"/></g><path fill="#333" d="M140-251c81 0 123 46 123 126C263-46 219 4 140 4 59 4 17-45 17-125s42-126 123-126zm0 227c63 0 89-41 89-101s-29-99-89-99c-61 0-89 39-89 99S79-25 140-24" id="aZ"/><path fill="#333" d="M101-234c-31-9-42 10-38 44h38v23H63V0H32v-167H5v-23h27c-7-52 17-82 69-68v24" id="ba"/><path fill="#333" d="M33 0v-248h34V0H33" id="bb"/><path fill="#333" d="M117-194c89-4 53 116 60 194h-32v-121c0-31-8-49-39-48C34-167 62-67 57 0H25l-1-190h30c1 10-1 24 2 32 11-22 29-35 61-36" id="bc"/><g id="p"><use transform="matrix(0.04938271604938272,0,0,0.04938271604938272,0,0)" xlink:href="#aZ"/><use transform="matrix(0.04938271604938272,0,0,0.04938271604938272,13.827160493827162,0)" xlink:href="#ba"/><use transform="matrix(0.04938271604938272,0,0,0.04938271604938272,18.765432098765434,0)" xlink:href="#bb"/><use transform="matrix(0.04938271604938272,0,0,0.04938271604938272,23.703703703703706,0)" xlink:href="#bc"/><use transform="matrix(0.04938271604938272,0,0,0.04938271604938272,33.580246913580254,0)" xlink:href="#aU"/><use transform="matrix(0.04938271604938272,0,0,0.04938271604938272,38.518518518518526,0)" xlink:href="#aP"/><use transform="matrix(0.04938271604938272,0,0,0.04938271604938272,48.39506172839507,0)" xlink:href="#aQ"/><use transform="matrix(0.04938271604938272,0,0,0.04938271604938272,54.27160493827161,0)" xlink:href="#aP"/><use transform="matrix(0.04938271604938272,0,0,0.04938271604938272,64.14814814814815,0)" xlink:href="#aK"/><use transform="matrix(0.04938271604938272,0,0,0.04938271604938272,73.03703703703704,0)" xlink:href="#aU"/></g><path fill="#333" d="M233-177c-1 41-23 64-60 70L243 0h-38l-65-103H63V0H30v-248c88 3 205-21 203 71zM63-129c60-2 137 13 137-47 0-61-80-42-137-45v92" id="bd"/><path fill="#333" d="M24 0v-261h32V0H24" id="be"/><g id="q"><use transform="matrix(0.04938271604938272,0,0,0.04938271604938272,0,0)" xlink:href="#aK"/><use transform="matrix(0.04938271604938272,0,0,0.04938271604938272,8.88888888888889,0)" xlink:href="#aL"/><use transform="matrix(0.04938271604938272,0,0,0.04938271604938272,18.765432098765434,0)" xlink:href="#aK"/><use transform="matrix(0.04938271604938272,0,0,0.04938271604938272,27.654320987654323,0)" xlink:href="#aM"/><use transform="matrix(0.04938271604938272,0,0,0.04938271604938272,37.53086419753087,0)" xlink:href="#aN"/><use transform="matrix(0.04938271604938272,0,0,0.04938271604938272,42.46913580246914,0)" xlink:href="#aW"/><use transform="matrix(0.04938271604938272,0,0,0.04938271604938272,52.345679012345684,0)" xlink:href="#aM"/><use transform="matrix(0.04938271604938272,0,0,0.04938271604938272,62.22222222222223,0)" xlink:href="#aK"/><use transform="matrix(0.04938271604938272,0,0,0.04938271604938272,71.11111111111111,0)" xlink:href="#bd"/><use transform="matrix(0.04938271604938272,0,0,0.04938271604938272,83.90123456790124,0)" xlink:href="#aP"/><use transform="matrix(0.04938271604938272,0,0,0.04938271604938272,93.77777777777779,0)" xlink:href="#aK"/><use transform="matrix(0.04938271604938272,0,0,0.04938271604938272,102.66666666666667,0)" xlink:href="#aY"/><use transform="matrix(0.04938271604938272,0,0,0.04938271604938272,112.54320987654322,0)" xlink:href="#be"/><use transform="matrix(0.04938271604938272,0,0,0.04938271604938272,116.44444444444446,0)" xlink:href="#aU"/></g><path fill="#333" d="M85-194c31 0 48 13 60 33l-1-100h32l1 261h-30c-2-10 0-23-3-31C134-8 116 4 85 4 32 4 16-35 15-94c0-66 23-100 70-100zm9 24c-40 0-46 34-46 75 0 40 6 74 45 74 42 0 51-32 51-76 0-42-9-74-50-73" id="bf"/><path fill="#333" d="M96-169c-40 0-48 33-48 73s9 75 48 75c24 0 41-14 43-38l32 2c-6 37-31 61-74 61-59 0-76-41-82-99-10-93 101-131 147-64 4 7 5 14 7 22l-32 3c-4-21-16-35-41-35" id="bg"/><g id="r"><use transform="matrix(0.04938271604938272,0,0,0.04938271604938272,0,0)" xlink:href="#aK"/><use transform="matrix(0.04938271604938272,0,0,0.04938271604938272,8.88888888888889,0)" xlink:href="#aL"/><use transform="matrix(0.04938271604938272,0,0,0.04938271604938272,18.765432098765434,0)" xlink:href="#aK"/><use transform="matrix(0.04938271604938272,0,0,0.04938271604938272,27.654320987654323,0)" xlink:href="#aM"/><use transform="matrix(0.04938271604938272,0,0,0.04938271604938272,37.53086419753087,0)" xlink:href="#aN"/><use transform="matrix(0.04938271604938272,0,0,0.04938271604938272,42.46913580246914,0)" xlink:href="#aY"/><use transform="matrix(0.04938271604938272,0,0,0.04938271604938272,52.345679012345684,0)" xlink:href="#aK"/><use transform="matrix(0.04938271604938272,0,0,0.04938271604938272,61.23456790123457,0)" xlink:href="#aP"/><use transform="matrix(0.04938271604938272,0,0,0.04938271604938272,71.11111111111111,0)" xlink:href="#bf"/><use transform="matrix(0.04938271604938272,0,0,0.04938271604938272,80.98765432098766,0)" xlink:href="#aS"/><use transform="matrix(0.04938271604938272,0,0,0.04938271604938272,92.8395061728395,0)" xlink:href="#aQ"/><use transform="matrix(0.04938271604938272,0,0,0.04938271604938272,98.71604938271605,0)" xlink:href="#aL"/><use transform="matrix(0.04938271604938272,0,0,0.04938271604938272,108.5925925925926,0)" xlink:href="#bg"/><use transform="matrix(0.04938271604938272,0,0,0.04938271604938272,117.4814814814815,0)" xlink:href="#aP"/><use transform="matrix(0.04938271604938272,0,0,0.04938271604938272,127.35802469135804,0)" xlink:href="#bf"/><use transform="matrix(0.04938271604938272,0,0,0.04938271604938272,137.23456790123458,0)" xlink:href="#aY"/><use transform="matrix(0.04938271604938272,0,0,0.04938271604938272,147.11111111111114,0)" xlink:href="#aQ"/><use transform="matrix(0.04938271604938272,0,0,0.04938271604938272,152.98765432098767,0)" xlink:href="#aP"/></g><path fill="#333" d="M145-31C134-9 116 4 85 4 32 4 16-35 15-94c0-59 17-99 70-100 32-1 48 14 60 33 0-11-1-24 2-32h30l-1 268h-32zM93-21c41 0 51-33 51-76s-8-73-50-73c-40 0-46 35-46 75s5 74 45 74" id="bh"/><path fill="#333" d="M24-231v-30h32v30H24zM24 0v-190h32V0H24" id="bi"/><g id="s"><use transform="matrix(0.04938271604938272,0,0,0.04938271604938272,0,0)" xlink:href="#bh"/><use transform="matrix(0.04938271604938272,0,0,0.04938271604938272,9.876543209876544,0)" xlink:href="#aY"/><use transform="matrix(0.04938271604938272,0,0,0.04938271604938272,19.75308641975309,0)" xlink:href="#bf"/><use transform="matrix(0.04938271604938272,0,0,0.04938271604938272,29.629629629629633,0)" xlink:href="#aU"/><use transform="matrix(0.04938271604938272,0,0,0.04938271604938272,34.567901234567906,0)" xlink:href="#aN"/><use transform="matrix(0.04938271604938272,0,0,0.04938271604938272,39.50617283950618,0)" xlink:href="#aY"/><use transform="matrix(0.04938271604938272,0,0,0.04938271604938272,49.38271604938272,0)" xlink:href="#bc"/><use transform="matrix(0.04938271604938272,0,0,0.04938271604938272,59.25925925925927,0)" xlink:href="#bi"/><use transform="matrix(0.04938271604938272,0,0,0.04938271604938272,63.1604938271605,0)" xlink:href="#aU"/></g><g id="t"><use transform="matrix(0.04938271604938272,0,0,0.04938271604938272,0,0)" xlink:href="#aQ"/><use transform="matrix(0.04938271604938272,0,0,0.04938271604938272,5.8765432098765435,0)" xlink:href="#bf"/><use transform="matrix(0.04938271604938272,0,0,0.04938271604938272,15.753086419753087,0)" xlink:href="#ba"/><use transform="matrix(0.04938271604938272,0,0,0.04938271604938272,20.69135802469136,0)" xlink:href="#aN"/><use transform="matrix(0.04938271604938272,0,0,0.04938271604938272,25.629629629629633,0)" xlink:href="#aR"/><use transform="matrix(0.04938271604938272,0,0,0.04938271604938272,34.51851851851852,0)" xlink:href="#aM"/><use transform="matrix(0.04938271604938272,0,0,0.04938271604938272,44.39506172839506,0)" xlink:href="#be"/><use transform="matrix(0.04938271604938272,0,0,0.04938271604938272,48.2962962962963,0)" xlink:href="#aY"/><use transform="matrix(0.04938271604938272,0,0,0.04938271604938272,58.17283950617284,0)" xlink:href="#aP"/></g><path d="M114-163C36-179 61-72 57 0H25l-1-190h30c1 12-1 29 2 39 6-27 23-49 58-41v29" id="bj"/><path d="M101-234c-31-9-42 10-38 44h38v23H63V0H32v-167H5v-23h27c-7-52 17-82 69-68v24" id="bk"/><path d="M135-143c-3-34-86-38-87 0 15 53 115 12 119 90S17 21 10-45l28-5c4 36 97 45 98 0-10-56-113-15-118-90-4-57 82-63 122-42 12 7 21 19 24 35" id="bl"/><g id="u"><use transform="matrix(0.05,0,0,0.05,0,0)" xlink:href="#bj"/><use transform="matrix(0.05,0,0,0.05,5.95,0)" xlink:href="#aE"/><use transform="matrix(0.05,0,0,0.05,15.949999999999998,0)" xlink:href="#bk"/><use transform="matrix(0.05,0,0,0.05,20.95,0)" xlink:href="#bl"/><use transform="matrix(0.05,0,0,0.05,29.950000000000003,0)" xlink:href="#aG"/></g><path d="M233-177c-1 41-23 64-60 70L243 0h-38l-65-103H63V0H30v-248c88 3 205-21 203 71zM63-129c60-2 137 13 137-47 0-61-80-42-137-45v92" id="bm"/><path d="M100-194c63 0 86 42 84 106H49c0 40 14 67 53 68 26 1 43-12 49-29l28 8c-11 28-37 45-77 45C44 4 14-33 15-96c1-61 26-98 85-98zm52 81c6-60-76-77-97-28-3 7-6 17-6 28h103" id="bn"/><path d="M100-194c62-1 85 37 85 99 1 63-27 99-86 99S16-35 15-95c0-66 28-99 85-99zM99-20c44 1 53-31 53-75 0-43-8-75-51-75s-53 32-53 75 10 74 51 75" id="bo"/><path d="M96-169c-40 0-48 33-48 73s9 75 48 75c24 0 41-14 43-38l32 2c-6 37-31 61-74 61-59 0-76-41-82-99-10-93 101-131 147-64 4 7 5 14 7 22l-32 3c-4-21-16-35-41-35" id="bp"/><g id="v"><use transform="matrix(0.05,0,0,0.05,0,0)" xlink:href="#bm"/><use transform="matrix(0.05,0,0,0.05,12.950000000000001,0)" xlink:href="#bn"/><use transform="matrix(0.05,0,0,0.05,22.950000000000003,0)" xlink:href="#bl"/><use transform="matrix(0.05,0,0,0.05,31.950000000000003,0)" xlink:href="#bo"/><use transform="matrix(0.05,0,0,0.05,41.95,0)" xlink:href="#aD"/><use transform="matrix(0.05,0,0,0.05,51.95,0)" xlink:href="#bj"/><use transform="matrix(0.05,0,0,0.05,57.900000000000006,0)" xlink:href="#bp"/><use transform="matrix(0.05,0,0,0.05,66.9,0)" xlink:href="#bn"/></g><path fill="#fff" d="M212-179c-10-28-35-45-73-45-59 0-87 40-87 99 0 60 29 101 89 101 43 0 62-24 78-52l27 14C228-24 195 4 139 4 59 4 22-46 18-125c-6-104 99-153 187-111 19 9 31 26 39 46" id="bq"/><g id="w"><use transform="matrix(0.05,0,0,0.05,0,0)" xlink:href="#bq"/><use transform="matrix(0.05,0,0,0.05,12.950000000000001,0)" xlink:href="#ag"/><use transform="matrix(0.05,0,0,0.05,22.950000000000003,0)" xlink:href="#ak"/><use transform="matrix(0.05,0,0,0.05,28.900000000000002,0)" xlink:href="#am"/></g><path fill="#fff" d="M185-189c-5-48-123-54-124 2 14 75 158 14 163 119 3 78-121 87-175 55-17-10-28-26-33-46l33-7c5 56 141 63 141-1 0-78-155-14-162-118-5-82 145-84 179-34 5 7 8 16 11 25" id="br"/><path fill="#fff" d="M205 0l-28-72H64L36 0H1l101-248h38L239 0h-34zm-38-99l-47-123c-12 45-31 82-46 123h93" id="bs"/><g id="x"><use transform="matrix(0.05,0,0,0.05,0,0)" xlink:href="#br"/><use transform="matrix(0.05,0,0,0.05,12,0)" xlink:href="#ap"/><use transform="matrix(0.05,0,0,0.05,26,0)" xlink:href="#br"/><use transform="matrix(0.05,0,0,0.05,38,0)" xlink:href="#bs"/></g><g id="y"><use transform="matrix(0.05,0,0,0.05,0,0)" xlink:href="#bq"/><use transform="matrix(0.05,0,0,0.05,12.950000000000001,0)" xlink:href="#as"/><use transform="matrix(0.05,0,0,0.05,16.900000000000002,0)" xlink:href="#ah"/><use transform="matrix(0.05,0,0,0.05,26.900000000000002,0)" xlink:href="#af"/><use transform="matrix(0.05,0,0,0.05,35.900000000000006,0)" xlink:href="#af"/></g><path d="M212-179c-10-28-35-45-73-45-59 0-87 40-87 99 0 60 29 101 89 101 43 0 62-24 78-52l27 14C228-24 195 4 139 4 59 4 22-46 18-125c-6-104 99-153 187-111 19 9 31 26 39 46" id="bt"/><path d="M24 0v-261h32V0H24" id="bu"/><path d="M141-36C126-15 110 5 73 4 37 3 15-17 15-53c-1-64 63-63 125-63 3-35-9-54-41-54-24 1-41 7-42 31l-33-3c5-37 33-52 76-52 45 0 72 20 72 64v82c-1 20 7 32 28 27v20c-31 9-61-2-59-35zM48-53c0 20 12 33 32 33 41-3 63-29 60-74-43 2-92-5-92 41" id="bv"/><g id="z"><use transform="matrix(0.05,0,0,0.05,0,0)" xlink:href="#bt"/><use transform="matrix(0.05,0,0,0.05,12.950000000000001,0)" xlink:href="#bu"/><use transform="matrix(0.05,0,0,0.05,16.900000000000002,0)" xlink:href="#bv"/><use transform="matrix(0.05,0,0,0.05,26.900000000000002,0)" xlink:href="#bl"/><use transform="matrix(0.05,0,0,0.05,35.900000000000006,0)" xlink:href="#bl"/></g><path d="M210-169c-67 3-38 105-44 169h-31v-121c0-29-5-50-35-48C34-165 62-65 56 0H25l-1-190h30c1 10-1 24 2 32 10-44 99-50 107 0 11-21 27-35 58-36 85-2 47 119 55 194h-31v-121c0-29-5-49-35-48" id="bw"/><g id="A"><use transform="matrix(0.05,0,0,0.05,0,0)" xlink:href="#bk"/><use transform="matrix(0.05,0,0,0.05,5,0)" xlink:href="#bj"/><use transform="matrix(0.05,0,0,0.05,10.95,0)" xlink:href="#bo"/><use transform="matrix(0.05,0,0,0.05,20.95,0)" xlink:href="#bw"/></g><path d="M106-169C34-169 62-67 57 0H25v-261h32l-1 103c12-21 28-36 61-36 89 0 53 116 60 194h-32v-121c2-32-8-49-39-48" id="bx"/><g id="B"><use transform="matrix(0.05,0,0,0.05,0,0)" xlink:href="#bv"/><use transform="matrix(0.05,0,0,0.05,10,0)" xlink:href="#aI"/><use transform="matrix(0.05,0,0,0.05,20,0)" xlink:href="#bo"/><use transform="matrix(0.05,0,0,0.05,30,0)" xlink:href="#aF"/><use transform="matrix(0.05,0,0,0.05,35,0)" xlink:href="#bx"/><use transform="matrix(0.05,0,0,0.05,45,0)" xlink:href="#bn"/><use transform="matrix(0.05,0,0,0.05,55,0)" xlink:href="#bj"/></g><g id="C"><use transform="matrix(0.05,0,0,0.05,0,0)" xlink:href="#bw"/><use transform="matrix(0.05,0,0,0.05,14.950000000000001,0)" xlink:href="#bo"/><use transform="matrix(0.05,0,0,0.05,24.950000000000003,0)" xlink:href="#aE"/><use transform="matrix(0.05,0,0,0.05,34.95,0)" xlink:href="#bn"/><use transform="matrix(0.05,0,0,0.05,44.95,0)" xlink:href="#bu"/></g><path fill="#3a414a" d="M195 0l-88-114-31 24V0H24v-248h52v113l112-113h60L142-143 257 0h-62" id="by"/><path fill="#3a414a" d="M185-48c-13 30-37 53-82 52C43 2 14-33 14-96s30-98 90-98c62 0 83 45 84 108H66c0 31 8 55 39 56 18 0 30-7 34-22zm-45-69c5-46-57-63-70-21-2 6-4 13-4 21h74" id="bz"/><path fill="#3a414a" d="M123 10C108 53 80 86 19 72V37c35 8 53-11 59-39L3-190h52l48 148c12-52 28-100 44-148h51" id="bA"/><g id="D"><use transform="matrix(0.06172839506172839,0,0,0.06172839506172839,0,0)" xlink:href="#by"/><use transform="matrix(0.06172839506172839,0,0,0.06172839506172839,15.987654320987653,0)" xlink:href="#bz"/><use transform="matrix(0.06172839506172839,0,0,0.06172839506172839,28.333333333333332,0)" xlink:href="#bA"/><path fill="#3a414a" d="M-1.1 1.2h42.9V3.5H-1.1z"/></g><g id="E"><use transform="matrix(0.04938271604938272,0,0,0.04938271604938272,0,0)" xlink:href="#aK"/><use transform="matrix(0.04938271604938272,0,0,0.04938271604938272,8.88888888888889,0)" xlink:href="#aY"/><use transform="matrix(0.04938271604938272,0,0,0.04938271604938272,18.765432098765434,0)" xlink:href="#aO"/></g><g id="F"><use transform="matrix(0.04938271604938272,0,0,0.04938271604938272,0,0)" xlink:href="#bg"/><use transform="matrix(0.04938271604938272,0,0,0.04938271604938272,8.88888888888889,0)" xlink:href="#be"/><use transform="matrix(0.04938271604938272,0,0,0.04938271604938272,12.790123456790125,0)" xlink:href="#aM"/><use transform="matrix(0.04938271604938272,0,0,0.04938271604938272,22.666666666666668,0)" xlink:href="#aK"/><use transform="matrix(0.04938271604938272,0,0,0.04938271604938272,31.555555555555557,0)" xlink:href="#aK"/></g><g id="G"><use transform="matrix(0.04938271604938272,0,0,0.04938271604938272,0,0)" xlink:href="#aL"/><use transform="matrix(0.04938271604938272,0,0,0.04938271604938272,9.876543209876544,0)" xlink:href="#ba"/></g><path d="M140-251c81 0 123 46 123 126C263-46 219 4 140 4 59 4 17-45 17-125s42-126 123-126zm0 227c63 0 89-41 89-101s-29-99-89-99c-61 0-89 39-89 99S79-25 140-24" id="bB"/><g id="H"><use transform="matrix(0.05,0,0,0.05,0,0)" xlink:href="#bB"/><use transform="matrix(0.05,0,0,0.05,14,0)" xlink:href="#bp"/><use transform="matrix(0.05,0,0,0.05,23,0)" xlink:href="#bp"/><use transform="matrix(0.05,0,0,0.05,32,0)" xlink:href="#aD"/><use transform="matrix(0.05,0,0,0.05,42,0)" xlink:href="#bj"/><use transform="matrix(0.05,0,0,0.05,47.95,0)" xlink:href="#bn"/><use transform="matrix(0.05,0,0,0.05,57.95,0)" xlink:href="#aI"/><use transform="matrix(0.05,0,0,0.05,67.95,0)" xlink:href="#bp"/><use transform="matrix(0.05,0,0,0.05,76.95,0)" xlink:href="#bn"/></g><g id="I"><use transform="matrix(0.05,0,0,0.05,0,0)" xlink:href="#bo"/><use transform="matrix(0.05,0,0,0.05,10,0)" xlink:href="#bk"/></g><path d="M143 4C61 4 22-44 18-125c-5-107 100-154 193-111 17 8 29 25 37 43l-32 9c-13-25-37-40-76-40-61 0-88 39-88 99 0 61 29 100 91 101 35 0 62-11 79-27v-45h-74v-28h105v86C228-13 192 4 143 4" id="bC"/><g id="J"><use transform="matrix(0.05,0,0,0.05,0,0)" xlink:href="#bC"/><use transform="matrix(0.05,0,0,0.05,14,0)" xlink:href="#bo"/><use transform="matrix(0.05,0,0,0.05,24,0)" xlink:href="#bu"/><use transform="matrix(0.05,0,0,0.05,27.950000000000003,0)" xlink:href="#aE"/></g><g id="K"><use transform="matrix(0.05,0,0,0.05,0,0)" xlink:href="#aJ"/><use transform="matrix(0.05,0,0,0.05,3.95,0)" xlink:href="#aI"/></g><use transform="matrix(0.05,0,0,0.05,0,0)" xlink:href="#bv" id="L"/><path d="M141 0L90-78 38 0H4l68-98-65-92h35l48 74 47-74h35l-64 92 68 98h-35" id="bD"/><g id="M"><use transform="matrix(0.05,0,0,0.05,0,0)" xlink:href="#bw"/><use transform="matrix(0.05,0,0,0.05,14.950000000000001,0)" xlink:href="#bv"/><use transform="matrix(0.05,0,0,0.05,24.950000000000003,0)" xlink:href="#aF"/><use transform="matrix(0.05,0,0,0.05,29.950000000000003,0)" xlink:href="#bj"/><use transform="matrix(0.05,0,0,0.05,35.900000000000006,0)" xlink:href="#aJ"/><use transform="matrix(0.05,0,0,0.05,39.85000000000001,0)" xlink:href="#bD"/></g><path d="M33 0v-248h34V0H33" id="bE"/><g id="N"><use transform="matrix(0.05,0,0,0.05,0,0)" xlink:href="#bE"/><use transform="matrix(0.05,0,0,0.05,5,0)" xlink:href="#aI"/><use transform="matrix(0.05,0,0,0.05,15,0)" xlink:href="#bl"/><use transform="matrix(0.05,0,0,0.05,24,0)" xlink:href="#aF"/><use transform="matrix(0.05,0,0,0.05,29,0)" xlink:href="#bv"/><use transform="matrix(0.05,0,0,0.05,39,0)" xlink:href="#aI"/><use transform="matrix(0.05,0,0,0.05,49,0)" xlink:href="#bp"/><use transform="matrix(0.05,0,0,0.05,58,0)" xlink:href="#bn"/></g><g id="O"><use transform="matrix(0.05,0,0,0.05,0,0)" xlink:href="#bo"/><use transform="matrix(0.05,0,0,0.05,10,0)" xlink:href="#bk"/></g><use transform="matrix(0.05,0,0,0.05,0,0)" xlink:href="#bv" id="P"/><g id="Q"><use transform="matrix(0.05,0,0,0.05,0,0)" xlink:href="#bt"/><use transform="matrix(0.05,0,0,0.05,12.950000000000001,0)" xlink:href="#bu"/><use transform="matrix(0.05,0,0,0.05,16.900000000000002,0)" xlink:href="#bv"/><use transform="matrix(0.05,0,0,0.05,26.900000000000002,0)" xlink:href="#bl"/><use transform="matrix(0.05,0,0,0.05,35.900000000000006,0)" xlink:href="#bl"/></g><g id="R"><use transform="matrix(0.04938271604938272,0,0,0.04938271604938272,0,0)" xlink:href="#bi"/><use transform="matrix(0.04938271604938272,0,0,0.04938271604938272,3.901234567901235,0)" xlink:href="#aK"/></g><g id="S"><use transform="matrix(0.04938271604938272,0,0,0.04938271604938272,0,0)" xlink:href="#bi"/><use transform="matrix(0.04938271604938272,0,0,0.04938271604938272,3.901234567901235,0)" xlink:href="#bc"/><use transform="matrix(0.04938271604938272,0,0,0.04938271604938272,13.777777777777779,0)" xlink:href="#aK"/><use transform="matrix(0.04938271604938272,0,0,0.04938271604938272,22.666666666666668,0)" xlink:href="#aU"/><use transform="matrix(0.04938271604938272,0,0,0.04938271604938272,27.60493827160494,0)" xlink:href="#aM"/><use transform="matrix(0.04938271604938272,0,0,0.04938271604938272,37.48148148148148,0)" xlink:href="#bc"/><use transform="matrix(0.04938271604938272,0,0,0.04938271604938272,47.358024691358025,0)" xlink:href="#bg"/><use transform="matrix(0.04938271604938272,0,0,0.04938271604938272,56.246913580246904,0)" xlink:href="#aP"/></g><path d="M185-189c-5-48-123-54-124 2 14 75 158 14 163 119 3 78-121 87-175 55-17-10-28-26-33-46l33-7c5 56 141 63 141-1 0-78-155-14-162-118-5-82 145-84 179-34 5 7 8 16 11 25" id="bF"/><path d="M115-194c55 1 70 41 70 98S169 2 115 4C84 4 66-9 55-30l1 105H24l-1-265h31l2 30c10-21 28-34 59-34zm-8 174c40 0 45-34 45-75s-6-73-45-74c-42 0-51 32-51 76 0 43 10 73 51 73" id="bG"/><g id="T"><use transform="matrix(0.05,0,0,0.05,0,0)" xlink:href="#bF"/><use transform="matrix(0.05,0,0,0.05,12,0)" xlink:href="#bv"/><use transform="matrix(0.05,0,0,0.05,22,0)" xlink:href="#bw"/><use transform="matrix(0.05,0,0,0.05,36.95,0)" xlink:href="#bG"/><use transform="matrix(0.05,0,0,0.05,46.95,0)" xlink:href="#bu"/><use transform="matrix(0.05,0,0,0.05,50.900000000000006,0)" xlink:href="#bn"/></g><path d="M195 0l-74-108L45 0H8l94-129-87-119h37l69 98 67-98h37l-84 118L233 0h-38" id="bH"/><use transform="matrix(0.05,0,0,0.05,0,0)" xlink:href="#bH" id="U"/><path d="M27 0v-27h64v-190l-56 39v-29l58-41h29v221h61V0H27" id="bI"/><path d="M101-251c82-7 93 87 43 132L82-64C71-53 59-42 53-27h129V0H18c2-99 128-94 128-182 0-28-16-43-45-43s-46 15-49 41l-32-3c6-41 34-60 81-64" id="bJ"/><path d="M155-56V0h-30v-56H8v-25l114-167h33v167h35v25h-35zm-30-156c-27 46-58 90-88 131h88v-131" id="bK"/><g id="V"><use transform="matrix(0.05,0,0,0.05,0,0)" xlink:href="#bI"/><use transform="matrix(0.05,0,0,0.05,10,0)" xlink:href="#bJ"/><use transform="matrix(0.05,0,0,0.05,20,0)" xlink:href="#bK"/></g><path d="M30 0v-248h33v221h125V0H30" id="bL"/><g id="W"><use transform="matrix(0.05,0,0,0.05,0,0)" xlink:href="#bL"/><use transform="matrix(0.05,0,0,0.05,10,0)" xlink:href="#aJ"/><use transform="matrix(0.05,0,0,0.05,13.949999999999998,0)" xlink:href="#aF"/><use transform="matrix(0.05,0,0,0.05,18.95,0)" xlink:href="#bn"/><use transform="matrix(0.05,0,0,0.05,28.950000000000003,0)" xlink:href="#bj"/><use transform="matrix(0.05,0,0,0.05,34.9,0)" xlink:href="#bv"/><use transform="matrix(0.05,0,0,0.05,44.9,0)" xlink:href="#bu"/></g><g id="X"><use transform="matrix(0.05,0,0,0.05,0,0)" xlink:href="#aD"/><use transform="matrix(0.05,0,0,0.05,10,0)" xlink:href="#aI"/><use transform="matrix(0.05,0,0,0.05,20,0)" xlink:href="#aJ"/><use transform="matrix(0.05,0,0,0.05,23.95,0)" xlink:href="#aF"/><use transform="matrix(0.05,0,0,0.05,28.950000000000003,0)" xlink:href="#aG"/></g><path d="M30-248c87 1 191-15 191 75 0 78-77 80-158 76V0H30v-248zm33 125c57 0 124 11 124-50 0-59-68-47-124-48v98" id="bM"/><path d="M240 0l2-218c-23 76-54 145-80 218h-23L58-218 59 0H30v-248h44l77 211c21-75 51-140 76-211h43V0h-30" id="bN"/><g id="Y"><use transform="matrix(0.05,0,0,0.05,0,0)" xlink:href="#bM"/><use transform="matrix(0.05,0,0,0.05,12,0)" xlink:href="#bv"/><use transform="matrix(0.05,0,0,0.05,22,0)" xlink:href="#bj"/><use transform="matrix(0.05,0,0,0.05,27.950000000000003,0)" xlink:href="#aF"/><use transform="matrix(0.05,0,0,0.05,32.95,0)" xlink:href="#bl"/><use transform="matrix(0.05,0,0,0.05,41.95,0)" xlink:href="#bM"/><use transform="matrix(0.05,0,0,0.05,53.95,0)" xlink:href="#bn"/><use transform="matrix(0.05,0,0,0.05,63.95,0)" xlink:href="#bj"/><use transform="matrix(0.05,0,0,0.05,69.9,0)" xlink:href="#bN"/><use transform="matrix(0.05,0,0,0.05,84.85000000000001,0)" xlink:href="#aJ"/><use transform="matrix(0.05,0,0,0.05,88.80000000000001,0)" xlink:href="#bu"/><use transform="matrix(0.05,0,0,0.05,92.75000000000001,0)" xlink:href="#bu"/><use transform="matrix(0.05,0,0,0.05,96.70000000000002,0)" xlink:href="#aJ"/><use transform="matrix(0.05,0,0,0.05,100.65000000000002,0)" xlink:href="#bo"/><use transform="matrix(0.05,0,0,0.05,110.65000000000003,0)" xlink:href="#aI"/></g><path d="M115-194c53 0 69 39 70 98 0 66-23 100-70 100C84 3 66-7 56-30L54 0H23l1-261h32v101c10-23 28-34 59-34zm-8 174c40 0 45-34 45-75 0-40-5-75-45-74-42 0-51 32-51 76 0 43 10 73 51 73" id="bO"/><path d="M108 0H70L1-190h34L89-25l56-165h34" id="bP"/><g id="Z"><use transform="matrix(0.05,0,0,0.05,0,0)" xlink:href="#bB"/><use transform="matrix(0.05,0,0,0.05,14,0)" xlink:href="#bO"/><use transform="matrix(0.05,0,0,0.05,24,0)" xlink:href="#bl"/><use transform="matrix(0.05,0,0,0.05,33,0)" xlink:href="#bn"/><use transform="matrix(0.05,0,0,0.05,43,0)" xlink:href="#bj"/><use transform="matrix(0.05,0,0,0.05,48.95,0)" xlink:href="#bP"/><use transform="matrix(0.05,0,0,0.05,57.95,0)" xlink:href="#bv"/><use transform="matrix(0.05,0,0,0.05,67.95,0)" xlink:href="#aF"/><use transform="matrix(0.05,0,0,0.05,72.95,0)" xlink:href="#aJ"/><use transform="matrix(0.05,0,0,0.05,76.9,0)" xlink:href="#bo"/><use transform="matrix(0.05,0,0,0.05,86.9,0)" xlink:href="#aI"/></g><path d="M137-103V0h-34v-103L8-248h37l75 118 75-118h37" id="bQ"/><use transform="matrix(0.05,0,0,0.05,0,0)" xlink:href="#bQ" id="aa"/><g id="ab"><use transform="matrix(0.05,0,0,0.05,0,0)" xlink:href="#bm"/><use transform="matrix(0.05,0,0,0.05,12.950000000000001,0)" xlink:href="#bn"/><use transform="matrix(0.05,0,0,0.05,22.950000000000003,0)" xlink:href="#bl"/><use transform="matrix(0.05,0,0,0.05,31.950000000000003,0)" xlink:href="#aD"/><use transform="matrix(0.05,0,0,0.05,41.95,0)" xlink:href="#bu"/><use transform="matrix(0.05,0,0,0.05,45.900000000000006,0)" xlink:href="#aF"/></g><use transform="matrix(0.05,0,0,0.05,0,0)" xlink:href="#bN" id="ac"/><g id="ad"><use transform="matrix(0.05,0,0,0.05,0,0)" xlink:href="#bM"/><use transform="matrix(0.05,0,0,0.05,12,0)" xlink:href="#bj"/><use transform="matrix(0.05,0,0,0.05,17.95,0)" xlink:href="#bo"/><use transform="matrix(0.05,0,0,0.05,27.950000000000003,0)" xlink:href="#bp"/><use transform="matrix(0.05,0,0,0.05,36.95,0)" xlink:href="#bn"/><use transform="matrix(0.05,0,0,0.05,46.95,0)" xlink:href="#aE"/><use transform="matrix(0.05,0,0,0.05,56.95,0)" xlink:href="#aD"/><use transform="matrix(0.05,0,0,0.05,66.95,0)" xlink:href="#bj"/><use transform="matrix(0.05,0,0,0.05,72.9,0)" xlink:href="#bn"/></g><path d="M209 0H11v-25l151-195H24v-28h176v25L50-27h159V0" id="bR"/><use transform="matrix(0.05,0,0,0.05,0,0)" xlink:href="#bR" id="ae"/></defs></g></svg>