<svg xmlns="http://www.w3.org/2000/svg" xmlns:xlink="http://www.w3.org/1999/xlink" xmlns:lucid="lucid" width="823.62" height="677.22"><g transform="translate(-66.03325445469105 -186.44362940183896)" lucid:page-tab-id="LAF5cCJLgZyP"><path d="M0 0h1000v1000H0z" fill="#fff"/><path d="M307 630.04a5 5 0 0 1 5-5h150a5 5 0 0 1 5 5v110a5 5 0 0 1-5 5H312a5 5 0 0 1-5-5z" stroke="#000" stroke-width="2" fill="#6f7681"/><use xlink:href="#a" transform="matrix(1,0,0,1,318.98598779433155,637.0429878982056) translate(46.5 41.4)"/><use xlink:href="#b" transform="matrix(1,0,0,1,318.98598779433155,637.0429878982056) translate(37.55 63)"/><path d="M307 220.78a5 5 0 0 1 5-5h150a5 5 0 0 1 5 5v110a5 5 0 0 1-5 5H312a5 5 0 0 1-5-5z" stroke="#000" stroke-width="2" fill="#ced4db"/><use xlink:href="#c" transform="matrix(1,0,0,1,318.98598779433155,227.77696273517228) translate(47 41.4)"/><use xlink:href="#d" transform="matrix(1,0,0,1,318.98598779433155,227.77696273517228) translate(34.525 63)"/><path d="M709.77 677.16a10.2 10.2 0 0 1 5.07-9.02l68.88-40.08a10.3 10.3 0 0 1 10.38 0l68.88 40.08a10.68 10.68 0 0 1 5.3 9.02l1.25 61.88a5.88 5.88 0 0 1-5.88 6h-146.5a6.12 6.12 0 0 1-6.13-6z" stroke="#3a414a" stroke-width="2" fill="#ced4db"/><use xlink:href="#e" transform="matrix(1,0,0,1,709.6526544609982,625.0429878982056) translate(59.01234567901234 51.611111111111114)"/><use xlink:href="#f" transform="matrix(1,0,0,1,709.6526544609982,625.0429878982056) translate(17.129629629629626 78.27777777777777)"/><path d="M574.02 685.54H468.5v-1H574zm134 0h-58.04v-1H708z" stroke="#3a414a" stroke-width=".05" fill="#3a414a"/><path d="M468.5 685.54h-.5v-1h.5z" fill="#3a414a"/><path d="M468.52 685.57h-.56v-1.05h.56zm-.5-1v.95h.45v-.95zM708.93 685.04L691 695.64l-.52-.85 16.5-9.76-16.5-9.75.5-.87z" stroke="#3a414a" stroke-width=".05" fill="#3a414a"/><use xlink:href="#g" transform="matrix(1,0,0,1,574.0246913580247,642.376321231539) translate(18.251913580246917 14.222222222222223)"/><use xlink:href="#h" transform="matrix(1,0,0,1,574.0246913580247,642.376321231539) translate(22.202530864197534 35.55555555555556)"/><use xlink:href="#i" transform="matrix(1,0,0,1,574.0246913580247,642.376321231539) translate(0.005000000000002558 56.88888888888889)"/><use xlink:href="#j" transform="matrix(1,0,0,1,574.0246913580247,642.376321231539) translate(28.622283950617287 78.22222222222223)"/><path d="M539.1 394.08a5 5 0 0 1 5-5h150a5 5 0 0 1 5 5v110a5 5 0 0 1-5 5h-150a5 5 0 0 1-5-5z" stroke="#000" stroke-width="2" fill="#ced4db"/><use xlink:href="#k" transform="matrix(1,0,0,1,551.112719404673,401.08119719587194) translate(48.025 41.4)"/><use xlink:href="#l" transform="matrix(1,0,0,1,551.112719404673,401.08119719587194) translate(27.575000000000003 63)"/><path d="M468.68 684.9l-.83-.55 47.16-70.3h1.2zm116.56-173.78l-26.1 38.92h-1.2l26.47-39.48z" stroke="#3a414a" stroke-width=".05" fill="#3a414a"/><path d="M468.7 684.9l-.7 1.04v-1.5z" fill="#3a414a"/><path d="M468.72 684.9l-.76 1.12v-1.64zm-.7.96l.63-.96-.64-.43zM584.15 530.9l-1-.06 1.1-19.13-17.3 8.27-.42-.9 18.8-9z" stroke="#3a414a" stroke-width=".05" fill="#3a414a"/><use xlink:href="#g" transform="matrix(1,0,0,1,497.1466934567583,550.0365974221432) translate(20.202530864197538 14.222222222222223)"/><use xlink:href="#m" transform="matrix(1,0,0,1,497.1466934567583,550.0365974221432) translate(6.918580246913585 35.55555555555556)"/><use xlink:href="#n" transform="matrix(1,0,0,1,497.1466934567583,550.0365974221432) translate(0.005000000000002558 56.88888888888889)"/><path d="M746.15 647.7l-.84.53-30.44-47.5h1.2zm-57.46-89.63h-1.2l-30.32-47.3.84-.54z" stroke="#3a414a" stroke-width=".05" fill="#3a414a"/><path d="M658.03 510.24l-.84.54-.46-.7h1.2z" fill="#3a414a"/><path d="M658.07 510.25l-.9.57-.48-.76h1.24zm-1.3-.14l.43.65.8-.5-.1-.14zM746.22 648.73l-18.62-9.38.45-.9 17.1 8.62-.68-19.14 1-.04z" stroke="#3a414a" stroke-width=".05" fill="#3a414a"/><use xlink:href="#g" transform="matrix(1,0,0,1,679.5541210248093,558.0700789641909) translate(2.4988271604938284 14.222222222222223)"/><use xlink:href="#o" transform="matrix(1,0,0,1,679.5541210248093,558.0700789641909) translate(0.004999999999999005 35.55555555555556)"/><path d="M538.1 392.44l-.62.8-3.6-2.8h1.63zm-57.57-44.67h-1.63l-13.78-10.7.62-.78z" stroke="#3a414a" stroke-width=".05" fill="#3a414a"/><path d="M538.3 392.6l-.12.54-.04.6-.67-.52.62-.8z" fill="#3a414a"/><path d="M538.34 392.6l-.13.55-.04.64-.72-.57.64-.83zm-.83.62l.62.47.04-.56.12-.52-.2-.15zM485.4 338.74l-.13 1-19-2.4 7.04 17.8-.92.37-7.67-19.37z" stroke="#3a414a" stroke-width=".05" fill="#3a414a"/><use xlink:href="#g" transform="matrix(1,0,0,1,474.1702691502377,347.7703955615276) translate(13.313641975308645 14.222222222222223)"/><use xlink:href="#p" transform="matrix(1,0,0,1,474.1702691502377,347.7703955615276) translate(0.005000000000002558 35.55555555555556)"/><path d="M95.3 249.83a5 5 0 0 1 5-5h150a5 5 0 0 1 5 5v110a5 5 0 0 1-5 5h-150a5 5 0 0 1-5-5z" stroke="#000" stroke-width="2" fill="#6f7681"/><use xlink:href="#q" transform="matrix(1,0,0,1,107.30007887864227,256.83391945426433) translate(21.549999999999997 41.4)"/><use xlink:href="#r" transform="matrix(1,0,0,1,107.30007887864227,256.83391945426433) translate(65.45 41.4)"/><use xlink:href="#s" transform="matrix(1,0,0,1,107.30007887864227,256.83391945426433) translate(45.55 63)"/><path d="M95.3 378.76a5 5 0 0 1 5-5h150a5 5 0 0 1 5 5v110a5 5 0 0 1-5 5h-150a5 5 0 0 1-5-5z" stroke="#000" stroke-width="2" fill="#ced4db"/><use xlink:href="#t" transform="matrix(1,0,0,1,107.30007887864227,385.7642407418237) translate(25.099999999999994 41.4)"/><use xlink:href="#u" transform="matrix(1,0,0,1,107.30007887864227,385.7642407418237) translate(75 41.4)"/><use xlink:href="#v" transform="matrix(1,0,0,1,107.30007887864227,385.7642407418237) translate(10.574999999999996 63)"/><use xlink:href="#w" transform="matrix(1,0,0,1,107.30007887864227,385.7642407418237) translate(76.525 63)"/><path d="M119.57 212.44a6 6 0 0 1 6-6h99.46a6 6 0 0 1 6 6v22a6 6 0 0 1-6 6h-99.46a6 6 0 0 1-6-6z" stroke="#000" stroke-opacity="0" fill="#fff" fill-opacity="0"/><use xlink:href="#x" transform="matrix(1,0,0,1,124.57365365860667,211.44362940183896) translate(30.165493827160496 19.34027777777778)"/><path d="M142.76 515.76H88.94v-1h53.82zm119.3 0h-54.22v-1h54.23z" stroke="#3a414a" stroke-width=".05" fill="#3a414a"/><path d="M262.57 515.76h-.52v-1h.52zM106.48 505.5L90 515.27l16.48 9.75-.5.87-17.95-10.6 17.95-10.62z" stroke="#3a414a" stroke-width=".05" fill="#3a414a"/><g><use xlink:href="#y" transform="matrix(1,0,0,1,142.75686900209902,504.59330617676034) translate(0.005000000000002558 14.222222222222223)"/></g><path d="M709.65 228.78a6 6 0 0 1 6-6h148a6 6 0 0 1 6 6v94a6 6 0 0 1-6 6h-148a6 6 0 0 1-6-6z" fill="#fff"/><path d="M725.52 222.78h9.87m4.92 0h9.87m4.92 0H765m4.92 0h9.87m4.92 0h9.87m4.92 0h9.87m4.92 0h9.87m4.92 0H839m4.92 0h9.87m4.92 0h4.93l.94.07.9.22.88.36.8.5.72.6.6.72.5.8.36.87.22.92.07.94V234m0 5.22v10.45m0 5.22v10.43m0 5.23V281m0 5.22v10.44m0 5.23v10.43m0 5.22v5.23l-.07.94-.22.9-.36.88-.5.8-.6.72-.72.6-.8.5-.87.36-.9.22-.95.08h-4.93m-4.93 0h-9.88m-4.93 0h-9.88m-4.93 0h-9.88m-4.93 0h-9.88m-4.93 0h-9.88m-4.93 0h-9.88m-4.93 0h-9.88m-4.93 0h-9.88m-4.93 0h-9.88m-4.93 0h-4.95l-.94-.08-.9-.22-.87-.36-.8-.5-.72-.6-.6-.72-.5-.8-.35-.87-.22-.92-.08-.92v-5.23m0-5.22V301.9m0-5.23v-10.45m0-5.22v-10.44m0-5.23V254.9m0-5.23v-10.45m0-5.22v-5.22l.08-.94.22-.92.36-.87.5-.8.6-.72.73-.6.8-.5.87-.36.9-.22.95-.07h4.94" stroke="#3a414a" fill="none"/><g><use xlink:href="#z" transform="matrix(1,0,0,1,714.6526544609982,227.77781277967384) translate(12.432098765432116 20.22222222222222)"/><use xlink:href="#A" transform="matrix(1,0,0,1,714.6526544609982,227.77781277967384) translate(92.23456790123456 20.22222222222222)"/><use xlink:href="#B" transform="matrix(1,0,0,1,714.6526544609982,227.77781277967384) translate(18.259259259259267 41.55555555555556)"/><use xlink:href="#C" transform="matrix(1,0,0,1,714.6526544609982,227.77781277967384) translate(66.65432098765433 41.55555555555556)"/><use xlink:href="#D" transform="matrix(1,0,0,1,714.6526544609982,227.77781277967384) translate(107.04938271604938 41.55555555555556)"/><use xlink:href="#E" transform="matrix(1,0,0,1,714.6526544609982,227.77781277967384) translate(12.358024691358032 62.888888888888886)"/><use xlink:href="#F" transform="matrix(1,0,0,1,714.6526544609982,227.77781277967384) translate(91.22222222222223 62.888888888888886)"/><use xlink:href="#G" transform="matrix(1,0,0,1,714.6526544609982,227.77781277967384) translate(6.950617283950621 84.22222222222223)"/><use xlink:href="#H" transform="matrix(1,0,0,1,714.6526544609982,227.77781277967384) translate(57.22222222222222 84.22222222222223)"/></g><path d="M708.65 275.78h-5m-5 0h-10m-5 0H673.6m-5 0h-10m-5.02 0h-10m-5 0h-10m-5 0h-10m-5.02 0h-10m-5 0h-10m-5.02 0h-10m-5 0h-10m-5.02 0h-10m-5 0H523.5m-5 0h-10m-5 0H493.5m-5 0h-10m-5 0h-5" stroke="#3a414a" fill="none"/><path d="M709.15 276.28h-.5v-1h.5zM468.5 276.28h-.5v-1h.5z" stroke="#3a414a" stroke-width=".05" fill="#3a414a"/><path d="M596.32 783.67a6 6 0 0 1 6-6h148a6 6 0 0 1 6 6v54a6 6 0 0 1-6 6h-148a6 6 0 0 1-6-6z" fill="#fff"/><path d="M612.2 777.67h9.85m4.94 0h9.85m4.94 0h9.85m4.94 0h9.85m4.94 0h9.85m4.94 0h9.85m4.94 0h9.85m4.94 0h9.85m4.94 0h9.85m4.94 0h4.92l.94.07.9.22.88.36.8.5.72.6.6.72.5.8.37.87.22.93.07.94v4.5m0 4.5v9m0 4.5v9m0 4.5v9m0 4.5v4.5l-.08.93-.2.92-.38.87-.5.8-.6.7-.7.62-.82.5-.87.35-.9.22-.95.07h-4.93m-4.95 0h-9.86m-4.95 0h-9.86m-4.95 0H701m-4.95 0h-9.86m-4.95 0h-9.86m-4.95 0h-9.86m-4.95 0h-9.86m-4.95 0H627m-4.95 0h-9.86m-4.95 0h-4.93l-.94-.08-.9-.23-.88-.36-.8-.48-.72-.6-.62-.73-.5-.8-.35-.88-.2-.92-.08-.93v-4.5m0-4.5v-9m0-4.5v-9m0-4.5v-9m0-4.5v-4.5l.07-.94.2-.92.37-.86.5-.8.6-.72.72-.6.8-.5.87-.36.9-.22.95-.07h4.93" stroke="#3a414a" fill="none"/><g><use xlink:href="#I" transform="matrix(1,0,0,1,601.3193211276648,782.6675167111683) translate(27.716049382716058 21.22222222222222)"/><use xlink:href="#J" transform="matrix(1,0,0,1,601.3193211276648,782.6675167111683) translate(36.061728395061735 42.55555555555556)"/></g><path d="M676.37 776.46l-.76.66-3.32-3.8.75-.67zm-6.68-7.6l-.76.65-6.68-7.6.75-.67zm-10.02-11.43l-.76.66-6.67-7.63.75-.66zM649.66 746l-.75.66-6.66-7.6.75-.67zm-10-11.42l-.76.66-6.6-7.53h1.32z" stroke="#3a414a" stroke-width=".05" fill="#3a414a"/><path d="M676.98 777.17h-1.33l.7-.72z" fill="#3a414a"/><path d="M677.04 777.2h-1.44l.76-.78zm-1.33-.06h1.23l-.57-.65z" stroke="#3a414a" stroke-width=".05" fill="#3a414a"/><path stroke="#3a414a" stroke-width=".05" fill="#3a414a"/><defs><path fill="#fff" d="M135-143c-3-34-86-38-87 0 15 53 115 12 119 90S17 21 10-45l28-5c4 36 97 45 98 0-10-56-113-15-118-90-4-57 82-63 122-42 12 7 21 19 24 35" id="K"/><path fill="#fff" d="M100-194c62-1 85 37 85 99 1 63-27 99-86 99S16-35 15-95c0-66 28-99 85-99zM99-20c44 1 53-31 53-75 0-43-8-75-51-75s-53 32-53 75 10 74 51 75" id="L"/><path fill="#fff" d="M141-36C126-15 110 5 73 4 37 3 15-17 15-53c-1-64 63-63 125-63 3-35-9-54-41-54-24 1-41 7-42 31l-33-3c5-37 33-52 76-52 45 0 72 20 72 64v82c-1 20 7 32 28 27v20c-31 9-61-2-59-35zM48-53c0 20 12 33 32 33 41-3 63-29 60-74-43 2-92-5-92 41" id="M"/><path fill="#fff" d="M33-154v-36h34v36H33zM33 0v-36h34V0H33" id="N"/><g id="a"><use transform="matrix(0.05,0,0,0.05,0,0)" xlink:href="#K"/><use transform="matrix(0.05,0,0,0.05,9,0)" xlink:href="#L"/><use transform="matrix(0.05,0,0,0.05,19,0)" xlink:href="#K"/><use transform="matrix(0.05,0,0,0.05,28,0)" xlink:href="#M"/><use transform="matrix(0.05,0,0,0.05,38,0)" xlink:href="#N"/></g><path fill="#fff" d="M185-189c-5-48-123-54-124 2 14 75 158 14 163 119 3 78-121 87-175 55-17-10-28-26-33-46l33-7c5 56 141 63 141-1 0-78-155-14-162-118-5-82 145-84 179-34 5 7 8 16 11 25" id="O"/><path fill="#fff" d="M210-169c-67 3-38 105-44 169h-31v-121c0-29-5-50-35-48C34-165 62-65 56 0H25l-1-190h30c1 10-1 24 2 32 10-44 99-50 107 0 11-21 27-35 58-36 85-2 47 119 55 194h-31v-121c0-29-5-49-35-48" id="P"/><path fill="#fff" d="M115-194c55 1 70 41 70 98S169 2 115 4C84 4 66-9 55-30l1 105H24l-1-265h31l2 30c10-21 28-34 59-34zm-8 174c40 0 45-34 45-75s-6-73-45-74c-42 0-51 32-51 76 0 43 10 73 51 73" id="Q"/><path fill="#fff" d="M24 0v-261h32V0H24" id="R"/><path fill="#fff" d="M100-194c63 0 86 42 84 106H49c0 40 14 67 53 68 26 1 43-12 49-29l28 8c-11 28-37 45-77 45C44 4 14-33 15-96c1-61 26-98 85-98zm52 81c6-60-76-77-97-28-3 7-6 17-6 28h103" id="S"/><g id="b"><use transform="matrix(0.05,0,0,0.05,0,0)" xlink:href="#O"/><use transform="matrix(0.05,0,0,0.05,12,0)" xlink:href="#M"/><use transform="matrix(0.05,0,0,0.05,22,0)" xlink:href="#P"/><use transform="matrix(0.05,0,0,0.05,36.95,0)" xlink:href="#Q"/><use transform="matrix(0.05,0,0,0.05,46.95,0)" xlink:href="#R"/><use transform="matrix(0.05,0,0,0.05,50.900000000000006,0)" xlink:href="#S"/></g><path d="M135-143c-3-34-86-38-87 0 15 53 115 12 119 90S17 21 10-45l28-5c4 36 97 45 98 0-10-56-113-15-118-90-4-57 82-63 122-42 12 7 21 19 24 35" id="T"/><path d="M143 0L79-87 56-68V0H24v-261h32v163l83-92h37l-77 82L181 0h-38" id="U"/><path d="M100-194c62-1 85 37 85 99 1 63-27 99-86 99S16-35 15-95c0-66 28-99 85-99zM99-20c44 1 53-31 53-75 0-43-8-75-51-75s-53 32-53 75 10 74 51 75" id="V"/><path d="M33-154v-36h34v36H33zM33 0v-36h34V0H33" id="W"/><g id="c"><use transform="matrix(0.05,0,0,0.05,0,0)" xlink:href="#T"/><use transform="matrix(0.05,0,0,0.05,9,0)" xlink:href="#U"/><use transform="matrix(0.05,0,0,0.05,18,0)" xlink:href="#V"/><use transform="matrix(0.05,0,0,0.05,28,0)" xlink:href="#T"/><use transform="matrix(0.05,0,0,0.05,37,0)" xlink:href="#W"/></g><path d="M212-179c-10-28-35-45-73-45-59 0-87 40-87 99 0 60 29 101 89 101 43 0 62-24 78-52l27 14C228-24 195 4 139 4 59 4 22-46 18-125c-6-104 99-153 187-111 19 9 31 26 39 46" id="X"/><path d="M117-194c89-4 53 116 60 194h-32v-121c0-31-8-49-39-48C34-167 62-67 57 0H25l-1-190h30c1 10-1 24 2 32 11-22 29-35 61-36" id="Y"/><path d="M96-169c-40 0-48 33-48 73s9 75 48 75c24 0 41-14 43-38l32 2c-6 37-31 61-74 61-59 0-76-41-82-99-10-93 101-131 147-64 4 7 5 14 7 22l-32 3c-4-21-16-35-41-35" id="Z"/><path d="M100-194c63 0 86 42 84 106H49c0 40 14 67 53 68 26 1 43-12 49-29l28 8c-11 28-37 45-77 45C44 4 14-33 15-96c1-61 26-98 85-98zm52 81c6-60-76-77-97-28-3 7-6 17-6 28h103" id="aa"/><path d="M115-194c55 1 70 41 70 98S169 2 115 4C84 4 66-9 55-30l1 105H24l-1-265h31l2 30c10-21 28-34 59-34zm-8 174c40 0 45-34 45-75s-6-73-45-74c-42 0-51 32-51 76 0 43 10 73 51 73" id="ab"/><path d="M59-47c-2 24 18 29 38 22v24C64 9 27 4 27-40v-127H5v-23h24l9-43h21v43h35v23H59v120" id="ac"/><g id="d"><use transform="matrix(0.05,0,0,0.05,0,0)" xlink:href="#X"/><use transform="matrix(0.05,0,0,0.05,12.950000000000001,0)" xlink:href="#V"/><use transform="matrix(0.05,0,0,0.05,22.950000000000003,0)" xlink:href="#Y"/><use transform="matrix(0.05,0,0,0.05,32.95,0)" xlink:href="#Z"/><use transform="matrix(0.05,0,0,0.05,41.95,0)" xlink:href="#aa"/><use transform="matrix(0.05,0,0,0.05,51.95,0)" xlink:href="#ab"/><use transform="matrix(0.05,0,0,0.05,61.95,0)" xlink:href="#ac"/></g><path fill="#3a414a" d="M135-143c-3-34-86-38-87 0 15 53 115 12 119 90S17 21 10-45l28-5c4 36 97 45 98 0-10-56-113-15-118-90-4-57 82-63 122-42 12 7 21 19 24 35" id="ad"/><path fill="#3a414a" d="M85-194c31 0 48 13 60 33l-1-100h32l1 261h-30c-2-10 0-23-3-31C134-8 116 4 85 4 32 4 16-35 15-94c0-66 23-100 70-100zm9 24c-40 0-46 34-46 75 0 40 6 74 45 74 42 0 51-32 51-76 0-42-9-74-50-73" id="ae"/><path fill="#3a414a" d="M100-194c62-1 85 37 85 99 1 63-27 99-86 99S16-35 15-95c0-66 28-99 85-99zM99-20c44 1 53-31 53-75 0-43-8-75-51-75s-53 32-53 75 10 74 51 75" id="af"/><path fill="#3a414a" d="M33-154v-36h34v36H33zM33 0v-36h34V0H33" id="ag"/><g id="e"><use transform="matrix(0.06172839506172839,0,0,0.06172839506172839,0,0)" xlink:href="#ad"/><use transform="matrix(0.06172839506172839,0,0,0.06172839506172839,11.11111111111111,0)" xlink:href="#ae"/><use transform="matrix(0.06172839506172839,0,0,0.06172839506172839,23.45679012345679,0)" xlink:href="#af"/><use transform="matrix(0.06172839506172839,0,0,0.06172839506172839,35.80246913580247,0)" xlink:href="#ag"/></g><path fill="#3a414a" d="M140-251c81 0 123 46 123 126C263-46 219 4 140 4 59 4 17-45 17-125s42-126 123-126zm0 227c63 0 89-41 89-101s-29-99-89-99c-61 0-89 39-89 99S79-25 140-24" id="ah"/><path fill="#3a414a" d="M114-163C36-179 61-72 57 0H25l-1-190h30c1 12-1 29 2 39 6-27 23-49 58-41v29" id="ai"/><path fill="#3a414a" d="M177-190C167-65 218 103 67 71c-23-6-38-20-44-43l32-5c15 47 100 32 89-28v-30C133-14 115 1 83 1 29 1 15-40 15-95c0-56 16-97 71-98 29-1 48 16 59 35 1-10 0-23 2-32h30zM94-22c36 0 50-32 50-73 0-42-14-75-50-75-39 0-46 34-46 75s6 73 46 73" id="aj"/><path fill="#3a414a" d="M141-36C126-15 110 5 73 4 37 3 15-17 15-53c-1-64 63-63 125-63 3-35-9-54-41-54-24 1-41 7-42 31l-33-3c5-37 33-52 76-52 45 0 72 20 72 64v82c-1 20 7 32 28 27v20c-31 9-61-2-59-35zM48-53c0 20 12 33 32 33 41-3 63-29 60-74-43 2-92-5-92 41" id="ak"/><path fill="#3a414a" d="M117-194c89-4 53 116 60 194h-32v-121c0-31-8-49-39-48C34-167 62-67 57 0H25l-1-190h30c1 10-1 24 2 32 11-22 29-35 61-36" id="al"/><path fill="#3a414a" d="M24-231v-30h32v30H24zM24 0v-190h32V0H24" id="am"/><path fill="#3a414a" d="M9 0v-24l116-142H16v-24h144v24L44-24h123V0H9" id="an"/><path fill="#3a414a" d="M59-47c-2 24 18 29 38 22v24C64 9 27 4 27-40v-127H5v-23h24l9-43h21v43h35v23H59v120" id="ao"/><g id="f"><use transform="matrix(0.06172839506172839,0,0,0.06172839506172839,0,0)" xlink:href="#ah"/><use transform="matrix(0.06172839506172839,0,0,0.06172839506172839,17.28395061728395,0)" xlink:href="#ai"/><use transform="matrix(0.06172839506172839,0,0,0.06172839506172839,24.629629629629626,0)" xlink:href="#aj"/><use transform="matrix(0.06172839506172839,0,0,0.06172839506172839,36.9753086419753,0)" xlink:href="#ak"/><use transform="matrix(0.06172839506172839,0,0,0.06172839506172839,49.32098765432098,0)" xlink:href="#al"/><use transform="matrix(0.06172839506172839,0,0,0.06172839506172839,61.66666666666666,0)" xlink:href="#am"/><use transform="matrix(0.06172839506172839,0,0,0.06172839506172839,66.5432098765432,0)" xlink:href="#an"/><use transform="matrix(0.06172839506172839,0,0,0.06172839506172839,77.65432098765432,0)" xlink:href="#ak"/><use transform="matrix(0.06172839506172839,0,0,0.06172839506172839,90,0)" xlink:href="#ao"/><use transform="matrix(0.06172839506172839,0,0,0.06172839506172839,96.17283950617283,0)" xlink:href="#am"/><use transform="matrix(0.06172839506172839,0,0,0.06172839506172839,101.04938271604938,0)" xlink:href="#af"/><use transform="matrix(0.06172839506172839,0,0,0.06172839506172839,113.39506172839506,0)" xlink:href="#al"/></g><path fill="#333" d="M115-194c55 1 70 41 70 98S169 2 115 4C84 4 66-9 55-30l1 105H24l-1-265h31l2 30c10-21 28-34 59-34zm-8 174c40 0 45-34 45-75s-6-73-45-74c-42 0-51 32-51 76 0 43 10 73 51 73" id="ap"/><path fill="#333" d="M114-163C36-179 61-72 57 0H25l-1-190h30c1 12-1 29 2 39 6-27 23-49 58-41v29" id="aq"/><path fill="#333" d="M100-194c62-1 85 37 85 99 1 63-27 99-86 99S16-35 15-95c0-66 28-99 85-99zM99-20c44 1 53-31 53-75 0-43-8-75-51-75s-53 32-53 75 10 74 51 75" id="ar"/><path fill="#333" d="M108 0H70L1-190h34L89-25l56-165h34" id="as"/><path fill="#333" d="M33-154v-36h34v36H33zM33 0v-36h34V0H33" id="at"/><g id="g"><use transform="matrix(0.04938271604938272,0,0,0.04938271604938272,0,0)" xlink:href="#ap"/><use transform="matrix(0.04938271604938272,0,0,0.04938271604938272,9.876543209876544,0)" xlink:href="#aq"/><use transform="matrix(0.04938271604938272,0,0,0.04938271604938272,15.753086419753087,0)" xlink:href="#ar"/><use transform="matrix(0.04938271604938272,0,0,0.04938271604938272,25.629629629629633,0)" xlink:href="#as"/><use transform="matrix(0.04938271604938272,0,0,0.04938271604938272,34.51851851851852,0)" xlink:href="#at"/></g><path fill="#333" d="M206 0h-36l-40-164L89 0H53L-1-190h32L70-26l43-164h34l41 164 42-164h31" id="au"/><path fill="#333" d="M141-36C126-15 110 5 73 4 37 3 15-17 15-53c-1-64 63-63 125-63 3-35-9-54-41-54-24 1-41 7-42 31l-33-3c5-37 33-52 76-52 45 0 72 20 72 64v82c-1 20 7 32 28 27v20c-31 9-61-2-59-35zM48-53c0 20 12 33 32 33 41-3 63-29 60-74-43 2-92-5-92 41" id="av"/><path fill="#333" d="M135-143c-3-34-86-38-87 0 15 53 115 12 119 90S17 21 10-45l28-5c4 36 97 45 98 0-10-56-113-15-118-90-4-57 82-63 122-42 12 7 21 19 24 35" id="aw"/><g id="h"><use transform="matrix(0.04938271604938272,0,0,0.04938271604938272,0,0)" xlink:href="#au"/><use transform="matrix(0.04938271604938272,0,0,0.04938271604938272,12.790123456790125,0)" xlink:href="#av"/><use transform="matrix(0.04938271604938272,0,0,0.04938271604938272,22.66666666666667,0)" xlink:href="#aw"/></g><path fill="#333" d="M205 0l-28-72H64L36 0H1l101-248h38L239 0h-34zm-38-99l-47-123c-12 45-31 82-46 123h93" id="ax"/><path fill="#333" d="M59-47c-2 24 18 29 38 22v24C64 9 27 4 27-40v-127H5v-23h24l9-43h21v43h35v23H59v120" id="ay"/><path fill="#333" d="M24-231v-30h32v30H24zM24 0v-190h32V0H24" id="az"/><path fill="#333" d="M115-194c53 0 69 39 70 98 0 66-23 100-70 100C84 3 66-7 56-30L54 0H23l1-261h32v101c10-23 28-34 59-34zm-8 174c40 0 45-34 45-75 0-40-5-75-45-74-42 0-51 32-51 76 0 43 10 73 51 73" id="aA"/><path fill="#333" d="M84 4C-5 8 30-112 23-190h32v120c0 31 7 50 39 49 72-2 45-101 50-169h31l1 190h-30c-1-10 1-25-2-33-11 22-28 36-60 37" id="aB"/><path fill="#333" d="M100-194c63 0 86 42 84 106H49c0 40 14 67 53 68 26 1 43-12 49-29l28 8c-11 28-37 45-77 45C44 4 14-33 15-96c1-61 26-98 85-98zm52 81c6-60-76-77-97-28-3 7-6 17-6 28h103" id="aC"/><path fill="#333" d="M85-194c31 0 48 13 60 33l-1-100h32l1 261h-30c-2-10 0-23-3-31C134-8 116 4 85 4 32 4 16-35 15-94c0-66 23-100 70-100zm9 24c-40 0-46 34-46 75 0 40 6 74 45 74 42 0 51-32 51-76 0-42-9-74-50-73" id="aD"/><g id="i"><use transform="matrix(0.04938271604938272,0,0,0.04938271604938272,0,0)" xlink:href="#ax"/><use transform="matrix(0.04938271604938272,0,0,0.04938271604938272,11.851851851851853,0)" xlink:href="#ay"/><use transform="matrix(0.04938271604938272,0,0,0.04938271604938272,16.790123456790127,0)" xlink:href="#ay"/><use transform="matrix(0.04938271604938272,0,0,0.04938271604938272,21.7283950617284,0)" xlink:href="#aq"/><use transform="matrix(0.04938271604938272,0,0,0.04938271604938272,27.604938271604947,0)" xlink:href="#az"/><use transform="matrix(0.04938271604938272,0,0,0.04938271604938272,31.506172839506174,0)" xlink:href="#aA"/><use transform="matrix(0.04938271604938272,0,0,0.04938271604938272,41.38271604938272,0)" xlink:href="#aB"/><use transform="matrix(0.04938271604938272,0,0,0.04938271604938272,51.25925925925927,0)" xlink:href="#ay"/><use transform="matrix(0.04938271604938272,0,0,0.04938271604938272,56.19753086419754,0)" xlink:href="#aC"/><use transform="matrix(0.04938271604938272,0,0,0.04938271604938272,66.07407407407408,0)" xlink:href="#aD"/></g><path fill="#333" d="M127-220V0H93v-220H8v-28h204v28h-85" id="aE"/><g id="j"><use transform="matrix(0.04938271604938272,0,0,0.04938271604938272,0,0)" xlink:href="#aE"/><use transform="matrix(0.04938271604938272,0,0,0.04938271604938272,8.839506172839506,0)" xlink:href="#ar"/></g><path d="M114-163C36-179 61-72 57 0H25l-1-190h30c1 12-1 29 2 39 6-27 23-49 58-41v29" id="aF"/><path d="M108 0H70L1-190h34L89-25l56-165h34" id="aG"/><g id="k"><use transform="matrix(0.05,0,0,0.05,0,0)" xlink:href="#ab"/><use transform="matrix(0.05,0,0,0.05,10,0)" xlink:href="#aF"/><use transform="matrix(0.05,0,0,0.05,15.949999999999998,0)" xlink:href="#V"/><use transform="matrix(0.05,0,0,0.05,25.950000000000003,0)" xlink:href="#aG"/><use transform="matrix(0.05,0,0,0.05,34.95,0)" xlink:href="#W"/></g><path d="M205 0l-28-72H64L36 0H1l101-248h38L239 0h-34zm-38-99l-47-123c-12 45-31 82-46 123h93" id="aH"/><path d="M24-231v-30h32v30H24zM24 0v-190h32V0H24" id="aI"/><path d="M115-194c53 0 69 39 70 98 0 66-23 100-70 100C84 3 66-7 56-30L54 0H23l1-261h32v101c10-23 28-34 59-34zm-8 174c40 0 45-34 45-75 0-40-5-75-45-74-42 0-51 32-51 76 0 43 10 73 51 73" id="aJ"/><path d="M84 4C-5 8 30-112 23-190h32v120c0 31 7 50 39 49 72-2 45-101 50-169h31l1 190h-30c-1-10 1-25-2-33-11 22-28 36-60 37" id="aK"/><g id="l"><use transform="matrix(0.05,0,0,0.05,0,0)" xlink:href="#aH"/><use transform="matrix(0.05,0,0,0.05,12,0)" xlink:href="#ac"/><use transform="matrix(0.05,0,0,0.05,17,0)" xlink:href="#ac"/><use transform="matrix(0.05,0,0,0.05,22,0)" xlink:href="#aF"/><use transform="matrix(0.05,0,0,0.05,27.950000000000003,0)" xlink:href="#aI"/><use transform="matrix(0.05,0,0,0.05,31.899999999999995,0)" xlink:href="#aJ"/><use transform="matrix(0.05,0,0,0.05,41.9,0)" xlink:href="#aK"/><use transform="matrix(0.05,0,0,0.05,51.900000000000006,0)" xlink:href="#ac"/><use transform="matrix(0.05,0,0,0.05,56.900000000000006,0)" xlink:href="#aI"/><use transform="matrix(0.05,0,0,0.05,60.85,0)" xlink:href="#V"/><use transform="matrix(0.05,0,0,0.05,70.85,0)" xlink:href="#Y"/></g><path fill="#333" d="M145-31C134-9 116 4 85 4 32 4 16-35 15-94c0-59 17-99 70-100 32-1 48 14 60 33 0-11-1-24 2-32h30l-1 268h-32zM93-21c41 0 51-33 51-76s-8-73-50-73c-40 0-46 35-46 75s5 74 45 74" id="aL"/><path fill="#333" d="M24 0v-261h32V0H24" id="aM"/><path fill="#333" d="M101-234c-31-9-42 10-38 44h38v23H63V0H32v-167H5v-23h27c-7-52 17-82 69-68v24" id="aN"/><g id="m"><use transform="matrix(0.04938271604938272,0,0,0.04938271604938272,0,0)" xlink:href="#aL"/><use transform="matrix(0.04938271604938272,0,0,0.04938271604938272,9.876543209876544,0)" xlink:href="#aB"/><use transform="matrix(0.04938271604938272,0,0,0.04938271604938272,19.75308641975309,0)" xlink:href="#av"/><use transform="matrix(0.04938271604938272,0,0,0.04938271604938272,29.629629629629633,0)" xlink:href="#aM"/><use transform="matrix(0.04938271604938272,0,0,0.04938271604938272,33.53086419753087,0)" xlink:href="#az"/><use transform="matrix(0.04938271604938272,0,0,0.04938271604938272,37.4320987654321,0)" xlink:href="#aN"/><use transform="matrix(0.04938271604938272,0,0,0.04938271604938272,42.370370370370374,0)" xlink:href="#az"/><use transform="matrix(0.04938271604938272,0,0,0.04938271604938272,46.27160493827161,0)" xlink:href="#aC"/><use transform="matrix(0.04938271604938272,0,0,0.04938271604938272,56.14814814814815,0)" xlink:href="#aD"/></g><path fill="#333" d="M117-194c89-4 53 116 60 194h-32v-121c0-31-8-49-39-48C34-167 62-67 57 0H25l-1-190h30c1 10-1 24 2 32 11-22 29-35 61-36" id="aO"/><g id="n"><use transform="matrix(0.04938271604938272,0,0,0.04938271604938272,0,0)" xlink:href="#ax"/><use transform="matrix(0.04938271604938272,0,0,0.04938271604938272,11.851851851851853,0)" xlink:href="#ay"/><use transform="matrix(0.04938271604938272,0,0,0.04938271604938272,16.790123456790127,0)" xlink:href="#ay"/><use transform="matrix(0.04938271604938272,0,0,0.04938271604938272,21.7283950617284,0)" xlink:href="#aq"/><use transform="matrix(0.04938271604938272,0,0,0.04938271604938272,27.604938271604947,0)" xlink:href="#az"/><use transform="matrix(0.04938271604938272,0,0,0.04938271604938272,31.506172839506174,0)" xlink:href="#aA"/><use transform="matrix(0.04938271604938272,0,0,0.04938271604938272,41.38271604938272,0)" xlink:href="#aB"/><use transform="matrix(0.04938271604938272,0,0,0.04938271604938272,51.25925925925927,0)" xlink:href="#ay"/><use transform="matrix(0.04938271604938272,0,0,0.04938271604938272,56.19753086419754,0)" xlink:href="#az"/><use transform="matrix(0.04938271604938272,0,0,0.04938271604938272,60.09876543209877,0)" xlink:href="#ar"/><use transform="matrix(0.04938271604938272,0,0,0.04938271604938272,69.97530864197532,0)" xlink:href="#aO"/></g><path fill="#333" d="M177-190C167-65 218 103 67 71c-23-6-38-20-44-43l32-5c15 47 100 32 89-28v-30C133-14 115 1 83 1 29 1 15-40 15-95c0-56 16-97 71-98 29-1 48 16 59 35 1-10 0-23 2-32h30zM94-22c36 0 50-32 50-73 0-42-14-75-50-75-39 0-46 34-46 75s6 73 46 73" id="aP"/><g id="o"><use transform="matrix(0.04938271604938272,0,0,0.04938271604938272,0,0)" xlink:href="#av"/><use transform="matrix(0.04938271604938272,0,0,0.04938271604938272,9.876543209876544,0)" xlink:href="#aP"/><use transform="matrix(0.04938271604938272,0,0,0.04938271604938272,19.75308641975309,0)" xlink:href="#aC"/><use transform="matrix(0.04938271604938272,0,0,0.04938271604938272,29.629629629629633,0)" xlink:href="#aO"/><use transform="matrix(0.04938271604938272,0,0,0.04938271604938272,39.50617283950618,0)" xlink:href="#ay"/></g><path fill="#333" d="M106-169C34-169 62-67 57 0H25v-261h32l-1 103c12-21 28-36 61-36 89 0 53 116 60 194h-32v-121c2-32-8-49-39-48" id="aQ"/><path fill="#333" d="M233-177c-1 41-23 64-60 70L243 0h-38l-65-103H63V0H30v-248c88 3 205-21 203 71zM63-129c60-2 137 13 137-47 0-61-80-42-137-45v92" id="aR"/><g id="p"><use transform="matrix(0.04938271604938272,0,0,0.04938271604938272,0,0)" xlink:href="#aQ"/><use transform="matrix(0.04938271604938272,0,0,0.04938271604938272,9.876543209876544,0)" xlink:href="#av"/><use transform="matrix(0.04938271604938272,0,0,0.04938271604938272,19.75308641975309,0)" xlink:href="#aD"/><use transform="matrix(0.04938271604938272,0,0,0.04938271604938272,29.629629629629633,0)" xlink:href="#aR"/><use transform="matrix(0.04938271604938272,0,0,0.04938271604938272,42.41975308641976,0)" xlink:href="#ar"/><use transform="matrix(0.04938271604938272,0,0,0.04938271604938272,52.2962962962963,0)" xlink:href="#aM"/><use transform="matrix(0.04938271604938272,0,0,0.04938271604938272,56.19753086419754,0)" xlink:href="#aC"/></g><path fill="#fff" d="M212-179c-10-28-35-45-73-45-59 0-87 40-87 99 0 60 29 101 89 101 43 0 62-24 78-52l27 14C228-24 195 4 139 4 59 4 22-46 18-125c-6-104 99-153 187-111 19 9 31 26 39 46" id="aS"/><path fill="#fff" d="M114-163C36-179 61-72 57 0H25l-1-190h30c1 12-1 29 2 39 6-27 23-49 58-41v29" id="aT"/><g id="q"><use transform="matrix(0.05,0,0,0.05,0,0)" xlink:href="#aS"/><use transform="matrix(0.05,0,0,0.05,12.950000000000001,0)" xlink:href="#L"/><use transform="matrix(0.05,0,0,0.05,22.950000000000003,0)" xlink:href="#aT"/><use transform="matrix(0.05,0,0,0.05,28.900000000000002,0)" xlink:href="#S"/></g><path fill="#fff" d="M140-251c81 0 123 46 123 126C263-46 219 4 140 4 59 4 17-45 17-125s42-126 123-126zm0 227c63 0 89-41 89-101s-29-99-89-99c-61 0-89 39-89 99S79-25 140-24" id="aU"/><path fill="#fff" d="M205 0l-28-72H64L36 0H1l101-248h38L239 0h-34zm-38-99l-47-123c-12 45-31 82-46 123h93" id="aV"/><g id="r"><use transform="matrix(0.05,0,0,0.05,0,0)" xlink:href="#O"/><use transform="matrix(0.05,0,0,0.05,12,0)" xlink:href="#aU"/><use transform="matrix(0.05,0,0,0.05,26,0)" xlink:href="#O"/><use transform="matrix(0.05,0,0,0.05,38,0)" xlink:href="#aV"/></g><g id="s"><use transform="matrix(0.05,0,0,0.05,0,0)" xlink:href="#aS"/><use transform="matrix(0.05,0,0,0.05,12.950000000000001,0)" xlink:href="#R"/><use transform="matrix(0.05,0,0,0.05,16.900000000000002,0)" xlink:href="#M"/><use transform="matrix(0.05,0,0,0.05,26.900000000000002,0)" xlink:href="#K"/><use transform="matrix(0.05,0,0,0.05,35.900000000000006,0)" xlink:href="#K"/></g><path d="M24 0v-261h32V0H24" id="aW"/><path d="M141-36C126-15 110 5 73 4 37 3 15-17 15-53c-1-64 63-63 125-63 3-35-9-54-41-54-24 1-41 7-42 31l-33-3c5-37 33-52 76-52 45 0 72 20 72 64v82c-1 20 7 32 28 27v20c-31 9-61-2-59-35zM48-53c0 20 12 33 32 33 41-3 63-29 60-74-43 2-92-5-92 41" id="aX"/><g id="t"><use transform="matrix(0.05,0,0,0.05,0,0)" xlink:href="#X"/><use transform="matrix(0.05,0,0,0.05,12.950000000000001,0)" xlink:href="#aW"/><use transform="matrix(0.05,0,0,0.05,16.900000000000002,0)" xlink:href="#aX"/><use transform="matrix(0.05,0,0,0.05,26.900000000000002,0)" xlink:href="#T"/><use transform="matrix(0.05,0,0,0.05,35.900000000000006,0)" xlink:href="#T"/></g><path d="M101-234c-31-9-42 10-38 44h38v23H63V0H32v-167H5v-23h27c-7-52 17-82 69-68v24" id="aY"/><path d="M210-169c-67 3-38 105-44 169h-31v-121c0-29-5-50-35-48C34-165 62-65 56 0H25l-1-190h30c1 10-1 24 2 32 10-44 99-50 107 0 11-21 27-35 58-36 85-2 47 119 55 194h-31v-121c0-29-5-49-35-48" id="aZ"/><g id="u"><use transform="matrix(0.05,0,0,0.05,0,0)" xlink:href="#aY"/><use transform="matrix(0.05,0,0,0.05,5,0)" xlink:href="#aF"/><use transform="matrix(0.05,0,0,0.05,10.95,0)" xlink:href="#V"/><use transform="matrix(0.05,0,0,0.05,20.95,0)" xlink:href="#aZ"/></g><path d="M106-169C34-169 62-67 57 0H25v-261h32l-1 103c12-21 28-36 61-36 89 0 53 116 60 194h-32v-121c2-32-8-49-39-48" id="ba"/><g id="v"><use transform="matrix(0.05,0,0,0.05,0,0)" xlink:href="#aX"/><use transform="matrix(0.05,0,0,0.05,10,0)" xlink:href="#Y"/><use transform="matrix(0.05,0,0,0.05,20,0)" xlink:href="#V"/><use transform="matrix(0.05,0,0,0.05,30,0)" xlink:href="#ac"/><use transform="matrix(0.05,0,0,0.05,35,0)" xlink:href="#ba"/><use transform="matrix(0.05,0,0,0.05,45,0)" xlink:href="#aa"/><use transform="matrix(0.05,0,0,0.05,55,0)" xlink:href="#aF"/></g><path d="M85-194c31 0 48 13 60 33l-1-100h32l1 261h-30c-2-10 0-23-3-31C134-8 116 4 85 4 32 4 16-35 15-94c0-66 23-100 70-100zm9 24c-40 0-46 34-46 75 0 40 6 74 45 74 42 0 51-32 51-76 0-42-9-74-50-73" id="bb"/><g id="w"><use transform="matrix(0.05,0,0,0.05,0,0)" xlink:href="#aZ"/><use transform="matrix(0.05,0,0,0.05,14.950000000000001,0)" xlink:href="#V"/><use transform="matrix(0.05,0,0,0.05,24.950000000000003,0)" xlink:href="#bb"/><use transform="matrix(0.05,0,0,0.05,34.95,0)" xlink:href="#aa"/><use transform="matrix(0.05,0,0,0.05,44.95,0)" xlink:href="#aW"/></g><path fill="#3a414a" d="M195 0l-88-114-31 24V0H24v-248h52v113l112-113h60L142-143 257 0h-62" id="bc"/><path fill="#3a414a" d="M185-48c-13 30-37 53-82 52C43 2 14-33 14-96s30-98 90-98c62 0 83 45 84 108H66c0 31 8 55 39 56 18 0 30-7 34-22zm-45-69c5-46-57-63-70-21-2 6-4 13-4 21h74" id="bd"/><path fill="#3a414a" d="M123 10C108 53 80 86 19 72V37c35 8 53-11 59-39L3-190h52l48 148c12-52 28-100 44-148h51" id="be"/><g id="x"><use transform="matrix(0.06172839506172839,0,0,0.06172839506172839,0,0)" xlink:href="#bc"/><use transform="matrix(0.06172839506172839,0,0,0.06172839506172839,15.987654320987653,0)" xlink:href="#bd"/><use transform="matrix(0.06172839506172839,0,0,0.06172839506172839,28.333333333333332,0)" xlink:href="#be"/><path fill="#3a414a" d="M-1.1 1.2h42.9V3.5H-1.1z"/></g><path fill="#333" d="M179-190L93 31C79 59 56 82 12 73V49c39 6 53-20 64-50L1-190h34L92-34l54-156h33" id="bf"/><g id="y"><use transform="matrix(0.04938271604938272,0,0,0.04938271604938272,0,0)" xlink:href="#ap"/><use transform="matrix(0.04938271604938272,0,0,0.04938271604938272,9.876543209876544,0)" xlink:href="#aq"/><use transform="matrix(0.04938271604938272,0,0,0.04938271604938272,15.753086419753087,0)" xlink:href="#ar"/><use transform="matrix(0.04938271604938272,0,0,0.04938271604938272,25.629629629629633,0)" xlink:href="#ap"/><use transform="matrix(0.04938271604938272,0,0,0.04938271604938272,35.50617283950618,0)" xlink:href="#aC"/><use transform="matrix(0.04938271604938272,0,0,0.04938271604938272,45.38271604938272,0)" xlink:href="#aq"/><use transform="matrix(0.04938271604938272,0,0,0.04938271604938272,51.25925925925927,0)" xlink:href="#ay"/><use transform="matrix(0.04938271604938272,0,0,0.04938271604938272,56.19753086419754,0)" xlink:href="#bf"/></g><path fill="#3a414a" d="M30-248c87 1 191-15 191 75 0 78-77 80-158 76V0H30v-248zm33 125c57 0 124 11 124-50 0-59-68-47-124-48v98" id="bg"/><path fill="#3a414a" d="M96-169c-40 0-48 33-48 73s9 75 48 75c24 0 41-14 43-38l32 2c-6 37-31 61-74 61-59 0-76-41-82-99-10-93 101-131 147-64 4 7 5 14 7 22l-32 3c-4-21-16-35-41-35" id="bh"/><path fill="#3a414a" d="M84 4C-5 8 30-112 23-190h32v120c0 31 7 50 39 49 72-2 45-101 50-169h31l1 190h-30c-1-10 1-25-2-33-11 22-28 36-60 37" id="bi"/><path fill="#3a414a" d="M24 0v-261h32V0H24" id="bj"/><g id="z"><use transform="matrix(0.049382716049382706,0,0,0.049382716049382706,0,0)" xlink:href="#bg"/><use transform="matrix(0.049382716049382706,0,0,0.049382716049382706,11.85185185185185,0)" xlink:href="#ak"/><use transform="matrix(0.049382716049382706,0,0,0.049382716049382706,21.728395061728392,0)" xlink:href="#ai"/><use transform="matrix(0.049382716049382706,0,0,0.049382716049382706,27.604938271604933,0)" xlink:href="#ao"/><use transform="matrix(0.049382716049382706,0,0,0.049382716049382706,32.5432098765432,0)" xlink:href="#am"/><use transform="matrix(0.049382716049382706,0,0,0.049382716049382706,36.444444444444436,0)" xlink:href="#bh"/><use transform="matrix(0.049382716049382706,0,0,0.049382716049382706,45.33333333333332,0)" xlink:href="#bi"/><use transform="matrix(0.049382716049382706,0,0,0.049382716049382706,55.20987654320985,0)" xlink:href="#bj"/><use transform="matrix(0.049382716049382706,0,0,0.049382716049382706,59.111111111111086,0)" xlink:href="#ak"/><use transform="matrix(0.049382716049382706,0,0,0.049382716049382706,68.98765432098763,0)" xlink:href="#ai"/></g><path fill="#3a414a" d="M233-177c-1 41-23 64-60 70L243 0h-38l-65-103H63V0H30v-248c88 3 205-21 203 71zM63-129c60-2 137 13 137-47 0-61-80-42-137-45v92" id="bk"/><path fill="#3a414a" d="M100-194c63 0 86 42 84 106H49c0 40 14 67 53 68 26 1 43-12 49-29l28 8c-11 28-37 45-77 45C44 4 14-33 15-96c1-61 26-98 85-98zm52 81c6-60-76-77-97-28-3 7-6 17-6 28h103" id="bl"/><g id="A"><use transform="matrix(0.049382716049382706,0,0,0.049382716049382706,0,0)" xlink:href="#bk"/><use transform="matrix(0.049382716049382706,0,0,0.049382716049382706,12.790123456790122,0)" xlink:href="#af"/><use transform="matrix(0.049382716049382706,0,0,0.049382716049382706,22.666666666666664,0)" xlink:href="#bj"/><use transform="matrix(0.049382716049382706,0,0,0.049382716049382706,26.567901234567895,0)" xlink:href="#bl"/><use transform="matrix(0.049382716049382706,0,0,0.049382716049382706,36.44444444444444,0)" xlink:href="#ad"/></g><path fill="#3a414a" d="M143 0L79-87 56-68V0H24v-261h32v163l83-92h37l-77 82L181 0h-38" id="bm"/><g id="B"><use transform="matrix(0.049382716049382706,0,0,0.049382716049382706,0,0)" xlink:href="#ao"/><use transform="matrix(0.049382716049382706,0,0,0.049382716049382706,4.93827160493827,0)" xlink:href="#ak"/><use transform="matrix(0.049382716049382706,0,0,0.049382716049382706,14.814814814814811,0)" xlink:href="#bm"/><use transform="matrix(0.049382716049382706,0,0,0.049382716049382706,23.7037037037037,0)" xlink:href="#bl"/><use transform="matrix(0.049382716049382706,0,0,0.049382716049382706,33.58024691358024,0)" xlink:href="#al"/></g><path fill="#3a414a" d="M101-234c-31-9-42 10-38 44h38v23H63V0H32v-167H5v-23h27c-7-52 17-82 69-68v24" id="bn"/><path fill="#3a414a" d="M210-169c-67 3-38 105-44 169h-31v-121c0-29-5-50-35-48C34-165 62-65 56 0H25l-1-190h30c1 10-1 24 2 32 10-44 99-50 107 0 11-21 27-35 58-36 85-2 47 119 55 194h-31v-121c0-29-5-49-35-48" id="bo"/><g id="C"><use transform="matrix(0.049382716049382706,0,0,0.049382716049382706,0,0)" xlink:href="#bn"/><use transform="matrix(0.049382716049382706,0,0,0.049382716049382706,4.93827160493827,0)" xlink:href="#ai"/><use transform="matrix(0.049382716049382706,0,0,0.049382716049382706,10.814814814814813,0)" xlink:href="#af"/><use transform="matrix(0.049382716049382706,0,0,0.049382716049382706,20.691358024691354,0)" xlink:href="#bo"/></g><path fill="#3a414a" d="M106-169C34-169 62-67 57 0H25v-261h32l-1 103c12-21 28-36 61-36 89 0 53 116 60 194h-32v-121c2-32-8-49-39-48" id="bp"/><g id="D"><use transform="matrix(0.049382716049382706,0,0,0.049382716049382706,0,0)" xlink:href="#ao"/><use transform="matrix(0.049382716049382706,0,0,0.049382716049382706,4.93827160493827,0)" xlink:href="#bp"/><use transform="matrix(0.049382716049382706,0,0,0.049382716049382706,14.814814814814811,0)" xlink:href="#bl"/></g><path fill="#3a414a" d="M185-189c-5-48-123-54-124 2 14 75 158 14 163 119 3 78-121 87-175 55-17-10-28-26-33-46l33-7c5 56 141 63 141-1 0-78-155-14-162-118-5-82 145-84 179-34 5 7 8 16 11 25" id="bq"/><path fill="#3a414a" d="M115-194c55 1 70 41 70 98S169 2 115 4C84 4 66-9 55-30l1 105H24l-1-265h31l2 30c10-21 28-34 59-34zm-8 174c40 0 45-34 45-75s-6-73-45-74c-42 0-51 32-51 76 0 43 10 73 51 73" id="br"/><g id="E"><use transform="matrix(0.049382716049382706,0,0,0.049382716049382706,0,0)" xlink:href="#bq"/><use transform="matrix(0.049382716049382706,0,0,0.049382716049382706,11.85185185185185,0)" xlink:href="#ak"/><use transform="matrix(0.049382716049382706,0,0,0.049382716049382706,21.728395061728392,0)" xlink:href="#bo"/><use transform="matrix(0.049382716049382706,0,0,0.049382716049382706,36.49382716049382,0)" xlink:href="#br"/><use transform="matrix(0.049382716049382706,0,0,0.049382716049382706,46.37037037037037,0)" xlink:href="#bj"/><use transform="matrix(0.049382716049382706,0,0,0.049382716049382706,50.2716049382716,0)" xlink:href="#am"/><use transform="matrix(0.049382716049382706,0,0,0.049382716049382706,54.17283950617284,0)" xlink:href="#al"/><use transform="matrix(0.049382716049382706,0,0,0.049382716049382706,64.04938271604938,0)" xlink:href="#aj"/></g><path fill="#3a414a" d="M205 0l-28-72H64L36 0H1l101-248h38L239 0h-34zm-38-99l-47-123c-12 45-31 82-46 123h93" id="bs"/><g id="F"><use transform="matrix(0.049382716049382706,0,0,0.049382716049382706,0,0)" xlink:href="#bs"/><use transform="matrix(0.049382716049382706,0,0,0.049382716049382706,11.85185185185185,0)" xlink:href="#aj"/><use transform="matrix(0.049382716049382706,0,0,0.049382716049382706,21.728395061728392,0)" xlink:href="#bl"/><use transform="matrix(0.049382716049382706,0,0,0.049382716049382706,31.604938271604933,0)" xlink:href="#al"/><use transform="matrix(0.049382716049382706,0,0,0.049382716049382706,41.481481481481474,0)" xlink:href="#ao"/></g><g id="G"><use transform="matrix(0.049382716049382706,0,0,0.049382716049382706,0,0)" xlink:href="#bk"/><use transform="matrix(0.049382716049382706,0,0,0.049382716049382706,12.790123456790122,0)" xlink:href="#af"/><use transform="matrix(0.049382716049382706,0,0,0.049382716049382706,22.666666666666664,0)" xlink:href="#bj"/><use transform="matrix(0.049382716049382706,0,0,0.049382716049382706,26.567901234567895,0)" xlink:href="#bl"/><use transform="matrix(0.049382716049382706,0,0,0.049382716049382706,36.44444444444444,0)" xlink:href="#ad"/></g><path fill="#3a414a" d="M108 0H70L1-190h34L89-25l56-165h34" id="bt"/><path fill="#3a414a" d="M115-194c53 0 69 39 70 98 0 66-23 100-70 100C84 3 66-7 56-30L54 0H23l1-261h32v101c10-23 28-34 59-34zm-8 174c40 0 45-34 45-75 0-40-5-75-45-74-42 0-51 32-51 76 0 43 10 73 51 73" id="bu"/><path fill="#3a414a" d="M179-190L93 31C79 59 56 82 12 73V49c39 6 53-20 64-50L1-190h34L92-34l54-156h33" id="bv"/><g id="H"><use transform="matrix(0.049382716049382706,0,0,0.049382716049382706,0,0)" xlink:href="#bt"/><use transform="matrix(0.049382716049382706,0,0,0.049382716049382706,8.888888888888888,0)" xlink:href="#af"/><use transform="matrix(0.049382716049382706,0,0,0.049382716049382706,18.76543209876543,0)" xlink:href="#bh"/><use transform="matrix(0.049382716049382706,0,0,0.049382716049382706,27.654320987654316,0)" xlink:href="#ak"/><use transform="matrix(0.049382716049382706,0,0,0.049382716049382706,37.53086419753086,0)" xlink:href="#bu"/><use transform="matrix(0.049382716049382706,0,0,0.049382716049382706,47.407407407407405,0)" xlink:href="#bi"/><use transform="matrix(0.049382716049382706,0,0,0.049382716049382706,57.28395061728395,0)" xlink:href="#bj"/><use transform="matrix(0.049382716049382706,0,0,0.049382716049382706,61.18518518518518,0)" xlink:href="#ak"/><use transform="matrix(0.049382716049382706,0,0,0.049382716049382706,71.06172839506172,0)" xlink:href="#ai"/><use transform="matrix(0.049382716049382706,0,0,0.049382716049382706,76.93827160493827,0)" xlink:href="#bv"/></g><path fill="#3a414a" d="M232-93c-1 65-40 97-104 97C67 4 28-28 28-90v-158h33c8 89-33 224 67 224 102 0 64-133 71-224h33v155" id="bw"/><path fill="#3a414a" d="M16-82v-28h88v28H16" id="bx"/><path fill="#3a414a" d="M145-31C134-9 116 4 85 4 32 4 16-35 15-94c0-59 17-99 70-100 32-1 48 14 60 33 0-11-1-24 2-32h30l-1 268h-32zM93-21c41 0 51-33 51-76s-8-73-50-73c-40 0-46 35-46 75s5 74 45 74" id="by"/><g id="I"><use transform="matrix(0.049382716049382706,0,0,0.049382716049382706,0,0)" xlink:href="#bw"/><use transform="matrix(0.049382716049382706,0,0,0.049382716049382706,12.790123456790122,0)" xlink:href="#al"/><use transform="matrix(0.049382716049382706,0,0,0.049382716049382706,22.666666666666664,0)" xlink:href="#bx"/><use transform="matrix(0.049382716049382706,0,0,0.049382716049382706,28.543209876543205,0)" xlink:href="#by"/><use transform="matrix(0.049382716049382706,0,0,0.049382716049382706,38.419753086419746,0)" xlink:href="#bi"/><use transform="matrix(0.049382716049382706,0,0,0.049382716049382706,48.29629629629629,0)" xlink:href="#ak"/><use transform="matrix(0.049382716049382706,0,0,0.049382716049382706,58.17283950617284,0)" xlink:href="#bj"/><use transform="matrix(0.049382716049382706,0,0,0.049382716049382706,62.074074074074076,0)" xlink:href="#am"/><use transform="matrix(0.049382716049382706,0,0,0.049382716049382706,65.9753086419753,0)" xlink:href="#bn"/><use transform="matrix(0.049382716049382706,0,0,0.049382716049382706,70.91358024691357,0)" xlink:href="#am"/><use transform="matrix(0.049382716049382706,0,0,0.049382716049382706,74.8148148148148,0)" xlink:href="#bl"/><use transform="matrix(0.049382716049382706,0,0,0.049382716049382706,84.69135802469134,0)" xlink:href="#ae"/></g><g id="J"><use transform="matrix(0.049382716049382706,0,0,0.049382716049382706,0,0)" xlink:href="#ak"/><use transform="matrix(0.049382716049382706,0,0,0.049382716049382706,9.87654320987654,0)" xlink:href="#ao"/><use transform="matrix(0.049382716049382706,0,0,0.049382716049382706,14.814814814814811,0)" xlink:href="#ao"/><use transform="matrix(0.049382716049382706,0,0,0.049382716049382706,19.75308641975308,0)" xlink:href="#ai"/><use transform="matrix(0.049382716049382706,0,0,0.049382716049382706,25.629629629629626,0)" xlink:href="#am"/><use transform="matrix(0.049382716049382706,0,0,0.049382716049382706,29.530864197530857,0)" xlink:href="#bu"/><use transform="matrix(0.049382716049382706,0,0,0.049382716049382706,39.4074074074074,0)" xlink:href="#bi"/><use transform="matrix(0.049382716049382706,0,0,0.049382716049382706,49.283950617283935,0)" xlink:href="#ao"/><use transform="matrix(0.049382716049382706,0,0,0.049382716049382706,54.222222222222214,0)" xlink:href="#am"/><use transform="matrix(0.049382716049382706,0,0,0.049382716049382706,58.12345679012345,0)" xlink:href="#af"/><use transform="matrix(0.049382716049382706,0,0,0.049382716049382706,67.99999999999999,0)" xlink:href="#al"/></g></defs></g></svg>